<svg xmlns="http://www.w3.org/2000/svg" viewBox="0 0 2048 585" style="enable-background:new 0 0 2048 585" xml:space="preserve"><style>.st0{fill:#f0f}.st1,.st2,.st3{fill:none;stroke:#fff;stroke-width:2.8603;stroke-linecap:round;stroke-miterlimit:10}.st2,.st3{stroke:#000;stroke-width:7.5129;stroke-linejoin:round}.st3{fill:#00d7b4}.st4{display:none}.st5{display:inline}.st6{fill:#273959}.st7{fill:#f3c310;stroke:#273959;stroke-width:16.1468;stroke-linecap:round;stroke-linejoin:round;stroke-miterlimit:10}.st8{fill:#40ffff}.st9{fill:#81338a}.st10{fill:#41ff8b}.st11{fill:#fff;stroke:#41328b;stroke-width:13.0669;stroke-linejoin:round;stroke-miterlimit:10}.st12{fill:#ffffa9}.st13{fill:none;stroke:#41328b;stroke-width:13.0669;stroke-linejoin:round;stroke-miterlimit:10}.st14{fill:#4f00ff}.st15{fill:#f40000;stroke:#000;stroke-width:7.5129;stroke-linecap:round;stroke-linejoin:round;stroke-miterlimit:10}.st16{fill:#181716}.st17,.st18,.st21,.st22{fill:#f76768;stroke:#f76768;stroke-width:11.0121;stroke-miterlimit:10}.st18,.st21,.st22{fill:#00f7bd}.st21,.st22{fill:none;stroke:#fff;stroke-width:2.753}.st22{stroke-dasharray:21.8941,21.8941}.st23{fill:#ff0}.st24,.st26{fill:none;stroke:#00f7bd;stroke-width:11.0121;stroke-miterlimit:10}.st26{fill:#00f7bd;stroke:#00f;stroke-linejoin:round}</style><g id="Ebene_1"><path class="st0" d="M428.09 560.06s20.59 22.05 19.97 22.05 69.47-2.24 69.47-2.24l1.15-82.64-23.12-28.95.14 91.39-67.61.39zM495.9 425.58s-1.56-46.9 0-45.97 31.85.15 31.85.15l22.67 4.17s6.19 6.06 6.49 6.7c.31.64 2.68 11.64 2.68 11.64l-40.58.31v22.98H495.9zM568.84 560.06c2.11 2.33 21.83 22.05 21.83 22.05h79.17l-22.05-22.05h-78.95zM574.8 460.28l24.54-8.95 15.85-13.39 9.47-15.29 4.65-21.44-2.71-25.08-1.44-10.98 17.44 18.48 7.83 18.97 1.67 16.19-2.49 19.25-11.06 21.11-14.71 13.07-12.65 6.17-15.69 10.19-9.17-13.88z"/><path class="st1" d="M471.57 570.09v6.19M483.14 571.51l6.14 7.69M454.38 572.66l-8.92.52M461.89 567.72v-3.91M448.06 567.72l-11.65-1.95M492.41 571.51l7.2-1.3M508.14 557.4l7.94 6.41M508.14 548.42h-8.53M508.14 532.82l6.5 3.41M506.58 523.26h-9.47M508.14 515.08l9.38-3.6M506.58 504.79h-6.97M508.95 491.53l4.88 7.34M499.61 490.8h2.24M592.9 563.92l7.51 3.8M611.21 563.81v5.09M623.84 563.92v8.74M631.67 577.22l11.05-11.05M651.44 571.7l.66 6.63M608.86 575.36l-1.4 3.84M596.66 573.18l-5.17 2.18M615.91 465.68l7.93 6.54M601.82 465.68l-7.75 7.61M591.49 461.94h-7.51M608.16 457.8l-2.58-7.52M623.84 454.72l7.56 3.08M623.84 445.28l2.47-6.42M619.34 442.07l-8.13.13M636.72 445.04l2.51 1.97M642.2 432.67l5.59-1.84M633.9 430.83l-9.24-8.18M639.23 416.94l5.63-2.34M636.72 404.74l-7.41-3.53M642.05 396.59l4.43-3.55M639.23 389.8l-6.22-5.44M496.01 402.97h9.08M503.1 408.81l-3.49 6.96M508.14 415.77l6.5 5.03M511.39 408.81l7.63-6.21M512.11 393.04l8.17-3.24M530.92 391.57l-.47 4.71M544.14 393.93l4.81 5.22M536.59 387.12l4.95-4.81M526.54 387.08l1.21-7.31"/><path class="st2" d="M448.06 356.02H564.5c21.59 0 38.1 1.85 49.51 5.55 11.41 3.7 20.61 10.57 27.61 20.59 6.99 10.02 10.48 22.24 10.48 36.63 0 12.55-2.67 23.36-8.02 32.47-5.35 9.1-12.71 16.48-22.07 22.13-5.96 3.6-14.15 6.58-24.53 8.94l72.98 99.79h-78.95m-73.28-91.77v91.77h-70.17m70.17-134.49h29.46c3.19 0 9.36-1.03 18.51-3.09 4.63-.92 8.4-3.29 11.34-7.09 2.93-3.8 4.39-8.17 4.39-13.11 0-7.3-2.31-12.9-6.94-16.81-4.63-3.9-13.32-5.86-26.06-5.86h-30.69v45.96z"/><path class="st3" d="M425.39 560.06v-226.1h116.44c21.59 0 38.1 1.85 49.51 5.55 11.41 3.7 20.61 10.57 27.61 20.59 6.99 10.02 10.48 22.24 10.48 36.63 0 12.55-2.67 23.36-8.02 32.47-5.35 9.1-12.71 16.48-22.07 22.13-5.96 3.6-14.15 6.58-24.53 8.94l72.98 99.79h-78.95l-73.28-91.77v91.77h-70.17zm70.17-134.48h29.46c3.19 0 9.36-1.03 18.51-3.09 4.63-.92 8.4-3.29 11.34-7.09 2.93-3.8 4.39-8.17 4.39-13.11 0-7.3-2.31-12.9-6.94-16.81-4.63-3.9-13.32-5.86-26.06-5.86h-30.69v45.96z"/><path class="st2" d="m425.39 560.06 22.05 22.06M495.56 560.06l22.05 22.06M568.62 560.06l22.05 22.06M647.79 560.06l22.05 22.06M497.12 380.55l22.05 22.05M612.82 352.81l22.05 22.05"/><path class="st0" d="m71.68 380.81-1.2 41.84 22.29 1.19 1.46-21.44h34.75l-1.2-11.76-7.49-7.51-15.8-3.36zM70.48 465.68v45.8h22.29v-23.17l46.19-.43-2.99-11.18-10.87-8.46-10.79-2.2-23.21-.36zM0 560.49l24.11 24.09 137.14-1.88 28.71-6.17 23.22-13.24 12.6-18.47 5.49-29.11-2.43-18.78-17.61-23.4-11.58-11.59 9.34 29.98-2.38 21.91-12.83 25.36-15.97 12.2-23.79 5.95-29.11 2.72h-43.4zM168.42 439.64l12.27-9.93 12.48-15.73 5.33-23.72-2.86-25.11 13.35 14.62 8.26 10.87 4.07 18.64v16.27l-8.76 14.09-14.66 18.16-10.38-9.08z"/><path class="st1" d="m16.91 577.38 9.7-2.19M13.94 571.09l7.82-2.01M39.76 563.92v6.17M32.25 571.09l7.51 6.91M50.09 574.55l9.39-3.46M79.2 572.82l2.31 3.46M73.57 563.92l-.47 7.59M95.64 572.82l4.61 3.46M120.06 582.12l2.47-9.3M108.79 560.06l.47 10.03M133.67 563.92l5.29 6.17M147.29 574.55l-3.76 7.57M163.72 572.82l1.41 3.46M154.33 567h10.1M177.81 567l-.47 7.55M188.61 567.72l6.26 2.37M177.58 560.06l-6.03-7.1M188.14 556.51l3.6 1.77M203.38 556.51l5.61 3.55M197.9 547.48l-4.12-8.29M208.99 549.36l6.39 2.35M215.85 543.33v-7.1M206.18 538.09l-2.8-6.1M221.32 528.23l5.33-3.02M212.18 520.25l-5.57-6.42M221.32 511.48l2.66-4.85M215.85 501l-6.86-9.08M215.85 493.01l5.47-4.43M73.34 488.31l4.46 2.49M85.78 493.48l1.88 7.98M80.36 500.53v8.52M77.8 490.8l3.71-10M99.73 485.8l2.48-6.4M92.77 474.23l-6.05 2.47M99.73 468.3l1.24 4.99M115.63 475.47v3.93M126.77 479.4l3.25 6.4M109.02 473.29v-4.99M92.77 411.48l-9.34 1.21M84.37 397.69l-2.86 4.91M73.34 411.48l10.09 1.21M78.38 398.16l-5.04 1.99M100.97 396.28v-6.48M112.07 393.04l3.56 3.24M92.77 389.8l-4.67 3.24M106.91 390.64l2.11-7.03M121.3 391.42l6.48-.78M180.69 429.71l5.1 5.08M187.52 448.72l2.42-7.36M202.91 451.59l-2.56-6.55M203.38 438.07l9.18 1.57M209.4 424.65l-7.77.93M194.87 430.56l.97 4.23M197.9 414.6h6.88M212.42 414.6h6.16M215.85 399.15l-6.45 3.25M198.5 390.26l10.49.77M208.99 379.77l-7.36 3.84"/><path class="st2" d="M22.28 356.6h130.79c21.8 0 38.53 5.4 50.2 16.19 11.67 10.8 17.51 24.17 17.51 40.1 0 13.37-4.16 24.83-12.49 34.39-5.55 6.38-13.68 11.42-24.37 15.12 16.25 3.9 28.2 10.62 35.86 20.12 7.66 9.51 11.49 21.46 11.49 35.86 0 11.72-2.73 22.27-8.18 31.62-5.45 9.35-12.9 16.76-22.36 22.21-5.86 3.39-14.7 5.86-26.53 7.4-15.73 2.05-26.17 3.08-31.31 3.08H22.28m70.49-137.41h30.39c10.9 0 18.48-1.87 22.75-5.63s6.4-9.18 6.4-16.27c0-6.58-2.14-11.72-6.4-15.42-4.27-3.71-11.7-5.55-22.29-5.55H92.77v42.87zm0 88.83h35.63c12.03 0 20.51-2.13 25.45-6.4 4.93-4.26 7.4-10 7.4-17.2 0-6.68-2.44-12.05-7.33-16.12-4.88-4.06-13.44-6.09-25.68-6.09H92.77v45.81z"/><path class="st3" d="M0 333.97h130.79c21.8 0 38.53 5.4 50.2 16.19 11.67 10.8 17.51 24.17 17.51 40.1 0 13.37-4.16 24.83-12.49 34.39-5.55 6.38-13.68 11.42-24.37 15.12 16.25 3.9 28.2 10.62 35.86 20.12 7.66 9.51 11.49 21.46 11.49 35.86 0 11.72-2.73 22.27-8.18 31.62-5.45 9.35-12.9 16.76-22.36 22.21-5.86 3.39-14.7 5.86-26.53 7.4-15.73 2.05-26.17 3.08-31.31 3.08H0V333.97zm70.48 88.68h30.39c10.9 0 18.48-1.87 22.75-5.63s6.4-9.18 6.4-16.27c0-6.58-2.14-11.72-6.4-15.42-4.27-3.71-11.7-5.55-22.29-5.55H70.48v42.87zm0 88.83h35.63c12.03 0 20.51-2.13 25.45-6.4 4.93-4.26 7.4-10 7.4-17.2 0-6.68-2.44-12.05-7.33-16.12-4.88-4.06-13.44-6.09-25.68-6.09H70.48v45.81z"/><path class="st2" d="m70.48 379.61 22.06 22.06M188 357.51l19.81 19.81M192.35 454.65l22.05 22.05M70.48 465.68l22.06 22.05M0 560.49l22.05 22.05"/><path class="st0" d="m425.15 2.01 22.03 21.2v55.91h-22.03zM356.87 226.11l22.85 23.51h66.05l1.41-91.72h54.31l.13-25.04-76.47 1.79-.66 90.25zM503.93 228.41l21.35 22.78 66.37-1.61 1.88-226.37-21.86-21.2-.37 222.89z"/><path class="st1" d="m580.69 33 3.44 7.57M582.41 51.47l-2.97 4.7M585.07 26.43l8.42.94M582.08 23.48h-8.59M577.78 17.98l4.3-5.88M585.39 64.93l1.88 5.95M579.93 69.94l-6.44 4.38M586.33 57.42l6.89 3.14M579.93 46.15h-8.33M589.28 48.03l4.02 1.88M586.33 84.03l3.44 6.89M580.93 82.08l-3.15 7.9M582.41 94.05l3.92 5.2M579.93 105.94l-4.17 4.7M582.41 114.39l-.33 6.58M584.37 130.67l5.4 5.86M582.41 142.88l-6.65-.31M584.37 151.96l1.96 5.94M582.08 163.37l-6.32 3.61M584.37 170.74l2.7 6.57M587.07 117.68h4.22M582.24 183.57l-6.48.94M582.24 189.52l6.94 6.89M582.08 198.91l-1.15 4.85M584.37 210.81l5.4 7.51M584.37 217.38l-5.02 5.32M585.35 229.28l-.98 7.23M579.93 211.12l-6.44.94M561.28 240.55l3.13 6.88M571.67 242.74l5.04 3.76M575.76 232.89l-6.34 4.24M556.59 235.01h-6.26M543.44 237.13l2.5 4.67M553.46 241.49l1.25 2.5M529.67 239.47h-5.01M534.99 242.74l.31 3.44M532.8 236.51l-1.66-9.52M522.47 235.01h-6.26M544.69 231.75l2.89-3.41M564.1 231.75l.23-6.49M378.78 228.5l3.76 6.51M388.49 239.47h4.07M395.06 232.89l6.17 2.12M403.2 242.74v3.44M412.28 242.74l2.5 3.44M416.66 239.47l7.2-2.34M425.15 243.99l4.1 2.19M411.65 231.75l.31-4.66M375.65 236.51l-4.38 1.79M385.36 245.09v4.49M437.07 229.42l7.76.62M442.64 221.77l-1.69-7.2M435.79 220.04l-2.85 2.98M434.36 206.43l-5.11-1.26M437.07 201.34h6.82M437.07 191.24l-1.28-4.85M431.8 211.59l-6.65 2.98M431.8 195.16l-4.6-2.19M440.48 177.63l6.38 1.24M434.36 170.43l1.43-5.25M431.8 178.25l-4.6 1.88M427.2 156.65l4.6-1.72M440.48 163.37l4.67 4.43M438.89 153.21l-1.82 6.1M456.42 149.77l1.56 6.02M467.06 150.08l3.13 7.82M484.9 149.14l6.58 1.57M478.33 144.45l-6.89-1.73M457.2 141.63v-5.1M443.89 142.72l-6.82.86M450.15 146.69l-2.97 6.09M476.45 149.92l1.88 5.87M489.6 143.58l.62-3.69M494.92 143.58h5.63M428.48 64.93l5.88-1.87M437.98 69.63l-3.62 5.95M437.98 58.99l5.91 5M436.43 50.22l-5.01 3.6M440.48 40.57l3.19 2.45M433.92 36.79h-6.72M441.8 52.02h5.38M443.67 29.87l-5.69-2.97M437.07 15.04l-2 5.13M433.92 26.9h-6.72M440.48 36.79h4.01"/><path class="st3" d="M355.29 0h69.86v79.12h76.34V0h70.18v226.11h-70.18v-91.46h-76.34v91.46h-69.86V0z"/><path class="st2" d="m425.85 135.47 22.43 22.43M571.67 226.11l20.81 20.81M424.76 226.11l22.05 22.05M447.18 79.12V23.21L425.15 0M448.28 157.9h53.21M501.62 226.11l23.52 23.51h68.39V23.21L571.67 0M355.29 226.11l23.51 23.51h68.38V157.9"/><path class="st0" d="m630.93 226.11 20.81 23.47 65.31-2.24 5.13-.42 13-36.98h63.84l-6.41-21.16h-79.32l-12.86 38.46zM804.32 226.11l20.81 20.81 69.7-.74-80.11-223.41-20.94-18.36 82.26 220.96zM728.47 139.89h25.34l12.09-39.8-12.74-41.48z"/><path class="st1" d="m746.17 81.63 4.5 8.66M763.42 92l-6.49 2.99M756.31 82.3l-2.3 3.66M753.29 106.57l6.88 1.72M750.05 101.25l-9.24-2M748.42 115.02v4.97M753.29 115.02l4.89 2.66M741.91 122.53l-6.73.32M747.18 131.3l4.74 5.32M738.54 132.86v6.16M745.43 109.7l-6.89 1.56M749.55 201.34l5.61 6.34M764.76 201.34l5.63-1.8M780.72 201.34l1.25 5.09M786.98 199.54h6.8M738.54 197.04l-3.36-5.8M741.99 201.34v6.03M756.73 196.72l3.44-5.48M723.44 209.94l5.03 4.63M722.18 203.88l-4.06 1.21M720.15 219.18v4.46M714.98 214.57l-6.57-2.32M713.42 226.11l-1.72 2.39M720.15 231.75l4.63 3.26M697.14 239.47l-6.89 4.52M676.48 239.47l4.07 2.26M666.46 236.51h-6.57M655.19 239.47l-1.87 4.52M651.74 233.38l-5.62 1.63M685.87 236.51l-2.19-8.08M699.96 233.38h6.57M703.25 239.47l3.28 3.27M674.6 234.2l-2.81-6.89M844.3 230.04l4.35 2.85M853.97 227.31l.94 7.7M873.38 236.51l-7.2 2.96M866.81 233.38l-.63-3.34M879.64 239.47l5.95-1.48M848.34 237.99l-1.86 4.75M840.83 240.36l-10.65-2.37M825.13 234.2l-6.53.81M837.7 234.2l-5.95-6.89M879.64 207.37h-2.55M881.21 219.18l-1.57 4.46M884.03 223.64h2.71M872.76 196.1h-4.39M866.5 179.51l6.05 4.53M862.74 165.18l-1.23 5.25M858.36 154.93l-1.7 2.97M847.41 142.72l7.03 3.29M853.03 133.96l-2.1 1.98M840.51 122.69l3.79 2.12M847.41 113.94l-3.11 2.41M834.72 107.43l4.54.86M839.57 96.4l-4.07 2.85M825.13 87.47h9.59M831.43 74.36l-1.51 4.03M825.13 62.43l-1.83 2.81M816.41 56.48h3.76M821.86 42.69l-5.45 3.28M804.91 34.3l4.93-.36M814.72 22.77l-7.35 4.13M819.14 33.52l-4.42 5.12"/><path class="st3" d="M792.61 188.78h-79.32l-11.02 37.32h-71.34L715.92 0h76.21l84.96 226.11h-73.17l-11.31-37.33zm-14.49-48.89-24.96-81.28-24.7 81.28h49.66z"/><path class="st2" d="m630.93 226.11 20.81 20.81M701.5 226.11l20.81 20.81M714.37 189.14l20.81 20.8M804.32 226.11l20.81 20.81M877.09 226.11l20.81 20.81M791.96.01l23.47 23.47M815.43 23.48l82.47 223.44M651.74 246.92h70.44M825.13 246.92h72.77M722.31 246.92l12.87-36.98M735.18 209.94h63.84M765.9 100.09l-12.09 39.8"/><path class="st0" d="m938.18 228.43 17.13 18.49h66.45l2.13-83.65 32.95 1.84 33.64-7.43s29-13.14 29.57-17.78c.57-4.65 12.4-26.84 12.4-26.84l5.82-24.95-1.99-28.04-5.19-16.4-9.79-12.54 4.07 21.6.63 23.47-4.54 23.05-15.49 26.42-14.09 5.63-23.48 8.59-19.1 3.61-44.63-1.3-.76 83.32-65.73 2.91zM1004.68 47.4v46.96l19.16 2.04.05-26.6 12.27-4.56 20.68 9.12V58.61l-10.35-11.21-20.03-1.43z"/><path class="st1" d="m1004.68 78.08 6.13 6.05M1017.07 85.96l-.94 7.53M1011.12 89.73l-3.38 4.96M1016.6 74.36h6.65M1016.6 63.84l-5.17 5.96M1011.43 76.38l-6.75-2.02M1016.6 46.62l3.32 5.48M1023.89 58.61l-3.97 3.19M1030.43 58.61v5.23M1027.08 53.66l3.35-5.94M1038.23 52.1v4.38M1047.92 59.98l3.41-2.75M1043.36 60.2l-3.02 3.64M1126.36 65.24l4.34 7.52M1135.39 81.11l-2.81.52M1128.53 94.67l3.11 5.58M1128.53 105.63l-2.17 7.42M1119.43 116.35l-3.76-1.21M1120.37 122.69l4.61 5.1M1114.73 127.54l-2.19 3.44M1101.27 132.86h-6.26M1101.27 139.02v5.35M1107.53 139.89l3.13 4.48M1091.26 144.37h-6.58M1087.97 148.83v5.22M1075.29 151.44h-3.44M1076.54 145.7l-1.25-4.01M1059.95 156.41l-3.11 8.7M1053.69 156.41l-8.14-2.36M1036.79 155.23l-1.25 5.53M1028.76 154.05l-5.51-2.61M1036.16 151.44l2.07-7.07M1060.58 148.83l-.63-4.46M1068.4 155.23l.63 5.53M1006.42 167.8h4.7M1019.92 171.05l-3.32 1.57M1016.6 179.19l3.32 7.83M1014.01 188.78l-5.96 2.62M1011.12 200.44l3.5 4.65M1016.6 215.82l5.31.94M1016.6 197.97l5.31.32M1013.44 223.64l-5.76 7.11M999.54 241.1l6.88 5.82M989.57 241.73l-6 2.28M974.81 240.6l-4.7 6.32M965.42 240.36l-5.33 3.65M957.59 236.51l-6.89 1.48M966.67 234.61l.94-6.18M980.75 232.47l5.82 1.73M1002.98 236.51h6.45M995.78 233.33l.94-6.02"/><path class="st2" d="M1053.38 0c28.46 0 49.47 10.02 63.64 23.56 14.17 13.53 21.26 32.8 21.26 57.79 0 25.68-11.92 49.32-23.17 60.21-17.98 17.4-37.94 21.7-56.76 21.7h-34.45"/><path class="st3" d="M934.5 0h116.14c25.29 0 44.24 6.02 56.83 18.05 12.6 12.03 18.9 29.15 18.9 51.36 0 22.82-6.86 40.67-20.59 53.51-13.73 12.85-34.68 19.28-62.85 19.28h-38.25v83.9H934.5V0zm70.18 96.4h17.12c13.47 0 22.93-2.34 28.38-7.02 5.45-4.67 8.17-10.67 8.17-17.97 0-7.09-2.37-13.11-7.09-18.04-4.73-4.94-13.62-7.4-26.68-7.4h-19.89V96.4z"/><path class="st2" d="m934.5 226.11 20.81 20.81M1003.03 226.11l20.81 20.81M1005.41 144.83l18.43 18.43M1005.41 49.77l18.43 18.43M1023.84 246.92v-83.66M955.31 246.92h68.53M1023.84 68.2v28.2M1023.84 68.2s6.38-4.38 17.25-2.49c14.32 2.49 15.75 8.64 15.75 8.64"/><path class="st0" d="m1192.11 228.43 17.13 18.49h66.45l2.13-83.65 32.95 1.84 33.64-7.43s29-13.14 29.57-17.78c.57-4.65 12.4-26.84 12.4-26.84l5.82-24.95-1.99-28.04-5.19-16.4-9.79-12.54 4.07 21.6.63 23.48-4.54 23.05-15.49 26.42-14.09 5.63-23.48 8.59-19.1 3.61-44.63-1.3-.76 83.32-65.73 2.9zM1258.6 47.4v46.96l19.17 2.04.05-26.6 12.27-4.56 20.68 9.12V58.61l-10.35-11.21-20.03-1.43z"/><path class="st1" d="m1258.6 78.08 6.13 6.05M1270.99 85.96l-.94 7.53M1265.05 89.73l-3.38 4.96M1270.52 74.36h6.66M1270.52 63.84l-5.16 5.96M1265.36 76.38l-6.76-2.02M1270.52 46.62l3.33 5.48M1277.82 58.61l-3.97 3.19M1284.36 58.61v5.23M1281.01 53.66l3.35-5.94M1292.16 52.1v4.38M1301.84 59.98l3.42-2.75M1297.29 60.2l-3.02 3.64M1380.29 65.24l4.34 7.52M1389.32 81.11l-2.82.52M1382.46 94.67l3.11 5.58M1382.46 105.63l-2.17 7.42M1373.36 116.35l-3.76-1.21M1374.3 122.69l4.61 5.1M1368.66 127.54l-2.19 3.44M1355.2 132.86h-6.26M1355.2 139.02v5.35M1361.46 139.89l3.13 4.48M1345.18 144.37h-6.57M1341.9 148.83v5.22M1329.22 151.44h-3.44M1330.47 145.7l-1.25-4.01M1313.88 156.41l-3.11 8.7M1307.62 156.41l-8.14-2.36M1290.72 155.23l-1.26 5.53M1282.69 154.05l-5.51-2.61M1290.09 151.44l2.07-7.07M1314.51 148.83l-.63-4.46M1322.33 155.23l.63 5.53M1260.35 167.8h4.7M1273.85 171.05l-3.33 1.57M1270.52 179.19l3.33 7.83M1267.94 188.78l-5.96 2.62M1265.05 200.44l3.5 4.65M1270.52 215.82l5.32.94M1270.52 197.97l5.32.32M1267.36 223.64l-5.76 7.11M1253.46 241.1l6.89 5.82M1243.5 241.73l-6 2.28M1228.73 240.6l-4.69 6.32M1219.34 240.36l-5.32 3.65M1211.52 236.51l-6.89 1.48M1220.59 234.61l.94-6.18M1234.68 232.47l5.82 1.73M1256.91 236.51h6.45M1249.71 233.33l.94-6.02"/><path class="st2" d="M1307.31 0c28.46 0 49.47 10.02 63.64 23.56 14.17 13.53 21.26 32.8 21.26 57.79 0 25.68-11.92 49.32-23.17 60.21-17.98 17.4-37.94 21.7-56.76 21.7h-34.45"/><path class="st3" d="M1188.43 0h116.14c25.29 0 44.24 6.02 56.83 18.05 12.6 12.03 18.9 29.15 18.9 51.36 0 22.82-6.86 40.67-20.59 53.51-13.73 12.85-34.68 19.28-62.85 19.28h-38.25v83.9h-70.18V0zm70.17 96.4h17.12c13.47 0 22.93-2.34 28.38-7.02 5.45-4.67 8.17-10.67 8.17-17.97 0-7.09-2.37-13.11-7.09-18.04-4.73-4.94-13.62-7.4-26.68-7.4h-19.89V96.4z"/><path class="st2" d="m1188.43 226.11 20.81 20.81M1256.96 226.11l20.81 20.81M1259.34 144.83l18.43 18.43M1259.34 49.77l18.43 18.43M1277.77 246.92v-83.66M1209.24 246.92h68.53M1277.77 68.2v28.2M1277.77 68.2s6.38-4.38 17.25-2.49c14.32 2.49 15.75 8.64 15.75 8.64"/><path class="st0" d="m1489.54 226.11 20.9 20.78h69.63l1.74-94.59L1671 21.73 1647.47 0l-87.28 132.55-1.25 93.28zM1483.88 8.04l40.76 68.24 4.83-8.08-27.92-47.39z"/><path class="st1" d="M1587.73 129.26h6.27M1598.38 106.25l-7.52 3.09M1590.86 117.52l9.71.32M1580.27 115.75v7.69M1580.27 134.74l-4.74 6.95M1573.96 131.3l-6.57 1.56M1573.65 125.24l-2.98-5.64M1604.95 97.46l7.2 3.79M1590.86 101.56l-9.05-.31M1596.81 96.4l3.76-7.99M1612.46 88.41l6.27-.31M1608.55 82.3l3.29-11.12M1601.51 79.65l-5.79-1.05M1618.73 75.37l6.32.91M1623.42 63.84l1.63-5.23M1628.12 66.82l5.63-1.58M1617.16 62.02l-1.57-5.54M1634.69 54.29h8.14M1624.72 47.59l8.36-2.33M1645.02 40.83l7.2 1.33M1653.79 33.32l-5.17-7.52M1641.26 29.56l-6.57 5.01M1648.62 18.29l-7.04-2.82M1654.1 19.86l10.02.62M1573.33 157.99l4.57 2.77M1568.01 147.9l-5.94 6.15M1569.66 165.11l4.3 6.73M1568.33 177l-5.95 3.13M1570.67 183.11l4.95 3.91M1569.66 198.13l-3.21 4.63M1577.9 208.93V213M1575.62 194.84l2.28 4.75M1569.66 214.57l-6.97 5.94M1571.41 226.11l-.74 7.22M1554.55 239.61l6.89 7.31M1561.75 231.52l-2.19 4.96M1545.7 229.72v3.61M1538.27 238.67l2.2 5.34M1529.47 241.34l-4.99 3.9M1529.47 228.65l1.6 4.68M1521.37 236.48h-5.86M1509.79 233.33l-6.26-3.61M1513.23 241.34l-2.11 2.42"/><path class="st3" d="M1401.48 0h77.61l45.55 76.28L1570.29 0h77.19l-87.91 131.41v94.7h-70.02v-94.7L1401.48 0z"/><path class="st2" d="m1489.63 226.08 20.81 20.81M1559.26 226.08l20.81 20.81M1561.01 131.49l20.8 20.81M1647.47 0l20.81 20.81M1480.74 0l20.81 20.81M1511.12 246.89h69.15M1581.81 152.3v94.59M1668.28 20.81l-86.47 131.49M1501.55 20.81l27.92 47.39"/><path class="st0" d="m270.54 561.81 20.31 20.31h71.97l-1.95-226.1-22.05-19.84-.89 224.45z"/><path class="st1" d="m349.85 359.19 4.52 5.96M349.85 370.93l-8.01 3.75M351.9 379.52l-1.84 5.57M349.85 393.04l2.26 7.11M345.85 406.14l-5.59 5.34M350.98 416.94l7.45 7.71M349.85 426.87v7.92M345.85 445.28l-4.01 5M354.71 450.28v8.87M345.85 465.68l-2.8 5.11M352.11 473.29l6.32 6.11M348.26 485.8l-5.21 8.15M349.85 494.42l4.86 10.37M350.98 515.08v8.18M349.85 531.52l-8.01 2.59M352.11 539.78l3.16 3.55M349.85 550.53l-5.4 3.53M352.28 560.06v7.66M333.24 576.28l5.58 5.84M337.93 560.63l-1.9 6.37M322 565.21l-4.76 2.4M301.31 570.77l6.57 3.78M290.85 568.9l-5.98 2.61M309.76 567.72l-1.41-2.65M322.44 574.55l-2.82 4.65"/><path class="st3" d="M268.8 333.97h70.02v226.1H268.8v-226.1z"/><path class="st2" d="m338.82 333.97 22.05 22.05M338.82 560.06l22.05 22.06M268.8 560.06l22.05 22.06M290.85 582.12h70.02M360.87 356.02v226.1"/><path class="st0" d="m689.31 391.57 21.12 21.12h47.82V389.8zM760.93 562.11l17.91 20.18 68.2-.17 4.58-6V414.6l69.81-1.91v-56.67l-22.06-19.84-.79 51.65-70.46 1.97.03 169.89z"/><path class="st1" d="m739.38 406.29-6.89-1.18M718.76 404.66l-.7-7.76M742.22 400.78l9.08-4.24M728.4 398.66l5.94-7.09M710.43 398.66l-11.03 2.12M845.17 406.24h8.8M855.33 391.57l6.63 7.09M872.76 401.67l-1.41 7.14M886.52 405.24l5.96 6.24M899.37 397.64l-6.42 3.14M899.37 408.36v-5.39M883.09 393.93l-.47 4.73M899.37 383.42l8.76-3.81M914.85 387.08l-4.45 8.05M918.77 375.44l-6.14-5.01M908.13 360.54l-4.38 3.3M914.85 354.02l-2.22 8.01M828.12 406.24l8.32 6.52M851.62 414.6l-10.44 6.2M828.12 425.58l8.32 5.25M850.37 430.83l-7.67 3.96M838.32 442.07v5.71M831.46 454.04l.82 6.2M849.57 457.8l-9.06 7.88M838.32 475.27v8.1M850.37 489.88l-7.67 5.32M831.46 496.46l9.72 16.82M848.31 504.87h-3.14M842.7 527.7l2.34 5.12M836.32 519.17l-4.86 5.71M839.47 539.78v10.75M842.7 557.4l4.34 3.21M814.25 563.92l3.11 7.35M833.89 571.05l-4.8 4.31M805.45 578.73v-5.81M788.24 563.92l4.95 6.17M784.67 578.1l2.16-5.18M773.68 570.21l4.7-.12M804.67 563.92v3.8"/><path class="st3" d="M687 333.97h212.38v55.83h-71.26v170.27h-69.86V389.8H687v-55.83z"/><path class="st2" d="m688.38 390.64 22.05 22.05M829.57 390.64l22.05 22.05M829.57 560.06l22.05 22.06M759.06 560.24l22.05 22.05M899.37 390.64l22.06 22.05M899.37 333.97l22.06 22.05M710.43 412.69h47.82M851.62 412.69h69.81M781.11 582.29h70.51M851.62 412.69v169.43M921.43 356.02v56.67"/><path class="st0" d="m1284.09 560.06 20.23 22.98 114.65-.49 25.97-4.45 26.66-9.44 14.82-14.97 15.51-23.29 8.35-28.84 2.1-46.27-6.07-31.69-9.98-23.59-15.06-18.25-6.63-5.35 10.11 33.49 4.39 48.55-5.02 37.22-13.46 26.92-28.46 25.62-25.07 8.19-25.36 3.35z"/><path class="st0" d="m1350.98 385.17 1.35 124.9 20.03-1.36 1.82-99.12 26.98-1.45 13.11 3.12-9.63-15.45-15.37-8.35z"/><path class="st1" d="M1352 479.32h8.16M1373.27 459.24l-7.01 2.5M1352 441.93l10.62 2.99M1373.87 426.87l-11.25 3.42M1352 412.76l10.62 3.01M1368.24 405.24l-5.62 4.26M1382.62 405.24l2.5-6.03M1362.62 396.29l14.91-1.47M1404.64 395.81l-8.33 4.97M1352 466.5h5.31M1354.65 454.04h7.97M1354.65 426.74l7.97 18.18M1370.07 479.32l-4.64 4.05M1370.43 497.88l-8.17-2.05M1357.31 501.44l-5.04 3.43M1304.32 563.92l7.47 4.37M1323.53 561.66l.47 4.16M1304.32 583.04l10.29-5.76M1295.66 573.2l8.66-.28M1330.57 579.82l4.64-6.62M1350.95 567.72v5.2M1365.43 571.05l-2.81 7.68M1335.21 562.15l3.82 4.68M1385.12 575.51l13.11-3.57M1377.06 565.39l-.47 6.55M1414.27 571.94l14.91 4.57M1424.49 564.49l1.87-5.49M1405.7 566.36v-4.21M1402.42 575.01l3.28 3.72M1442.63 566.07l2.21 8.16M1447.96 555.17l-5.76 3.83M1434.35 565.39l-1.41 1.61M1454.96 562.15h6.62M1466.04 548.21v5.33M1473.36 550.87l2.93 8.13M1454.96 541.85l3.31 6.36M1473.36 531.68l1.28 5.72M1485.19 537.4l-3.29 2.04M1483.55 524.88l1.64 6.8M1481.9 545.03v3.18M1494.29 517.69h8.14M1492.1 527.7l9.83 2.7M1478.57 507.67l5.8 5.16M1494.29 498.82l-2.19 6.05M1510.28 501.56l-9.66 3.31M1489.14 479.32l5.15 4.25M1510.97 486.42l-8.54 2.16M1500.62 467.24v5.48M1509.48 451.32l-4.03 5.82M1489.14 444.92l7.87 2.86M1506.7 432.81l-6.08 7.14M1498.36 417.7v9.04M1491.72 406.24l-2.58 6.45M1489.14 458.45l5.15 8.05"/><path class="st2" d="M1304.32 356.94h103.8c20.46 0 36.99 2.77 49.58 8.33 12.59 5.55 23 13.52 31.23 23.9 8.22 10.39 14.19 22.47 17.89 36.24 3.7 13.78 5.55 28.38 5.55 43.8 0 24.17-2.76 42.91-8.25 56.22-5.5 13.32-13.14 24.47-22.9 33.46-9.77 9-20.26 14.99-31.46 17.97-15.32 4.12-29.2 6.17-41.64 6.17h-103.8m69.86-174.89v123.54h17.12c14.6 0 24.99-1.62 31.16-4.86 6.17-3.24 11-8.89 14.5-16.96 3.49-8.07 5.24-21.16 5.24-39.25 0-23.96-3.91-40.36-11.72-49.2-7.82-8.84-20.77-13.26-38.87-13.26h-17.43z"/><path class="st3" d="M1281.09 333.97h103.8c20.46 0 36.99 2.77 49.58 8.33 12.59 5.55 23 13.52 31.23 23.9 8.22 10.39 14.19 22.47 17.89 36.24 3.7 13.78 5.55 28.38 5.55 43.8 0 24.17-2.76 42.91-8.25 56.22-5.5 13.32-13.14 24.47-22.9 33.46-9.77 9-20.26 14.99-31.46 17.97-15.32 4.12-29.2 6.17-41.64 6.17h-103.8V333.97zm69.86 51.2v123.54h17.12c14.6 0 24.99-1.62 31.16-4.86 6.17-3.24 11-8.89 14.5-16.96 3.49-8.07 5.24-21.16 5.24-39.25 0-23.96-3.91-40.36-11.72-49.2-7.82-8.84-20.77-13.26-38.87-13.26h-17.43z"/><path class="st2" d="m1281.75 560.69 20.81 20.8M1352.21 387.23l20.81 20.81M1464.24 364.73l20.8 20.81"/><path class="st0" d="m1039.58 335.65 22.02 21.2v55.91h-22.02zM971.3 559.75l22.85 23.51h66.05l1.4-91.71 54.32-.01.13-25.04-76.47 1.79-.67 90.25zM1118.36 562.05l21.35 22.78 66.37-1.6 1.87-226.38-21.85-21.2-.37 222.89z"/><path class="st1" d="m1195.12 366.65 3.44 7.56M1196.84 385.11l-2.97 4.7M1199.5 360.07l8.42.95M1196.5 357.12h-8.58M1192.21 351.62l4.29-5.88M1199.82 398.58l1.87 5.94M1194.36 403.58l-6.44 4.39M1200.75 391.06l6.89 3.14M1194.36 379.79h-8.33M1203.71 381.67l4.02 1.88M1200.75 417.67l3.45 6.89M1195.35 415.73l-3.14 7.89M1196.84 427.69l3.91 5.2M1194.36 439.58l-4.17 4.7M1196.84 448.04l-.34 6.57M1198.8 464.31l5.4 5.86M1196.84 476.52l-6.65-.31M1198.8 485.6l1.95 5.94M1196.5 497.01l-6.31 3.62M1198.8 504.38l2.7 6.58M1201.5 451.32h4.22M1196.67 517.22l-6.48.94M1196.67 523.16l6.94 6.89M1196.5 532.56l-1.15 4.84M1198.8 544.45l5.4 7.51M1198.8 551.02l-5.02 5.33M1199.78 562.92l-.98 7.23M1194.36 544.76l-6.44.94M1175.71 574.19l3.13 6.89M1186.1 576.38l5.04 3.76M1190.19 566.54l-6.34 4.23M1171.02 568.66h-6.26M1157.87 570.77l2.5 4.67M1167.89 575.13l1.25 2.5M1144.09 573.11h-5M1149.42 576.38l.31 3.44M1147.23 570.15l-1.66-9.52M1136.89 568.66h-6.26M1159.12 565.39l2.88-3.41M1178.53 565.39l.23-6.49M993.21 562.15l3.76 6.51M1002.91 573.11h4.07M1009.49 566.54l6.17 2.12M1017.63 576.38v3.44M1026.71 576.38l2.5 3.44M1031.09 573.11l7.2-2.34M1039.58 577.63l4.1 2.19M1026.08 565.39l.31-4.66M990.08 570.15l-4.38 1.79M999.78 578.73v4.5M1051.49 563.06l7.77.63M1057.07 555.41l-1.69-7.2M1050.21 553.69l-2.84 2.97M1048.79 540.07l-5.11-1.25M1051.49 534.98h6.83M1051.49 524.88l-1.28-4.85M1046.23 545.23l-6.65 2.98M1046.23 528.8l-4.6-2.19M1054.91 511.27l6.37 1.24M1048.79 504.07l1.42-5.25M1046.23 511.89l-4.6 1.88M1041.63 490.3l4.6-1.73M1054.91 497.01l4.66 4.43M1053.31 486.85l-1.82 6.11M1070.84 483.41l1.57 6.02M1081.49 483.72l3.13 7.82M1099.33 482.78l6.57 1.57M1092.76 478.09l-6.89-1.72M1071.63 475.27v-5.1M1058.32 476.37l-6.83.86M1064.58 480.33l-2.98 6.09M1090.88 483.57l1.88 5.86M1104.03 477.23l.62-3.7M1109.35 477.23h5.63M1042.91 398.58l5.88-1.88M1052.4 403.27l-3.61 5.95M1052.4 392.63l5.92 5.01M1050.85 383.86l-5 3.6M1054.91 374.21l3.19 2.45M1048.35 370.43h-6.72M1056.22 385.66h5.38M1058.1 363.52l-5.7-2.98M1051.49 348.68l-1.99 5.13M1048.35 360.54h-6.72M1054.91 370.43h4"/><path class="st3" d="M969.71 333.64h69.86v79.12h76.34v-79.12h70.18v226.11h-70.18v-91.46h-76.34v91.46h-69.86V333.64z"/><path class="st2" d="m1040.28 469.12 22.42 22.42M1186.1 559.75l20.81 20.81M1039.19 559.75l22.05 22.05M1061.6 412.76v-55.91l-22.02-23.21M1062.7 491.54h53.22M1116.05 559.75l23.52 23.51h68.38V356.85l-21.85-23.21M969.71 559.75l23.52 23.51h68.37v-91.71"/><path class="st0" d="m1866.54 561.1 20.9 20.78h69.62l1.75-94.59L2048 356.73 2024.47 335l-87.29 132.55-1.25 93.28zM1860.88 343.03l40.75 68.25 4.84-8.08-27.92-47.4z"/><path class="st1" d="M1964.73 464.26h6.26M1975.38 441.25l-7.52 3.09M1967.86 452.52l9.71.31M1957.27 450.74v7.7M1957.27 469.74l-4.75 6.95M1950.96 466.29l-6.58 1.57M1950.65 460.24l-2.98-5.65M1981.95 432.46l7.2 3.78M1967.86 436.55l-9.05-.31M1973.81 431.39l3.76-7.98M1989.46 423.41l6.26-.32M1985.55 417.3l3.29-11.12M1978.51 414.64l-5.8-1.05M1995.72 410.36l6.33.92M2000.42 398.83l1.63-5.23M2005.11 401.81l5.64-1.57M1994.16 397.02l-1.57-5.54M2011.69 389.29h8.14M2001.72 382.59l8.35-2.34M2022.02 375.82l7.2 1.33M2030.78 368.31l-5.16-7.51M2018.26 364.56l-6.57 5M2025.62 353.29l-7.05-2.82M2031.1 354.85l10.01.63M1950.33 492.99l4.57 2.76M1945.01 482.9l-5.95 6.14M1946.66 500.1l4.3 6.73M1945.32 512l-5.94 3.13M1947.67 518.1l4.94 3.91M1946.66 533.13l-3.21 4.63M1954.9 543.93V548M1952.61 529.84l2.29 4.75M1946.66 549.56l-6.97 5.95M1948.41 561.1l-.74 7.23M1931.55 574.6l6.89 7.31M1938.75 566.51l-2.19 4.97M1922.69 564.72v3.61M1915.27 573.66l2.19 5.34M1906.47 576.33l-5 3.91M1906.47 563.65l1.6 4.68M1898.37 571.48h-5.86M1886.79 568.33l-6.27-3.61M1890.23 576.33l-2.11 2.42"/><path class="st3" d="M1778.47 335h77.61l45.55 76.28 45.65-76.28h77.19l-87.91 131.41v94.7h-70.02v-94.7L1778.47 335z"/><path class="st2" d="m1866.63 561.07 20.81 20.81M1936.25 561.07l20.81 20.81M1938 466.48l20.81 20.81M2024.47 335l20.81 20.8M1857.74 335l20.81 20.8M1888.12 581.88h69.15M1958.81 487.29v94.59M2045.28 355.8l-86.47 131.49M1878.55 355.8l27.92 47.4"/><path class="st0" d="m1541.63 560.46 20.8 23.48 65.31-2.25 5.14-.42 12.99-36.97h63.85l-6.42-21.16h-79.32l-12.86 38.46zM1715.01 560.46l20.81 20.81 69.7-.73-80.11-223.41-20.94-18.36 82.26 220.95zM1639.16 474.25h25.34l12.09-39.8-12.74-41.49z"/><path class="st1" d="m1656.86 415.99 4.5 8.66M1674.11 426.36l-6.49 2.98M1667 416.66l-2.3 3.66M1663.98 440.92l6.89 1.73M1660.74 435.6l-9.23-1.99M1659.11 449.38v4.97M1663.98 449.38l4.9 2.66M1652.6 456.89l-6.73.31M1657.87 465.65l4.74 5.33M1649.23 467.22v6.16M1656.12 444.05l-6.89 1.57M1660.24 535.69l5.61 6.35M1675.45 535.69l5.63-1.79M1691.41 535.69l1.26 5.09M1697.68 533.9h6.79M1649.23 531.39l-3.36-5.79M1652.68 535.69v6.03M1667.42 531.08l3.45-5.48M1634.13 544.3l5.03 4.62M1632.88 538.24l-4.07 1.2M1630.84 553.54V558M1625.67 548.92l-6.57-2.31M1624.11 560.46l-1.72 2.4M1630.84 566.11l4.63 3.26M1607.83 573.82l-6.88 4.53M1587.17 573.82l4.07 2.26M1577.16 570.87h-6.58M1565.89 573.82l-1.88 4.53M1562.43 567.74l-5.62 1.63M1596.56 570.87l-2.19-8.08M1610.65 567.74h6.57M1613.94 573.82l3.28 3.28M1585.29 568.55l-2.81-6.89M1755 564.4l4.34 2.85M1764.67 561.66l.93 7.71M1784.07 570.87l-7.2 2.95M1777.5 567.74l-.63-3.34M1790.33 573.82l5.95-1.48M1759.03 572.34l-1.86 4.76M1751.52 574.72l-10.65-2.38M1735.82 568.55l-6.53.82M1748.39 568.55l-5.95-6.89M1790.33 541.72h-2.55M1791.9 553.54l-1.57 4.46M1794.72 558h2.72M1783.45 530.45h-4.39M1777.19 513.86l6.05 4.54M1773.43 499.53l-1.23 5.25M1769.05 489.28l-1.7 2.97M1758.1 477.08l7.03 3.29M1763.73 468.31l-2.11 1.99M1751.2 457.05l3.8 2.12M1758.1 448.29l-3.1 2.42M1745.41 441.78l4.54.87M1750.27 430.75l-4.07 2.86M1735.82 421.83h9.59M1742.13 408.71l-1.51 4.04M1735.82 396.79l-1.83 2.81M1727.1 390.84h3.76M1732.55 377.05l-5.45 3.27M1715.6 368.65l4.93-.35M1725.41 357.13l-7.35 4.13M1729.83 367.88l-4.42 5.11"/><path class="st3" d="M1703.3 523.14h-79.32l-11.02 37.32h-71.34l84.98-226.11h76.21l84.96 226.11h-73.17l-11.3-37.32zm-14.49-48.89-24.96-81.28-24.7 81.28h49.66z"/><path class="st2" d="m1541.63 560.46 20.8 20.81M1612.19 560.46l20.81 20.81M1625.06 523.49l20.81 20.81M1715.01 560.46l20.81 20.81M1787.78 560.46l20.81 20.81M1702.65 334.36l23.47 23.47M1726.12 357.83l82.47 223.44M1562.43 581.27h70.45M1735.82 581.27h72.77M1633 581.27l12.87-36.97M1645.87 544.3h63.85M1676.59 434.45l-12.09 39.8"/></g></svg>