<svg xmlns="http://www.w3.org/2000/svg" viewBox="0 0 1906 2048" style="enable-background:new 0 0 1906 2048" xml:space="preserve"><style>.st0{display:none}.st1{display:inline}.st2{fill:#f0f}.st3,.st4,.st5{fill:none;stroke:#fff;stroke-width:1.4301;stroke-linecap:round;stroke-miterlimit:10}.st4,.st5{stroke:#000;stroke-width:3.7565;stroke-linejoin:round}.st5{fill:#00d7b4}.st6{fill:#273959}.st7{fill:#f3c310;stroke:#273959;stroke-width:8.0734;stroke-linecap:round;stroke-linejoin:round;stroke-miterlimit:10}.st8{fill:#40ffff}.st9{fill:#81338a}.st10{fill:#41ff8b}.st11{fill:#fff;stroke:#41328b;stroke-width:6.5334;stroke-linejoin:round;stroke-miterlimit:10}.st12{fill:#ffffa9}.st13{fill:none;stroke:#41328b;stroke-width:6.5334;stroke-linejoin:round;stroke-miterlimit:10}.st14{fill:#4f00ff}.st15{fill:#f40000;stroke:#000;stroke-width:3.7565;stroke-linecap:round;stroke-linejoin:round;stroke-miterlimit:10}.st16{fill:#181716}.st17,.st18,.st21,.st22{fill:#f76768;stroke:#f76768;stroke-width:11.0121;stroke-miterlimit:10}.st18,.st21,.st22{fill:#00f7bd}.st21,.st22{fill:none;stroke:#fff;stroke-width:2.753}.st22{stroke-dasharray:21.8941,21.8941}.st23{fill:#ff0}.st24,.st26{fill:none;stroke:#00f7bd;stroke-width:11.0121;stroke-miterlimit:10}.st26{fill:#00f7bd;stroke:#00f;stroke-linejoin:round}</style><g id="Ebene_5"><path class="st16" d="M1918.68 243.73 1641.29.4a5.56 5.56 0 0 0-4.68.27l-79.95 43.43-9.9-3.48 1.79-4.97c.51-1.41.42-2.97-.26-4.32a5.502 5.502 0 0 0-3.29-2.8L1453.75.25a5.555 5.555 0 0 0-3.83.21l-93.33 40.56-62.01-20.66c-.05-.02-.1 0-.16-.01l-21.52-7.56-3.66 10.39 1.17.41-201.39 32.15-122.21-42.96-3.66 10.39 15.54 5.46-261.98-5.19L630.91.32l-3.66 10.39 5.69 2 6.41 30.65-92.28 20.57L356.39.28c-.56-.18-1.15-.28-1.74-.28H185.82a5.5 5.5 0 0 0-5.33 4.12L50.55 503.82c-.72 2.77.81 5.64 3.51 6.58l183.68 64.54-95.58 489.37c-.52 2.68 1 5.34 3.58 6.25l576.6 202.62 2.14 352.38a5.493 5.493 0 0 0 3.68 5.16l1186.65 416.98c.6.2 1.22.31 1.83.31 1.13 0 2.24-.34 3.18-1.01a5.526 5.526 0 0 0 2.32-4.5V243.73c-.01-2.25-1.37.84-3.46 0zM1543.62 51.19l-.82.44.23-.65.59.21z"/><path class="st17" d="M354.65 5.51v499.7H224.71V295.33h-38.89v209.88H55.88V5.51h129.94v178.7h38.89V5.51h129.94zM631.44 5.51l74.31 499.7h-132.8l-6.97-89.82h-46.49l-7.81 89.82H377.34l66.28-499.7h187.82zm-68.87 321.3c-6.58-56.6-13.17-126.56-19.79-209.88-13.24 95.68-21.56 165.65-24.94 209.88h44.73zM727.81 5.51h130.87c35.39 0 62.6 2.77 81.63 8.33 19.03 5.55 33.34 13.58 42.91 24.07 9.57 10.5 16.04 23.2 19.44 38.12 3.4 14.92 5.09 38.02 5.09 69.29v43.52c0 31.9-3.29 55.15-9.87 69.76-6.59 14.61-18.67 25.83-36.26 33.64-17.59 7.82-40.59 11.73-68.99 11.73h-34.88v201.24H727.81V5.51zM857.75 91v127.17c3.7.2 6.89.31 9.57.31 11.93 0 20.22-2.93 24.84-8.8 4.64-5.87 6.95-18.06 6.95-36.57v-41.05c0-17.07-2.68-28.19-8.02-33.33-5.35-5.15-16.46-7.73-33.34-7.73zM1045.1 5.51h130.87c35.39 0 62.6 2.77 81.63 8.33 19.03 5.55 33.34 13.58 42.91 24.07s16.05 23.2 19.44 38.12c3.4 14.92 5.09 38.02 5.09 69.29v43.52c0 31.9-3.29 55.15-9.87 69.76-6.59 14.61-18.67 25.83-36.26 33.64-17.59 7.82-40.59 11.73-68.99 11.73h-34.88v201.24H1045.1V5.51zM1175.04 91v127.17c3.7.2 6.89.31 9.57.31 11.93 0 20.22-2.93 24.84-8.8 4.63-5.87 6.95-18.06 6.95-36.57v-41.05c0-17.07-2.68-28.19-8.02-33.33-5.36-5.15-16.47-7.73-33.34-7.73zM1639.24 5.51l-94.75 318.84v180.87h-120.37V324.34L1332.76 5.51h119.37c18.65 97.54 29.16 163.18 31.55 196.92 7.21-53.31 19.26-118.96 36.19-196.92h119.37zM147.56 565.66h129.63c40.95 0 71.97 3.19 93.05 9.56 21.1 6.38 38.12 19.28 51.08 38.71 12.97 19.43 19.45 50.74 19.45 93.93 0 29.2-4.58 49.55-13.74 61.06-9.15 11.53-27.21 20.37-54.17 26.53 30.05 6.8 50.41 18.07 61.12 33.82 10.7 15.74 16.06 39.9 16.06 72.42v46.33c0 33.77-3.86 58.78-11.58 75.04-7.71 16.26-20.01 27.38-36.88 33.35-16.88 5.97-51.45 8.96-103.71 8.96H147.56V565.66zm129.94 85.5v111.12c5.56-.2 9.87-.31 12.96-.31 12.75 0 20.88-3.13 24.39-9.41 3.5-6.28 5.25-24.24 5.25-53.86 0-15.64-1.44-26.61-4.32-32.88-2.88-6.27-6.64-10.24-11.27-11.88-4.63-1.65-13.64-2.57-27.01-2.78zm0 188.88v139.82c18.31-.62 29.98-3.5 35.03-8.65 5.04-5.14 7.57-17.79 7.57-37.96v-46.61c0-21.4-2.27-34.36-6.8-38.89-4.53-4.5-16.46-7.08-35.8-7.71zM626.59 565.66v499.7H496.65v-499.7h129.94zM678.74 565.66h91.98c61.31 0 102.83 2.37 124.53 7.1 21.71 4.74 39.4 16.82 53.09 36.27 13.68 19.44 20.53 50.46 20.53 93.05 0 38.9-4.84 65.03-14.51 78.4-9.68 13.38-28.7 21.41-57.1 24.08 25.72 6.38 43.01 14.93 51.86 25.62 8.84 10.7 14.35 20.52 16.51 29.48 2.16 8.95 3.25 33.6 3.25 73.92v131.79H848.19V899.31c0-26.75-2.12-43.31-6.33-49.69-4.22-6.37-15.27-9.57-33.18-9.57v225.32H678.74V565.66zm129.94 85.5v111.12c14.6 0 24.84-2 30.71-6.02 5.86-4.01 8.8-17.02 8.8-39.04v-27.48c0-15.84-2.84-26.23-8.5-31.17-5.65-4.95-15.99-7.41-31.01-7.41zM1280.91 565.66v100h-77.16v399.7h-129.94v-399.7h-76.86v-100h283.96zM1609.32 565.66v499.7h-129.94V855.49h-38.89v209.88h-129.94v-499.7h129.94v178.7h38.89v-178.7h129.94zM729.98 1125.82h97.23c62.75 0 105.2 2.88 127.32 8.64 22.11 5.76 38.93 15.23 50.46 28.4 11.53 13.16 18.72 27.83 21.6 43.98 2.88 16.15 4.32 47.89 4.32 95.22v175c0 44.85-2.11 74.85-6.32 89.97-4.23 15.13-11.57 26.96-22.07 35.5s-23.47 14.51-38.9 17.89c-15.43 3.4-38.68 5.1-69.75 5.1H729.98v-499.7zm129.94 85.5v328.71c18.72 0 30.25-3.75 34.56-11.27 4.32-7.51 6.48-27.93 6.48-61.27v-194.14c0-22.63-.72-37.13-2.16-43.51-1.44-6.39-4.73-11.06-9.87-14.04-5.15-3-14.82-4.48-29.01-4.48zM1303.98 1125.82l74.31 499.7h-132.8l-6.97-89.82h-46.49l-7.81 89.82h-134.34l66.28-499.7h187.82zm-68.87 321.3c-6.58-56.6-13.17-126.56-19.79-209.89-13.24 95.69-21.56 165.65-24.94 209.89h44.73zM1639.25 1125.82l-94.75 318.82v180.87h-120.37v-180.87l-91.36-318.82h119.37c18.65 97.54 29.16 163.17 31.55 196.91 7.21-53.31 19.26-118.95 36.19-196.91h119.37z"/><path class="st18" d="M315.77 5.51v499.7H185.83V295.33h-38.89v209.88H17V5.51h129.94v178.7h38.89V5.51h129.94zM592.55 5.51l74.31 499.7h-132.8l-6.97-89.82H480.6l-7.81 89.82H338.46l66.28-499.7h187.81zm-68.86 321.3c-6.58-56.6-13.17-126.56-19.79-209.88-13.24 95.68-21.56 165.65-24.94 209.88h44.73zM688.93 5.51H819.8c35.39 0 62.6 2.77 81.63 8.33 19.03 5.55 33.34 13.58 42.91 24.07 9.57 10.5 16.04 23.2 19.44 38.12 3.4 14.92 5.09 38.02 5.09 69.29v43.52c0 31.9-3.29 55.15-9.87 69.76-6.59 14.61-18.67 25.83-36.26 33.64-17.59 7.82-40.59 11.73-68.99 11.73h-34.88v201.24H688.93V5.51zM818.87 91v127.17c3.7.2 6.89.31 9.57.31 11.93 0 20.22-2.93 24.84-8.8 4.64-5.87 6.95-18.06 6.95-36.57v-41.05c0-17.07-2.68-28.19-8.02-33.33-5.35-5.15-16.46-7.73-33.34-7.73zM1006.22 5.51h130.87c35.39 0 62.6 2.77 81.63 8.33 19.03 5.55 33.34 13.58 42.91 24.07s16.04 23.2 19.44 38.12c3.4 14.92 5.09 38.02 5.09 69.29v43.52c0 31.9-3.29 55.15-9.87 69.76-6.59 14.61-18.67 25.83-36.26 33.64-17.59 7.82-40.59 11.73-68.99 11.73h-34.88v201.24h-129.94V5.51zM1136.16 91v127.17c3.7.2 6.89.31 9.57.31 11.93 0 20.22-2.93 24.84-8.8 4.64-5.87 6.95-18.06 6.95-36.57v-41.05c0-17.07-2.68-28.19-8.02-33.33-5.36-5.15-16.47-7.73-33.34-7.73zM1600.36 5.51l-94.75 318.84v180.87h-120.37V324.34L1293.88 5.51h119.37c18.65 97.54 29.16 163.18 31.55 196.92 7.21-53.31 19.26-118.96 36.19-196.92h119.37zM108.68 565.66h129.63c40.95 0 71.97 3.19 93.05 9.56 21.1 6.38 38.12 19.28 51.08 38.71 12.97 19.43 19.45 50.74 19.45 93.93 0 29.2-4.58 49.55-13.74 61.06-9.15 11.53-27.21 20.37-54.17 26.53 30.05 6.8 50.41 18.07 61.12 33.82 10.7 15.74 16.06 39.9 16.06 72.42v46.33c0 33.77-3.86 58.78-11.58 75.04-7.71 16.26-20.01 27.38-36.88 33.35-16.88 5.97-51.45 8.96-103.71 8.96H108.68V565.66zm129.94 85.5v111.12c5.56-.2 9.87-.31 12.96-.31 12.75 0 20.88-3.13 24.39-9.41 3.5-6.28 5.25-24.24 5.25-53.86 0-15.64-1.44-26.61-4.32-32.88-2.88-6.27-6.64-10.24-11.27-11.88-4.63-1.65-13.64-2.57-27.01-2.78zm0 188.88v139.82c18.31-.62 29.98-3.5 35.03-8.65 5.04-5.14 7.57-17.79 7.57-37.96v-46.61c0-21.4-2.27-34.36-6.8-38.89-4.53-4.5-16.47-7.08-35.8-7.71zM587.7 565.66v499.7H457.76v-499.7H587.7zM639.86 565.66h91.98c61.31 0 102.83 2.37 124.53 7.1 21.71 4.74 39.4 16.82 53.09 36.27 13.68 19.44 20.53 50.46 20.53 93.05 0 38.9-4.84 65.03-14.51 78.4-9.68 13.38-28.7 21.41-57.1 24.08 25.72 6.38 43.01 14.93 51.86 25.62 8.84 10.7 14.35 20.52 16.51 29.48 2.16 8.95 3.25 33.6 3.25 73.92v131.79H809.31V899.31c0-26.75-2.12-43.31-6.33-49.69-4.22-6.37-15.27-9.57-33.18-9.57v225.32H639.86V565.66zm129.94 85.5v111.12c14.6 0 24.84-2 30.71-6.02 5.86-4.01 8.8-17.02 8.8-39.04v-27.48c0-15.84-2.84-26.23-8.5-31.17-5.65-4.95-15.99-7.41-31.01-7.41zM1242.03 565.66v100h-77.16v399.7h-129.94v-399.7h-76.86v-100h283.96zM1570.44 565.66v499.7H1440.5V855.49h-38.89v209.88h-129.94v-499.7h129.94v178.7h38.89v-178.7h129.94zM691.09 1125.82h97.23c62.75 0 105.2 2.88 127.32 8.64 22.11 5.76 38.93 15.23 50.46 28.4 11.53 13.16 18.72 27.83 21.6 43.98 2.88 16.15 4.32 47.89 4.32 95.22v175c0 44.85-2.11 74.85-6.32 89.97-4.23 15.13-11.57 26.96-22.07 35.5s-23.47 14.51-38.9 17.89c-15.43 3.4-38.68 5.1-69.75 5.1H691.09v-499.7zm129.94 85.5v328.71c18.72 0 30.25-3.75 34.56-11.27 4.32-7.51 6.48-27.93 6.48-61.27v-194.14c0-22.63-.72-37.13-2.16-43.51-1.44-6.39-4.73-11.06-9.87-14.04-5.14-3-14.81-4.48-29.01-4.48zM1265.1 1125.82l74.31 499.7h-132.8l-6.97-89.82h-46.49l-7.81 89.82H1011l66.28-499.7h187.82zm-68.87 321.3c-6.58-56.6-13.17-126.56-19.79-209.89-13.24 95.69-21.56 165.65-24.94 209.89h44.73zM1600.37 1125.82l-94.75 318.82v180.87h-120.37v-180.87l-91.36-318.82h119.37c18.65 97.54 29.16 163.17 31.55 196.91 7.21-53.31 19.26-118.95 36.19-196.91h119.37z"/></g></svg>