<svg xmlns="http://www.w3.org/2000/svg" xmlns:xlink="http://www.w3.org/1999/xlink" viewBox="0 0 1872 2048" style="enable-background:new 0 0 1872 2048" xml:space="preserve"><style>.st0{display:none}.st1{display:inline}.st2{fill:#f0f}.st3,.st4,.st5{fill:none;stroke:#fff;stroke-width:1.4301;stroke-linecap:round;stroke-miterlimit:10}.st4,.st5{stroke:#000;stroke-width:3.7565;stroke-linejoin:round}.st5{fill:#00d7b4}.st6{fill:#273959}.st7{fill:#f3c310;stroke:#273959;stroke-width:8.0734;stroke-linecap:round;stroke-linejoin:round;stroke-miterlimit:10}.st8{fill:#40ffff}.st9{fill:#81338a}.st10{fill:#41ff8b}.st11{fill:#fff;stroke:#41328b;stroke-width:6.5334;stroke-linejoin:round;stroke-miterlimit:10}.st12{fill:#ffffa9}.st13{fill:none;stroke:#41328b;stroke-width:6.5334;stroke-linejoin:round;stroke-miterlimit:10}.st14{fill:#4f00ff}.st15{fill:#f40000;stroke:#000;stroke-width:3.7565;stroke-linecap:round;stroke-linejoin:round;stroke-miterlimit:10}.st16{fill:#181716}.st17,.st18,.st21,.st22{fill:#f76768;stroke:#f76768;stroke-width:5.5061;stroke-miterlimit:10}.st18,.st21,.st22{fill:#00f7bd}.st21,.st22{fill:none;stroke:#fff;stroke-width:2.753}.st22{stroke-dasharray:21.8941,21.8941}.st23{fill:#ff0}.st24,.st25,.st27{fill:none;stroke:#00f7bd;stroke-width:11.0121;stroke-miterlimit:10}.st25,.st27{fill:#f76768;stroke:#f76768}.st27{fill:#00f7bd;stroke:#00f;stroke-linejoin:round}</style><g id="Ebene_6"><path d="M1868.31 111.82 1590.92.4a5.56 5.56 0 0 0-4.68.27L1506.3 44.1l-9.9-3.48 1.79-4.97c.51-1.41.42-2.97-.26-4.32a5.502 5.502 0 0 0-3.29-2.8L1403.39.25a5.555 5.555 0 0 0-3.83.21l-93.33 40.56-62.01-20.66c-.05-.02-.1 0-.16-.01l-21.52-7.56-3.66 10.39 1.17.41-201.39 32.15-122.22-42.96-3.66 10.39 15.54 5.46-261.98-5.19L580.54.32l-3.66 10.39 5.69 2 6.41 30.65-92.28 20.56L306.02.28c-.56-.18-1.15-.28-1.74-.28H135.45a5.5 5.5 0 0 0-5.33 4.12L.18 503.82c-.72 2.77.81 5.64 3.51 6.58l183.68 64.54-95.58 489.37c-.52 2.68 1 5.34 3.58 6.25l576.6 202.62 2.14 352.38a5.493 5.493 0 0 0 3.68 5.16l1186.65 416.98c.6.2 1.22.31 1.83.31 1.13 0 2.24-.34 3.18-1.01a5.526 5.526 0 0 0 2.32-4.5V116.93a5.523 5.523 0 0 0-3.46-5.11zm-375.06-60.63-.82.44.23-.65.59.21z" style="fill:#f661b6"/><defs><path id="SVGID_1_" d="M1868.31 111.82 1590.92.4a5.56 5.56 0 0 0-4.68.27L1506.3 44.1l-9.9-3.48 1.79-4.97c.51-1.41.42-2.97-.26-4.32a5.502 5.502 0 0 0-3.29-2.8L1403.39.25a5.555 5.555 0 0 0-3.83.21l-93.33 40.56-62.01-20.66c-.05-.02-.1 0-.16-.01l-21.52-7.56-3.66 10.39 1.17.41-201.39 32.15-122.22-42.96-3.66 10.39 15.54 5.46-261.98-5.19L580.54.32l-3.66 10.39 5.69 2 6.41 30.65-92.28 20.56L306.02.28c-.56-.18-1.15-.28-1.74-.28H135.45a5.5 5.5 0 0 0-5.33 4.12L.18 503.82c-.72 2.77.81 5.64 3.51 6.58l183.68 64.54-95.58 489.37c-.52 2.68 1 5.34 3.58 6.25l576.6 202.62 2.14 352.38a5.493 5.493 0 0 0 3.68 5.16l1186.65 416.98c.6.2 1.22.31 1.83.31 1.13 0 2.24-.34 3.18-1.01a5.526 5.526 0 0 0 2.32-4.5V116.93a5.523 5.523 0 0 0-3.46-5.11zm-375.06-60.63-.82.44.23-.65.59.21z"/></defs><clipPath id="SVGID_2_"><use xlink:href="#SVGID_1_" style="overflow:visible"/></clipPath><g style="clip-path:url(#SVGID_2_)"><path class="st21" d="m-392.1-100.03 10.35 3.74"/><path class="st22" d="m-361.16-88.84 2871.99 1039.2"/><path class="st21" d="m2521.13 954.09 10.35 3.75M-409-53.34l10.36 3.75"/><path class="st22" d="M-378.05-42.15 2493.94 997.06"/><path class="st21" d="m2504.23 1000.78 10.36 3.75M-425.89-6.65l10.35 3.75"/><path class="st22" d="m-394.95 4.55 2871.99 1039.2"/><path class="st21" d="m2487.33 1047.47 10.36 3.75M-442.79 40.04l10.36 3.75"/><path class="st22" d="m-411.84 51.24 2871.99 1039.2"/><path class="st21" d="m2470.44 1094.17 10.35 3.74M-459.68 86.74l10.35 3.74"/><path class="st22" d="m-428.74 97.93 2871.99 1039.2"/><path class="st21" d="m2453.54 1140.86 10.36 3.75M-476.58 133.43l10.36 3.75"/><path class="st22" d="m-445.63 144.63 2871.99 1039.2"/><path class="st21" d="m2436.65 1187.55 10.35 3.75M-493.47 180.12l10.35 3.75"/><path class="st22" d="m-462.53 191.32 2871.99 1039.2"/><path class="st21" d="m2419.75 1234.24 10.36 3.75M-510.37 226.81l10.36 3.75"/><path class="st22" d="m-479.42 238.01 2871.98 1039.2"/><path class="st21" d="m2402.86 1280.94 10.35 3.74M-526.11 270.31l10.36 3.75"/><path class="st22" d="m-495.16 281.51 2871.99 1039.2"/><path class="st21" d="m2387.12 1324.44 10.35 3.74M-543 317.01l10.35 3.74"/><path class="st22" d="m-512.06 328.2 2871.99 1039.2"/><path class="st21" d="m2370.22 1371.13 10.36 3.75M-559.9 363.7l10.36 3.75"/><path class="st22" d="M-528.96 374.89 2343.03 1414.1"/><path class="st21" d="m2353.33 1417.82 10.35 3.75M-576.79 410.39l10.35 3.75"/><path class="st22" d="m-545.85 421.59 2871.99 1039.2"/><path class="st21" d="m2336.43 1464.51 10.36 3.75M-593.69 457.08l10.36 3.75"/><path class="st22" d="m-562.75 468.28 2871.99 1039.2"/><path class="st21" d="m2319.54 1511.21 10.35 3.74M-610.58 503.78l10.35 3.74"/><path class="st22" d="m-579.64 514.97 2871.99 1039.2"/><path class="st21" d="m2302.64 1557.9 10.36 3.75M-627.48 550.47l10.36 3.75"/><path class="st22" d="m-596.54 561.67 2871.99 1039.2"/><path class="st21" d="m2285.75 1604.59 10.35 3.75M-644.37 597.16l10.35 3.75"/><path class="st22" d="m-613.43 608.36 2871.99 1039.2"/><path class="st21" d="m2268.85 1651.28 10.36 3.75M-124.09-840.73l10.36 3.75"/><path class="st22" d="m-93.14-829.53 2871.98 1039.2"/><path class="st21" d="m2789.14 213.39 10.35 3.75M-140.98-794.04l10.35 3.75"/><path class="st22" d="m-110.04-782.84 2871.99 1039.2"/><path class="st21" d="m2772.24 260.09 10.36 3.74M-157.88-747.34l10.36 3.74"/><path class="st22" d="m-126.94-736.15 2871.99 1039.2"/><path class="st21" d="m2755.35 306.78 10.35 3.75M-174.77-700.65l10.35 3.75"/><path class="st22" d="m-143.83-689.45 2871.99 1039.2"/><path class="st21" d="m2738.45 353.47 10.36 3.75M-191.67-653.96l10.36 3.75"/><path class="st22" d="m-160.73-642.76 2871.99 1039.2"/><path class="st21" d="m2721.56 400.16 10.35 3.75M-208.56-607.27l10.35 3.75"/><path class="st22" d="m-177.62-596.07 2871.99 1039.2"/><path class="st21" d="m2704.66 446.86 10.36 3.74M-225.46-560.57l10.36 3.74"/><path class="st22" d="M-194.52-549.38 2677.47 489.83"/><path class="st21" d="m2687.77 493.55 10.35 3.75M-242.35-513.88l10.35 3.75"/><path class="st22" d="m-211.41-502.68 2871.99 1039.2"/><path class="st21" d="m2670.87 540.24 10.36 3.75M-258.09-470.38l10.35 3.75"/><path class="st22" d="m-227.15-459.18 2871.99 1039.2"/><path class="st21" d="m2655.13 583.74 10.36 3.75M-274.99-423.69l10.36 3.75"/><path class="st22" d="m-244.05-412.49 2871.99 1039.2"/><path class="st21" d="m2638.24 630.43 10.35 3.75M-291.88-377l10.35 3.75"/><path class="st22" d="M-260.94-365.8 2611.05 673.4"/><path class="st21" d="m2621.34 677.13 10.36 3.74M-308.78-330.3l10.36 3.74"/><path class="st22" d="m-277.84-319.11 2871.99 1039.2"/><path class="st21" d="m2604.45 723.82 10.35 3.75M-325.68-283.61l10.36 3.75"/><path class="st22" d="m-294.73-272.41 2871.99 1039.2"/><path class="st21" d="m2587.55 770.51 10.36 3.75M-342.57-236.92l10.35 3.75"/><path class="st22" d="m-311.63-225.72 2871.99 1039.2"/><path class="st21" d="m2570.66 817.2 10.35 3.75M-359.47-190.23l10.36 3.75"/><path class="st22" d="m-328.52-179.03 2871.99 1039.2"/><path class="st21" d="m2553.76 863.9 10.36 3.74M-376.36-143.53l10.35 3.74"/><path class="st22" d="M-345.42-132.34 2526.57 906.87"/><path class="st21" d="m2536.87 910.59 10.35 3.75M-660.11 640.66l10.35 3.75"/><path class="st22" d="m-629.17 651.86 2871.99 1039.2"/><path class="st21" d="m2253.11 1694.78 10.36 3.75M-677.01 687.35l10.36 3.75"/><path class="st22" d="m-646.07 698.55 2871.99 1039.2"/><path class="st21" d="m2236.22 1741.48 10.35 3.74M-693.9 734.05l10.35 3.74"/><path class="st22" d="m-662.96 745.24 2871.99 1039.2"/><path class="st21" d="m2219.32 1788.17 10.36 3.75M-710.8 780.74l10.36 3.75"/><path class="st22" d="m-679.86 791.93 2871.99 1039.21"/><path class="st21" d="m2202.43 1834.86 10.35 3.75M-727.7 827.43l10.36 3.75"/><path class="st22" d="m-696.75 838.63 2871.99 1039.2"/><path class="st21" d="m2185.53 1881.55 10.36 3.75M-744.59 874.12l10.35 3.75"/><path class="st22" d="m-713.65 885.32 2871.99 1039.2"/><path class="st21" d="m2168.64 1928.25 10.35 3.74M-761.49 920.82l10.36 3.74"/><path class="st22" d="m-730.54 932.01 2871.99 1039.2"/><path class="st21" d="m2151.74 1974.94 10.36 3.75M-778.38 967.51l10.35 3.75"/><path class="st22" d="m-747.44 978.71 2871.99 1039.2"/><path class="st21" d="m2134.85 2021.63 10.35 3.75M-794.12 1011.01l10.35 3.74"/><path class="st22" d="m-763.18 1022.2 2871.99 1039.21"/><path class="st21" d="m2119.11 2065.13 10.35 3.75M-811.02 1057.7l10.36 3.75"/><path class="st22" d="m-780.07 1068.9 2871.99 1039.2"/><path class="st21" d="m2102.21 2111.82 10.36 3.75M-827.91 1104.39l10.35 3.75"/><path class="st22" d="m-796.97 1115.59 2871.99 1039.2"/><path class="st21" d="m2085.32 2158.52 10.35 3.74M-844.81 1151.09l10.36 3.74"/><path class="st22" d="m-813.86 1162.28 2871.99 1039.2"/><path class="st21" d="m2068.42 2205.21 10.36 3.75M-861.7 1197.78l10.35 3.75"/><path class="st22" d="m-830.76 1208.97 2871.99 1039.21"/><path class="st21" d="m2051.52 2251.9 10.36 3.75M-878.6 1244.47l10.36 3.75"/><path class="st22" d="m-847.65 1255.67 2871.99 1039.2"/><path class="st21" d="m2034.63 2298.59 10.35 3.75M-895.49 1291.16l10.35 3.75"/><path class="st22" d="m-864.55 1302.36 2871.99 1039.2"/><path class="st21" d="m2017.73 2345.29 10.36 3.74M-912.39 1337.86l10.36 3.74"/><path class="st22" d="m-881.44 1349.05 2871.99 1039.2"/><path class="st21" d="m2000.84 2391.98 10.35 3.75M-928.13 1381.36l10.36 3.74"/><path class="st22" d="m-897.18 1392.55 2871.99 1039.2"/><path class="st21" d="m1985.1 2435.48 10.35 3.74M-945.02 1428.05l10.35 3.74"/><path class="st22" d="m-914.08 1439.24 2871.99 1039.21"/><path class="st21" d="m1968.2 2482.17 10.36 3.75M-961.92 1474.74l10.36 3.75"/><path class="st22" d="m-930.97 1485.94 2871.98 1039.2"/><path class="st21" d="m1951.31 2528.86 10.35 3.75M-978.81 1521.43l10.35 3.75"/><path class="st22" d="m-947.87 1532.63 2871.99 1039.2"/><path class="st21" d="m1934.41 2575.56 10.36 3.74M-995.71 1568.13l10.36 3.74"/><path class="st22" d="m-964.77 1579.32 2871.99 1039.2"/><path class="st21" d="m1917.52 2622.25 10.35 3.75M-1012.6 1614.82l10.35 3.75"/><path class="st22" d="m-981.66 1626.01 2871.99 1039.21"/><path class="st21" d="m1900.62 2668.94 10.36 3.75M-1029.5 1661.51l10.36 3.75"/><path class="st22" d="m-998.56 1672.71 2871.99 1039.2"/><path class="st21" d="m1883.73 2715.63 10.35 3.75M-1046.39 1708.2l10.35 3.75"/><path class="st22" d="m-1015.45 1719.4 2871.99 1039.2"/><path class="st21" d="m1866.83 2762.33 10.36 3.74M-1062.13 1751.7l10.35 3.75"/><path class="st22" d="M-1031.19 1762.9 1840.8 2802.1"/><path class="st21" d="m1851.09 2805.83 10.36 3.74M-1079.03 1798.4l10.36 3.74"/><path class="st22" d="m-1048.09 1809.59 2871.99 1039.2"/><path class="st21" d="m1834.2 2852.52 10.35 3.74M-1095.92 1845.09l10.35 3.74"/><path class="st22" d="m-1064.98 1856.28 2871.99 1039.21"/><path class="st21" d="m1817.3 2899.21 10.36 3.75M-1112.82 1891.78l10.36 3.75"/><path class="st22" d="m-1081.88 1902.98 2871.99 1039.2"/><path class="st21" d="m1800.41 2945.9 10.35 3.75M-1129.71 1938.47l10.35 3.75"/><path class="st22" d="m-1098.77 1949.67 2871.99 1039.2"/><path class="st21" d="m1783.51 2992.6 10.36 3.74M-1146.61 1985.17l10.35 3.74"/><path class="st22" d="m-1115.67 1996.36 2871.99 1039.2"/><path class="st21" d="m1766.62 3039.29 10.35 3.75M-1163.51 2031.86l10.36 3.74"/><path class="st22" d="m-1132.56 2043.05 2871.99 1039.21"/><path class="st21" d="m1749.72 3085.98 10.36 3.75M-1180.4 2078.55l10.35 3.75"/><path class="st22" d="m-1149.46 2089.75 2871.99 1039.2"/><path class="st21" d="m1732.83 3132.67 10.35 3.75"/></g><path class="st23" d="M304.28 5.51v499.7H174.34V295.33h-38.89v209.88H5.51V5.51h129.94v178.7h38.89V5.51h129.94zM581.07 5.51l74.31 499.7h-132.8l-6.97-89.82h-46.49l-7.81 89.82H326.97l66.28-499.7h187.82zm-68.87 321.3c-6.58-56.6-13.17-126.56-19.79-209.88-13.24 95.68-21.56 165.65-24.94 209.88h44.73zM677.44 5.51h130.87c35.39 0 62.6 2.77 81.63 8.33 19.03 5.55 33.34 13.58 42.91 24.07 9.57 10.5 16.04 23.2 19.44 38.12 3.4 14.92 5.09 38.02 5.09 69.29v43.52c0 31.9-3.29 55.15-9.87 69.76-6.59 14.61-18.67 25.83-36.26 33.64-17.59 7.82-40.59 11.73-68.99 11.73h-34.88v201.24H677.44V5.51zM807.39 91v127.17c3.7.2 6.89.31 9.57.31 11.93 0 20.22-2.93 24.84-8.8 4.63-5.87 6.95-18.06 6.95-36.57v-41.05c0-17.07-2.68-28.19-8.02-33.33-5.36-5.15-16.47-7.73-33.34-7.73zM994.73 5.51h130.87c35.39 0 62.6 2.77 81.63 8.33 19.03 5.55 33.34 13.58 42.91 24.07 9.57 10.5 16.04 23.2 19.44 38.12 3.4 14.92 5.09 38.02 5.09 69.29v43.52c0 31.9-3.29 55.15-9.87 69.76-6.59 14.61-18.67 25.83-36.26 33.64-17.59 7.82-40.59 11.73-68.99 11.73h-34.88v201.24H994.73V5.51zM1124.67 91v127.17c3.7.2 6.89.31 9.57.31 11.93 0 20.22-2.93 24.84-8.8 4.64-5.87 6.95-18.06 6.95-36.57v-41.05c0-17.07-2.68-28.19-8.02-33.33-5.36-5.15-16.47-7.73-33.34-7.73zM1588.87 5.51l-94.75 318.84v180.87h-120.37V324.34L1282.39 5.51h119.37c18.65 97.54 29.16 163.18 31.55 196.92 7.21-53.31 19.26-118.96 36.19-196.92h119.37zM97.19 565.66h129.63c40.95 0 71.97 3.19 93.05 9.56 21.1 6.38 38.12 19.28 51.08 38.71 12.97 19.43 19.45 50.74 19.45 93.93 0 29.2-4.58 49.55-13.74 61.06-9.15 11.53-27.21 20.37-54.17 26.53 30.05 6.8 50.41 18.07 61.12 33.82 10.7 15.74 16.06 39.9 16.06 72.42v46.33c0 33.77-3.86 58.78-11.58 75.04-7.71 16.26-20.01 27.38-36.88 33.35-16.88 5.97-51.45 8.96-103.71 8.96H97.19V565.66zm129.94 85.5v111.12c5.56-.2 9.87-.31 12.96-.31 12.75 0 20.88-3.13 24.39-9.41 3.5-6.28 5.25-24.24 5.25-53.86 0-15.64-1.44-26.61-4.32-32.88-2.88-6.27-6.64-10.24-11.27-11.88-4.63-1.65-13.64-2.57-27.01-2.78zm0 188.88v139.82c18.31-.62 29.98-3.5 35.03-8.65 5.04-5.14 7.57-17.79 7.57-37.96v-46.61c0-21.4-2.27-34.36-6.8-38.89-4.53-4.5-16.46-7.08-35.8-7.71zM576.22 565.66v499.7H446.28v-499.7h129.94zM628.37 565.66h91.98c61.31 0 102.83 2.37 124.53 7.1 21.71 4.74 39.4 16.82 53.09 36.27 13.68 19.44 20.53 50.46 20.53 93.05 0 38.9-4.84 65.03-14.51 78.4-9.68 13.38-28.7 21.41-57.1 24.08 25.72 6.38 43.01 14.93 51.86 25.62 8.84 10.7 14.35 20.52 16.51 29.48 2.16 8.95 3.25 33.6 3.25 73.92v131.79H797.82V899.31c0-26.75-2.12-43.31-6.33-49.69-4.22-6.37-15.27-9.57-33.18-9.57v225.32H628.37V565.66zm129.94 85.5v111.12c14.6 0 24.84-2 30.71-6.02 5.86-4.01 8.8-17.02 8.8-39.04v-27.48c0-15.84-2.84-26.23-8.5-31.17-5.65-4.95-15.99-7.41-31.01-7.41zM1230.54 565.66v100h-77.16v399.7h-129.94v-399.7h-76.86v-100h283.96zM1558.95 565.66v499.7h-129.94V855.49h-38.89v209.88h-129.94v-499.7h129.94v178.7h38.89v-178.7h129.94zM679.61 1125.82h97.23c62.75 0 105.2 2.88 127.32 8.64 22.11 5.76 38.93 15.23 50.46 28.4 11.53 13.16 18.72 27.83 21.6 43.98 2.88 16.15 4.32 47.89 4.32 95.22v175c0 44.85-2.11 74.85-6.32 89.97-4.23 15.13-11.57 26.96-22.07 35.5s-23.47 14.51-38.9 17.89c-15.43 3.4-38.68 5.1-69.75 5.1H679.61v-499.7zm129.94 85.5v328.71c18.72 0 30.25-3.75 34.56-11.27 4.32-7.51 6.48-27.93 6.48-61.27v-194.14c0-22.63-.72-37.13-2.16-43.51-1.44-6.39-4.73-11.06-9.87-14.04-5.15-3-14.82-4.48-29.01-4.48zM1253.61 1125.82l74.31 499.7h-132.8l-6.97-89.82h-46.49l-7.81 89.82H999.52l66.28-499.7h187.81zm-68.87 321.3c-6.58-56.6-13.17-126.56-19.79-209.89-13.24 95.69-21.56 165.65-24.94 209.89h44.73zM1588.88 1125.82l-94.75 318.82v180.87h-120.37v-180.87l-91.36-318.82h119.37c18.65 97.54 29.16 163.17 31.55 196.91 7.21-53.31 19.26-118.95 36.19-196.91h119.37z"/><path class="st24" d="M326.3 27.53v499.7H196.36V317.35h-38.89v209.88H27.54V27.53h129.94v178.7h38.89V27.53H326.3zM603.09 27.53l74.31 499.7H544.6l-6.97-89.82h-46.49l-7.81 89.82H349l66.28-499.7h187.81zm-68.87 321.3c-6.58-56.6-13.17-126.56-19.79-209.88-13.24 95.68-21.56 165.65-24.94 209.88h44.73zM699.47 27.53h130.87c35.39 0 62.6 2.77 81.63 8.33 19.03 5.55 33.34 13.58 42.91 24.07 9.57 10.5 16.04 23.2 19.44 38.12 3.4 14.92 5.09 38.02 5.09 69.29v43.52c0 31.9-3.29 55.15-9.87 69.76-6.59 14.61-18.67 25.83-36.26 33.64-17.59 7.82-40.59 11.73-68.99 11.73h-34.88v201.24H699.47V27.53zm129.94 85.49v127.17c3.7.2 6.89.31 9.57.31 11.93 0 20.22-2.93 24.84-8.8 4.63-5.87 6.95-18.06 6.95-36.57v-41.05c0-17.07-2.68-28.19-8.02-33.33-5.36-5.15-16.47-7.73-33.34-7.73zM1016.76 27.53h130.87c35.39 0 62.6 2.77 81.63 8.33 19.03 5.55 33.34 13.58 42.91 24.07s16.05 23.2 19.44 38.12c3.4 14.92 5.09 38.02 5.09 69.29v43.52c0 31.9-3.29 55.15-9.87 69.76-6.59 14.61-18.67 25.83-36.26 33.64-17.59 7.82-40.59 11.73-68.99 11.73h-34.88v201.24h-129.94V27.53zm129.94 85.49v127.17c3.7.2 6.89.31 9.57.31 11.93 0 20.22-2.93 24.84-8.8 4.63-5.87 6.95-18.06 6.95-36.57v-41.05c0-17.07-2.68-28.19-8.02-33.33-5.36-5.15-16.47-7.73-33.34-7.73zM1610.89 27.53l-94.75 318.84v180.87h-120.37V346.37l-91.36-318.84h119.37c18.65 97.54 29.16 163.18 31.55 196.92 7.21-53.31 19.26-118.96 36.19-196.92h119.37zM119.21 587.69h129.63c40.95 0 71.97 3.19 93.05 9.56 21.1 6.38 38.12 19.28 51.08 38.71 12.97 19.43 19.45 50.74 19.45 93.93 0 29.2-4.58 49.55-13.74 61.06-9.15 11.53-27.21 20.37-54.17 26.53 30.05 6.8 50.41 18.07 61.12 33.82 10.7 15.74 16.06 39.9 16.06 72.42v46.33c0 33.77-3.86 58.78-11.58 75.04-7.71 16.26-20.01 27.38-36.88 33.35-16.88 5.97-51.45 8.96-103.71 8.96H119.21V587.69zm129.94 85.49V784.3c5.56-.2 9.87-.31 12.96-.31 12.75 0 20.88-3.13 24.39-9.41 3.5-6.28 5.25-24.24 5.25-53.86 0-15.64-1.44-26.61-4.32-32.88-2.88-6.27-6.64-10.24-11.27-11.88-4.63-1.65-13.64-2.57-27.01-2.78zm0 188.89v139.82c18.31-.62 29.98-3.5 35.03-8.65 5.04-5.14 7.57-17.79 7.57-37.96v-46.61c0-21.4-2.27-34.36-6.8-38.89-4.52-4.51-16.46-7.09-35.8-7.71zM598.24 587.69v499.7H468.3v-499.7h129.94zM650.4 587.69h91.98c61.31 0 102.83 2.37 124.53 7.1 21.71 4.74 39.4 16.82 53.09 36.27 13.68 19.44 20.53 50.46 20.53 93.05 0 38.9-4.84 65.03-14.51 78.4-9.68 13.38-28.7 21.41-57.1 24.08 25.72 6.38 43.01 14.93 51.86 25.62 8.84 10.7 14.35 20.52 16.51 29.48 2.16 8.95 3.25 33.6 3.25 73.92v131.79H819.85V921.33c0-26.75-2.12-43.31-6.33-49.69-4.22-6.37-15.27-9.57-33.18-9.57v225.32H650.4v-499.7zm129.94 85.49V784.3c14.6 0 24.84-2 30.71-6.02 5.86-4.01 8.8-17.02 8.8-39.04v-27.48c0-15.84-2.84-26.23-8.5-31.17-5.65-4.94-16-7.41-31.01-7.41zM1252.57 587.69v100h-77.16v399.7h-129.94v-399.7h-76.86v-100h283.96zM1580.98 587.69v499.7h-129.94V877.51h-38.89v209.88h-129.94v-499.7h129.94v178.7h38.89v-178.7h129.94zM701.63 1147.85h97.23c62.75 0 105.2 2.88 127.32 8.64 22.11 5.76 38.93 15.23 50.46 28.4 11.53 13.16 18.72 27.83 21.6 43.98 2.88 16.15 4.32 47.89 4.32 95.22v175c0 44.86-2.11 74.85-6.32 89.97-4.23 15.13-11.57 26.96-22.07 35.5s-23.47 14.51-38.9 17.89c-15.43 3.4-38.68 5.1-69.75 5.1H701.63v-499.7zm129.94 85.49v328.71c18.72 0 30.25-3.75 34.56-11.27 4.32-7.51 6.48-27.93 6.48-61.27v-194.14c0-22.63-.72-37.13-2.16-43.51-1.44-6.39-4.73-11.06-9.87-14.04-5.15-3-14.81-4.48-29.01-4.48zM1275.64 1147.85l74.31 499.7h-132.8l-6.97-89.82h-46.49l-7.81 89.82h-134.34l66.28-499.7h187.82zm-68.87 321.29c-6.58-56.6-13.17-126.56-19.79-209.89-13.24 95.69-21.56 165.65-24.94 209.89h44.73zM1610.9 1147.85l-94.75 318.82v180.87h-120.37v-180.87l-91.36-318.82h119.37c18.65 97.54 29.16 163.17 31.55 196.91 7.21-53.31 19.26-118.95 36.19-196.91h119.37z"/></g></svg>