<svg xmlns="http://www.w3.org/2000/svg" viewBox="0 0 2048 873" style="enable-background:new 0 0 2048 873" xml:space="preserve"><style>.st0{display:none}.st1{display:inline}.st2{fill:#f0f}.st3,.st4,.st5{fill:none;stroke:#fff;stroke-width:1.4301;stroke-linecap:round;stroke-miterlimit:10}.st4,.st5{stroke:#000;stroke-width:3.7565;stroke-linejoin:round}.st5{fill:#00d7b4}.st6{fill:#273959}.st7{fill:#f3c310;stroke:#273959;stroke-width:8.0734;stroke-linecap:round;stroke-linejoin:round;stroke-miterlimit:10}.st8{fill:#40ffff}.st9{fill:#81338a}.st10{fill:#41ff8b}.st11{fill:#fff;stroke:#41328b;stroke-width:13.0669;stroke-linejoin:round;stroke-miterlimit:10}.st12{fill:#ffffa9}.st13{fill:none;stroke:#41328b;stroke-width:13.0669;stroke-linejoin:round;stroke-miterlimit:10}.st14{fill:#4f00ff}.st15,.st16,.st17{fill:none;stroke:#fff;stroke-width:2.8603;stroke-linecap:round;stroke-miterlimit:10}.st16,.st17{stroke:#000;stroke-width:7.5129;stroke-linejoin:round}.st17{fill:#f40000}.st18{fill:#181716}.st19,.st20,.st23,.st24{fill:#f76768;stroke:#f76768;stroke-width:11.0121;stroke-miterlimit:10}.st20,.st23,.st24{fill:#00f7bd}.st23,.st24{fill:none;stroke:#fff;stroke-width:2.753}.st24{stroke-dasharray:21.8941,21.8941}.st25{fill:#ff0}.st26,.st28{fill:none;stroke:#00f7bd;stroke-width:11.0121;stroke-miterlimit:10}.st28{fill:#00f7bd;stroke:#00f;stroke-linejoin:round}</style><g id="Ebene_4"><path class="st10" d="M315.9 381.96V21.23h71.16v133.42h80.55V21.23h71.9v360.73h-71.9V225.07h-80.55v156.89H315.9zM597.83 381.96l84.01-360.73h75.36l80.05 360.73h-71.9l-12.11-63.25h-72.39l-11.12 63.25h-71.9zm96.11-119.33h47.93c-4.94-25.2-9.39-51.6-13.34-79.19-3.96-27.59-7.42-56.7-10.38-87.34-3.63 27.02-7.46 54.4-11.49 82.15a7707.97 7707.97 0 0 1-12.72 84.38zM895.83 381.96V21.23h74.86c39.7 0 69.19 8.6 88.46 25.82 19.27 17.21 28.91 43.53 28.91 78.94 0 33.77-9.31 60-27.92 78.7-18.62 18.69-44.72 28.04-78.33 28.04-4.29 0-7.53-.04-9.76-.13-2.22-.09-4.32-.2-6.3-.37l-.24 149.73h-69.68zm69.68-204.33c.82 0 2.1.09 3.83.26 1.72.16 3 .24 3.83.24 15.31 0 26.97-4.41 34.96-13.22 7.98-8.81 11.98-21.46 11.98-37.93 0-17.12-3.8-29.77-11.37-37.93-7.58-8.15-19.44-12.23-35.58-12.23-.83 0-2.11.09-3.83.24-1.73.17-3.01.26-3.83.26v100.31zM1158.49 381.96V21.23h74.86c39.7 0 69.19 8.6 88.46 25.82 19.27 17.21 28.91 43.53 28.91 78.94 0 33.77-9.31 60-27.92 78.7-18.62 18.69-44.72 28.04-78.33 28.04-4.29 0-7.53-.04-9.76-.13-2.22-.09-4.32-.2-6.3-.37l-.24 149.73h-69.68zm69.68-204.33c.82 0 2.1.09 3.83.26 1.72.16 3 .24 3.83.24 15.31 0 26.97-4.41 34.96-13.22 7.98-8.81 11.98-21.46 11.98-37.93 0-17.12-3.8-29.77-11.37-37.93-7.58-8.15-19.44-12.23-35.58-12.23-.83 0-2.11.09-3.83.24-1.73.17-3.01.26-3.83.26v100.31zM1455.5 381.96V212.47l-83.51-191.24h75.85l23.72 65.23c4.45 11.7 8.48 23.35 12.11 34.96 3.62 11.61 7.08 23.43 10.38 35.45 2.96-13.34 6.17-25.78 9.63-37.3 3.46-11.54 7-21.91 10.62-31.14l26.19-67.2h70.42l-84.01 191.24v169.49h-71.4zM35.93 857.16V496.43h70.17c47.11 0 80.43 7.36 99.94 22.1 19.52 14.75 29.28 39.41 29.28 74.01 0 19.6-3.7 35.74-11.11 48.42-7.42 12.69-18.94 22.82-34.6 30.4 17.46 6.26 30.35 16.1 38.68 29.52 8.31 13.43 12.47 31.1 12.47 53 0 16.3-2.71 31.09-8.15 44.35-5.44 13.26-13.35 24.51-23.72 33.73-10.38 9.07-22.85 15.53-37.43 19.4s-37.52 5.8-68.81 5.8H35.93zm69.68-211h7.66c18.44 0 31.99-3.63 40.64-10.88 8.64-7.25 12.96-18.44 12.96-33.6 0-15.97-4.41-27.76-13.22-35.33s-22.45-11.37-40.89-11.37h-7.16v91.18zm0 146.77c1.15 0 2.84.09 5.07.24 2.22.17 3.91.24 5.07.24 18.44 0 31.83-3.7 40.14-11.11 8.32-7.42 12.48-19.19 12.48-35.33 0-17.29-4.2-29.65-12.6-37.07-8.41-7.41-22.24-11.11-41.52-11.11h-8.64v94.14zM318.11 857.16V496.43h73.39v360.73h-73.39zM484.18 857.16V496.43h74.86c41.19 0 71.04 8.07 89.57 24.21 18.53 16.14 27.8 41.92 27.8 77.33 0 25.7-4.74 46.33-14.21 61.9s-23.76 26.48-42.87 32.74l69.19 164.56h-75.86l-58.8-149.23v149.23h-69.68zm69.67-204.33c.82 0 2.18.09 4.08.26 1.89.16 3.25.24 4.08.24 15.64 0 27.43-4.36 35.33-13.1 7.91-8.73 11.86-21.57 11.86-38.54 0-17.29-3.62-29.89-10.87-37.8-7.25-7.91-18.87-11.87-34.84-11.87-2.47 0-4.36.04-5.68.13s-2.55.2-3.7.37l-.26 100.31zM782.66 857.16V563.14h-55.1v-66.71h182.59v66.71h-55.1v294.02h-72.39zM978.12 857.16V496.43h71.16v133.42h80.55V496.43h71.9v360.73h-71.9V700.27h-80.55v156.89h-71.16zM1290.45 857.16V496.43h61.77c55.67 0 97.23 14.91 124.66 44.72 27.43 29.81 41.13 75.1 41.13 135.9 0 36.57-5.02 67.2-15.07 91.91-10.05 24.71-25.79 45.14-47.19 61.28-12.69 9.72-27.06 16.63-43.12 20.75-16.06 4.12-38.75 6.17-68.07 6.17h-54.11zm71.15-66.7h5.68c25.53 0 45.05-9.6 58.56-28.79 13.51-19.19 20.26-47.07 20.26-83.64 0-39.2-6.55-68.31-19.65-87.33-13.09-19.03-33.15-28.54-60.16-28.54h-4.69v228.3zM1555.83 857.16l84.01-360.73h75.36l80.05 360.73h-71.9l-12.11-63.25h-72.39l-11.12 63.25h-71.9zm96.11-119.33h47.93c-4.94-25.2-9.39-51.6-13.34-79.19-3.96-27.59-7.42-56.7-10.38-87.34-3.63 27.02-7.46 54.4-11.49 82.15a7707.97 7707.97 0 0 1-12.72 84.38zM1879.28 857.16V687.67l-83.51-191.24h75.85l23.72 65.23c4.45 11.7 8.48 23.35 12.11 34.96 3.62 11.61 7.08 23.43 10.38 35.45 2.96-13.34 6.17-25.78 9.63-37.3 3.46-11.54 7-21.91 10.62-31.14l26.19-67.2h70.42l-84.01 191.24v169.49h-71.4z"/><path class="st11" d="M295.16 360.73V0h71.16v133.42h80.55V0h71.9v360.73h-71.9V203.84h-80.55v156.89h-71.16zM577.09 360.73 661.11 0h75.36l80.05 360.73h-71.9l-12.11-63.25h-72.39L649 360.73h-71.91zm96.12-119.34h47.93c-4.94-25.2-9.39-51.6-13.34-79.19-3.96-27.59-7.42-56.7-10.38-87.34-3.63 27.02-7.46 54.4-11.49 82.15a7919.17 7919.17 0 0 1-12.72 84.38zM875.1 360.73V0h74.86c39.7 0 69.19 8.6 88.46 25.82 19.27 17.21 28.91 43.53 28.91 78.94 0 33.77-9.31 60-27.92 78.7-18.62 18.69-44.72 28.04-78.33 28.04-4.29 0-7.53-.04-9.76-.13s-4.32-.2-6.3-.37l-.24 149.73H875.1zm69.67-204.34c.82 0 2.1.09 3.83.26 1.72.16 3 .24 3.83.24 15.31 0 26.97-4.41 34.96-13.22 7.98-8.81 11.98-21.46 11.98-37.93 0-17.12-3.8-29.77-11.37-37.93-7.58-8.15-19.44-12.23-35.58-12.23-.83 0-2.11.09-3.83.24-1.73.17-3.01.26-3.83.26v100.31zM1137.76 360.73V0h74.86c39.7 0 69.19 8.6 88.46 25.82 19.27 17.21 28.91 43.53 28.91 78.94 0 33.77-9.31 60-27.92 78.7-18.62 18.69-44.72 28.04-78.33 28.04-4.29 0-7.53-.04-9.76-.13-2.22-.09-4.32-.2-6.3-.37l-.24 149.73h-69.68zm69.67-204.34c.82 0 2.1.09 3.83.26 1.72.16 3 .24 3.83.24 15.31 0 26.97-4.41 34.96-13.22 7.98-8.81 11.98-21.46 11.98-37.93 0-17.12-3.8-29.77-11.37-37.93-7.58-8.15-19.44-12.23-35.58-12.23-.83 0-2.11.09-3.83.24-1.73.17-3.01.26-3.83.26v100.31zM1434.77 360.73V191.24L1351.26 0h75.85l23.72 65.23c4.45 11.7 8.48 23.35 12.11 34.96 3.62 11.61 7.08 23.43 10.38 35.45 2.96-13.34 6.17-25.78 9.63-37.3 3.46-11.54 7-21.91 10.62-31.14L1519.76 0h70.42l-84.01 191.24v169.49h-71.4zM15.2 835.93V475.2h70.17c47.11 0 80.43 7.36 99.94 22.1 19.52 14.75 29.28 39.41 29.28 74.01 0 19.6-3.7 35.74-11.11 48.42-7.42 12.69-18.94 22.82-34.6 30.4 17.46 6.26 30.35 16.1 38.68 29.52 8.31 13.43 12.47 31.1 12.47 53 0 16.3-2.71 31.09-8.15 44.35-5.44 13.26-13.35 24.51-23.72 33.73-10.38 9.07-22.85 15.53-37.43 19.4-14.58 3.87-37.52 5.8-68.81 5.8H15.2zm69.67-211h7.66c18.44 0 31.99-3.63 40.64-10.88 8.64-7.25 12.96-18.44 12.96-33.6 0-15.97-4.41-27.76-13.22-35.33s-22.45-11.37-40.89-11.37h-7.16v91.18zm0 146.76c1.15 0 2.84.09 5.07.24 2.22.17 3.91.24 5.07.24 18.44 0 31.83-3.7 40.14-11.11 8.32-7.42 12.48-19.19 12.48-35.33 0-17.29-4.2-29.65-12.6-37.07-8.41-7.41-22.24-11.11-41.52-11.11h-8.64v94.14zM297.37 835.93V475.2h73.39v360.73h-73.39zM463.44 835.93V475.2h74.86c41.19 0 71.04 8.07 89.57 24.21 18.53 16.14 27.8 41.92 27.8 77.33 0 25.7-4.74 46.33-14.21 61.9s-23.76 26.48-42.87 32.74l69.19 164.56h-75.86l-58.8-149.23v149.23h-69.68zm69.68-204.34c.82 0 2.18.09 4.08.26 1.89.16 3.25.24 4.08.24 15.64 0 27.43-4.36 35.33-13.1 7.91-8.73 11.86-21.57 11.86-38.54 0-17.29-3.62-29.89-10.87-37.8-7.25-7.91-18.87-11.87-34.84-11.87-2.47 0-4.36.04-5.68.13-1.32.09-2.55.2-3.7.37l-.26 100.31zM761.92 835.93V541.91h-55.1V475.2h182.59v66.71h-55.1v294.02h-72.39zM957.38 835.93V475.2h71.16v133.42h80.55V475.2h71.9v360.73h-71.9V679.04h-80.55v156.89h-71.16zM1269.71 835.93V475.2h61.77c55.67 0 97.23 14.91 124.66 44.72 27.43 29.81 41.13 75.1 41.13 135.9 0 36.57-5.02 67.2-15.07 91.91-10.05 24.71-25.79 45.14-47.19 61.28-12.69 9.72-27.06 16.63-43.12 20.75-16.06 4.12-38.75 6.17-68.07 6.17h-54.11zm71.16-66.71h5.68c25.53 0 45.05-9.6 58.56-28.79 13.51-19.19 20.26-47.07 20.26-83.64 0-39.2-6.55-68.31-19.65-87.33-13.09-19.03-33.15-28.54-60.16-28.54h-4.69v228.3zM1535.1 835.93l84.01-360.73h75.36l80.05 360.73h-71.9l-12.11-63.25h-72.39L1607 835.93h-71.9zm96.11-119.33h47.93c-4.94-25.2-9.39-51.6-13.34-79.19-3.96-27.59-7.42-56.7-10.38-87.34-3.63 27.02-7.46 54.4-11.49 82.15-4.03 27.76-8.27 55.87-12.72 84.38zM1858.54 835.93V666.44l-83.51-191.24h75.85l23.72 65.23c4.45 11.7 8.48 23.35 12.11 34.96 3.62 11.61 7.08 23.43 10.38 35.45 2.96-13.34 6.17-25.78 9.63-37.3 3.46-11.54 7-21.91 10.62-31.14l26.19-67.2h70.42l-84.01 191.24v169.49h-71.4z"/><path class="st2" d="M329.2 397.63V36.89h71.16v133.42h80.55V36.89h71.9v360.73h-71.9V240.73h-80.55v156.89H329.2zM611.14 397.63 695.15 36.9h75.36l80.05 360.73h-71.9l-12.11-63.25h-72.39l-11.12 63.25h-71.9zm96.11-119.34h47.93c-4.94-25.2-9.39-51.6-13.34-79.19-3.96-27.59-7.42-56.7-10.38-87.34-3.63 27.02-7.46 54.4-11.49 82.15-4.03 27.76-8.27 55.88-12.72 84.38zM909.14 397.63V36.89H984c39.7 0 69.19 8.6 88.46 25.82 19.27 17.21 28.91 43.53 28.91 78.94 0 33.77-9.31 60-27.92 78.7-18.62 18.69-44.72 28.04-78.33 28.04-4.29 0-7.53-.04-9.76-.13s-4.32-.2-6.3-.37l-.24 149.73h-69.68zm69.67-204.34c.82 0 2.1.09 3.83.26 1.72.16 3 .24 3.83.24 15.31 0 26.97-4.41 34.96-13.22 7.98-8.81 11.98-21.46 11.98-37.93 0-17.12-3.8-29.77-11.37-37.93-7.58-8.15-19.44-12.23-35.58-12.23-.83 0-2.11.09-3.83.24-1.73.17-3.01.26-3.83.26v100.31zM1171.8 397.63V36.89h74.86c39.7 0 69.19 8.6 88.46 25.82 19.27 17.21 28.91 43.53 28.91 78.94 0 33.77-9.31 60-27.92 78.7-18.62 18.69-44.72 28.04-78.33 28.04-4.29 0-7.53-.04-9.76-.13-2.22-.09-4.32-.2-6.3-.37l-.24 149.73h-69.68zm69.67-204.34c.82 0 2.1.09 3.83.26 1.72.16 3 .24 3.83.24 15.31 0 26.97-4.41 34.96-13.22 7.98-8.81 11.98-21.46 11.98-37.93 0-17.12-3.8-29.77-11.37-37.93-7.58-8.15-19.44-12.23-35.58-12.23-.83 0-2.11.09-3.83.24-1.73.17-3.01.26-3.83.26v100.31zM1468.81 397.63v-169.5L1385.3 36.89h75.85l23.72 65.23c4.45 11.7 8.48 23.35 12.11 34.96 3.62 11.61 7.08 23.43 10.38 35.45 2.96-13.34 6.17-25.78 9.63-37.3 3.46-11.54 7-21.91 10.62-31.14l26.19-67.2h70.42l-84.01 191.24v169.49h-71.4zM49.24 872.83V512.1h70.17c47.11 0 80.43 7.36 99.94 22.1 19.52 14.75 29.28 39.41 29.28 74.01 0 19.6-3.7 35.74-11.11 48.42-7.42 12.69-18.94 22.82-34.6 30.4 17.46 6.26 30.35 16.1 38.68 29.52 8.31 13.43 12.47 31.1 12.47 53 0 16.3-2.71 31.09-8.15 44.35-5.44 13.26-13.35 24.51-23.72 33.73-10.38 9.07-22.85 15.53-37.43 19.4-14.58 3.87-37.52 5.8-68.81 5.8H49.24zm69.68-211h7.66c18.44 0 31.99-3.63 40.64-10.88 8.64-7.25 12.96-18.44 12.96-33.6 0-15.97-4.41-27.76-13.22-35.33-8.81-7.58-22.45-11.37-40.89-11.37h-7.16v91.18zm0 146.76c1.15 0 2.84.09 5.07.24 2.22.17 3.91.24 5.07.24 18.44 0 31.83-3.7 40.14-11.11 8.32-7.42 12.48-19.19 12.48-35.33 0-17.29-4.2-29.65-12.6-37.07-8.41-7.41-22.24-11.11-41.52-11.11h-8.64v94.14zM331.42 872.83V512.1h73.39v360.73h-73.39zM497.48 872.83V512.1h74.86c41.19 0 71.04 8.07 89.57 24.21 18.53 16.14 27.8 41.92 27.8 77.33 0 25.7-4.74 46.33-14.21 61.9s-23.76 26.48-42.87 32.74l69.19 164.56h-75.86l-58.8-149.23v149.23h-69.68zm69.68-204.34c.82 0 2.18.09 4.08.26 1.89.16 3.25.24 4.08.24 15.64 0 27.43-4.36 35.33-13.1 7.91-8.73 11.86-21.57 11.86-38.54 0-17.29-3.62-29.9-10.87-37.8-7.25-7.91-18.87-11.87-34.84-11.87-2.47 0-4.36.04-5.68.13-1.32.09-2.55.2-3.7.37l-.26 100.31zM795.96 872.83V578.8h-55.1v-66.7h182.59v66.71h-55.1v294.02h-72.39zM991.43 872.83V512.1h71.16v133.42h80.55V512.1h71.9v360.73h-71.9v-156.9h-80.55v156.89h-71.16zM1303.75 872.83V512.1h61.77c55.67 0 97.23 14.91 124.66 44.72 27.43 29.81 41.13 75.1 41.13 135.9 0 36.57-5.02 67.2-15.07 91.91-10.05 24.71-25.79 45.14-47.19 61.28-12.69 9.72-27.06 16.63-43.12 20.75-16.06 4.12-38.75 6.17-68.07 6.17h-54.11zm71.16-66.71h5.68c25.53 0 45.05-9.6 58.56-28.79 13.51-19.19 20.26-47.07 20.26-83.64 0-39.2-6.55-68.31-19.65-87.33-13.09-19.03-33.15-28.54-60.16-28.54h-4.69v228.3zM1569.14 872.83l84.01-360.73h75.36l80.05 360.73h-71.9l-12.11-63.25h-72.39l-11.12 63.25h-71.9zm96.11-119.34h47.93c-4.94-25.2-9.39-51.6-13.34-79.19-3.96-27.59-7.42-56.7-10.38-87.34-3.63 27.02-7.46 54.4-11.49 82.15a7707.97 7707.97 0 0 1-12.72 84.38zM1892.59 872.83v-169.5l-83.51-191.24h75.85l23.72 65.23c4.45 11.7 8.48 23.35 12.11 34.96 3.62 11.61 7.08 23.43 10.38 35.45 2.96-13.34 6.17-25.78 9.63-37.3 3.46-11.54 7-21.91 10.62-31.14l26.19-67.2H2048l-84.01 191.24v169.49h-71.4z"/><path class="st12" d="M279.96 370.41V9.68h71.16V143.1h80.55V9.68h71.9v360.73h-71.9V213.52h-80.55v156.89h-71.16zM561.9 370.41 645.91 9.68h75.36l80.05 360.73h-71.9l-12.11-63.25h-72.39l-11.12 63.25h-71.9zm96.11-119.33h47.93c-4.94-25.2-9.39-51.6-13.34-79.19-3.96-27.59-7.42-56.7-10.38-87.34-3.63 27.02-7.46 54.4-11.49 82.15-4.03 27.76-8.27 55.88-12.72 84.38zM859.9 370.41V9.68h74.86c39.7 0 69.19 8.6 88.46 25.82 19.27 17.21 28.91 43.53 28.91 78.94 0 33.77-9.31 60-27.92 78.7-18.62 18.69-44.72 28.04-78.33 28.04-4.29 0-7.53-.04-9.76-.13s-4.32-.2-6.3-.37l-.24 149.73H859.9zm69.68-204.34c.82 0 2.1.09 3.83.26 1.72.16 3 .24 3.83.24 15.31 0 26.97-4.41 34.96-13.22 7.98-8.81 11.98-21.46 11.98-37.93 0-17.12-3.8-29.77-11.37-37.93-7.58-8.15-19.44-12.23-35.58-12.23-.83 0-2.11.09-3.83.24-1.73.17-3.01.26-3.83.26v100.31zM1122.56 370.41V9.68h74.86c39.7 0 69.19 8.6 88.46 25.82 19.27 17.21 28.91 43.53 28.91 78.94 0 33.77-9.31 60-27.92 78.7-18.62 18.69-44.72 28.04-78.33 28.04-4.29 0-7.53-.04-9.76-.13-2.22-.09-4.32-.2-6.3-.37l-.24 149.73h-69.68zm69.67-204.34c.82 0 2.1.09 3.83.26 1.72.16 3 .24 3.83.24 15.31 0 26.97-4.41 34.96-13.22 7.98-8.81 11.98-21.46 11.98-37.93 0-17.12-3.8-29.77-11.37-37.93-7.58-8.15-19.44-12.23-35.58-12.23-.83 0-2.11.09-3.83.24-1.73.17-3.01.26-3.83.26v100.31zM1419.57 370.41V200.92L1336.06 9.68h75.85l23.72 65.23c4.45 11.7 8.48 23.35 12.11 34.96 3.62 11.61 7.08 23.43 10.38 35.45 2.96-13.34 6.17-25.78 9.63-37.3 3.46-11.54 7-21.91 10.62-31.14l26.19-67.2h70.42l-84.01 191.24v169.49h-71.4zM0 845.61V484.88h70.17c47.11 0 80.43 7.36 99.94 22.1 19.52 14.75 29.28 39.41 29.28 74.01 0 19.6-3.7 35.74-11.11 48.42-7.42 12.69-18.94 22.82-34.6 30.4 17.46 6.26 30.35 16.1 38.68 29.52 8.31 13.43 12.47 31.1 12.47 53 0 16.3-2.71 31.09-8.15 44.35-5.44 13.26-13.35 24.51-23.72 33.73-10.38 9.07-22.85 15.53-37.43 19.4-14.58 3.87-37.52 5.8-68.81 5.8H0zm69.68-211h7.66c18.44 0 31.99-3.63 40.64-10.88 8.64-7.25 12.96-18.44 12.96-33.6 0-15.97-4.41-27.76-13.22-35.33s-22.45-11.37-40.89-11.37h-7.16v91.18zm0 146.76c1.15 0 2.84.09 5.07.24 2.22.17 3.91.24 5.07.24 18.44 0 31.83-3.7 40.14-11.11 8.32-7.42 12.48-19.19 12.48-35.33 0-17.29-4.2-29.65-12.6-37.07-8.41-7.41-22.24-11.11-41.52-11.11h-8.64v94.14zM282.18 845.61V484.88h73.39v360.73h-73.39zM448.24 845.61V484.88h74.86c41.19 0 71.04 8.07 89.57 24.21 18.53 16.14 27.8 41.92 27.8 77.33 0 25.7-4.74 46.33-14.21 61.9s-23.76 26.48-42.87 32.74l69.19 164.56h-75.86l-58.8-149.23v149.23h-69.68zm69.68-204.33c.82 0 2.18.09 4.08.26 1.89.16 3.25.24 4.08.24 15.64 0 27.43-4.36 35.33-13.1 7.91-8.73 11.86-21.57 11.86-38.54 0-17.29-3.62-29.89-10.87-37.8-7.25-7.91-18.87-11.87-34.84-11.87-2.47 0-4.36.04-5.68.13-1.32.09-2.55.2-3.7.37l-.26 100.31zM746.73 845.61V551.59h-55.1v-66.71h182.59v66.71h-55.1v294.02h-72.39zM942.19 845.61V484.88h71.16V618.3h80.55V484.88h71.9v360.73h-71.9V688.72h-80.55v156.89h-71.16zM1254.51 845.61V484.88h61.77c55.67 0 97.23 14.91 124.66 44.72 27.43 29.81 41.13 75.1 41.13 135.9 0 36.57-5.02 67.2-15.07 91.91-10.05 24.71-25.79 45.14-47.19 61.28-12.69 9.72-27.06 16.63-43.12 20.75-16.06 4.12-38.75 6.17-68.07 6.17h-54.11zm71.16-66.71h5.68c25.53 0 45.05-9.6 58.56-28.79 13.51-19.19 20.26-47.07 20.26-83.64 0-39.2-6.55-68.31-19.65-87.33-13.09-19.03-33.15-28.54-60.16-28.54h-4.69v228.3zM1519.9 845.61l84.01-360.73h75.36l80.05 360.73h-71.9l-12.11-63.25h-72.39l-11.12 63.25h-71.9zm96.11-119.33h47.93c-4.94-25.2-9.39-51.6-13.34-79.19-3.96-27.59-7.42-56.7-10.38-87.34-3.63 27.02-7.46 54.4-11.49 82.15a7707.97 7707.97 0 0 1-12.72 84.38zM1843.35 845.61V676.12l-83.51-191.24h75.85l23.72 65.23c4.45 11.7 8.48 23.35 12.11 34.96 3.62 11.61 7.08 23.43 10.38 35.45 2.96-13.34 6.17-25.78 9.63-37.3 3.46-11.54 7-21.91 10.62-31.14l26.19-67.2h70.42l-84.01 191.24v169.49h-71.4z"/><path class="st13" d="M295.16 360.73V0h71.16v133.42h80.55V0h71.9v360.73h-71.9V203.84h-80.55v156.89h-71.16zM577.09 360.73 661.11 0h75.36l80.05 360.73h-71.9l-12.11-63.25h-72.39L649 360.73h-71.91zm96.12-119.34h47.93c-4.94-25.2-9.39-51.6-13.34-79.19-3.96-27.59-7.42-56.7-10.38-87.34-3.63 27.02-7.46 54.4-11.49 82.15a7919.17 7919.17 0 0 1-12.72 84.38zM875.1 360.73V0h74.86c39.7 0 69.19 8.6 88.46 25.82 19.27 17.21 28.91 43.53 28.91 78.94 0 33.77-9.31 60-27.92 78.7-18.62 18.69-44.72 28.04-78.33 28.04-4.29 0-7.53-.04-9.76-.13s-4.32-.2-6.3-.37l-.24 149.73H875.1zm69.67-204.34c.82 0 2.1.09 3.83.26 1.72.16 3 .24 3.83.24 15.31 0 26.97-4.41 34.96-13.22 7.98-8.81 11.98-21.46 11.98-37.93 0-17.12-3.8-29.77-11.37-37.93-7.58-8.15-19.44-12.23-35.58-12.23-.83 0-2.11.09-3.83.24-1.73.17-3.01.26-3.83.26v100.31zM1137.76 360.73V0h74.86c39.7 0 69.19 8.6 88.46 25.82 19.27 17.21 28.91 43.53 28.91 78.94 0 33.77-9.31 60-27.92 78.7-18.62 18.69-44.72 28.04-78.33 28.04-4.29 0-7.53-.04-9.76-.13-2.22-.09-4.32-.2-6.3-.37l-.24 149.73h-69.68zm69.67-204.34c.82 0 2.1.09 3.83.26 1.72.16 3 .24 3.83.24 15.31 0 26.97-4.41 34.96-13.22 7.98-8.81 11.98-21.46 11.98-37.93 0-17.12-3.8-29.77-11.37-37.93-7.58-8.15-19.44-12.23-35.58-12.23-.83 0-2.11.09-3.83.24-1.73.17-3.01.26-3.83.26v100.31zM1434.77 360.73V191.24L1351.26 0h75.85l23.72 65.23c4.45 11.7 8.48 23.35 12.11 34.96 3.62 11.61 7.08 23.43 10.38 35.45 2.96-13.34 6.17-25.78 9.63-37.3 3.46-11.54 7-21.91 10.62-31.14L1519.76 0h70.42l-84.01 191.24v169.49h-71.4zM15.2 835.93V475.2h70.17c47.11 0 80.43 7.36 99.94 22.1 19.52 14.75 29.28 39.41 29.28 74.01 0 19.6-3.7 35.74-11.11 48.42-7.42 12.69-18.94 22.82-34.6 30.4 17.46 6.26 30.35 16.1 38.68 29.52 8.31 13.43 12.47 31.1 12.47 53 0 16.3-2.71 31.09-8.15 44.35-5.44 13.26-13.35 24.51-23.72 33.73-10.38 9.07-22.85 15.53-37.43 19.4-14.58 3.87-37.52 5.8-68.81 5.8H15.2zm69.67-211h7.66c18.44 0 31.99-3.63 40.64-10.88 8.64-7.25 12.96-18.44 12.96-33.6 0-15.97-4.41-27.76-13.22-35.33s-22.45-11.37-40.89-11.37h-7.16v91.18zm0 146.76c1.15 0 2.84.09 5.07.24 2.22.17 3.91.24 5.07.24 18.44 0 31.83-3.7 40.14-11.11 8.32-7.42 12.48-19.19 12.48-35.33 0-17.29-4.2-29.65-12.6-37.07-8.41-7.41-22.24-11.11-41.52-11.11h-8.64v94.14zM297.37 835.93V475.2h73.39v360.73h-73.39zM463.44 835.93V475.2h74.86c41.19 0 71.04 8.07 89.57 24.21 18.53 16.14 27.8 41.92 27.8 77.33 0 25.7-4.74 46.33-14.21 61.9s-23.76 26.48-42.87 32.74l69.19 164.56h-75.86l-58.8-149.23v149.23h-69.68zm69.68-204.34c.82 0 2.18.09 4.08.26 1.89.16 3.25.24 4.08.24 15.64 0 27.43-4.36 35.33-13.1 7.91-8.73 11.86-21.57 11.86-38.54 0-17.29-3.62-29.89-10.87-37.8-7.25-7.91-18.87-11.87-34.84-11.87-2.47 0-4.36.04-5.68.13-1.32.09-2.55.2-3.7.37l-.26 100.31zM761.92 835.93V541.91h-55.1V475.2h182.59v66.71h-55.1v294.02h-72.39zM957.38 835.93V475.2h71.16v133.42h80.55V475.2h71.9v360.73h-71.9V679.04h-80.55v156.89h-71.16zM1269.71 835.93V475.2h61.77c55.67 0 97.23 14.91 124.66 44.72 27.43 29.81 41.13 75.1 41.13 135.9 0 36.57-5.02 67.2-15.07 91.91-10.05 24.71-25.79 45.14-47.19 61.28-12.69 9.72-27.06 16.63-43.12 20.75-16.06 4.12-38.75 6.17-68.07 6.17h-54.11zm71.16-66.71h5.68c25.53 0 45.05-9.6 58.56-28.79 13.51-19.19 20.26-47.07 20.26-83.64 0-39.2-6.55-68.31-19.65-87.33-13.09-19.03-33.15-28.54-60.16-28.54h-4.69v228.3zM1535.1 835.93l84.01-360.73h75.36l80.05 360.73h-71.9l-12.11-63.25h-72.39L1607 835.93h-71.9zm96.11-119.33h47.93c-4.94-25.2-9.39-51.6-13.34-79.19-3.96-27.59-7.42-56.7-10.38-87.34-3.63 27.02-7.46 54.4-11.49 82.15-4.03 27.76-8.27 55.87-12.72 84.38zM1858.54 835.93V666.44l-83.51-191.24h75.85l23.72 65.23c4.45 11.7 8.48 23.35 12.11 34.96 3.62 11.61 7.08 23.43 10.38 35.45 2.96-13.34 6.17-25.78 9.63-37.3 3.46-11.54 7-21.91 10.62-31.14l26.19-67.2h70.42l-84.01 191.24v169.49h-71.4z"/></g></svg>