<svg xmlns="http://www.w3.org/2000/svg" viewBox="0 0 2048 907" style="enable-background:new 0 0 2048 907" xml:space="preserve"><style>.st0{display:none}.st1{display:inline}.st2{fill:#f0f}.st3,.st4,.st5{fill:none;stroke:#fff;stroke-width:1.4301;stroke-linecap:round;stroke-miterlimit:10}.st4,.st5{stroke:#000;stroke-width:3.7565;stroke-linejoin:round}.st5{fill:#00d7b4}.st6{fill:#273959}.st7{fill:#f3c310;stroke:#273959;stroke-width:16.1468;stroke-linecap:round;stroke-linejoin:round;stroke-miterlimit:10}.st8{fill:#40ffff}.st9{fill:#81338a}.st10{fill:#41ff8b}.st11{fill:#fff;stroke:#41328b;stroke-width:13.0669;stroke-linejoin:round;stroke-miterlimit:10}.st12{fill:#ffffa9}.st13{fill:none;stroke:#41328b;stroke-width:13.0669;stroke-linejoin:round;stroke-miterlimit:10}.st14{fill:#4f00ff}.st15,.st16,.st17{fill:none;stroke:#fff;stroke-width:2.8603;stroke-linecap:round;stroke-miterlimit:10}.st16,.st17{stroke:#000;stroke-width:7.5129;stroke-linejoin:round}.st17{fill:#f40000}.st18{fill:#181716}.st19,.st20,.st23,.st24{fill:#f76768;stroke:#f76768;stroke-width:11.0121;stroke-miterlimit:10}.st20,.st23,.st24{fill:#00f7bd}.st23,.st24{fill:none;stroke:#fff;stroke-width:2.753}.st24{stroke-dasharray:21.8941,21.8941}.st25{fill:#ff0}.st26,.st28{fill:none;stroke:#00f7bd;stroke-width:11.0121;stroke-miterlimit:10}.st28{fill:#00f7bd;stroke:#00f;stroke-linejoin:round}</style><g id="Ebene_3"><path class="st6" d="M306.45 395.03V26.91h72.62v136.15h82.2V26.91h73.37v368.11h-73.37v-160.1h-82.2v160.11h-72.62zM592.08 395.03l85.73-368.11h76.9l81.7 368.11h-73.38l-12.35-64.55H676.8l-11.35 64.55h-73.37zm98.08-121.78h48.91c-5.04-25.72-9.58-52.66-13.61-80.81-4.03-28.15-7.56-57.86-10.59-89.13-3.7 27.57-7.61 55.52-11.72 83.83-4.12 28.33-8.45 57.03-12.99 86.11zM894.11 395.03V26.91h76.4c40.51 0 70.6 8.79 90.26 26.35 19.67 17.57 29.5 44.42 29.5 80.56 0 34.46-9.5 61.23-28.49 80.3-19 19.08-45.63 28.62-79.92 28.62-4.37 0-7.69-.04-9.96-.13-2.27-.08-4.41-.21-6.43-.38l-.25 152.79h-71.11zm71.1-208.52c.84 0 2.14.09 3.91.25 1.77.17 3.06.25 3.91.25 15.63 0 27.52-4.49 35.68-13.49 8.15-8.99 12.23-21.89 12.23-38.7 0-17.48-3.87-30.39-11.6-38.71-7.73-8.32-19.83-12.48-36.3-12.48-.85 0-2.14.08-3.91.25-1.76.17-3.07.25-3.91.25v102.38zM1160.07 395.03V26.91h76.4c40.51 0 70.6 8.79 90.26 26.35 19.67 17.57 29.5 44.42 29.5 80.56 0 34.46-9.5 61.23-28.49 80.3-19 19.08-45.63 28.62-79.92 28.62-4.37 0-7.69-.04-9.96-.13-2.27-.08-4.41-.21-6.43-.38l-.25 152.79h-71.11zm71.11-208.52c.84 0 2.14.09 3.91.25 1.77.17 3.06.25 3.91.25 15.63 0 27.52-4.49 35.68-13.49 8.15-8.99 12.23-21.89 12.23-38.7 0-17.48-3.87-30.39-11.6-38.71-7.73-8.32-19.83-12.48-36.3-12.48-.85 0-2.14.08-3.91.25-1.76.17-3.07.25-3.91.25v102.38zM1461.09 395.03V222.06l-85.22-195.15h77.4l24.2 66.57c4.54 11.94 8.66 23.83 12.36 35.67 3.7 11.85 7.22 23.92 10.59 36.18 3.03-13.61 6.31-26.31 9.83-38.07 3.53-11.77 7.14-22.35 10.84-31.77l26.73-68.58h71.86l-85.73 195.15v172.96h-72.86zM22.83 906.58V538.47h71.61c48.07 0 82.07 7.52 101.98 22.56 19.92 15.04 29.88 40.21 29.88 75.51 0 20-3.78 36.48-11.35 49.42-7.56 12.95-19.33 23.28-35.3 31.01 17.82 6.39 30.97 16.43 39.46 30.13 8.48 13.7 12.73 31.73 12.73 54.09 0 16.64-2.78 31.73-8.32 45.26-5.55 13.53-13.61 25.01-24.2 34.42-10.59 9.25-23.32 15.85-38.2 19.79-14.88 3.95-38.29 5.92-70.22 5.92H22.83zm71.11-215.32h7.82c18.82 0 32.65-3.7 41.48-11.09 8.83-7.4 13.23-18.83 13.23-34.29 0-16.3-4.5-28.33-13.49-36.06-8.99-7.73-22.91-11.6-41.73-11.6h-7.31v93.04zm0 149.77c1.17 0 2.9.08 5.17.25 2.27.17 3.99.25 5.17.25 18.82 0 32.48-3.78 40.97-11.35 8.48-7.56 12.73-19.58 12.73-36.05 0-17.65-4.28-30.26-12.86-37.82-8.57-7.56-22.7-11.34-42.36-11.34h-8.83v96.06zM308.72 906.58V538.47h74.88v368.11h-74.88zM476.1 906.58V538.47h76.4c42.02 0 72.49 8.24 91.4 24.71s28.37 42.78 28.37 78.92c0 26.22-4.84 47.27-14.5 63.16-9.67 15.89-24.25 27.02-43.74 33.41l70.59 167.92h-77.4L547.21 754.3v152.29H476.1zm71.11-208.51c.84 0 2.22.09 4.16.25 1.93.17 3.32.25 4.16.25 15.97 0 27.98-4.45 36.05-13.36 8.07-8.91 12.1-22.02 12.1-39.33 0-17.65-3.7-30.51-11.1-38.58-7.4-8.07-19.25-12.1-35.55-12.1-2.52 0-4.46.04-5.8.13s-2.61.21-3.78.38l-.24 102.36zM778.63 906.58V606.54h-56.22v-68.07h186.32v68.07h-56.22v300.04h-73.88zM976.02 906.58V538.47h72.62v136.15h82.2V538.47h73.37v368.11h-73.37v-160.1h-82.2v160.11h-72.62zM1292.67 906.58V538.47h63.04c56.81 0 99.21 15.21 127.2 45.63 27.99 30.43 41.98 76.65 41.98 138.67 0 37.32-5.13 68.58-15.38 93.8-10.25 25.21-26.31 46.06-48.16 62.53-12.95 9.92-27.61 16.98-44 21.18-16.39 4.2-39.54 6.3-69.46 6.3h-55.22zm72.62-68.08h5.8c26.05 0 45.97-9.79 59.76-29.37 13.78-19.58 20.67-48.03 20.67-85.35 0-40-6.68-69.71-20.04-89.13-13.37-19.42-33.83-29.12-61.4-29.12h-4.79V838.5zM1561.42 906.58l85.73-368.11h76.9l81.7 368.11h-73.38l-12.35-64.55h-73.87l-11.35 64.55h-73.38zm98.07-121.78h48.91c-5.04-25.72-9.58-52.66-13.61-80.81-4.03-28.15-7.56-57.86-10.59-89.13-3.7 27.57-7.61 55.52-11.72 83.83-4.12 28.33-8.44 57.04-12.99 86.11zM1889.41 906.58V733.62l-85.22-195.15h77.4l24.2 66.56c4.54 11.94 8.66 23.83 12.36 35.67 3.7 11.85 7.22 23.92 10.59 36.18 3.03-13.61 6.31-26.31 9.83-38.07 3.53-11.77 7.14-22.35 10.84-31.77l26.73-68.58H2048l-85.73 195.15v172.96h-72.86z"/><path class="st7" d="M283.61 378.88V10.76h72.62v136.15h82.2V10.76h73.37v368.11h-73.37v-160.1h-82.2v160.11h-72.62zM569.25 378.88l85.73-368.11h76.9l81.7 368.11H740.2l-12.35-64.55h-73.87l-11.35 64.55h-73.38zm98.08-121.78h48.91c-5.04-25.72-9.58-52.66-13.61-80.81-4.03-28.15-7.56-57.86-10.59-89.13-3.7 27.57-7.61 55.52-11.72 83.83-4.12 28.33-8.45 57.03-12.99 86.11zM871.27 378.88V10.76h76.4c40.51 0 70.6 8.79 90.26 26.35 19.67 17.57 29.5 44.42 29.5 80.56 0 34.46-9.5 61.23-28.49 80.3-19 19.08-45.63 28.62-79.92 28.62-4.37 0-7.69-.04-9.96-.13s-4.41-.21-6.43-.38l-.25 152.79h-71.11zm71.11-208.52c.84 0 2.14.09 3.91.25 1.77.17 3.06.25 3.91.25 15.63 0 27.52-4.49 35.68-13.49 8.15-8.99 12.23-21.89 12.23-38.7 0-17.48-3.87-30.39-11.6-38.71s-19.83-12.48-36.3-12.48c-.85 0-2.14.08-3.91.25-1.76.17-3.07.25-3.91.25v102.38zM1137.24 378.88V10.76h76.4c40.51 0 70.6 8.79 90.26 26.35 19.67 17.57 29.5 44.42 29.5 80.56 0 34.46-9.5 61.23-28.49 80.3-19 19.08-45.63 28.62-79.92 28.62-4.37 0-7.69-.04-9.96-.13s-4.41-.21-6.43-.38l-.25 152.79h-71.11zm71.11-208.52c.84 0 2.14.09 3.91.25 1.77.17 3.06.25 3.91.25 15.63 0 27.52-4.49 35.68-13.49 8.15-8.99 12.23-21.89 12.23-38.7 0-17.48-3.87-30.39-11.6-38.71-7.73-8.32-19.83-12.48-36.3-12.48-.85 0-2.14.08-3.91.25-1.76.17-3.07.25-3.91.25v102.38zM1438.26 378.88V205.92l-85.22-195.15h77.4l24.2 66.57c4.54 11.94 8.66 23.83 12.36 35.67 3.7 11.85 7.22 23.92 10.59 36.18 3.03-13.61 6.31-26.31 9.83-38.07 3.53-11.77 7.14-22.35 10.84-31.77L1525 10.76h71.86l-85.73 195.15v172.96h-72.87zM0 890.43V522.32h71.61c48.07 0 82.07 7.52 101.98 22.56 19.92 15.04 29.88 40.21 29.88 75.51 0 20-3.78 36.48-11.35 49.42-7.56 12.95-19.33 23.28-35.3 31.01 17.82 6.39 30.97 16.43 39.46 30.13 8.48 13.7 12.73 31.73 12.73 54.09 0 16.64-2.78 31.73-8.32 45.26-5.55 13.53-13.61 25.01-24.2 34.42-10.59 9.25-23.32 15.85-38.2 19.79-14.88 3.95-38.29 5.92-70.22 5.92H0zm71.1-215.32h7.82c18.82 0 32.65-3.7 41.48-11.09 8.83-7.4 13.23-18.83 13.23-34.29 0-16.3-4.5-28.33-13.49-36.06-8.99-7.73-22.91-11.6-41.73-11.6H71.1v93.04zm0 149.77c1.17 0 2.9.08 5.17.25 2.27.17 3.99.25 5.17.25 18.82 0 32.48-3.78 40.97-11.35 8.48-7.56 12.73-19.58 12.73-36.05 0-17.65-4.28-30.26-12.86-37.82-8.57-7.56-22.7-11.34-42.36-11.34H71.1v96.06zM285.89 890.43V522.32h74.88v368.11h-74.88zM453.27 890.43V522.32h76.4c42.02 0 72.49 8.24 91.4 24.71 18.91 16.47 28.37 42.78 28.37 78.92 0 26.22-4.84 47.27-14.5 63.16-9.67 15.89-24.25 27.02-43.74 33.41l70.59 167.92h-77.4l-60.01-152.29v152.29h-71.11zm71.11-208.51c.84 0 2.22.09 4.16.25 1.93.17 3.32.25 4.16.25 15.97 0 27.98-4.45 36.05-13.36s12.1-22.02 12.1-39.33c0-17.65-3.7-30.51-11.1-38.58s-19.25-12.1-35.55-12.1c-2.52 0-4.46.04-5.8.13a44.7 44.7 0 0 0-3.78.38l-.24 102.36zM755.8 890.43V590.4h-56.22v-68.07H885.9v68.07h-56.22v300.04H755.8zM953.19 890.43V522.32h72.62v136.15h82.2V522.32h73.37v368.11H1108v-160.1h-82.2v160.11h-72.61zM1269.84 890.43V522.32h63.04c56.81 0 99.21 15.21 127.2 45.63 27.99 30.43 41.98 76.65 41.98 138.67 0 37.32-5.13 68.58-15.38 93.8-10.25 25.21-26.31 46.06-48.16 62.53-12.95 9.92-27.61 16.98-44 21.18-16.39 4.2-39.54 6.3-69.46 6.3h-55.22zm72.62-68.07h5.8c26.05 0 45.97-9.79 59.76-29.37 13.78-19.58 20.67-48.03 20.67-85.35 0-40-6.68-69.71-20.04-89.13-13.37-19.42-33.83-29.12-61.4-29.12h-4.79v232.97zM1538.58 890.43l85.73-368.11h76.9l81.7 368.11h-73.38l-12.35-64.55h-73.87l-11.35 64.55h-73.38zm98.08-121.77h48.91c-5.04-25.72-9.58-52.66-13.61-80.81-4.03-28.15-7.56-57.86-10.59-89.13-3.7 27.57-7.61 55.52-11.72 83.83-4.12 28.33-8.45 57.03-12.99 86.11zM1866.58 890.43V717.47l-85.22-195.15h77.4l24.2 66.56c4.54 11.94 8.66 23.83 12.36 35.67 3.7 11.85 7.22 23.92 10.59 36.18 3.03-13.61 6.31-26.31 9.83-38.07 3.53-11.77 7.14-22.35 10.84-31.77l26.73-68.58h71.86l-85.73 195.15v172.96h-72.86z"/><path class="st8" d="M306.45 368.11V0h72.62v136.15h82.2V0h73.37v368.11h-73.37v-160.1h-82.2v160.11h-72.62zM592.08 368.11 677.81 0h76.9l81.7 368.11h-73.38l-12.35-64.55H676.8l-11.35 64.55h-73.37zm98.08-121.77h48.91c-5.04-25.72-9.58-52.66-13.61-80.81-4.03-28.15-7.56-57.86-10.59-89.13-3.7 27.57-7.61 55.52-11.72 83.83-4.12 28.33-8.45 57.03-12.99 86.11zM894.11 368.11V0h76.4c40.51 0 70.6 8.79 90.26 26.35 19.67 17.57 29.5 44.42 29.5 80.56 0 34.46-9.5 61.23-28.49 80.3-19 19.08-45.63 28.62-79.92 28.62-4.37 0-7.69-.04-9.96-.13-2.27-.08-4.41-.21-6.43-.38l-.25 152.79h-71.11zm71.1-208.51c.84 0 2.14.09 3.91.25 1.77.17 3.06.25 3.91.25 15.63 0 27.52-4.49 35.68-13.49 8.15-8.99 12.23-21.89 12.23-38.7 0-17.48-3.87-30.39-11.6-38.71-7.73-8.32-19.83-12.48-36.3-12.48-.85 0-2.14.08-3.91.25-1.76.17-3.07.25-3.91.25V159.6zM1160.07 368.11V0h76.4c40.51 0 70.6 8.79 90.26 26.35 19.67 17.57 29.5 44.42 29.5 80.56 0 34.46-9.5 61.23-28.49 80.3-19 19.08-45.63 28.62-79.92 28.62-4.37 0-7.69-.04-9.96-.13-2.27-.08-4.41-.21-6.43-.38l-.25 152.79h-71.11zm71.11-208.51c.84 0 2.14.09 3.91.25 1.77.17 3.06.25 3.91.25 15.63 0 27.52-4.49 35.68-13.49 8.15-8.99 12.23-21.89 12.23-38.7 0-17.48-3.87-30.39-11.6-38.71-7.73-8.32-19.83-12.48-36.3-12.48-.85 0-2.14.08-3.91.25-1.76.17-3.07.25-3.91.25V159.6zM1461.09 368.11V195.15L1375.87 0h77.4l24.2 66.57c4.54 11.94 8.66 23.83 12.36 35.67 3.7 11.85 7.22 23.92 10.59 36.18 3.03-13.61 6.31-26.31 9.83-38.07 3.53-11.77 7.14-22.35 10.84-31.77L1547.83 0h71.86l-85.73 195.15v172.96h-72.87zM22.83 879.67V511.56h71.61c48.07 0 82.07 7.52 101.98 22.56 19.92 15.04 29.88 40.21 29.88 75.51 0 20-3.78 36.48-11.35 49.42-7.56 12.95-19.33 23.28-35.3 31.01 17.82 6.39 30.97 16.43 39.46 30.13 8.48 13.7 12.73 31.73 12.73 54.09 0 16.64-2.78 31.73-8.32 45.26-5.55 13.53-13.61 25.01-24.2 34.42-10.59 9.25-23.32 15.85-38.2 19.79-14.88 3.95-38.29 5.92-70.22 5.92H22.83zm71.11-215.32h7.82c18.82 0 32.65-3.7 41.48-11.09 8.83-7.4 13.23-18.83 13.23-34.29 0-16.3-4.5-28.33-13.49-36.06-8.99-7.73-22.91-11.6-41.73-11.6h-7.31v93.04zm0 149.77c1.17 0 2.9.08 5.17.25 2.27.17 3.99.25 5.17.25 18.82 0 32.48-3.78 40.97-11.35 8.48-7.56 12.73-19.58 12.73-36.05 0-17.65-4.28-30.26-12.86-37.82-8.57-7.56-22.7-11.34-42.36-11.34h-8.83v96.06zM308.72 879.67V511.56h74.88v368.11h-74.88zM476.1 879.67V511.56h76.4c42.02 0 72.49 8.24 91.4 24.71s28.37 42.78 28.37 78.92c0 26.22-4.84 47.27-14.5 63.16-9.67 15.89-24.25 27.02-43.74 33.41l70.59 167.92h-77.4l-60.01-152.29v152.29H476.1zm71.11-208.51c.84 0 2.22.09 4.16.25 1.93.17 3.32.25 4.16.25 15.97 0 27.98-4.45 36.05-13.36s12.1-22.02 12.1-39.33c0-17.65-3.7-30.51-11.1-38.58-7.4-8.07-19.25-12.1-35.55-12.1-2.52 0-4.46.04-5.8.13a44.7 44.7 0 0 0-3.78.38l-.24 102.36zM778.63 879.67V579.63h-56.22v-68.07h186.32v68.07h-56.22v300.04h-73.88zM976.02 879.67V511.56h72.62v136.15h82.2V511.56h73.37v368.11h-73.37V719.56h-82.2v160.11h-72.62zM1292.67 879.67V511.56h63.04c56.81 0 99.21 15.21 127.2 45.63 27.99 30.43 41.98 76.65 41.98 138.67 0 37.32-5.13 68.58-15.38 93.8-10.25 25.21-26.31 46.06-48.16 62.53-12.95 9.92-27.61 16.98-44 21.18-16.39 4.2-39.54 6.3-69.46 6.3h-55.22zm72.62-68.08h5.8c26.05 0 45.97-9.79 59.76-29.37 13.78-19.58 20.67-48.03 20.67-85.35 0-40-6.68-69.71-20.04-89.13-13.37-19.42-33.83-29.12-61.4-29.12h-4.79v232.97zM1561.42 879.67l85.73-368.11h76.9l81.7 368.11h-73.38l-12.35-64.55h-73.87l-11.35 64.55h-73.38zm98.07-121.78h48.91c-5.04-25.72-9.58-52.66-13.61-80.81-4.03-28.15-7.56-57.86-10.59-89.13-3.7 27.57-7.61 55.52-11.72 83.83-4.12 28.33-8.44 57.03-12.99 86.11zM1889.41 879.67V706.71l-85.22-195.15h77.4l24.2 66.56c4.54 11.94 8.66 23.83 12.36 35.67 3.7 11.85 7.22 23.92 10.59 36.18 3.03-13.61 6.31-26.31 9.83-38.07 3.53-11.77 7.14-22.35 10.84-31.77l26.73-68.58H2048l-85.73 195.15v172.96h-72.86z"/><circle class="st9" cx="339" cy="48.61" r="14.88"/><circle class="st9" cx="339" cy="115.09" r="14.88"/><circle class="st9" cx="339" cy="181.57" r="14.88"/><circle class="st9" cx="415.51" cy="181.57" r="14.88"/><circle class="st9" cx="339" cy="248.05" r="14.88"/><circle class="st9" cx="339" cy="314.53" r="14.88"/><circle class="st9" cx="496.92" cy="48.61" r="14.88"/><circle class="st9" cx="496.92" cy="115.09" r="14.88"/><circle class="st9" cx="496.92" cy="181.57" r="14.88"/><circle class="st9" cx="496.92" cy="248.05" r="14.88"/><circle class="st9" cx="496.92" cy="314.53" r="14.88"/><circle class="st9" cx="927.5" cy="48.61" r="14.88"/><circle class="st9" cx="984.23" cy="26.91" r="14.88"/><circle class="st9" cx="1045.89" cy="48.61" r="14.88"/><circle class="st9" cx="927.5" cy="115.09" r="14.88"/><circle class="st9" cx="1060.77" cy="115.09" r="14.88"/><circle class="st9" cx="927.5" cy="181.57" r="14.88"/><circle class="st9" cx="1012.98" cy="181.57" r="14.88"/><circle class="st9" cx="927.5" cy="248.05" r="14.88"/><circle class="st9" cx="927.5" cy="314.53" r="14.88"/><circle class="st9" cx="1191.52" cy="48.61" r="14.88"/><circle class="st9" cx="1248.26" cy="26.91" r="14.88"/><circle class="st9" cx="1309.91" cy="48.61" r="14.88"/><circle class="st9" cx="1191.52" cy="115.09" r="14.88"/><circle class="st9" cx="1324.79" cy="115.09" r="14.88"/><circle class="st9" cx="1191.52" cy="181.57" r="14.88"/><circle class="st9" cx="1277" cy="181.57" r="14.88"/><circle class="st9" cx="1191.52" cy="248.05" r="14.88"/><circle class="st9" cx="1191.52" cy="314.53" r="14.88"/><circle class="st9" cx="1497.78" cy="181.57" r="14.88"/><circle class="st9" cx="1460.07" cy="119.18" r="14.88"/><circle class="st9" cx="1531.66" cy="119.18" r="14.88"/><circle class="st9" cx="1428.68" cy="48.61" r="14.88"/><circle class="st9" cx="1561.42" cy="48.61" r="14.88"/><circle class="st9" cx="1497.78" cy="248.05" r="14.88"/><circle class="st9" cx="1497.78" cy="314.53" r="14.88"/><circle class="st9" cx="1924.9" cy="695.61" r="14.88"/><circle class="st9" cx="1887.19" cy="629.14" r="14.88"/><circle class="st9" cx="1958.78" cy="629.14" r="14.88"/><circle class="st9" cx="1855.8" cy="562.66" r="14.88"/><circle class="st9" cx="1988.53" cy="562.66" r="14.88"/><circle class="st9" cx="1924.9" cy="762.09" r="14.88"/><circle class="st9" cx="1924.9" cy="828.57" r="14.88"/><circle class="st9" cx="1327.58" cy="695.61" r="14.88"/><circle class="st9" cx="1327.58" cy="562.66" r="14.88"/><circle class="st9" cx="1400.45" cy="542.31" r="14.88"/><circle class="st9" cx="1460.07" cy="582.57" r="14.88"/><circle class="st9" cx="1488.2" cy="644.01" r="14.88"/><circle class="st9" cx="1488.2" cy="717.14" r="14.88"/><circle class="st9" cx="1466.39" cy="794.3" r="14.88"/><circle class="st9" cx="1400.45" cy="833.12" r="14.88"/><circle class="st9" cx="1327.58" cy="629.14" r="14.88"/><circle class="st9" cx="1327.58" cy="762.09" r="14.88"/><circle class="st9" cx="1327.58" cy="828.57" r="14.88"/><circle class="st9" cx="1160.07" cy="695.61" r="14.88"/><circle class="st9" cx="1079.59" cy="695.61" r="14.88"/><circle class="st9" cx="1160.07" cy="562.66" r="14.88"/><circle class="st9" cx="1160.07" cy="629.14" r="14.88"/><circle class="st9" cx="1160.07" cy="762.09" r="14.88"/><circle class="st9" cx="1160.07" cy="828.57" r="14.88"/><circle class="st9" cx="999.11" cy="695.61" r="14.88"/><circle class="st9" cx="999.11" cy="562.66" r="14.88"/><circle class="st9" cx="999.11" cy="629.14" r="14.88"/><circle class="st9" cx="999.11" cy="762.09" r="14.88"/><circle class="st9" cx="999.11" cy="828.57" r="14.88"/><circle class="st9" cx="813.57" cy="695.61" r="14.88"/><circle class="st9" cx="813.57" cy="547.78" r="14.88"/><circle class="st9" cx="871.27" cy="547.78" r="14.88"/><circle class="st9" cx="762.29" cy="547.78" r="14.88"/><circle class="st9" cx="575.45" cy="542.4" r="14.88"/><circle class="st9" cx="632.26" cy="582.57" r="14.88"/><circle class="st9" cx="632.26" cy="649.47" r="14.88"/><circle class="st9" cx="575.45" cy="705.87" r="14.88"/><circle class="st9" cx="592.08" cy="768.66" r="14.88"/><circle class="st9" cx="617.38" cy="833.12" r="14.88"/><circle class="st9" cx="813.57" cy="629.14" r="14.88"/><circle class="st9" cx="813.57" cy="762.09" r="14.88"/><circle class="st9" cx="813.57" cy="828.57" r="14.88"/><circle class="st9" cx="509.5" cy="695.61" r="14.88"/><circle class="st9" cx="509.5" cy="547.78" r="14.88"/><circle class="st9" cx="509.5" cy="629.14" r="14.88"/><circle class="st9" cx="509.5" cy="762.09" r="14.88"/><circle class="st9" cx="509.5" cy="828.57" r="14.88"/><circle class="st9" cx="346.16" cy="695.61" r="14.88"/><circle class="st9" cx="346.16" cy="547.78" r="14.88"/><circle class="st9" cx="346.16" cy="629.14" r="14.88"/><circle class="st9" cx="346.16" cy="762.09" r="14.88"/><circle class="st9" cx="346.16" cy="828.57" r="14.88"/><circle class="st9" cx="56.23" cy="695.61" r="14.88"/><circle class="st9" cx="56.23" cy="547.78" r="14.88"/><circle class="st9" cx="56.23" cy="629.14" r="14.88"/><circle class="st9" cx="56.23" cy="762.09" r="14.88"/><circle class="st9" cx="56.23" cy="828.57" r="14.88"/><circle class="st9" cx="117.25" cy="853.38" r="14.88"/><circle class="st9" cx="182.69" cy="814.62" r="14.88"/><circle class="st9" cx="187.88" cy="747.22" r="14.88"/><circle class="st9" cx="140.83" cy="691.5" r="14.88"/><circle class="st9" cx="187.88" cy="630.74" r="14.88"/><circle class="st9" cx="182.69" cy="563.75" r="14.88"/><circle class="st9" cx="117.25" cy="542.4" r="14.88"/><circle class="st9" cx="632.26" cy="314.53" r="14.88"/><circle class="st9" cx="798.12" cy="314.53" r="14.88"/><circle class="st9" cx="647.14" cy="248.05" r="14.88"/><circle class="st9" cx="783.24" cy="248.05" r="14.88"/><circle class="st9" cx="667.33" cy="181.57" r="14.88"/><circle class="st9" cx="767.95" cy="181.57" r="14.88"/><circle class="st9" cx="682.21" cy="115.09" r="14.88"/><circle class="st9" cx="753.08" cy="115.09" r="14.88"/><circle class="st9" cx="714.24" cy="48.61" r="14.88"/><circle class="st9" cx="1598.88" cy="828.57" r="14.88"/><circle class="st9" cx="1764.74" cy="828.57" r="14.88"/><circle class="st9" cx="1613.75" cy="762.09" r="14.88"/><circle class="st9" cx="1749.86" cy="762.09" r="14.88"/><circle class="st9" cx="1633.95" cy="695.61" r="14.88"/><circle class="st9" cx="1734.57" cy="695.61" r="14.88"/><circle class="st9" cx="1648.82" cy="629.14" r="14.88"/><circle class="st9" cx="1719.69" cy="629.14" r="14.88"/><circle class="st9" cx="1680.86" cy="562.66" r="14.88"/></g></svg>