<svg width="14" height="18" viewBox="0 0 14 18" fill="none" xmlns="http://www.w3.org/2000/svg">
<path d="M9.25001 17.75V13.95C8.93334 12.8167 8.37067 11.9707 7.56201 11.412C6.75401 10.854 5.87501 10.575 4.92501 10.575C4.64167 10.575 4.35401 10.5917 4.06201 10.625C3.77067 10.6583 3.49167 10.7 3.22501 10.75L5.07501 12.6L4.00001 13.65L0.350006 10L4.00001 6.35001L5.07501 7.40001L3.22501 9.25001C3.47501 9.20001 3.73334 9.16234 4.00001 9.13701C4.26667 9.11234 4.55001 9.10001 4.85001 9.10001C5.70001 9.10001 6.50401 9.25834 7.26201 9.57501C8.02067 9.89167 8.68334 10.3833 9.25001 11.05V3.22501L7.40001 5.07501L6.35001 4.00001L10 0.350006L13.65 4.00001L12.6 5.07501L10.75 3.22501V17.75H9.25001Z" fill="white"/>
</svg>
