<svg width="120" height="50" viewBox="0 0 120 50" fill="none" xmlns="http://www.w3.org/2000/svg">
<path d="M108.532 24.0717C105.89 24.3361 103.16 25.8762 103.337 27.0218C103.513 28.1674 105.097 30.3245 105.89 30.2363C106.683 30.1482 107.871 29.2229 109.501 29.6195C111.13 30.016 113.024 31.9527 111.13 34.3741C109.237 36.7955 103.907 35.5638 102.367 35.1672C100.825 34.7707 98.6682 34.4182 97.6988 34.3301C96.7294 34.2419 95.9383 33.8454 96.2448 33.0523C96.5532 32.2592 100.913 21.2077 101.043 20.8993C101.176 20.5908 101.793 20.3265 102.277 20.4586C102.762 20.5908 107.649 22.5716 112.846 21.3839C118.041 20.1943 121.696 14.25 119.055 8.70218C116.413 3.15442 109.147 3.34669 105.756 4.74665C102.365 6.14861 100.12 9.01062 99.0187 10.6389C97.9171 12.2672 97.5206 12.4434 97.0819 12.2231C94.6165 10.9734 84.8348 3.91348 70.0281 2.86201C54.8869 1.7885 50.3004 5.59183 50.2123 7.3543C50.1242 9.11476 54.264 9.46725 57.0819 8.67615C59.8999 7.88304 65.5358 6.6413 73.1384 7.60064C82.5336 8.7863 89.7657 14.3241 94.967 16.9357C95.4076 17.2441 95.4957 17.7729 94.7907 19.5774C94.0857 21.3819 88.2736 35.1212 87.833 36.0905C87.3924 37.0599 85.2874 37.855 85.2794 38.3797C85.2794 38.3797 85.015 42.5195 87.3043 42.6077C89.5935 42.6958 91.444 40.5828 92.8961 39.8778C94.3501 39.1728 96.9478 39.7917 100.515 40.4947C104.082 41.1977 108.001 42.3453 112.624 40.4947C117.248 38.6441 118.524 33.1404 117.378 29.1328C116.237 25.1292 111.174 23.8073 108.532 24.0717ZM106.946 10.729C109.059 9.23092 112.67 9.10074 113.551 11.5662C114.432 14.0316 112.626 16.3208 109.411 16.453C106.197 16.5852 104.286 15.5718 104.084 15.2193C103.601 14.3841 104.833 12.2271 106.946 10.729Z" fill="#BB9550"/>
<path d="M83.1024 20.699C82.7959 20.8612 82.4835 21.0174 82.1891 21.1997C82.117 21.2437 82.0509 21.2958 81.9788 21.3399C81.9708 21.3439 81.9688 21.3459 81.9628 21.3479C81.9587 21.3519 81.9567 21.3559 81.9527 21.3619C81.9247 21.3939 81.8766 21.446 81.8426 21.4721C81.8406 21.4741 81.8386 21.4741 81.8366 21.4761C81.8306 21.4881 81.8146 21.5261 81.8005 21.5562C81.7945 21.5822 81.7865 21.6123 81.7825 21.6303C81.7825 21.6383 81.7825 21.6423 81.7825 21.6543C81.7865 21.7124 81.7945 21.7725 81.7985 21.8306C81.7985 21.8466 81.8005 21.8566 81.7985 21.8626C81.8025 21.8746 81.8085 21.8906 81.8206 21.9247C81.8486 22.0128 81.8726 22.0989 81.9027 22.1871C81.9628 22.3593 82.0309 22.5275 82.105 22.6958C82.117 22.7238 82.141 22.7779 82.147 22.7899C82.2011 22.9021 82.2592 23.0122 82.3112 23.1244C82.3813 23.2746 82.4494 23.4248 82.5155 23.575C82.6677 23.9195 82.8159 24.264 82.9762 24.6044C83.0943 24.8588 83.2005 25.0731 83.3487 25.3234C85.007 25.6679 86.5552 25.3074 87.7769 24.254C88.6061 23.5389 89.1628 22.4014 89.259 21.3038C89.3391 20.3865 89.295 19.7156 89.0627 18.7883C88.9065 18.1654 88.592 17.5526 88.2516 16.9998C87.4705 15.736 86.1787 14.6505 84.8228 14.0196C83.0082 13.1764 80.9794 12.7599 79.0206 12.84C77.2001 12.9141 75.3155 13.3707 73.8654 14.4002C72.3353 15.4857 71.3098 16.8796 70.733 18.6521C70.2343 20.1802 70.3906 21.9207 70.8913 23.4889C71.438 25.1973 72.5055 26.8055 73.9195 27.9932C74.9309 28.8444 76.0765 29.5013 77.166 30.2423C77.4324 30.4466 77.6888 30.6629 77.9251 30.8993C78.0493 31.0635 78.1614 31.2317 78.2656 31.408C78.3457 31.6123 78.4158 31.8205 78.4719 32.0328C78.5019 32.2351 78.5239 32.4394 78.53 32.6417C78.5159 32.7198 78.4979 32.7999 78.4799 32.876C78.4358 32.9661 78.3878 33.0563 78.3377 33.1444C78.1795 33.3307 78.0092 33.5029 77.825 33.6651C77.4144 33.9515 76.9718 34.1939 76.5131 34.4062C75.4757 34.8027 74.3821 35.0651 73.2686 35.2373C71.5982 35.4296 69.8939 35.4296 68.1995 35.2393C67.0639 35.0671 65.9343 34.8007 64.8448 34.4042C64.284 34.1618 63.7433 33.8774 63.2325 33.543C63.2145 33.5289 63.1985 33.5149 63.1805 33.5009C63.1324 33.4608 63.0883 33.4168 63.0403 33.3747C62.0789 32.3633 62.866 30.4166 64.1598 26.9537C65.6579 22.9461 68.6521 16.0785 68.8704 15.2413C69.0907 14.4042 68.9145 13.8754 67.7248 13.7873C66.5352 13.6992 63.7172 13.6992 62.882 13.7873C62.0449 13.8754 61.9568 14.977 60.7691 18.0152C59.5794 21.0535 57.4665 26.9978 55.1773 29.9479C52.8881 32.8981 51.434 33.7793 50.4226 32.9862C49.4092 32.1931 51.0395 28.6701 52.4034 25.1051C53.7693 21.5381 56.411 15.9463 56.4991 15.1532C56.5872 14.3601 56.5872 13.7873 55.5298 13.6992C54.4723 13.611 52.2712 13.6992 51.1256 13.6551C49.98 13.611 49.7156 14.4482 49.0567 15.7681C48.3958 17.0899 46.1947 24.6185 43.8614 27.5245C41.5281 30.4306 39.5013 30.739 37.9612 30.739C36.421 30.739 36.6393 30.3425 36.7274 29.6815C36.8155 29.0206 44.9169 10.2183 45.7541 8.01722C46.5912 5.81614 46.7234 4.84678 46.3269 4.40616C45.9303 3.96555 44.3902 4.14179 43.0242 4.14179C41.6583 4.14179 40.6029 3.56899 39.8979 4.58241C39.1929 5.59583 30.9594 26.6874 30.5187 27.3483C30.0781 28.0092 29.6816 28.2736 28.8905 27.9211C28.0973 27.5686 25.4116 25.9844 24.971 25.6759C24.5303 25.3675 24.4422 24.8388 25.1472 23.0342C25.8522 21.2297 31.6643 7.49048 32.105 6.52112C32.5456 5.55177 34.6505 4.75665 34.6585 4.23192C34.6585 4.23192 34.9229 0.0921232 32.6337 0.00399984C30.3405 -0.0861263 28.4899 2.02883 27.0379 2.73182C25.5838 3.43681 22.9862 2.81794 19.4192 2.11496C15.8522 1.41197 11.9327 0.264365 7.31024 2.11496C2.68777 3.96555 1.40998 9.46925 2.55558 13.4769C3.70119 17.4845 8.76428 18.8043 11.406 18.5399C14.0477 18.2756 16.7775 16.7354 16.6012 15.5898C16.425 14.4442 14.8408 12.2872 14.0477 12.3753C13.2546 12.4634 12.0669 13.3887 10.4366 12.9922C8.80634 12.5956 6.91369 10.6589 8.80634 8.23753C10.699 5.81614 16.0284 7.04786 17.5686 7.44442C19.1088 7.84097 21.2678 8.19347 22.2371 8.28159C23.2065 8.36971 23.9976 8.76627 23.6892 9.55938C23.3807 10.3525 19.0206 21.404 18.8905 21.7124C18.7583 22.0208 18.1414 22.2852 17.6567 22.153C17.172 22.0208 12.2852 20.0401 7.08793 21.2277C1.89266 22.4174 -1.76246 28.3617 0.879237 33.9095C3.52094 39.4572 10.7871 39.265 14.1779 37.865C17.5686 36.463 19.8137 33.601 20.9153 31.9728C22.0168 30.3445 22.4134 30.1682 22.852 30.3885C23.2926 30.6088 27.831 33.0543 28.3357 33.3066C28.4659 33.3707 28.7382 33.4769 29.0947 33.605C28.9986 36.5752 29.8077 40.9734 34.5544 44.1318C40.1783 47.873 48.5239 49.5974 58.7543 49.9399C69.1348 50.2864 76.9818 49.261 80.5608 46.8456C82.4474 45.5718 82.2832 43.4889 82.0289 42.7278C81.454 41.0134 78.7723 42.4775 73.8214 43.0102C68.7342 43.557 64.266 44.2379 53.2365 43.563C46.0044 43.1204 39.8939 41.5862 36.6133 38.548C35.676 37.6807 35.2433 36.5712 35.0971 35.4416C35.4677 35.5337 35.7781 35.6018 35.9764 35.6299C37.2542 35.8061 38.8824 35.8061 40.3805 35.3655C41.8766 34.9249 43.1985 33.605 43.1985 33.605C43.1985 33.605 43.3747 36.5392 45.4877 37.869C47.6006 39.1989 51.2558 38.2736 52.9301 37.128C54.6025 35.9824 54.7787 35.1472 55.4837 35.1472C56.1887 35.1472 56.0885 36.425 59.9019 38.568C62.3833 39.9619 67.1701 41.1256 71.0835 40.9593C71.0855 40.9573 71.0855 40.9553 71.0875 40.9533C72.3793 40.9473 73.6531 40.8312 74.9249 40.6509C76.1506 40.4767 77.3623 40.1923 78.4979 39.7456C81.0735 38.7302 83.6511 37.0078 84.1518 34.1258C84.4863 32.1991 83.9976 29.982 82.832 28.2876C81.7645 26.7354 80.2123 25.74 78.6441 24.7306C78.4378 24.5984 78.2375 24.4582 78.0353 24.32C77.6888 24.0517 77.3603 23.7613 77.0579 23.4448C76.8837 23.2145 76.7254 22.9782 76.5832 22.7298C76.429 22.3733 76.3008 22.0108 76.2007 21.6403C76.1706 21.41 76.1566 21.1796 76.1566 20.9513C76.1907 20.731 76.2367 20.5167 76.2968 20.3044C76.3829 20.1142 76.4831 19.9319 76.5912 19.7536C76.7735 19.5353 76.9698 19.3311 77.1841 19.1428C77.3964 19.0006 77.6187 18.8724 77.851 18.7563C78.2135 18.6281 78.584 18.5259 78.9666 18.4538C79.5534 18.4038 80.1442 18.4098 80.739 18.4658C81.2598 18.554 81.7725 18.6781 82.2752 18.8524C82.4895 18.9525 82.6958 19.0647 82.8981 19.1869C82.8981 19.1869 82.9001 19.1869 82.9001 19.1889C83.1504 19.259 83.3627 19.4412 83.4689 19.7076C83.537 19.8778 83.5209 20.0661 83.4528 20.2323C83.4288 20.4066 83.3247 20.5808 83.1024 20.699ZM12.9902 31.8826C10.8772 33.3807 7.26618 33.5109 6.38495 31.0455C5.50371 28.58 7.31024 26.2908 10.5247 26.1586C13.7392 26.0264 15.6499 27.0399 15.8522 27.3923C16.3369 28.2275 15.1052 30.3865 12.9902 31.8826Z" fill="#BB9550"/>
</svg>
