<svg width="22" height="20" viewBox="0 0 22 20" fill="none" xmlns="http://www.w3.org/2000/svg">
<path d="M10.8 17.975C10.8833 17.975 10.9793 17.95 11.088 17.9C11.196 17.85 11.275 17.8 11.325 17.75L19.325 9.75C19.5583 9.51667 19.729 9.275 19.837 9.025C19.9457 8.775 20 8.50833 20 8.225C20 7.925 19.9457 7.64167 19.837 7.375C19.729 7.10833 19.5583 6.86667 19.325 6.65L15.325 2.65C15.1083 2.41667 14.875 2.25 14.625 2.15C14.375 2.05 14.1083 2 13.825 2C13.5417 2 13.2667 2.05 13 2.15C12.7333 2.25 12.4917 2.41667 12.275 2.65L11.7 3.225L13.55 5.075C13.7833 5.29167 13.954 5.53733 14.062 5.812C14.1707 6.08733 14.225 6.375 14.225 6.675C14.225 7.275 14.021 7.77933 13.613 8.188C13.2043 8.596 12.6917 8.8 12.075 8.8C11.775 8.8 11.4877 8.754 11.213 8.662C10.9377 8.57067 10.6917 8.41667 10.475 8.2L8.6 6.325L4.25 10.65C4.16666 10.7333 4.10833 10.8207 4.075 10.912C4.04166 11.004 4.025 11.1 4.025 11.2C4.025 11.3833 4.08766 11.5417 4.213 11.675C4.33766 11.8083 4.49166 11.875 4.675 11.875C4.775 11.875 4.875 11.85 4.975 11.8C5.075 11.75 5.15833 11.7 5.225 11.65L8.5 8.35L9.55 9.425L6.275 12.7C6.20833 12.7667 6.15433 12.85 6.113 12.95C6.071 13.05 6.05 13.15 6.05 13.25C6.05 13.4167 6.11666 13.5667 6.25 13.7C6.38333 13.8333 6.53333 13.9 6.7 13.9C6.8 13.9 6.90433 13.875 7.013 13.825C7.121 13.775 7.2 13.725 7.25 13.675L10.65 10.275L11.7 11.325L8.325 14.725C8.25833 14.7917 8.204 14.875 8.162 14.975C8.12066 15.075 8.1 15.175 8.1 15.275C8.1 15.4583 8.16233 15.6127 8.287 15.738C8.41233 15.8627 8.56666 15.925 8.75 15.925C8.85 15.925 8.946 15.9083 9.038 15.875C9.12933 15.8417 9.21667 15.7833 9.3 15.7L12.7 12.325L13.75 13.375L10.35 16.775C10.2667 16.8583 10.2083 16.95 10.175 17.05C10.1417 17.15 10.125 17.2417 10.125 17.325C10.125 17.5083 10.1917 17.6627 10.325 17.788C10.4583 17.9127 10.6167 17.975 10.8 17.975ZM10.775 19.475C10.2083 19.475 9.71667 19.2793 9.3 18.888C8.88333 18.496 8.65833 18.0083 8.625 17.425C8.05833 17.375 7.58767 17.1707 7.213 16.812C6.83767 16.454 6.63333 15.975 6.6 15.375C6 15.3417 5.51666 15.1373 5.15 14.762C4.78333 14.3873 4.59166 13.9167 4.575 13.35C3.975 13.3 3.48333 13.0793 3.1 12.688C2.71666 12.296 2.525 11.8 2.525 11.2C2.525 10.9 2.57933 10.6083 2.688 10.325C2.796 10.0417 2.95833 9.8 3.175 9.6L8.6 4.2L11.525 7.125C11.575 7.19167 11.65 7.24567 11.75 7.287C11.85 7.329 11.9583 7.35 12.075 7.35C12.2417 7.35 12.3917 7.28733 12.525 7.162C12.6583 7.03733 12.725 6.88333 12.725 6.7C12.725 6.58333 12.7043 6.479 12.663 6.387C12.621 6.29567 12.5667 6.21667 12.5 6.15L9 2.65C8.78333 2.41667 8.546 2.25 8.288 2.15C8.02933 2.05 7.75833 2 7.475 2C7.19167 2 6.925 2.05 6.675 2.15C6.425 2.25 6.18333 2.41667 5.95 2.65L2.675 5.95C2.49166 6.13333 2.34166 6.34567 2.225 6.587C2.10833 6.829 2.04166 7.08333 2.025 7.35C1.99166 7.56667 1.996 7.779 2.038 7.987C2.07933 8.19567 2.15 8.39167 2.25 8.575L1.15 9.675C0.916665 9.34167 0.745998 8.975 0.637998 8.575C0.529331 8.175 0.483331 7.76667 0.499998 7.35C0.516665 6.88333 0.620665 6.43733 0.811998 6.012C1.004 5.58733 1.26666 5.20833 1.6 4.875L4.875 1.6C5.24166 1.23333 5.646 0.958333 6.088 0.775C6.52933 0.591667 6.99167 0.5 7.475 0.5C7.95833 0.5 8.421 0.591667 8.863 0.775C9.30433 0.958333 9.70833 1.23333 10.075 1.6L10.65 2.15L11.225 1.6C11.5917 1.23333 11.9917 0.958333 12.425 0.775C12.8583 0.591667 13.325 0.5 13.825 0.5C14.3083 0.5 14.7667 0.591667 15.2 0.775C15.6333 0.958333 16.0333 1.23333 16.4 1.6L20.375 5.575C20.7417 5.925 21.0207 6.33333 21.212 6.8C21.404 7.26667 21.5 7.74167 21.5 8.225C21.5 8.70833 21.404 9.17067 21.212 9.612C21.0207 10.054 20.7417 10.4583 20.375 10.825L12.375 18.8C12.1583 19.0167 11.9127 19.1833 11.638 19.3C11.3627 19.4167 11.075 19.475 10.775 19.475Z" fill="white"/>
</svg>
