<svg width="29" height="23" viewBox="0 0 29 23" fill="none" xmlns="http://www.w3.org/2000/svg">
<path d="M28.9975 15.3439C28.9266 13.2338 26.5274 11.9605 25.154 11.7645C23.7806 11.5685 22.2005 11.9891 22.144 12.5737C22.0876 13.1578 22.617 14.4137 23.03 14.4679C23.443 14.5221 24.1637 14.2148 24.9393 14.6102C25.7149 15.0056 26.4285 16.1913 25.1605 17.1476C23.8925 18.1044 21.3475 16.8413 20.6163 16.4565C20.5474 16.4202 20.4745 16.3835 20.4006 16.3462C19.1291 15.6265 19.2819 14.7985 19.4862 14.2981C20.453 11.9808 23.5474 5.00494 23.9175 4.06072C24.3549 2.94518 24.4239 2.45444 24.2166 2.23133C24.0094 2.00822 23.2038 2.09727 22.4901 2.09727C21.7765 2.09727 21.2241 1.80737 20.8556 2.32038C20.4875 2.83338 16.1825 13.5189 15.9523 13.8533C15.7221 14.1877 15.5148 14.3218 15.1008 14.1432C14.6863 13.9646 13.2824 13.1617 13.0522 13.0054C12.822 12.8491 12.776 12.5814 13.1441 11.6667C13.5122 10.752 16.5511 3.79212 16.7813 3.30138C17.0116 2.81064 18.1123 2.40798 18.1163 2.14131C18.1163 2.14131 18.2546 0.0442863 17.0575 -0.000238566C15.8604 -0.0447634 14.8935 1.02577 14.1339 1.38294C13.3743 1.73962 12.0159 1.42601 10.1516 1.06981C8.28679 0.713611 6.23819 0.132368 3.82152 1.06981C1.40435 2.00725 0.737136 4.79586 1.33543 6.82562C1.93373 8.85537 4.58113 9.5247 5.96251 9.39112C7.34389 9.25706 8.77072 8.47643 8.67883 7.89664C8.58693 7.31684 7.75791 6.22356 7.34389 6.26809C6.92938 6.31261 6.3081 6.78109 5.4561 6.58025C4.6046 6.3794 3.61476 5.39792 4.6046 4.17106C5.59444 2.94421 8.37968 3.56901 9.18523 3.76937C9.99079 3.97022 11.119 4.1488 11.6254 4.19333C12.1318 4.23785 12.5463 4.4387 12.385 4.84039C12.2237 5.24208 9.94484 10.8411 9.87592 10.9974C9.807 11.1537 9.48438 11.2873 9.23118 11.2205C8.97797 11.1537 6.42297 10.15 3.70665 10.752C0.990339 11.3541 -0.920421 14.3658 0.46096 17.1767C1.84234 19.9876 5.64039 19.8903 7.41281 19.1803C9.18523 18.4703 10.3594 17.0204 10.9347 16.1952C11.51 15.37 11.7173 15.2805 11.9475 15.3923C12.1777 15.5036 14.3876 16.5301 14.5719 16.7532C14.7562 16.9763 14.4571 17.6006 14.3417 17.9133C14.2268 18.2254 13.0527 20.7464 13.0068 20.9695C12.9608 21.1926 13.191 21.5943 13.7664 22.0401C14.3417 22.4863 15.1243 22.9993 15.3545 22.9993C15.5847 22.9993 16.0222 22.8652 16.2524 22.2186C16.4322 21.7134 17.2018 19.8337 17.5739 18.9175C17.8211 18.3571 18.9353 18.8193 19.2045 18.9407C20.866 19.7127 22.6624 20.6656 25.1405 20.3399C27.7205 20.0011 29.0679 17.454 28.9975 15.3439ZM6.79104 16.1516C5.68633 16.91 3.79855 16.9768 3.33809 15.7277C2.87763 14.4786 3.82152 13.3185 5.50205 13.2517C7.18258 13.1849 8.18091 13.6984 8.28728 13.8765C8.54049 14.3 7.89624 15.3933 6.79104 16.1516Z" fill="#BA954F"/>
</svg>
