<svg version="1.1" id="Ebene_1" xmlns="http://www.w3.org/2000/svg" x="0" y="0" viewBox="0 0 2048 1334" style="enable-background:new 0 0 2048 1334" xml:space="preserve"><style>.st0{fill:#8289d3}.st1{fill:#ff89d3}.st2{fill:#fff}</style><path class="st0" d="M562.41 164.32c10.02 8.99 18.05 19.95 24.1 32.92 6.04 12.96 9.07 26.87 9.07 41.73 0 13.83-2.68 26.78-8.03 38.87-5.36 12.1-12.53 22.73-21.51 31.88-8.99 9.16-19.62 16.33-31.88 21.51-12.27 5.18-25.32 7.78-39.14 7.78h-132.7V0h122.33c13.82 0 26.86 2.68 39.14 8.04 12.26 5.36 22.89 12.53 31.88 21.51 8.98 8.99 16.15 19.62 21.51 31.88 5.35 12.27 8.04 25.32 8.04 39.14 0 12.1-2.07 23.5-6.22 34.21s-9.68 20.56-16.59 29.54zm-124.4 200.6h-16.59l-2.07-1.04v-9.85l18.66 10.89zM424.53 138.4h60.13c10.71 0 19.78-3.71 27.22-11.14 7.43-7.43 11.14-16.33 11.14-26.7 0-10.71-3.72-19.78-11.14-27.22-7.43-7.43-16.51-11.14-27.22-11.14h-60.13v76.2zm70.49 138.4c10.71 0 19.78-3.71 27.22-11.14 7.42-7.43 11.14-16.33 11.14-26.7 0-10.71-3.72-19.78-11.14-27.22-7.44-7.43-16.51-11.14-27.22-11.14h-70.5v76.2h70.5zm-24.36 88.12h-16.59l-26.96-15.55h16.59l26.96 15.55zM434.89 89.16v-9.33l46.65 26.96v9.33l-46.65-26.96zm0 19.18v-9.85l46.65 26.95v2.59h-11.92l-34.73-19.69zm0 18.66v-9.33l18.14 10.37h-16.07l-2.07-1.04zm0 94.34v-9.33l46.65 26.96v9.33l-46.65-26.96zm0 19.18v-9.33l46.65 26.96v8.29h-1.55l-45.1-25.92zm0 18.66v-9.33l28.51 16.59h-16.07l-12.44-7.26zm47.69-171.06h-1.04v9.33l-42.5-24.88h16.59l26.95 15.55zm10.37 138.4h-11.4v3.11l-32.14-18.66H466l26.95 15.55zm10.37 138.4h-16.59l-26.95-15.55h16.59l26.95 15.55zm3.62-281.46c1.38 2.07 2.24 3.63 2.59 4.66h-10.89L471.7 72.57h12.96c.69 0 1.38.09 2.07.26.69.18 1.38.26 2.07.26l18.14 10.37zm9.86 138.4c1.38 1.73 2.41 3.29 3.11 4.66h-10.88l-26.95-15.55h12.96c1.73 0 3.11.18 4.15.52l17.61 10.37zm19.17 143.06h-16.59l-26.44-15.55h8.81c2.08 0 4.15-.18 6.22-.52l28 16.07zm31.1-1.03c-2.77.34-5.27.6-7.52.78-2.25.17-4.59.26-7 .26l-32.14-18.14c1.72-.7 3.54-1.3 5.44-1.82 1.9-.52 3.71-1.13 5.44-1.82l35.78 20.74zm22.29-5.7c-1.73.69-3.46 1.21-5.18 1.55-1.73.34-3.46.86-5.18 1.55l-37.84-21.77c1.38-.69 2.76-1.38 4.15-2.07 1.38-.69 2.76-1.55 4.15-2.59l39.9 23.33zm17.11-9.34c-2.77 2.07-5.53 3.63-8.29 4.66l-40.43-23.33c1.04-.69 2.15-1.55 3.37-2.59 1.21-1.04 2.33-1.9 3.37-2.59l41.98 23.85zM570.19 30.07c20.04 6.22 36.8 17.62 50.28 34.21l-43.54-25.4c-1.74-2.41-3.98-5.36-6.74-8.81zm50.27 307.9-3.11 3.11c-1.04 1.04-2.25 1.9-3.63 2.59l-42.5-24.36c2.76-2.76 4.66-4.83 5.7-6.22l43.54 24.88zm1.04-150.32c-.7.35-1.39 1.21-2.07 2.59 2.07 1.73 4.06 3.63 5.96 5.7 1.9 2.07 3.71 4.15 5.44 6.22l-44.06-24.88c-3.11-5.18-6.74-9.85-10.88-14 .34-.34.52-.6.52-.78 0-.17.17-.43.52-.78l44.57 25.93zm8.81-14c-.7 1.39-1.38 2.59-2.07 3.63-.7 1.04-1.38 2.25-2.07 3.63l-45.1-25.92c.69-1.38 1.3-2.67 1.82-3.89a20.45 20.45 0 0 1 1.81-3.37l45.61 25.92zm1.56 151.88c-1.04 1.38-1.99 2.59-2.85 3.63-.87 1.04-1.82 2.07-2.85 3.11l-43.54-25.4c.69-1.04 1.47-2.15 2.33-3.37.86-1.21 1.64-2.33 2.34-3.37l44.57 25.4zm-1.56-246.22c1.04 2.07 2.07 4.15 3.11 6.22s1.9 4.32 2.59 6.74l-46.13-26.95c-.7-2.07-1.47-4.15-2.33-6.22-.87-2.07-1.82-4.15-2.85-6.22l45.61 26.43zm6.74 79.31-3.11 7.78-45.61-26.44c.69-1.38 1.11-2.68 1.3-3.89.17-1.21.6-2.5 1.3-3.89l46.12 26.44zm3.63 153.43c-.7 1.39-1.39 2.59-2.07 3.63-.7 1.04-1.39 2.25-2.07 3.63l-45.1-25.92c.69-1.38 1.38-2.68 2.07-3.89s1.38-2.33 2.07-3.37l45.1 25.92zm-1.04-208.38c.34 1.73.69 3.46 1.04 5.18.34 1.73.52 3.46.52 5.18l-46.65-26.95a48.3 48.3 0 0 1-.77-5.18 58.39 58.39 0 0 0-.78-5.18l46.64 26.95zm1.04 38.36c0 1.73-.18 3.2-.52 4.41-.35 1.21-.7 2.68-1.04 4.41l-46.13-26.95c.34-1.38.6-2.76.78-4.15.17-1.38.43-2.93.77-4.67l46.14 26.95zm0 75.68c1.04 2.07 2.07 4.15 3.11 6.22s1.89 4.14 2.59 6.22l-46.13-26.43c-.7-2.07-1.48-4.15-2.33-6.22-.87-2.07-1.82-4.15-2.85-6.22l45.61 26.43zm-45.1-120.78 46.65 26.96v5.96c0 1.22-.18 2.33-.52 3.37l-46.14-26.95v-9.34zm51.84 200.09-3.11 7.77-45.62-26.43c.69-1.38 1.12-2.68 1.3-3.89.17-1.21.6-2.5 1.3-3.89l46.13 26.44zm2.59-55.47 1.56 10.88-46.65-26.95-1.55-10.88 46.64 26.95zm1.04 38.88c0 1.38-.18 2.77-.52 4.14-.35 1.39-.7 2.77-1.04 4.15l-46.13-26.43c.34-1.73.6-3.19.77-4.41.17-1.21.43-2.67.78-4.41l46.14 26.96zm-45.1-45.1 46.65 26.96v2.59c0 2.77-.18 5.01-.52 6.74l-46.13-26.95v-9.34zM683.7 0h208.9v62.2H745.9v76.2h107.3v62.2H745.9v76.2h146.7V339H683.7V0zm68.42 364.92h-11.4v-6.74l11.4 6.74zm32.66 0h-16.07l-26.95-15.55h16.59l26.43 15.55zM769.75 72.57l33.17 19.18v9.33l-46.65-26.95v-1.55h13.48zm-13.48 11.4 46.65 26.44v9.85l-46.65-26.95v-9.34zm0 18.67 44.06 25.4h-16.59l-27.47-16.07v-9.33zm11.4 25.4h-11.4v-6.74l11.4 6.74zm-11.4 97.45v-9.33l46.65 26.96v9.33l-46.65-26.96zm46.65 36.28v4.66h-8.29l-38.36-22.29v-9.33l46.65 26.96zm-24.88 4.66h-16.07l-5.7-3.11V254l21.77 12.43zm2.07-55.46 26.95 15.55h-4.15v6.74l-38.87-22.29h16.07zm37.85 153.95h-16.59l-26.95-15.55H791l26.96 15.55zm11.4-276.8h-16.07l-26.95-15.55h16.07l26.95 15.55zm-16.07 122.85 26.95 15.55h-16.59l-26.95-15.55h16.59zm37.32 153.95h-16.59l-26.96-15.55h16.59l26.96 15.55zm11.92-276.8h-16.59l-26.95-15.55h16.59l26.95 15.55zm10.37 138.4h-16.59l-26.96-15.55h16.59l26.96 15.55zm10.37 138.4h-16.59l-26.95-15.55h16.59l26.95 15.55zm11.92-276.8H878.6l-26.95-15.55h16.59l26.95 15.55zm10.37 138.4h-16.59l-26.95-15.55h1.55v-8.29l41.99 23.84zm4.66-34.73v9.33l-46.65-26.95v-9.33l46.65 26.95zm0 18.66v9.85l-46.65-26.95v-9.85l46.65 26.95zm5.7 154.47h-16.59l-26.95-15.55h16.59l26.95 15.55zm-5.7-192.31v9.85l-30.58-18.14h16.07l14.51 8.29zm17.63-84.49h-16.59L884.3 72.57h16.59l26.96 15.55zm21.77-43.54v9.33l-46.65-26.95v-1.04H918l31.62 18.66zm0 18.66v9.33l-46.65-26.96v-9.33l46.65 26.96zm0 18.66v6.22h-5.7l-40.95-23.33v-9.33l46.65 26.44zm0 255.55-46.65-26.95v-7.78h3.63l43.02 24.88v9.85zm0 9.33v9.33l-5.18-3.11-41.47-23.85v-9.33l30.58 17.62 16.07 9.34zm-1.04 18.14h-16.07l-29.55-16.59v-9.85l45.62 26.44zm1.04-55.98v9.33l-26.95-15.55h16.59l10.36 6.22zM934.58 25.92h15.03v8.81l-15.03-8.81zM1177.18 168.98c12.44 7.95 22.46 17.97 30.06 30.06 7.94 13.83 11.92 29.21 11.92 46.13 0 13.48-2.94 26.62-8.81 39.4-5.53 11.4-13.83 22.12-24.88 32.14-22.12 18.32-49.76 27.47-82.93 27.47h-20.74c-29.38 0-54.94-9.33-76.71-27.99-9.33-8.29-17.19-17.97-23.58-29.03-6.4-11.05-10.97-22.81-13.74-35.25l60.65-12.96c1.04 5.18 3.02 10.36 5.96 15.55 2.93 5.18 6.65 9.85 11.14 14s9.76 7.44 15.81 9.85c6.04 2.42 12.87 3.63 20.47 3.63h20.74c17.96 0 32.14-4.32 42.5-12.96 7.95-6.91 11.93-14.85 11.93-23.85 0-4.83-.87-9.15-2.59-12.96-1.73-3.8-5.7-7.6-11.92-11.4-6.57-4.49-14.69-8.46-24.36-11.93-9.68-3.45-19.53-6.91-29.55-10.36-12.1-3.8-24.1-7.86-36.02-12.18-11.93-4.32-23.07-9.93-33.44-16.85-12.79-8.98-22.64-19-29.54-30.06-7.95-13.81-11.93-28.85-11.93-45.1 0-14.16 3.02-27.22 9.07-39.14 6.04-11.92 14.77-22.2 26.17-30.84C1033.93 8.12 1061.07 0 1094.24 0h5.18c29.37 0 54.43 8.29 75.16 24.88 20.74 15.9 33.69 36.8 38.88 62.72l-61.17 12.44c-2.42-11.74-8.29-20.99-17.62-27.73-9.33-6.74-21.08-10.11-35.25-10.11h-5.18c-6.22 0-12.62.52-19.18 1.55-6.57 1.04-12.44 2.85-17.62 5.44-5.18 2.59-9.42 5.96-12.7 10.11-3.29 4.15-4.92 9.16-4.92 15.03 0 4.49.86 8.55 2.59 12.18 1.73 3.63 5.52 7.35 11.4 11.15 6.56 4.49 14.59 8.47 24.1 11.92 9.5 3.46 19.26 6.74 29.29 9.85 12.09 3.81 24.18 7.95 36.28 12.44 12.09 4.5 23.33 10.21 33.7 17.11zm-80.35-47.68v3.63a397.28 397.28 0 0 1-20.73-7.52c-6.57-2.59-12.1-5.44-16.59-8.55-4.49-2.76-7.17-5.18-8.03-7.26-.87-2.07-1.3-4.49-1.3-7.26l46.65 26.96zm-44.58-35.25c1.38-2.07 3.63-3.97 6.74-5.7l42.51 24.88c-1.04 1.39-2.25 3.81-3.63 7.26l-45.62-26.44zm63.76 8.81c-2.77 1.04-5.53 2.59-8.29 4.67l-39.4-23.33c4.49-1.38 8.46-2.24 11.93-2.59l35.76 21.25zm-30.06 171.06c.69 2.77 1.21 4.66 1.55 5.7h-8.81l-6.74-4.15 12.44-2.07 1.56.52zm49.24 104.19c-3.81-.35-7.35-.7-10.63-1.04-3.29-.35-6.66-.87-10.11-1.56l-22.81-12.96h16.59l26.96 15.56zm-.52-283.54c1.04 1.04 1.72 1.9 2.07 2.59-4.15.7-7.61 1.39-10.37 2.07l-31.62-18.66h4.67c4.83 0 9.67.52 14.51 1.55l20.74 12.45zm32.66 283.54h-16.06l-28.51-16.59c2.07-.35 4.14-.7 6.22-1.04 2.07-.35 4.15-.7 6.22-1.04l32.13 18.67zm26.43-3.63c-2.07.34-4.07.69-5.96 1.04-1.9.34-4.07.69-6.48 1.04l-34.73-20.22c1.72-.7 3.45-1.21 5.18-1.55 1.72-.35 3.45-.87 5.18-1.56l36.81 21.25zm20.74-7.26c-1.73.69-3.37 1.38-4.93 2.07-1.55.69-3.2 1.38-4.93 2.07l-38.36-22.29c1.73-.69 3.19-1.47 4.41-2.33 1.21-.86 2.67-1.63 4.41-2.33l39.4 22.81zm17.1-8.81-7.78 4.67-40.95-23.33c1.04-1.04 2.16-1.99 3.37-2.85 1.21-.86 2.5-1.82 3.89-2.85l41.47 24.36zm14-10.89-3.11 3.11c-1.39.69-2.59 1.55-3.63 2.59l-42.5-24.88c1.04-.69 2.07-1.55 3.11-2.59l3.11-3.11 43.02 24.88zm-14-288.72c5.87 4.49 11.57 10.03 17.11 16.59l-43.54-25.4a32.87 32.87 0 0 0-3.37-4.67 120.82 120.82 0 0 1-3.89-4.66c6.22 2.07 12.18 4.59 17.88 7.52 5.7 2.93 10.97 6.47 15.81 10.62zm-2.59 71.53-11.92 2.07-9.85-5.18a68.22 68.22 0 0 0-3.63-8.03 29.42 29.42 0 0 0-5.18-7l30.58 18.14zm24.36-5.18-12.44 2.59-34.21-20.22 11.93-2.59 34.72 20.22zm3.63 209.93c-.7 1.04-1.56 2.07-2.59 3.11-1.04 1.04-1.9 2.07-2.59 3.11l-44.06-25.4 4.67-6.22 44.57 25.4zm-40.95-133.22c-.7-1.04-1.38-2.07-2.07-3.11-.7-1.04-1.38-2.07-2.07-3.11l42.51 24.88c1.73 1.73 3.37 3.72 4.93 5.96 1.55 2.25 3.19 4.41 4.92 6.48l1.56 3.11-45.62-25.92c-.7-1.72-1.38-3.19-2.07-4.41-.71-1.19-1.4-2.49-2.09-3.88zm43.02-111.44c1.04 2.07 2.07 4.24 3.11 6.48 1.04 2.25 2.07 4.41 3.11 6.48l-46.65-26.44c-.7-2.07-1.48-4.15-2.34-6.22-.87-2.07-1.81-4.15-2.85-6.22l45.62 25.92zm6.74 230.67c-1.04 2.42-2.42 4.84-4.15 7.26l-45.1-25.92c.69-1.04 1.72-2.93 3.11-5.7 0-.34.34-.86 1.04-1.55l45.1 25.91zm-42.5-227.56c0-1.38-.35-3.11-1.04-5.18l46.65 26.95 1.55 6.22-5.18 1.04-40.43-23.33-1.55-5.7zm48.73 212.52c-.35 1.73-1.22 4.32-2.59 7.77l-45.62-26.43c.34-1.38.69-2.68 1.04-3.89.34-1.21.69-2.5 1.04-3.89l46.13 26.44zm-.52-57.01 3.11 10.88-46.65-26.44a41.38 41.38 0 0 1-1.55-5.96c-.35-1.89-.87-3.71-1.56-5.44l46.65 26.96zm4.14 40.43c-.35 1.38-.52 2.77-.52 4.14 0 1.39-.35 2.77-1.04 4.15l-46.14-26.43c.34-1.73.6-3.28.78-4.67.17-1.38.26-2.76.26-4.15l46.66 26.96zm-46.13-36.29v-4.92c0-1.56-.18-3.19-.52-4.93l46.65 26.96c.34 1.73.52 3.2.52 4.41v5.45l-46.65-26.97zM1273.59 0h222.89v62.2h-80.35V339h-62.2V62.2h-80.34V0zm57.01 73.09v-.52h12.96v7.77l-12.96-7.25zm10.37 15.03h-10.37v-5.7l10.37 5.7zm86.57 276.8h-16.59v-9.33l16.59 9.33zm32.65 0h-16.59l-26.95-15.55h9.85v-3.63l33.69 19.18zm12.96-257.1v9.33L1426.5 90.2v-9.33l46.65 26.95zm0 19.18v9.33l-46.65-26.95v-9.33l46.65 26.95zm0 18.66v9.33l-46.65-26.95v-9.33l46.65 26.95zm0 19.18v9.33l-46.65-26.95v-9.33l46.65 26.95zm0 18.66v9.33l-46.65-26.95v-9.33l46.65 26.95zm0 18.66v9.85l-46.65-26.95v-9.85l46.65 26.95zm0 19.18v9.33l-46.65-26.95v-9.33l46.65 26.95zm0 18.66v9.85l-46.65-26.95v-9.85l46.65 26.95zm0 19.18v9.33l-46.65-26.95v-9.33l46.65 26.95zm0 18.66v9.33l-46.65-26.44v-9.85l46.65 26.96zm0 19.18v9.33l-46.65-26.95v-9.33l46.65 26.95zm0 18.66v9.33l-46.65-26.95v-9.33l46.65 26.95zm0 19.18v9.33l-46.65-26.95v-9.33l46.65 26.95zm0 18.66v9.33l-46.65-26.95v-9.33l46.65 26.95zm0-264.36v9.33l-44.58-25.92h16.59l27.99 16.59zm31.62-1.04h-16.59l-26.95-15.55h16.59l26.95 15.55zm32.66 0h-16.59l-26.96-15.55h12.96V70.5l30.59 17.62zm16.06-28.51v9.85l-46.65-26.96v-9.85l46.65 26.96zm0 19.18v9.33l-46.65-26.95v-9.33l46.65 26.95zm0-37.84v9.33l-41.99-24.36h16.59l25.4 15.03zm-9.33-15.03h9.33v5.7l-9.33-5.7zM0 507.29h208.9v62.2H62.2v83.45h129.59v62.2H62.2V846.3H0V507.29zm99.52 364.92H83.45l-26.44-15.03v-.52h15.55l26.96 15.55zm-32.66 0h-9.85v-5.7l9.85 5.7zm17.63-292.35 34.73 20.22v9.33l-46.65-26.95v-2.59h11.92zm-11.92 11.92 46.65 26.95v9.33l-46.65-26.44v-9.84zm46.65 46.14v4.66h-8.29l-38.36-22.29v-9.33l46.65 26.96zm-24.36 4.66H78.27l-5.7-3.63v-9.33l22.29 12.96zm24.36 108.34v9.85l-46.65-26.95v-8.29h2.07l44.58 25.39zm0 19.18v9.33l-46.65-26.96v-9.33l46.65 26.96zm0 18.66v9.85l-46.65-26.96v-9.85l46.65 26.96zm0 19.18v9.33l-46.65-26.95v-9.33l46.65 26.95zm0 18.66v9.33l-46.65-26.44v-9.85l46.65 26.96zm0 19.18v9.33l-46.65-26.96v-9.33l46.65 26.96zm0 18.66v7.77h-3.11l-43.54-25.4v-9.33l46.65 26.96zm15.03-123.37h-15.04v.52l-27.99-16.07h16.07l26.96 15.55zm9.85-145.66h-16.07l-26.96-15.55h16.07l26.96 15.55zm22.81 145.66h-16.07l-26.95-15.55h16.59l26.43 15.55zm9.85-145.66h-16.07l-26.95-15.55h16.59l26.43 15.55zm23.32 145.66H183.5l-26.96-15.55h16.59l26.95 15.55zm9.85-145.66h-16.59l-26.95-15.55h16.59l26.95 15.55zm22.81 145.66h-16.59l-26.95-15.55h12.96v-2.07l30.58 17.62zm9.85-145.66H226l-26.96-15.55h16.59l26.96 15.55zm6.22 117.15v9.33l-46.65-26.95v-9.33l46.65 26.95zm0 18.66v9.85l-46.65-26.95v-9.33l46.65 26.43zm0-37.32v9.33l-41.99-24.36h16.07l25.92 15.03zm17.1-141.51v9.85l-46.65-26.95v-2.07h13.48l33.17 19.17zm0 19.18v9.33l-46.65-26.96v-9.33l46.65 26.96zm0 18.66v5.18h-7.26l-39.39-22.29v-9.85l46.65 26.96zm-26.43 88.64h9.33v5.18l-9.33-5.18zm26.43-145.14v9.33l-16.59-9.85h16.07l.52.52zM533.9 622.89c0 15.55-2.85 30.24-8.55 44.06-5.7 13.83-14.09 26.27-25.14 37.32-15.9 15.9-34.73 26.27-56.5 31.1a48.26 48.26 0 0 0 2.59 6.22c1.04 2.07 2.07 4.33 3.11 6.74 13.47 23.84 37.14 35.76 71.01 35.76v62.2c-32.14 0-59.61-7.26-82.42-21.77-18.66-12.09-33.52-28.51-44.58-49.24-3.46-6.56-6.22-12.96-8.29-19.18s-3.8-12.26-5.18-18.14h-20.73V846.3h-62.2V507.29h121.81c31.79 0 58.91 11.23 81.38 33.69 11.05 11.07 19.44 23.58 25.14 37.58 5.7 14 8.55 28.77 8.55 44.33zM377.87 872.21h-16.59l-7.26-4.15v-9.33l23.85 13.48zm40.96-196.45c7.26 0 14.16-1.38 20.73-4.15 6.56-2.76 12.18-6.56 16.85-11.4 4.67-4.84 8.38-10.45 11.15-16.85 2.76-6.39 4.14-13.22 4.14-20.47s-1.38-14.16-4.14-20.74c-2.77-6.56-6.48-12.26-11.15-17.11-4.66-4.83-10.29-8.63-16.85-11.4-6.57-2.76-13.47-4.15-20.73-4.15h-59.61v106.26h59.61zm-8.3 196.45h-16.59l-26.96-15.55h2.59v-7.77l40.96 23.32zm-40.95-278.35v-9.85l46.65 26.96v9.85l-46.65-26.96zm0 18.66v-9.33l46.65 26.96v9.33l-46.65-26.96zm0 19.18v-9.85l46.65 26.95v9.85l-46.65-26.95zm0 18.66v-9.33l42.51 24.36h-16.07l-26.44-15.03zm9.85 15.03h-9.85v-5.7l9.85 5.7zm-9.85 98.49v-9.33l4.66 2.59c.69 2.07 1.46 4.07 2.33 5.96.86 1.9 1.64 3.89 2.33 5.96l-9.32-5.18zm15.55 18.14c1.73 2.77 3.28 5.36 4.67 7.78 1.38 2.42 2.93 4.84 4.66 7.25l-24.88-14.51v-9.33l15.55 8.81zm31.1 39.39v7.26l-46.65-26.95v-9.85l40.43 23.33 6.22 6.21zm0 16.59v9.33l-46.65-26.95v-9.33L416.23 838zm0 18.66v9.85l-46.65-26.95v-9.85l46.65 26.95zm6.22-261.25h-6.22v6.22l-37.32-21.77h16.59l26.95 15.55zm25.4-3.63c.69.7 1.38 1.3 2.07 1.81.69.52 1.38 1.13 2.07 1.82h-13.48l-26.95-15.55h7.26c2.07 0 4.15.18 6.22.52 2.07.35 4.15.87 6.22 1.56l16.59 9.84zm61.17 167.43c-1.38.35-2.77.7-4.14 1.04-1.39.35-2.77.7-4.15 1.04.34.7.52 1.21.52 1.55 0 .35.17.87.52 1.56l-40.43-23.33c3.11-1.04 6.39-2.41 9.85-4.15l37.83 22.29zm-10.89 12.44c-14.51-3.11-25.58-9.5-33.17-19.18l33.17 19.18zm30.07-20.21c-1.38.69-2.77 1.38-4.14 2.07-1.39.7-2.94 1.39-4.67 2.07l-39.91-22.81c1.72-.69 3.19-1.46 4.41-2.33 1.21-.86 2.5-1.64 3.89-2.33l40.42 23.33zm16.07-9.85c-1.39.7-2.68 1.56-3.89 2.59-1.21 1.04-2.51 1.9-3.89 2.59l-41.47-24.36c1.04-.69 2.15-1.46 3.37-2.33 1.21-.86 2.33-1.82 3.37-2.85l42.51 24.36zm-12.96 124.92c-8.64-2.42-17.45-5.88-26.43-10.36 1.72 0 3.28.08 4.66.26 1.38.17 2.93.26 4.66.26l17.11 9.84zm25.92-136.32-3.11 3.11c-1.04 1.03-2.07 1.9-3.11 2.59l-43.02-24.88c2.07-1.73 3.97-3.63 5.7-5.7l43.54 24.88zm-44.07-190.76c16.93 5.88 31.62 15.03 44.06 27.47a47.33 47.33 0 0 1 2.85 3.11c.86 1.04 1.64 1.9 2.34 2.59l-42.51-24.36c-1.04-1.73-2.16-3.28-3.37-4.66a68.909 68.909 0 0 1-3.37-4.15zm54.95 178.31a41.94 41.94 0 0 1-2.33 3.11c-.87 1.04-1.82 2.07-2.85 3.11l-44.06-25.4c.69-1.04 1.46-2.07 2.33-3.11.86-1.04 1.63-2.24 2.33-3.63l44.58 25.92zm8.81-13.99c-.7 1.38-1.38 2.59-2.07 3.63-.7 1.04-1.38 2.25-2.07 3.63l-44.58-25.92c.69-1.38 1.3-2.59 1.82-3.63s1.12-2.24 1.82-3.63l45.08 25.92zm-2.07-114.56a48.5 48.5 0 0 1 3.63 6.48c1.04 2.25 2.07 4.59 3.11 7l-46.14-26.44c-1.38-4.15-3.46-8.46-6.22-12.96l45.62 25.92zm2.59 228.08v9.33l-46.65-26.95v-.52c8.29 5.18 19.18 8.64 32.66 10.37l13.99 7.77zm0 19.18v9.33l-46.65-26.95v-9.33l46.65 26.95zm0 18.66v9.33l-46.65-26.96v-9.33l46.65 26.96zm-3.63 17.1c-3.11 0-6.22-.09-9.33-.26-3.11-.18-6.05-.44-8.81-.78l-24.88-14.52v-9.33l43.02 24.89zm10.37-183.49c-.7 1.38-1.3 2.68-1.82 3.89-.52 1.22-1.13 2.51-1.81 3.89l-45.1-26.44a8.146 8.146 0 0 0 1.3-3.37c.17-1.21.6-2.67 1.3-4.41l46.13 26.44zm2.07-74.13c.69 1.73 1.21 3.55 1.55 5.44.34 1.9.69 3.72 1.04 5.44l-46.65-26.95c-.35-1.72-.7-3.54-1.04-5.44-.35-1.9-.87-3.71-1.56-5.44l46.66 26.95zm2.59 58.06c-.69 1.73-1.13 3.2-1.3 4.41-.18 1.21-.44 2.51-.78 3.89l-46.13-26.43c.34-1.38.6-2.76.78-4.15.17-1.38.43-2.76.78-4.15l46.65 26.43zm1.56-36.81c.34 1.73.52 3.37.52 4.93v4.92l-46.65-26.95v-4.93c0-1.55-.18-3.19-.52-4.92l46.65 26.95zm.52 19.18c0 1.73-.09 3.29-.26 4.66a73.18 73.18 0 0 1-.78 4.67l-46.13-26.95c.34-1.73.52-3.28.52-4.67v-4.15l46.65 26.44zM622.02 507.29h62.2V846.3h-62.2V507.29zm85.01 364.92h-16.07l-11.92-6.74v-8.81h1.04l26.95 15.55zm34.21-320.34v9.33l-46.65-26.44v-1.55h14.51l32.14 18.66zm0 19.18v9.33l-46.65-26.95v-9.33l46.65 26.95zm0 18.66v9.33l-46.65-26.96v-9.33l46.65 26.96zm0 19.18v9.33l-46.65-26.96v-9.33l46.65 26.96zm0 18.66v9.33l-46.65-26.95v-9.33l46.65 26.95zm0 19.18v9.33l-46.65-26.95v-9.33l46.65 26.95zm0 18.66v9.33l-46.65-26.96v-9.33l46.65 26.96zm0 18.66v9.85l-46.65-26.96v-9.85l46.65 26.96zm0 19.18v9.33l-46.65-26.95v-9.33l46.65 26.95zm0 18.66v9.85l-46.65-26.95v-9.85l46.65 26.95zm0 19.18v9.33l-46.65-26.96v-9.33l46.65 26.96zm0 18.66v9.33l-46.65-26.44v-9.85l46.65 26.96zm0 19.18v9.33l-46.65-26.95v-9.33l46.65 26.95zm0 18.66v9.33l-46.65-26.96v-9.33l46.65 26.96zm0 19.18v9.33l-46.65-26.96v-9.33l46.65 26.96zm0 18.66v9.33l-46.65-26.95v-9.33l46.65 26.95zm0 19.18v9.33l-46.65-26.95v-9.33l46.65 26.95zm-1.55 17.62h-16.07l-29.03-16.59v-9.33l45.1 25.92zm-14-339h15.55v9.33l-15.55-9.33zM772.34 507.29h208.9v62.2h-146.7v76.2h107.3v62.2h-107.3v76.2h146.7v62.2h-208.9v-339zm68.42 364.92h-11.4v-6.74l11.4 6.74zm32.66 0h-16.07l-26.95-15.55h16.59l26.43 15.55zm-15.04-292.35 33.17 19.18v9.33l-46.65-26.95v-1.55h13.48zm-13.47 11.4 46.65 26.44v9.85l-46.65-26.95v-9.34zm0 18.67 44.06 25.4h-16.59l-27.47-16.07v-9.33zm11.4 25.4h-11.4v-6.74l11.4 6.74zm-11.4 97.45v-9.33l46.65 26.96v9.33l-46.65-26.96zm46.65 36.28v4.66h-8.29l-38.36-22.29v-9.33l46.65 26.96zm-24.88 4.66h-16.07l-5.7-3.11v-9.33l21.77 12.44zm2.07-55.46 26.95 15.55h-4.15v6.74l-38.87-22.29h16.07zm37.84 153.95H890l-26.95-15.55h16.59l26.95 15.55zM918 595.41h-16.07l-26.95-15.55h16.07L918 595.41zm-16.07 122.85 26.95 15.55H912.3l-26.95-15.55h16.58zm37.32 153.95h-16.59l-26.96-15.55h16.59l26.96 15.55zm11.92-276.8h-16.59l-26.95-15.55h16.59l26.95 15.55zm10.37 138.4h-16.59L918 718.26h16.59l26.95 15.55zm10.37 138.4h-16.59l-26.95-15.55h16.59l26.95 15.55zm11.92-276.8h-16.59l-26.95-15.55h16.59l26.95 15.55zm10.37 138.4h-16.59l-26.95-15.55h1.55v-8.29l41.99 23.84zm4.66-34.73v9.33l-46.65-26.95v-9.33l46.65 26.95zm0 18.66v9.85l-46.65-26.95v-9.85l46.65 26.95zm5.7 154.47h-16.59l-26.95-15.55h16.59l26.95 15.55zm-5.7-192.31v9.85l-30.58-18.14h16.07l14.51 8.29zm17.62-84.49H999.9l-26.95-15.55h16.59l26.94 15.55zm21.77-43.54v9.33l-46.65-26.95v-1.04h15.03l31.62 18.66zm0 18.66v9.33L991.6 552.9v-9.33l46.65 26.96zm0 18.66v6.22h-5.7l-40.95-23.33v-9.33l46.65 26.44zm0 255.55-46.65-26.95v-7.78h3.63l43.02 24.88v9.85zm0 9.33v9.33l-5.18-3.11-41.47-23.85v-9.33l30.58 17.62 16.07 9.34zm-1.03 18.14h-16.07l-29.55-16.59v-9.85l45.62 26.44zm1.03-55.98v9.33l-26.95-15.55h16.59l10.36 6.22zm-15.03-283.02h15.03v8.81l-15.03-8.81zM1261.15 507.29h62.2V846.3h-98.49l-93.3-256.07V846.3h-62.2V507.29h97.97l93.83 256.07V507.29zm-110.41 364.92h-16.07l-8.29-4.67v-9.33l24.36 14zm32.65 0h-16.07l-26.95-15.55h1.56v-8.29l41.46 23.84zm-41.46-222.37v-1.04l.52 1.04h-.52zm0 18.66v-9.33l4.66 2.59 4.66 12.44-9.32-5.7zm0 19.18v-9.33l13.47 7.77 4.15 11.92-17.62-10.36zm0 18.66v-9.33l22.29 12.96 4.14 11.92-26.43-15.55zm0 19.18v-9.33l31.1 17.63 4.15 11.92-35.25-20.22zm0 18.66v-9.33l39.91 22.81 4.15 11.92-44.06-25.4zm46.64 36.29v9.85l-46.65-26.95v-9.85l46.65 26.95zm-46.64 1.55v-9.33l46.65 26.96v9.33l-46.65-26.96zm46.64 46.13-46.65-26.95v-9.85l46.65 26.95v9.85zm0 9.33v9.33l-46.65-26.95v-9.33l46.65 26.95zm0 18.66v9.33l-46.65-26.96v-9.33l46.65 26.96zm46.14-294.42 4.66 11.92-46.65-26.44-4.15-12.44 46.14 26.96zm-33.17 9.33-4.15-11.92 46.13 26.44 4.15 11.92-46.13-26.44zm.51-37.84h16.59l7.25 4.66 4.67 11.92-28.51-16.58zm48.73 75.68v9.33l-40.43-23.33-4.15-11.93 44.58 25.93zm-31.62 9.85-4.15-11.92 35.77 20.73v9.33l-31.62-18.14zm8.81 23.84-4.66-11.92 27.47 16.07v9.33l-22.81-13.48zm22.81 22.81v9.33l-14-7.78-4.67-11.92 18.67 10.37zm0 18.66v9.85l-5.18-3.11-4.66-11.92 9.84 5.18zm0 19.18v1.56l-1.04-2.07 1.04.51zm63.76 168.98h-16.59l-20.22-11.4-1.55-4.15h11.4l26.96 15.55zm32.65 0h-16.59l-26.96-15.55h16.59l26.96 15.55zm33.18-320.86v9.33l-46.65-26.96v-.52h15.55l31.1 18.15zm0 18.66v9.33l-46.65-26.44v-9.85l46.65 26.96zm0 19.18v9.33l-46.65-26.95v-9.33l46.65 26.95zm0 18.66v9.33l-46.65-26.96v-9.33l46.65 26.96zm0 19.18v9.33l-46.65-26.96v-9.33l46.65 26.96zm0 18.66v9.33l-46.65-26.95v-9.33l46.65 26.95zm0 19.18v9.33l-46.65-26.95v-9.33l46.65 26.95zm0 18.66v9.33l-46.65-26.96v-9.33l46.65 26.96zm0 18.66v9.85l-46.65-26.96v-9.85l46.65 26.96zm0 19.18v9.33l-46.65-26.95v-9.33l46.65 26.95zm0 18.66v9.85l-46.65-26.95v-9.85l46.65 26.95zm0 19.18v9.33l-46.65-26.96v-9.33l46.65 26.96zm0 18.66v9.33l-46.65-26.44v-9.85l46.65 26.96zm0 19.18v9.33l-46.65-26.95v-9.33l46.65 26.95zm0 18.66v9.33l-46.65-26.96v-9.33l46.65 26.96zm0 19.18v9.33l-46.65-26.96v-9.33l46.65 26.96zm0 18.66v9.33l-46.65-26.95v-9.33l46.65 26.95zm-.52 18.66h-16.07l-30.06-17.11v-9.33l46.13 26.44zm-14-339h14.51v8.81l-14.51-8.81zM1617.25 557.05c15.89 15.9 27.99 33.87 36.28 53.91 8.98 21.08 13.47 43.02 13.47 65.83 0 22.47-4.49 44.58-13.47 66.35-8.29 19.7-20.4 37.5-36.28 53.39-15.9 15.9-33.87 27.99-53.91 36.28-21.08 8.99-43.02 13.48-65.83 13.48h-86.04v-339h86.04c22.81 0 44.75 4.5 65.83 13.48 20.73 8.99 38.7 21.08 53.91 36.28zm-115.08 315.16h-16.07l-17.63-9.85v-5.7h6.74l26.96 15.55zm-32.65 0h-1.04v-.52l1.04.52zm27.99-88.12c14.85 0 28.77-2.85 41.73-8.55 12.96-5.7 24.27-13.39 33.95-23.07 9.67-9.67 17.37-20.99 23.07-33.95 5.7-12.96 8.55-26.86 8.55-41.73 0-14.85-2.85-28.77-8.55-41.73-5.7-12.96-13.4-24.27-23.07-33.95-9.68-9.67-20.99-17.36-33.95-23.06-12.96-5.7-26.87-8.55-41.73-8.55h-23.84v214.6h23.84zm-13.48-196.45v-7.77h3.11l43.54 25.4v9.33l-46.65-26.96zm46.65 36.8v9.33l-46.65-26.95v-9.33l46.65 26.95zm0 18.66v9.33l-46.65-26.96v-9.33l46.65 26.96zm0 19.18v9.33l-46.65-26.96v-9.33l46.65 26.96zm0 18.66v9.33l-46.65-26.95v-9.33l46.65 26.95zm-46.65-8.29 46.65 26.95v9.85l-46.65-26.95v-9.85zm46.65 46.13v9.33l-46.65-26.96v-9.33l46.65 26.96zm-46.65 1.55v-9.85l46.65 26.95v9.85l-46.65-26.95zm0 18.67v-9.33l46.65 26.95v9.33L1484.03 739zm38.36 31.62c-2.07.69-4.07 1.13-5.96 1.3-1.9.18-3.89.61-5.96 1.3l-26.43-15.03v-9.85l38.35 22.28zm-26.96 3.1h-11.4v-6.22l11.4 6.22zm39.4 98.49h-16.07l-26.95-15.55h15.55l27.47 15.55zm11.92-276.8h-16.07v.52l-26.95-15.55c8.98.7 17.45 2.42 25.4 5.18l17.62 9.85zm20.22 276.28c-2.07.34-4.14.52-6.22.52h-9.33l-29.55-17.11c2.07-.35 4.15-.61 6.22-.78 2.07-.18 4.15-.61 6.22-1.3l32.66 18.67zm25.92-3.62a27.05 27.05 0 0 1-6.22 1.3c-2.07.17-4.15.43-6.22.78l-34.73-20.22c1.72-.35 3.54-.78 5.44-1.3 1.89-.52 3.71-1.13 5.44-1.82l36.29 21.26zm21.25-6.74c-1.73.69-3.37 1.3-4.93 1.81-1.55.52-3.2 1.12-4.93 1.82l-37.84-21.77c0-.34.34-.52 1.04-.52 1.38-.69 2.67-1.3 3.89-1.82a216.5 216.5 0 0 1 4.41-1.81l38.36 22.29zm18.66-8.3c-1.73.69-3.2 1.46-4.41 2.33-1.21.86-2.68 1.63-4.41 2.33l-39.91-23.33c1.38-.69 2.76-1.46 4.14-2.33 1.38-.86 2.76-1.63 4.15-2.33l40.44 23.33zm16.07-9.33-7.77 4.66-40.95-23.84c1.04-.69 2.15-1.47 3.37-2.33 1.21-.86 2.5-1.82 3.89-2.85l41.46 24.36zm14.51-10.88c-1.38 1.04-2.59 1.99-3.63 2.85-1.04.86-2.25 1.81-3.63 2.85l-41.99-24.36 6.22-6.22 43.03 24.88zm-40.95-285.1c19.35 8.29 36.62 20.05 51.83 35.25.69.7 1.12 1.22 1.3 1.56.17.35.6.7 1.3 1.04l-40.95-23.84a93.286 93.286 0 0 0-5.44-5.96l-5.96-5.96-2.08-2.09zm53.39 273.69c-.7.7-1.22 1.04-1.56 1.04l-4.66 4.67-43.03-24.88c1.04-1.04 1.99-2.07 2.85-3.11a47.33 47.33 0 0 1 2.85-3.11l43.55 25.39zm10.89-12.44c-.7 1.04-1.56 2.07-2.59 3.11-1.04 1.04-1.9 2.07-2.59 3.11l-44.06-25.4c.69-1.04 1.55-2.07 2.59-3.11 1.04-1.04 1.9-2.24 2.59-3.63l44.06 25.92zm9.85-13.47c-.7 1.04-1.48 2.16-2.33 3.37-.87 1.21-1.65 2.33-2.33 3.37l-44.58-25.92c1.38-2.07 2.76-4.32 4.15-6.74l45.09 25.92zm-4.67-191.79c3.8 5.53 7.08 10.54 9.85 15.03l-45.1-25.92c-1.39-2.76-2.77-5.27-4.15-7.52-1.39-2.24-2.94-4.58-4.67-7l44.07 25.41zm12.96 177.79c-.7 1.04-1.39 2.16-2.07 3.37-.7 1.21-1.39 2.33-2.07 3.37l-45.1-25.92c1.04-1.38 2.24-3.8 3.63-7.26l45.61 26.44zm-41.47-174.68c-.35 0-.52-.34-.52-1.04l45.62 26.44c.69 1.04 1.38 2.59 2.07 4.66l3.11 7.77-46.13-26.43c-.7-2.07-1.39-4.06-2.07-5.96-.7-1.9-1.39-3.71-2.08-5.44zm48.21 159.65c-.35.35-.52.69-.52 1.04 0 .35-.18.87-.52 1.55-.35.7-.7 1.48-1.04 2.33-.35.87-.7 1.65-1.04 2.33l-45.62-25.92c0-.34.17-.69.52-1.04.34-2.07 1.21-4.32 2.59-6.74l45.63 26.45zm5.7-16.07c-.7 1.73-1.22 3.2-1.56 4.41-.35 1.21-.7 2.51-1.04 3.89l-46.13-26.43c.69-1.38 1.12-2.76 1.3-4.15.17-1.38.6-2.76 1.3-4.15l46.13 26.43zm0-93.82 3.11 10.88-46.65-26.96c-.7-1.72-1.13-3.54-1.3-5.44-.18-1.89-.61-3.71-1.3-5.44l46.14 26.96zm3.63 77.23c-.35 1.73-.61 3.2-.78 4.41-.18 1.21-.44 2.68-.78 4.41l-46.13-26.95c.34-1.38.6-2.76.78-4.15.17-1.38.43-2.76.78-4.15l46.13 26.43zm1.04-55.98c.34 1.73.6 3.46.78 5.18.17 1.73.43 3.46.77 5.18l-46.65-26.95c-.35-1.73-.61-3.45-.78-5.18a58.39 58.39 0 0 0-.78-5.18l46.66 26.95zm1.55 38.88c-.35 1.38-.52 2.77-.52 4.15 0 1.38-.18 2.94-.52 4.66l-46.65-26.95c.34-1.73.6-3.19.77-4.41.17-1.21.26-2.68.26-4.41l46.66 26.96zm-46.13-45.62 46.65 26.95v9.33l-46.65-26.95v-9.33zM1948.99 676.28c12.44 7.95 22.46 17.97 30.06 30.06 7.94 13.83 11.92 29.21 11.92 46.13 0 13.48-2.94 26.62-8.81 39.39-5.53 11.4-13.83 22.12-24.88 32.14-22.12 18.32-49.76 27.47-82.93 27.47h-20.74c-29.38 0-54.94-9.33-76.72-27.99-9.33-8.29-17.19-17.97-23.58-29.03-6.4-11.05-10.97-22.81-13.74-35.25l60.65-12.96c1.04 5.18 3.02 10.36 5.96 15.55 2.93 5.18 6.65 9.85 11.14 14s9.76 7.44 15.81 9.85c6.04 2.42 12.87 3.63 20.47 3.63h20.74c17.96 0 32.14-4.32 42.5-12.96 7.95-6.91 11.93-14.85 11.93-23.85 0-4.83-.87-9.15-2.59-12.96-1.73-3.8-5.7-7.6-11.92-11.4-6.57-4.49-14.69-8.46-24.36-11.93-9.68-3.45-19.53-6.91-29.55-10.36-12.1-3.8-24.1-7.86-36.02-12.18-11.92-4.32-23.07-9.93-33.44-16.85-12.79-8.98-22.64-19-29.54-30.06-7.95-13.81-11.92-28.85-11.92-45.1 0-14.16 3.02-27.22 9.07-39.14 6.04-11.92 14.77-22.2 26.17-30.84 21.08-16.24 48.21-24.36 81.38-24.36h5.18c29.37 0 54.43 8.29 75.16 24.88 20.74 15.9 33.69 36.8 38.88 62.72l-61.17 12.44c-2.42-11.74-8.29-20.99-17.62-27.73-9.33-6.74-21.08-10.11-35.25-10.11h-5.18c-6.22 0-12.62.52-19.18 1.55-6.57 1.04-12.44 2.85-17.63 5.44-5.18 2.59-9.42 5.96-12.7 10.11-3.29 4.15-4.92 9.16-4.92 15.03 0 4.49.86 8.55 2.59 12.18 1.73 3.63 5.52 7.35 11.4 11.15 6.56 4.49 14.59 8.47 24.1 11.92 9.5 3.46 19.26 6.74 29.29 9.85 12.09 3.81 24.18 7.95 36.28 12.44 12.11 4.51 23.35 10.22 33.71 17.13zm-80.34-47.69v3.63a397.28 397.28 0 0 1-20.73-7.52c-6.57-2.59-12.1-5.44-16.59-8.55-4.49-2.76-7.18-5.18-8.03-7.26-.87-2.07-1.3-4.49-1.3-7.26l46.65 26.96zm-44.58-35.25c1.38-2.07 3.63-3.97 6.74-5.7l42.51 24.88c-1.04 1.39-2.25 3.81-3.63 7.26l-45.62-26.44zm63.76 8.81c-2.77 1.04-5.53 2.59-8.29 4.67l-39.4-23.33c4.49-1.38 8.46-2.24 11.93-2.59l35.76 21.25zm-30.07 171.06c.69 2.77 1.21 4.66 1.55 5.7h-8.81l-6.74-4.15 12.44-2.07 1.56.52zm49.25 104.19c-3.81-.35-7.35-.7-10.63-1.04-3.29-.35-6.66-.87-10.11-1.56l-22.81-12.96h16.59l26.96 15.56zm-.52-283.54c1.04 1.04 1.72 1.9 2.07 2.59-4.15.7-7.61 1.39-10.37 2.07l-31.62-18.66h4.67c4.83 0 9.67.52 14.51 1.55l20.74 12.45zm32.65 283.54h-16.06l-28.51-16.59c2.07-.35 4.14-.7 6.22-1.04 2.07-.35 4.15-.7 6.22-1.04l32.13 18.67zm26.44-3.63c-2.07.34-4.07.69-5.96 1.04-1.9.34-4.07.69-6.48 1.04l-34.73-20.22c1.72-.7 3.45-1.21 5.18-1.55 1.72-.35 3.45-.87 5.18-1.56l36.81 21.25zm20.74-7.26c-1.73.69-3.37 1.38-4.93 2.07-1.55.69-3.2 1.38-4.93 2.07l-38.36-22.29c1.73-.69 3.19-1.47 4.41-2.33 1.21-.86 2.67-1.63 4.41-2.33l39.4 22.81zm17.1-8.81-7.78 4.67-40.95-23.33c1.04-1.04 2.15-1.99 3.37-2.85 1.21-.86 2.5-1.82 3.89-2.85l41.47 24.36zm14-10.89-3.11 3.11c-1.39.69-2.59 1.55-3.63 2.59l-42.5-24.88c1.04-.69 2.07-1.55 3.11-2.59l3.11-3.11 43.02 24.88zm-14-288.72c5.87 4.49 11.57 10.03 17.11 16.59l-43.54-25.4a32.87 32.87 0 0 0-3.37-4.67 120.82 120.82 0 0 1-3.89-4.66c6.22 2.07 12.18 4.59 17.88 7.52 5.7 2.93 10.97 6.47 15.81 10.62zm-2.59 71.53-11.92 2.07-9.85-5.18a68.22 68.22 0 0 0-3.63-8.03 29.42 29.42 0 0 0-5.18-7l30.58 18.14zm24.36-5.18-12.44 2.59-34.21-20.22 11.93-2.59 34.72 20.22zm3.63 209.93c-.7 1.04-1.56 2.07-2.59 3.11-1.04 1.04-1.9 2.07-2.59 3.11l-44.06-25.4 4.67-6.22 44.57 25.4zm-40.95-133.21c-.7-1.04-1.38-2.07-2.07-3.11-.7-1.04-1.38-2.07-2.07-3.11l42.51 24.88c1.73 1.73 3.37 3.72 4.93 5.96 1.55 2.25 3.19 4.41 4.92 6.48l1.56 3.11-45.62-25.92c-.7-1.72-1.38-3.19-2.07-4.41-.71-1.2-1.4-2.5-2.09-3.88zm43.02-111.45c1.04 2.07 2.07 4.24 3.11 6.48 1.04 2.25 2.07 4.41 3.11 6.48l-46.65-26.44c-.7-2.07-1.48-4.15-2.34-6.22-.87-2.07-1.81-4.15-2.85-6.22l45.62 25.92zm6.74 230.67c-1.04 2.42-2.42 4.84-4.15 7.26l-45.1-25.92c.69-1.04 1.72-2.93 3.11-5.7 0-.34.34-.86 1.04-1.55l45.1 25.91zm-42.5-227.56c0-1.38-.35-3.11-1.04-5.18l46.65 26.95 1.55 6.22-5.18 1.04-40.43-23.33-1.55-5.7zm48.72 212.53c-.35 1.73-1.22 4.32-2.59 7.77l-45.62-26.43c.34-1.38.69-2.68 1.04-3.89.34-1.21.69-2.5 1.04-3.89l46.13 26.44zm-.52-57.02 3.11 10.88-46.65-26.44a41.38 41.38 0 0 1-1.55-5.96c-.35-1.89-.87-3.71-1.56-5.44l46.65 26.96zm4.15 40.43c-.35 1.38-.52 2.77-.52 4.14 0 1.39-.35 2.77-1.04 4.15l-46.14-26.43c.34-1.73.6-3.28.78-4.67.17-1.38.26-2.76.26-4.15l46.66 26.96zm-46.13-36.29v-4.92c0-1.56-.18-3.19-.52-4.93l46.65 26.96c.34 1.73.52 3.2.52 4.41v5.45l-46.65-26.97z"/><path class="st1" d="M1813.76 344.78c25.63-25.63 25.63-67.18 0-92.81-12.94-12.94-29.95-19.31-46.92-19.17.13-16.97-6.23-33.97-19.17-46.92-25.63-25.63-67.18-25.63-92.81 0-10.93 10.93-16.91 24.79-18.52 39.05l-.62 138.99 138.99-.62c14.26-1.61 28.12-7.59 39.05-18.52M24.23 344.78c-25.63-25.63-25.63-67.18 0-92.81 12.94-12.94 29.95-19.31 46.92-19.17-.13-16.97 6.23-33.97 19.17-46.92 25.63-25.63 67.18-25.63 92.81 0 10.93 10.93 16.91 24.79 18.52 39.05l.62 138.99-139-.62c-14.26-1.61-28.11-7.59-39.04-18.52M474.06 1007.11c116.61 171.19 313.06 283.61 535.82 283.61s419.21-112.43 535.82-283.61H474.06z"/><path class="st1" d="M1038.13 1333.3c-215.14 0-416.01-106.32-537.31-284.4l-1.93-2.83h1078.49l-1.93 2.83c-121.32 178.08-322.19 284.4-537.32 284.4zm-532.38-283.62c120.83 175.38 319.58 279.99 532.38 279.99s411.55-104.61 532.38-279.99H505.75z"/><path class="st2" d="M781.94 1090.5h19.08v16.05h-19.08v68.46h-19.61v-68.46h-11.77v-16.05h11.77v-4.99c0-3.68.71-7.19 2.14-10.52 1.43-3.33 3.36-6.21 5.79-8.65 2.43-2.44 5.29-4.37 8.56-5.8 3.27-1.43 6.8-2.14 10.61-2.14 7.01 0 13.07 2.38 18.18 7.13l-13.19 14.44c-1.55-1.31-3.21-1.96-4.99-1.96-2.02 0-3.77.74-5.26 2.23-1.49 1.49-2.23 3.24-2.23 5.26v5zM848.08 1090.5c5.71 0 11.08 1.07 16.14 3.21 5.05 2.14 9.6 5.23 13.64 9.27 4.04 3.92 7.1 8.44 9.18 13.55 2.08 5.11 3.12 10.52 3.12 16.22 0 5.7-1.04 11.11-3.12 16.22-2.08 5.11-5.14 9.69-9.18 13.73-4.04 3.92-8.59 6.95-13.64 9.09-5.05 2.14-10.43 3.21-16.14 3.21-5.7 0-11.11-1.07-16.22-3.21-5.11-2.14-9.69-5.17-13.73-9.09-4.04-4.04-7.1-8.62-9.18-13.73-2.08-5.11-3.12-10.52-3.12-16.22 0-5.71 1.04-11.11 3.12-16.22 2.08-5.11 5.14-9.63 9.18-13.55 4.04-4.04 8.62-7.13 13.73-9.27 5.1-2.13 10.52-3.21 16.22-3.21zm0 64.9c3.09 0 6-.59 8.74-1.78 2.73-1.19 5.11-2.79 7.13-4.81 2.02-2.02 3.62-4.42 4.81-7.22 1.19-2.79 1.78-5.73 1.78-8.83 0-3.09-.6-6-1.78-8.74-1.19-2.73-2.79-5.14-4.81-7.22-2.02-2.08-4.4-3.71-7.13-4.9-2.74-1.19-5.65-1.78-8.74-1.78s-6.03.6-8.83 1.78c-2.79 1.19-5.2 2.83-7.22 4.9a23.878 23.878 0 0 0-4.81 7.22c-1.19 2.74-1.78 5.65-1.78 8.74s.59 6.03 1.78 8.83c1.19 2.79 2.79 5.2 4.81 7.22 2.02 2.02 4.43 3.63 7.22 4.81 2.8 1.19 5.74 1.78 8.83 1.78zM934.19 1091.04c3.56-.71 7.37-.59 11.41.36s7.31 2.85 9.81 5.7l-13.91 13.01c-.83-.83-1.66-1.54-2.5-2.14a9.562 9.562 0 0 0-2.67-1.34c-.95-.3-2.02-.27-3.21.09-2.74.71-5.08 3.6-7.04 8.65s-2.94 13.34-2.94 24.87v34.77h-19.61v-84.51h19.61v6.6c2.97-3.21 6.65-5.23 11.05-6.06zM994.99 1090.5c5.47 0 10.52.98 15.16 2.94 4.64 1.96 8.65 4.69 12.03 8.2 3.39 3.51 6.03 7.64 7.94 12.39 1.9 4.76 2.85 9.93 2.85 15.51v9.8h-59.55c1.31 4.64 3.95 8.47 7.93 11.5 3.98 3.03 8.53 4.55 13.64 4.55 3.45 0 6.66-.71 9.63-2.14 2.97-1.43 5.53-3.45 7.67-6.06l15.16 12.66c-4.04 4.88-8.89 8.62-14.53 11.23-5.65 2.62-11.62 3.92-17.92 3.92-5.7 0-11.11-1.07-16.22-3.21a41.848 41.848 0 0 1-13.55-9.09c-4.04-4.04-7.13-8.62-9.27-13.73-2.14-5.11-3.21-10.52-3.21-16.22 0-5.71 1.07-11.11 3.21-16.22 2.14-5.11 5.23-9.63 9.27-13.55 3.92-4.04 8.44-7.13 13.55-9.27 5.1-2.13 10.51-3.21 16.21-3.21zm0 19.62c-4.52 0-8.62 1.25-12.3 3.75-3.68 2.49-6.42 5.65-8.2 9.45h38.15c-1.19-4.04-3.33-7.25-6.42-9.63-3.09-2.38-6.83-3.57-11.23-3.57zM1096.97 1090.5h20.5l-26.21 84.51h-26.03l-26.03-84.51h20.5l18.54 64.9 18.73-64.9zM1164.19 1090.5c5.46 0 10.52.98 15.15 2.94s8.65 4.69 12.04 8.2c3.39 3.51 6.03 7.64 7.93 12.39 1.9 4.76 2.86 9.93 2.86 15.51v9.8h-59.55c1.31 4.64 3.95 8.47 7.94 11.5 3.98 3.03 8.52 4.55 13.64 4.55 3.45 0 6.66-.71 9.63-2.14 2.97-1.43 5.53-3.45 7.67-6.06l15.15 12.66c-4.04 4.88-8.88 8.62-14.53 11.23-5.65 2.62-11.62 3.92-17.92 3.92-5.71 0-11.11-1.07-16.22-3.21a41.848 41.848 0 0 1-13.55-9.09c-4.04-4.04-7.13-8.62-9.27-13.73-2.14-5.11-3.21-10.52-3.21-16.22 0-5.71 1.07-11.11 3.21-16.22s5.23-9.63 9.27-13.55c3.92-4.04 8.44-7.13 13.55-9.27 5.09-2.13 10.5-3.21 16.21-3.21zm0 19.62c-4.52 0-8.62 1.25-12.3 3.75-3.69 2.49-6.42 5.65-8.21 9.45h38.16c-1.19-4.04-3.33-7.25-6.42-9.63-3.1-2.38-6.84-3.57-11.23-3.57zM1247.98 1091.04c3.56-.71 7.37-.59 11.41.36s7.31 2.85 9.8 5.7l-13.9 13.01c-.83-.83-1.67-1.54-2.5-2.14a9.562 9.562 0 0 0-2.67-1.34c-.95-.3-2.02-.27-3.21.09-2.73.71-5.08 3.6-7.04 8.65-1.96 5.05-2.94 13.34-2.94 24.87v34.77h-19.61v-84.51h19.61v6.6c2.96-3.21 6.65-5.23 11.05-6.06z"/></svg>