<svg version="1.1" id="Ebene_1" xmlns="http://www.w3.org/2000/svg" x="0" y="0" viewBox="0 0 1485 2048" style="enable-background:new 0 0 1485 2048" xml:space="preserve"><style>.st0{fill:#92c01a}</style><path class="st0" d="M390.92 149.71c1.27 0 3.01.17 5.25.48 2.22.33 3.65.48 4.3.48.63 0 .95.33.95.96v-.96h5.73l.95.96h.96c6.36 0 16.23 3.19 29.6 9.55 0-.63.63-.96 1.91-.96h-.96c1.91 0 4.45.96 7.64 2.86 1.27.64 2.22 1.29 2.86 1.91l.95 1.91h.95c.63.64.31.96-.95.96l.95 1.91h-.95c.63 1.29 1.58 2.24 2.86 2.86l1.91 4.77c.63 0 .63-.63 0-1.91.63 0 1.11.33 1.43.96.31.64.48 1.28.48 1.91v-.96c1.27 0 2.22.8 2.86 2.39.63 1.59 1.27 2.38 1.91 2.38-.64-1.27-.96-2.22-.96-2.86 2.54.64 3.49 2.56 2.86 5.73v-.95c.63 0 .95.16.95.48 0 .33.31.48.96.48 0 .64-.33.64-.96 0 1.91 2.55 2.86 5.11 2.86 7.64.63.64 1.91 4.77 3.82 12.41-1.29-1.27-1.6-2.54-.96-3.82-1.91.64-1.91 2.24 0 4.78a73.85 73.85 0 0 0 2.86 11.46c0-.63-.33-2.54-.95-5.73.63 0 1.27 1.59 1.91 4.77.63 3.19 1.27 5.1 1.91 5.73-.64.64-.64.95 0 .95.63 1.29.63 2.55 0 3.82 0 2.55.63 3.82 1.91 3.82v5.73c0 2.55.31 4.77.95 6.68v-3.82c.63 0 .95.81.95 2.39 0 1.6.31 2.39.96 2.39-1.28 1.28-1.28 3.5 0 6.68-.64 0-.96.33-.96.96 0 .64-.33.96-.95.96l1.91 1.91c0 .64-.16.96-.48.96-.33 0-.16.32.48.95-.64.64-.81 2.24-.48 4.77.31 2.56.48 4.46.48 5.73.63.64.79 2.86.48 6.69-.33 3.82-.48 6.06-.48 6.68v.96l-.96-.96V292l-.95-1.91c-1.28.64-1.6 1.91-.95 3.82.63 0 .95-.63.95-1.91 1.27 1.91 2.22 7.64 2.86 17.19 0 .64-.33.96-.95.96v2.86c0 1.28.31 3.03.95 5.25.63 2.24.95 3.98.95 5.25 0 1.28-.33 2.55-.95 3.82.63 0 .63.96 0 2.86v2.86c.63-1.27.95-3.65.95-7.16 0-3.49.31-5.56.96-6.21-.64 1.29-.33 2.24.95 2.86v19.1c-1.28 2.55-1.28 6.37 0 11.46l.95 6.68c-.64 0-.95-.31-.95-.95v4.77c-1.28 1.91-1.28 4.15 0 6.69-.64.64-.95 2.55-.95 5.72v3.82c0 .64.31.96.95.96v3.82c.63 3.19.31 5.11-.95 5.73 0 .64.15.96.48.96.31 0 .48.33.48.96h-.95c-.64.64-.33.95.95.95-.64 58.58-1.28 96.44-1.91 113.63-.64 3.19-1.28 7.8-1.91 13.84-.64 6.06-.96 10.03-.96 11.94-.64 8.92-1.28 14.01-1.91 15.28v-1.91c-1.28 0-1.6.33-.96.96-.64-.63-1.28-.63-1.91 0 0-.63.31-1.27.95-1.91-.64 0-.95.16-.95.48 0 .33-.16.48-.48.48-.33 0-.8-.48-1.43-1.43-.64-.95-1.6-1.43-2.86-1.43.63-.62.63-1.58 0-2.86h-.95c-1.91-6.35-3.5-9.86-4.78-10.5 0 .64-.33.96-.95.96 0-.63-.33-1.27-.95-1.91-.64-.63-.64-1.27 0-1.91-.64 0-.95.33-.95.96 0 .64-.16.96-.48.96-.33 0-.48-.63-.48-1.91-.64.64-1.28.48-1.91-.48-.64-.96-.96-1.75-.96-2.39 0 .64-.33.96-.95.96 0-1.27-.33-1.91-.95-1.91 0 1.91-.33 2.86-.96 2.86 0-1.91.31-4.45.96-7.64v1.91c.63 0 .95-.63.95-1.91v-.95h-.95c.63-3.82.95-10.17.95-19.1v-10.5c.63-17.82.95-27.69.95-29.6v-46.79c0-7 .15-17.82.48-32.47.31-14.63.48-25.45.48-32.46V284.4c0-3.82-.16-9.38-.48-16.71-.33-7.31-.48-12.89-.48-16.71 0-2.54-.33-7.64-.95-15.28-.64-11.46-2.86-21.01-6.68-28.65-8.92-17.81-21.01-29.6-36.28-35.33-9.55-3.18-14.32-5.09-14.32-5.73-4.46-.62-7.97-.62-10.5 0v.96c-3.82 1.29-8.59 4.46-14.32 9.55.63 0 1.1-.15 1.43-.48.31-.31.48-.15.48.48-10.83 10.19-17.19 23.24-19.1 39.15-1.28 1.91-2.86 8.28-4.78 19.1-.64 1.29-1.28 4.15-1.91 8.59 0 1.29-.48 4.63-1.43 10.03-.96 5.42-1.43 9.71-1.43 12.89 0 1.91-.33 5.42-.96 10.5-.64 5.1-.95 8.92-.95 11.46v16.23c0 1.28-.16 2.71-.48 4.3-.33 1.59-.48 3.19-.48 4.77 0 1.59-.33 3.98-.95 7.16V334.05c.63 0 .79 1.91.48 5.73-.33 3.82-.48 6.06-.48 6.68 0 5.73.15 14.32.48 25.78.31 11.46.48 20.05.48 25.78v21.01c.63 24.2 1.27 43.3 1.91 57.29v69.22c0 1.59-.33 2.72-.95 3.34v3.82c0 1.91.15 5.1.48 9.55.31 4.46.48 7.64.48 9.55 0 3.19-.33 6.06-.95 8.59l.95.95c0 1.29-.16 3.35-.48 6.21-.33 2.86-.48 4.93-.48 6.21.63 8.28.95 15.28.95 21.01 0 7.64-.33 14.65-.95 21.01.63 2.56.95 5.11.95 7.64 0 1.28-.16 3.19-.48 5.73-.33 2.55-.48 4.46-.48 5.72v41.06c-.64.64-.8.96-.48.96.31 0 .48.33.48.96-.64 15.28-.95 31.51-.95 48.7 0 13.37.31 26.11.95 38.19v17.18c1.27 17.18 1.91 26.42 1.91 27.69v3.82c.63 1.91.63 3.82 0 5.73l1.91 8.59c1.27 14.65 4.78 25.16 10.51 31.51 6.36 7.64 14.95 13.37 25.78 17.19l16.23 2.86c5.09.64 8.91.64 11.46 0 0-.63-.33-.96-.96-.96h-3.82c1.27-.62 2.86-1.27 4.78-1.91 0-.63-.16-.79-.48-.48-.33.33-.81.48-1.43.48 10.82-6.36 17.5-11.77 20.05-16.23h.96c0-.63.31-1.27.95-1.91 4.45-4.45 8.27-9.86 11.46-16.23 0-1.27.31-2.54.96-3.82.63 0 .63.33 0 .96 1.27-1.91 2.86-6.04 4.77-12.42 0-.63.63-1.58 1.91-2.86 0-.62-.33-1.27-.95-1.91 3.18-12.09 4.77-22.92 4.77-32.46v-5.73c.63-1.91.95-4.44.95-7.64 0-1.27-.16-3.18-.48-5.73-.33-2.54-.48-4.45-.48-5.73v-1.91l.95-4.78V746.53c-.64-6.36-.95-10.17-.95-11.46 0-.63.15-1.43.48-2.39.31-.95.15-1.43-.48-1.43H444.35c-5.73 0-9.88-.62-12.41-1.91-4.46 1.29-8.59.64-12.41-1.91 3.18.64 6.04.64 8.59 0 0-.63-.64-.96-1.91-.96-.64 0-.64-.31 0-.95-3.19.64-5.73 0-7.64-1.91h9.55-.96c1.27 0 3.01-.31 5.25-.95 2.22-.63 3.65-.96 4.29-.96 0-.63-.33-1.27-.95-1.91-1.91 0-4.15.16-6.68.48-2.55.33-4.46.48-5.73.48h-1.91c-.64 0-1.43-.15-2.39-.48-.95-.31-1.43-.79-1.43-1.43.63-.63 1.58-.63 2.86 0 0-.63.63-.63 1.91 0 0-.63-.64-.96-1.91-.96-1.28 0-1.91-.31-1.91-.95-.64 0-.64-.63 0-1.91.63 0 1.27.33 1.91.96h-.95c.63 0 1.27.33 1.91.96.63-1.27.63-1.91 0-1.91.63 0 .63-.31 0-.95-1.28 0-2.24-.96-2.86-2.86.63-2.54 1.27-4.45 1.91-5.73.63 0 1.58-.31 2.86-.96 2.54-.62 4.13-.31 4.78.96l1.91-.96h9.55c3.18 0 8.43-.15 15.76-.48 7.31-.31 12.56-.48 15.75-.48 5.09 0 9.22.33 12.41.95 1.27 16.56 1.91 37.24 1.91 62.07v42.97c0 .64-.33 2.86-.95 6.68v8.12c0 3.51-.16 6.53-.48 9.07-.33 2.55-.81 4.77-1.43 6.69 0 1.91-.33 3.19-.95 3.82v.96c0 3.82-.96 9.24-2.86 16.23-.64 0-1.28 1.29-1.91 3.82-.64 0-.64-.63 0-1.91-.64.64-.95 1.76-.95 3.35s-.33 3.03-.95 4.29l-.96-.95c0 .64-.33 1.76-.95 3.34-.64 1.6-1.6 2.72-2.86 3.34.63 0-.33 2.24-2.86 6.69 0 .64.15.96.48.96.31 0 .48.32.48.95h-.95c-1.91 3.19-2.86 5.1-2.86 5.73-.64.64-1.28.64-1.91 0 0 .64-.16 1.12-.48 1.43-.33.33-.48.8-.48 1.43-1.28.64-2.55 1.76-3.82 3.34-1.28 1.6-2.24 2.39-2.86 2.39l.95.96c-.64 0-1.28.33-1.91.95v.96c-1.91 1.29-2.86 2.24-2.86 2.86-1.28.64-4.15 1.91-8.59 3.82-.64.64-1.6 1.29-2.86 1.91-1.28.64-2.24.95-2.86.95-.64.64-.64 1.6 0 2.86-1.28.64-2.72 1.29-4.29 1.91-1.6.64-2.72 1.28-3.34 1.91-.64 0-3.03.15-7.16.48-4.15.31-7.16.48-9.07.48v-.96c-3.82 1.27-7.01 1.27-9.55 0 1.27.63 3.49 1.58 6.68 2.86-3.82 0-6.06-.64-6.68-1.91 0 .62-.16.95-.48.95-.33 0-.16.15.48.48.63.31 1.27.48 1.91.48-1.91.63-4.46.63-7.64 0 0 .63-.33.96-.95.96h-2.86c-1.28 0-1.91.31-1.91.95-5.73-1.28-8.92-1.91-9.55-1.91v.96c-1.28-.64-2.55-1.29-3.82-1.91 0 1.27.31 1.91.95 1.91-1.28-.64-4.77-2.55-10.5-5.73-.64-.63-1.28-.63-1.91 0-4.46-2.54-7.01-4.14-7.64-4.78v-.95c-1.91-.63-4.15-2.22-6.68-4.77-.64-1.27-1.28-2.23-1.91-2.86h-1.91v-.96c-1.28-1.91-2.24-3.18-2.86-3.82v.96l.95 2.86c-.64-.63-1.6-1.43-2.86-2.39-1.28-.95-2.24-1.43-2.86-1.43-.64 0-.64.33 0 .96-.64 0-.95-.31-.95-.96 0-.62-.33-.62-.95 0 0-.62.31-.95.95-.95 0-.63-.48-.96-1.43-.96s-1.43-.31-1.43-.96l.95.96c-.64 0-2.55-1.58-5.73-4.77 0 1.28.63 3.19 1.91 5.73.63 1.28 1.27 2.24 1.91 2.86-.64-.63-4.46-6.69-11.46-18.15.63 1.29 2.22 5.42 4.78 12.42h1.9c.63 3.19 2.86 7.01 6.68 11.46-1.91-1.27-4.15-3.82-6.68-7.64-.64.64-.64 1.12 0 1.43.63.33.96.81.96 1.43-1.91-.62-2.55-1.91-1.91-3.82-.64-1.27-1.28-2.22-1.91-2.86-.64-1.27-1.43-3.18-2.39-5.73-.95-2.54-1.76-4.77-2.39-6.69-2.55-7.64-4.46-15.59-5.73-23.87-.64-.63-.95-1.75-.95-3.34v-3.35c-1.28-7-2.24-17.18-2.86-30.55-1.28-16.55-1.91-37.24-1.91-62.07V746.55c.63-46.46.96-70.97.96-73.52-.64-5.73-.64-11.13 0-16.23v-42.97c.63-1.27.63-1.91 0-1.91v-25.77l.95-1.91c-.64-1.27-.95-3.18-.95-5.73 0-1.27.15-2.86.48-4.77.31-1.91.48-3.49.48-4.77 0-1.27-.33-2.54-.95-3.82h.95c-.64-3.18-.64-5.09 0-5.73-.64 0-.81-1.27-.48-3.82.31-2.54.48-4.14.48-4.77l-.95-.96c-.64-.63-.81-2.54-.48-5.73.31-3.18.48-5.09.48-5.73v-34.36c.63 0 .63-.63 0-1.91v-11.45c.63-5.73.63-9.86 0-12.42v-22.92c0-.62.31-1.58.95-2.86h-.95c.63-1.27.31-3.82-.96-7.64.63-1.91.79-3.97.48-6.21-.33-2.22-.16-4.3.48-6.21l-.96-.96c.63-.63.96-1.27.96-1.91-.64-7-.96-13.37-.96-19.1 0-3.82.31-7.64.96-11.46v1.91c.63 0 .79-.48.48-1.43-.33-.95-.8-1.43-1.43-1.43l-.95-26.74c.63-1.91.95-6.35.95-13.37-.64-.63-.33-.96.96-.96 0-.62-.33-.95-.96-.95v-18.15c.63 0 .96-.31.96-.95h-.96v-.96c.63-.63.96-1.27.96-1.91h-.96l.96-3.82c-.64-5.09-.96-10.5-.96-16.23 0-12.72 1.27-31.18 3.82-55.38 1.27-12.08 1.91-18.77 1.91-20.05v-.96c0-1.91.48-4.61 1.43-8.11.95-3.49 1.43-6.21 1.43-8.12.63-1.27.95-3.18.95-5.73.63 0 .96-.48.96-1.43s.31-1.43.95-1.43h-.95c1.27-2.54 1.58-4.44.95-5.73l2.86-5.73-.95.96c1.27-3.82 1.91-6.04 1.91-6.68 1.91-5.73 5.73-12.09 11.46-19.1v-1.92c.63-.62 1.27-1.58 1.91-2.86 1.91 0 2.86-.95 2.86-2.86.63-.62 2.22-1.91 4.78-3.82 0 .64-.96 1.59-2.86 2.86 1.27 0 2.54-.63 3.82-1.91 1.27-1.27 2.54-2.22 3.82-2.86-.64 0-1.28.33-1.91.96.63-1.27 6.36-3.82 17.19-7.64l-2.86-.96c1.91-.63 5.09-1.1 9.55-1.43 4.45-.31 7.31-.79 8.59-1.43.63.64 1.58.64 2.86 0h-7.64l-2.86-.95h4.29c2.22 0 3.66-.31 4.3-.96-1.28 0-.33-.31 2.86-.96.63 0 1.75.17 3.34.48 1.58.33 2.7.48 3.34.48h-1.91c-.71-.07-1.35-.39-1.97-1.03zm-77.35 190.02c.63-1.27.63-1.91 0-1.91-.64 1.28-.64 1.91 0 1.91zm.96-30.55v-1.43c0-.31-.33-.48-.95-.48.63 0 .63.33 0 .95-.01.64.3.96.95.96zm0 187.15v2.86c1.27 0 1.27-.95 0-2.86zm.95 29.6c0-1.27-.33-1.91-.95-1.91v.96c0 .64.31.95.95.95zm-.95 76.39.95 1.91v-2.86c0 .63-.33.95-.95.95zm.95 46.79c.63-1.27.31-1.91-.95-1.91.62.64.95 1.28.95 1.91zm0 81.16c0-.63-.33-1.27-.95-1.91 0 .64.31 1.28.95 1.91zm0-198.61v-4.78c0 .64-.16 1.6-.48 2.86-.32 1.29-.16 1.92.48 1.92zm0 49.65c.63-.62.96-1.58.96-2.86 0-1.27-.33-2.22-.96-2.86v5.72zm0 15.28v-1.91 1.91zm0 30.56v1.91c.63-1.28.63-1.91 0-1.91zm0 30.55c0-.62.15-1.43.48-2.38.31-.96.15-1.43-.48-1.43V657.7zm0 119.36v1.91c.63-.63.63-1.27 0-1.91zm1.91-517.54v1.91-1.91zm.96 372.4v-.96c0-.63-.33-.95-.95-.95l.95 1.91zm.95 215.8c0-1.27-.33-1.91-.95-1.91v.95c0 .64.31.96.95.96zm0-220.57v-.96.96zm.96 19.09c0-1.27-.33-1.91-.96-1.91 0 1.28.31 1.91.96 1.91zm-.96 19.1c.63 0 .96-.15.96-.48v-1.43c-.65.64-.96 1.28-.96 1.91zm.96-155.64c0 .64.31.95.95.95v-.95h-.95zm.95 108.85c0-1.27-.33-1.91-.95-1.91 0 1.28.31 1.91.95 1.91zm-.95 11.46c.63.64.63.32 0-.96v.96zm.95 134.16c0 .33.31.48.95.48 0-1.27-.33-1.91-.95-1.91l-.95.96c.62-.01.95.15.95.47zm0-533.29v1.91-1.91zm.96 506.07-.95-1.91c-.01 1.29.31 1.91.95 1.91zm0-509.89c.63-1.27.63-1.91 0-1.91-.64 1.28-.64 1.91 0 1.91zm0 392.44v-1.91c-.64.65-.64 1.29 0 1.91zm0 24.83c-.64 0-.64.33 0 .96v-.96zm.95 115.54V757c0 .64-.33 1.29-.96 1.91.01.65.32.96.96.96zm0 8.59c.63-3.82.31-6.04-.96-6.69.01 3.2.32 5.42.96 6.69zm0-257.81c.63-1.27.63-1.91 0-1.91v.96c-.64.64-.64.95 0 .95zm0 28.65v1.91-1.91zm.96 54.42v-.96c0-1.27-.33-1.91-.95-1.91v.96c-.01 1.29.3 1.91.95 1.91zm0 8.6c0-4.45-.33-7-.95-7.64v1.91c-.01 3.19.3 5.1.95 5.73zm0 16.23c0-1.91-.33-2.86-.95-2.86-.01 1.28.3 2.23.95 2.86zm-.96 25.78c.63-.62.95-1.75.95-3.34 0-1.58-.33-2.7-.95-3.34v6.68zm0 23.87.95-2.86-.95-.96c0 .64.15 1.29.48 1.91.31.64.15 1.29-.48 1.91zm0 84.03v-3.82 3.82zm.96 95.49c0-1.27-.33-1.91-.95-1.91l.95 1.91zm.95 4.77c0-.63-.33-1.58-.95-2.86-.65.64-.33 1.59.95 2.86zm0-636.89v-1.91c0 .64-.16 1.12-.48 1.43-.32.33-.16.48.48.48zm.96 628.3v-1.91c0-1.27-.33-2.22-.96-2.86.63.64.79 1.43.48 2.39-.33.94-.17 1.75.48 2.38zm0 31.51c.63.64 1.1 1.43 1.43 2.38.31.96.48 1.76.48 2.39 0-.63.31-.63.95 0v1.91c.63 0 1.11.64 1.43 1.91.31 1.28.79 1.91 1.43 1.91-.64 0-.95.33-.95.96v.95c.63 0 .95-.31.95-.95.63.64 1.75 1.76 3.34 3.34 1.58 1.59 2.06 3.03 1.43 4.3l.95.95c0-.62.31-.95.95-.95.63 0 1.58.8 2.86 2.38 1.27 1.6 2.54 2.72 3.82 3.35 0-.63-.33-1.58-.96-2.86-.64-1.27-.95-2.22-.95-2.86-2.55-1.91-4.78-5.57-6.68-10.98-1.91-5.4-3.19-8.43-3.82-9.07 0 1.29.48 3.51 1.43 6.69.95 3.19 1.43 5.73 1.43 7.64-1.29-1.91-1.91-3.49-1.91-4.77-.64-.63-1.28-2.23-1.91-4.78-.64-2.54-1.28-4.13-1.91-4.77v1.91c-1.91-7-2.55-11.45-1.91-13.37 0 1.29.31 1.91.95 1.91-.64-1.27-1.12-3.18-1.43-5.73-.33-2.54-.48-4.14-.48-4.78v5.72c-.64 0-1.12-.95-1.43-2.86-.33-1.91-.48-3.17-.48-3.82 0 1.28.15 4.15.48 8.59.31 4.46.79 7.64 1.43 9.55l-.95.96c.63.64 1.27 1.28 1.91 1.91-1.26-.65-1.88-.33-1.88.94zm-.96 3.82.96 2.86c.62-.62.31-1.58-.96-2.86zm.96-108.86v-5.72 5.72zm.95 105.04c.63 0 .95.64.95 1.91l-.95-1.91zm2.87-4.78h-.96l.96 2.86v-2.86zm1.9-8.59c0-.63-.33-1.58-.95-2.86-.64 1.28-.33 2.23.95 2.86zm.96 39.15c1.27 1.29 2.54 3.19 3.82 5.73-1.91-1.27-3.19-3.18-3.82-5.73zm2.87-708.51-.96 1.91c.63 0 .96.33.96.96.63 0 1.1-.63 1.43-1.91.31-1.27.79-2.22 1.43-2.86-.64 0-1.12.17-1.43.48-.33.32-.81.8-1.43 1.42zm-.96 3.82v1.92c1.27-1.28 1.27-1.92 0-1.92zm1.91-5.73c.63 0 .95-.31.95-.95l-.95.95zm1.91 712.33-.95-.96-.95-.96.95.96.95.96zm0-714.24c0 .64.31.96.96.96v-1.91l-.96.95zm.95 714.24c.63.64.95 1.28.95 1.91-.63-.63-.95-1.27-.95-1.91zm6.69 6.68c.63 0 .95.33.95.96l-1.91-.96c0-.63.32-.63.96 0zm4.77-4.77c-.64 0-.8.16-.48.48.31.33.48.8.48 1.43v-1.91zm19.1-748.61c.63 0 1.27-.31 1.91-.96h-1.91v.96zm14.32 765.8h-1.91 1.91zm6.69-770.57h1.91-1.91zm19.09 769.61h1.91-1.91zm14.33-205.29v.96c0-.63.15-.96.48-.96.31 0 .48-.31.48-.96-.65 0-.96.33-.96.96zm5.72 0h1.91c-.64-.63-1.28-1.27-1.91-1.91-.64.64-.64 1.28 0 1.91zm.96 12.41c.63 0 .95-.31.95-.96h-1.91c0 .65.32.96.96.96zm0-7.64h1.91-1.91zm8.59 191.93c0 .64-.64.96-1.91.96 0-.64.63-.96 1.91-.96zm4.78-752.44c1.27-.62 2.22 0 2.86 1.91-.64-.63-1.12-1.1-1.43-1.43-.33-.31-.81-.48-1.43-.48zm2.86 1.92c0-.63.63-.63 1.91 0-.64.64-1.28.64-1.91 0zm.96 2.86v-.96h-.95l.95.96zm.95-.95h1.91c-.64.64-.95.64-.95 0 0-.63-.33-.63-.96 0zm4.78 740.01c0 .64-.64.96-1.91.96l-.95.96c.62-1.28 1.57-1.92 2.86-1.92zm-.96-733.33c.63 0 1.58.33 2.86.95l-2.86-.95zm2.87 731.42-1.91 1.91c0-.62.15-1.1.48-1.43.31-.31.79-.48 1.43-.48zm7.64-713.28c-.64-3.18-1.28-4.77-1.91-4.77 0 .64.15 1.43.48 2.38.31.96.78 1.76 1.43 2.39zm6.68 12.41c-1.28-5.72-3.19-10.82-5.73-15.28.63 3.2 2.54 8.29 5.73 15.28zm-2.87-16.23-.95-.95.95.95zm-.95 349.48v1.91-1.91zm2.87-345.66c0 .64.31 1.59.95 2.86-1.28-.62-1.6-1.57-.95-2.86zm.95 351.39c1.27.64 1.58 1.29.95 1.91-.64.64-.95.64-.95 0v-1.91zm2.86-331.33h.95c0 .64-.33.95-.95.95v.96-1.91zm.96 338.02c0 1.29-.33 1.59-.95.96v-.96h.95zm2.86-319.88-.95-1.91v.95c0 .64.31.96.95.96zm0 319.88.95.96-.95.95c-.64-.63-.64-1.27 0-1.91zm.96-256.86c.63-1.27.31-2.22-.95-2.86v.96c-.01 1.27.31 1.9.95 1.9zm0-59.2v2.86-2.86zm.95 45.83c0-1.27-.33-2.22-.96-2.86.01.64.32 1.59.96 2.86zm2.87 24.83-.96-1.91c0 1.28.32 1.91.96 1.91zm0 2.86c0-1.27-.33-1.91-.96-1.91 0 1.28.32 1.91.96 1.91zm0-58.25v.96c-.64-.63-.64-.96 0-.96zm0 40.11v2.86-2.86zm.95 87.84c0-1.27-.33-1.91-.95-1.91.63 0 .79.33.48.96-.33.64-.17.95.47.95zm0-36.28c.63-.62.95-1.58.95-2.86v-1.91c-.64.64-.95.64-.95 0v4.77zm0 9.55c0-.63.15-1.58.48-2.86.31-1.27.15-1.91-.48-1.91v4.77zm0 1.91c.63-.62.63-.95 0-.95v1.91-.96zm0 1.91v1.91-1.91zm2.87 21.01v4.77c-.65-1.91-.65-3.49 0-4.77zM566.61 180.27h.96c1.91-1.27 3.18-2.86 3.82-4.77.63-.63 2.39-2.54 5.25-5.73 2.86-3.18 5.25-5.4 7.16-6.69.63 0 1.74-.48 3.34-1.43 1.58-.95 2.54-1.43 2.86-1.43.31 0 1.1-.48 2.39-1.43 1.27-.96 2.22-1.75 2.86-2.39 9.55-3.82 21.63-5.73 36.29-5.73H646.82c2.54 0 4.13.33 4.77.96 11.46 1.28 20.05 3.5 25.78 6.68 4.45 2.55 9.22 7.33 14.32 14.32 0 .64.95 2.24 2.86 4.77 1.91 2.55 3.18 4.46 3.82 5.73 1.91 2.55 5.09 10.5 9.55 23.87 0 .64-.33 1.29-.95 1.91h.95c-.64 1.91 0 3.5 1.91 4.77h-.95c1.27 3.19 2.22 8.59 2.86 16.23.63 7.64 1.58 13.05 2.86 16.23 0 8.28.31 13.7.95 16.23 0 1.91-.16 4.3-.48 7.16-.33 2.86-.48 4.63-.48 5.25 0 .64.15.95.48.95.31 0 .48.33.48.96-.64 8.92-.95 20.38-.95 34.37V436.15l.95.96-.95.96v13.36c0 1.91.15 4.77.48 8.59.31 3.82.48 7.01.48 9.55v5.73c-.64 5.73-.95 12.42-.95 20.05v147.03c.63 4.46.95 8.59.95 12.41 0 2.56-.16 6.06-.48 10.51-.33 4.46-.48 7.64-.48 9.55 0 3.82.31 7.64.95 11.46-.64 2.55-.64 3.82 0 3.82v49.64c0 3.19-.16 7.8-.48 13.85-.33 6.06-.48 10.66-.48 13.84v21.01c0 4.46-.16 10.35-.48 17.66-.33 7.32-.8 12.26-1.43 14.8 0 2.55-.64 11.15-1.91 25.78 0 .64-1.28 6.69-3.82 18.15-.64.64-3.51 8.28-8.59 22.91-1.28 1.29-3.51 4.46-6.68 9.55-3.19 5.1-6.06 8.28-8.59 9.55-.64.64-1.76 1.29-3.34 1.91-1.59.64-2.72 1.6-3.34 2.86-.64 0-1.28.17-1.91.48-.64.33-1.28.48-1.91.48-1.28 1.29-5.73 3.19-13.37 5.73l-9.55 1.91c-4.46 1.27-7.01 1.91-7.64 1.91-5.1 1.91-9.55 2.22-13.37.95-1.28.63-2.55.96-3.82.96-3.19 0-7.33-.64-12.41-1.91-5.1-1.29-9.24-1.91-12.41-1.91-1.91-1.28-2.55-2.22-1.91-2.86h-3.82c.63 0 1.27-.15 1.91-.48.63-.31.95-.79.95-1.43.63 0 1.58.33 2.86.96-.64-1.27-2.08-1.91-4.3-1.91h-6.21c.63-.62 1.58-.95 2.86-.95h2.86c-1.28-1.91-3.5-3.49-6.68-4.78v-2.86c-.64.64-1.43.64-2.39 0-.95-.63-1.43-1.27-1.43-1.91 0-.62-.48-.95-1.43-.95s-1.12-.31-.48-.96c-.64 0-.95.16-.95.48 0 .33-.33.17-.95-.48l-1.91-.96c-.64-.62-.95-1.27-.95-1.91.63-.63 1.58-.31 2.86.96 0 .64.31.95.95.95-.64-1.27-3.82-3.49-9.55-6.68-1.91-1.27-4.77-3.82-8.59-7.64h-.95c-.64 0-.95-.31-.95-.96-8.28-10.17-13.06-24.83-14.32-43.92 0-.63-.33-4.3-.95-10.98-.64-6.68-.95-11.61-.95-14.8 0-3.82-.33-10.5-.96-20.05-.64-9.55-.95-16.86-.95-21.96 0-3.18.31-6.04.95-8.59V735.01c0-2.54-.33-4.77-.95-6.68.63-8.91 1.27-25.45 1.91-49.65-.64-3.18-.64-7 0-11.46h-.96V662.44c.63-10.82.96-16.55.96-17.19 0-1.91-.16-4.93-.48-9.07-.33-4.14-.48-7.48-.48-10.03 0-1.27.15-3.49.48-6.69.31-3.17.48-5.73.48-7.64V529.7h.95v-54.42c0-1.27.31-1.91.95-1.91-.64-5.09-.95-9.86-.95-14.32 0-3.18.63-14.32 1.91-33.42v-13.37c-.64-3.18-.96-6.35-.96-9.55 0-1.91.15-5.25.48-10.03.31-4.77.48-8.12.48-10.03 0-4.44-.33-8.59-.96-12.41.63-3.18.96-7.31.96-12.42 0-2.54-.33-7.64-.96-15.28v-29.59c0-10.82.63-24.5 1.91-41.06h-.95c0-3.82.31-7.31.95-10.51-.64-.62-1.28-.95-1.91-.95h.96c0-.63.31-2.86.95-6.69 0-1.27.31-6.35.95-15.28.63-5.73.95-9.55.95-11.46.63-.63.96-1.91.96-3.82v-3.82c0-.63.15-1.43.48-2.39.31-.95.48-2.06.48-3.34 0-.63.31-1.75.95-3.34.63-1.58.96-2.7.96-3.35 1.27-4.44 2.22-7.31 2.86-8.59.63-1.91 1.27-3.18 1.91-3.82.63-1.91 1.91-4.44 3.82-7.64 1.91-3.18 3.18-5.4 3.82-6.69h-.94zm-19.1 628.3c0-.63.31-.95.96-.95v-1.91c0 .64-.33.96-.96.96v-1.91 1.91c-.64.63-.64 1.27 0 1.9zm0 13.36c-.64 1.29-.33 2.55.96 3.82v-3.82c0-1.91-.33-3.18-.96-3.82v3.82zm0-21v3.82l.96-1.91v-4.77 1.91c0 1.29-.33 2.24-.96 2.86v-1.91zm0 3.82h1.91l-1.91-.96c.63 0 .63.33 0 .96zm.96 3.82h-.96l.96.96v-.96zm-.96 3.82c0-.63.31-.96.96-.96v-.96h-.96v1.92zm0 5.73c0-.63.31-.63.96 0 0-1.27-.33-2.22-.96-2.86v2.86zm0 8.59c.63 0 .96.32.96.95l.95.96c0-.63-.33-1.58-.95-2.86 0 .64-.33.95-.96.95zm.96 3.82c.63 0 .95-.31.95-.95h-.95v.95zm12.41 49.65c-.64 0-.95.33-.95.96.63 0 1.1.33 1.43.95.31.64.79 1.29 1.43 1.91l.95-.96c0 .64.48 1.43 1.43 2.39.96.95 1.75 1.76 2.39 2.38l-.96.96c1.27 1.28 2.54 1.59 3.82.95v1.91c.63.64.96.64.96 0 0 .64 1.58 1.59 4.77 2.86 0-.63-.48-1.27-1.43-1.91-.95-.62-1.43-1.27-1.43-1.91-1.28-.63-2.24-2.22-2.86-4.77h-.95c-.64-.63-1.28-1.27-1.91-1.91.63 0 .95-.31.95-.96-1.28 0-2.24-1.27-2.86-3.82 0-.62-.64-1.75-1.91-3.34-1.28-1.58-1.91-3.01-1.91-4.3-.64 0-.96-.31-.96-.96.63-.62.63-1.27 0-1.91-1.28 0-1.59-.95-.95-2.86-1.28-.63-2.24-2.86-2.86-6.68 0-1.91-.33-3.18-.95-3.82-.64-.63-.95-1.27-.95-1.91.63 0 .95-.31.95-.96-.64-1.27-.64-1.91 0-1.91 0-.63-.33-.63-.95 0l-1.91-3.82c.63 0 .95.17.95.48 0 .32.31.48.96.48-.64-1.91-.96-3.49-.96-4.77v-.96c-.64 0-.64.64 0 1.91-1.28 0-1.91-.95-1.91-2.86 0 .64-.33 1.29-.96 1.91 1.27 1.91 1.91 4.15 1.91 6.68 1.27 2.55 1.58 5.1.95 7.64-.64-1.27-.95-2.22-.95-2.86-1.28 0-1.91-3.17-1.91-9.55v-2.86c-.64-.63-.95-2.06-.95-4.3 0-2.22-.33-3.65-.95-4.3-.64 1.29-.33 2.55.95 3.82-.64 0-.8.64-.48 1.91.31 1.29.15 2.24-.48 2.86l-.95.96.95.95c0 .64-.33.96-.95.96l.95.96v-.96V852.47c0-.63.31-.96.95-.96 0 .64-.33 1.29-.95 1.91h.95l.95.95c0 .64.15 1.91.48 3.82.31 1.91.48 3.19.48 3.82 1.91 1.28 2.22 2.55.95 3.82h.95v1.91c-.64 0-.95.32-.95.95 1.27-.63 2.22.33 2.86 2.86-.64 1.29-.64 1.91 0 1.91h.95c.63.64.96 1.29.96 1.91h-.96c0 .64.31 1.28.96 1.91h.95c0 .64.31.96.95.96v.95c.64.04.97.36.97.99zm-11.46-41.06c0 .64-.33.96-.95.96v.95h.95v-1.91zm4.77 4.78v.96h-1.9c0-.64.62-.96 1.9-.96zm1.91 19.09.95 2.86h-.95l-.95-.95c0-1.26.31-1.91.95-1.91zm35.33-660.76v.96c-.64 0-.95.33-.95.95-.64 1.29-1.6 3.51-2.86 6.69-1.28 3.19-2.24 5.42-2.86 6.69v2.86-1.91c0 .64-.33 1.29-.95 1.91v1.91h.95c-1.91 3.19-2.86 5.73-2.86 7.64.63-.63.95-.63.95 0 0 .64-.33 1.59-.95 2.86-.64 1.28-.64 1.91 0 1.91 0 .64-.33 1.29-.95 1.91-.64 5.1-.96 10.5-.96 16.23 0 5.72-.16 12.1-.48 19.1-.33 7.01-.48 12.41-.48 16.23v103.12h.95c-.64 0-.95 1.28-.95 3.82v4.77l.95-.96h.96c0 .64-.64.96-1.91.96l.95 2.86c-.64 0-.95.33-.95.95v20.53c0 .33.31.81.95 1.43-.64 6.37-.95 16.09-.95 29.12 0 13.05-.33 23.08-.95 30.08v15.28c0 12.74-.33 27.69-.95 44.88 0 4.46-.16 11.15-.48 20.05-.33 8.92-.64 17.19-.95 24.83-.33 7.64-.48 14.65-.48 21.01v3.82c0 1.91.15 4.94.48 9.07.31 4.15.48 7.49.48 10.03h-.95c-.64 1.91-.33 3.19.95 3.82-.64 3.19-.95 7.32-.95 12.41v16.23c-.64 7.64-.95 13.7-.95 18.15v12.41c.63 3.82.95 7.97.95 12.42 0 5.72-.16 14.17-.48 25.3-.33 11.15-.48 20.22-.48 27.21 0 .64.15 1.43.48 2.39.31.96.48 1.76.48 2.39 0 .64-.16 1.91-.48 3.82-.33 1.91-.48 3.19-.48 3.82V819.06l.95.96c-.64 0-.95.33-.95.96 1.27 21.01 4.44 37.24 9.55 48.7l.95.95c1.27 3.82 3.18 6.69 5.73 8.59 0 1.29.48 2.55 1.43 3.82.95 1.28 1.74 1.59 2.39.96-.64.64-.33 1.28.95 1.91v.96c.63-.63.96-.79.96-.48 0 .33.31.17.95-.48 0 .64-.33.96-.95.96 10.17 8.28 19.72 12.41 28.65 12.41h.95c0-.63.31-.96.95-.96h1.91c1.27-.62 2.22-.95 2.86-.95.63 0 .95.33.95.95 8.91-2.54 13.68-4.13 14.32-4.77h.95c2.54 0 5.4-1.1 8.59-3.34 3.18-2.22 5.09-3.65 5.73-4.3 0 1.28-.64 2.24-1.91 2.86-1.28.64-1.91 1.28-1.91 1.91l.95-.96h.96c1.27-1.27 2.86-3.17 4.77-5.72 1.91-2.54 3.18-4.45 3.82-5.73.63 0 .79-.15.48-.48-.33-.31-.48-.79-.48-1.43 6.36-7.64 11.13-23.54 14.32-47.74v-22.93c0-8.9.31-16.55.95-22.91v-17.19c.63-.63.96-1.27.96-1.91-.64-1.27-.81-3.35-.48-6.21.31-2.86.15-4.92-.48-6.21v-1.91c-.64-.63-.64-.96 0-.96-.64-1.27-.8-3.18-.48-5.73.31-2.54.48-4.44.48-5.73V716.9l.96.95c.63-.62.79-1.91.48-3.82-.33-1.91-.16-2.86.48-2.86l.95.95v-3.82c0 1.28-.33 1.91-.95 1.91-.64 0-.95-.95-.95-2.86 1.91-.63 2.54-1.27 1.91-1.91v1.43c0 .33-.33.16-.95-.48v-5.73c.63 0 .95.64.95 1.91v-2.86c0 .64-.33.96-.95.96-.64-.63-.81-1.58-.48-2.86.31-1.27.15-2.22-.48-2.86 1.27 0 1.27-.63 0-1.91-.64 2.56-1.29 4.15-1.91 4.78v-18.15.96-17.66c0-7.95.31-14.16.95-18.62-.64 0-.95-.15-.95-.48v-3.34c.63-3.82.63-7.31 0-10.5v-51.56c-.64-.62-.64-.95 0-.95v-23.39c0-10.5.15-20.05.48-28.65.31-8.59.48-16.07.48-22.44-.64-5.09-.95-13.04-.95-23.87v-3.82c0-3.18-.16-6.68-.48-10.5-.33-3.82-.48-7-.48-9.55 0-1.27.31-3.17.95-5.72v-7.64c0-6.35-.33-13.04-.95-20.05 0-12.73.15-30.56.48-53.47.31-22.91.48-36.91.48-42.01v-13.37c-.64-1.27-.95-2.54-.95-3.82 0-3.18.15-7.64.48-13.37.31-5.73.48-9.86.48-12.42 0-5.73-.33-10.5-.95-14.32.63-5.09.31-9.22-.96-12.42v-2.86c-.64-1.27-.95-2.22-.95-2.86.63-.62.95-1.27.95-1.91-.64-1.27-1.28-3.97-1.91-8.12-.64-4.13-.96-7.16-.96-9.07 0-1.27-.33-1.91-.95-1.91 1.27-3.18.95-5.09-.95-5.73-1.28-9.55-6.06-20.36-14.32-32.46-2.55-4.44-4.15-7.31-4.77-8.59l1.91.96c-2.55-1.91-3.82-3.49-3.82-4.78h1.91c-.64 0-.95.33-.95.96.63 0 1.58.64 2.86 1.91v-.95c-4.46-5.73-11.46-8.91-21.01-9.55.63 0 .63 0 0 0h-10.5v.96h-.96c-1.28 0-3.34.64-6.21 1.91-2.86 1.29-4.94 1.91-6.21 1.91l-5.73 3.82c-2.55 1.91-5.1 4.46-7.64 7.64-.64 1.29-1.28 1.91-1.91 1.91-3.21 4.4-5.75 8.53-7.66 12.35zm7.64 717.1c0 .62-.64.95-1.91.95 0-.63.63-.95 1.91-.95zm.96-30.55c-.64.64-1.28.64-1.91 0 .63-.63 1.27-.63 1.91 0zm49.65 6.68.96-.95c-.65 0-.96.32-.96.95zm34.37-195.75c-.64 0-.95-.63-.95-1.91 1.27 0 1.91.33 1.91.95h-.96v.96zm0 13.37-.95 1.91c0-.62.31-1.27.95-1.91zm1.92 9.55c-.64-.63-.81-1.43-.48-2.39.31-.96.15-1.43-.48-1.43 0 1.29.31 2.55.96 3.82zm0 1.91c.63-.63.31-1.27-.95-1.91-.01 1.28.3 1.91.95 1.91zm0 6.68v-1.91c-.65 1.29-.65 1.91 0 1.91zm1.9 19.1.96.95c-.64-.63-.96-1.43-.96-2.38 0-.96-.33-1.75-.95-2.39.63.64.31 1.28-.95 1.91l1.9 1.91zm-.95-34.37v-.96l.95.96c0-.63-.33-1.27-.95-1.91-.64 1.28-.64 1.91 0 1.91zm0-25.78v-2.86 2.86zm3.82 29.6c-.64-.63-.95-1.1-.95-1.43v-1.43h-.95c0 .64.15 1.28.48 1.91.3.63.78.95 1.42.95zm-.96-15.28c1.27 0 1.27-.95 0-2.86v2.86zm0 2.86.95-.95-.95.95zm0 5.73v.96-.96zm.96 2.87-.95-.96c-.01 1.28.31 1.6.95.96zm-.96 35.32c0 .64.31 2.24.95 4.77l-.95-4.77zm.96 12.42v-.96c-.64.65-.64.96 0 .96zm0-6.69v3.82c.63-1.91.63-3.17 0-3.82zm0 7.64v-.95.95zM941.86 327.32c-.64 0-.96.33-.96.96 0 .64.31 1.59.96 2.86v6.68c.62.64.79 1.76.48 3.35-.33 1.59-.48 2.71-.48 3.34v6.68c-.64 7.64-.96 11.78-.96 12.41 0 .64.31.64.96 0-.64 2.55-.96 5.73-.96 9.55v5.72c0 2.56-.33 4.78-.96 6.69l.96 1.91v30.07c0 .95-.33 1.43-.96 1.43v24.82c0 2.55.15 5.89.48 10.03.31 4.15.48 7.16.48 9.07 0 1.28-.33 2.55-.96 3.82v1.91l.96.95c0 .64-.16 1.6-.48 2.86-.33 1.29-.48 2.24-.48 2.86.63 1.29.96 3.19.96 5.73 0 1.91-.16 4.94-.48 9.07-.33 4.15-.48 6.85-.48 8.12V739.77c-.64 42.02-.95 63.98-.95 65.89-.64 15.92-2.24 33.42-4.78 52.52-1.28 8.28-5.42 18.47-12.41 30.56-5.73 10.19-12.1 18.14-19.1 23.87l1.91-1.91 1.91-1.91-1.91.96h-.95l-1.91 1.91c0 .64-.33 1.12-.95 1.43-.64.33-1.29.81-1.91 1.43-1.28-.62-2.24-.62-2.86 0 1.27 0 2.23.33 2.86.96-1.91.64-3.19.96-3.82.96l.95-.96c-.64 0-1.12.17-1.43.48-.32.33-.8.17-1.43-.48l1.91-.96c-.64.64-1.29.64-1.91 0-.64-.62-1.28-.62-1.91 0-.64-.62-.8-.95-.48-.95.31 0 .48-.31.48-.96-.64 0-1.28.33-1.91.96v-.96c-12.1 7.64-22.6 11.46-31.51 11.46h-.95c0-1.29-.64-1.91-1.91-1.91 9.55-1.29 15.59-2.55 18.14-3.82l-2.86.96c-7.01 1.27-11.46 1.58-13.37.95 8.91-1.28 13.68-1.91 14.32-1.91h-12.41c-5.73 0-9.88.31-12.41.96-.64 0-.95-.64-.95-1.91-1.91 0-4.15-.15-6.68-.48-2.55-.31-4.46-.48-5.73-.48h-3.82l1.91-.96c-.64 0-1.76-.15-3.34-.48-1.6-.31-2.39-.79-2.39-1.43h2.86c-1.28-.63-2.55-.96-3.82-.96 0-1.27-.95-1.91-2.86-1.91 0-.63-.64-.96-1.91-.96-.64-.63-1.28-.96-1.91-.96 0 .64-.33.96-.95.96 0-1.27-.48-2.06-1.43-2.38-.95-.31-1.43-.79-1.43-1.43H808.2c-5.73 0-8.92-.96-9.55-2.86l1.91.95.95-.95c2.54.64 4.45 1.28 5.73 1.91 0-.63-1.28-1.58-3.82-2.86-.64 0-.64-.15 0-.48.63-.31.63-.79 0-1.43-.64 0-.96.16-.96.48v1.43h-.95c-.64 0-.95-.31-.95-.96 0-.62.31-.95.95-.95h.95a48.65 48.65 0 0 1-3.82-4.3c-1.28-1.58-2.24-2.7-2.86-3.35-.64-.62-.64-1.27 0-1.91-1.28-1.91-3.19-4.77-5.73-8.59 0-.62-.95-2.22-2.86-4.77-1.91-2.54-2.86-4.44-2.86-5.73-.64-.63-.96-2.22-.96-4.77 0-1.27-.33-2.7-.95-4.3-.64-1.58-.95-2.7-.95-3.34 0-.63-.16-1.43-.48-2.39-.33-.96-.48-1.75-.48-2.39l-3.82-12.41c0-.63.31-.96.96-.96-1.29-1.91-1.91-5.73-1.91-11.45-.64-32.47-1.28-64.61-1.91-96.44v-59.21c0-10.82-.16-27.05-.48-48.7-.33-21.63-.48-37.55-.48-47.74 0-8.27.31-15.9.95-22.92v-15.28c0-3.18-.16-8.12-.48-14.8-.33-6.69-.48-11.94-.48-15.76 0-2.54.31-5.4.95-8.59V313.91c-.64-17.81-.95-29.91-.95-36.29 0-31.18 2.22-55.69 6.68-73.52 0-1.91.63-3.82 1.91-5.72.63-2.54 2.86-7.96 6.68-16.24 1.91-.62 3.18-2.22 3.82-4.77 1.27-.63 3.49-2.86 6.68-6.68.63 0 1.58-.79 2.86-2.39 1.27-1.58 2.54-2.7 3.82-3.34 0-.63.31-.96.96-.96 8.91-5.09 14.95-7.95 18.14-8.59.63 0 1.58-.15 2.86-.48 1.27-.31 2.54-.48 3.82-.48l9.55-2.86c3.18-.63 5.09-.63 5.73 0 1.27 0 2.22-.31 2.86-.96h4.78c5.09 0 9.22.64 12.41 1.91.63 0 .95.33.95.96.63-.63.95-.63.95 0 1.27 0 4.13.48 8.59 1.43 4.45.96 7.64 1.76 9.55 2.39h2.86c0 .64 1.1 1.43 3.34 2.38 2.22.96 3.34 1.76 3.34 2.39 3.82-1.27 5.4-.63 4.78 1.91.62 0 .95-.31.95-.96.63.64 1.58 1.12 2.86 1.43 1.27.33 2.22 1.12 2.86 2.39-.64 0-1.76-.48-3.34-1.43-1.59-.96-3.03-1.43-4.3-1.43 1.27.64 3.01 1.6 5.25 2.86 2.22 1.29 3.97 2.24 5.25 2.86 0 .64-.33.96-.95.96 0 .64 1.27 1.76 3.82 3.34 2.54 1.59 4.14 3.34 4.77 5.25 4.45 3.19 7.95 8.92 10.51 17.19v-.95c.62.64.95 1.28.95 1.91-.64 0-.95-.31-.95-.96 0 .64.31 1.29.95 1.91.63.64 1.27 1.91 1.91 3.82.62 1.91.95 3.51.95 4.77 1.27 2.55 1.91 4.15 1.91 4.78 0 .64.15.8.48.48.31-.31.79-.15 1.43.48-.64 0-.96.48-.96 1.43v2.39c.63 0 .96-.31.96-.96 1.91 7.64 2.54 12.1 1.91 13.37.63.64.96 1.29.96 1.91-.64.64-.81 1.59-.48 2.86.31 1.28.48 2.24.48 2.86v-1.91c.62.64.62 1.6 0 2.86v.96c-.64.64-.64 1.91 0 3.82v1.92c.62 19.74 1.27 32.15 1.91 37.24-.64 2.55-.64 7.32 0 14.32-.64 1.28-.8 3.34-.48 6.21.31 2.86.15 4.94-.48 6.21h.96v7.64c.63 1.91.79 4.15.48 6.68-.3 2.58-.13 4.18.51 4.81zM781.44 864.91c-.64 0-.96-1.27-.96-3.82 1.27.64 1.59 1.9.96 3.82zm0 .95v1.91-1.91zm15.28 35.33c.63 0 1.27.17 1.91.48.63.33.63.48 0 .48-.64-.63-1.29-.96-1.91-.96zm.95-2.87c1.27 0 1.58.33.95.96-.63 0-.95-.32-.95-.96zm99.31-21c.63-2.54 1.58-4.13 2.86-4.77.63-1.91 1.58-4.45 2.86-7.64 1.27-3.18 2.22-5.4 2.86-6.69v-.96c.63 0 .96-.31.96-.95.62-.63 1.27-2.54 1.91-5.73.63-3.18.96-5.73.96-7.64 0-1.27.15-3.35.48-6.21.31-2.86.48-4.92.48-6.21.63.64.63 3.19 0 7.64v.96c0 1.29.31 1.91.96 1.91 0-3.82.31-5.73.95-5.73 0 8.28-.95 18.15-2.86 29.6.62-.63 1.58-2.54 2.86-5.73 1.91-5.09 2.54-9.55 1.91-13.37 1.27-.63 1.58-1.27.95-1.91-1.28-1.27-.95-2.86.96-4.77v-9.55c0-6.36-.33-12.09-.96-17.19.63-1.91.96-4.45.96-7.64V798.05c0-3.18.31-6.04.96-8.59-.64-1.27-.96-3.18-.96-5.73 0-1.27.15-3.65.48-7.16.31-3.49.48-6.21.48-8.11V757c.62-3.82.62-6.04 0-6.68h-.96c-.64 2.55-.64 3.82 0 3.82 0 .64-.16 1.29-.48 1.91-.33.64-.48 1.29-.48 1.91-.64-.63-.95-2.39-.95-5.25v-5.25c-.64 1.28-.8 3.98-.48 8.11.31 4.15.15 6.85-.48 8.12 0-1.91-.16-4.61-.48-8.12-.33-3.49-.48-6.21-.48-8.11v-4.78 8.6c0 4.46-.32 7.64-.95 9.55-.64-2.54-.96-5.73-.96-9.55v-24.82c.63-7.64 1.27-13.68 1.91-18.14v-74.49c.63-19.73.96-34.37.96-43.92 0-12.08-.33-23.23-.96-33.42 0-.62-.16-1.74-.48-3.34-.33-1.58-.16-3.01.48-4.3v-38.19c-.64-1.91-.95-4.13-.95-6.68 0-3.82.15-9.22.48-16.23.31-7 .48-12.09.48-15.28v-10.5c-.64-2.54-.95-4.13-.95-4.77v-25.78c0-7.64.31-13.04.95-16.23v-2.86c0-3.18-.16-6.83-.48-10.98-.33-4.14-.48-7.48-.48-10.03v-5.73c.63-15.28.95-24.18.95-26.74v-8.59c-.64-17.19-.95-31.51-.95-42.97 0-5.09-.33-12.42-.96-21.96-.64-9.55-.95-14.95-.95-16.23v-16.23c-1.29-20.37-3.82-35.64-7.64-45.84-3.19-7.64-8.28-14.63-15.28-21.01-8.28-7-16.23-10.5-23.87-10.5-3.82-.63-9.23 0-16.23 1.91-14.01 4.46-24.83 12.42-32.46 23.87-7.64 10.84-11.79 30.89-12.41 60.16v57.29c.63 15.28.95 32.47.95 51.57v50.61c0 7.64-.16 23.08-.48 46.31-.33 23.24-.48 41.53-.48 54.9v115.54c.63 32.46.95 52.52.95 60.16v74.48c-.64 14.65-.95 24.52-.95 29.6v9.55c.63 13.37 1.91 24.83 3.82 34.38.63 3.82 1.27 6.37 1.91 7.64 1.27 5.1 5.09 12.74 11.46 22.91 1.91 1.29 4.45 3.51 7.64 6.69 3.18 3.19 6.04 5.42 8.59 6.68h2.86c3.18-.62 5.4-.95 6.68-.95-.64.64-1.76.95-3.34.95-1.6 0-2.72.33-3.34.96 3.82 1.91 9.22 2.86 16.23 2.86 3.18 0 7-.31 11.46-.96.63 0 .63-.31 0-.95h2.86c3.18 0 8.27-.96 15.28-2.86l.95.95c7.01-3.22 11.15-7.35 12.43-12.45zm-95.49 20.05h.95c0-.63-.33-.96-.95-.96v.96zm8.6 12.41c2.54.64 3.82 1.29 3.82 1.91-1.91 0-3.2-.62-3.82-1.91zm10.5 1.91-.95-.95.95.95zm44.88-23.87c-1.28-.63-2.86-.63-4.77 0-1.91.64-3.19.64-3.82 0l7.64-1.91c.62.64.95 1.28.95 1.91zm21.01 27.69c0 .64-.33.96-.95.96-.01-.63.3-.96.95-.96zm18.14-50.6c.63-1.91.63-2.86 0-2.86.63.64.63 1.28 0 1.91-.64.63-.64.95 0 .95zm2.86-698.01 1.91.96c-.64 0-.96-.15-.96-.48.01-.32-.32-.48-.95-.48zm1.91 3.82c0-.63-.33-.96-.96-.96l.96.96zm0 613.98v-1.91 1.91zm.96 32.46c-.64-.63-.95-2.86-.95-6.69l.95 6.69zm-.96 0h.95v.96c0 .64-.33.95-.95.95v-1.91zm0 1.91h.95v3.82l-.95-3.82zm.96 30.56-.95 1.91c.62-.01.95-.63.95-1.91zm-.96 2.86v1.91c.63-1.27.63-1.91 0-1.91zm.96-22.91c-.64 0-.64-.31 0-.96v-.96 1.92zm.95-66.85v3.82c-1.28.01-1.28-1.27 0-3.82zm0 10.51c0 .64-.17.96-.48.96-.33 0-.48.33-.48.95v-1.91h.96zm-.95 10.5c.63 0 .96.48.96 1.43 0 .96-.33 1.43-.96 1.43v-2.86zm0 7.64c.63 0 .96.64.96 1.91v1.91-1.91c0-.63.31-.63.95 0v4.77c-.64 0-.95-.63-.95-1.91v-.96c-.64 0-.8.33-.48.96.31.64.15.95-.48.95v-5.72zm0 34.37v1.91-1.91zm.95 20.06v-2.86c-.64.64-.96 1.28-.96 1.91.01.63.32.95.96.95zm-.95 1.91v.96c.62-.63.62-.96 0-.96zm.95-47.75c.63.64.63.96 0 .96-.64 0-.64-.32 0-.96zm0-629.25c1.27 1.28 2.22 2.24 2.86 2.86-1.91-.62-2.86-1.58-2.86-2.86zm.95 607.29v3.82c.63 2.55.31 3.82-.95 3.82v-4.3c0-2.22.32-3.34.95-3.34zm-.95 29.6h.95c-.64 1.28-.8 3.19-.48 5.72.31 2.56.48 4.15.48 4.78 0 1.91-.32 2.86-.95 2.86v-13.36zm.95 17.19v3.82c0-.63-.32-1.27-.95-1.91 0-1.27.32-1.91.95-1.91zm0-92.62c.63-1.27.63-2.22 0-2.86-.63 1.28-.63 2.23 0 2.86zm0 6.68c.63-3.18.63-5.4 0-6.69-.63 2.56-.63 4.78 0 6.69zm0 92.62v1.91c-.63-1.26-.63-1.91 0-1.91zm.96-103.12v-1.92c-.64 1.29-.96 2.24-.96 2.86.63 0 .63-.31 0-.95h.96zm-.96 13.37c.63 0 .96-.31.96-.96 0-.63-.33-.96-.96-.96v1.92zm0 21.96h.96v.95c-.64 0-.96-.31-.96-.95zm0 1.91h.96v3.34c0 1.6-.33 2.39-.96 2.39v-5.73zm.96 6.68c0 .64-.33 1.29-.96 1.91v-1.91h.96zm0 76.39h-.96l.96-.96c.63.01.63.34 0 .96zm.96-188.11c-.64 4.46-.64 7.33 0 8.59v-8.59l.95-1.91c0 .64-.32.96-.95.96v-1.91c0-1.27-.33-2.22-.96-2.86.63.64.79 1.76.48 3.35-.33 1.58-.17 2.37.48 2.37zm0 14.33c0-.63-.33-.96-.96-.96 0 .64.31.96.96.96zm-.96 32.46c0-.63.31-.95.96-.95l-.96.95zm0 148.96c.63 0 1.1-.63 1.43-1.91.31-1.27.15-2.22-.48-2.86.01 1.91-.32 3.5-.95 4.77zm.96-79.25v.95l.95.96c-.64 0-.95-.15-.95-.48 0-.31-.17-.48-.48-.48-.33 0-.17-.31.48-.95zm0-36.29V736c-.65 1.28-.65 2.86 0 4.77zm0 6.69c.63-3.18.63-5.09 0-5.73-.65 2.55-.65 4.46 0 5.73zm0-167.1v1.91-1.91zm.95 145.14c0-.63-.32-.96-.95-.96v1.91l.95.96v-4.78c0-1.91-.16-2.86-.48-2.86-.33 0-.48 1.59-.48 4.77v.96h.96zm-.95 3.81.95-.95v-1.92h-.95v2.87zm0 3.82V736v-2.87zm.95 25.78v3.82c-.64 0-.95-.63-.95-1.91.62-.62.95-1.26.95-1.91zm.96 4.78h-1.91 1.91zm-1.91.95c.63 0 .95.17.95.48v1.43c-.64.01-.95-.62-.95-1.91zm0 32.47c.63 0 .95.33.95.96v1.91c-.64 0-.95-.31-.95-.95v-1.92zm.95-16.24v1.91c-.64.01-.64-.62 0-1.91zm0 11.46v1.91c-.64 0-.64-.62 0-1.91zm0-154.68v-1.91 1.91zm.96 5.73c0-.63-.33-.96-.96-.96v.96h.96zm0 7.64h-.96c.63.64.96.64.96 0zm-.96 13.36v-.96 1.91c.63.64 1.27.64 1.91 0-.64-1.27-.96-2.23-.96-2.86v1.43c.01.34-.32.48-.95.48zm0 13.37h.96c.63-.63.79-1.1.48-1.43-.32-.31-.48-.79-.48-1.43h-.96c.63.64.63 1.6 0 2.86zm.96 9.55v-1.91c0 .64-.33 1.29-.96 1.91h.96zm0 49.65-.96-1.91c.63 0 .79.33.48.96-.33.64-.17.95.48.95zm.95 6.69v-1.91l-.96-.96c-.64.64-.64.96 0 .96.63 0 .63.33 0 .95 0 .64-.33.96-.96.96 0 1.29.31 1.91.96 1.91-.64-.62-.64-1.27 0-1.91h.96zm-1.91 29.6c.63 0 .96.33.96.96h-.96v-.96zm0 2.86c.63 0 .96.33.96.96 0 .64-.33.95-.96.95.63-.62.63-1.27 0-1.91zm2.86-40.1c-.64-1.27-1.28-2.54-1.91-3.82-.64.64-.64 1.43 0 2.39.63.95 1.28 1.43 1.91 1.43zm-1.9 35.33c.63.64.63 1.28 0 1.91-.65 0-.65-.63 0-1.91zm0-99.31c.63-.63.63-1.27 0-1.91v1.91zm0 17.19v-.96.96zm.95 50.61c0-.62-.33-.95-.96-.95.01 1.27.32 1.59.96.95zm0 7.64-.96-.96c.01 1.28.32 1.6.96.96zm.95-104.08c0-1.27-.33-2.23-.95-2.86.62.64.79 1.28.48 1.91-.33.63-.16.95.47.95zm0 12.41c0-1.27-.33-1.91-.95-1.91 0 1.28.32 1.91.95 1.91zm-.95 4.77c.62 0 .95-.48.95-1.43s-.33-1.43-.95-1.43v2.86zm0 20.06c1.27-.63 1.58-1.27.95-1.91-.63.64-.95 1.28-.95 1.91zm0 6.68h.95c0-1.27-.33-1.58-.95-.96v.96zm.95 105.03c0-.63.15-1.1.48-1.43.31-.31.15-.79-.48-1.43-.63 1.28-.63 2.24 0 2.86zm.96-68.75c0-1.27-.33-1.91-.96-1.91-.63.65-.33 1.29.96 1.91zm-.96-69.7c.63 0 .96.33.96.95l-.96-.95zm0 132.72v-1.91 3.82-1.91zm0 10.51v1.91-1.91zm.96-129.86.96-.96c-.64 0-.96-.62-.96-1.91-.64 1.29-.64 2.24 0 2.87zm0 13.37.96-.96c-.64 0-.81-.48-.48-1.43.31-.95.15-1.43-.48-1.43v3.82zm0 84.98v1.91-1.91zm.96 32.46c0-.63-.33-.96-.96-.96v1.91c.63.01.96-.3.96-.95zm0-29.6.95.96v-1.92c0 .65-.33.96-.95.96zm1.9-587.24c1.27.64 1.91 1.28 1.91 1.91-1.28 0-1.91-.62-1.91-1.91zm1.91 3.82c1.27.64 1.91 1.6 1.91 2.86-.64-.62-1.28-1.57-1.91-2.86zm1.92 2.87c1.91 1.29 2.86 3.51 2.86 6.69-.64-.01-1.6-2.23-2.86-6.69zM1056.44 531.66c.62.64 2.54 0 5.72-1.91h3.82c0-.63-.64-.95-1.91-.95l.95-.96-.95-.96c.62-.62 1.1-.79 1.43-.48.31.33.79.8 1.43 1.43v-.96c3.18-.62 5.4-1.27 6.68-1.91v1.91l.96-.95c0-.63-1.29-.96-3.82-.96 0-.63.31-.96.96-.96h-.96c0 .64-.95.96-2.86.96l-.95-.96h.95-.95c-1.91.64-4.78.96-8.59.96l.95-.96c0-.62-.32-.95-.95-.95h1.91c13.37-5.73 24.5-8.59 33.42-8.59h1.91v1.91c7-1.27 10.82-1.58 11.46-.96h8.6c4.44 0 8.59.48 12.41 1.43 3.82.96 6.83 1.76 9.08 2.39 2.22.64 3.65.96 4.29.96 1.27 0 1.91-2.54 1.91-7.64 0-1.91-.17-4.78-.48-8.59-.32-3.82-.48-6.36-.48-7.64 0-4.44.31-7.95.96-10.5.62-3.18.95-6.68.95-10.5v-42.97c-1.28-5.09-1.28-9.22 0-12.42 0 .64-.33.64-.95 0 .62-1.27.95-3.65.95-7.16v-59.69c.63-.63.96-1.27.96-1.91-1.29 0-1.76-.79-1.43-2.39.31-1.58.79-2.7 1.43-3.34l-.96-.96v.96-4.78c.63-5.09.63-8.27 0-9.55V179.3c0-5.72.31-9.22.96-10.5v-1.91c0-3.18 1.27-8.59 3.82-16.23h.95l.96.96c1.91 0 3.49 1.28 4.77 3.82v-2.86c2.54 0 4.45.64 5.73 1.91 1.27 0 2.22.64 2.86 1.91h1.91v.96c.63 0 .96-.31.96-.96.63.64 1.27.64 1.91 0v1.91h2.86v.96l.96-.96c0 1.91-.17 7.16-.48 15.76-.33 8.59-.48 14.8-.48 18.62v.95c-1.28-.62-1.76-1.75-1.43-3.34.31-1.58.15-3.34-.48-5.25v4.78c0 1.28.15 3.34.48 6.21.31 2.86.48 4.94.48 6.21 0 16.56-.33 24.83-.96 24.83v15.28c-.64.64-.64 1.29 0 1.91-.64-3.82-.96-9.55-.96-17.19V209.9c0-5.73-.33-10.82-.95-15.28v103.13c.62 0 .95-.48.95-1.43s-.33-1.43-.95-1.43c0-.63.31-1.58.95-2.86V246.2c.63 5.1.96 16.23.96 33.42v18.13c.63 0 .96-.95.96-2.86v7.64c.62-.62.62-1.91 0-3.82-.64 0-.96 1.28-.96 3.82 0 3.19.31 4.78.96 4.78 0 .64.15 1.59.48 2.86.31 1.28.15 2.24-.48 2.86.62 1.91.62 2.86 0 2.86 0 .64.31 1.59.95 2.86-.64 0-.95-.31-.95-.95 0-.63-.33-.96-.96-.96l.96 1.91c0 1.91-.33 3.19-.96 3.82.63 0 .96-.31.96-.96 0-.62.31-.95.95-.95 0 .64-.64 1.59-1.91 2.86l.96.95c.62 1.91.62 3.19 0 3.82 0-1.27-.33-1.91-.96-1.91-.64 3.82 0 6.37 1.91 7.64V347.39c-.64 0-.95-.63-.95-1.91-.64.64-.64 1.43 0 2.38.62.96.95 1.76.95 2.39-.64 0-.95-.63-.95-1.91v.95c0 1.29.15 3.03.48 5.25.31 2.24.48 3.98.48 5.25 0 1.91-.33 3.51-.95 4.78h.95V368.38c-.64 0-.8-.31-.48-.95.31-.63.15-1.27-.48-1.91-.64 1.91-.64 3.51 0 4.78l.95-.96v3.82l-.95-.96V377.93c.62 0 .62.16 0 .48-.64.33-.64.8 0 1.43.62-.63.95-.63.95 0 0 1.29-.33 1.91-.95 1.91.62 0 .95 2.24.95 6.69-.64 0-.95-.31-.95-.96 0 .64-.33 1.76-.96 3.35-.64 1.59-.64 2.38 0 2.38h.96c.62 0 .79.17.48.48-.33.32-.48.8-.48 1.43-.64.64-.64.95 0 .95.62 3.82.62 5.73 0 5.73v-1.91c-.64 0-.96.33-.96.95v9.55-1.91c.63 0 .96.95.96 2.86v3.82c.62 1.91.62 3.19 0 3.82-.64-.63-.64-1.27 0-1.91v-.95c-.64 0-.96.95-.96 2.86v1.91c.63 0 .79-.15.48-.48-.33-.31-.16-.79.48-1.43v4.3c0 1.59-.33 2.71-.96 3.34l.96.96c.62.64.62 1.28 0 1.91.62 2.55.95 5.42.95 8.59v7.64l-.95 4.77c.62 0 .95.33.95.96v32.47c.63 0 .96.33.96.96v.95h-.96v9.55c-.64 0-.95-.31-.95-.96-.64.64-.81.96-.48.96h1.43c0 .64-.33.95-.95.95.62.64.95 1.29.95 1.91v5.73c-.64 0-.95-.31-.95-.96v1.91c.62-.62.95-.62.95 0v4.3c0 2.24.31 3.67.96 4.3v-.95c.63 1.28.63 1.91 0 1.91l.96 3.82c-1.29.64-1.76 1.91-1.43 3.82.31 1.91.15 3.51-.48 4.77.63.64.63.96 0 .96v14.32c.63 0 .96-.31.96-.96 0 3.19-.33 5.1-.96 5.73.63 0 .96.8.96 2.39s-.33 2.38-.96 2.38c.63.64.96 3.19.96 7.64v22.91c0-.63-.33-.96-.96-.96.63 1.29.96 2.24.96 2.86v173.79c0 40.1-.64 61.44-1.91 63.97v5.73c0 8.92-.64 19.74-1.91 32.46-.64 0-.95-.31-.95-.95v-1.91l.95 3.82v2.86h-.95c0 .64-.17 1.91-.48 3.82-.33 1.91-.16 3.5.48 4.77-.64-.63-.96-1.27-.96-1.91v-1.91c-.64 0-.96.33-.96.96v.95c0-1.27-.33-2.22-.95-2.86 0 1.28-.17 2.71-.48 4.29-.33 1.6-.8 3.03-1.43 4.3 1.27-.62 1.91-1.91 1.91-3.82.62 0 .95-.31.95-.96h.96v.96c-1.29 1.28-1.91 2.55-1.91 3.82.62 1.91.62 3.19 0 3.82 0-.63-.33-.63-.96 0 0-.63.15-1.1.48-1.43.31-.31.48-.79.48-1.43-.64 1.29-1.12 2.86-1.43 4.77-.33 1.91-.81 3.51-1.43 4.78 0-.63.15-1.27.48-1.91.31-.63.48-1.27.48-1.91-.64.64-1.28 2.08-1.91 4.3-.64 2.24-1.59 3.67-2.86 4.3l.96-.96c-1.29 0-1.6.64-.96 1.91-1.91 2.56-4.15 5.11-6.68 7.64.62.64.62 1.28 0 1.91.62-.63 1.1-1.27 1.43-1.91.31-.63.79-.96 1.43-.96-.64.64-.64.96 0 .96.62-.63.95-1.58.95-2.86h.96l.96-1.91c.62 0 1.27-1.27 1.91-3.82.63 0 1.27-.31 1.91-.96v.96c0 3.19-5.42 9.23-16.23 18.14l-.96.96c-.64.64-1.43 1.12-2.38 1.43-.96.33-1.76.8-2.39 1.43h-.96l-15.28 4.77-.96-.96-5.72 2.86h5.72-.95c-.64 0-.96.15-.96.48 0 .31-.33.15-.96-.48 0 .63-.95 1.27-2.86 1.91-1.91 0-4.3.15-7.16.48-2.86.31-4.94.48-6.21.48h-4.77c-.64 0-.95-.33-.95-.95-.64.62-1.76.95-3.35.95s-2.71.31-3.34.96v-.96c-2.55.63-4.15.63-4.77 0h.95c-.64-.64-.95-.8-.95-.48 0 .31-.33.48-.96.48 0-.64-1.91-.64-5.73 0h-.95l-.96-.95h-1.91l-1.91-.96h-2.86c-1.28-.64-2.24-.64-2.86 0-1.28-1.29-2.24-1.91-2.86-1.91-.64 0-1.28.15-1.91.48-.64.31-1.28.48-1.91.48-.64 0-1.6-.33-2.86-.95v-.96c-.64.63-.96 1.27-.96 1.91-.64-1.28-1.28-1.59-1.91-.95l-1.91-1.91.95.96v.96c-4.46-1.27-7.01-2.54-7.64-3.82-.64.64-1.76.48-3.34-.48-1.6-.96-2.72-1.43-3.35-1.43 0-1.27-.64-2.22-1.91-2.86-.64 0-.64.64 0 1.91-.64 0-.95-.15-.95-.48 0-.31-.33-.48-.96-.48 0 .64.31 1.12.96 1.43.62.33 1.58.81 2.86 1.43v.96c.63 0 1.27-.31 1.91-.96 0 .64.63 1.12 1.91 1.43 1.27.33 1.91.81 1.91 1.43 0 .64.31.64.96 0 1.91 1.27 3.49 2.23 4.77 2.86 1.91-.64 2.86-.33 2.86.96-1.91-.64-4.93-1.76-9.07-3.34-4.15-1.58-6.53-2.39-7.16-2.39 0-.63-.33-1.1-.95-1.43-.64-.31-2.24-1.43-4.78-3.34-2.55-1.91-5.42-4.45-8.59-7.64 0 .64.15 1.12.48 1.43.31.32.48.8.48 1.43-.64 0-1.76-.63-3.34-1.91-1.6-1.27-3.67-4.44-6.21-9.55-2.56-5.09-4.94-11.46-7.16-19.1-2.24-7.64-4.15-18.94-5.73-33.9-1.6-14.95-2.39-31.99-2.39-51.09v-8.6c0-2.54-.33-4.77-.95-6.69.62-1.27.62-2.22 0-2.86.62 0 .95-4.13.95-12.41V732.15l.96-.96c-.64-7.64-.96-13.37-.96-17.18V708.28l1.91-40.1v-.96c-.64-2.54-.95-6.04-.95-10.5 0-3.18.15-7.48.48-12.89.31-5.4.48-9.38.48-11.94v-4.77l.96-1.91h-.96c.63-1.27.96-2.54.96-3.82-.64 0-.96-.31-.96-.96l.96-.96v-.95c0-28.01 4.14-47.75 12.42-59.2-.64 0-1.6 1.29-2.86 3.82 0 1.29-.33 1.91-.96 1.91l3.82-7.64.95-.96c-.64.64-.95 1.29-.95 1.91l.95-2.86c1.27 0 1.91-.48 1.91-1.43 0-.96.31-1.75.95-2.39v.96l-.95.96c.62 0 2.86-2.23 6.68-6.69 0 .64-.96 2.24-2.86 4.77-1.91 1.91-2.55 3.19-1.91 3.82 1.91-2.54 3.18-3.49 3.82-2.86-.64-1.91.31-2.86 2.86-2.86l-.95.96c.62 0 1.58-.63 2.86-1.91h-1.92c1.27-1.27 1.91-2.22 1.91-2.86v.96c1.91-.63 3.18-1.58 3.82-2.86 5.73-2.54 8.59-4.13 8.59-4.77.63 0 .96.33.96.95 1.27-.62 2.54-1.27 3.82-1.91-.64 0-.95-.31-.95-.96-5.1 1.29-9.55 3.19-13.37 5.73.62-1.27 2.06-2.38 4.3-3.34 2.22-.96 3.97-1.75 5.25-2.39 4.44 0 8.91-1.27 13.37-3.82h-2.86v-.96c1.91.64 2.86.64 2.86 0h-.95c0-.63.62-.63 1.91 0 .58.01.91-.3.91-.94zm-54.43 190.97c-.64 0-.95-.31-.95-.96l.95.96zm4.78-22.92-.96-4.77c.63 0 .63.64 0 1.91 0 1.28.32 2.23.96 2.86zm-.96 13.37c.63 0 .96-.96.96-2.86h-.96v2.86zm0 14.32v2.87c.63-.63.63-1.59 0-2.87zm0 17.19v1.91c.63-1.27.63-1.91 0-1.91zm.96 89.76v-1.91c0-.62-.33-1.27-.96-1.91 0 .64.32 1.91.96 3.82zm0-165.19v-1.91c.62-.63.62-.96 0-.96-.64 1.91-.64 2.87 0 2.87zm.95-33.42v-1.91c-.64 0-.95.33-.95.96 0 .64.31.95.95.95zm0 207.2c0-.63-.16-1.27-.48-1.91-.33-.62-.16-1.27.48-1.91h-.95v1.91c0 .64.31 1.29.95 1.91zm0-221.52c.63 0 .96-.48.96-1.43 0-.96-.33-1.43-.96-1.43v2.86zm0 224.39v2.86c.63-1.91.63-2.86 0-2.86zm.96-230.12v.95-.95zm1.9 1.9v-1.91c-.64.64-.95 1.12-.95 1.43 0 .34.32.48.95.48zm0 125.09v-3.82c0 .64-.16 1.43-.48 2.38-.32.96-.15 1.44.48 1.44zm0-10.5v-3.82c-.63 1.91-.63 3.19 0 3.82zm0 2.86c.63-1.91.63-2.86 0-2.86v.96c-.63 1.27-.63 1.9 0 1.9zm0 37.24v-1.91c-.63 1.29-.63 1.91 0 1.91zm.49 47.75c.31-.63.15-.96-.48-.96v2.86c-.01-.62.15-1.26.48-1.9zm.47 14.32c0-1.27-.33-1.91-.96-1.91 0 1.28.32 1.91.96 1.91zm3.82-272.14c0-.62.62-1.58 1.91-2.86 1.27-1.27 1.91-2.22 1.91-2.86-2.55 3.19-3.82 5.1-3.82 5.72zm5.73 332.3c-.64-.63-1.43-1.75-2.38-3.35-.96-1.58-1.76-2.7-2.39-3.34 1.91 4.46 3.49 6.69 4.77 6.69zm.95 7.63-3.82-5.73.95 1.91c1.28 1.92 2.23 3.2 2.87 3.82zm-.95-10.5c-.64 0-.95-.15-.95-.48 0-.31-.33-.48-.96-.48l1.91.96zm5.73-345.66-1.91.96c0-.63 1.27-1.58 3.82-2.86 0 .63-.64 1.28-1.91 1.9zm-1.91 359.98c1.27 0 2.22.95 2.86 2.86-1.28-.62-2.23-1.57-2.86-2.86zm13.37-361.89c0-1.27.31-1.58.96-.96 0-.62.31-1.27.95-1.91-5.72 2.55-9.55 4.77-11.45 6.69.62 0 1.27-.31 1.91-.96.63-.63 1.27-.96 1.91-.96l2.86-.95.96-.96h1.9zm62.06-.96c-12.1 0-22.29.81-30.55 2.39-8.28 1.59-14.49 4.63-18.62 9.07-4.15 4.46-6.69 7.32-7.64 8.59-.96 1.29-2.39 4.77-4.3 10.5 0-.63-.33-.95-.96-.95l.96.95c-1.29 3.19-2.86 10.19-4.77 21.01v2.86c-3.19 22.92-4.78 60.16-4.78 111.72v9.54c0 4.46-.33 7.97-.95 10.5.62 5.73.95 11.79.95 18.15 0 6.37-.33 12.1-.95 17.18.62 0 .95 2.24.95 6.69h-.95c.62 3.19.62 6.37 0 9.55l.95-.95c0 .64-.33 1.59-.95 2.86.62 1.28.62 2.55 0 3.82.62.64.95 2.24.95 4.77-.64 0-.95-.31-.95-.95v3.82c0 1.91.31 2.86.95 2.86 0 .64-.16.96-.48.96-.33 0-.48.33-.48.96.62 0 .95.95.95 2.86s-.33 2.86-.95 2.86c.62 3.19.95 6.68.95 10.5v6.68c0 36.93 11.77 60.48 35.33 70.66h.96c1.27.64 2.22.64 2.86 0-.64.64-.64.96 0 .96.63-.63 1.91-.48 3.82.48s3.17 1.43 3.82 1.43l.96-.95v.95c3.18.64 9.55 1.6 19.1 2.86.63 0 1.58-.31 2.86-.95h2.86c5.09 0 10.17-1.27 15.28-3.82-1.28 0-1.91-.31-1.91-.96 12.08-5.09 19.89-15.75 23.39-31.98 3.49-16.23 5.25-47.27 5.25-93.1 0-.63-.16-12.72-.48-36.29-.33-23.54-.48-42.64-.48-57.29 0-10.17.31-21.01.95-32.46 0-3.17-.16-7.31-.48-12.41-.33-5.09-.48-8.59-.48-10.5v-63.98c0-3.82-.64-7-1.91-9.55h-1.91c-.64-1.27-1.59-2.23-2.86-2.86 0 .64.31.95.96.95.63 0 .95.33.95.96-3.82 0-6.68-.31-8.59-.96-.64.64-1.29.96-1.91.96 1.27.64 1.91 1.29 1.91 1.91-.64 0-.81.17-.48.48.31.33.31.48 0 .48-.33 0-.8-.63-1.43-1.91 0 .64-.48.95-1.43.95s-1.43.33-1.43.96c-1.28-.63-1.91-1.27-1.91-1.91l.96.95h.95c0-.62-.33-.95-.95-.95-.64 0-1.29-.31-1.91-.96 0 .64-.32.96-.95.96-.64 0-1.6-.15-2.86-.48-1.29-.31-3.51-.62-6.69-.95-3.18-.31-7-.48-11.45-.48zm-71.61 365.71 2.86 2.86c-1.28.01-2.24-.94-2.86-2.86zm2.86-365.71c-.64 0-.96.33-.96.96 0 .64-.33.64-.96 0l1.92-.96zm-1.91 228.22v.95-.95zm1.91 136.54c-.64-.63-1.29-.96-1.91-.96 0 .65.63.96 1.91.96zm.96-297.91v-4.77c0 .64-.16 1.43-.48 2.38-.33.95-.16 1.76.48 2.39zm0-4.78c0-.63.15-1.27.48-1.91.31-.62.15-.95-.48-.95v2.86zm.95 306.99c.63.33.96.8.96 1.43l-1.91-.96c0-.62.31-.78.95-.47zm1.91-324.18v-2.86c-.64 1.91-.64 2.86 0 2.86zm0 323.7v-.95c-.64.64-.64.95 0 .95zm4.77-340.88c-.64-.63-.8-1.1-.48-1.43.31-.31.48-.79.48-1.43 0 .64-.16 1.29-.48 1.91-.32.63-.15.95.48.95zm7.65-36.29c-1.29.64-2.24.96-2.86.96.62-.63 1.57-.96 2.86-.96zm2.86-1.91v.96c-.64 0-1.12.16-1.43.48-.33.33-.81.48-1.43.48 1.26-.63 2.22-1.28 2.86-1.92zm7.64-9.54h-1.91 1.91zm.95 396.26c.63 0 .96-.17.96-.48v-1.43c-.64.64-.96 1.27-.96 1.91zm3.82-391.49c0 1.28-.64 1.59-1.91.96.63-.63 1.27-.96 1.91-.96zm17.67 395.79c.31.31.79.15 1.43-.48 0 .63-.33.96-.96.96h-.95c0-.65.15-.81.48-.48zm30.08-3.35h1.91c0 .63.31.96.96.96 0-.64.31-.96.95-.96-1.91-.63-3.2-.63-3.82 0zm17.18-373.34h-1.91c1.27-.63 1.91-.63 1.91 0zm-.95 368.57h-.96c0 .64.32.64.96 0zm2.87-388.63.95.96c0-.63-.33-.96-.95-.96zm1.9 384.81c.63 0 .96-.31.96-.95-.64 0-1.6.33-2.86.95h1.9zm-.95-381.94c3.18 0 5.09.33 5.73.96-1.91-1.92-3.82-2.23-5.73-.96zm2.86 4.77c-1.28-.62-1.91-.62-1.91 0 1.27.64 1.91.64 1.91 0zm1.43-5.73c.96.64 1.75.64 2.39 0-.64-1.27-1.91-1.91-3.82-1.91l.96.96-.96-.96-.95.96c.62 0 1.43.33 2.38.95zm.48 5.73-1.91.96c1.27 0 1.91-.32 1.91-.96zm0 12.42.95.96c.01-.64-.32-.96-.95-.96zm5.73-2.87.96.96-.96-.96zm3.82-186.2c.63-.63.31-1.27-.96-1.91 0 .65.32 1.28.96 1.91zm7.64 338.02.96 2.86-.96-2.86zm0 2.87v1.91c.63-1.27.63-1.91 0-1.91zm1.91 35.33-.96-1.91c-.64 1.28-.32 1.91.96 1.91zm2.87-273.09c.62-1.27.62-1.91 0-1.91v.96c-.65-.01-.65.32 0 .95zm1.91 1.91v-2.86c-.65.64-.65 1.59 0 2.86zm0-68.75v1.91-1.91zm0 109.81c.63-.63.63-.96 0-.96v.96zm0 24.82v.95-.95zm0 47.75c.63 0 .95-.15.95-.48v-1.43c-.64.64-.95 1.28-.95 1.91zm.95-113.63c.63-1.91.63-3.18 0-3.82v3.82zm1.91 106.94c-.64-1.27-1.29-1.91-1.91-1.91.63 0 .96.33.96.96-.01.64.31.95.95.95zm-.96 75.44c.63-.63.63-1.58 0-2.86-.64 0-.96.48-.96 1.43.01.95.32 1.43.96 1.43zm-.95 134.63c.63 0 1.27-.96 1.91-2.86h-.96c-.64.64-.95 1.59-.95 2.86zm1.91-247.31-.96-1.91c-.64.65-.33 1.28.96 1.91zm0 9.55c0-1.27-.33-1.91-.96-1.91-.64 1.28-.33 1.91.96 1.91zm-.96 30.56c.63-1.27.63-1.91 0-1.91v1.91zm.96 12.41v-2.86c0-1.91-.33-3.18-.96-3.82v3.35c0 1.58.32 2.7.96 3.33zm0 173.78V757h-.96c0 .65.32 1.29.96 1.91zm0 0-.96 1.91.96-1.91zm0-232.03.95-2.86h-.95c-.64 1.91-.64 2.86 0 2.86zm0-153.73v-1.91 1.91zm.95 4.78v-.96c0-.63-.33-.96-.95-.96 0 1.29.31 1.92.95 1.92zm0 162.32v-2.38c0-.96-.33-1.43-.95-1.43.62.64.95 1.28.95 1.91v1.9zm0 33.42c0-.63.15-1.91.48-3.82.31-1.91.15-3.18-.48-3.82h-.95c0 1.91.31 4.46.95 7.64zm0 313.2c-.64 1.91-.95 3.19-.95 3.82 0-1.91.31-3.18.95-3.82zm0-297.92c.63-.63.63-1.27 0-1.91v2.86-.95zm2.87 278.82v-1.91c.63-1.27.63-1.91 0-1.91-.64 1.28-.64 2.55 0 3.82zm0-493.67v-2.86 2.86zm.95 10.51c0-.62-.33-.95-.96-.95v1.91c.63-.01.96-.32.96-.96zm-.95 12.41v1.91-1.91zm1.91 96.45v-1.91l-.96 1.91v4.77c0 2.55.31 5.1.96 7.64v16.23c0 4.46-.64 7.01-1.91 7.64 1.27 2.55 1.58 4.77.96 6.69.63 7.01.96 15.6.96 25.78v43.92c-.64.64-.96 3.51-.96 8.59 0 7.64.31 12.1.96 13.37.62-8.9.95-21.01.95-36.28 0-5.09-.16-11.46-.48-19.1-.33-7.64-.48-12.42-.48-14.32v-7.64c0-3.82.31-7 .95-9.55-.64-3.82-.95-7.31-.95-10.5 0-2.54.31-4.14.95-4.77v-8.12c0-3.49-.33-6.21-.95-8.11l1.91-.96c-1.29-.63-1.91-2.22-1.91-4.77v-10.51zm-.96 77.34c0-.63-.33-.95-.96-.95v1.91c.63-.01.96-.32.96-.96zm-.95 291.23h1.92c0-.63-.33-.96-.96-.96l-.96.96zm.95-441.15c-.64 2.55-.33 4.15.96 4.77 0-8.9-.33-14-.96-15.28.63 1.28.79 3.19.48 5.73-.33 2.56-.48 4.16-.48 4.78zm.96-87.84-.96-.95c0 .63.32.95.96.95zm-.96 12.41.96 1.91v-2.86l-.96.95zm0 51.56c.63 4.46.63 8.59 0 12.41 0 .64.15.81.48.48.31-.31.79-.48 1.43-.48-.64-1.27-.95-3.18-.95-5.73 0-1.27.15-3.65.48-7.16.31-3.49.48-5.88.48-7.16 0-1.91-.33-3.18-.95-3.82-.64 1.29-.81 3.19-.48 5.73.3 2.55.14 4.46-.49 5.73zm.96 46.79v-9.55c0-4.44-.33-7-.96-7.64v10.5c0 2.56.32 4.78.96 6.69zm-.96 46.79.96.95v-3.82l-.96.95h.96l-.96.96v.96zm.96 2.87-.96.95v.96l.96-.96v-.95zm0 235.84c.62-.63.79-1.58.48-2.86-.33-1.27-.48-2.22-.48-2.86h-.96c0 .64.15 1.6.48 2.86.31 1.28.48 2.23.48 2.86zm-.96 136.55v1.92-1.92zm.96-482.2c.62-7 .62-11.77 0-14.32 0 .64-.17 3.19-.48 7.64-.33 4.45-.16 6.68.48 6.68zm0-59.21c.62-.62.62-.95 0-.95-.64 0-.64.33 0 .95zm0 128.91c0-.63.15-2.22.48-4.77.31-2.54.15-3.82-.48-3.82-.64 4.46-.64 7.32 0 8.59zm0 187.15v-1.91c-.64 1.29-.64 1.91 0 1.91zm0 69.71v-2.86c-.64 1.28-.64 2.23 0 2.86zm0 147.04c.62-1.27.62-1.91 0-1.91-.64 1.29-.64 1.91 0 1.91zm.95-392.44c0-5.73-.33-8.91-.95-9.55-.64 3.82-.33 7.01.95 9.55zm-.95-158.51.95 1.91c0-5.73-.33-8.59-.95-8.59v6.68zm0 4.77c.62 0 .95-.31.95-.95 0-.63-.33-1.27-.95-1.91v2.86zm0 7.64c0-.62.15-1.43.48-2.38.31-.96.15-1.75-.48-2.39v4.77zm.95 12.42c0-.63.15-.96.48-.96.31 0 .48-.31.48-.95-.64 0-1.29-.96-1.91-2.86v3.82l.95.95zm0 5.73c0-1.27-.33-1.91-.95-1.91 0 1.28.31 1.91.95 1.91zm-.95 24.82h.95v-.96l-.95.96zm.95 116.49c0-1.91-.33-2.86-.95-2.86 0 1.29.31 2.24.95 2.86zm-.95 7.64c1.27-.62 1.27-1.58 0-2.86v2.86zm0 165.2v1.91-1.91zm0 70.65v-3.82 3.82zm0 24.83c.62-.63.62-1.27 0-1.91v1.91zm.95 3.82-.95-1.91v.96c0 .64.31.95.95.95zm0 6.68v-1.91c0-1.27-.33-2.22-.95-2.86v2.86c0 1.29.31 1.91.95 1.91zm1.91-444h-.96v2.86h.96V313zm0 109.8-.96-.95c.01.64.32.95.96.95zm0 2.87c0-.62-.33-.95-.96-.95.01.63.32.95.96.95zm-.95 1.91v1.91h.96c-.01-1.27-.33-1.91-.96-1.91zm.95 21.01c0-1.27-.33-1.58-.96-.96l.96.96zm0-62.07c.62-1.91.62-2.86 0-2.86 0 .64-.17 1.28-.48 1.91-.32.64-.16.95.48.95zm0-191.93c.62 1.28.95 4.15.95 8.59-.64-.62-.95-3.49-.95-8.59zm0 9.55c.62 0 .95.96.95 2.86l-.95-.95v-1.91zm.96 2.86c-.64 1.91-.8 4.63-.48 8.12.31 3.51.15 5.58-.48 6.21V207h.96zm-.96 15.28c.62 4.46.62 9.55 0 15.28v-15.28zm0 30.56v-15.28 4.77c.63 5.11.63 8.6 0 10.51zm0 0c1.27 4.46 1.27 9.23 0 14.32v-14.32zm0 16.23c.62 1.28.95 3.5.95 6.68-.64-1.26-.95-3.49-.95-6.68zm0 7.64c.62 1.91.95 3.19.95 3.82-.64 0-.95-1.27-.95-3.82zm.96 4.77-.95.96.95-.96zm-.96 9.55v-7.64c.62 0 .95 1.29.95 3.82.01 2.55-.32 3.82-.95 3.82zm0 .96c.62 0 .95.64.95 1.91-.64-.63-.95-1.27-.95-1.91zm0 110.76c0 .64.31.95.95.95 0 .64-.33 1.6-.95 2.86v-3.81zm.96 21.96v1.91c0 .64.31.96.96.96-.65 0-.96-.96-.96-2.87zm.95 29.6c.63 0 .63.33 0 .95v.96-1.91zm0 1.91c.63 0 .63 1.29 0 3.82v-3.82zm0 15.28v-1.92 1.92zm0 97.4v-1.91c.63 0 .96.33.96.95 0 .64-.33.96-.96.96zM338.4 1166.28c.63 0 .96-.96.96-2.86l1.91-1.91h2.86c1.27 6.37 1.91 11.79 1.91 16.23v.96c0 3.82-.64 8.28-1.91 13.37V1215.94c0 5.73-.33 10.19-.95 13.37v63.02c0 11.46-.16 27.86-.48 49.18-.33 21.33-.48 37.09-.48 47.26 0 14.01.31 24.2.95 30.56 0 2.55.15 7.01.48 13.37.31 6.37.48 11.46.48 15.28 0 1.91-.16 4.77-.48 8.59-.33 3.82-.48 6.69-.48 8.59 0 2.55-.16 5.73-.48 9.55-.33 3.82-.48 6.68-.48 8.59 0 1.91.15 4.77.48 8.59.31 3.82.48 6.69.48 8.59 0 3.82-.33 6.37-.95 7.64v56.33c-.64 4.46-.96 11.46-.96 21.01v8.59c.63 1.91.96 5.1.96 9.55 0 3.82-.33 6.68-.96 8.59v59.2c-.64 9.55-.95 23.87-.95 42.97v18.14c.63 12.1.95 30.24.95 54.43v5.72c0 4.46.15 11.15.48 20.05.31 8.92.48 15.28.48 19.1 1.91 31.2 10.82 53.16 26.74 65.89 7.64 5.1 23.23 8.28 46.79 9.55h1.91c5.09 0 13.85-.31 26.26-.95 12.41-.63 21.48-.96 27.21-.96-.64 0-.95.33-.95.96 3.18-.63 6.04-.63 8.59 0v9.55c0 7.01-.33 12.42-.96 16.23-.64.64-2.07 1.1-4.29 1.43-2.24.31-3.67.48-4.3.48 0-.64-.33-.96-.96-.96 0 .63-.95.79-2.86.48-1.91-.33-3.19-.16-3.82.48-1.28 0-1.91-.33-1.91-.96h-3.82c-1.91 0-2.86.31-2.86.96l-1.91-.96c-1.91 0-5.25.31-10.03.96-4.77.62-8.44.95-10.98.95h-8.59v-.95c-.64 0-1.6.31-2.86.95h-6.68c-3.19 0-5.42-.33-6.68-.95-3.82 0-6.06-.33-6.69-.96-1.28.63-2.86.63-4.77 0-1.91-.63-3.19-.96-3.82-.96l-.96-.95h-3.82c-1.28-1.27-2.24-1.91-2.86-1.91.63.64.63.96 0 .96v-.96c-.64 0-.95.33-.95.96v-.96h-.95c-4.46-1.91-6.68-3.17-6.68-3.82-.64 0-.96.64-.96 1.91v2.86c-.64-.63-1.28-.96-1.91-.96l-.96-.95c-1.28-1.27-3.82-2.54-7.64-3.82l2.86 2.86-.95-.96c0 .64.95 1.43 2.86 2.39 1.91.96 2.86 1.76 2.86 2.39-3.19-1.27-5.1-2.22-5.73-2.86-.64-.63-1.29-.96-1.91-.96-1.28-.63-2.24-.96-2.86-.96l-10.5-9.55v1.91c-1.28-1.27-2.24-2.54-2.86-3.82l-.95.95c0 .64.63.64 1.91 0l-.95.96h.95c0 .64.31 1.29.95 1.91l.96.96c-1.28-.63-2.86-1.91-4.78-3.82-.64.64-.64 1.29 0 1.91l1.91 1.91-5.73-5.73c0 .64.63 1.59 1.91 2.86-.64 0-1.6-1.27-2.86-3.82-1.28-1.27-2.24-2.54-2.86-3.82-.64-.63-1.6-1.91-2.86-3.82 0-1.91-.95-3.18-2.86-3.82.63 1.28 1.58 3.19 2.86 5.72 1.27 2.56 2.22 4.15 2.86 4.78v.95c.63 2.55 2.22 5.42 4.77 8.59 1.91 1.91 3.18 3.51 3.82 4.77-1.29-1.27-5.1-5.72-11.46-13.37-4.46-9.55-8.59-20.05-12.41-31.51-1.91-6.36-3.51-16.55-4.77-30.56-.64-5.73-1.6-12.41-2.86-20.05 0-3.82-.16-9.7-.48-17.66-.33-7.95-.8-13.51-1.43-16.71 0-5.73.31-9.55.95-11.46-.64-2.54-.95-7-.95-13.37v-30.55c0-5.73.15-14.63.48-26.74.31-12.09.48-21.32.48-27.69V1623.62c.63-6.35.96-15.9.96-28.64V1480.4c0-6.36.15-15.76.48-28.17.31-12.41.48-21.48.48-27.21 0-12.09-.33-21.32-.95-27.69V1325.71c0-5.73.15-15.75.48-30.08.31-14.32.48-24.98.48-31.99 0-10.82-.33-18.45-.95-22.92V1207.3c0-1.91.15-4.14.48-6.69.31-2.54.48-4.77.48-6.69 0-4.44.63-11.13 1.91-20.05v6.68c.63 0 .95-.95.95-2.86s.31-2.86.95-2.86c.63-.62.95-.31.95.96v-.96c.63-1.27 1.27-1.91 1.91-1.91v2.86c.63.64 1.27.33 1.91-.96v-.95 2.86c.63 0 1.1-.48 1.43-1.43.31-.96.79-1.43 1.43-1.43v2.86c1.91-1.91 2.86-4.14 2.86-6.69l.96.96c.63 0 .95-.63.95-1.91v-1.91V1173.87c1.27-.63 1.91-1.58 1.91-2.86 0-1.27.31-1.91.95-1.91.63 0 .95 1.28.95 3.82.63 0 .96-.95.96-2.86 1.27 0 1.91-.95 1.91-2.86v-1.91l.95 1.91c0 .64.31 1.29.96 1.91-.05-1.24-.37-2.2-1-2.83zm-7.64 737.15c1.91 3.19 3.49 6.37 4.78 9.55l.95-.95c-.64-.63-1.6-2.06-2.86-4.3-1.29-2.23-2.24-3.66-2.87-4.3zm5.73 9.54 1.91 1.91h-.95c0-.63-.16-.96-.48-.96-.33.01-.48-.3-.48-.95zm3.82.96-.95-1.91c-.01 1.28.31 1.91.95 1.91zm1.91 2.86c.63.64.95 1.59.95 2.86-1.28-1.26-1.59-2.21-.95-2.86zM697.41 1251.26c0-1.27.31-2.86.95-4.78v4.78h.96c0 1.28.31 2.24.95 2.86-1.28 4.46-1.28 7.33 0 8.59 0 .64-.64.64-1.91 0 0 .64.15 1.29.48 1.91.31.64.48 1.28.48 1.91l-.96-.96v1.91c0 1.28-.33 1.91-.95 1.91 0-2.54-.33-4.14-.95-4.77v4.77c0 .64.15.96.48.96h1.43c0 .64-.16 1.28-.48 1.91-.33.64-.48 1.28-.48 1.91.63-.63.95-.63.95 0 .63.64.63 1.29 0 1.91v1.91-.96V1284.66c.63 4.46.31 7.64-.95 9.55 1.27 0 1.91.33 1.91.95 0 .64-.33.96-.96.96-.64 0-.95.33-.95.96h.95l.96 1.91-.96.96c.63.64.79 1.76.48 3.34-.33 1.59-.16 3.03.48 4.3h-.96c.63.64.63 1.28 0 1.91l.96.96c-.64 3.19-.64 5.73 0 7.64-1.29 1.91-1.6 3.19-.96 3.82h-1.91c.63.64 1.1 1.43 1.43 2.38.31.96.79 1.76 1.43 2.39-.64.64-.96 1.28-.96 1.91 0 .64-.33 1.29-.95 1.91.63 0 .95.32.95.95l-.95 5.73c.63 0 .95 1.91.95 5.73 0 3.19-.33 5.1-.95 5.73.63 0 .63 3.51 0 10.5l.95.96V1365.84c.63.64.63 1.28 0 1.91V1373.48c0 .64-.16.95-.48.95-.33 0-.48.33-.48.96 0 1.29.31 1.91.95 1.91v-1.91c0 .64.31 1.91.96 3.82l-1.91.95c.63.64.95 1.29.95 1.91h-.95c-.64 0-.81.16-.48.48.31.33.48.8.48 1.43l.95-1.91v2.86c1.27 3.82 1.27 6.68 0 8.59v22.91c0 1.29-.33 1.91-.95 1.91.63.64.95 1.29.95 1.91v10.5h-.95v.95h.95c0 3.19-.33 5.11-.95 5.73 0 .64.31.64.95 0v10.99c0-.31-.33-.15-.95.48.63.64.95 4.46.95 11.46h-.95v1.91c.63 0 .95-.31.95-.95V1503.33c0 10.83.31 20.05.96 27.69 0 1.29-.33 1.6-.96.96 0 .64.15.95.48.95.31 0 .48.33.48.96-.64 6.37-.96 14.01-.96 22.92 0 7.01.15 18.47.48 34.37.31 15.92.48 27.69.48 35.33v16.23c-.64 25.47-.96 43.3-.96 53.47 0 7.64.15 19.26.48 34.85.31 15.61.48 26.59.48 32.95v52.52c0 37.57-3.82 66.21-11.46 85.93-.64 0-1.12.33-1.43.96-.33.64-.81.95-1.43.95-.64 3.19-2.86 6.85-6.68 10.98-3.82 4.15-5.73 6.53-5.73 7.16-1.91.64-4.63 1.91-8.12 3.82-3.5 1.91-6.21 3.51-8.12 4.78h-1.91c-8.28 3.82-19.42 5.73-33.42 5.73-10.83 0-20.05-1.29-27.69-3.82-.64 0-.95-.31-.95-.96-2.55 0-5.73-.95-9.55-2.86 0 .64.31.96.95.96.63 0 .95.33.95.96-1.91 0-4.77-1.27-8.59-3.82 0 .64-.33.96-.96.96-.64 0-.64-.63 0-1.91l-.95.96c-.64-.63-1.6-1.58-2.86-2.86-1.28-1.27-2.24-2.22-2.86-2.86l-.95.96c-.64-.63-.64-.96 0-.96h-.95c-1.28-.63-2.55-1.91-3.82-3.82-1.28-1.91-2.24-3.18-2.86-3.82-.64.64-1.29.33-1.91-.96 0 .64.48 1.6 1.43 2.86.95 1.29 1.43 2.24 1.43 2.86-1.91-1.91-4.15-5.4-6.68-10.5v1.91c1.27.64 1.91 1.6 1.91 2.86-1.28-.62-2.24-.95-2.86-.95 0-.63-.33-1.43-.95-2.39-.64-.96-.95-1.75-.95-2.39-.64.64-.64 1.43 0 2.39.63.96.63 1.76 0 2.39l-.95-2.86c0 1.28-.16 1.76-.48 1.43-.33-.31-.16-1.1.48-2.39h-1.91c0-1.91-.64-3.49-1.91-4.77.63.64 1.91 3.82 3.82 9.55-.64 1.91-.16 3.98 1.43 6.21 1.58 2.24 2.39 3.67 2.39 4.29-1.91-1.91-3.19-3.17-3.82-3.82-7.01-12.72-11.46-38.19-13.37-76.39-.64-12.09-.95-25.45-.95-40.1v-26.74c.63-.62.63-1.27 0-1.91V1696.23c0-8.27.31-20.68.95-37.24v-36.28c.63-15.28.96-25.45.96-30.56v-.96c0-3.82.15-11.13.48-21.96.31-10.82.48-19.41.48-25.78V1488.08c0-5.73-.33-16.38-.95-31.99-.64-15.59-.96-28.48-.96-38.67v-211.96c0-5.09.31-12.41.96-21.96-.64-1.91-.64-2.86 0-2.86.63 0 .95.33.95.96 0 .64.31.64.95 0v1.91c.63-.62.79-1.43.48-2.38-.33-.96-.16-1.75.48-2.39.63.64.95 1.29.95 1.91.63-.62 1.27-.62 1.91 0 .63 0 .96-.31.96-.95 0-.63.31-.96.95-.96v2.86c.63-.63.79-1.1.48-1.43-.33-.31-.48-.79-.48-1.43h2.86l1.91-1.91c.63-.63.95-1.27.95-1.91 0 1.29.31 1.91.95 1.91 0-.63.31-1.1.95-1.43.63-.31 1.27-.79 1.91-1.43-.64 0-.95-.31-.95-.96 0-.63.31-.95.95-.95.63 0 .95.64.95 1.91 1.27-4.45 1.58-7.31.96-8.59.63 0 1.58-.31 2.86-.96v2.86l.95-.95v1.91c.63 0 1.1-.31 1.43-.96.31-.62.48-1.27.48-1.91.63 0 1.11.48 1.43 1.43.31.96.79 1.43 1.43 1.43-.64-1.27-.64-2.22 0-2.86v.96l.96.95c.63-2.54 1.27-3.82 1.91-3.82 0 .64-.16 1.12-.48 1.43-.33.33-.48.8-.48 1.43 1.27 0 1.91.16 1.91.48 0 .33-.33.8-.96 1.43.63 4.46.96 9.87.96 16.23 0 7.01-.33 15.6-.96 25.78v39.14c0 7.64-.33 14.65-.95 21.01v64.93c0 1.28-.16 4.77-.48 10.5-.33 5.73-.48 10.19-.48 13.37v10.5c.63 6.37.95 13.37.95 21.01 0 4.46-.16 10.98-.48 19.58-.33 8.59-.48 15.13-.48 19.57 0 6.37.31 12.42.95 18.15.63 19.73.95 40.75.95 63.02 0 34.38-.95 76.39-2.86 126.04-.64 38.84-.95 63.35-.95 73.52v18.14c0 5.1-.33 9.87-.95 14.32v38.19c-.64 8.28-.96 16.23-.96 23.87 0 5.1.31 10.19.96 15.28 1.27 38.19 8.27 63.98 21.01 77.35 12.08 7.64 22.28 11.46 30.56 11.46h2.86c8.27 0 15.9-.96 22.92-2.86.63 0 1.1-.31 1.43-.96.31-.63.79-.63 1.43 0 .63-1.27 2.39-2.54 5.25-3.82 2.86-1.27 4.61-2.54 5.25-3.82h.96c6.36-7 9.86-11.13 10.5-12.42-1.28.64-2.55 1.91-3.82 3.82-1.28 1.91-2.55 2.86-3.82 2.86 0-.63.63-1.75 1.91-3.34 1.27-1.58 2.22-2.7 2.86-3.35-.64 0-1.28.48-1.91 1.43-.64.96-1.28 1.43-1.91 1.43 2.54-4.44 3.82-8.27 3.82-11.45 0-1.27-.33-2.54-.95-3.82-.64.64-1.28 2.08-1.91 4.3-.64 2.24-1.6 3.67-2.86 4.3 3.82-10.17 6.68-20.37 8.59-30.56 0-.63.31-.96.95-.96 1.27-12.72 2.54-29.6 3.82-50.61v-39.14c0-2.54-.16-6.52-.48-11.94-.33-5.4-.48-9.7-.48-12.89v-3.82c.63-10.18.95-18.77.95-25.78 0-4.44-.33-9.22-.95-14.32v-1.91c0-1.91.15-4.3.48-7.16.31-2.86.48-5.25.48-7.16v-3.82c-.64-6.36-.95-14.95-.95-25.78v-25.78c-.64-39.46-.95-66.84-.95-82.12v-154.69c.63-52.83.95-83.38.95-91.66v-3.82c0-3.82.31-9.22.95-16.23.63-7 .96-12.72.96-17.19 0-1.27-.16-3.01-.48-5.25-.33-2.22-.48-3.97-.48-5.25V1212.14c-.64-14.64-.95-22.92-.95-24.83 0-6.36.31-12.42.95-18.14l1.91-1.91c.63.64 1.43.81 2.39.48.96-.31 1.75-.48 2.39-.48v1.91c5.73-1.27 9.86-1.27 12.41 0 .63-.63 2.54-.63 5.73 0 3.18.64 5.09.95 5.73.95-.64 1.91-1.28 2.86-1.91 2.86.63.64.31 2.86-.96 6.69.63.64 1.27 2.55 1.91 5.73l-.95-.96c-.64 3.19-.33 4.77.95 4.77-.64.64-.95 1.43-.95 2.39s.31 1.43.95 1.43c0 .64-.33.95-.95.95 0 2.56.31 4.46.95 5.73-1.28 0-1.91.33-1.91.96h.96c.63 1.29.63 3.51 0 6.69.63 1.28.63 3.82 0 7.64v4.77c0 .64-.16.96-.48.96-.33 0-.48.33-.48.95.63 0 .96-.15.96-.48 0-.31.31-.48.95-.48 0 3.19-.33 6.68-.95 10.5.63.64.79 1.91.48 3.82-.33 1.91-.48 3.19-.48 3.82 0-.63-.33-.96-.96-.96 0 .64.31 1.29.96 1.91 0 .64-.16.95-.48.95-.33 0-.48.33-.48.96h.96c.63 0 .79.48.48 1.43-.33.96-.8 1.76-1.43 2.39-.64-.63-.64-1.58 0-2.86-1.27 1.89-1.58 4.76-.94 8.58zM539.86 1722v1.91-1.91zm.96-352.34v1.91-1.91zm0 12.41c.63 0 .63-.63 0-1.91v1.91zm.95 6.69-.95-1.91c0 1.28.31 1.91.95 1.91zm-.95 22.91c.63-1.27.63-2.22 0-2.86v2.86zm.95 198.61v-2.87 2.87zm4.77 292.19c0-.63-.33-2.22-.95-4.77 0 1.91.31 3.5.95 4.77zm5.73 4.77c0-1.27-.64-2.86-1.91-4.77v-.95c.63 2.55 1.27 4.46 1.91 5.72zm.96 1.92c0-.63-.33-1.27-.95-1.91-.01.64.31 1.28.95 1.91zm0 2.86c0 1.28.31 2.24.96 2.86-.64 0-1.12-.15-1.43-.48-.33-.31-.48-.79-.48-1.43.62 0 .95-.31.95-.95zm1.91 4.77c.63 0 .95.16.95.48v1.43c-.64 0-.95-.62-.95-1.91zm101.21-22.91c-.64 1.29-1.28 1.91-1.91 1.91 0-.63.63-1.27 1.91-1.91zm7.64-18.14c-.64-2.54-.64-3.82 0-3.82-1.28 0-1.76.64-1.43 1.91.31 1.28.79 1.91 1.43 1.91zm23.87-474.57c.63-1.27.63-2.23 0-2.86v2.86zm1.91-67.8v-.95l-.95-.96c0 1.29.31 1.91.95 1.91zm0 6.69c-.64 0-.8-.31-.48-.96.31-.62.15-.95-.48-.95l.96 1.91zm0-29.6v-.96c-.64.64-.64.96 0 .96zm5.73 52.52c0-.63-.33-1.27-.95-1.91-.65 1.28-.33 1.91.95 1.91zm0-19.1v-.96h-.95c0 .65.31.96.95.96zm0 14.32c0-1.27-.33-1.91-.95-1.91l.95 1.91zm0 9.55v-1.43c0-.31-.33-.48-.95-.48l.95 1.91zm0 11.46v-2.86h-.95c0 1.9.31 2.86.95 2.86zm0 6.68c0-.62-.33-.95-.95-.95v1.91c.62 0 .95-.32.95-.96zm0-65.89v-.95c-.64.64-.64.95 0 .95zm.96-32.46c.63 0 .63-.31 0-.95-.64 0-.96.16-.96.48 0 .32.32.47.96.47zm0 117.45v-1.43c0-.31-.33-.48-.96-.48 0 1.28.32 1.91.96 1.91zm.95-209.11c.63 0 .63-.63 0-1.91-.64 0-.95.33-.95.96 0 .63.31.95.95.95zm-.95 8.59c.63 0 .95.64.95 1.91l-.95-1.91zm.95 55.38v-6.68c-.64.64-.95 1.76-.95 3.34 0 1.6.31 2.72.95 3.34zm0 4.78c0-1.91-.33-2.86-.95-2.86 0 .63.31 1.59.95 2.86zm-.48 17.18c.31-1.27.15-2.22-.48-2.86v-.95c.63-.63.63-.96 0-.96.63 0 .95-.15.95-.48 0-.31-.33-.48-.95-.48v-2.87.96c.63-1.91.63-3.18 0-3.82v14.32c.01-.62.16-1.57.48-2.86zm-.47-5.73v.96-.96zm0 1.91v.95-1.91.96zm.95 85.94v-.95h-.95c0 .63.31.95.95.95zm0-36.28v-.96c.63 0 .95-.31.95-.96-.64 0-1.12.17-1.43.48-.32.33-.16.81.48 1.44zm0-97.4c.63-.63.79-1.43.48-2.38-.33-.96-.16-1.43.48-1.43h-.95c-.65.63-.65 1.9-.01 3.81zm0 80.21v-2.87c-.64 1.28-.64 2.24 0 2.87zm.96 8.59c0-.63-.16-1.1-.48-1.43-.33-.31-.48-.79-.48-1.43-.64 1.28-.33 2.24.96 2.86zm-.96-121.27v4.77-4.77zm0 10.51v1.91-1.91zm0 7.63c.63-.62.95-1.58.95-2.86 0-1.27-.33-1.91-.95-1.91v4.77zm.96 131.78c0-1.27-.33-1.91-.95-1.91-.01 1.28.31 1.91.95 1.91zm0-79.26c.63 0 .96.17.96.48 0 .32-.33.48-.96.48v-.96zM937.08 1893.88c0 .64.15.96.47.96.31 0 .48.33.48.96-1.29 4.46-4.46 10.19-9.55 17.18-3.2 1.29-7.01 3.51-11.46 6.69-4.46 3.19-7.33 5.42-8.59 6.68-8.92 5.11-18.79 8.59-29.6 10.51-9.55 1.27-15.28 1.91-17.19 1.91h-17.18c-1.28-.64-3.34-1.29-6.21-1.91-2.86-.64-5.25-.96-7.16-.96-8.28-3.18-14.01-6.04-17.19-8.59l-1.91-.96c-.64 0-1.6-.62-2.86-1.91-1.28-1.27-2.55-2.22-3.82-2.86-.64-.63-.95-1.27-.95-1.91-17.83-17.82-29.6-39.15-35.33-63.98-.64-.62-1.28-1.27-1.91-1.91.63 0 .95-.31.95-.96v-1.91c-1.28-1.27-1.91-3.34-1.91-6.21v-6.21c-1.28-.63-1.91-1.58-1.91-2.86l.95 1.91v-.96l-.95-2.86c-.64 0-.64.33 0 .96-1.28-1.27-1.28-1.91 0-1.91 0-1.91-.33-4.14-.95-6.69v-3.82c-.64 0-.95-.63-.95-1.91h.95c0-.63-.33-.95-.95-.95v-3.35c0-.95-.16-2.38-.48-4.3-.33-1.91-.48-3.34-.48-4.3 0-.95.31-1.74.96-2.38-1.29-2.54-1.91-5.73-1.91-9.55 0-2.54.31-5.09.95-7.64h-.95v-3.82c.63 0 .95.32.95.95v-2.87c-.64 0-.95-.15-.95-.48v-1.43l.95 1.91c0-.63-.33-1.58-.95-2.86 0-6.35-.33-9.86-.95-10.5 0-.63.15-.96.48-.96.31 0 .48-.31.48-.95v-15.28c0-8.9-.64-15.28-1.91-19.1h.96v-6.68c0-.63-.16-1.43-.48-2.39-.33-.95-.48-1.75-.48-2.38V1714.35c0-.63-.16-1.91-.48-3.82-.33-1.91-.16-3.17.48-3.82v-8.61c.63-5.73.31-10.5-.95-14.32.63-.63.95-1.27.95-1.91 0-.63-.33-.96-.95-.96 0-.62.31-1.27.95-1.91-.64-5.73-.64-10.82 0-15.28-.64-1.27-.95-3.18-.95-5.73 0-.63.15-1.91.48-3.82.31-1.91.48-3.49.48-4.77v-2.86c-.64-.63-.33-.63.96 0-.64-1.91-.96-4.14-.96-6.69 0-1.91.15-4.92.48-9.07.31-4.13.48-7.16.48-9.07 0-3.82-.33-7-.96-9.55.63-.62.96-1.58.96-2.86v-2.86h-.96c0-.63.15-1.27.48-1.91.31-.63.48-1.1.48-1.43v-3.34c.63-.63.63-1.75 0-3.34-.64-1.58-.96-2.7-.96-3.35 0-.62.31-2.22.96-4.77v-1.91c-.64-.63-.96-1.1-.96-1.43 0-.31.31-1.1.96-2.39 0-1.27-.16-2.7-.48-4.3-.33-1.58-.48-2.7-.48-3.34.63 0 .96.33.96.96v-2.86c-.64-1.91-.33-2.86.95-2.86v-3.82c0-.63-.16-1.43-.48-2.38-.33-.96-.48-1.75-.48-2.39-.64.64-.96.64-.96 0 .63-1.27.63-2.86 0-4.77.63 0 .96.33.96.95 0-.62-.33-2.22-.96-4.77 1.91-.63 2.22-2.54.96-5.73v-17.19c-.64-.62-.96-1.27-.96-1.91l.96.96v-3.34c0-1.58-.33-2.7-.96-3.35l.96-.95c0-.63-.16-1.27-.48-1.91-.33-.62-.48-1.1-.48-1.43 0-.31.31-.79.96-1.43v-24.82c0-1.27-.16-3.49-.48-6.68-.33-3.18-.48-5.73-.48-7.64.63-5.09.96-9.22.96-12.42-.64-22.91-.96-40.73-.96-53.47 0-15.28.31-28.65.96-40.11 0-.62-.16-.95-.48-.95-.33 0-.48-.31-.48-.96.63-1.27.96-3.65.96-7.16v-7.16c0-.62-.33-.95-.96-.95 0-.63.31-.96.96-.96 1.91-40.73 3.49-66.51 4.77-77.35v-.95c-.64-.63-.64-1.27 0-1.91 0-2.54.31-6.35.95-11.45 0-.63.31-1.75.96-3.35.63-1.58.95-2.7.95-3.34v-3.82c0-.63.31-1.75.95-3.35.63-1.58.96-2.7.96-3.34 0-.63.31-1.91.95-3.82.63-1.91.95-3.49.95-4.77 2.54-5.09 3.82-8.59 3.82-10.5-.64 1.91-1.59 4.63-2.86 8.11-1.29 3.51-2.24 5.9-2.86 7.16.63-5.09 4.13-13.68 10.5-25.78 1.27-3.18 2.22-4.77 2.86-4.77 0 .64-.33 1.43-.95 2.38-.64.96-.96 2.08-.96 3.34.63-.62 1.27-1.58 1.91-2.86l.95-1.91c-.64-.63-.95-1.27-.95-1.91 1.27-3.18 2.86-5.73 4.77-7.64-.64 1.28-.95 2.24-.95 2.86 1.27 0 2.39-1.1 3.34-3.35.95-2.22 1.74-3.65 2.39-4.3.63-1.91 2.22-4.13 4.77-6.68 2.54-2.54 3.82-4.14 3.82-4.77 16.54-13.37 34.05-20.05 52.52-20.05H866.43c12.08 1.29 21.96 3.51 29.6 6.69 1.9.64 6.04 2.86 12.41 6.68 6.36 3.82 12.41 7.97 18.14 12.42 4.44 3.19 6.68 5.42 6.68 6.68-.64 1.91-.95 3.03-.95 3.34 0 .33.15.81.48 1.43.31.64.47 1.12.47 1.43 0 .33-.16.81-.47 1.43-.33.64-.48 1.29-.48 1.91v11.45c-.64 2.55-1.29 3.51-1.91 2.86-3.19-1.91-5.1-2.86-5.73-2.86-1.28 0-2.55-.95-3.82-2.86-17.19-10.82-32.79-17.81-46.79-21.01-4.46-.63-9.55-1.27-15.28-1.91-3.82 0-7.01.64-9.55 1.91-10.19 1.91-20.38 7.97-30.56 18.15-10.19 10.19-17.83 30.24-22.92 60.15-2.55 11.46-3.82 26.43-3.82 44.88v63.03c0 1.91.15 4.46.48 7.64.31 3.19.48 5.73.48 7.64 0 1.91-.16 4.46-.48 7.64-.33 3.19-.48 5.73-.48 7.64v5.73c-.64 15.92-.95 26.42-.95 31.51l.95.96c0 1.28-.16 2.71-.48 4.3-.33 1.59-.48 2.71-.48 3.34v27.69c0 5.1.31 9.24.95 12.41-.64.64-.95 2.24-.95 4.78V1603.6c0 8.92-.33 16.56-.96 22.91 1.27 2.55 1.27 4.46 0 5.73V1695.26c.63 30.56 1.27 49.03 1.91 55.38 1.27 29.93 2.86 52.52 4.77 67.79l-.95 1.91c.63 1.29 1.1 3.67 1.43 7.16.31 3.51.48 5.89.48 7.16 2.54 10.19 5.09 20.38 7.64 30.56 1.27 3.19 2.54 6.06 3.82 8.59 0 1.28.48 2.55 1.43 3.82.96 1.29 1.43 2.24 1.43 2.86.63.64 1.1.8 1.43.48.31-.31.48-.15.48.48 5.09 7.64 11.77 14.96 20.05 21.96 0 .64.31.64.95 0 1.27 1.28 3.34 2.55 6.21 3.82 2.86 1.29 4.61 2.24 5.25 2.86.63 0 .95-.15.95-.48 0-.31.31-.15.96.48 3.18.64 6.68.96 10.5.96 9.55-.63 19.72-3.82 30.56-9.55 3.17-1.27 6.35-3.18 9.55-5.73.63-.63 1.9-1.58 3.82-2.86 1.91-1.27 3.49-2.22 4.78-2.86 0-.63.31-1.27.95-1.91.63-.62 1.1-1.1 1.43-1.43.31-.31 1.43-.79 3.35-1.43 1.27-.62 2.7-1.74 4.29-3.34 1.59-1.58 3.02-2.7 4.3-3.34 2.54-1.91 4.78-1.91 6.69 0 0 .64.47 1.59 1.43 2.86.95 1.28 1.43 2.55 1.43 3.82 3.84 2.56 5.75 5.42 5.75 8.6zm-178.56-329.43h.96v1.91c-.64 0-.96-.15-.96-.48v-1.43zm5.73 62.07h-.95c-.01 1.9.31 1.9.95 0zm-.96 32.46v.96h.95c.01-.63-.32-.96-.95-.96zm0 31.51h1.9c0-.63-.33-1.27-.95-1.91-.63.64-.95 1.29-.95 1.91zm0 7.64c0 1.29.31 1.91.95 1.91 0-.62-.16-1.58-.48-2.86-.33-1.27-.16-1.91.48-1.91l-.95.96v1.9zm.96-79.25h.95c0-.63-.33-1.27-.95-1.91 0 .64-.16.95-.48.95-.33 0-.16.33.48.96zm1.91-11.46c0-.63-.33-.95-.96-.95h-.95c-.64.64-.64 1.59 0 2.86v-1.91h1.91zm-1.91 57.29c-.64 0-.64.33 0 .96.63-.63.63-.96 0-.96zm0 60.16c0-.63.31-.95.95-.95l-.95-.96c-.64.64-.64 1.28 0 1.91zm1.91-189.07c-1.28.64-1.6 0-.96-1.91-1.91.64-1.91 2.24 0 4.77-.64-.62-.95-1.1-.95-1.43 0-.31.31-.48.95-.48l.96.96v-1.91zm-1.91-210.07c.63 0 .63.33 0 .96 0 .64.31.96.95.96l-.95-1.92zm0 204.34v1.91c0-.63.31-.96.95-.96v-.96h-.95zm0 162.33v1.91-1.91zm.95 33.42h-.95c0 1.28.31 1.91.95 1.91v-1.91zm-.95 4.78v-1.91c.63 1.28.63 1.91 0 1.91zm0 7.63.95 1.91c0-1.26-.32-1.91-.95-1.91zm.95-413.45v-2.86c-.64 1.91-.64 2.86 0 2.86zm0-17.19v7.64c.63-1.27.96-2.86.96-4.77 0-1.91-.33-2.87-.96-2.87zm.96 221.53h-.96.96zm0 74.48v-1.91c-.64 1.28-.64 1.91 0 1.91zm0-281.68v1.91c.62-1.27.62-1.91 0-1.91zm.95-18.15v-1.91c-.64.65-.64 1.29 0 1.91zm0 483.16c-.64 1.29-.33 2.24.95 2.86v-1.91c-.63.01-.95-.31-.95-.95zm.96-505.12v3.35c0 1.59-.33 2.71-.95 3.34.63-.63 1.1-1.75 1.43-3.34.31-1.59.14-2.71-.48-3.35zm0 507.99c0 .64-.16.96-.48.96-.33 0-.48.33-.48.96l.96-1.92zm-.96 6.68c.63.64.95 1.59.95 2.86v2.86-5.73h-.95zm.96 7.64v.96c0 1.28.31 1.91.96 1.91v-.96c-.01-1.27-.34-1.91-.96-1.91zm1.91 20.05h-.95c0 1.91.63 4.15 1.91 6.68-.65-2.53-.96-4.77-.96-6.68zm.95-581.51c1.91-3.82 2.54-6.04 1.91-6.69-1.28 3.83-1.91 6.07-1.91 6.69zm.96 627.35c0-.63-.33-1.58-.96-2.86.63.63.96 1.59.96 2.86zm1.91-12.42c0 1.28.31 1.91.95 1.91 0-.62-.33-1.27-.95-1.91zM1024.92 1294.23v66.84c.62.64.95 1.29.95 1.91v.95c-1.28 2.55-1.59 4.78-.95 6.69-.64.64-.96 1.28-.96 1.91v1.91h.96v4.78a8.79 8.79 0 0 0 0 5.73v5.72c0 .64-.33.96-.96.96v10.51c0 1.91.31 3.19.96 3.82-.64.64-.96 1.43-.96 2.39v2.38c1.27.64 1.27 1.6 0 2.86v7.64c.63 0 .96.33.96.96 0 .64-.33.96-.96.96v6.68h.96v14.32c0 1.28-.17 3.67-.48 7.16-.33 3.51-.48 6.53-.48 9.07 0 2.55.15 5.89.48 10.03.31 4.15.48 7.16.48 9.07-.64 1.29-.96 4.77-.96 10.5 0 4.46.31 7.32.96 8.59-.64 1.91-.96 5.73-.96 11.46 0 8.28.31 14.32.96 18.14V1543.45h1.91c1.27-2.54 1.91-4.45 1.91-5.73h.96c0-3.18 1.58-6.36 4.77-9.55 0-1.27.63-2.86 1.91-4.77 1.27-1.91 1.58-3.49.96-4.77h.96c-.64-.63-.64-1.43 0-2.39.63-.96.95-1.75.95-2.39h.96c0-1.91.31-2.86.96-2.86v-.95l.95-.96c.63-.63 1.1-2.06 1.43-4.3.31-2.22 1.1-3.65 2.39-4.3-.64-1.27-.48-2.7.48-4.3.96-1.58 1.43-3.01 1.43-4.3h1.91c-1.29 2.56-1.91 4.46-1.91 5.73l.96-.95c.63-.63 1.27-.63 1.91 0 0-.63-.33-.96-.95-.96h-.96c.63 0 1.27-.48 1.91-1.43.63-.96.63-1.75 0-2.39h.96l.96-.95v-1.91h-1.91c.63.64.96 1.28.96 1.91l-.96-.96-.95 1.91c-.64-.62-.96-1.27-.96-1.91 1.27-.63 1.91-1.43 1.91-2.38 0-.96.31-1.43.96-1.43 0 1.28.31 2.24.96 2.86v-.96c.62 0 .95.33.95.96v-3.83h1.91c-.64-1.91-.32-3.18.96-3.82 0-.62-.33-.95-.96-.95.63-.63 1.27-.96 1.91-.96l-.96-.96v-.95h.96v-.96l.95-.96.96-.95h-.96l-.95.95c0-.62.63-1.58 1.91-2.86 0-.62.31-.95.96-.95h-.96c0-1.27.63-1.91 1.91-1.91l4.78-14.32h.95c-.64-1.27.96-5.4 4.78-12.42 0 .64.31.96.95.96-.64-1.27-.64-1.91 0-1.91v-2.86c.63-.63 1.27-.96 1.91-.96h-.96v-.96h.96c.62 0 .95-.31.95-.95 0-.63-.33-1.27-.95-1.91l2.86-2.86v-2.86h.96c-.64-.63-.96-1.27-.96-1.91h.96l1.91-3.82h.96v-.96.96h-.96c0-.63.63-1.27 1.91-1.91v-2.86h1.91v-.95h-.96c0-1.27.31-1.91.96-1.91h.96v-1.91c0-.63.31-.63.95 0v-2.86c.63.64 1.27.33 1.91-.95 0 .64.31.95.95.95v-1.91l-.95.96c-.64-.63-.64-1.91 0-3.82l.95-.96c.63 0 .63.33 0 .96 1.91-3.18 3.18-5.09 3.82-5.73v-.96c.63-.62.63-1.27 0-1.91v-.96h1.91c0-1.91.63-4.3 1.91-7.16 1.27-2.86 2.54-4.3 3.82-4.3.63-.63.96-1.27.96-1.91-.64.64-.96.64-.96 0h.96c-.64 0-.96-.31-.96-.95v-1.91h1.91v-2.86h.96c.63.64.96 1.29.96 1.91l-.96.95c1.27-1.91 1.27-4.13 0-6.68h.96v.95-.95c.62-.63 1.27-1.27 1.91-1.91v-.95c0-.63.31-.63.96 0-.64-1.27-.64-2.22 0-2.86.62-.63.95-1.27.95-1.91.63 0 .96-.63.96-1.91l.96 2.86c1.27-.63.95-1.91-.96-3.82l.96-.96h-.96v1.91l-.96-.95.96-.96c0-2.54.31-3.49.96-2.86 0 1.29.31 1.91.95 1.91 0-1.27.31-2.22.96-2.86 0 .64-.64.96-1.91.96 0-1.27.48-3.01 1.43-5.25.95-2.22 1.43-4.29 1.43-6.21.62 0 .95.33.95.96 0-.63.31-.96.96-.96-1.91 0-1.91-.95 0-2.86v.96l1.91-1.91-.96-.96h.96c-.64-1.27-.64-2.7 0-4.3.63-1.58.96-2.7.96-3.34l.95.95c0-.62.31-1.58.96-2.86 0-.62.63-.95 1.91-.95-1.28-.63-1.43-1.43-.48-2.39.96-.95 1.43-1.75 1.43-2.38.63 0 .96.64.96 1.91v-.96c0-.63.31-1.27.95-1.91-.64.64-1.28.64-1.91 0l.96-1.91c0-.63.31-.96.95-.96h-.95l4.77-8.59.96-2.86v-4.77h.95c1.27-1.91 2.7-4.77 4.3-8.59 1.58-3.82 2.7-6.36 3.34-7.64-1.28.64-1.91.64-1.91 0l.96-.96v-.95c.63 0 .95.32.95.95.63-.63.96-1.27.96-1.91v.96h-.96l-.95-1.91h1.91c.63-1.27 1.27-2.86 1.91-4.77l1.91-1.91c0-1.91.31-3.18.95-3.82v-1.91c0 1.28-.33 1.91-.95 1.91 0-.63.79-3.01 2.38-7.16 1.58-4.13 2.39-6.52 2.39-7.16-.64-.62-.64-1.75 0-3.34.63-1.58.63-2.7 0-3.34 3.18-7.64 4.77-11.77 4.77-12.42 1.91-.62 3.18-1.91 3.82-3.82l1.91.95h.96l1.91 1.91c.63 0 1.58.64 2.86 1.91.63 1.29 1.58 1.59 2.86.96.63.64 3.49 3.19 8.59 7.64l2.86 1.91c-.64.64-.64 1.29 0 1.91-.64.64-1.6 2.86-2.86 6.69l-1.91 4.77v.96c0 .64-.81 2.71-2.39 6.21-1.6 3.51-2.72 6.85-3.34 10.03h-.96l-.96.96c0 .64.31 1.28.96 1.91-.64 0-1.43.64-2.39 1.91-.95 1.29-1.12 2.24-.48 2.86l-.96.96c0 1.28-2.24 6.21-6.68 14.8-4.46 8.59-6.69 13.53-6.69 14.8h-.95c-5.11 11.46-14.32 30.89-27.69 58.25l-29.6 63.02v1.91c-2.56 3.82-6.85 13.84-12.89 30.08-6.06 16.23-11.94 31.67-17.66 46.31l-7.64 21.96c1.27 0 3.01.8 5.25 2.39 2.22 1.59 3.97 2.38 5.25 2.38.62.64 1.27 1.29 1.91 1.91.63.64.96 1.29.96 1.91l-1.91 3.82c0 .64.31 1.76.96 3.35.63 1.59 1.27 3.03 1.91 4.3h-.95c0 .64.31 1.59.95 2.86 0 1.28.31 1.91.96 1.91l4.77 17.19c.63 3.82 1.58 6.05 2.86 6.68v.96c0 1.28.48 3.34 1.43 6.21.96 2.86 1.43 4.63 1.43 5.25.63 0 .96.32.96.95v.96l.95 2.86c.63 1.91 1.27 3.19 1.91 3.82l-.96.96v.96c.63 0 1.1.48 1.43 1.43.31.95.15 1.76-.48 2.38 1.27 0 1.91.96 1.91 2.86 1.27 2.55 1.91 4.46 1.91 5.73 1.91 1.91 2.22 3.82.96 5.73-.64 0-.96-.63-.96-1.91 0 .64.31 1.59.96 2.86 0 1.91.31 3.19.96 3.82 0 1.91.31 2.86.95 2.86 0 1.29.48 3.19 1.43 5.73.96 2.55 1.43 4.15 1.43 4.77 0 .64.31.96.96.96v2.86c.63 0 .96.33.96.96-.64.64-.64 1.12 0 1.43.62.33.31.8-.96 1.43h.96c.62.64.95 1.28.95 1.91-.64 0-.95.33-.95.96h.95l.96 1.91h-.96c0 2.55.31 4.46.96 5.73.63 0 .95-.31.95-.96v-.96c.63 0 .96.64.96 1.91-.64 0-.96.16-.96.48 0 .33-.32.48-.95.48h1.91c.63.64.96 1.91.96 3.82.63.64.63.96 0 .96l-.96.95h.96l.95.96h-.95v1.91c0-.62.31-.95.95-.95v3.82h.96c.63.64.31.96-.96.96 1.27 1.28 1.58 2.86.96 4.77 1.27.64 1.91 1.76 1.91 3.34 0 1.6.31 2.72.96 3.35l.96 4.77v.96c.62.64.62.95 0 .95l.95.96c.63.64.63 1.28 0 1.91.63.64.96 1.6.96 2.86l.96 5.73h1.91v4.77h.96v1.91c1.91.64 1.91 1.91 0 3.82h1.91v.96c0 .64-.33.95-.96.95 1.27 0 1.91.96 1.91 2.86h-.96v.96h.96c0 .64-.64.96-1.91.96.63 0 .96.16.96.48 0 .33.31.48.96.48h-.96c0 1.91.31 2.86.96 2.86v-1.91l.95.96v4.77-.96h-.95v1.91h.95v-.96c.63 1.29.96 2.24.96 2.86h.95c.63 0 .96.33.96.96 0 .64-.16.95-.48.95h-1.43c.63 0 .63.96 0 2.86.63 0 .95-.15.95-.48 0-.31.31-.48.96-.48v6.69h1.91c0 1.29.15 2.72.48 4.3.31 1.59.48 2.72.48 3.34v-.95h-.96l.96.95c0 .64.63 1.6 1.91 2.86-1.28 1.29-.95 2.55.96 3.82-.64.64-.64 1.76 0 3.34.63 1.6.96 2.72.96 3.34h.95c-.64 1.29-.48 3.03.48 5.25.95 2.24 1.43 3.67 1.43 4.3h.95c-.64.64-.64 1.59 0 2.86v.95l.96 4.78c.63.64.96 1.59.96 2.86 0 1.28.31 2.24.95 2.86l.96-.96c-1.29.64-1.29 2.24 0 4.77l.96 2.86.95.96c0 .64.31 1.28.96 1.91l-.96.96v2.86c.63 0 .96.33.96.95 0 .64-.33.96-.96.96 1.27.64 1.27 1.29 0 1.91h.96c0 .64.31 1.6.95 2.86.63 1.29.63 2.24 0 2.86h.96v1.91l.96-.96c0-.63.31-.63.95 0-.64.64-.95 1.28-.95 1.91v1.91c1.27 1.29 1.91 2.56 1.91 3.82l-.96-.96c0 .64.31 1.6.96 2.86.63 1.29.63 2.24 0 2.86l.96.96c.62 0 .62.33 0 .96h.95c-.64 1.28-.64 2.55 0 3.82.63 1.29.96 2.24.96 2.86 0-.63.31-.95.96-.95v2.86c0 7.01 1.27 11.78 3.82 14.32-.64.64-.64 1.29 0 1.91l.96.95h-.96v.96h.96v.96h.96c0 .64.15 1.59.48 2.86.31 1.29.15 1.91-.48 1.91l.95 1.91c0 .64.31 1.29.96 1.91 0 .64-.33.64-.96 0l.96 1.91c0 .64.31.95.96.95-.64 1.29-.81 2.07-.48 2.39.31.33.48.8.48 1.43h.95v2.86-.96h.96c0 1.29-.33 1.91-.96 1.91l.96 1.91v1.91c0 .64.31.64.96 0h-.96c.63.64 1.27.96 1.91.96 0 1.28.31 2.55.96 3.82.63 1.29.95 2.55.95 3.82h1.91c-.64-.63-.96-1.58-.96-2.86.63.64 2.22 4.15 4.77 10.5v.96c1.91 2.55 2.86 4.77 2.86 6.68 0-.62.31-.95.96-.95 0 .64.48 1.43 1.43 2.38.96.96 1.43 1.76 1.43 2.39-1.29 3.19-2.24 4.77-2.86 4.77 0 1.91-.96 4.63-2.86 8.12-1.91 3.51-2.86 5.89-2.86 7.16-1.29 0-2.24.31-2.86.95-.64-1.28-2.39-2.06-5.25-2.38-2.86-.31-4.94-1.1-6.21-2.39h-2.86v-1.91c.63.64.63.95 0 .95-.64 0-.95-.62-.95-1.91-2.55 0-3.82-.63-3.82-1.91-1.28 0-2.71-2.39-4.3-7.16-1.59-4.77-2.38-8.43-2.38-10.98a171.28 171.28 0 0 1-4.78-17.18c-1.28-.63-2.07-2.22-2.38-4.78-.33-2.54-.81-4.13-1.43-4.77v-1.91c0-.63-.33-.96-.96-.96 0-3.18-1.29-7.95-3.82-14.32-1.91-8.91-3.98-17.19-6.21-24.83-2.24-7.64-3.34-12.42-3.34-14.32-.64 0-1.91-4.93-3.82-14.8-1.91-9.86-4.46-21.32-7.64-34.38-3.19-13.04-6.06-23.07-8.59-30.08-7.64-35-18.14-70.97-31.51-107.9l-.96-.95c0-1.27-.64-3.65-1.91-7.16-1.29-3.49-1.91-5.88-1.91-7.16-.64-1.27-3.03-7.95-7.16-20.05-4.15-12.08-6.21-18.45-6.21-19.1 1.27-1.27 1.27-1.91 0-1.91-1.91 2.55-3.67 7.01-5.25 13.37-1.6 6.37-3.03 10.5-4.3 12.42-1.91-1.27-2.86-2.54-2.86-3.82-1.29.64-1.91.33-1.91-.96v36.29c0 2.55.15 5.89.48 10.03.31 4.15.48 7.16.48 9.07 0 2.55.31 4.15.96 4.77-.64.64-.96 4.15-.96 10.5v16.23c0 3.82-.16 9.55-.48 17.19-.33 7.64-.48 13.7-.48 18.15 0 5.72.62 10.5 1.91 14.32-.64 1.29-.96 2.72-.96 4.3v4.3c0 .64.31 1.29.96 1.91h-.96c.63 3.19.96 7.01.96 11.46.63 0 .96.33.96.96v1.91c-1.29 2.55-1.29 4.77 0 6.69v7.64c0 1.91.15 4.15.48 6.69.31 2.55.48 4.46.48 5.72v8.59c0 1.29-.16 3.19-.48 5.73-.33 2.55-.48 4.46-.48 5.73 0 4.46.31 7.97.95 10.5v.96l.96 36.29v34.85c0 4.78-.17 7.8-.48 9.08-.33 1.28-.48 2.38-.48 3.34v3.34c0 2.55.31 4.46.96 5.73v2.86c.63 1.91.48 4.63-.48 8.11-.96 3.51-1.43 5.9-1.43 7.16l-.96.96c-.64 1.27-1.29 1.91-1.91 1.91 0-.64-.33-1.28-.96-1.91v-1.91c-.64 0-.96.64-.96 1.91-.64 1.91-1.59 2.54-2.86 1.91.63-.64.96-1.28.96-1.91h-3.82v2.86c-.64 0-.95-.64-.95-1.91v-1.91c-1.29 1.91-2.24 2.54-2.86 1.91v-1.91l-.96.96c0 .63-.33.63-.95 0 0-.63.31-.96.95-.96h-2.86l.96.96c-1.29 1.27-2.55.96-3.82-.96-1.28 1.27-2.55 1.91-3.82 1.91l-.96-1.91-.96-.95h-.95l-.96-.96c.63-15.9.96-39.15.96-69.7 0-7-.17-13.68-.48-20.05-.32-6.36-.48-11.29-.48-14.8v-6.21c0-1.91.15-4.61.48-8.12.31-3.49.48-5.88.48-7.16v-1.91c-.64-7.64-.96-19.1-.96-34.38 0-3.82.15-9.07.48-15.75.31-6.69.48-11.94.48-15.76 0-6.36-.33-13.68-.96-21.96-.64-8.27-.96-16.55-.96-24.83 0-5.73.15-14.95.48-27.69.31-12.72.48-27.05.48-42.97 0-14-.16-35.17-.48-63.5-.33-28.32-.48-49.49-.48-63.5 0-9.55.15-18.29.48-26.25.31-7.96.48-12.56.48-13.85 0-3.82-.16-8.74-.48-14.8-.33-6.04-.48-10.34-.48-12.89v-21.96c0-10.82.31-16.86.96-18.14h-.96c0-1.27.15-2.54.48-3.82.31-1.27.48-2.22.48-2.86 0-1.91-.16-4.13-.48-6.68-.33-2.54-.48-4.45-.48-5.73 0-.63.15-2.7.48-6.21.31-3.49.48-8.12.48-13.85 0-4.44-.16-10.98-.48-19.57-.33-8.59-.48-14.8-.48-18.62v-35.33c0-4.44-.16-11.46-.48-21.01-.33-9.55-.48-16.86-.48-21.96V1208.31c0-1.91-.33-7.31-.96-16.23-.64-8.91-.95-14.63-.95-17.19.62-.62.79-2.22.48-4.77-.33-2.54.15-3.82 1.43-3.82-.64-.63-.64-1.27 0-1.91.63-.62.95-1.27.95-1.91h9.55v.96l17.19 2.86c.62 3.19.62 6.05 0 8.59.62.64.95 1.29.95 1.91v1.91h-.95v1.91h.95c.63 1.29.63 2.24 0 2.86h-.95v3.82c1.27 0 1.91.96 1.91 2.86h-1.91c.62 0 .95.33.95.96 0 .64.31 1.28.96 1.91-.64 0-.96.16-.96.48 0 .33-.33.48-.95.48.62.64.95 2.08.95 4.3 0 2.24.31 3.67.96 4.3-.64 0-.96.64-.96 1.91v2.86h-.95v.95c0 .64.31.96.95.96v-1.91l-.95.95.95.96h.96c-.64 0-.96.33-.96.96v1.91c.63.64.96 1.28.96 1.91h-.96v.96c.63.64.96 1.28.96 1.91v3.82h-.96c1.27 1.28 1.27 1.91 0 1.91 2.54 2.55 2.54 4.46 0 5.73.63.64.96 3.19.96 7.64 0 7.01-.33 10.83-.96 11.46h.96c-.64 1.28-.96 3.03-.96 5.25v5.25c0 3.19-.33 5.1-.95 5.73.62 1.29.95 2.55.95 3.82h-.95c.62 0 .95 2.24.95 6.68v11.46l-.95.96c.62.64.62 1.91 0 3.82-.77 1.86-.77 3.15-.13 3.78zm.95-86.9v-.96l.96.96h-.96zm0 337.07v.96-.96zm3.82-10.51v1.91c-.64 0-.96-.31-.96-.95.01-.63.32-.96.96-.96zm16.23-29.6.96-.96h-.96c-.64.65-.64.96 0 .96zm.96-1.9h.95v-.96c-1.28 0-1.59.33-.95.96zm1.91-1.92c.63-.62.63-.95 0-.95h-.96c.63-.63.96-1.27.96-1.91-.64.64-.96.64-.96 0l-.95.96v1.91l.95-.95.96.94zm0 240.63c.63 0 .96.33.96.96h-.96v-.96zm2.86-254.95c.63 0 .96-.31.96-.96v-1.91c0 .65-.33 1.6-.96 2.87zm2.87-5.73c0 .64-.64.95-1.91.95 0-1.9.62-2.22 1.91-.95zm6.68-21.96.96.95v.96h-.96v-1.91zm7.64 123.18c0-1.27-.33-2.23-.96-2.86l.96 2.86zm6.68-146.1c.63-.63.96-.31.96.96h.95v-1.92l.96.96c0-.63.31-.96.96-.96v-2.86c-1.29.64-1.6 1.29-.96 1.91-.64 0-.96.16-.96.48 0 .33-.32.48-.95.48l.95-.95v-.96c-.64.64-.95 1.29-.95 1.91l-.96.95zm.96 3.83c0-.63.15-.96.48-.96.31 0 .48-.31.48-.96-.65 0-.96.65-.96 1.92zm3.82 175.69-.95-1.91c0 1.28.31 1.91.95 1.91zm.95-190.02c.63 0 .63.33 0 .96v.95l.96-.95v-1.91l-.96.95zm1.91-3.82 2.86-2.86h-1.91c.63.64.63 1.29 0 1.91l-.95.95zm2.87 211.98c0-1.91-.33-2.86-.95-2.86 0 1.28.31 2.23.95 2.86zm0-223.43c.63 0 .96.32.96.95l-.96-.95zm0 3.81c.63 0 .96.33.96.96v.95c0-.62.31-1.43.96-2.38.62-.96.62-1.75 0-2.39-.01.64-.65 1.6-1.92 2.86zm1.91 226.3v-.95c0-1.27-.33-1.91-.96-1.91v-.95l.96-.96c1.27 1.29 1.58 2.86.95 4.77 0 .64.63 1.29 1.91 1.91l-.96.95h-.96c0-1.27-.33-1.91-.95-1.91v-.95zm1.91-239.67.96.96h-.96v-.96zm0 244.45c0-1.27.31-1.91.96-1.91 0 .64.31 1.76.95 3.35.63 1.59.63 2.71 0 3.34-.64 0-.95-.63-.95-1.91l-.96-2.87zm2.86 8.59v-.95l.96.95v2.86c-.64.01-.96-.95-.96-2.86zm2.87-253.99c-.64-.62-.64-1.58 0-2.86-.64 0-1.29.33-1.91.96v1.91h1.91zm.95 263.54v.96h-.95c0-.63.31-.96.95-.96zm-.95 1.91c1.27 0 1.91.33 1.91.96l-1.91-.96zm1.91 2.86c.63 0 .96.33.96.96l-.96-.96zm0 1.91h.96v1.91c-.65.01-.96-.62-.96-1.91zm.95 3.82h.95c.63.64.96 1.59.96 2.86v.96c-.64 0-.96-.31-.96-.96.63-.63.63-.96 0-.96-.63-.61-.95-1.25-.95-1.9zm3.82-290.27c.63-.62.63-.95 0-.95v.95zm.96-10.51c.63 0 .96.33.96.96-.65 0-.96-.31-.96-.96zm1.9 1.91v2.86-3.82.96zm1.92-10.5c1.27 1.29 1.27 2.55 0 3.82-1.29-1.27-1.29-2.54 0-3.82zm4.77 378.13c0 .64.31 1.12.96 1.43.62.33.95.8.95 1.43h.96c-.64 0-.96-.31-.96-.96v-1.91c0 1.29-.64 1.29-1.91.01zm4.77 8.59h.96v.95c-.64 0-.96-.31-.96-.95zm0 7.64c.63.64.96.64.96 0 .63-.63.63-.96 0-.96l-.96.96zm.96 7.64h.95c0-1.27-.32-1.91-.95-1.91v1.91zm3.82 6.68.96.95c0-1.27-.33-2.22-.96-2.86v1.91zm.95 4.77c0-1.91-.33-2.86-.96-2.86v.96c.01.63.32 1.28.96 1.9zm0 0c0 .64.31.96.96.96 0-1.27-.33-1.91-.96-1.91v.95zm11.46 50.61-.96-2.86c.01 1.28.32 2.24.96 2.86zm.95-21.01h.96c0 1.29-.33 1.91-.96 1.91v-1.91zm.96 9.56c.63 0 .96.64.96 1.91l-.96-1.91zm.96-2.87v1.91-1.91zm1.91 6.68c.63 0 .63.33 0 .96.63 0 .96.64.96 1.91h-.96v-2.87zm1.9-540.45v1.91c-.64 0-.95-.31-.95-.95 0-.63.32-.96.95-.96zm-.95 545.23c.62 0 .95.33.95.96-.63.63-.95.32-.95-.96zm.95 5.72c.63 0 .96.33.96.96 0 .64-.33.96-.96.96v-1.92zm1.92 7.65h.95v1.91c-.64-.63-.95-1.27-.95-1.91zm2.86-566.24.95-.96v-.95h-.95c.62 0 .62.32 0 .95-.64.65-.64.96 0 .96zm0 583.42h.95l-.95.96v-.96zm.95-1.91c0-.63.31-.96.96-.96.63 0 .96.33.96.96 0 .64-.33.96-.96.96h.96v1.91c-.64 0-.96-.63-.96-1.91-.64 0-.96-.31-.96-.96zm1.92 4.78c.62 0 1.1.48 1.43 1.43.31.96.15 1.76-.48 2.39l-.95-1.91v-1.91zm1.9 5.73-.96-.95c.64-.63.96-.32.96.95zm0 0c.63 0 .96.33.96.96 0 .64-.33.95-.96.95-.64-1.27-.64-1.91 0-1.91zm0 2.86h.96v1.91c-.64 0-.96-.31-.96-.95v-.96zm.96 3.82h.95v.95h-.95v-.95zm1.91 3.82c.63.64.96 1.6.96 2.86-.65 0-.96-.95-.96-2.86zm.96 3.82c.62.64.95 1.59.95 2.86-.65 0-.95-.95-.95-2.86zm.95 3.82h.96v.95c-.65 0-.96-.31-.96-.95zm1.91 2.86c-.64 0-1.28-.31-1.91-.95.63.64 1.27.95 1.91.95zm0 1.91c-.64 0-.95-.63-.95-1.91.62 0 .95.64.95 1.91zm0 0v.95c0-.62-.32-.95-.95-.95h.95zm0 1.91h.96v2.86c-.65-.62-.96-1.57-.96-2.86zm1.91 5.73c-.64 1.91-.33 2.86.95 2.86-.64-.62-.95-1.57-.95-2.86zm12.41 30.56h.96l.96.95v.96c-1.29 0-1.92-.63-1.92-1.91zM127.42 1060.29H1335.26c8.12 0 21.3-12.27 7.66-12.27H135.08c-8.12 0-21.3 12.27-7.66 12.27zM394.37 41.61c3.64-2.3 6.8-6.38 6.79-10.83-.01-5.16-3.08-8.94-7.96-10.58-10.07-3.4-30.08 4.02-26.78 17.34 8-3.66 16.01-7.33 24.01-10.99-2.16-1.64-4.32-3.29-6.48-4.93-2.26-1.72-6.47-1.94-9.1-1.71-3.35.3-7.46 1.57-10.17 3.64-4.56 3.47-7.04 8.8-1.75 12.82 2.16 1.64 4.32 3.29 6.48 4.93 4.12 3.14 12.03 1.92 16.28-.21 3.86-1.94 8.97-5.77 7.73-10.78.28 1.12-.79 2.42-1.43 3.14-.87.97-15.78 7.51-18.22 1.01.53 1.4.67-1.48.15.05.51-1.49 1.6-2.94 2.93-3.79-4.33 2.74-7.29 9.62-1.75 12.82 5.99 3.45 13.78 1.54 19.27-1.93zM491.15 19.48c1.33-1.99 4.42-3.46 6.44-3.9 1.61-.18 3.22-.37 4.83-.55 1.79.36 2.08.34.86-.07-5.38 5.36-10.77 10.72-16.15 16.09 7.23 1.54 15.2.25 21.41-3.92 3.9-2.62 7.85-6.61 8.14-11.58.36-6.21-7.08-7.65-11.98-7.02-3.53.46-7.27 1.46-10.19 3.57-1.99 1.43-4.8 3.62-4.96 6.3-.1 1.72-.47 1.5.47.2 2.56-3.54 9.59-4.42 13.26-3.64-6.28-1.34-14.59.16-19.09 5.11-1.61 1.77-3.17 4-2.48 6.55.69 2.56 3.21 3.57 5.42 4.43 9.99 3.85 23.63-1.33 29.42-9.98 3.59-5.37-3.09-9.13-7.69-9.32-6.47-.27-13.96 2.11-17.71 7.73zM639.73 15.98c-6.51-5.01-16.65-2.93-23.6-.16-6.07 2.43-12.19 6.39-12.34 13.45-.06 3 6.43 2.97 7.98 3.04 7.27.31 22.63-3.92 22.3-13.64-.25-7.6-12.93-7.23-18.01-6.54-6.31.85-22.66 5.09-20.15 14.49.87 3.26 4.25 4.99 7.33 5.38 6.83.86 15.3-1.23 20.65-5.7 1.27-1.07 3.43-3 2.89-5.01-.52-1.94-3.39-2.71-5.01-2.89-6.1-.71-14.27 1.08-19.09 5.11-.17.14-.33.28-.5.41 1.86-1.01 3.71-2.02 5.57-3.03-.18.06-.35.13-.53.19l10.55-2.22c-.18 0-.36-.01-.54-.01 1.79.24 3.59.47 5.38.71.83.61.9.6.22-.01.29.37.28.21-.04-.48-2.27 5.1-7.43 7.11-15.46 6.01.64.07 1.28.18 1.91.31 0 0-3.85-2.07-2.18-.09.03-.6-.03-.54-.17.19.82-1.29 1.96-2.26 3.44-2.92 3.42-1.12 6.83-2.23 10.25-3.35l2.21-.21c2.66 1.01 5.32 2.02 7.98 3.04.02-1.13.68.06-.3.22-3.73 3.41-8.57 4.75-14.52 4-.51-.04-1-.15-1.47-.34 4.55 3.5 12.87 1.46 17.65-.54 2.11-.88 12.12-5.92 7.6-9.41zM735.62 11.14c-9.31 1.45-21.85 5.93-24.99 15.95-1.08 3.45 4.09 3.91 6.24 3.94 5.12.08 10.54-1.29 15.09-3.63 4.84-2.48 9.67-4.96 14.51-7.45 2.15-1.11 5.87-3.13 5.53-6.09-.56-4.95-5.82-7.27-10.26-7.36-6.51-.13-13.71 1.19-19.09 5.11-1.33.97-3.52 2.66-3.01 4.58.49 1.82 3.42 2.43 4.9 2.46-1.65-.03-.63-.95-.29.12.25.79.66 1.39.76 2.31 1.84-2.03 3.69-4.06 5.53-6.09-4.84 2.48-9.67 4.96-14.51 7.45 7.11.1 14.22.21 21.33.31.32-1.02.77-2.09 1.19-2.62.18-.23.38-.44.59-.64.39-.39.41-.41.07-.06-.49.55-1.12.91-1.9 1.08a17.238 17.238 0 0 1-6.31 2.14c3.45-.54 7.16-1.66 10.27-3.29 1.64-.86 4.75-2.61 5.41-4.64 1.66-5.09-9.09-3.89-11.06-3.58zM849.46 6.36c-7.18 2.88-14.35 5.75-21.53 8.63-4.48 1.8-12.37 7.81-5.45 11.94 11.98 7.15 35.71-.15 39.17-14.47 2.36-9.75-24.77-5.69-26.98 3.44-.08.33-.26 1.31-.38 1.22-.35.48-.37.54-.07.17.27-.36.62-.64 1.04-.84 2.6-1.32 5.05-1.72 7.9-2.12.85-.12 2.55.67.83-.36-1.82 3.98-3.63 7.96-5.45 11.94 7.18-2.88 14.35-5.75 21.53-8.63 3.39-1.36 11.27-6.27 7.23-10.71-3.97-4.39-13.36-2-17.84-.21zM954.87 17.52c-5.52-3.05-12.98-2.29-18.81-.73-5.84 1.56-12.67 4.64-15.92 10.04-2.24 3.74.13 6.29 4.11 6.88 5.76.86 11.52-.85 16.61-3.42 4.96-2.5 9.91-5 14.87-7.5 2.16-1.09 6.17-4.1 5.26-7.1-.79-2.6-1.57-5.21-2.36-7.81-1.58-5.23-11.45-3.6-15.14-2.53-3.15.91-6.59 2.12-9.06 4.36-1.43 1.3-3.45 3.23-2.79 5.41.79 2.6 1.57 5.21 2.36 7.81 1.75-2.37 3.51-4.73 5.26-7.1-4.96 2.5-9.91 5-14.87 7.5 6.91 1.15 13.81 2.31 20.72 3.46.22-.37.75-.89.87-1.28-.68 2.2-4.74 2.9-6.67 3.42-1.45.61-2.95.83-4.5.67-.88.22-1.71.17-2.51-.15-.59-.21-.63-.21-.12-.01.36.14.71.31 1.04.52 2.3 1.27 6.42.99 8.82.66 3.36-.45 7.32-1.6 10.23-3.41 3.75-2.3 8.07-6.67 2.6-9.69zM1048.31 4.41c-9.43-4.37-20-5.43-30.18-3.44-4.03.79-20.1 5.46-14.43 12.54 4.24 5.3 10.48 8.46 17.11 9.63 3.95.7 8.06.7 12.04.23 2.29-.27 4.59-.76 6.8-1.39 1.18-.4 2.35-.8 3.53-1.2 4.34-1.42 1.91-1.23-7.29.6-1.42-.66-2.83-1.32-4.25-1.97.02-.09.03-.18.05-.27.32-1.27.64-2.54.95-3.82l-.33.42 7.26-5.19c3.92-.55 7.85-1.11 11.77-1.66 1.42.66 2.83 1.32 4.25 1.97-.06-.09-.12-.18-.18-.26-.59 2.44-1.17 4.89-1.76 7.33.13-.13.26-.27.39-.4 3.78-3.88 3.25-8.11-2.49-9.31-5.78-1.21-14.81.74-19.09 5.11-.13.13-.26.27-.39.4-2.23 2.28-3.75 4.38-1.76 7.33 3.59 5.29 15.4 2.08 19.83.25 4.91-2.03 12.72-8.46 5.69-13-3.09-2-7.29-2.1-10.85-1.71-3.82.42-7.18 2.3-10.87 2.85 3.64-.54 2.65-.59.34-1.62-2.37-1.06-4.07-2.81-5.67-4.81l-14.43 12.54c4.65-.91 8.09-.3 12.42 1.71 5.76 2.67 13.93.56 19.1-2.59 3.54-2.13 8.28-7.56 2.44-10.27zM1170.77 6.72c-5.66-5.17-14.19-5.22-21.33-4.1-8.31 1.31-18.61 4.43-24 11.39-1.22 1.58-1.69 2.2-.44 3.8 9.28 11.91 30.13 5.43 40.67-.62 1.05-.6 3.55-2.56 3.11-4.21-.46-1.72-3.56-2.01-4.8-2.09-6.55-.46-13.49 1.9-19.09 5.11 3.42-1.95 7.01-3.04 10.75-3.25.24-.03.49-.04.73-.02-.41-.29-1.25-.35-1.73-.58-1.72-.8-3.11-2.21-4.25-3.68-.15 1.27-.29 2.53-.44 3.8 1.05-1.35 1.97-1.44.11-.93-1.26.34-8.43 3.25-8.74 2.21-.53-.07-.5-.04.11.09.22.09.45.14.69.15 1.14.76 2.22 1.35 3.25 2.29 1.45 1.32 5.31 1.11 6.92 1 3.47-.22 7.29-1.08 10.52-2.34 2.06-.81 11.64-4.66 7.96-8.02zM365.54 2033.87c-.48 1.48-2.25 2.82-3.47 3.65-2.69.92-5.37 1.83-8.06 2.75-1.92.44-3.71.3-5.39-.43-1.53-.25.29.34-.66-.34-.76-.54-.09.83-.62-.6 2.06 5.52 10.92 4.73 15.38 3.42 3.16-.93 6.63-2.23 8.99-4.62 1.45-1.46 3.47-3.76 2.62-6.04-2.44-6.56-10.38-7.57-16.49-6.91-7.52.81-16.82 4.51-19.33 12.35-.69 2.16 1.12 4.15 2.81 5.06 2.48 1.33 6.26 1.45 8.93 1.07 5.6-.78 13.35-3.32 15.29-9.36zM461.37 2026.3c-4.06 1.96-10.06 7.33-4.2 11.08 4.24 2.72 11.32 1.23 15.71.1 4.53-1.17 8.53-3.07 12.53-5.45 1-.6 3.63-2.78 3.05-4.43-2.23-6.29-13.4-3.87-17.94-2.67-4.75 1.25-15.09 4.46-14.45 11.1.17 1.77 3.85 2.22 4.86 2.31 3.17.3 6.9-.3 9.92-1.16 3.18-.91 6.45-2.03 9.17-3.95 1.47-1.04 3.24-2.42 3.05-4.43.12 1.28-4.81 3.76-3.85 3.33-2.21.83-4.43 1.65-6.64 2.48-5.89 3.46-9.61 3.45-11.18-.03-.17-.38-.15-.29.07.26l3.05-4.43c1.94-.82 3.87-1.63 5.81-2.45l6.99-1.17-.88.06c1.77.14 3.53.27 5.3.41.37.06.21 1 .19.28-.05-1.59-.3-.05-.84.57-1.46 1-2.92 2-4.38 3.01.17-.08.34-.16.5-.24 2.75-1.32 8.84-5.96 3.1-7.82-5.79-1.86-13.78.75-18.94 3.24zM573.32 2020.3c-8.49 1.79-19.16 8.28-17.8 18.26.28 2.07 3.61 3.04 5.12 3.31 10.93 1.99 22.32-1.45 31.18-7.85 1.45-1.05 3.32-3.44 2.78-5.43-.55-2.06-3.33-3.04-5.12-3.31-6.67-1.01-13.71 1.23-19.09 5.11 1.41-1.02 2.94-1.62 4.65-1.97.75-.2 1.51-.3 2.28-.31 1.35.15 1.37.12.06-.09 1.71 1.1 3.42 2.21 5.12 3.31-.11-.8-.09-1.29.41-2.24-.3.64-.19.56.35-.24-1.83 1.89-4.05 3.16-6.64 3.82 3.65-.77 13.23-4.61 11.84-9.8-1.43-5.41-11.78-3.27-15.14-2.57zM698.66 2033.12c-9.27-11.25-28.2-9.94-38.99-1.73-3.11 2.37-7.03 7.16-3.68 11.06 5.95 6.93 16.57 6.47 24.35 3.28 6.42-2.64 13.27-9.01 11.3-16.73-4.73-18.47-38.21-7.95-33.68 9.79 1.56 6.12 11.02 6.11 15.73 4.71 4.76-1.42 12.88-5.61 11.27-11.94-.27-1.06-.3-1.18-.09-.35-.61 2.06-2.17 3.45-4.66 4.16l-13.71 1.38c.22.09-2.96-1.07-2.19-1.66.09.25.17.5.26.76.17.91.21 1.04.11.4-.11-.29-.06-.56.14-.81.82-2 2.44-3.37 4.85-4.13 3.16-.36 6.32-.73 9.48-1.09.62.17 1.18.45 1.69.84-1.23 3.69-2.46 7.37-3.68 11.06 1.18-.85.94-.76-.72.25-2.13.67-2.45.79-.96.38-1.15.37-2.32.5-3.52.38 1.12.12 1.21.11.26-.05-.94-.2-.87-.15.22.13-1.15-.58-1.18-.59-.09-.02.92.66 1.01.65.27-.01.44.42.84.86 1.21 1.35 4.06 4.92 13.09 3.89 18.16 1.36 4.11-2.06 10.93-7.6 6.67-12.77zM775.13 2022.43c3.31.15 6.63.31 9.94.46l.99.78c-1.14-1.11.57 1 .01.17-.47-.69.26-1.07-.17-.32-1.85 3.25 4.06 2.68-5.59 6.2-2.39.64-4.78 1.28-7.18 1.92-2.17.25-4.21-.07-6.1-.97-.99-.94-1.14-1.02-.44-.27-.47-1.13-.55-1.24-.24-.34-.16-.78-.04-1.51.36-2.2 1.35-1.4 2.71-2.8 4.06-4.2-3.38 2.8-6.69 6.16-5.62 10.95.98 4.42 6.01 6.68 10.13 6.9 6.16.32 13.37-1.65 17.65-6.35 3.17-3.48 4.19-7.64 1.48-11.64-1.43-2.13-5.22-2.98-7.5-3.17-3.39-.28-7.57.47-10.62 1.97-4.53 2.22-10.44 7.03-6.76 12.47-1.18-1.99-.92-3.84.78-5.54 1.8-1.23 3.6-2.45 5.4-3.68-.18.08-.37.17-.55.25 2.39-.64 4.78-1.28 7.18-1.92-.21.01-.41.02-.62.04l6.51.48c2.59.81 5.12 3.15 3.55 5.71-1.35 1.4-2.71 2.8-4.06 4.2 3.22-2.66 5.94-5.37 5.76-9.76-.1-2.46-1.12-4.64-2.91-6.37-6.62-6.37-18.06-5.01-25.19-.27-4.54 3.02-8.37 8.4-5.94 13.98 3.43 7.89 12.65 8.36 20.04 6.68 4.72-1.07 12.94-5.71 11.33-11.7-1.69-6.23-11.11-5.49-15.68-4.46zM873.18 2040.1c4.64.9 9.49 2.29 14.23 2.33 7.47.06 17.29-2.41 21.22-9.52 2.42-4.37.43-8.9-3.77-11.17-7.91-4.28-20.09-.42-24.83 6.89-3.51 5.4 3.03 9.19 7.7 9.38 6.43.27 14.05-2.1 17.72-7.75.09-.15.19-.29.28-.44-1.36 1.37-2.73 2.73-4.09 4.1.12-.08.24-.16.37-.24-3.4 1.19-6.79 2.38-10.19 3.57l.42-.06c-2.16-.14-4.33-.27-6.49-.41-1.65-.34-2.33-1.21-3.2-2.4 15.17-5.79 19.57-8.85 13.23-9.16 1.63.28 1.92.33.88.13-2.43-.53-4.9-.95-7.34-1.42-6.34-1.23-14.54.07-19.09 5.11-1.61 1.78-3.16 4.02-2.47 6.58.62 2.36 3.18 4.05 5.42 4.48zM988.92 2032.4c.75-.43 1.49-.86 2.24-1.28 2.39-.64 4.78-1.28 7.18-1.92-.11.01-.23.01-.34.02 2.18.21 4.37.42 6.55.62 1.98.39 3.31 1.38 4.01 2.96.34.78.44.93.3.44-.23-.88-.34 2.1.04.62-1.05 4.17-5.86 6.35-9.87 7.28-2.38.55.24.04.68 0 5.32-.55 11.24-1.81 15.38-5.44 2.09-1.84 4.43-3.83 4.82-6.82.32-2.48-1-5.02-3.14-6.29-5.34-3.16-14.57-2.29-19.3 1.85-1.24 1-.72.83 1.57-.52a8.875 8.875 0 0 1 4.22-1.44c-.52-.05-1.17.1-1.69.16-3.02.33-5.86.93-8.7 1.96-5.19 1.88-10.36 5.83-11.24 11.64-.55 3.67.91 7.28 3.92 9.43 5.89 4.2 15.66 2.1 20.99-2.02 4.04-3.13 7.48-9.67 1.68-13.11-5.61-3.31-14.24-2.04-19.3 1.86zM1104 2029.22c-10.23-4.61-25.51-.58-32.02 8.62-2.27 3.21-.27 6.04 3.05 7.16 4.65 1.58 10.44.45 14.83-1.4-2.3.44-4.59.89-6.89 1.33-2.78-.77-3.54-.88-2.26-.33.01.02.61.49.85.75 3.23 3.38 10.38 2.59 14.33 1.43 4.03-1.18 10.7-3.67 11.7-8.41.17-.8.77-1.87.76-2.13.41-.57.38-.54-.09.07-2.07 1.65-4.51 2.59-7.32 2.81 5.01-.85 14.07-3.15 15.35-9.13 1.26-5.86-8.17-6.31-11.64-5.72-9.77 1.67-21.76 6.62-24.05 17.51 8.68-2.32 17.35-4.65 26.03-6.97-6.92-7.24-19.06-5.73-27.41-2.22l17.88 5.76c-.81 1.15-13.33 4.44-14.6 3.87 5.74 2.58 14 .8 19.11-2.54 3.41-2.22 8.39-7.76 2.39-10.46zM1214.63 2022.18c-7.11-2.79-14.55-2.18-21.89-.51-7.51 1.71-16.16 4.65-21.51 10.55-.68.75-2.29 2.43-.57 3.3 8.33 4.22 19.34 1.81 27.63-1.23 6.72-2.46 14.82-6.39 16.94-13.87 1.24-4.37-8.75-2.55-10.68-2.17-3.52.7-7.03 1.67-10.3 3.17-1.61.74-5.07 2.09-5.59 3.94-.09.33-2.39 5.93-3.22 5.24.42-.36.89-.64 1.41-.84 3.37-1.53 6.85-2.4 10.44-2.61.86.05.76-.01-.29-.19-.24-.22-.53-.37-.86-.46l-.57 3.3c.59-.65 1.7-1.41 2.19-2.1-.75 1.07-6.53 2.09-5.37 1.78 2.28-.61-4.54 1.75-5.54 1.15.58.35 1.64.28 2.29.54 5.23 2.05 12.27.09 17.32-1.79 2.6-.96 5.53-2 7.6-3.91.73-.67 2.36-2.59.57-3.29z"/><path class="st0" d="M1336.25 1046.4c-23.39-8.28-50.6-21.07-53.6-45.7-.3-2.46-.14-5.35 1.83-6.85 1.24-.94 2.89-1.07 4.44-1.1 10.2-.17 20.43 2.96 28.79 8.8-4.9-7.2-9.92-14.65-11.6-23.2s.84-18.54 8.25-23.12c7.49-4.62 17.81-2.21 24.33 3.71s9.88 14.56 11.91 23.12c5.49 23.12 2.67 48.12-7.84 69.43 15.1-32.85 31.52-67.32 61.37-87.73 5.6-3.83 14.53-6.45 18.09-.68 1.3 2.11 1.34 4.74 1.14 7.21-.87 10.73-5.64 21.1-13.23 28.74a192.7 192.7 0 0 1 44.26-3.33c11.89.49 26.15 3.98 29.64 15.35 2.34 7.63-1.59 16.1-7.69 21.24-6.1 5.14-13.98 7.59-21.72 9.55-29.77 7.53-60.91 9.62-91.41 6.12 26.68-2.3 53.67-.56 79.94 4.61 11 2.17 22.38 5.19 30.67 12.74s12.3 20.92 6.12 30.28c-4.86 7.36-14.58 10.24-23.35 9.32-8.77-.91-16.86-4.95-24.73-8.92 1.85 9.09 15.83 8.51 21.95 15.49 5.08 5.79 2.71 15.62-3.38 20.34s-14.53 5.2-22.09 3.74c-22.52-4.36-39.03-23.07-53.73-40.67l-30.72-36.78c8.96 11.32 18.05 22.85 23.36 36.28s6.4 29.26-.55 41.92-23.29 20.49-36.61 14.92-18.34-26.13-7.25-35.37c-15.3 17.87-47.33 16.92-61.54-1.83-1.88-2.48-3.53-5.53-2.84-8.57.6-2.64 2.81-4.56 4.95-6.2 25.85-19.72 60.7-26.16 83.97-48.87M138.04 1049.81c15.36-10.88 30.61-21.91 45.75-33.1 6.03-4.46 12.3-9.26 15.32-16.13s1.38-16.4-5.4-19.6c-5.94-2.81-13.04.21-18.2 4.28s-9.6 9.3-15.66 11.84c1.6-10.45 3.17-21.3.19-31.44s-11.88-19.37-22.45-19.09c-9.73.25-17.81 8.47-21.03 17.65-3.22 9.19-2.63 19.22-1.99 28.93 1.22 18.71 2.45 37.41 3.67 56.12-3.39-21.02-14.36-40.74-30.45-54.69-10.73-9.3-25.74-16.23-38.95-11.03-2.6 1.02-5.15 2.62-6.39 5.13-2.11 4.3.5 9.64 4.34 12.52 3.83 2.88 8.63 4.08 13.03 5.97 9.87 4.24 18.03 12.3 22.38 22.12-20.24-12.48-45.81-15.96-68.65-9.34-7.25 2.1-15.71 8.73-12.27 15.45 1.34 2.62 4.15 4.1 6.83 5.32 28.4 12.94 61.67 14.84 91.36 5.21-24.41 9.24-49.7 19.06-67.64 38-3.27 3.45-6.39 7.49-6.81 12.22-1.02 11.55 14.67 17.96 25.59 14.08 10.93-3.87 18.69-13.43 28.27-19.97-9.61 9.16-16.72 24.43-9.16 35.35 8.1 11.7 27.7 8.55 36.79-2.4 9.09-10.95 10.58-26.14 11.69-40.33l1.5-19.23c-8.22 23.26.04 51.35 19.54 66.46 9.05 7.01 22.55 11.04 31.6 4.03 7.72-5.97 8.63-18.1 3.78-26.57-4.84-8.48-14.07-13.64-23.51-16.16 14.84 9.7 33 14.22 50.65 12.6 4.17-.38 9.21-1.93 9.96-6.05.41-2.29-.75-4.56-2.07-6.48-20.41-29.58-55.87-9.32-78.4-37.32"/></svg>