<svg version="1.1" id="Ebene_1" xmlns="http://www.w3.org/2000/svg" x="0" y="0" viewBox="0 0 1467 2048" style="enable-background:new 0 0 1467 2048" xml:space="preserve"><style>.st0{fill:#92c01a}</style><path class="st0" d="M1172.86 2048H313.44c-71.38 0-128.85-84.9-128.85-155.19v-714.68H82.18c-43.6 0-79.07-35.47-79.07-79.06v-55.21c0-10.5-.71-19.53-1.39-28.27-1.75-22.38-3.27-41.7 7.89-73.35 13.28-37.66 58.69-63.69 115.72-66.31l59.26-1.03V256.88C184.59 82.26 197.3 0 313.44 0h859.42c32.89 0 65.45 21.79 91.66 61.37 22.94 34.62 37.18 78.06 37.18 113.38v746.28h88.78c42.93 0 76.57 34.73 76.57 79.06v98.97c0 43.6-35.47 79.06-79.07 79.06h-86.28v714.68c.01 70.3-57.46 155.2-128.84 155.2zM313.44 8.78c-102.71 0-120.07 61.95-120.07 248.1v626.64l-67.76 1.17c-53.31 2.45-95.63 26.18-107.71 60.45-10.55 29.9-9.1 48.37-7.43 69.76.7 8.91 1.42 18.12 1.42 28.96v55.21c0 38.75 31.53 70.28 70.29 70.28h111.19v723.46c0 66.31 53.56 146.41 120.07 146.41h859.42c66.51 0 120.07-80.1 120.07-146.41v-723.46h95.06c38.76 0 70.29-31.53 70.29-70.28v-98.97c0-39.41-29.78-70.28-67.79-70.28h-97.56V174.75c0-65.54-53.79-165.97-120.07-165.97H313.44z"/><path class="st0" d="M940.58 806.38c-.61.6-.9 1.21-.9 1.8 0 .6.3.9.9.9v-2.7zM837.07 856.79v.9h.9c-.01-.59-.31-.9-.9-.9zM939.67 811.79c.59-.59.59-.9 0-.9v.9zM598.55 782.98c0-1.2-.31-2.09-.9-2.7v2.7c0-.59.3-.59.9 0zM597.65 782.98v3.6c-.6 1.21-.31 2.41.9 3.6v-3.6c0-1.8-.31-3-.9-3.6zM941.48 709.17v1.8c.59 0 .9-.3.9-.9 0-.59-.31-.9-.9-.9zM941.48 701.97c-.6 2.41-.6 4.5 0 6.3.59-2.99.59-5.09 0-6.3zM939.67 812.68l-.9 1.8c.6 0 .9-.58.9-1.8z"/><path class="st0" d="m598.55 791.98.9.9c0-.59-.31-1.49-.9-2.7 0 .61-.31.9-.9.9.59.01.9.31.9.9zM938.78 817.18c.59-1.19.59-1.8 0-1.8v1.8zM942.38 697.47v-.9c-.41.81-.47 1.27-.6 1.8h.6v-.9zM728.16 699.27c-.6 1.21-.6 1.8 0 1.8v-1.8zM732.66 728.98c.59-1.81.59-3 0-3.61v3.61zM731.77 719.97c0 .6.3 2.11.9 4.5l-.9-4.5zM598.55 775.78h-.9v1.8c0-.59.3-.9.9-.9v-.9zM732.66 686.67l-.9-.9c.01 1.21.3 1.51.9.9zM732.66 690.27c-.6-.59-.9-1.04-.9-1.35v-1.35h-.9c0 .6.14 1.2.45 1.8.3.61.75.9 1.35.9zM731.77 673.17v2.7c1.19 0 1.19-.9 0-2.7zM599.45 804.58v-1.8c0 .6-.31.9-.9.9v.9h.9zM598.55 794.68c.59 0 .9-.3.9-.9h-.9v.9zM727.68 691.05c.03-.11-.01-.21.03-.33.3-.9.14-1.35-.45-1.35.01.57.3 1.12.42 1.68zM727.27 692.98c0 1.2.29 1.8.9 1.8.59-.6.29-1.2-.9-1.8zM941.48 699.27c-.6 1.21-.6 2.11 0 2.7.59-1.19.59-2.09 0-2.7zM732.66 731.68v-.9c-.6.6-.6.9 0 .9zM947.78 764.98c.59 0 .9-.3.9-.9 0-.59-.31-.9-.9-.9v1.8zM945.98 659.67h.9c0-1.2-.31-1.49-.9-.9v.9zM947.78 640.77l.9-.9c-.6 0-.9-.59-.9-1.8-.61 1.21-.61 2.11 0 2.7zM946.88 692.07c-.6.61-.31 1.21.9 1.8 0-1.19-.31-1.8-.9-1.8zM949.57 737.08v-1.8c0 .6-.31.9-.9.9l.9.9zM947.78 649.76V653.37l.9-.9c-.6 0-.76-.45-.45-1.35.29-.9.14-1.36-.45-1.36zM945.08 659.67v-1.8c0 .6-.31 1.21-.9 1.8h.9zM944.63 705.58c-.31.6-.15.9.45.9l-.45-.9zM941.67 698.68c-.03.16-.2.46-.2.59.46 0 .46-.23.2-.59zM945.98 653.37c1.19-.59 1.49-1.19.9-1.8-.61.6-.9 1.2-.9 1.8zM945.08 701.97c-.61.61-.61 1.35 0 2.26.59.9 1.2 1.35 1.8 1.35-.61-1.2-1.21-2.4-1.8-3.61zM945.08 708.27c0 1.21.3 1.51.9.9 0-.59-.31-.9-.9-.9zM943.28 642.57v-8.1c-.61 4.2-.61 6.9 0 8.1zM942.91 630.67c.03.46.03.94-.09 1.55-.3 1.5-.15 2.25.45 2.25l.9-1.8c0 .6-.3.9-.9.9v-1.8c.01-.49-.26-.71-.36-1.1zM943.28 710.98c-.61 2.41-.61 4.2 0 5.4.59-3 .59-4.8 0-5.4z"/><path class="st0" d="M842.47 816.28c1.19 4.81 4.8 12.01 10.8 21.6 1.8 1.21 4.19 3.31 7.2 6.3 3 3.01 5.69 5.11 8.1 6.3h2.7c2.99-.59 5.09-.9 6.3-.9-.61.61-1.66.9-3.15.9-1.5 0-2.56.31-3.15.9 3.6 1.8 8.69 2.7 15.3 2.7 2.99 0 6.59-.3 10.8-.9.59 0 .59-.29 0-.9h2.7c3 0 7.79-.9 14.4-2.7l.9.9c6.6-2.99 10.5-6.89 11.7-11.7.59-2.39 1.49-3.89 2.7-4.5.59-1.81 1.49-4.19 2.7-7.2 1.2-3 2.09-5.09 2.7-6.3v-.9c.59 0 .9-.3.9-.9.59-.59 1.19-2.39 1.8-5.4.59-3 .9-5.4.9-7.2 0-1.2.14-3.15.45-5.85.3-2.7.45-4.64.45-5.85.59.6.59 3.01 0 7.2v.9c0 1.21.3 1.8.9 1.8 0-3.6.3-5.4.9-5.4 0 7.8-.9 17.1-2.7 27.91.59-.59 1.49-2.39 2.7-5.4.72-1.93 1.11-3.7 1.45-5.43.09-.61.35-1.05.35-1.75.24-1.93.28-3.75 0-5.42 1.19-.59 1.49-1.2.9-1.8-1.21-1.2-.9-2.7.9-4.5v-9c0-5.99-.31-11.4-.9-16.21.59-1.8.9-4.19.9-7.2v-6.3c0-3 .3-5.69.9-8.1-.6-1.19-.9-3-.9-5.4 0-1.19.14-3.44.45-6.75.3-3.29.45-5.85.45-7.65V725.38c.59-3.6.59-5.69 0-6.29h-.9c-.61 2.4-.61 3.6 0 3.6 0 .6-.15 1.21-.45 1.8-.31.61-.45 1.21-.45 1.81-.6-.59-.9-2.25-.9-4.95v-4.95c-.61 1.2-.76 3.76-.45 7.65.3 3.91.14 6.45-.45 7.65v.9c-.6 0-.9-.3-.9-.9h.9c0-1.8-.15-4.34-.45-7.65-.31-3.29-.45-5.85-.45-7.65v3.6c0 4.21-.31 7.2-.9 9-.61-2.39-.9-5.4-.9-9v-23.41c.59-7.2 1.2-12.9 1.8-17.1V609.29c.59-18.6.9-32.4.9-41.41 0-11.39-.31-21.89-.9-31.5 0-.59-.15-1.64-.45-3.15-.31-1.49-.15-2.84.45-4.05v-36c-.6-1.8-.9-3.9-.9-6.3 0-3.61.14-8.7.45-15.3.3-6.6.45-11.4.45-14.41v-9.9c-.6-2.39-.9-3.89-.9-4.5V418.47c0-7.2.3-12.29.9-15.3v-2.7c0-3-.15-6.44-.45-10.35-.31-3.9-.45-7.05-.45-9.45v-5.4c.59-14.4.9-22.8.9-25.2v-8.1c-.6-16.2-.9-29.7-.9-40.5 0-4.79-.31-11.71-.9-20.7-.6-9-.9-14.1-.9-15.3V250.17c-1.21-19.2-3.6-33.6-7.2-43.21-3.01-7.2-7.81-13.79-14.4-19.8-7.81-6.59-15.3-9.9-22.5-9.9-3.6-.59-8.7 0-15.3 1.8-13.21 4.21-23.4 11.71-30.6 22.5-7.2 10.22-11.11 29.11-11.7 56.71v54.01c.59 14.41.9 30.61.9 48.61v47.7c0 7.2-.15 21.76-.45 43.65-.31 21.91-.45 39.15-.45 51.76v108.91c.59 30.61.9 49.51.9 56.71V739.83c-.6 13.81-.9 23.11-.9 27.91v9c.59 12.6 1.8 23.4 3.6 32.41.59 3.53 1.19 5.94 1.8 7.13zm97.2-22.49c-.6 0-.6-.3 0-.9v.9zm0-30.61v-5.4c.59 0 .9.61.9 1.81 0-.59.3-.59.9 0v4.5c-.6 0-.9-.59-.9-1.8v-.9c-.61 0-.76.31-.45.9.3.6.15.89-.45.89zm1.36 15.3c.3 2.41.45 3.91.45 4.5 0 1.8-.31 2.7-.9 2.7v-12.6h.9c-.61 1.21-.76 3.01-.45 5.4zm-.45-12.6c.59.6.59.9 0 .9-.61 0-.61-.3 0-.9zm.9 23.4v3.6c0-.59-.31-1.2-.9-1.8 0-1.19.29-1.8.9-1.8zm0 6.3v1.8c-.61-1.19-.61-1.8 0-1.8zm2.69-29.7c-.6 0-.9-.3-.9-.9v-1.81c.59 0 .9.31.9.9v1.81zm0-5.4c-.6 0-.6-.59 0-1.8v1.8zm0-10.8c-.6 0-.6-.59 0-1.81v1.81zm0-4.51c.59-.58.59-1.19 0-1.8.59 0 .9.31.9.9.01.62-.3.9-.9.9zm0-3.59v-.9c.59 0 .9.31.9.9h-.9zm.91-.9c-.61 0-.61-.59 0-1.8.59.6.59 1.2 0 1.8zm-.91-13.51v3.6c-.6 0-.9-.59-.9-1.8.6-.58.9-1.19.9-1.8zm0 5.86v1.35c-.6 0-.9-.59-.9-1.8.6 0 .9.15.9.45zm-.89 11.25v.9l.9.9c-.6 0-.9-.14-.9-.45 0-.3-.16-.45-.45-.45-.31-.01-.16-.29.45-.9zm-.9 67.51h-.9l.9-.9c.59 0 .59.3 0 .9zm-.9-75.61v-2.7h.9v3.15c0 1.51-.31 2.26-.9 2.26v-2.71zm0 3.6h.9c0 .6-.31 1.21-.9 1.81v-1.81zm0 5.39v3.61c.59 2.41.3 3.6-.9 3.6v-.45c0 .9-.31 1.35-.9 1.35v-2.7c.59 0 .9.45.9 1.35v-3.6c0-2.1.29-3.16.9-3.16zm-1.81-2.69v-1.8h.9c0 .6-.16.9-.45.9-.3 0-.45.31-.45.9zm.91-11.7v3.6c-1.21 0-1.21-1.2 0-3.6zm-1.8 51.3h.9c-.6-.59-.9-2.7-.9-6.3l.9 6.3v.9c0 .6-.31.9-.9.9h.9v3.61l-.9-3.61v-1.8zm-42.31 64.81c.59.6.9 1.2.9 1.8-1.21-.59-2.7-.59-4.5 0-1.8.61-3.01.61-3.6 0l7.2-1.8z"/><path class="st0" d="M942.38 818.99c.59 0 1.04-.59 1.35-1.81.3-1.19.14-2.09-.45-2.7v.02c-.07.56-.24 1.17-.35 1.75-.15.95-.19 2.01-.55 2.74zM945.08 625.47h-.9c.59.6.9.6.9 0zM946.88 633.12c0-.9-.31-1.35-.9-1.35v2.7c.58 0 .9-.45.9-1.35zM946.88 629.96c0-1.19-.31-1.8-.9-1.8 0 1.21.29 1.8.9 1.8zM946.43 617.37c-.31.6-.15.9.45.9 0-.55-.28-.81-.41-1.23-.03.1.01.22-.04.33zM944.17 617.37v.9h.9c.01-.59-.3-.9-.9-.9zM945.08 637.62c0 .31-.31.45-.9.45v.9c.59.6 1.2.6 1.8 0-.6-1.2-.9-2.1-.9-2.7v1.35zM486.94 686.67h1.8c-.61-.59-1.21-1.2-1.8-1.8-.6.61-.6 1.21 0 1.8zM387.03 594.87c0-1.81-.31-2.7-.9-2.7 0 1.2.3 2.1.9 2.7zM386.13 638.07c0 .6.14 1.21.45 1.8.05.12.02.23.04.34l.41-1.23-.9-.91zM386.13 725.37c0 .61-.31 1.21-.9 1.8 0 .6.3.9.9.9v-2.7zM386.13 572.36v1.8c0 3.01.29 4.81.9 5.4 0-4.19-.3-6.6-.9-7.2zM386.13 615.57v3.6c.59-.59.9-1.65.9-3.15 0-1.49-.31-2.54-.9-3.15v2.7zM431.14 158.32h-.9v.9c.59 0 1.2-.3 1.8-.9h-.9zM518.45 189.82c-.6-3-1.21-4.5-1.8-4.5 0 .61.14 1.35.45 2.25.29.9.74 1.66 1.35 2.25zM504.04 166.42h-.89l.89.9zM386.13 809.09l.9 1.8c0-1.2-.3-1.8-.9-1.8zM386.13 736.18c.59-3.6.29-5.7-.9-6.3 0 3.01.3 5.1.9 6.3zM519.35 187.12c.59 3.01 2.39 7.8 5.4 14.4-1.21-5.39-3.01-10.2-5.4-14.4zM384.33 730.78l-.9.9c.59 0 .9.15.9.45 0 .31.3.45.9.45 0-1.2-.3-1.8-.9-1.8zM387.94 213.23c0 .6-.16 1.05-.45 1.35-.31.31-.15.45.45.45v-1.8zM388.39 805.03c-.31.9-.15 1.66.45 2.25v-1.8c0-.51-.27-.76-.39-1.16-.01.23.02.46-.06.71zM386.13 569.66c0 1.2.29 1.8.9 1.8v-.9c0-1.19-.31-1.8-.9-1.8v.9zM388.84 843.28c.59-.58.29-1.49-.9-2.7l.9 2.7zM392.43 835.18v-2.7h-.9l.9 2.7zM387.94 815.38c0-.59-.31-1.49-.9-2.7-.61.61-.31 1.51.9 2.7zM401.44 188.92l-.9.9c0 .6.3.9.9.9v-1.8zM399.19 194.32c.29-1.19.75-2.09 1.35-2.7-.6 0-1.05.16-1.35.45l-1.35 1.35-.9 1.8c.59 0 .9.31.9.9.59.01 1.04-.58 1.35-1.8zM396.93 197.02v1.8c1.2-1.19 1.2-1.8 0-1.8z"/><path class="st0" d="M387.94 816.28c0 1.21.14 3.91.45 8.1.3 4.2.74 7.2 1.35 9l-.9.9c.59.6 1.2 1.2 1.8 1.8-1.21-.59-1.8-.3-1.8.9.59.6 1.04 1.35 1.35 2.25.3.9.45 1.66.45 2.25 0-.59.3-.59.9 0v1.8c.59 0 1.04.61 1.35 1.81.3 1.21.75 1.8 1.35 1.8-.6 0-.9.31-.9.9v.9c.59 0 .9-.3.9-.9.59.6 1.65 1.66 3.15 3.15 1.49 1.5 1.94 2.86 1.35 4.05l.9.9c0-.59.3-.9.9-.9.59 0 1.49.76 2.7 2.25 1.19 1.51 2.39 2.56 3.6 3.16 0-.59-.31-1.49-.9-2.7-.6-1.2-.9-2.1-.9-2.7-2.41-1.8-4.5-5.25-6.3-10.35-1.8-5.09-3.01-7.94-3.6-8.55 0 1.21.45 3.31 1.35 6.3.9 3.01 1.35 5.4 1.35 7.2-1.21-1.8-1.8-3.29-1.8-4.5-.6-.59-1.21-2.1-1.8-4.5-.6-2.39-1.21-3.89-1.8-4.5v1.8c-1.8-6.59-2.4-10.8-1.8-12.6 0 1.21.3 1.81.9 1.81-.6-1.2-1.05-3-1.35-5.4-.31-2.39-.45-3.9-.45-4.51v5.4c-.61 0-1.05-.9-1.35-2.7-.32-1.81-.45-3.01-.45-3.62zm1.8 20.71c.59 0 .9.6.9 1.8l-.9-1.8zM393.34 821.69c-.61 1.2-.31 2.11.9 2.7-.01-.59-.31-1.5-.9-2.7zM481.55 687.57c0-.59.14-.9.45-.9.3 0 .45-.3.45-.9-.6 0-.9.31-.9.9v.9zM598.55 768.58v-2.7c0 1.21-.31 2.11-.9 2.7v.9l.36.18.54-1.08zM531.95 285.23c.59-1.2.3-2.1-.9-2.7v.9c0 1.21.29 1.8.9 1.8z"/><path class="st0" d="M597.65 769.48v.9l.36-.72c-.05-.09-.12-.18-.36-.18zM598.55 773.08v-1.81c0 .61-.31.9-.9.9-.6.6-.6 1.2 0 1.8 0-.58.3-.89.9-.89zM598.55 773.98h-.9l.9.9z"/><path class="st0" d="M598.01 769.66c.06.15-.01.37-.36.72h1.8l-1.44-.72zM600.32 801.02c-.56.03-.71.61-.41 1.77.3 1.21.14 2.11-.45 2.7l-.9.9.9.9c0 .6-.31.9-.9.9l.9.9v6.3c0-.59.3-.9.9-.9 0 .6-.31 1.21-.9 1.8h.9l.9.9c0 .61.14 1.81.45 3.61.3 1.8.45 3.01.45 3.6 1.8 1.2 2.09 2.41.9 3.6h.9v1.8c-.6 0-.9.31-.9.9 1.19-.59 2.09.31 2.7 2.7-.6 1.21-.6 1.8 0 1.8h.9c.59.6.9 1.21.9 1.81h-.9c0 .6.3 1.2.9 1.8h.9c0 .6.3.9.9.9v.9c.59 0 .9.31.9.9-.6 0-.9.31-.9.9.59 0 1.04.31 1.35.9.3.61.74 1.21 1.35 1.81l.9-.9c0 .6.45 1.35 1.35 2.25.9.9 1.65 1.66 2.25 2.25l-.9.9c1.2 1.21 2.39 1.5 3.6.9v1.8c.59.61.9.61.9 0 0 .61 1.49 1.51 4.5 2.7 0-.59-.45-1.2-1.35-1.8-.9-.59-1.35-1.2-1.35-1.8-1.21-.59-2.11-2.09-2.7-4.5h-.9c-.6-.59-1.21-1.2-1.8-1.8.59 0 .9-.3.9-.9-1.21 0-2.11-1.2-2.7-3.6 0-.59-.61-1.65-1.8-3.15-1.21-1.49-1.8-2.84-1.8-4.05-.61 0-.9-.3-.9-.9.59-.59.59-1.19 0-1.8-1.21 0-1.5-.9-.9-2.7-1.21-.59-2.11-2.7-2.7-6.3 0-1.81-.31-3-.9-3.6-.6-.59-.9-1.19-.9-1.8.59 0 .9-.3.9-.9-.6-1.19-.6-1.8 0-1.8 0-.6-.31-.6-.9 0l-1.8-3.61c.59 0 .9.16.9.45 0 .3.3.45.9.45-.61-1.8-.9-3.29-.9-4.5v-.9c-.6 0-.6.6 0 1.8v.9h-1.8c0-.59.59-.9 1.8-.9-1.21 0-1.8-.9-1.8-2.7 0 .6-.31 1.21-.9 1.8 1.19 1.8 1.8 3.91 1.8 6.3 1.19 2.41 1.49 4.81.9 7.2-.6-1.19-.9-2.09-.9-2.7-1.21 0-1.8-2.99-1.8-9v-2.7c-.6-.59-.9-1.94-.9-4.05-.01-.2-.04-.29-.04-.44zm5.43 24.26.9 2.7h-.9l-.9-.9c0-1.19.3-1.8.9-1.8zM700.26 181.72c.59 0 1.49.6 2.7 1.8v-.9c-.53-.68-1.2-1.2-1.8-1.8-.6 0-.9.31-.9.9zM729.07 686.67v-.9l.9.9c0-.59-.31-1.2-.9-1.8-.61 1.21-.61 1.8 0 1.8z"/><path class="st0" d="m631.86 831.59.9.9c1.2 3.6 3 6.3 5.4 8.1 0 1.21.45 2.41 1.35 3.6.9 1.2 1.64 1.5 2.25.9-.6.6-.31 1.21.9 1.8v.9c.59-.59.9-.75.9-.45 0 .31.29.16.9-.45 0 .6-.31.9-.9.9.75.61 1.47 1.03 2.21 1.6.46-.25.93-.25 1.39.2-.22.22-.44.27-.66.33 8.48 6.27 16.52 9.57 24.06 9.57h.9c0-.59.3-.9.9-.9h1.8c1.19-.59 2.09-.9 2.7-.9.59 0 .9.31.9.9 8.4-2.39 12.9-3.89 13.5-4.5h.9c2.39 0 5.09-1.04 8.1-3.15 2.99-2.09 4.79-3.44 5.4-4.05 0 1.2-.6 2.11-1.8 2.7-1.21.61-1.8 1.21-1.8 1.8l.9-.9h.9c1.2-1.19 2.7-2.99 4.5-5.4 1.8-2.39 3-4.19 3.6-5.4.59 0 .75-.15.45-.45-.31-.3-.45-.75-.45-1.35 5.99-7.2 10.49-22.19 13.5-45V771.29c0-8.39.3-15.59.9-21.6v-16.21c.59-.59.9-1.2.9-1.8-.61-1.2-.76-3.15-.45-5.85.3-2.7.14-4.64-.45-5.85v-1.8c-.6-.59-.6-.9 0-.9-.6-1.19-.76-3-.45-5.4.29-2.39.45-4.19.45-5.4V687.58l.9.9c.59-.59.74-1.8.45-3.6-.31-1.8-.15-2.7.45-2.7l.9.9v-3.6c0 1.21-.31 1.8-.9 1.8-.6 0-.9-.9-.9-2.7.62-.2.9-.41 1.23-.61-.11-.09-.19-.13-.34-.28v-5.4c-.6-.59-.76-1.49-.45-2.7.3-1.2.14-2.1-.45-2.7 1.19 0 1.19-.59 0-1.81-.61 2.41-1.21 3.91-1.8 4.51 1.19 0 1.8.31 1.8.9h-.9v.9c-.6 0-.9-.59-.9-1.8v-32.86c0-7.49.3-13.35.9-17.55-.6 0-.9-.14-.9-.45V615.58c.59-3.6.59-6.89 0-9.9v-48.6c-.61-.59-.61-.9 0-.9v-22.05c0-9.9.14-18.9.45-27.01.29-8.1.45-15.14.45-21.15-.6-4.79-.9-12.29-.9-22.5v-3.6c0-3-.16-6.3-.45-9.9-.31-3.6-.45-6.59-.45-9 0-1.2.29-2.99.9-5.4v-7.2c0-5.99-.31-12.29-.9-18.9 0-12 .14-28.8.45-50.41.3-21.6.45-34.79.45-39.6v-12.6c-.61-1.2-.9-2.39-.9-3.61 0-3 .14-7.2.45-12.6.3-5.4.45-9.3.45-11.71 0-5.4-.31-9.9-.9-13.5.59-4.8.29-8.7-.9-11.71v-2.7c-.6-1.19-.9-2.09-.9-2.7.59-.59.9-1.2.9-1.8-.6-1.2-1.21-3.74-1.8-7.65-.61-3.89-.9-6.74-.9-8.55 0-1.19-.31-1.8-.9-1.8 1.19-3 .9-4.8-.9-5.4-1.21-9-5.71-19.2-13.5-30.61-2.41-4.18-3.91-6.89-4.5-8.1l1.8.9c-2.41-1.8-3.6-3.29-3.6-4.5h1.79c-4.2-4.2-10.12-6.67-18-7.2h-9.9v.9h-.9c-1.21 0-3.15.6-5.85 1.8-2.7 1.21-4.66 1.8-5.85 1.8l-5.4 3.6c-2.41 1.8-4.81 4.21-7.2 7.2-.6 1.21-1.21 1.81-1.8 1.81-3.01 4.2-5.4 8.1-7.2 11.7v.9c-.6 0-.9.31-.9.9-.61 1.21-1.51 3.31-2.7 6.3-1.21 3.01-2.11 5.11-2.7 6.3v.9c0 .61-.31 1.21-.9 1.8v1.8h.9c-1.8 3.01-2.7 5.4-2.7 7.2.59-.59.9-.59.9 0 0 .6-.31 1.5-.9 2.7-.6 1.21-.6 1.8 0 1.8 0 .6-.31 1.21-.9 1.81-.61 4.81-.9 9.9-.9 15.3s-.15 11.41-.45 18c-.31 6.61-.45 11.7-.45 15.3V380.65h.9c-.6 0-.9 1.21-.9 3.6v4.5l.9-.9h.9c0 .61-.61.9-1.8.9l.9 2.7c-.6 0-.9.31-.9.9v19.35c0 .31.3.76.9 1.35-.6 6.01-.9 15.16-.9 27.45 0 12.31-.31 21.76-.9 28.35v14.4c0 12.01-.31 26.1-.9 42.31 0 4.21-.15 10.51-.45 18.9-.31 8.41-.61 16.2-.9 23.4-.31 7.2-.45 13.81-.45 19.8v3.6c0 1.8.14 4.66.45 8.55.29 3.91.45 7.06.45 9.45h-.9c-.61 1.8-.31 3.01.9 3.6-.6 3.01-.9 6.9-.9 11.7v15.3c-.61 7.2-.9 12.91-.9 17.11v11.7c.59 3.6.9 7.51.9 11.71 0 5.39-.16 13.36-.45 23.85-.31 10.5-.45 19.05-.45 25.65 0 .6.14 1.35.45 2.25.3.9.45 1.66.45 2.25 0 .6-.16 1.8-.45 3.6-.31 1.8-.45 3.01-.45 3.61V783.89l.9.9c-.61 0-.9.31-.9.9 1.21 19.79 4.2 35.1 9.02 45.9z"/><path class="st0" d="M729.07 674.07v-2.7c0 .6-.31.9-.9.9.59 0 .9.61.9 1.8zM600.31 800.91c-.06-1.75-.32-2.98-.85-3.53-.6 1.19-.3 2.36.85 3.53zM536.45 340.14v.9c.59-.59.59-.9 0-.9zM536 363.54c-.31.6-.15.9.45.9 0-.72-.15-1.15-.36-1.44.02.14.03.3-.09.54zM535.55 298.73c0-1.2-.31-1.8-.9-1.8 0 1.21.29 1.8.9 1.8zM535.55 296.03l-.9-1.8c0 1.21.29 1.8.9 1.8zM536.45 334.74v4.5c0-.59.14-1.49.45-2.7.29-1.2.14-1.8-.45-1.8zM446.44 155.62h-2.7c.59.6 1.49.6 2.7 0zM487.85 698.37c.59 0 .9-.3.9-.9h-1.8c-.01.61.29.9.9.9zM530.15 224.92c0 .61.3.9.9.9l-.9-1.8v.9zM536.45 330.24c.59-.59.9-1.49.9-2.7v-1.81c-.6.6-.9.6-.9 0v4.51zM945.08 645.27c.59-.59.59-1.19 0-1.8v1.8zM729.07 715.48c.59.6.3 1.2-.9 1.8l1.8 1.81.9.9c-.6-.59-.9-1.35-.9-2.25 0-.92-.31-1.66-.9-2.26zM1176.4 521.05c-.6 1.21-.31 1.81.9 1.81 0-1.2-.31-1.81-.9-1.81zM1182.7 824.39c0-.59-.31-.9-.9-.9-.6.61-.9.9-.9.9h1.8zM1176.4 551.66c.59-1.2.59-1.8 0-1.8v1.8zM1178.2 505.75h-.9c-.61 1.81-.61 2.7 0 2.7l.9-2.7zM1178.2 368.04v-.9c0-.59-.31-.9-.9-.9 0 1.21.3 1.8.9 1.8zM1177.3 517.46c.59.6.9 1.2.9 1.8v-.45c0-.91-.31-1.35-.9-1.35zM1177.3 545.36c0 1.8.3 4.2.9 7.2 0-.59.14-1.8.45-3.6.3-1.81.14-3-.45-3.6h-.9zM1175.5 746.98c.59 0 1.2-.9 1.81-2.7h-.9c-.62.61-.91 1.5-.91 2.7zM1180.9 827.99c.59-1.19.59-1.8 0-1.8-.6 1.21-.6 2.41 0 3.6v-1.8zM1176.4 617.37c-.6 0-.9.45-.9 1.35 0 .9.3 1.35.9 1.35.59-.6.59-1.49 0-2.7zM1176.4 560.21c0 1.5.3 2.56.9 3.15v-2.7c0-1.8-.31-3-.9-3.6v3.15zM1177.3 727.17v-1.8h-.9c0 .61.29 1.22.9 1.8zM1178.2 566.96c.59-.59.59-1.2 0-1.8v1.8zM1176.4 512.05c-.6.61-.31 1.21.9 1.8l-.9-1.8zM1172.8 444.55v.9c-.61 0-.61.31 0 .9.59-1.2.59-1.8 0-1.8zM1170.1 703.77l-.9-1.8c-.61 1.21-.31 1.8.9 1.8zM1053.99 867.59c-.6-.59-1.21-.9-1.8-.9-.01.6.59.9 1.8.9zM1168.3 670.47v1.8c.59-1.2.59-1.8 0-1.8zM1174.6 445.45c-.6.6-.6 1.5 0 2.7v-2.7zM1057.58 871.19v-.9c-.6.61-.6.9 0 .9zM386.13 491.35v.9c-.6.6-.6.9 0 .9.6-1.19.6-1.8 0-1.8zM1177.3 548.96c-.61-1.2-1.21-1.81-1.81-1.81.59 0 .9.31.9.9.01.61.3.91.91.91zM1174.6 486.86c.59-.6.59-.9 0-.9v.9zM945.08 650.67c.59-.59.74-1.04.45-1.35-.31-.3-.45-.75-.45-1.35h-.9c.59.6.59 1.51 0 2.7h.9zM1175.5 444.55V448.16c.59-1.81.59-3.01 0-3.61zM1183.15 434.65c.3-2.39.14-3.61-.45-3.61-.61 4.21-.61 6.91 0 8.1 0-.59.14-2.09.45-4.49zM1182.7 472.45l-.9.9v.9l.9.9v-2.7zM1182.19 400.23c-.11-.75-.24-1.28-.39-1.58.21.42.29 1.01.39 1.58z"/><path class="st0" d="M1181.8 472.45h.9v-.9zM1182.7 421.15c0-4.19-.31-6.59-.9-7.2v9.9c0 2.41.3 4.5.9 6.3v-9zM1182.7 413.04c0-5.25-.14-8.93-.37-11.37.02.74.03 1.47-.08 2.37-.31 2.41-.45 3.91-.45 4.5-.61 2.41-.31 3.92.9 4.5zM1183.6 329.34c0-1.2-.31-1.8-.9-1.8 0 1.2.3 1.8.9 1.8zM1182.7 440.95c-.61 3.6-.31 6.61.9 9 0-5.4-.31-8.4-.9-9zM1183.6 378.85c0-1.81-.31-3-.9-3.61-.61 1.21-.76 3.01-.45 5.4.3 2.41.14 4.2-.45 5.4.59 4.2.59 8.1 0 11.7 0 .6.14.76.45.45.3-.3.75-.45 1.35-.45-.6-1.19-.9-3-.9-5.4 0-1.2.14-3.45.45-6.75.29-3.29.45-5.54.45-6.74zM1182.7 459.85c0 1.21.3 2.11.9 2.7 0-1.8-.31-2.7-.9-2.7zM1182.7 469.75c1.19-.59 1.19-1.49 0-2.7v2.7zM1182.7 486.86v-9l-.9.9v2.7c0 2.41.3 4.81.9 7.2v3.6l1.8-.9c-1.21-.6-1.8-2.1-1.8-4.5zM1182.7 316.73c-.61 0-.61.31 0 .9.59-.58.59-.9 0-.9zM1180.9 373.44v1.8c.59 0 .9-.3.9-.9 0-.59-.31-.9-.9-.9zM1182.7 336.54l-.9.9.9 1.8zM1181.8 517.46c.59 6.61.9 14.71.9 24.3v41.41c-.61.6-.9 3.31-.9 8.1 0 7.2.3 11.41.9 12.6.59-8.39.9-19.8.9-34.2 0-4.8-.15-10.8-.45-18-.31-7.2-.45-11.7-.45-13.5v-7.2c0-3.6.3-6.6.9-9-.6-3.6-.9-6.89-.9-9.9 0-2.39.3-3.9.9-4.5v-7.65c0-3.29-.31-5.85-.9-7.65V503.97c0 4.2-.61 6.61-1.8 7.2 1.19 2.39 1.49 4.48.9 6.29zM1182.7 475.15l-.9 1.81v.9l.9-.9v-1.81z"/><path class="st0" d="M1180.9 548.96v1.8c.59 0 .9-.3.9-.9 0-.59-.31-.9-.9-.9zM1183.6 351.84l-.9.9h.9zM1182.7 359.94c0 .6-.16 3.01-.45 7.2-.31 4.21-.15 6.3.45 6.3.59-6.6.59-11.09 0-13.5zM1182.7 307.73v4.5c0-.59.14-1.35.45-2.25.29-.9.14-1.64-.45-2.25zM1182.7 302.33v2.7c.59 0 .9-.3.9-.9 0-.58-.31-1.19-.9-1.8zM1182.7 294.23V300.53l.9 1.8c0-5.4-.31-8.1-.9-8.1zM1175.5 554.81v-1.35c-.6.6-.9 1.2-.9 1.8.59 0 .9-.14.9-.45zM1030.59 640.77c.59-.59.59-.9 0-.9-.6 1.81-.6 2.7 0 2.7v-1.8zM1032.38 596.21c0-.9-.31-1.35-.9-1.35v2.7c.59 0 .9-.45.9-1.35zM1031.48 610.16v-.9c-.6 0-.9.31-.9.9 0 .61.3.9.9.9v-.9zM1035.99 542.66c0 .51-.09.84-.19 1.13.9-1.71 1.86-3.3 2.89-4.73-.61 0-1.51 1.21-2.7 3.6zM1029.69 681.27v2.7c.59 0 .9-.9.9-2.7h-.9zM1034.18 701.97v-3.6c-.6 1.8-.6 3.01 0 3.6zM1034.18 593.06v-.9c-.6.6-.9 1.05-.9 1.35 0 .31.3.45.9.45v-.9zM1035.09 798.28c0-1.2-.31-1.81-.9-1.81-.01 1.22.29 1.81.9 1.81zM1034.18 786.58c0-.59.14-1.19.45-1.8.3-.59.14-.9-.45-.9v2.7zM1034.18 702.88c-.6 1.2-.6 1.8 0 1.8.59-1.8.59-2.7 0-2.7v.9zM1029.69 697.47v2.7c.59-.59.59-1.49 0-2.7zM1029.91 667.99c-.07.23-.08.38-.22.68 0 1.21.3 2.11.9 2.7l-.68-3.38zM945.98 716.38l-.9-.9c0 1.2.29 1.5.9.9zM944.17 692.98c0-1.81-.15-2.7-.45-2.7-.31 0-.45 1.5-.45 4.5.59 0 .9.31.9.9v-2.7zM1080.99 877.94v-1.35c-.61.6-.9 1.2-.9 1.8.59 0 .9-.15.9-.45zM944.17 697.47l-.9-.9v2.7l.9-.9v-.9z"/><path class="st0" d="M943.28 695.67h.9v.9h-.9zM945.98 710.98l-.9-.9c-.61.6-.61.9 0 .9.59 0 .59.31 0 .9 0 .61-.31.9-.9.9 0 1.21.3 1.8.9 1.8-.61-.59-.61-1.19 0-1.8h.9v-1.8zM1030.59 796.48c0-.59-.31-1.19-.9-1.8 0 .6.3 1.8.9 3.6v-1.8zM934.27 826.18c-.6.61-.6.9 0 .9.24-.72.31-1.19.35-1.62-.04.25-.11.49-.35.72zM946.88 758.68c0-.59.14-1.04.45-1.35.3-.3.14-.75-.45-1.35-.61 1.21-.61 2.11 0 2.7zM934.68 825.22c.03-.52-.09-.83-.41-.83.28.27.39.55.41.83zM1029.69 713.68v1.8c.59-1.2.59-1.8 0-1.8zM943.28 705.57c-.61 1.21-.61 2.7 0 4.5v-4.5zM1153.9 510.26c-.61-1.2-1.8-1.81-3.6-1.81l-.9.9c.59 0 1.35.31 2.25.9.9.61 1.64.61 2.25.01zM1093.59 508.45l.9-.9c0-.3-.3-.52-.9-.67v1.57zM1057.58 563.36c-.6 1.8-.6 2.7 0 2.7v-2.7zM1062.08 549.86c-.26-.26-.39-.47-.49-.67-.12.41-.01.67.49.67zM1054.89 526.46l2.7-.9.9-.9h1.8c0-1.2.3-1.49.9-.9 0-.59.3-1.2.9-1.8-5.4 2.41-9 4.5-10.8 6.3.59 0 1.19-.3 1.8-.9.59-.6 1.19-.9 1.8-.9zM1147.6 511.15c2.99 0 4.79.31 5.4.9-1.8-1.79-3.6-2.09-5.4-.9zM1148.5 515.65c1.19.61 1.8.61 1.8 0-1.21-.59-1.8-.59-1.8 0zM1128.7 879.29h1.8c0 .59.3.9.9.9 0-.61.29-.9.9-.9-1.81-.6-3.02-.6-3.6 0zM1144 874.79h-.9c0 .61.29.61.9 0zM1152.1 515.65l-1.8.9c1.19.01 1.8-.29 1.8-.9zM1148.5 871.19c.59 0 .9-.29.9-.9-.61 0-1.51.31-2.7.9h1.8zM1044.08 854.99c-.6-.59-1.35-1.65-2.25-3.15-.9-1.49-1.66-2.54-2.25-3.15 1.81 4.21 3.3 6.3 4.5 6.3zM1042.28 858.59c1.2 1.81 2.09 3.01 2.7 3.6l-3.6-5.4.9 1.8zM1034.18 708.27c0 .6-.15 1.35-.45 2.25-.31.9-.15 1.35.45 1.35v-3.6zM1034.18 737.97c-.6 1.21-.6 1.8 0 1.8v-1.8zM1044.08 852.29c-.6 0-.9-.14-.9-.45 0-.29-.31-.45-.9-.45l1.8.9zM1040.49 539.06c1.19-1.2 1.8-2.1 1.8-2.7-1.44 1.8-2.3 3.03-2.88 3.96.28-.39.59-.78 1.08-1.26zM1054.89 586.76v-4.5c0 .6-.15 1.35-.45 2.25-.31.9-.16 1.66.45 2.25z"/><path class="st0" d="M1052.18 780.28v6.3c0 34.81 11.1 57.02 33.3 66.61h.9c1.2.6 2.09.6 2.7 0-.61.6-.61.9 0 .9.59-.59 1.8-.45 3.6.45s2.99 1.35 3.6 1.35l.9-.9v.9c2.99.61 9 1.51 18 2.7.59 0 1.49-.3 2.7-.9h2.7c4.8 0 9.59-1.2 14.4-3.6-1.21 0-1.8-.3-1.8-.9 11.39-4.8 18.75-14.85 22.05-30.15 3.29-15.3 4.95-44.56 4.95-87.76 0-.59-.15-12-.45-34.21-.31-22.19-.45-40.19-.45-54.01 0-9.59.3-19.8.9-30.6 0-2.99-.15-6.89-.45-11.7-.31-4.8-.45-8.1-.45-9.9V534.55c0-3.6-.61-6.59-1.8-9h-1.8c-.2-.4-.63-.57-.9-.9-3.6 0-6.3-.3-8.1-.9-.61.6-1.21.9-1.8.9 1.2.6 1.8 1.21 1.8 1.8-.61 0-.76.15-.45.45.3.31.3.45 0 .45-.31 0-.76-.59-1.35-1.8 0 .6-.45.9-1.35.9-.9 0-1.35.31-1.35.9-1.21-.59-1.8-1.2-1.8-1.8l.9.9h.9c0-.59-.31-.9-.9-.9-.61 0-1.21-.3-1.81-.9 0 .6-.3.9-.9.9-.6 0-1.51-.14-2.7-.45-1.21-.3-3.31-.59-6.3-.9-3.01-.29-6.61-.45-10.8-.45-11.4 0-21.01.76-28.8 2.25-7.8 1.5-13.66 4.36-17.55 8.55-3.91 4.21-6.3 6.9-7.2 8.1-.9 1.21-2.25 4.5-4.05 9.9-1.21 3.01-2.7 9.6-4.5 19.8v2.7c-3.01 21.61-4.5 56.71-4.5 105.32v9c0 4.2-.31 7.51-.9 9.9.59 5.4.9 11.11.9 17.11s-.31 11.4-.9 16.2c.59 0 .9 2.11.9 6.3h-.9c.59 3.01.59 6.01 0 9l.9-.9c0 .6-.31 1.5-.9 2.7.59 1.2.59 2.41 0 3.6.59.6.9 2.11.9 4.5-.6 0-.9-.29-.9-.9v3.6c0 1.81.3 2.7.9 2.7 0 .6-.15.9-.45.9-.31 0-.45.31-.45.9.59 0 .9.9.9 2.7 0 1.8-.31 2.7-.9 2.7.61 3.01.91 6.3.91 9.9zm92.71-252.92h-1.8c1.2-.6 1.8-.6 1.8 0zM1031.48 811.79c.59-1.81.59-2.7 0-2.7v2.7zM1054.89 582.26c0-.59.14-1.2.45-1.81.29-.59.14-.9-.45-.9v2.71zM1030.59 802.78v1.8c0 .6.3 1.21.9 1.8 0-.59-.15-1.2-.45-1.8-.31-.59-.15-1.2.45-1.8h-.9zM1098.08 1363.2c-.61 0-.9.15-.9.45 0 .31-.3.45-.9.45l-.9.9c.59-.59.9-.3.9.9h.9v-1.8l.9.9c0-.59.3-.9.9-.9v-2.7c-1.21.6-1.51 1.2-.9 1.8zM737.16 1311.89v-2.7h-.9c0 1.8.29 2.7.9 2.7zM736.26 1294.79c-.6 1.21-.31 1.8.9 1.8 0-.59-.32-1.2-.9-1.8zM737.16 1299.74c0-.3-.31-.45-.9-.45l.9 1.8v-1.35zM736.26 1317.29v1.8c.59 0 .9-.3.9-.9 0-.59-.32-.9-.9-.9zM738.06 1336.19v-1.35c0-.3-.31-.45-.9-.45 0 1.21.29 1.8.9 1.8zM736.26 1290.29l.9 1.8c0-1.2-.32-1.8-.9-1.8zM1182.7 681.27v-2.7c-.61 1.21-.61 2.11 0 2.7zM1182.25 696.57c.3 1.21.45 2.11.45 2.7.59-.59.74-1.49.45-2.7-.31-1.2-.45-2.1-.45-2.7h-.9c0 .61.14 1.51.45 2.7zM739.85 1255.19c0-.59-.15-1.04-.45-1.35-.31-.3-.45-.75-.45-1.35-.6 1.2-.3 2.1.9 2.7zM1182.7 715.48c.59-.6.59-1.2 0-1.8v1.8zM1182.7 613.76c-.61 1.21-.61 1.81 0 1.81v-1.81zM1182.7 723.58c0 1.2.3 1.8.9 1.8v-1.8c0-1.2-.31-2.1-.9-2.7v2.7zM737.16 1225.03c0 .31.3.45.9.45.59 0 .59-.3 0-.9-.61 0-.9.15-.9.45zM738.96 1297.49v-.9h-.9c0 .6.29.9.9.9zM738.96 1262.38c.59 0 .9-.3.9-.9-.6 0-1.05.15-1.35.45-.31.3-.16.76.45 1.35v-.9zM738.96 1245.29v-.9c-.61 1.2-.61 2.11 0 2.7v-1.8zM602.14 1809.63c0-.96-.5-2.17-1.27-3.52.43 1.44.85 2.69 1.27 3.52zM595.84 1800.64c0 1.8.3 3.31.9 4.5 0-.59-.31-2.1-.9-4.5zM592.24 1320.89l-.9-1.8c0 1.21.3 1.8.9 1.8zM729.95 1332.59c.59-1.2.59-2.1 0-2.7v2.7zM1182.7 718.17c0 .61.3.9.9.9l-.9-1.81v.91zM598.33 1809.38c-.21-1.27-.67-2.42-1.59-3.34.33.34.88 1.51 1.59 3.34zM706.1 1778.14c.3 1.2.75 1.8 1.35 1.8-.6-2.39-.6-3.6 0-3.6-1.21-.01-1.66.6-1.35 1.8zM591.34 1312.79v1.81c.59-.01.59-.6 0-1.81zM591.34 1341.14v1.35c.59-1.2.59-2.1 0-2.7v1.35zM738.06 1217.38v5.4c0-.59.14-1.49.45-2.7.29-1.19.14-2.1-.45-2.7zM737.16 1277.69h-.9c0 .6.3.9.9.9v-.9zM731.31 1274.09c.3-.59.14-.9-.45-.9l.45.9zM805.56 1220.08v3.15c0 1.5-.31 2.56-.9 3.15.59-.59 1.04-1.65 1.35-3.15.29-1.49.14-2.55-.45-3.15zM737.16 1255.19c-.6.6-.6.9 0 .9v-.9zM738.96 1280.38c0 .81.18 1.24.45 1.5.08-.29.19-.52.24-.92-.15-.36-.37-.58-.69-.58zM1182.7 818.09c-.61 1.21-.61 1.8 0 1.8.59-1.2.59-1.8 0-1.8zM731.75 1247.08v-.9c-.6.61-.6.9 0 .9zM731.75 1268.68v-.9l-.9-.9c.01 1.22.3 1.8.9 1.8zM808.49 1176.38c2.22-4.51 3.37-7.67 3.37-9.41-.6 1.8-1.5 4.36-2.7 7.65-.26.7-.44 1.16-.67 1.76zM802.86 1257.89c-.6 1.8-.6 2.7 0 2.7v-2.7zM802.86 1454.1h-.9v1.8c0-.59.3-.9.9-.9v-.9zM802.86 1244.39v7.2c.59-1.2.9-2.7.9-4.5 0-1.8-.31-2.7-.9-2.7zM801.06 1575.61v.9h.9c0-.59-.31-.9-.9-.9zM801.96 1581.92c.59-.59.59-.9 0-.9-.61-.01-.61.31 0 .9zM801.06 1545.01c0 1.8.3 1.8.9 0h-.9zM738.06 1215.58v.9c.59-.59.59-.9 0-.9zM801.51 1611.62c-.14-.55-.16-.94-.11-1.24l-.34.34v1.8c0 1.21.3 1.8.9 1.8 0-.59-.16-1.49-.45-2.7zM738.96 1171.47c.59-.59.74-1.35.45-2.25-.31-.9-.15-1.35.45-1.35h-.9c-.61.61-.61 1.81 0 3.6zM738.96 1199.38v-6.3c-.61.6-.9 1.66-.9 3.15 0 1.51.29 2.56.9 3.15zM738.96 1153.47v4.5c.59-.59.9-1.49.9-2.7-.01-1.19-.31-1.8-.9-1.8zM738.06 1215.58c.59 0 .9-.14.9-.45 0-.3-.31-.45-.9-.45v.9zM738.96 1203.88c0-1.81-.31-2.7-.9-2.7 0 .6.29 1.5.9 2.7zM738.06 1211.98v.9c.59-1.8.59-3 0-3.6v2.7zM738.96 1137.27c-.61 0-.9.31-.9.9 0 .6.29.9.9.9.59 0 .59-.59 0-1.8zM802.21 1262c-.07.12-.08.21-.26.39 0 .6.3.9.9.9l-.64-1.29zM801.96 1650.32l.9 1.8c0-1.19-.31-1.8-.9-1.8zM805.56 1697.13c-.6 0-.9-.3-.9-.9-.61 1.21-.31 2.11.9 2.7v-1.8zM806.46 1714.23c0-1.19-.31-1.8-.9-1.8v.9c0 1.2.3 1.8.9 1.8v-.9zM804.66 1238.98c-.61.6-.61 1.21 0 1.8v-1.8zM803.76 1258.78v.9c.59-1.2.59-1.8 0-1.8v.9zM811.86 1764.63c0-.59-.31-1.2-.9-1.8 0 1.21.3 1.8.9 1.8zM806.46 1731.33c0 1.8.59 3.91 1.8 6.3-.6-2.39-.9-4.5-.9-6.3h-.9zM808.26 1183.18c1.8-3.6 2.39-5.7 1.8-6.3-1.21 3.6-1.8 5.71-1.8 6.3zM805.56 1705.23h-.9c.59.61.9 1.51.9 2.7v-2.7zM801.96 1637.72c0-.59.3-.9.9-.9l-.9-.9c-.61.61-.61 1.21 0 1.8zM801.06 1605.32h1.8c0-.59-.31-1.2-.9-1.81-.61.61-.9 1.22-.9 1.81zM802.86 1457.7c-1.42.48-1.67 1.53-.85 3.13.03-.27.28-.42.85-.42l.9.9v-1.81c-1.21.61-1.51 0-.9-1.8zM802.86 1640.42v-1.8h-.9c0 1.21.29 1.8.9 1.8zM803.76 1523.41v-1.81c-.61 1.22-.61 1.81 0 1.81zM801.96 1526.11c-.6.6-.6 1.5 0 2.69v-1.8h1.8c0-.59-.31-.9-.9-.9h-.9zM801.51 1536.91c-.31 0-.15.31.45.9h.9c0-.59-.31-1.2-.9-1.8 0 .6-.16.9-.45.9zM1185.4 373.44c0 .6-.16 1.2-.45 1.8-.31.61-.15.9.45.9.59-1.8.59-2.7 0-2.7zM377.13 330.24c-.61 1.21-.61 1.8 0 1.8.59-1.2.59-1.8 0-1.8zM378.03 303.23v-1.35c0-.29-.31-.45-.9-.45.59 0 .59.31 0 .9 0 .61.3.9.9.9zM1184.95 478.75h1.35c-.6 0-.9-.3-.9-.9-.6.61-.76.9-.45.9zM1184.5 414.84v1.8h.9c0-1.19-.31-1.8-.9-1.8zM378.93 559.76c.59-.59.9-1.49.9-2.7 0-1.19-.31-2.1-.9-2.7v5.4zM1185.4 404.94v-.9c-.61 0-.9.9-.9 2.7v1.8c.59 0 .75-.14.45-.45-.31-.3-.15-.75.45-1.35-.6-.59-.6-1.19 0-1.8zM378.03 505.75v.9c0 .6.3.9.9.9 0-1.19-.31-1.8-.9-1.8zM378.03 482.35c1.19 0 1.19-.9 0-2.7v2.7zM1112.48 1328.99v1.8h1.8c-.61-.59-.61-1.49 0-2.7-.6 0-1.21.31-1.8.9zM1184.5 433.74l.9.9c0-1.19-.31-1.48-.9-.9zM1100.78 1356v.9l.9-.9v-1.81l-.9.9c.59 0 .59.31 0 .91z"/><path class="st0" d="M1097.18 1362.3c-.6.6-.9 1.21-.9 1.8l.9-.9v-.9zM1161.09 1210.18c-.61.6-.61.9 0 .9l.9-.9v-.9h-.9c.59 0 .59.31 0 .9zM1182.7 319.44v3.6l.9.9c0-.59.14-.9.45-.9.29 0 .45-.3.45-.9-.61 0-1.21-.9-1.8-2.7zM1096.28 1368.6c0-.6.14-.9.45-.9.3 0 .45-.3.45-.9-.6-.01-.9.6-.9 1.8zM1120.58 1315.49c.59-.59.59-.9 0-.9v.9zM378.93 629.96v1.8c0-.59.14-1.35.45-2.25.3-.9.14-1.35-.45-1.35v1.8zM384.33 492.25h-.9c0 .6.29.9.9.9v-.9zM383.44 620.97c0-1.2-.31-1.81-.9-1.81-.01 1.22.29 1.81.9 1.81zM384.33 594.87c0-1.2-.31-1.81-.9-1.81.01 1.21.3 1.81.9 1.81z"/><path class="st0" d="M1391.81 879.51h-93.17V128.84c0-68.74-55.72-124.46-124.46-124.46H402.56c-68.74 0-124.46 55.72-124.46 124.46v750.67H144.96c-41.24 0-74.68 33.44-74.68 74.67v81.41c0 41.24 33.43 74.67 74.68 74.67H278.1v736.63c0 68.74 55.72 124.46 124.46 124.46h771.61c68.74 0 124.46-55.72 124.46-124.46v-736.63h93.17c41.24 0 74.67-33.43 74.67-74.67v-81.41c.01-41.23-33.42-74.67-74.66-74.67zm-205.29-465.34c-.04-.11-.23-.07-.23-.22v-1.8c.01.89.08 1.57.23 2.02.11.34.22.68.68.68-.3-.01-.53-.23-.68-.68zm-1.12-19.13v-3.6c0 .6.29.9.9.9 0 .61-.31 1.51-.9 2.7zm0-189.01v-1.81c.59 0 .9.9.9 2.7-.6 1.81-.76 4.36-.45 7.65.3 3.31.14 5.26-.45 5.85v-13.5h.9l-.9-.89zm0-10.81c.59 1.21.9 3.91.9 8.1-.61-.59-.9-3.29-.9-8.1zm0 40.51v-14.4c.59 4.2.59 9 0 14.4zm0 14.4c1.19 4.2 1.19 8.7 0 13.5v-23.4c.59 4.81.59 8.1 0 9.9zm.9 21.6c-.6-1.19-.9-3.29-.9-6.3.59 1.21.9 3.3.9 6.3zm0 4.5c-.6 0-.9-1.19-.9-3.6.59 1.8.9 3.01.9 3.6zm0 6.3c0 2.41-.31 3.6-.9 3.6v-7.2c.59 0 .9 1.21.9 3.6zm0 6.3c-.6-.59-.9-1.2-.9-1.81.59.01.9.62.9 1.81zm.9 153.02c.59 0 .59 1.21 0 3.6v-3.6zm0-.9v-.9c.59 0 .59.31 0 .9zm-115.21 72.9v.9c-.61 0-1.05.15-1.35.45-.31.31-.76.45-1.35.45 1.19-.59 2.09-1.19 2.7-1.8zm-48.6 225.93c.59 0 .9-3.89.9-11.7v-26.11l.9-.9c-.61-7.2-.9-12.6-.9-16.2v-5.4l1.8-37.8v-.9c-.6-2.39-.9-5.7-.9-9.9 0-3 .14-7.05.45-12.16.3-5.09.45-8.85.45-11.25v-4.5l.9-1.81h-.9c.59-1.19.9-2.39.9-3.6-.61 0-.9-.3-.9-.9l.9-.9v-.9c0-22.72 2.9-39.63 8.68-50.79-.15.22-.33.38-.58.38l3.6-7.2.45-.45.45-1.35c1.2 0 1.8-.45 1.8-1.35 0-.23.19-.36.23-.57-.06.03-.18.12-.23.12l.3-.3c.13-.54.19-1.1.6-1.5v.9l-.6.6c-.02.06-.06.11-.07.18.76-.3 2.75-2.31 6.07-6.18 0-.59 1.2-1.49 3.6-2.7 0 .6-.61 1.21-1.8 1.8l-1.8.9c0 .6-.9 2.11-2.7 4.5-1.8 1.81-2.41 3.01-1.8 3.6 1.8-2.39 3-3.29 3.6-2.7-.6-1.8.3-2.7 2.7-2.7l-.9.9c.59 0 1.49-.59 2.7-1.81h-1.8c1.2-1.19 1.8-2.09 1.8-2.7v.9c1.8-.59 2.99-1.49 3.6-2.7 5.4-2.39 8.1-3.89 8.1-4.5.59 0 .9.31.9.9 1.19-.59 2.39-1.19 3.6-1.8-.6 0-.9-.3-.9-.9-4.81 1.21-9 3.01-12.6 5.4-.6 0-.9.31-.9.9 0 .6-.31.6-.9 0l1.8-.9c.59-1.2 1.94-2.25 4.05-3.15 2.09-.9 3.74-1.65 4.95-2.25 4.19 0 8.4-1.19 12.6-3.6h-2.7v-.9c1.8.6 2.7.6 2.7 0h-.9c0-.59.59-.59 1.8 0 .59 0 .9-.3.9-.9.59.6 2.39 0 5.4-1.81h3.6c0-.59-.6-.9-1.8-.9l.9-.9-.9-.9c.59-.59 1.04-.75 1.35-.45.3.31.74.75 1.35 1.35v-.9c2.69-.53 4.54-1.07 5.79-1.61-.58-.1-1.22-.18-2.19-.18 0-.6.3-.9.9-.9h-.9c0 .61-.9.9-2.7.9l-.9-.9c-1.8.61-4.5.9-8.1.9l.9-.9c0-.59-.3-.9-.9-.9h1.8c12.6-5.4 23.09-8.1 31.5-8.1h1.8v1.8c6.6-1.19 10.2-1.49 10.8-.9h8.1c4.19 0 8.1.45 11.7 1.35 3.6.9 6.44 1.66 8.55 2.25 2.09.6 3.45.9 4.05.9 1.2 0 1.8-2.39 1.8-7.2 0-1.8-.16-4.5-.45-8.1-.31-3.61-.45-5.99-.45-7.21 0-4.19.3-7.49.9-9.9.59-3 .9-6.3.9-9.9v-40.5c-1.21-4.79-1.21-8.7 0-11.71 0 .61-.31.61-.9 0 .59-1.19.9-3.44.9-6.74v-56.25c.59-.59.9-1.2.9-1.8-1.21 0-1.66-.75-1.35-2.25.3-1.49.74-2.55 1.35-3.15l-.9-.9v-3.61c.59-4.79.59-7.79 0-9V180.77c0-5.4.3-8.69.9-9.9v-1.8c0-2.99 1.2-8.1 3.6-15.3h.9l.9.9c1.8 0 3.29 1.21 4.5 3.6v-2.7c2.39 0 4.19.6 5.4 1.81 1.2 0 2.09.6 2.7 1.8h1.8v.9c.59 0 .9-.3.9-.9.59.61 1.2.61 1.8 0v1.8h2.7v.9l.9-.9c0 1.8-.16 6.75-.45 14.85-.31 8.1-.45 13.95-.45 17.55v.9c-1.21-.59-1.66-1.65-1.35-3.15.3-1.49.14-3.15-.45-4.95v4.5c0 1.2.14 3.15.45 5.85.3 2.7.45 4.66.45 5.85 0 15.61-.31 23.4-.9 23.4v14.39c-.12.12-.11.25-.19.37.06.48.12 1.01.19 1.43-.48-.47-.47-.95-.19-1.43-.47-3.55-.71-8.42-.71-14.77v-16.2c0-5.4-.31-10.2-.9-14.4V289.69c0-.59.3-1.49.9-2.7V243.78c.59 4.81.9 15.3.9 31.51v17.1c.59 0 .9-.9.9-2.7v3.6c.59 1.8.59 3.01 0 3.6v-3.6c-.61 0-.9 1.21-.9 3.6 0 3.01.3 4.5.9 4.5 0 .6.14 1.5.45 2.7.3 1.2.14 2.11-.45 2.7.59 1.8.59 2.7 0 2.7 0 .6.29 1.5.9 2.7-.6 0-.9-.29-.9-.9 0-.59-.31-.9-.9-.9l.9 1.8c0 1.81-.31 3.01-.9 3.6.59 0 .9-.3.9-.9 0-.59.29-.9.9-.9 0 .6-.6 1.5-1.8 2.7l.9.9c.59 1.8.59 3.01 0 3.6 0-1.2-.31-1.8-.9-1.8-.18 1.08-.04 1.84 0 2.7.08 2.02.54 3.66 1.8 4.5v12.59c-.6 0-.9-.59-.9-1.8-.61.6-.61 1.35 0 2.25.59.9.9 1.66.9 2.25-.6 0-.9-.59-.9-1.8v.9c0 1.21.14 2.86.45 4.95.3 2.11.45 3.76.45 4.95 0 1.81-.31 3.31-.9 4.5h.9v3.6c-.6 0-.76-.3-.45-.9.3-.59.14-1.2-.45-1.8-.61 1.8-.61 3.31 0 4.5l.9-.9v3.6l-.9-.9v5.4c.59 0 .59.15 0 .45-.61.31-.61.76 0 1.35.59-.59.9-.59.9 0 0 1.21-.31 1.8-.9 1.8.59 0 .9 2.11.9 6.3-.6 0-.9-.3-.9-.9 0 .6-.31 1.66-.9 3.15-.6 1.5-.6 2.25 0 2.25h.9c.59 0 .74.15.45.45-.31.31-.45.76-.45 1.35-.61.6-.61.9 0 .9.59 3.61.59 5.4 0 5.4v-1.8c-.61 0-.9.31-.9.9v7.2c.59 0 .9.9.9 2.7v3.6c.59 1.8.59 3.01 0 3.6v4.05c0 1.5-.31 2.56-.9 3.15l.9.9c.59.6.59 1.21 0 1.8.59 2.41.9 5.11.9 8.1v7.2l-.9 4.5c.59 0 .9.31.9.9v30.6c.59 0 .9.31.9.9v.9h-.9v9c0 .6-.31.9-.9.9.59.61.9 1.21.9 1.81v5.4c-.6 0-.9-.3-.9-.9v1.8c.59-.59.9-.59.9 0v4.05c0 2.11.3 3.46.9 4.05v-.9c.59 1.21.59 1.8 0 1.8l.9 3.6c-1.21.6-1.66 1.8-1.35 3.6.29 1.8.14 3.31-.45 4.5.59.6.59.9 0 .9v13.51c.59 0 .9-.3.9-.9 0 3.01-.31 4.81-.9 5.4.59 0 .9.76.9 2.25 0 1.51-.31 2.25-.9 2.25.59.61.9 3.01.9 7.2v7.2c.59 0 .9.31.9.9 0 .6-.31.9-.9.9v12.6c0-.59-.31-.9-.9-.9.59 1.21.9 2.11.9 2.7v163.83c0 37.8-.61 57.91-1.8 60.3v5.4c0 8.41-.61 18.61-1.8 30.6-.2 0-.17-.23-.3-.3l.3 1.2v2.7h-.9c0 .61-.16 1.8-.45 3.6-.31 1.8-.15 3.3.45 4.5-.61-.59-.9-1.2-.9-1.81v-1.8c-.6 0-.9.31-.9.9v.9c0-1.19-.31-2.09-.9-2.7 0 1.21-.16 2.56-.45 4.05-.31 1.51-.76 2.86-1.35 4.05 1.2-.59 1.81-1.8 1.81-3.6.59 0 .9-.3.9-.9h.9v.9c-1.21 1.2-1.8 2.41-1.8 3.6.59 1.81.59 3.01 0 3.6 0-.54-.29-.53-.79-.07-.18.64-.44 1.12-.56 1.87-.31 1.81-.76 3.31-1.35 4.51 0-.59.14-1.2.45-1.81.3-.59.45-1.19.45-1.8-.6.6-1.21 1.96-1.8 4.05-.6 2.11-1.5 3.46-2.7 4.05l.9-.9c-1.21 0-1.51.6-.9 1.8-1.8 2.41-3.91 4.81-6.3 7.2.59.6.59 1.2 0 1.8.59-.59 1.04-1.2 1.35-1.8.29-.59.74-.9 1.35-.9-.61.6-.61.9 0 .9.59-.59.9-1.49.9-2.7h.9l.9-1.81c.59 0 1.19-1.19 1.8-3.6.59 0 1.19-.3 1.8-.9v.9c0 3.01-5.1 8.7-15.3 17.1l-.9.9c-.6.6-1.35 1.05-2.25 1.35-.9.31-1.66.76-2.25 1.35h-.9l-14.4 4.5-.9-.9-5.39 2.7h4.49c-.6 0-.9.14-.9.45 0 .29-.31.14-.9-.45 0 .59-.9 1.2-2.69 1.8-1.81 0-4.05.14-6.75.45-2.7.3-4.66.45-5.85.45h-4.5c-.61 0-.9-.31-.9-.9-.6.59-1.66.9-3.15.9-1.5 0-2.56.3-3.15.9v-.9c-2.4.59-3.91.59-4.5 0h.9c-.6-.6-.9-.76-.9-.45 0 .3-.31.45-.9.45 0-.6-1.8-.6-5.4 0h-.9l-.9-.9h-1.8l-1.81-.9h-2.7c-1.21-.61-2.11-.61-2.7 0-1.21-1.21-2.11-1.8-2.7-1.8-.6 0-1.21.14-1.8.45-.6.3-1.2.45-1.8.45-.61 0-1.51-.31-2.7-.9v-.9c-.61.59-.9 1.2-.9 1.8-.61-1.21-1.21-1.5-1.8-.9l-1.8-1.8.9.9v.9c-4.2-1.2-6.61-2.39-7.2-3.6-.61.61-1.66.45-3.15-.45-1.51-.9-2.56-1.35-3.15-1.35 0-1.2-.6-2.1-1.8-2.7-.6 0-.6.6 0 1.8-.6 0-.9-.14-.9-.45 0-.3-.31-.45-.9-.45 0 .6.3 1.06.9 1.35.59.31 1.49.76 2.69 1.35v.9c.59 0 1.2-.3 1.8-.9 0 .6.59 1.06 1.8 1.35 1.2.31 1.8.76 1.8 1.35 0 .6.3.6.9 0 1.7 1.13 3.08 1.95 4.25 2.55.15.05.24.08.38.13 1.69-.53 2.57-.26 2.57.92-.66-.22-1.62-.57-2.57-.92-.06.02-.07 0-.13.02-.07-.03-.18-.12-.25-.15-1.55-.57-3.35-1.24-5.6-2.1-3.91-1.49-6.16-2.25-6.75-2.25 0-.59-.31-1.04-.9-1.35-.61-.3-2.11-1.35-4.5-3.15-2.41-1.81-5.1-4.19-8.1-7.2 0 .6.14 1.05.45 1.35.3.31.45.76.45 1.35 1.2 0 2.1.9 2.7 2.69a5.73 5.73 0 0 1-2.7-2.69c-.6 0-1.66-.6-3.15-1.81-1.51-1.19-3.46-4.19-5.85-9-2.41-4.79-4.66-10.8-6.75-18-2.11-7.2-3.91-17.85-5.4-31.96-1.51-14.09-2.25-30.15-2.25-48.15v-8.1c0-2.39-.31-4.5-.9-6.3.58-1.11.58-2.01 0-2.61zm58.5-229.52c.59-.59 1.19-.9 1.8-.9 0 1.2-.61 1.5-1.8.9zm96.31 337.53c-.6 1.8-.9 3.01-.9 3.6 0-1.8.3-3 .9-3.6zm-76.51 34.2c0 .59-.31.9-.9.9h-.9c0-.61.14-.76.45-.45.3.29.75.14 1.35-.45zm-45-9-1.8-.9c0-.59.3-.74.9-.45.59.31.9.76.9 1.35zm-2.7-1.8c-1.21 0-2.11-.9-2.7-2.7l2.7 2.7zm-99.91-682.27c1.8 1.21 2.7 3.31 2.7 6.3-.61 0-1.51-2.09-2.7-6.3-.6-.58-1.21-1.49-1.8-2.7 1.19.61 1.8 1.51 1.8 2.7zm-1.8-4.5c-1.21 0-1.8-.59-1.8-1.8 1.2.61 1.8 1.21 1.8 1.8zm-9-9c-1.8-.59-2.7-1.49-2.7-2.7 1.19 1.21 2.09 2.11 2.7 2.7zM810.51 506.21c-.31-6.3-.45-11.25-.45-14.85 0-2.39.3-5.09.9-8.1V307.75c-.6-16.79-.9-28.2-.9-34.21 0-29.39 2.09-52.5 6.3-69.31 0-1.8.59-3.6 1.8-5.4.59-2.39 2.7-7.5 6.3-15.3 1.8-.59 2.99-2.1 3.6-4.5 1.2-.59 3.29-2.7 6.3-6.3.59 0 1.49-.75 2.7-2.25 1.19-1.49 2.39-2.54 3.6-3.15 0-.59.3-.9.9-.9 8.4-4.8 14.09-7.5 17.1-8.1.59 0 1.49-.14 2.7-.45 1.19-.29 2.39-.45 3.6-.45l9-2.7c3-.59 4.8-.59 5.4 0 1.2 0 2.1-.3 2.7-.9h4.5c4.8 0 8.69.6 11.7 1.8.59 0 .9.31.9.9.59-.59.9-.59.9 0 1.2 0 3.9.45 8.1 1.35 4.19.9 7.2 1.66 9 2.26h2.7c0 .6 1.04 1.35 3.15 2.25 2.09.9 3.15 1.66 3.15 2.25 3.6-1.2 5.09-.59 4.5 1.8.59 0 .9-.3.9-.9.59.61 1.49 1.06 2.7 1.35 1.2.31 2.09 1.06 2.7 2.25.59 0 .9.15.9.45 0 .31.3.45.9.45l-1.8-.9c-.61 0-1.66-.45-3.15-1.35-1.5-.9-2.85-1.35-4.05-1.35 1.2.6 2.84 1.5 4.95 2.7 2.1 1.21 3.74 2.11 4.95 2.7 0 .61-.31.9-.9.9 0 .6 1.19 1.66 3.6 3.15 2.39 1.5 3.9 3.15 4.5 4.95 4.19 3.01 7.49 8.41 9.9 16.2v-.9c.59.6.9 1.2.9 1.8-.61 0-.9-.3-.9-.9 0 .6.29 1.21.9 1.8.59.6 1.2 1.8 1.8 3.6.59 1.8.9 3.31.9 4.5 1.2 2.41 1.8 3.91 1.8 4.5 0 .6.14.76.45.45.3-.3.74-.14 1.35.45-.6 0-.9.45-.9 1.35v2.25c.59 0 .9-.3.9-.9 1.8 7.2 2.39 11.41 1.8 12.6.59.6.9 1.21.9 1.81-.61.6-.76 1.5-.45 2.7.3 1.2.45 2.11.45 2.7v-1.81c.59.6.59 1.5 0 2.7v.9c-.61.6-.61 1.8 0 3.6v1.8c.59 18.6 1.19 30.31 1.8 35.1-.6 2.41-.6 6.91 0 13.51-.6 1.2-.76 3.15-.45 5.85.3 2.7.14 4.66-.45 5.85h.9v7.2c.59 1.8.74 3.91.45 6.3-.31 2.41-.15 3.91.45 4.5-.61 0-.9.31-.9.9 0 .6.3 1.5.9 2.7v6.3c.59.6.74 1.66.45 3.15-.31 1.5-.45 2.56-.45 3.15V342.85c-.61 7.2-.9 11.11-.9 11.7 0 .6.3.6.9 0-.61 2.41-.9 5.4-.9 9v5.4c0 2.41-.31 4.5-.9 6.3l.9 1.8v28.35c0 .9-.31 1.35-.9 1.35V430.15c0 2.41.14 5.55.45 9.45.3 3.91.45 6.74.45 8.55 0 1.2-.31 2.4-.9 3.6v1.8l.9.9c0 .6-.15 1.5-.45 2.7-.31 1.21-.45 2.11-.45 2.7.59 1.21.9 3.01.9 5.4 0 1.8-.15 4.66-.45 8.55-.31 3.91-.45 6.46-.45 7.65v227.71c-.6 39.61-.9 60.31-.9 62.1-.61 15.01-2.11 31.51-4.5 49.51-1.21 7.8-5.1 17.41-11.7 28.8-5.4 9.6-11.41 17.1-18 22.5.59-.59 1.2-1.19 1.8-1.8.59-.59 1.2-1.2 1.8-1.81l-1.8.9h-.9l-1.8 1.8c0 .6-.31 1.06-.9 1.35-.61.31-1.21.76-1.8 1.35-1.21-.59-2.11-.59-2.7 0 1.2 0 2.1.31 2.7.9-1.8.61-3.01.9-3.6.9l.9-.9c-.6 0-1.05.16-1.35.45-.3.31-.76.16-1.35-.45l.9-.45c-.3 0-.6-.15-.9-.45-.6-.59-1.2-.59-1.8 0-.6-.59-.76-.9-.45-.9.29 0 .45-.3.45-.9-.6 0-1.21.31-1.8.9v-.9c-11.41 7.2-21.31 10.8-29.7 10.8h-.9c0-1.21-.61-1.8-1.8-1.8 9-1.21 14.69-2.41 17.1-3.6l-2.7.9c-6.61 1.19-10.8 1.49-12.6.9 8.4-1.21 12.89-1.8 13.5-1.8h-11.7c-5.4 0-9.31.3-11.7.9-.6 0-.9-.6-.9-1.8-1.8 0-3.91-.14-6.3-.45-2.41-.3-4.21-.45-5.4-.45h-3.6l1.8-.9c-.6 0-1.66-.14-3.15-.45-1.51-.3-2.25-.75-2.25-1.35h2.7c-1.21-.59-2.4-.9-3.6-.9 0-1.19-.9-1.8-2.7-1.8 0-.59-.6-.9-1.8-.9-.6-.59-1.21-.9-1.8-.9 0 .61-.31.9-.9.9 0-1.19-.45-1.94-1.35-2.25-.9-.3-1.35-.75-1.35-1.35h-5.4c-5.4 0-8.41-.9-9-2.7l1.8.9.9-.9c2.39.6 4.19 1.2 5.4 1.8 0-.59-1.21-1.49-3.6-2.7-.61 0-.61-.14 0-.45.59-.3.59-.75 0-1.35-.61 0-.9.15-.9.45v1.35h-.9c-.6 0-.9-.3-.9-.9 0-.59.3-.9.9-.9h.9c-1.21-1.2-2.4-2.55-3.6-4.05-1.21-1.49-2.11-2.55-2.7-3.15-.6-.59-.6-1.2 0-1.8-1.21-1.8-3.01-4.5-5.4-8.1 0-.58-.9-2.09-2.7-4.5-1.8-2.39-2.7-4.19-2.7-5.4-.61-.59-.9-2.1-.9-4.5 0-1.2-.31-2.55-.9-4.05-.61-1.49-.9-2.55-.9-3.15 0-.59-.15-1.35-.45-2.25-.31-.9-.45-1.65-.45-2.26l-3.6-11.7c0-.59.3-.9.9-.9-1.21-1.8-1.8-5.4-1.8-10.8-.61-30.61-1.21-60.9-1.8-90.91V647.02c0-10.2-.15-25.49-.45-45.9-.31-20.39-.45-35.39-.45-45 0-7.79.3-14.99.9-21.61v-14.4c0-2.95-.15-7.61-.45-13.9zm38.26 364.98c-1.8 0-3.01-.59-3.6-1.8 2.39.61 3.6 1.21 3.6 1.8zm-14.4-9.45c.59.31.59.45 0 .45-.6-.59-1.21-.9-1.8-.9.59 0 1.19.16 1.8.45zm-.9-3.15c1.2 0 1.49.31.9.9-.61 0-.9-.3-.9-.9zm-16.21-35.11c1.2.61 1.49 1.8.9 3.61-.6 0-.9-1.2-.9-3.61zM594.05 698.37c.59-8.4 1.2-23.99 1.8-46.8-.6-3-.6-6.6 0-10.8h-.9v-4.5c.59-10.2.9-15.59.9-16.2 0-1.8-.15-4.64-.45-8.55-.31-3.9-.45-7.04-.45-9.45 0-1.2.14-3.29.45-6.3.3-2.99.45-5.4.45-7.2V511.16h.9v-51.3c0-1.19.3-1.8.9-1.8-.6-4.8-.9-9.3-.9-13.5 0-3 .59-13.51 1.8-31.51v-12.6c-.6-3-.9-5.99-.9-9 0-1.8.14-4.95.45-9.45.3-4.5.45-7.65.45-9.45 0-4.19-.31-8.1-.9-11.7.59-3 .9-6.89.9-11.71 0-2.39-.31-7.2-.9-14.4v-27.9c0-10.2.59-23.09 1.8-38.7h-.9c0-3.6.29-6.89.9-9.9-.61-.59-1.21-.9-1.8-.9h.9c0-.59.29-2.7.9-6.3 0-1.19.3-5.99.9-14.4.59-5.4.9-9 .9-10.8.59-.59.9-1.8.9-3.6v-3.6c0-.59.14-1.35.45-2.25.3-.9.45-1.94.45-3.15 0-.59.3-1.65.9-3.15.59-1.49.9-2.55.9-3.15 1.2-4.19 2.09-6.89 2.7-8.1.59-1.8 1.19-2.99 1.8-3.6.59-1.8 1.8-4.19 3.6-7.2 1.8-3 3-5.09 3.6-6.3 1.8-1.19 2.99-2.7 3.6-4.5.59-.59 2.25-2.39 4.95-5.4 2.7-3 4.95-5.09 6.75-6.3.59 0 1.64-.45 3.15-1.35 1.49-.9 2.39-1.35 2.7-1.35.3 0 1.04-.45 2.25-1.34 1.2-.9 2.1-1.65 2.7-2.26 9-3.6 20.39-5.4 34.2-5.4h14.4c2.39 0 3.89.31 4.5.9 10.8 1.21 18.9 3.3 24.3 6.3 4.19 2.41 8.69 6.91 13.5 13.5 0 .6.9 2.11 2.7 4.5 1.8 2.41 2.99 4.21 3.6 5.4 1.8 2.41 4.8 9.9 9 22.5 0 .6-.31 1.21-.9 1.81h.9c-.61 1.8 0 3.3 1.8 4.5h-.9c1.19 3.01 2.09 8.1 2.7 15.3.59 7.2 1.49 12.3 2.7 15.3 0 7.81.3 12.91.9 15.3 0 1.8-.16 4.05-.45 6.75-.31 2.7-.45 4.36-.45 4.95 0 .6.14.9.45.9.29 0 .45.31.45.9-.6 8.41-.9 19.21-.9 32.4v117.91l.9.9-.9.9V437.36c0 1.8.14 4.5.45 8.1.29 3.6.45 6.61.45 9v5.4c-.6 5.4-.9 11.71-.9 18.9v138.62c.59 4.2.9 8.1.9 11.7 0 2.41-.16 5.71-.45 9.9-.31 4.2-.45 7.2-.45 9 0 3.6.3 7.2.9 10.8-.6 2.41-.6 3.6 0 3.6v46.8c0 3.01-.16 7.35-.45 13.05-.31 5.71-.45 10.05-.45 13.05v19.8c0 4.2-.15 9.75-.45 16.65-.31 6.9-.76 11.56-1.35 13.95 0 2.41-.6 10.5-1.8 24.3 0 .61-1.21 6.3-3.6 17.11-.61.6-3.31 7.8-8.1 21.6-1.21 1.21-3.31 4.21-6.3 9-3.01 4.81-5.71 7.8-8.1 9-.61.6-1.66 1.21-3.15 1.8-1.5.61-2.56 1.51-3.15 2.7-.6 0-1.21.16-1.8.45-.6.31-1.21.45-1.8.45-1.21 1.21-5.4 3.01-12.6 5.4l-9 1.8c-4.2 1.2-6.61 1.8-7.2 1.8-4.81 1.8-9 2.1-12.6.9-1.21.59-2.41.9-3.6.9-3.01 0-6.91-.61-11.7-1.8-4.81-1.21-8.71-1.8-11.7-1.8-.47-.32-.64-.56-.95-.83-.06.53-.62.83-1.75.83 0-.58.58-.86 1.69-.88-.81-.74-1.23-1.38-.79-1.82h-3.6c.59 0 1.2-.14 1.8-.45.59-.3.9-.74.9-1.35.59 0 1.49.31 2.7.9-.61-1.2-1.96-1.8-4.05-1.8h-5.85c.59-.59 1.49-.9 2.7-.9h2.7c-1.21-1.81-3.3-3.29-6.3-4.51v-2.69c-.6.6-1.35.6-2.25 0-.9-.6-1.35-1.2-1.35-1.81 0-.59-.45-.9-1.35-.9-.9 0-1.05-.3-.45-.9-.6 0-.9.15-.9.45 0 .31-.31.16-.9-.45l-1.8-.9c-.6-.59-.9-1.19-.9-1.8.59-.59 1.49-.3 2.7.9 0 .6.3.9.9.9-.6-1.19-3.6-3.29-9-6.3-1.8-1.2-4.5-3.6-8.1-7.2h-.9c-.61 0-.9-.3-.9-.9-7.81-9.59-12.31-23.41-13.5-41.41 0-.59-.31-4.05-.9-10.35-.6-6.3-.9-10.94-.9-13.95 0-3.6-.31-9.9-.9-18.9-.6-9-.9-15.89-.9-20.7 0-3 .3-5.7.9-8.1v-28.8c0-2.39-.31-4.5-.9-6.3zm-66.6-489.64h.9c0 .6-.31.9-.9.9v-.9zm-3.6-18.91c0 .6.29 1.5.9 2.7-1.21-.59-1.51-1.49-.9-2.7zm-18-23.4h.9c-.61.61-.9.61-.9 0h-.9c.59-.59.9-.59.9 0zm-2.7-1.8c0-.59.59-.59 1.8 0-.61.61-1.21.61-1.8 0-.61-.59-1.05-1.04-1.35-1.35-.31-.3-.76-.45-1.35-.45 1.19-.59 2.09 0 2.7 1.8zM377.13 348.24c0-.59-.31-.9-.9-.9v-17.1c.59 0 .9-.29.9-.9h-.9v-.9c.59-.59.9-1.19.9-1.8h-.9l.9-3.6c-.61-4.8-.9-9.9-.9-15.3 0-12 1.2-29.39 3.6-52.21 1.19-11.39 1.8-17.7 1.8-18.9v-.9c0-1.8.45-4.35 1.35-7.65.9-3.29 1.35-5.85 1.35-7.65.59-1.19.9-3 .9-5.4.59 0 .9-.45.9-1.35s.29-1.35.9-1.35h-.9c1.2-2.39 1.49-4.19.9-5.4l2.7-5.4-.9.9c1.2-3.6 1.8-5.7 1.8-6.3 1.8-5.4 5.4-11.4 10.8-18v-1.8c.59-.59 1.19-1.49 1.8-2.7 1.8 0 2.7-.9 2.7-2.7.59-.59 2.1-1.8 4.5-3.6 0 .6-.9 1.5-2.7 2.7 1.2 0 2.39-.59 3.6-1.81 1.19-1.19 2.39-2.09 3.6-2.7-.6 0-1.21.31-1.8.9.59-1.2 5.99-3.61 16.2-7.2l-2.7-.9c1.8-.59 4.8-1.04 9-1.35 4.19-.3 6.89-.75 8.1-1.35h-4.5l-2.7-.9h4.05c2.1 0 3.45-.3 4.05-.9-1.21 0-.31-.3 2.7-.9.59 0 1.65.16 3.15.45.27.06.46.08.71.12-.39-.14-.78-.19-1.16-.58 1.19 0 2.84.16 4.95.45 2.1.31 3.45.45 4.05.45.59 0 .9.31.9.9v-.9h5.4l.9.9h.9c5.99 0 15.3 3.01 27.9 9 0-.48.5-.72 1.3-.82-.12 0-.29-.09-.4-.09h.9c-.23 0-.32.06-.5.09 1.76.11 3.98.93 6.8 2.62 1.19.61 2.09 1.21 2.7 1.81l.9 1.8h.9c.59.61.3.9-.9.9l.9 1.8h-.9a5.707 5.707 0 0 0 2.7 2.7l1.8 4.5c.59 0 .59-.59 0-1.8.59 0 1.04.31 1.35.9.3.6.45 1.21.45 1.8v-.9c1.19 0 2.09.76 2.7 2.26.59 1.5 1.19 2.25 1.8 2.25-.61-1.2-.9-2.1-.9-2.7 2.14.54 3.01 2.09 2.77 4.54.51.02.83.14.83.41 0 .31.3.45.9.45 0 .6-.31.6-.9 0 1.8 2.4 2.7 4.81 2.7 7.2.48.49 1.39 3.27 2.67 8.11.01 0 .02-.01.03-.02-.01.03 0 .06-.01.09.29 1.1.58 2.19.91 3.52-1.18-1.16-1.46-2.34-.91-3.52-.01-.02-.01-.05-.02-.07-1.76.61-1.76 2.11.03 4.49.59 3.6 1.49 7.2 2.7 10.8 0-.59-.31-2.4-.9-5.4.59 0 1.19 1.5 1.8 4.5.59 3.01 1.19 4.81 1.8 5.4-.6.61-.6.9 0 .9.59 1.21.59 2.4 0 3.6 0 2.4.59 3.6 1.8 3.6v5.4c0 2.4.29 4.5.9 6.29v-3.6c.59 0 .9.76.9 2.26 0 1.5.3 2.25.9 2.25-1.21 1.2-1.21 3.3 0 6.3-.61 0-.9.31-.9.9 0 .6-.31.9-.9.9l1.8 1.8c0 .6-.15.9-.45.9-.31 0-.16.3.45.9-.61.6-.76 2.11-.45 4.5.3 2.41.45 4.21.45 5.4.59.61.74 2.7.45 6.3-.31 3.6-.45 5.71-.45 6.3v.9l-.9-.9v10.8l-.9-1.8c-1.21.6-1.51 1.8-.9 3.6.59 0 .9-.59.9-1.81 1.19 1.81 2.09 7.2 2.7 16.2 0 .61-.31.9-.9.9v2.71c0 1.2.29 2.85.9 4.95.59 2.11.9 3.75.9 4.95 0 1.21-.31 2.41-.9 3.6.59 0 .59.9 0 2.7v2.7c.59-1.19.9-3.44.9-6.75 0-3.29.3-5.24.9-5.85-.61 1.21-.31 2.11.9 2.7V333.84c-1.21 2.41-1.21 6.01 0 10.8l.9 6.3c-.6 0-.9-.29-.9-.9v4.5c-1.21 1.8-1.21 3.91 0 6.3-.61.6-.9 2.41-.9 5.4v3.6c0 .6.29.9.9.9v3.6c.59 3.01.3 4.82-.9 5.4 0 .6.14.9.45.9.3 0 .45.31.45.9h-.9c-.61.6-.31.9.9.9-.61 55.22-1.21 90.91-1.8 107.11-.6 3.01-1.21 7.35-1.8 13.05-.61 5.71-.9 9.45-.9 11.25-.6 8.41-1.21 13.21-1.8 14.4v-1.8c-1.21 0-1.5.31-.9.9-.6-.59-1.21-.59-1.8 0 0-.59.3-1.2.9-1.8-.6 0-.9.15-.9.45 0 .31-.15.45-.45.45-.31 0-.76-.45-1.35-1.35-.6-.9-1.5-1.35-2.7-1.35.59-.59.59-1.49 0-2.7h-.9c1.2.6 1.49 1.21.9 1.81-.6.6-.9.6-.9 0v-1.81c-1.8-5.99-3.3-9.3-4.5-9.9 0 .6-.31.9-.9.9 0-.59-.31-1.2-.9-1.8-.6-.59-.6-1.2 0-1.81-.6 0-.9.31-.9.9 0 .61-.16.9-.45.9-.31 0-.45-.59-.45-1.81-.6.6-1.21.45-1.8-.45-.61-.9-.9-1.65-.9-2.26 0 .61-.31.9-.9.9 0-1.2-.31-1.8-.9-1.8 0 1.8-.31 2.7-.9 2.7 0-1.81.3-4.19.9-7.2v1.8c.59 0 .9-.59.9-1.8v-.9h-.9c.59-3.6.9-9.59.9-18v-9.9c.59-16.79.9-26.1.9-27.91v-44.1c0-6.6.14-16.79.45-30.61.3-13.8.45-23.99.45-30.61V279.79c0-3.6-.15-8.85-.45-15.75-.31-6.89-.45-12.15-.45-15.75 0-2.39-.31-7.2-.9-14.4-.6-10.8-2.7-19.8-6.3-27-8.41-16.79-19.8-27.9-34.2-33.3-9-3-13.5-4.8-13.5-5.4-4.21-.59-7.51-.59-9.9 0v.9c-3.6 1.21-8.1 4.21-13.5 9 .59 0 1.04-.14 1.35-.45.3-.29.45-.14.45.45-10.21 9.6-16.2 21.91-18 36.9-1.21 1.81-2.7 7.81-4.5 18-.6 1.21-1.21 3.91-1.8 8.1 0 1.21-.45 4.36-1.35 9.45-.9 5.11-1.35 9.15-1.35 12.15 0 1.8-.31 5.11-.9 9.9-.6 4.81-.9 8.41-.9 10.8v15.3c0 1.21-.15 2.56-.45 4.05-.31 1.5-.45 3.01-.45 4.5 0 1.5-.31 3.76-.9 6.75v12.6c.59 0 .74 1.8.45 5.4-.31 3.6-.45 5.71-.45 6.3 0 5.4.14 13.5.45 24.31.3 10.8.45 18.9.45 24.3v19.8c.59 22.81 1.2 40.81 1.8 54.01v65.25c0 1.5-.31 2.56-.9 3.15v3.61c0 1.8.14 4.81.45 9 .3 4.21.45 7.21.45 9 0 3.01-.31 5.71-.9 8.1l.9.9c0 1.21-.15 3.15-.45 5.85-.31 2.7-.45 4.65-.45 5.85.59 7.81.9 14.4.9 19.8 0 7.2-.31 13.81-.9 19.8.59 2.41.9 4.81.9 7.2 0 1.2-.15 3.01-.45 5.4-.31 2.41-.45 4.21-.45 5.4v38.7c-.6.6-.76.9-.45.9.29 0 .45.31.45.9-.6 14.4-.9 29.7-.9 45.9 0 12.6.3 24.61.9 36v16.21c1.2 16.19 1.8 24.9 1.8 26.1v3.59c.59 1.8.59 3.61 0 5.4l1.8 8.1c1.2 13.81 4.5 23.71 9.9 29.7 5.99 7.2 14.09 12.6 24.3 16.2l15.3 2.7c4.79.6 8.4.6 10.8 0 0-.59-.31-.9-.9-.9h-3.6c1.2-.59 2.7-1.19 4.5-1.8 0-.59-.15-.75-.45-.45-.31.31-.76.45-1.35.45 10.2-5.99 16.5-11.1 18.9-15.3h.9c0-.59.29-1.2.9-1.8 4.19-4.2 7.79-9.3 10.8-15.3 0-1.2.3-2.39.9-3.6.26 0 .35.08.38.2 1.13-2 2.5-5.6 4.12-11 0-.59.59-1.49 1.8-2.7 0-.59-.31-1.2-.9-1.8 2.99-11.39 4.5-21.61 4.5-30.6v-5.4c.59-1.8.9-4.19.9-7.2 0-1.2-.15-3-.45-5.4-.31-2.39-.45-4.19-.45-5.4v-1.8l.9-4.51V715.4c-.6-5.99-.9-9.59-.9-10.8 0-.59.14-1.35.45-2.25.29-.9.14-1.35-.45-1.35h-12.6c-5.4 0-9.31-.59-11.7-1.8-4.2 1.21-8.1.61-11.7-1.8 3 .6 5.7.6 8.1 0 0-.59-.6-.9-1.8-.9-.6 0-.6-.3 0-.9-3.01.6-5.4 0-7.2-1.8h8.1c1.2 0 2.84-.3 4.95-.9 2.09-.59 3.44-.9 4.05-.9 0-.59-.31-1.2-.9-1.8-1.8 0-3.91.15-6.3.45-2.41.31-4.21.45-5.4.45h-1.8c-.61 0-1.35-.14-2.25-.45-.9-.3-1.35-.74-1.35-1.35.59-.6 1.49-.6 2.7 0 0-.6.59-.6 1.8 0 0-.6-.6-.9-1.8-.9-1.21 0-1.8-.29-1.8-.9-.61 0-.61-.59 0-1.81.59 0 1.19.31 1.8.9h-.9c.59 0 1.19.31 1.8.9.59-1.2.59-1.81 0-1.81.59 0 .59-.29 0-.9-1.21 0-2.11-.9-2.7-2.7.59-2.39 1.19-4.19 1.8-5.4.59 0 1.49-.3 2.7-.9 2.39-.59 3.9-.3 4.5.9l1.8-.9h9c2.99 0 7.95-.14 14.85-.45 6.89-.3 11.84-.45 14.85-.45 4.8 0 8.69.31 11.7.9 1.19 15.61 1.8 35.11 1.8 58.51v40.5c0 .6-.31 2.7-.9 6.3v7.65c0 3.31-.16 6.16-.45 8.55-.31 2.41-.76 4.5-1.35 6.3 0 1.8-.31 3.01-.9 3.6v.9c0 3.6-.9 8.71-2.7 15.3-.6 0-1.21 1.21-1.8 3.61-.6 0-.6-.59 0-1.81-.6.6-.9 1.66-.9 3.16 0 1.5-.31 2.85-.9 4.04l-.9-.9c0 .6-.31 1.66-.9 3.15-.61 1.51-1.5 2.56-2.7 3.15.59 0-.31 2.11-2.7 6.3 0 .6.14.9.45.9.29 0 .45.3.45.9h-.9c-1.8 3.01-2.7 4.81-2.7 5.4-.6.6-1.21.6-1.8 0 0 .6-.16 1.05-.45 1.35-.31.31-.45.76-.45 1.35-1.21.6-2.41 1.66-3.6 3.15-1.21 1.51-2.11 2.26-2.7 2.26l.9.9c-.6 0-1.21.31-1.8.9v.9c-1.8 1.21-2.7 2.11-2.7 2.7-1.21.6-3.91 1.8-8.1 3.6-.6.61-1.5 1.21-2.7 1.81-1.21.6-2.11.9-2.7.9-.6.6-.6 1.51 0 2.7-1.21.6-2.56 1.21-4.05 1.8-1.51.6-2.56 1.21-3.15 1.8-.6 0-2.86.14-6.75.45-3.91.3-6.75.45-8.55.45v-.9c-3.6 1.2-6.61 1.2-9 0 1.19.59 3.29 1.49 6.3 2.7-3.6 0-5.71-.61-6.3-1.8 0 .59-.16.9-.45.9-.31 0-.15.14.45.45.59.29 1.19.45 1.8.45-1.8.59-4.21.59-7.2 0 0 .59-.31.9-.9.9h-2.7c-1.21 0-1.8.29-1.8.9-5.4-1.2-8.41-1.8-9-1.8v.9c-1.21-.6-2.4-1.21-3.6-1.8 0 1.2.3 1.8.9 1.8-1.21-.6-4.5-2.41-9.9-5.4-.6-.59-1.21-.59-1.8 0-4.2-2.39-6.61-3.9-7.2-4.5v-.9c-1.8-.59-3.91-2.1-6.3-4.5-.61-1.2-1.21-2.1-1.8-2.7h-1.8v-.9c-1.21-1.8-2.11-3-2.7-3.6v.9l.9 2.7c-.6-.59-1.5-1.35-2.7-2.25-1.21-.9-2.11-1.35-2.7-1.35-.6 0-.6.31 0 .9-.6 0-.9-.3-.9-.9 0-.59-.31-.59-.9 0 0-.59.3-.9.9-.9 0-.59-.45-.9-1.35-.9-.26 0-.39-.08-.58-.13l.13.13c-.11 0-.31-.11-.52-.21-.01-.01-.04-.01-.05-.02-.87-.49-2.47-1.89-4.83-4.27 0 1.21.59 3.01 1.8 5.4.59 1.21 1.2 2.11 1.8 2.7-.6-.59-4.21-6.3-10.8-17.11.59 1.21 2.1 5.11 4.5 11.71h1.8c.59 3.01 2.7 6.61 6.3 10.8-1.8-1.2-3.91-3.61-6.3-7.21-.6.6-.6 1.05 0 1.35.59.31.9.76.9 1.35 1.19 1.21 2.39 3.01 3.6 5.4-1.8-1.2-3.01-3-3.6-5.4-1.8-.59-2.41-1.8-1.8-3.6-.61-1.2-1.21-2.1-1.8-2.7-.6-1.2-1.35-3-2.25-5.4-.9-2.39-1.66-4.5-2.25-6.3-2.41-7.2-4.21-14.69-5.4-22.5-.6-.59-.9-1.65-.9-3.15v-3.15c-1.21-6.59-2.11-16.2-2.7-28.8-1.21-15.6-1.8-35.11-1.8-58.51v-11.7c.59-43.8.9-66.9.9-69.31-.61-5.4-.61-10.49 0-15.3v-40.51c.59-1.19.59-1.8 0-1.8V564.17l.9-1.8c-.61-1.2-.9-3-.9-5.4 0-1.19.14-2.7.45-4.5.3-1.8.45-3.29.45-4.5 0-1.2-.31-2.39-.9-3.6h.9c-.61-3-.61-4.79 0-5.4-.61 0-.76-1.2-.45-3.6.3-2.39.45-3.9.45-4.5l-.9-.9c-.61-.59-.76-2.39-.45-5.4.3-3 .45-4.79.45-5.4V486.76c.59 0 .59-.6 0-1.81v-10.8c.59-5.4.59-9.3 0-11.71v-21.6c0-.59.29-1.49.9-2.7h-.9c.59-1.2.29-3.6-.9-7.21.59-1.8.75-3.74.45-5.85-.31-2.09-.16-4.05.45-5.85l-.9-.9c.59-.59.9-1.2.9-1.8-.61-6.59-.9-12.6-.9-18 0-3.6.3-7.2.9-10.8v1.8c.59 0 .74-.45.45-1.35-.31-.9-.76-1.35-1.35-1.35l-.9-25.2c.59-1.8.9-5.99.9-12.6-.6-.49-.3-.79.9-.79zm158.42-104.41v.9c-.61-.59-.61-.9 0-.9zm3.6 118.81v4.5c-.61-1.8-.61-3.29 0-4.5zm-7.2 165.62-.9.9c-.6-.58-.6-1.19 0-1.8l.9.9zm-3.6-.9c0 1.21-.31 1.5-.9.9v-.9h.9zm-17.1 334.83-1.8 1.8c0 .6-.61.9-1.8.9l-.9.9c.59-1.2 1.49-1.81 2.7-1.81 0-.59.14-1.04.45-1.35.29-.29.74-.44 1.35-.44zm-15.3 9.9c0 .61-.6.9-1.8.9-.01-.59.59-.9 1.8-.9zm-83.71-7.2v1.8c0-.59-.15-1.04-.45-1.35-.31-.3-.16-.45.45-.45zm-3.6 5.4-1.8-.9c0-.59.29-.59.9 0 .59 0 .9.31.9.9zm124.21 947.45c0 6.61-.31 11.7-.9 15.3-.6.61-1.96 1.04-4.05 1.35-2.11.3-3.46.45-4.05.45 0-.6-.31-.9-.9-.9 0 .59-.9.74-2.7.45-1.8-.31-3.01-.15-3.6.45-1.21 0-1.8-.31-1.8-.9h-3.6c-1.8 0-2.7.3-2.7.9l-1.8-.9c-1.8 0-4.95.3-9.45.9-4.5.59-7.96.9-10.35.9h-8.1v-.9c-.61 0-1.5.3-2.7.9h-6.3c-3.01 0-5.1-.31-6.3-.9-3.6 0-5.71-.31-6.3-.9-1.21.59-2.7.59-4.5 0s-3.01-.9-3.6-.9l-.9-.9h-3.6c-1.21-1.2-2.11-1.8-2.7-1.8.59.6.59.9 0 .9v-.9c-.6 0-.9.31-.9.9v-.9h-.9c-4.21-1.8-6.3-2.99-6.3-3.6-.6 0-.9.6-.9 1.8v2.7c-.6-.59-1.21-.9-1.8-.9l-.9-.9c-1.21-1.2-3.6-2.39-7.2-3.6l1.81 1.81.9.9-.9-.9c0 .6.9 1.35 2.69 2.25 1.8.9 2.7 1.66 2.7 2.25-3.01-1.2-4.81-2.09-5.4-2.7-.6-.59-1.21-.9-1.8-.9-1.21-.59-2.11-.9-2.7-.9l-9.9-9v1.8c-.86-.85-1.38-1.71-1.93-2.57l-.77.77h.9c0 .6.3 1.21.9 1.8l.9.9c-1.21-.59-2.7-1.8-4.5-3.6-.6.6-.6 1.21 0 1.8l1.8 1.81-1.8-1.8-3.6-3.6c0 .61.59 1.5 1.8 2.7.59.6.9 1.5.9 2.7-1.21-1.2-1.5-2.1-.9-2.7-.55 0-1.38-1.12-2.41-3.1a.638.638 0 0 1-.08-.14c-.08-.15-.13-.2-.21-.36-1.21-1.19-2.11-2.39-2.7-3.6-.6-.59-1.5-1.81-2.7-3.6 0-1.8-.9-3-2.7-3.6.59 1.2 1.49 3.01 2.7 5.39 1.2 2.41 2.1 3.91 2.7 4.51v.9l1.8 1.8h-.9c0-.59-.16-.9-.45-.9-.31 0-.45-.3-.45-.9.59 2.41 2.09 5.1 4.5 8.1 1.8 1.8 2.99 3.31 3.6 4.5-1.21-1.2-4.81-5.4-10.8-12.6-4.2-9-8.1-18.9-11.7-29.7-1.8-5.99-3.3-15.6-4.5-28.8-.61-5.4-1.5-11.7-2.7-18.9 0-3.6-.15-9.14-.45-16.65-.31-7.5-.76-12.74-1.35-15.75 0-5.4.3-9 .9-10.8-.6-2.39-.9-6.59-.9-12.6v-28.8c0-5.4.14-13.79.45-25.2.29-11.4.45-20.1.45-26.1V1542.36c.59-5.99.9-14.99.9-27V1407.35c0-5.99.14-14.85.45-26.55.3-11.7.45-20.25.45-25.65 0-11.39-.31-20.1-.9-26.1V1261.54c0-5.4.14-14.85.45-28.35.3-13.51.45-23.55.45-30.16 0-10.2-.31-17.4-.9-21.61v-31.5c0-1.81.14-3.9.45-6.3.3-2.39.45-4.5.45-6.3 0-4.19.59-10.49 1.8-18.9v6.3c.59 0 .9-.9.9-2.7 0-1.8.3-2.7.9-2.7.59-.59.9-.29.9.9v-.9c.59-1.19 1.2-1.8 1.8-1.8v2.7c.59.6 1.2.31 1.8-.9v1.81c.59 0 1.04-.45 1.35-1.35.29-.9.75-1.35 1.35-1.35v2.7c1.8-1.81 2.7-3.9 2.7-6.3l.9.9c.59 0 .9-.59.9-1.8v4.5c1.19-.59 1.8-1.49 1.8-2.7 0-1.2.29-1.8.9-1.8.59 0 .9 1.21.9 3.6.59 0 .9-.9.9-2.7 1.2 0 1.8-.9 1.8-2.7v-1.8l.9 1.8c0 .6.3 1.21.9 1.8 0-1.2-.31-2.1-.9-2.7.59 0 .9-.9.9-2.7l1.8-1.81h2.7c1.2 6.01 1.8 11.11 1.8 15.3v.9c0 3.6-.6 7.81-1.8 12.6v22.5c0 5.4-.31 9.61-.9 12.61v59.4c0 10.8-.15 26.26-.45 46.36-.31 20.11-.45 34.96-.45 44.55 0 13.21.29 22.81.9 28.8 0 2.41.14 6.61.45 12.6.29 6 .45 10.8.45 14.4 0 1.8-.15 4.5-.45 8.1-.31 3.61-.45 6.3-.45 8.1 0 2.41-.15 5.4-.45 9-.31 3.6-.45 6.3-.45 8.1s.14 4.5.45 8.1c.3 3.61.45 6.3.45 8.1 0 3.6-.31 6.01-.9 7.2v53.11c-.61 4.2-.9 10.8-.9 19.8v8.1c.59 1.8.9 4.81.9 9 0 3.6-.31 6.3-.9 8.1v55.8c-.6 9-.9 22.5-.9 40.51v17.1c.59 11.41.9 28.51.9 51.31v5.4c0 4.21.14 10.51.45 18.9.3 8.41.45 14.4.45 18 1.8 29.41 10.2 50.11 25.2 62.11 7.2 4.81 21.9 7.8 44.1 9h1.8c4.8 0 13.05-.29 24.75-.9 11.7-.59 20.25-.9 25.65-.9-.6 0-.9.31-.9.9 3-.59 5.7-.59 8.1 0v8.96zm72.89 2.7c-.6 0-.9-.59-.9-1.8.59 0 .9.15.9.45v1.35zm134.11-696.67c.59.6 1.2 2.4 1.8 5.4l-.9-.9c-.61 3.01-.31 4.5.9 4.5-.6.61-.9 1.35-.9 2.26 0 .9.29 1.35.9 1.35 0 .61-.31.9-.9.9 0 2.41.29 4.21.9 5.4-1.21 0-1.8.31-1.8.9h.9c.59 1.21.59 3.31 0 6.3.59 1.2.59 3.6 0 7.2v4.5c0 .6-.15.9-.45.9-.31 0-.45.31-.45.9.59 0 .9-.14.9-.45 0-.3.29-.45.9-.45 0 3.01-.31 6.3-.9 9.9.59.61.74 1.8.45 3.6-.31 1.81-.45 3.01-.45 3.61 0-.59-.31-.9-.9-.9 0 .61.3 1.21.9 1.81 0 .6-.15.9-.45.9-.31 0-.45.31-.45.9h.9c.59 0 .74.45.45 1.35-.31.9-.76 1.66-1.35 2.26-.6-.6-.6-1.5 0-2.7-1.21 1.8-1.51 4.5-.9 8.1 0-1.2.3-2.7.9-4.5v4.5h.9c0 1.21.29 2.11.9 2.7-1.21 4.21-1.21 6.91 0 8.1 0 .61-.6.61-1.8 0 0 .61.14 1.21.45 1.81.3.6.45 1.2.45 1.8l-.9-.9v1.81c0 1.2-.31 1.8-.9 1.8 0-2.39-.31-3.9-.9-4.5v4.5c0 .61.14.9.45.9h1.35c0 .6-.15 1.2-.45 1.8-.31.61-.45 1.21-.45 1.8.59-.59.9-.59.9 0 .59.6.59 1.21 0 1.8v8.1c.59 4.21.3 7.2-.9 9 1.19 0 1.8.31 1.8.9 0 .6-.31.9-.9.9-.6 0-.9.31-.9.9h.9l.9 1.8-.9.9c.59.6.75 1.66.45 3.15-.31 1.5-.16 2.85.45 4.05h-.9c.59.6.59 1.2 0 1.8l.9.9c-.61 3.01-.61 5.4 0 7.2-1.21 1.8-1.5 3.01-.9 3.61h-1.8c.59.6 1.04 1.35 1.35 2.25.29.9.74 1.66 1.35 2.25-.61.6-.9 1.2-.9 1.8 0 .6-.31 1.21-.9 1.8.59 0 .9.3.9.9l-.9 5.4c.59 0 .9 1.8.9 5.4 0 1.37-.08 2.41-.21 3.28.13.3.21.68.21 1.22-.2 0-.32-.17-.45-.3-.13.47-.25 1-.45 1.2.59 0 .59 3.31 0 9.9l.9.9v5.4c.59.6.59 1.21 0 1.8v5.4c0 .61-.15.9-.45.9-.31 0-.45.31-.45.9 0 1.21.3 1.8.9 1.8v-1.8c0 .6.3 1.8.9 3.6l-1.8.9c.59.61.9 1.21.9 1.81v2.7c1.2 3.6 1.2 6.3 0 8.1v21.61c0 1.21-.31 1.8-.9 1.8.59.61.9 1.21.9 1.81v9.9h-.9v.9h.9c0 3.01-.31 4.82-.9 5.4 0 .6.3.6.9 0v10.35c0-.3-.31-.15-.9.45.59.6.9 4.21.9 10.8h-.9v1.8c.59 0 .9-.3.9-.9v39.6c0 10.21.3 18.9.9 26.1 0 1.21-.31 1.51-.9.9 0 .6.14.9.45.9.3 0 .45.31.45.9-.61 6.01-.9 13.21-.9 21.6 0 6.61.14 17.41.45 32.4.3 15.01.45 26.1.45 33.3v15.3c-.61 24.01-.9 40.81-.9 50.41 0 7.2.14 18.15.45 32.85.3 14.72.45 25.06.45 31.06v49.5c0 35.41-3.6 62.41-10.8 81.01-.6 0-1.05.31-1.35.9-.31.6-.76.9-1.35.9-.61 3.01-2.7 6.46-6.3 10.35-3.6 3.91-5.4 6.16-5.4 6.75-1.8.6-4.36 1.8-7.65 3.6-3.3 1.8-5.85 3.31-7.65 4.5h-1.8c-7.81 3.6-18.31 5.4-31.5 5.4-10.21 0-18.9-1.21-26.1-3.6-.6 0-.9-.3-.9-.9-2.41 0-5.4-.9-9-2.7 0 .6.3.9.9.9.59 0 .9.31.9.9-1.8 0-4.5-1.2-8.1-3.6 0 .6-.31.9-.9.9-.6 0-.6-.59 0-1.8l-.9.9c-.6-.59-1.51-1.49-2.7-2.7a167.06 167.06 0 0 1-2.7-2.7l-.9.9c-.61-.59-.61-.9 0-.9h-.9c-1.21-.59-2.4-1.8-3.6-3.6-1.21-1.8-2.11-2.99-2.7-3.6-.61.61-1.21.31-1.8-.9 0 .6.45 1.51 1.35 2.7.9 1.21 1.35 2.11 1.35 2.7-1.8-1.8-3.91-5.09-6.3-9.9v1.8c1.2.6 1.8 1.51 1.8 2.7-1.21-.59-2.11-.9-2.7-.9 0 1.2.3 2.11.9 2.7-.6 0-1.05-.14-1.35-.45-.31-.3-.45-.75-.45-1.35.59 0 .9-.3.9-.9 0-.59-.31-1.35-.9-2.25-.6-.9-.9-1.65-.9-2.26-.6.61-.6 1.35 0 2.26.59.9.59 1.66 0 2.25l-.9-2.7c0 1.2-.15 1.66-.45 1.35-.31-.3-.16-1.04.45-2.26h-1.58c.47 1.27.98 2.7 1.58 4.5-.61 1.8-.15 3.76 1.35 5.85 1.49 2.11 2.25 3.46 2.25 4.05-1.8-1.8-3.01-2.99-3.6-3.6-6.61-12-10.8-36-12.6-72.01-.6-11.4-.9-23.99-.9-37.8v-25.21c.59-.58.59-1.19 0-1.8v-73.8c0-7.79.3-19.5.9-35.11V1541.46c.59-14.4.9-23.99.9-28.8v-.9c0-3.6.14-10.49.45-20.7.3-10.2.45-18.3.45-24.3v-52.21c0-5.4-.31-15.45-.9-30.16-.61-14.7-.9-26.85-.9-36.45V1148.12c0-4.79.3-11.7.9-20.7-.61-1.8-.61-2.7 0-2.7.59 0 .9.31.9.9 0 .6.3.6.9 0v1.8c.59-.59.75-1.35.45-2.25-.31-.9-.15-1.65.45-2.25.59.6.9 1.21.9 1.8.59-.59 1.2-.59 1.8 0 .59 0 .9-.29.9-.9 0-.59.29-.9.9-.9h2.7l1.8-1.8c.59-.59.9-1.2.9-1.81 0 1.21.3 1.81.9 1.81 0-.59.3-1.04.9-1.35.59-.3 1.19-.75 1.8-1.35-.61 0-.9-.3-.9-.9 0-.59.29-.9.9-.9.59 0 .9.6.9 1.8 1.2-4.19 1.49-6.89.9-8.1.59 0 1.49-.3 2.7-.9v2.7l.9-.9v1.8c.59 0 1.04-.3 1.35-.9.3-.59.45-1.19.45-1.8.59 0 1.04.45 1.35 1.35.3.9.75 1.35 1.35 1.35-.6-1.2-.6-2.09 0-2.7v.9l.9.9c.59-2.39 1.2-3.6 1.8-3.6 0 .6-.15 1.05-.45 1.35-.31.31-.45.76-.45 1.35 1.2 0 1.8.15 1.8.45 0 .31-.31.76-.9 1.35.59 4.21.9 9.31.9 15.3 0 6.61-.31 14.71-.9 24.3v36.9c0 7.2-.31 13.81-.9 19.8v61.2c0 1.21-.15 4.5-.45 9.9-.31 5.4-.45 9.6-.45 12.6v9.9c.59 6.01.9 12.6.9 19.8 0 4.21-.15 10.35-.45 18.45-.31 8.1-.45 14.26-.45 18.45 0 6.01.29 11.7.9 17.1.59 18.6.9 38.41.9 59.4 0 32.41-.9 72.01-2.7 118.81-.6 36.61-.9 59.72-.9 69.31v17.11c0 4.81-.31 9.31-.9 13.5v36c-.61 7.81-.9 15.3-.9 22.5 0 4.81.3 9.6.9 14.4 1.19 36 7.79 60.31 19.8 72.91 11.39 7.2 21 10.8 28.8 10.8h2.7c7.79 0 14.99-.9 21.6-2.7.59 0 1.04-.3 1.35-.9.3-.59.74-.59 1.35 0 .59-1.2 2.25-2.39 4.95-3.6 2.7-1.2 4.35-2.4 4.95-3.6h.9c5.99-6.59 9.3-10.5 9.9-11.71-1.21.6-2.4 1.8-3.6 3.6-1.21 1.8-2.4 2.7-3.6 2.7 0-.59.59-1.65 1.8-3.15 1.2-1.49 2.1-2.55 2.7-3.15-.6 0-1.21.45-1.8 1.35-.6.9-1.21 1.35-1.8 1.35 2.39-4.19 3.6-7.79 3.6-10.8 0-1.2-.31-2.39-.9-3.61-.6.61-1.21 1.96-1.8 4.05-.6 2.11-1.5 3.46-2.7 4.05 3.6-9.59 6.3-19.2 8.1-28.8 0-.59.3-.9.9-.9 1.2-12 2.39-27.9 3.6-47.7v-36.9c0-2.39-.15-6.14-.45-11.25-.31-5.09-.45-9.14-.45-12.15v-3.6c.59-9.6.9-17.7.9-24.31 0-4.19-.31-8.69-.9-13.5v-1.8c0-1.8.14-4.05.45-6.75.3-2.7.45-4.95.45-6.75v-3.6c-.6-5.99-.9-14.09-.9-24.3V1538.73c-.6-37.2-.9-63.01-.9-77.41V1315.52c.59-49.8.9-78.6.9-86.4v-3.6c0-3.6.3-8.69.9-15.3.59-6.59.9-12 .9-16.2 0-1.19-.15-2.84-.45-4.95-.31-2.1-.45-3.74-.45-4.95v-29.7c-.6-13.8-.9-21.61-.9-23.4 0-5.99.3-11.71.9-17.1l1.8-1.8c.59.6 1.35.76 2.25.45.9-.3 1.64-.45 2.25-.45v1.8c5.4-1.2 9.3-1.2 11.7 0 .59-.59 2.39-.59 5.4 0 2.99.6 4.8.9 5.4.9-.6 1.8-1.21 2.7-1.8 2.7.6.55.3 2.65-.9 6.25zm.91 84.16c0 .3-.31.45-.9.45v-.9c.59 0 .9.16.9.45zm-42.31 590.91c0-.59.59-1.2 1.8-1.81-.6 1.22-1.21 1.81-1.8 1.81zm258.33 16.2c-3.02 1.21-6.61 3.31-10.8 6.3-4.21 3.01-6.91 5.1-8.1 6.3-8.41 4.81-17.71 8.1-27.9 9.9-9 1.19-14.4 1.8-16.2 1.8h-16.2c-1.21-.6-3.15-1.21-5.85-1.8-2.7-.6-4.95-.9-6.75-.9-7.8-2.99-13.21-5.69-16.2-8.1l-1.8-.9c-.6 0-1.5-.59-2.7-1.8-1.21-1.19-2.41-2.09-3.6-2.7-.6-.59-.9-1.19-.9-1.8-16.81-16.79-27.9-36.91-33.3-60.31-.61-.59-1.21-1.19-1.8-1.8.59 0 .9-.3.9-.9v-1.8c-1.21-1.19-1.8-3.15-1.8-5.85v-5.85c-1.21-.59-1.8-1.49-1.8-2.7l.9 1.8v-.9l-.9-2.7c-.6 0-.6.31 0 .9-1.21-1.2-1.21-1.8 0-1.8 0-1.81-.31-3.9-.9-6.3v-3.6c-.61 0-.9-.59-.9-1.81h.9c0-.59-.31-.9-.9-.9v-3.16c0-.9-.15-2.25-.45-4.05-.31-1.8-.45-3.15-.45-4.05 0-.9.3-1.64.9-2.25-1.21-2.39-1.8-5.4-1.8-9 0-2.39.3-4.79.9-7.2h-.9v-3.6c.59 0 .9.3.9.9v-2.7c-.6 0-.9-.14-.9-.45v-1.35l.9 1.8c0-.59-.31-1.49-.9-2.7 0-5.99-.31-9.29-.9-9.9 0-.59.14-.9.45-.9.3 0 .45-.29.45-.9v-14.41c0-8.39-.61-14.4-1.8-18h.9v-6.3c0-.59-.15-1.35-.45-2.25-.31-.9-.45-1.65-.45-2.25V1627.8c0-.59-.15-1.8-.45-3.6-.31-1.8-.15-2.99.45-3.6v-8.1c.59-5.4.3-9.9-.9-13.5.59-.59.9-1.19.9-1.8 0-.59-.31-.9-.9-.9 0-.59.3-1.19.9-1.8-.6-5.4-.6-10.2 0-14.4-.6-1.2-.9-3-.9-5.4 0-.59.14-1.8.45-3.6.3-1.8.45-3.29.45-4.5v-2.7c-.6-.59-.31-.59.9 0-.6-1.8-.9-3.9-.9-6.3 0-1.8.14-4.63.45-8.55.3-3.89.45-6.75.45-8.55 0-3.6-.31-6.59-.9-9 .59-.59.9-1.49.9-2.7v-2.69h-.9c0-.59.14-1.2.45-1.81.3-.59.45-1.04.45-1.35v-3.15c.59-.59.59-1.65 0-3.15-.6-1.49-.9-2.55-.9-3.15 0-.59.3-2.1.9-4.5v-1.8c-.6-.59-.9-1.04-.9-1.35 0-.3.3-1.04.9-2.25 0-1.2-.15-2.55-.45-4.05-.31-1.49-.45-2.54-.45-3.15.59 0 .9.31.9.9v-2.7c-.6-1.81-.31-2.7.9-2.7v-3.6c0-.59-.15-1.35-.45-2.25-.31-.9-.45-1.65-.45-2.25-.6.6-.9.6-.9 0 .59-1.2.59-2.7 0-4.5.59 0 .9.31.9.9 0-.59-.31-2.1-.9-4.5 1.8-.59 2.1-2.39.9-5.4V1454.1c-.6-.59-.9-1.2-.9-1.8l.9.9v-3.15c0-1.49-.31-2.55-.9-3.16l.9-.9c0-.59-.15-1.2-.45-1.81-.31-.58-.45-1.04-.45-1.35 0-.3.3-.75.9-1.35v-23.41c0-1.19-.15-3.28-.45-6.29-.31-3-.45-5.4-.45-7.2.59-4.79.9-8.69.9-11.7-.6-21.6-.9-38.4-.9-50.4 0-14.41.3-27.01.9-37.81 0-.59-.15-.9-.45-.9-.31 0-.45-.3-.45-.9.59-1.19.9-3.44.9-6.75v-6.75c0-.59-.31-.9-.9-.9 0-.59.3-.9.9-.9 1.8-38.4 3.29-62.7 4.5-72.91v-.9c-.6-.59-.6-1.2 0-1.8 0-2.39.3-5.99.9-10.8 0-.59.3-1.65.9-3.15.59-1.49.9-2.54.9-3.15v-3.6c0-.59.3-1.65.9-3.15.59-1.49.9-2.54.9-3.15 0-.59.29-1.8.9-3.6.56-1.7.81-3.07.85-4.24-.72 1.87-1.34 3.41-1.75 4.24.59-4.79 3.9-12.9 9.9-24.3 1.19-3 2.09-4.5 2.7-4.5 0 .6-.31 1.35-.9 2.25-.61.9-.9 1.96-.9 3.15.59-.59 1.2-1.49 1.8-2.7l.9-1.8c-.6-.59-.9-1.2-.9-1.8 1.2-3 2.7-5.4 4.5-7.2-.6 1.2-.9 2.11-.9 2.7 1.19 0 2.25-1.04 3.15-3.16.9-2.09 1.64-3.44 2.25-4.05.59-1.8 2.09-3.9 4.5-6.3 2.39-2.39 3.6-3.9 3.6-4.5 15.59-12.6 32.09-18.9 49.5-18.9h12.6c11.39 1.21 20.7 3.31 27.91 6.3 1.79.6 5.7 2.7 11.7 6.3 5.99 3.6 11.7 7.51 17.1 11.71 4.19 3.01 6.3 5.11 6.3 6.3-.6 1.8-.9 2.85-.9 3.15 0 .31.14.76.45 1.35.3.6.45 1.05.45 1.35 0 .31-.15.76-.45 1.35-.31.6-.45 1.21-.45 1.81v10.8c-.6 2.41-1.21 3.31-1.8 2.7-3.01-1.8-4.81-2.7-5.4-2.7-1.2 0-2.4-.9-3.6-2.7-16.2-10.2-30.91-16.79-44.1-19.8-4.2-.59-9-1.19-14.4-1.8-3.6 0-6.61.61-9 1.8-9.61 1.8-19.21 7.51-28.8 17.1-9.6 9.6-16.81 28.5-21.6 56.7-2.41 10.8-3.6 24.91-3.6 42.3v59.41c0 1.8.14 4.2.45 7.2.29 3.01.45 5.4.45 7.2 0 1.81-.15 4.21-.45 7.2-.31 3.01-.45 5.4-.45 7.2v5.4c-.61 15.01-.9 24.91-.9 29.7l.9.9c0 1.21-.15 2.56-.45 4.05-.31 1.51-.45 2.56-.45 3.15v26.1c0 4.81.29 8.7.9 11.7-.61.61-.9 2.11-.9 4.51V1523.39c0 8.41-.31 15.61-.9 21.6 1.19 2.41 1.19 4.21 0 5.4V1609.79c.59 28.8 1.19 46.22 1.8 52.21 1.19 28.21 2.7 49.51 4.5 63.91l-.9 1.8c.59 1.21 1.04 3.46 1.35 6.75.3 3.31.45 5.55.45 6.75 2.39 9.6 4.8 19.21 7.2 28.8 1.19 3.01 2.39 5.71 3.6 8.1 0 1.2.45 2.4 1.35 3.6.9 1.21 1.35 2.11 1.35 2.7.59.61 1.04.76 1.35.45.3-.3.45-.14.45.45 4.79 7.2 11.09 14.1 18.9 20.7 0 .6.3.6.9 0 1.19 1.21 3.15 2.41 5.85 3.6 2.7 1.21 4.34 2.11 4.95 2.7.59 0 .9-.14.9-.45 0-.3.3-.14.9.45 2.99.6 6.3.9 9.9.9 9-.59 18.59-3.6 28.8-9 2.99-1.2 5.99-3 9-5.4.59-.59 1.79-1.49 3.6-2.7 1.8-1.2 3.29-2.09 4.5-2.7 0-.59.3-1.2.9-1.8l1.35-1.35c.3-.29 1.35-.75 3.15-1.35 1.19-.59 2.54-1.64 4.04-3.15 1.5-1.49 2.85-2.55 4.05-3.15 2.39-1.8 4.5-1.8 6.31 0 0 .6.44 1.51 1.35 2.7.9 1.2 1.35 2.41 1.35 3.6 3.6 2.41 5.4 5.11 5.4 8.1 0 .61.14.9.44.9s.45.31.45.9c-1.22 4.23-4.21 9.63-9 16.23zm-160.22-327.18v-1.35h.9v1.8c-.61 0-.9-.14-.9-.45zm273.62 166.06v-.9c.59 0 .9.31.9.9h-.9zm117.01 174.62c-1.21 0-1.81-.59-1.81-1.8h.9l.9.9v.9zm4.5-631.86c-.6.6-1.51 2.7-2.7 6.3l-1.8 4.5v.9c0 .61-.76 2.56-2.25 5.85-1.51 3.31-2.56 6.45-3.15 9.45h-.9l-.9.9c0 .6.3 1.21.9 1.8-.61 0-1.35.6-2.25 1.8-.9 1.21-1.05 2.11-.45 2.7l-.9.9c0 1.2-2.11 5.85-6.3 13.95-4.21 8.1-6.3 12.76-6.3 13.95h-.9c-4.81 10.8-13.5 29.11-26.1 54.91l-27.9 59.41v1.8c-2.41 3.6-6.46 13.05-12.15 28.35-5.71 15.3-11.25 29.85-16.65 43.66l-7.2 20.7c1.19 0 2.84.76 4.95 2.25 2.09 1.51 3.74 2.25 4.95 2.25.59.61 1.19 1.21 1.8 1.8.59.6.9 1.21.9 1.8l-1.8 3.6c0 .6.3 1.66.9 3.15.59 1.51 1.2 2.85 1.8 4.05h-.9c0 .6.3 1.5.9 2.7 0 1.2.3 1.8.9 1.8l4.5 16.2c.59 3.6 1.49 5.71 2.7 6.3v.9c0 1.21.45 3.15 1.35 5.85.9 2.7 1.35 4.36 1.35 4.95.59 0 .9.3.9.9v.9l.9 2.7c.59 1.8 1.2 3.01 1.8 3.6l-.9.9v.9c.59 0 1.04.45 1.35 1.35.3.9.14 1.66-.45 2.25 1.19 0 1.8.9 1.8 2.7 1.2 2.41 1.8 4.21 1.8 5.4 1.8 1.8 2.09 3.6.9 5.4-.17 0-.26-.16-.39-.25.15.4.13.64.39 1.15l.9-.9c1.19 1.21 1.49 2.7.9 4.5 0 .6.59 1.21 1.8 1.81l-.9.9h-.9c0 1.21.45 3.01 1.35 5.4.9 2.41 1.35 3.91 1.35 4.5 0 .6.3.9.9.9v2.7c.59 0 .9.31.9.9-.61.6-.61 1.05 0 1.35.59.31.29.76-.9 1.35h.9c.59.6.9 1.21.9 1.8-.6 0-.9.31-.9.9h.9l.9 1.8h-.9c0 2.4.3 4.2.9 5.4.59 0 .9-.3.9-.9v-.9c.59 0 .9.6.9 1.8-.61 0-.9.15-.9.45 0 .31-.3.45-.9.45h1.8c.59.61.9 1.81.9 3.61.59.6.59.9 0 .9l-.9.9h.9l.9.9h-.9v1.8c0-.59.3-.9.9-.9v3.6h.9c.59.6.3.9-.9.9 1.2 1.21 1.49 2.7.9 4.5 1.2.6 1.8 1.66 1.8 3.15 0 1.51.3 2.56.9 3.16l.9 4.5v.9c.59.6.59.9 0 .9l.9.9c.59.6.59 1.2 0 1.8.59.61.9 1.51.9 2.7l.9 5.4h1.8v4.5h.9v1.81c1.8.6 1.8 1.8 0 3.6h1.8v.9c0 .6-.31.9-.9.9 1.2 0 1.8.9 1.8 2.7h-.9v.9h.9c0 .61-.61.9-1.8.9.59 0 .9.15.9.45 0 .31.3.45.9.45h-.9c0 1.8.3 2.7.9 2.7v-1.8l.9.9v3.6h-.9v1.8h.9v-.9c.59 1.21.9 2.11.9 2.7h.9c.59 0 .9.31.9.9 0 .6-.15.9-.45.9h-1.35c.59 0 .59.9 0 2.7.59 0 .9-.14.9-.45 0-.3.3-.45.9-.45v4.5h.9v.9c-.61 0-.9-.29-.9-.9v1.8h1.8c0 1.21.14 2.56.45 4.05.19.96.3 1.66.37 2.26h.08v.9c0 .6.59 1.51 1.8 2.7-1.21 1.21-.9 2.4.9 3.6-.6.6-.6 1.66 0 3.15.59 1.51.9 2.56.9 3.15h.9c-.6 1.21-.45 2.86.45 4.95.9 2.11 1.35 3.46 1.35 4.05h.9c-.6.61-.6 1.51 0 2.7v.9l.9 4.5c.59.6.9 1.5.9 2.7 0 1.2.29 2.11.9 2.7l.9-.9c-1.21.61-1.21 2.11 0 4.5l.9 2.7.9.9c0 .6.3 1.2.9 1.8l-.9.9v2.7c.59 0 .9.31.9.9 0 .6-.31.9-.9.9 1.2.6 1.2 1.21 0 1.8h.9c0 .6.3 1.5.9 2.7.59 1.21.59 2.11 0 2.7h.9v1.81l.9-.9c0-.59.3-.59.9 0-.6.6-.9 1.2-.9 1.8v1.8c1.19 1.21 1.8 2.41 1.8 3.6l-.9-.9c0 .61.3 1.51.9 2.7.59 1.21.59 2.11 0 2.7l.9.9c.59 0 .59.31 0 .9h.9c-.6 1.2-.6 2.41 0 3.6.59 1.21.9 2.11.9 2.7 0-.59.3-.9.9-.9v2.7c0 6.61 1.19 11.11 3.6 13.5-.6.61-.6 1.21 0 1.81l.9.9h-.9v.9h.9v.9h.9c0 .6.14 1.5.45 2.69.3 1.21.14 1.81-.45 1.81l.9 1.8c0 .6.3 1.21.9 1.8 0 .6-.31.6-.9 0l.9 1.81c0 .6.3.9.9.9-.61 1.21-.76 1.96-.45 2.25.3.31.45.76.45 1.35h.9v1.8h.9c0 1.21-.31 1.81-.9 1.81l.9 1.8v1.8h.9c-.17.17-.26.18-.39.26.43.31.85.64 1.28.64 0 1.21.3 2.41.9 3.6.59 1.21.9 2.4.9 3.6h1.8c-.6-.59-.9-1.49-.9-2.7-.6-.59-.9-1.49-.9-2.7h.9v2.7c.59.6 2.1 3.91 4.5 9.9v.9c1.8 2.41 2.7 4.5 2.7 6.3 0-.59.3-.9.9-.9 0 .6.45 1.35 1.35 2.25.9.9 1.35 1.66 1.35 2.25-1.21 3.01-2.11 4.5-2.7 4.5 0 1.8-.9 4.36-2.7 7.65-1.8 3.31-2.7 5.56-2.7 6.75-1.21 0-2.11.3-2.7.9-.6-1.2-2.25-1.94-4.95-2.25-2.7-.3-4.66-1.04-5.85-2.25h-2.7v-.9c-.6 0-.9-.59-.9-1.8-2.41 0-3.6-.59-3.6-1.8-1.21 0-2.56-2.26-4.05-6.75-1.5-4.5-2.25-7.94-2.25-10.35a159.7 159.7 0 0 1-4.5-16.2c-1.21-.59-1.95-2.09-2.25-4.5-.31-2.39-.76-3.89-1.35-4.5v-1.8c0-.59-.31-.9-.9-.9 0-3-1.21-7.5-3.6-13.5-1.8-8.4-3.76-16.2-5.85-23.41-2.11-7.2-3.15-11.7-3.15-13.5-.6 0-1.8-4.64-3.6-13.95-1.8-9.3-4.2-20.1-7.2-32.41-3.01-12.29-5.71-21.74-8.1-28.35-7.2-32.99-17.1-66.9-29.7-101.72l-.9-.9c0-1.2-.6-3.44-1.8-6.75-1.21-3.29-1.8-5.55-1.8-6.75-.6-1.2-2.86-7.49-6.75-18.9-3.91-11.39-5.85-17.39-5.85-18 1.2-1.2 1.2-1.8 0-1.8-1.8 2.41-3.46 6.61-4.95 12.6-1.51 6.01-2.86 9.9-4.05 11.71-1.8-1.2-2.7-2.4-2.7-3.61-1.21.61-1.8.31-1.8-.9v34.21c0 2.4.14 5.55.45 9.45.3 3.91.45 6.75.45 8.55 0 2.41.3 3.91.9 4.5-.6.6-.9 3.91-.9 9.9v15.3c0 3.6-.15 9-.45 16.2-.31 7.2-.45 12.91-.45 17.11 0 5.39.59 9.9 1.8 13.5-.6 1.21-.9 2.56-.9 4.05v4.05c0 .6.3 1.21.9 1.8h-.9c.59 3.01.9 6.62.9 10.8.59 0 .9.31.9.9v1.8c-1.21 2.4-1.21 4.5 0 6.3v7.2c0 1.8.14 3.91.45 6.3.3 2.41.45 4.2.45 5.39v8.1c0 1.21-.15 3.01-.45 5.4-.31 2.41-.45 4.21-.45 5.4 0 4.2.3 7.51.9 9.9v.9l.9 34.2v32.85c0 4.51-.16 7.36-.45 8.56-.31 1.2-.45 2.25-.45 3.15v3.15c0 2.41.3 4.21.9 5.4v2.7c.59 1.8.45 4.36-.45 7.65-.9 3.31-1.35 5.56-1.35 6.75l-.9.9c-.6 1.2-1.21 1.8-1.8 1.8 0-.6-.31-1.2-.9-1.8v-1.8c-.61 0-.9.6-.9 1.8-.6 1.8-1.5 2.39-2.7 1.8.59-.6.9-1.2.9-1.8h-3.6v2.7c-.6 0-.9-.6-.9-1.8v-1.81c-1.21 1.81-2.11 2.39-2.7 1.81v-1.81l-.9.9c0 .59-.31.59-.9 0 0-.59.29-.9.9-.9h-2.7l.9.9c-1.21 1.2-2.41.9-3.6-.9-1.21 1.2-2.41 1.81-3.6 1.81l-.9-1.81-.9-.9h-.9l-.9-.9c.59-14.99.9-36.9.9-65.7 0-6.6-.16-12.9-.45-18.9-.3-5.99-.45-10.65-.45-13.95v-5.85c0-1.81.14-4.35.45-7.65.3-3.29.45-5.54.45-6.75v-1.8c-.61-7.2-.9-18-.9-32.41 0-3.6.14-8.55.45-14.85.3-6.3.45-11.25.45-14.85 0-5.99-.31-12.9-.9-20.7-.6-7.79-.9-15.6-.9-23.4 0-5.4.14-14.09.45-26.1.3-12 .45-25.5.45-40.51 0-13.19-.15-33.15-.45-59.86-.31-26.69-.45-46.65-.45-59.86 0-9 .14-17.24.45-24.75.3-7.5.45-11.84.45-13.05 0-3.6-.15-8.24-.45-13.95-.31-5.69-.45-9.75-.45-12.15v-20.7c0-10.2.3-15.89.9-17.1h-.9c0-1.2.14-2.39.45-3.61.3-1.19.45-2.09.45-2.7 0-1.8-.15-3.9-.45-6.3-.31-2.39-.45-4.2-.45-5.4 0-.59.14-2.55.45-5.85.3-3.29.45-7.65.45-13.06 0-4.19-.15-10.35-.45-18.45-.31-8.1-.45-13.95-.45-17.55v-33.3c0-4.19-.15-10.8-.45-19.8-.31-9-.45-15.89-.45-20.7v-18.9c0-1.8-.31-6.89-.9-15.3-.61-8.4-.9-13.79-.9-16.2.59-.59.74-2.09.45-4.5-.31-2.39.14-3.6 1.35-3.6-.6-.59-.6-1.2 0-1.81.59-.59.9-1.19.9-1.8h9v.9l16.2 2.7c.59 3.01.59 5.71 0 8.1.59.6.9 1.21.9 1.81v1.8h-.9v1.8h.9c.59 1.21.59 2.11 0 2.7h-.9v3.6c1.19 0 1.8.9 1.8 2.7h-1.8c.59 0 .9.31.9.9 0 .6.3 1.2.9 1.8-.6 0-.9.15-.9.45 0 .31-.31.45-.9.45.59.6.9 1.96.9 4.05 0 2.11.3 3.46.9 4.05-.6 0-.9.6-.9 1.81v1.8l.9.9h-.9v1.8h.9c-.6 0-.9.31-.9.9v1.8c.59.6.9 1.2.9 1.8h-.9v.9c.59.6.9 1.2.9 1.8v3.6h-.9c1.2 1.21 1.2 1.8 0 1.8 2.39 2.41 2.39 4.2 0 5.4.59.6.9 3.01.9 7.2 0 6.61-.31 10.21-.9 10.8h.9c-.6 1.21-.9 2.86-.9 4.95v4.95c0 3.01-.31 4.81-.9 5.4.59 1.21.9 2.41.9 3.6h-.9c.59 0 .9 2.11.9 6.3v10.8l-.9.9c.59.6.59 1.8 0 3.6-.6 1.8-.6 3.01 0 3.61V1294.84c.59.6.9 1.21.9 1.8v.9c-1.2 2.41-1.5 4.5-.9 6.3-.6.6-.9 1.2-.9 1.8v1.8h.9v4.5c-.6 1.8-.6 3.6 0 5.4v5.39c0 .61-.31.9-.9.9v9.9c0 1.8.3 3.01.9 3.6-.6.6-.9 1.35-.9 2.25v2.25c1.2.6 1.2 1.51 0 2.7v7.2c.59 0 .9.31.9.9 0 .61-.31.9-.9.9v6.3h.9v13.5c0 1.2-.16 3.46-.45 6.75-.31 3.31-.45 6.16-.45 8.55 0 2.4.14 5.55.45 9.45.3 3.91.45 6.75.45 8.55-.6 1.21-.9 4.5-.9 9.9 0 4.21.3 6.9.9 8.1-.6 1.8-.9 5.4-.9 10.8 0 7.8.3 13.5.9 17.1V1466.73h1.8c1.2-2.39 1.8-4.2 1.8-5.4h.9c0-3 1.49-5.99 4.5-9 0-1.19.59-2.7 1.8-4.5 1.2-1.8 1.49-3.29.9-4.5h.9c-.61-.59-.61-1.35 0-2.25.59-.9.9-1.65.9-2.25h.9c0-1.8.3-2.7.9-2.7v-.9l.9-.9c.59-.59 1.04-1.95 1.35-4.05.3-2.1 1.04-3.45 2.25-4.05-.6-1.19-.45-2.54.45-4.05.9-1.49 1.35-2.84 1.35-4.05h1.8c-.6-.58-.9-1.19-.9-1.8 1.19-.59 1.8-1.35 1.8-2.25 0-.9.3-1.35.9-1.35.59-1.2.9-2.1.9-2.7v1.8c0 .6-.31.9-.9.9 0 1.2.3 2.11.9 2.7v-.9c.59 0 .9.31.9.9v-3.6h1.8c-.6-1.8-.31-3 .9-3.6 0-.59-.31-.9-.9-.9.59-.59 1.2-.9 1.8-.9l-.9-.9v-.9h.9v-.9l.9-.9.9-.9h-.9l-.9.9c0-.59.59-1.49 1.8-2.7 0-.59.3-.9.9-.9h-.9c0-1.2.59-1.81 1.8-1.81l4.5-13.5h.9c-.6-1.2.9-5.09 4.5-11.71 0 .61.29.9.9.9-.61-1.2-.61-1.8 0-1.8v-2.7c.59-.6 1.2-.9 1.8-.9h-.9v-.9h.9c.59 0 .9-.29.9-.9 0-.59-.31-1.2-.9-1.81 1.19-1.19 2.09-2.1 2.69-2.7v-2.7h.9c-.61-.59-.9-1.2-.9-1.8h.9l1.8-3.6c0-.59.59-1.2 1.8-1.81v-2.7h1.8v-.9h-.9c0-1.2.3-1.81.9-1.81h.9v-1.8c0-.59.3-.59.9 0v-2.7c.59.6 1.2.31 1.8-.9-.6-.59-.6-1.81 0-3.6l.9-.9c.29 0 .42.08.43.22 1.53-2.51 2.63-4.17 3.18-4.72v-.9c.59-.59.59-1.19 0-1.8v-.9h1.8c0-1.8.59-4.05 1.8-6.75 1.2-2.7 2.39-4.05 3.6-4.05.59-.59.9-1.2.9-1.81-.6.6-.9.6-.9 0h.9c-.6 0-.9-.3-.9-.9v-1.81h1.8v-2.7h.9c.34.34.37.68.51 1.02.37-1.4.34-2.91-.51-4.63h.9c.59-.59 1.19-1.2 1.8-1.8v-.9c0-.59.3-.59.9 0-.61-1.2-.61-2.1 0-2.7-1.21-1.2-1.21-2.39 0-3.6 1.19 1.21 1.19 2.41 0 3.6.59-.59.9-1.2.9-1.8.59 0 .9-.59.9-1.8l-.9-.9.9-.9c0-2.39.3-3.29.9-2.7 0-1.19.45-2.84 1.35-4.95.9-2.09 1.35-4.04 1.35-5.85.59 0 .9.31.9.9 0-.59.3-.9.9-.9-1.8 0-1.8-.9 0-2.7v.9l1.8-1.8-.9-.9h.9c-.61-1.2-.61-2.55 0-4.05.59-1.49.9-2.54.9-3.15l.9.9c0-.59.3-1.49.9-2.7 0-.59.59-.9 1.8-.9-1.21-.59-1.35-1.35-.45-2.26.9-.9 1.35-1.65 1.35-2.25.59 0 .9.6.9 1.8v-.9c0-.6.3-1.2.9-1.8-.6.6-1.21.6-1.8 0l.9-1.8c0-.59.3-.9.9-.9h-.9l4.5-8.1.9-2.7v-4.5h.9c1.2-1.8 2.55-4.5 4.05-8.1 1.49-3.6 2.55-5.99 3.15-7.2-1.21.6-1.8.6-1.8 0l.9-.9v-.9c.59 0 .9.3.9.9.3-.29.3-.6.45-.9h-.45l-.9-1.8h1.8c.59-1.2 1.2-2.7 1.8-4.5l1.8-1.8c0-1.81.3-3 .9-3.6v-1.8c0 1.21-.31 1.8-.9 1.8 0-.59.74-2.84 2.25-6.75 1.49-3.89 2.25-6.14 2.25-6.75-.6-.58-.6-1.65 0-3.15.59-1.49.59-2.54 0-3.15 3-7.2 4.5-11.1 4.5-11.71 1.8-.59 3-1.8 3.6-3.6l1.8.9h.9l1.8 1.81c.59 0 1.49.6 2.7 1.8.59 1.21 1.49 1.51 2.7.9.59.6 3.29 3.01 8.1 7.2l2.7 1.8c-.59.64-.59 1.25.01 1.84zm-20.7 592.25c.59 0 .9.6.9 1.8v.9c0-.59-.3-.9-.9-.9h.9c-.61 0-.9-.59-.9-1.8zm-.9-3.59c-.61 0-.9-.9-.9-2.7.59.6.9 1.5.9 2.7zm-1.8-6.31c.59.6.9 1.5.9 2.7-.61.01-.9-.89-.9-2.7zm2.7 7.21v.9c-.61 0-.9-.3-.9-.9h.9zm-6.3-18c.59-.59.9-.3.9.9.59 0 .9.31.9.9 0 .61-.31.9-.9.9-.6-1.19-.6-1.8 0-1.8l-.9-.9zm-.9-8.11v1.8c-.61 0-.9-.59-.9-1.8-.6 0-.9-.3-.9-.9 0-.59.3-.9.9-.9.59 0 .9.31.9.9 0 .6-.31.9-.9.9h.9zm0 3.6c.59 0 1.04.45 1.35 1.35.29.9.14 1.66-.45 2.25l-.9-1.8v-1.8zm1.8 8.1h.9v1.8c-.61 0-.9-.29-.9-.9v-.9zm.9 3.61h.9v.9h-.9v-.9zm-4.5-14.41-.9.9v-.9h.9zm-2.71-16.2v1.8c-.6-.59-.9-1.2-.9-1.8h.9zm-3.59-14.4h-.9v-2.7c.59 0 .59.31 0 .9.59 0 .9.61.9 1.8zm.89 2.7c-.6.6-.9.31-.9-.9.59 0 .9.31.9.9zm0 4.5c.59 0 .9.31.9.9 0 .61-.31.9-.9.9v-1.8zm-3.59-11.7-.9-1.8c.59 0 .9.6.9 1.8zm-1.81-9v-1.8h.9c0 1.21-.3 1.8-.9 1.8zm-33.3-126.02c-.6-.59-.9-1.19-.9-1.8h.9c.59.6.9 1.5.9 2.7v.9c-.61 0-.9-.3-.9-.9.59-.58.59-.9 0-.9zm-1.8-8.99-1.8-.9c1.19-.01 1.8.31 1.8.9zm-1.8-1.8c0-.59.3-.9.9-.9v.9h-.9zm2.7 5.39v1.8c-.6 0-.9-.59-.9-1.8h.9zm-4.5-15.3v2.7c-.61 0-.9-.9-.9-2.7v-.9l.9.9zm-1.8-3.6c-.6 0-.9-.59-.9-1.81l-.9-2.69c0-1.2.3-1.81.9-1.81 0 .6.29 1.66.9 3.15.59 1.52.59 2.57 0 3.16zm-59.41-108.01c0-.59.3-.9.9-.9v1.8c-.6 0-.9-.29-.9-.9zm22.51-50.4c0-1.8.59-2.1 1.8-.9 0 .6-.61.9-1.8.9zm8.1-19.8v-1.8l.9.9v.9h-.9zm27-55.81v-.9l.9.9h-.9zm46.81-113.41c0-.59.3-.9.9-.9v1.8c-.61 0-.9-.3-.9-.9zm252.23-184.63c-23.49-14.1-49.46-21.35-76.88-21.27-2.51.01-4.55-.82-6.06-2.02h-43.79c24.1 9.76 48.16 19.63 72.61 28.51 11.26 4.09-3.25 15.39-11.11 12.54-33.43-12.15-66.13-26.14-99.22-39.17a6.757 6.757 0 0 1-2.67-1.88H327.76c-44.03 13.85-85.7 32.66-125.26 56.47-5.62 3.38-22.53 1.96-11.57-4.63 34.92-21.01 71.52-38.14 109.69-51.83h-74.09c-.75 2.39-2.71 4.73-4.93 5.85-34.67 17.35-70.36 32.14-107.05 44.63-11.7 3.98-15.08-9.68-3.64-13.57 29.36-9.99 57.91-21.73 85.87-34.99-22.8-6.92-45.36-14.47-67.6-23.11-11.35-4.41 2.52-16.48 10.92-13.21 22.11 8.59 44.55 16.1 67.22 22.99.53-.09 1.06-.15 1.56-.15h76.5c-24.18-7.29-48.36-14.59-72.54-21.88-7.1-2.14 10.07-10.23 15.35-8.64 33.72 10.17 67.44 20.34 101.16 30.52h917.84a964.408 964.408 0 0 1 96.89-59.14c9.46-5.03 19.81 4.7 8.33 10.81-27.69 14.74-54.45 30.89-80.45 48.33h57.47c7.57-3.18 15.15-6.36 22.72-9.54 1.14-1.53 2.82-2.93 5.33-3.84 10.08-3.66 20.17-7.32 30.26-10.98 9.58-3.48 16.19 8.11 6.03 12.37-10.8 4.54-21.61 9.08-32.41 13.61 21.51 3.33 41.97 10.54 61.24 22.11 9.26 5.55-7.39 15.49-14.68 11.11z"/><path class="st0" d="M383.44 604.77v.9c.58.6.58.3 0-.9zM385.23 706.47l-.9-1.8c0 1.22.3 1.8.9 1.8zM385.23 594.87v-.9c-.6.61-.6 1.21 0 1.8v-.9zM385.23 619.16c-.6 0-.6.31 0 .9v-.9zM383.44 637.17c-.61.6-.9 1.21-.9 1.8.59 0 .9-.14.9-.45v-1.35zM378.93 508.45c0 .6-.15 1.51-.45 2.7-.31 1.21-.15 1.81.45 1.81v-4.51zM378.93 746.08c.59-.59.59-1.19 0-1.8v1.8zM378.03 621.86c.59.6.9 1.21.9 1.8.59-1.19.3-1.8-.9-1.8zM378.93 603.86v.9c.59-1.2.59-1.8 0-1.8v.9zM378.93 578.66c0 .6-.31.9-.9.9l.9 1.8v-2.7zM381.63 809.98c0 .61.3.9.9.9 0-1.2-.31-1.8-.9-1.8v.9zM381.63 606.56c0-.59-.31-.9-.9-.9l.9 1.8v-.9zM1047.68 1150.77l.89-.89h-.89zM1068.38 1426.2l.9-.9c.59-.59.9-1.2.9-1.81-.61.61-.9.61-.9 0l-.9.9v1.81zM1099.88 1534.21l-.9-1.8c0 1.21.3 1.8.9 1.8zM1103.48 1350.59l1.79-1.8h-1.8c.6.6.6 1.21.01 1.8zM401.64 1815.39c.03.06.05.09.08.14.15.24.34.4.61.4l-.9-1.8c.01.57.09.97.21 1.26z"/><path class="st0" d="M1070.18 1425.3h-.9l.9.9c.59-.59.59-.9 0-.9zM1106.18 1346.09c0-.58.3-1.35.9-2.25.59-.9.59-1.65 0-2.25 0 .6-.6 1.51-1.8 2.7.59 0 .9.31.9.9v.9zM393.34 1806.04c1.8 3.01 3.29 6.01 4.5 9l.9-.9c-.6-.59-1.5-1.94-2.7-4.05-1.21-2.1-2.11-3.45-2.7-4.05zM1070.18 1422.6c.59-.59 1.19-.59 1.8 0 0-.59-.31-.9-.9-.9h-.9c.59 0 1.19-.45 1.8-1.35.59-.9.59-1.65 0-2.26h.9l.9-.9v-1.8h-1.8c.59.6.9 1.2.9 1.8l-.9-.9-.9 1.8c-1.21 2.41-1.8 4.21-1.8 5.4l.9-.89zM406.84 1817.74c0 .57.57.55 1.62.06-.2-.32-.56-.63-.72-.96l-.9.9zM1160.19 347.34c0 .6.3 1.2.9 1.8.6-.6.3-1.2-.9-1.8zM596.29 1124.22c-.31-.3-.45-.75-.45-1.35v2.7c.59-.59.75-1.04.45-1.35zM1128.68 1294.79c0-1.19.3-2.1.9-2.7 0 .6-.6.9-1.8.9 0 1.21.3 1.8.9 1.8zM1107.98 1339.79l-.9.9c0 .6.29.9.9.9v-1.8zM1127.78 1295.69h-.9v.9z"/><path class="st0" d="M1126.88 1296.59v.9l.9 2.7c1.2-.6.9-1.8-.9-3.6zM1182.7 292.43c.59 0 .9-.45.9-1.35 0-.9-.31-1.35-.9-1.35v2.7zM1184.5 309.54h.9v-2.7h-.9v2.7zM738.51 1315.04c.3.31.45.76.45 1.35l.9-1.8h-.9c-.61 0-.76.16-.45.45zM1138.58 1680.92v1.81l.9.9c0-1.2-.31-2.1-.9-2.71zM1138.58 1684.53v.9c0 .6.3 1.21.9 1.8 0-1.8-.31-2.7-.9-2.7zM1134.99 1669.22c.59-.59.59-.9 0-.9l-.9.9c.58.61.9.61.9 0zM1134.99 1676.43h.9c0-1.2-.3-1.8-.9-1.8v1.8zM1104.38 1548.61c0 1.21.3 2.11.9 2.7 0-1.8-.31-2.7-.9-2.7zM1107.08 1556.71c0-1.11-.29-1.66-.81-1.74.1 1.22.33 2.18.81 2.64v-.9zM1131.38 1656.63h.9c-.61 0-.9-.3-.9-.9v-1.8c0 1.2-.6 1.2-1.8 0 0 .6.3 1.05.9 1.35.59.3.9.75.9 1.35zM1139.48 1686.32v.9c0 .6.3.9.9.9.01-1.19-.3-1.8-.9-1.8zM1136.78 1671.02c0-.21-.04-.56-.08-.9h-.82l.9.9zM1168.8 1790.09c-.17-.12-.35-.08-.51-.26 0 .44.21.45.51.26zM1174.59 1800.64c-.6-.59-.9-1.49-.9-2.7-.61 1.79-.31 2.7.9 2.7zM385.23 224.03c-.6 1.21-.6 1.8 0 1.8.6-1.2.6-1.8 0-1.8zM1107.19 1558.58c.11 1.04.33 1.73.79 1.73 0-1.1-.29-1.64-.79-1.73zM1067.48 1429.8l.9-.9h-.9c-.61.6-.61.9 0 .9zM1068.38 1428h.9v-.9c-1.21 0-1.51.31-.9.9z"/><path transform="rotate(-35.435 233.541 1141.977)" style="fill:#fff" d="M178.84 1137.61h109.41v8.78H178.84z"/></svg>