<svg version="1.1" id="Ebene_1" xmlns="http://www.w3.org/2000/svg" x="0" y="0" viewBox="0 0 2048 1119" style="enable-background:new 0 0 2048 1119" xml:space="preserve"><style>.st0{fill:#0f0}</style><path class="st0" d="M1825.59 205.68c14.35-49.03 28.85-100.07 20.68-150.5-2.73-16.82-8.54-34.12-21.45-45.24s-34.44-13.47-46.4-1.34c-8.63 8.75-10.23 22.62-7.16 34.52s10.1 22.34 17.01 32.51c-17.75-15.16-36.08-30.11-57.27-39.88s-45.82-14.01-68.07-6.96c-4.87 1.54-9.85 3.84-12.58 8.15-5.4 8.57.66 19.58 6.82 27.63 43.96 57.45 97.43 108.15 162.65 139.43"/><path class="st0" d="M1823.8 194.97c11.6-26 34.87-51.45 46.47-77.46 5.72-12.81 11.86-26.18 23.05-34.65 12.61-9.54 29.32-11.16 45.08-12.43 7.54-.61 15.42-1.16 22.39 1.77 12.83 5.39 18.49 21.72 15.16 35.23s-13.63 24.31-25.07 32.24a206.69 206.69 0 0 1 66.29 10.39c11.48 3.79 23.61 9.52 28.58 20.55 4.24 9.42 2.06 20.74-3.17 29.65-11.66 19.86-36.32 28.88-59.35 28.8-23.03-.09-45.27-7.63-67.49-13.68a538 538 0 0 0-97.81-17.14"/><path class="st0" d="M1809.39 197.18a1070.361 1070.361 0 0 0-111.03-52.37c-24.93-10.06-54.38-18.89-77.54-5.23-2.72 1.61-5.47 3.77-6.13 6.86-.6 2.77.63 5.58 1.98 8.06 10.7 19.63 31.99 33.06 54.32 34.25-10.75 9.74-21.49 19.48-32.24 29.21-3.31 3-6.8 6.32-7.65 10.7-.91 4.69 1.47 9.37 4.18 13.31 16.02 23.26 47.62 34.48 74.72 26.52 21.56-6.33 38.37-22.73 56.14-36.48a268.703 268.703 0 0 1 61.66-35.72"/><path class="st0" d="M1812.86 197.38c-3.28 19.73 8.29 42.77 8.3 62.76 0 21.73 2.16 44.17 12.52 63.26s30.57 34.15 52.26 32.86c2.87-.17 5.88-.69 8.1-2.52 2.32-1.91 3.37-4.91 4.33-7.76 4.79-14.31 9.16-31.48-.19-43.33 17.73 16.55 46.37 22.81 66.91 9.91s25.63-46.82 6.52-61.76c-7.35-5.74-16.72-8.07-25.79-10.26-17.76-4.28-35.52-8.57-53.29-12.85-16.6-4-32.65-11.79-48.14-18.98-10.57-4.9-19.05-12.25-21.79-16.26-5.49-8.02 5.5.99-3.92 3.39M242.55 759.04c12.13 0 34.77.81 36.39 12.94 1.62 10.51-7.28 16.98-18.6 16.98-6.47 0-16.98-.81-22.64-1.61-26.69 88.95-78.44 331.57-170.64 331.57-134.24 0-54.99-342.89 131.82-359.88l25.88-91.38c-24.26 33.96-50.95 67.12-95.43 67.12-20.22 0-40.43-8.9-40.43-42.86 0-46.91 72.78-161.74 127.78-161.74 16.17 0 27.49 10.51 33.16 25.88 4.04-5.66 10.51-8.89 17.79-8.89 8.09 0 19.41 5.66 19.41 16.17 0 5.66-1.62 11.32-2.43 16.17-16.18 77.63-29.12 131-42.06 179.53zm-52.57 28.3C46.84 806.75-3.3 1083.33 65.44 1083.33c39.63 0 106.75-220.78 124.54-295.99zm38.82-207.83c0 2.42-5.66-21.84-13.75-21.84-22.64 0-128.58 145.57-73.59 145.57 33.16 0 87.34-84.92 87.34-123.73zM590.3 672.51c-9.7 12.94-36.39 71.16-77.64 71.16-25.88 0-46.1-21.03-46.1-52.57-10.51 2.43-21.03.81-33.97-1.61-20.22 25.07-50.14 54.18-80.06 54.18-31.54 0-42.05-24.26-42.05-46.1 0-42.86 37.2-108.37 80.87-124.54 9.7-3.23 20.22 0 29.11-4.04 4.85-2.43 9.7-3.24 14.56-3.24 20.22 0 34.78 18.6 34.78 40.44 0 20.22-10.51 38.82-19.41 55.8 9.71 0 24.26-2.43 28.3-9.7 15.37-31.54 50.14-63.08 86.53-63.08 28.3 0 35.58 33.96 30.73 54.18 37.2 17.79 98.66-16.17 105.13-29.92 10.51 0 16.98 12.13 10.51 21.03-21.82 34.77-83.28 45.28-121.29 38.01zm-205.41-45.29c0-5.66.81-10.51 1.62-16.17-18.6 21.83-41.24 54.18-41.24 85.72 0 9.7 2.43 18.6 8.09 18.6 8.09 0 30.73-14.56 50.95-42.86-13.76-13.75-19.42-31.54-19.42-45.29zm36.39-.81c0 5.66.81 10.51 3.23 15.37 5.66-4.85 17.79-31.54 8.09-41.24-7.28 6.46-11.32 16.17-11.32 25.87zm134.24 34.77c-10.51-5.66-16.98-17.79-16.98-33.16-16.17 13.75-38.01 44.48-38.01 69.55 0 11.32 4.85 19.41 12.13 19.41 20.22 0 38.82-34.77 42.86-55.8z"/><path class="st0" d="M875.78 594.87c-22.64 63.88-48.52 129.39-57.42 207.84-1.62 16.17-4.04 42.86.81 55.8 4.85 12.94-.81 21.84-16.98 23.45-37.2 4.05-32.35-50.95-29.92-73.59 3.24-35.59 14.56-84.92 24.26-118.88-22.64 24.26-64.7 81.68-109.98 64.69-83.3-32.35 50.95-225.63 123.73-225.63 16.98 0 30.73 11.32 32.35 29.11 18.6-32.35 97.85-332.38 151.23-311.35 53.36 21.04-76.03 258.79-118.08 348.56zm-71.17 35.58c-13.75-6.47 1.62-29.92 4.04-39.62 2.43-10.51 12.13-42.86-10.51-31.54-42.86 17.79-120.5 163.36-92.19 163.36 34.77 0 81.68-67.94 98.66-92.2zM1269.63 219.63c-33.97 89.77-146.37 414.06-188.43 639.69-3.24 16.17-3.24 38.01-25.88 38.01-11.32 0-24.26-5.66-24.26-18.6 0-15.37 5.66-33.16 8.9-50.14 33.97-160.12 92.19-345.32 178.72-573.37 8.09-21.02 17.79-60.65 37.2-60.65 8.09-.01 17.79 15.36 13.75 25.06zM1470.18 641.78c-33.16 52.57-95.43 102.7-142.33 102.7-37.2 0-44.48-29.92-41.24-52.57-15.37 15.37-33.16 31.54-55.8 36.39-17.79 4.04-37.2 1.62-45.29-15.37-12.13-28.31 16.17-97.85 38.01-121.31 5.66-6.47 12.13-9.7 19.41-8.08 16.17 3.23 12.94 9.7 8.89 18.6-11.32 23.46-50.14 97.86-25.88 97.86 36.39 0 65.51-63.08 81.68-84.92 6.47-8.09 15.37-32.35 27.49-35.58 8.09-1.62 17.79.81 23.45 7.28 6.47 8.9 0 20.22-5.66 28.31-20.22 31.54-42.86 99.47-15.37 99.47 34.78 0 95.43-61.46 123.73-88.15 5.68-4.85 12.95 8.9 8.91 15.37z"/><path class="st0" d="M1673.99 643.39c0 14.56-94.62 102.71-164.98 102.71-50.95 0-73.59-32.35-73.59-63.08 0-58.23 52.56-115.65 105.94-115.65 23.45 0 31.54 12.94 31.54 28.31 0 25.88-9.71 42.05-27.5 42.05-8.09 0-12.94-3.24-12.94-11.32 0-19.41 19.41-12.94 8.09-28.31-21.03-8.89-67.12 49.33-67.12 82.49 0 19.41 10.51 34.78 38.82 34.78 42.86 0 87.34-34.78 137.48-72.78 4.85-4.05 24.26-13.75 24.26.8z"/><path class="st0" d="M1766.99 735.59c-42.05 0-73.59-29.12-87.34-69.55-16.98 60.65-21.02 80.06-31.54 141.52 0 16.17-11.32 21.83-23.45 21.83-32.35 0-12.94-80.06-5.66-101.89 43.67-136.67 68.74-228.86 149.61-466.62 4.04-12.94 24.26-60.65 38.01-60.65 4.05 0 21.03 4.85 17.79 17.79-4.04 16.17-16.17 47.71-23.46 68.74-36.39 105.94-71.97 210.27-103.51 316.2 21.03-17.79 58.23-54.18 76.02-54.18 5.66 0 15.37 7.28 15.37 14.56-13.75 17.79-79.25 62.27-79.25 76.83 0 23.46 28.3 67.12 55.8 67.12 12.13 0 26.69-4.04 41.24-10.51 21.83 30.72-25.89 38.81-39.63 38.81zM1063.56 876.07c41.57-19.17 86.52-18.43 130.48-8.19 21.11 4.91 47.42-2.4 66.34-11.89 8.04-4.03 32.72-20.55 11.39-25.51-88.72-20.65-181.08-5.88-263.16 31.97-10.63 4.9-29.91 17.92-11.39 25.51 18.29 7.49 49.94-4.33 66.34-11.89z"/></svg>