<svg xmlns="http://www.w3.org/2000/svg" viewBox="0 0 2048 1589" style="enable-background:new 0 0 2048 1589" xml:space="preserve"><path d="M794.42 533.7c0 2.96-.66 5.92-1.64 8.55-4.6 14.79-8.88 29.58-13.81 43.72-13.48 39.44-23.66 79.87-31.55 120.96-2.63 11.83-6.57 23.01-13.15 32.87-1.97 2.63-3.95 5.59-6.25 7.56-5.92 5.59-12.82 6.9-20.05 3.62-7.23-2.96-11.18-9.21-11.83-17.42-.33-2.96 0-5.92.33-8.87-.33 0-.66 0-.99-.33 1.97-8.55 3.29-17.42 5.92-25.97 4.93-17.42 10.52-34.51 16.76-51.61-7.56-2.96-13.81.33-20.71.33-3.62 6.57-4.27 14.13-6.24 21.04-3.62 12.16-7.23 24.32-11.51 36.16-3.94 10.85-10.19 20.71-17.42 29.58-3.29 4.6-7.23 8.22-12.16 10.52-14.14 6.25-28.6-2.3-30.57-18.74-.33-4.6 0-9.53.99-14.14 2.63-11.18 5.26-22.02 8.88-32.87 8.88-26.29 17.42-52.59 27.61-78.23 7.89-20.38 18.08-40.1 27.28-60.15 2.3-4.6 4.93-8.88 7.89-13.15 4.27-5.59 9.53-7.89 16.11-5.92 5.92 1.64 10.85 7.89 10.19 15.78-.66 11.5-2.3 23.34-4.27 34.84-2.3 11.83-5.92 23.67-8.88 35.5-.99 3.62-1.31 7.56-1.97 12.49 9.2-.66 17.42-.99 25.31-1.31 6.25-16.44 13.15-32.54 20.38-48.65 5.26-12.49 12.16-23.99 18.74-35.83 2.3-4.27 5.92-7.89 9.53-10.85 3.29-2.96 7.56-3.29 11.18-.99 4.26 2.3 6.56 6.25 5.9 11.51zM901.58 555.72v2.3c0 10.19-.33 20.38-.66 30.57v16.44c0 5.59 0 11.18-.99 16.76 0 .66.33 1.32.66 1.64-1.97 24.65-2.3 48.98-1.97 73.63 0 11.5-1.97 23.01-6.9 34.18-1.31 2.96-2.96 6.25-5.26 8.88-5.26 6.9-12.49 9.86-21.36 9.2-8.88-.66-14.79-4.93-17.75-12.49-.99-2.63-.99-5.59-1.64-8.22l1.64-47c-.99.33-1.64.33-2.3.66-8.88.99-17.42 2.63-26.3 3.62-2.63.33-5.59.33-8.55 0l-7.23 15.12-19.39 41.42c-.66.99-4.93 8.22-13.81 6.57-.99-.33-1.97-.66-2.96-1.31-.99-.33-2.63-1.64-3.29-3.62-.99-1.64-.66-3.29-.66-6.57.33-1.32.33-3.29.99-5.92.66-1.64 1.32-4.6 2.63-7.89 3.62-10.85 17.42-50.62 50.95-116.69 2.3-4.93 6.25-12.49 11.18-21.7 0 0 11.18-24.98 36.16-53.25 2.63-2.96 5.26-5.92 8.22-8.55 6.9-3.29 15.12-4.93 20.71 1.31 5.26 5.59 5.92 14.79 6.9 22.35.32 2.65.65 5.6.98 8.56zm-35.83 23.34c-8.88 14.13-22.68 39.44-30.57 57.52l-12.16 24c9.2-4.27 18.74-7.56 28.6-9.53 3.61-24.33 8.54-48.33 14.13-71.99zM1056.73 630.99c-8.22 8.22-18.08 14.14-27.94 19.72-5.26 2.96-10.19 5.59-16.11 8.88-1.64.33-31.88 10.19-35.83 14.13-1.32 1.32-2.63 2.63-3.62 3.94l-7.56 28.93c-.66 3.29-1.32 6.25-1.97 8.88-1.31 7.56-4.93 14.46-10.19 21.36-2.3 3.29-5.59 6.9-8.87 9.2-12.49 8.88-27.94 2.96-30.9-11.5-1.97-8.88-.66-17.75 1.97-26.63 4.93-15.12 10.52-30.24 15.45-45.36 12.16-38.13 29.25-74.94 45.36-111.76 1.31-2.96 3.29-5.92 4.27-9.2 6.25-17.42 20.71-21.37 37.14-22.02 19.72-1.32 52.26 16.43 58.51 44.05 6.26 25.97-.97 48.32-19.71 67.38zm-12.82-68.04c-6.25-10.52-15.78-18.08-28.6-21.04-1.64-.33-3.29 0-5.59 0-2.3 12.82-3.62 24.32-6.57 35.5-4.93 17.42-11.18 34.51-16.44 51.61-.66 2.3-.99 4.6-1.32 7.56 15.45-6.24 41.42-22.35 50.29-32.21 3.62-3.94 6.9-8.22 8.88-12.82 4.61-9.53 4.61-19.39-.65-28.6zM1195.78 630.99c-8.22 8.22-18.08 14.14-27.94 19.72-5.26 2.96-10.19 5.59-16.11 8.88-1.64.33-31.88 10.19-35.83 14.13-1.31 1.32-2.63 2.63-3.62 3.94l-7.56 28.93c-.66 3.29-1.31 6.25-1.97 8.88-1.31 7.56-4.93 14.46-10.19 21.36-2.3 3.29-5.59 6.9-8.88 9.2-12.49 8.88-27.94 2.96-30.9-11.5-1.97-8.88-.66-17.75 1.97-26.63 4.93-15.12 10.52-30.24 15.45-45.36 12.16-38.13 29.25-74.94 45.36-111.76 1.31-2.96 3.29-5.92 4.27-9.2 6.25-17.42 20.71-21.37 37.14-22.02 19.72-1.32 52.26 16.43 58.51 44.05 6.27 25.97-.96 48.32-19.7 67.38zm-12.82-68.04c-6.25-10.52-15.78-18.08-28.6-21.04-1.64-.33-3.29 0-5.59 0-2.3 12.82-3.62 24.32-6.57 35.5-4.93 17.42-11.18 34.51-16.44 51.61-.66 2.3-.99 4.6-1.31 7.56 15.45-6.24 41.42-22.35 50.29-32.21 3.62-3.94 6.9-8.22 8.87-12.82 4.61-9.53 4.61-19.39-.65-28.6zM1355.53 550.46c-.33.99-.99 2.3-1.64 3.29-21.69 37.14-43.72 73.63-67.38 108.47-14.79 21.37-15.45 62.13-32.21 80.86-2.96 3.29-6.25 4.6-9.86 5.92-4.6 2.3-11.18 3.29-16.44-1.31-3.62-3.29-5.26-7.89-5.92-13.15-3.95-27.28 15.78-59.83 14.79-87.76-1.32-37.47-5.59-75.27 0-112.09 1.31-8.55 7.89-14.13 14.13-15.12 7.23-1.32 15.12 3.94 17.09 13.48 4.27 19.72 3.29 40.76 3.62 61.47.33 6.58.33 13.48.33 20.38l12.82-19.72c12.49-18.74 25.97-36.81 39.77-53.91 3.62-3.94 6.9-7.89 10.85-11.5 4.6-3.95 9.53-4.6 14.79-1.32 6.25 4.26 8.55 13.79 5.26 22.01zM583.71 978.24c-3.62 9.53-8.55 17.42-15.12 24.98-8.55 9.53-18.41 18.08-28.6 25.64-22.02 15.12-46.02 21.04-71.99 18.74-5.59 5.59-12.49 7.23-19.72 4.6-7.56-2.96-11.51-8.55-12.82-16.76-.33-2.96 0-5.92 0-8.88h-.99c1.64-8.55 2.63-17.42 4.93-25.97 10.85-43.72 25.31-86.12 42.07-127.87 4.93-12.16 10.85-23.99 17.09-35.5 2.3-4.27 5.92-7.89 9.2-11.18 3.29-2.96 7.23-3.62 11.18-1.64 2.3 1.31 3.94 2.96 4.93 4.93 13.48 3.29 25.64 15.12 27.28 29.91 1.32 14.79 0 28.6-8.55 41.09-.99 1.31-1.97 3.29-3.29 5.59 2.3 1.32 4.6 1.97 6.57 2.96 4.27 1.64 8.88 2.96 13.15 5.26 23.37 11.84 33.56 38.79 24.68 64.1zm-47.99-32.87c-9.53-6.57-19.39-10.52-31.23-6.9-1.97.66-4.27 1.31-6.25 1.64-4.27 19.07-7.89 37.8-11.18 57.2 18.08-6.57 33.53-17.42 47-31.88 1.64-1.97 3.29-4.27 4.6-6.9 2.32-5.27 1.33-9.87-2.94-13.16zm-15.78-85.46c-2.63 9.2-4.93 18.41-7.89 27.61-.66 1.97-.99 3.94-1.64 5.92 2.3-2.63 4.27-5.26 6.57-7.89 3.94-5.59 5.26-11.83 4.6-18.74-.32-2.63-.98-4.93-1.64-6.9zM591.93 1000.26c12.49-43.39 28.6-85.79 47.33-127.21 5.59-12.16 12.49-23.67 19.4-35.17 2.3-4.27 6.25-7.89 10.19-11.18 3.29-2.96 7.56-3.29 11.83-1.31 4.6 2.63 6.9 6.25 6.9 11.51-.33 2.63-.99 5.59-1.64 8.55-4.6 14.13-8.55 28.93-13.81 43.06-13.48 38.79-23.01 78.89-30.57 118.99-1.97 11.83-6.25 22.68-12.82 32.54-1.97 2.63-4.27 5.59-6.57 7.56-6.25 5.59-13.48 6.9-21.37 4.27-7.89-2.96-12.49-8.88-13.48-16.77-.33-2.96 0-5.92 0-8.87-.33 0-.66 0-.99-.33 1.66-8.54 2.97-17.09 5.6-25.64zM796.72 932.22c-7.56 8.55-16.44 14.79-25.64 20.38-4.93 2.63-9.53 5.59-15.12 8.88l-1.64.99c8.22 15.78 14.46 32.21 18.74 49.63 1.31 6.25 2.3 13.15 2.63 19.72.33 4.27-.66 8.55-1.97 12.49-4.93 13.48-21.04 16.44-30.9 6.25-4.6-5.26-7.23-11.5-8.22-18.08-1.32-8.55-1.97-16.76-2.63-25.31-.99-11.51-2.3-23.01-3.95-34.84-1.97.99-3.62 2.63-5.26 4.27l-.99.99-7.23 28.6c-1.32 11.5-4.6 22.68-11.51 32.87-2.3 3.62-4.93 6.9-8.22 9.53-11.5 8.88-26.3 3.62-29.58-10.52-1.97-8.88-.99-17.75 1.31-26.3 3.95-15.12 8.88-30.24 12.82-45.36 10.19-38.13 25.31-74.61 39.12-111.1 1.31-3.29 2.96-6.25 3.94-9.53 5.26-17.09 18.74-21.36 34.19-22.68 18.41-1.32 49.63 15.12 56.54 42.07 6.58 25.64.66 47.66-16.43 67.05zm-14.14-66.72c-6.57-10.19-15.78-17.42-27.61-20.05-1.64-.33-3.29 0-5.26.33-1.97 12.49-2.63 24-5.26 35.17-3.94 17.09-9.2 34.18-13.81 51.28-.66 2.3-.66 4.6-.99 7.23 14.46-6.25 38.13-23.01 46.35-32.87 3.29-3.95 6.25-8.22 8.22-12.82 3.95-9.54 3.62-19.4-1.64-28.27zM989.34 853.66c-1.31.99-2.96 1.97-4.6 2.63-.99.33-1.97.66-2.96.99-1.64.33-3.29.33-4.93.66-1.32 0-2.63 0-3.62.33l-18.74.99c-6.9 0-13.48.66-20.38 1.31-2.3-.33-4.93-.33-7.23-.33h-5.92c-.33 1.32-.66 2.96-.99 4.6-10.19 43.39-20.38 86.78-33.86 129.18-2.3 6.9-3.62 14.46-5.92 21.7-1.97 6.25-4.6 12.49-7.56 18.08-5.59 9.53-13.81 16.11-24.32 19.72-19.39 6.25-36.49-7.56-33.86-27.61 1.32-9.2 4.27-18.08 8.55-26.3 16.44-29.91 30.24-60.81 42.4-92.69 4.93-12.16 10.52-24.32 15.45-36.49 1.31-3.29 2.63-6.25 4.93-11.18.99-.66 1.97-.99 3.29-.99-.99-.33-1.64-.33-2.3-.33-6.57-.33-13.48-.66-20.05-.99-6.57 0-13.15.33-19.72.33-3.95.33-7.89.33-11.83 0-1.97-.33-3.94-.66-5.92-1.64-.66-.33-1.64-.99-2.63-1.31-.99-2.96-1.64-5.92-1.64-8.88v-.33c.66-1.32 1.97-2.96 3.62-3.95 4.27-2.96 9.2-5.26 14.13-6.57 5.92-1.97 12.16-2.96 18.41-3.29 17.42-.99 34.51-1.97 51.94-2.63 12.49-.66 24.98-.99 37.14-1.97 7.23-.66 14.13-2.3 21.04-3.94 3.94-.66 7.56-1.64 11.83-.33 6.9 1.97 11.5 6.25 12.82 13.48 1.32 6.9-.98 13.15-6.57 17.75zM1120.83 837.23c0 2.96-.66 5.92-1.64 8.55-4.6 14.79-8.88 29.58-13.81 43.72-13.48 39.44-23.66 79.87-31.55 120.96-2.63 11.83-6.57 23.01-13.15 32.87-1.97 2.63-3.95 5.59-6.25 7.56-5.92 5.59-12.82 6.9-20.05 3.62-7.23-2.96-11.18-9.21-11.83-17.42-.33-2.96 0-5.92.33-8.87-.33 0-.66 0-.99-.33 1.97-8.55 3.29-17.42 5.92-25.97 4.93-17.42 10.52-34.51 16.76-51.61-7.56-2.96-13.81.33-20.71.33-3.62 6.57-4.27 14.13-6.24 21.04-3.62 12.16-7.23 24.32-11.51 36.16-3.94 10.85-10.19 20.71-17.42 29.58-3.29 4.6-7.23 8.22-12.16 10.52-14.14 6.25-28.6-2.3-30.57-18.74-.33-4.6 0-9.53.99-14.14 2.63-11.18 5.26-22.02 8.88-32.87 8.88-26.29 17.42-52.59 27.61-78.23 7.89-20.38 18.08-40.1 27.28-60.15 2.3-4.6 4.93-8.88 7.89-13.15 4.27-5.59 9.53-7.89 16.11-5.92 5.92 1.64 10.85 7.89 10.19 15.78-.66 11.5-2.3 23.34-4.27 34.84-2.3 11.83-5.92 23.67-8.88 35.5-.99 3.62-1.31 7.56-1.97 12.49 9.2-.66 17.42-.99 25.31-1.31 6.25-16.44 13.15-32.54 20.38-48.65 5.26-12.49 12.16-23.99 18.74-35.83 2.3-4.27 5.92-7.89 9.53-10.85 3.29-2.96 7.56-3.29 11.18-.99 4.26 2.3 6.56 6.25 5.9 11.51zM1152.39 1046.94c-5.92 1.32-23.34 1.64-23.34 1.64l-.99.99c-13.48 12.82-32.87 4.93-37.14-14.79-1.97-9.53-.99-19.39 2.3-28.6 3.62-11.18 8.22-22.02 12.49-33.2l26.62-74.61c2.63-7.89 5.59-16.11 8.22-24.32 1.64-4.6 3.94-9.2 5.26-14.13 6.9-25.31 25.31-31.88 45.69-33.86 24.98-2.3 67.06 22.35 76.59 62.78 8.88 37.8.99 71-22.35 100.26-9.86 12.16-21.7 21.7-34.51 30.24-6.25 3.94-12.49 6.57-20.05 11.83-1.65.32-25.31 12.48-38.79 15.77zm74.29-157.45c-8.55-15.45-21.04-25.97-37.14-29.91-1.97-.66-4.27 0-7.23.33-2.3 18.74-3.29 35.83-6.9 52.26-5.26 25.97-12.16 51.28-18.41 76.92-.66 3.29-.66 6.57-1.32 10.85 19.4-9.53 51.61-34.51 62.46-49.63 4.27-5.59 8.22-12.16 10.85-19.07 5.25-14.14 4.92-28.6-2.31-41.75zM1387.75 859.25v2.3c0 10.19-.33 20.38-.66 30.57v16.44c0 5.59 0 11.18-.99 16.76 0 .66.33 1.32.66 1.64-1.97 24.65-2.3 48.98-1.97 73.63 0 11.5-1.97 23.01-6.9 34.18-1.31 2.96-2.96 6.25-5.26 8.88-5.26 6.9-12.49 9.86-21.37 9.2-8.87-.66-14.79-4.93-17.75-12.49-.99-2.63-.99-5.59-1.64-8.22l1.64-47c-.99.33-1.64.33-2.3.66-8.87.99-17.42 2.63-26.29 3.62-2.63.33-5.59.33-8.55 0l-7.23 15.12-19.39 41.42c-.66.99-4.93 8.22-13.81 6.57-.99-.33-1.97-.66-2.96-1.31-.99-.33-2.63-1.64-3.29-3.62-.99-1.64-.66-3.29-.66-6.57.33-1.32.33-3.29.99-5.92.66-1.64 1.31-4.6 2.63-7.89 3.62-10.85 17.42-50.62 50.95-116.69 2.3-4.93 6.25-12.49 11.18-21.7 0 0 11.18-24.98 36.16-53.25 2.63-2.96 5.26-5.92 8.22-8.55 6.9-3.29 15.12-4.93 20.71 1.31 5.26 5.59 5.92 14.79 6.9 22.35.32 2.64.65 5.6.98 8.56zm-35.83 23.34c-8.88 14.13-22.68 39.44-30.57 57.52l-12.16 24c9.2-4.27 18.74-7.56 28.6-9.53 3.61-24.33 8.54-48.33 14.13-71.99zM1536.32 853.99c-.33.99-.99 2.3-1.64 3.29-21.7 37.14-43.72 73.63-67.39 108.47-14.79 21.37-15.45 62.13-32.21 80.86-2.96 3.29-6.25 4.6-9.86 5.92-4.6 2.3-11.18 3.29-16.44-1.31-3.62-3.29-5.26-7.89-5.92-13.15-3.95-27.28 15.78-59.83 14.79-87.76-1.32-37.47-5.59-75.27 0-112.09 1.31-8.55 7.89-14.13 14.13-15.12 7.23-1.32 15.12 3.94 17.09 13.48 4.27 19.72 3.29 40.76 3.62 61.47.33 6.58.33 13.48.33 20.38l12.82-19.72c12.49-18.74 25.97-36.81 39.77-53.91 3.62-3.94 6.9-7.89 10.85-11.5 4.6-3.95 9.53-4.6 14.79-1.32 6.26 4.26 8.56 13.79 5.27 22.01zM1491.28 1220.42c4.58 0 7.42-6.98 8.55-10.11 2.6-7.24 3.37-16.4 3.05-23.99-.32-7.9-.97-16.51-4.23-23.81-1.66-3.71-4.1-9.68-9.03-9.68-4.58 0-7.42 6.98-8.55 10.11-2.6 7.24-3.37 16.4-3.05 23.99.32 7.9.97 16.51 4.23 23.81 1.66 3.72 4.11 9.68 9.03 9.68zM1670.33 1209.72c6.31 0 10.06-10.5 11.42-14.62 3.5-10.59 4.47-23.71 4.03-34.72-.46-11.44-1.29-23.81-5.73-34.48-2.11-5.09-5.32-14.04-12.12-14.04-6.31 0-10.06 10.5-11.42 14.62-3.5 10.59-4.47 23.71-4.03 34.72.46 11.44 1.29 23.81 5.73 34.48 2.11 5.09 5.31 14.04 12.12 14.04zM1640.15 1029.37c6.05 0 9.63-10.19 10.91-14.11 3.35-10.23 4.26-22.89 3.84-33.52-.44-11.04-1.24-22.98-5.48-33.29-2.01-4.88-5.06-13.56-11.59-13.56-6.05 0-9.63 10.19-10.91 14.11-3.35 10.23-4.26 22.89-3.84 33.52.44 11.04 1.24 22.98 5.48 33.29 2 4.87 5.06 13.56 11.59 13.56zM1343.17 1422.7c6.36 0 10.02-11.21 11.27-15.21 3.48-11.09 4.39-24.66 3.94-36.14-.46-11.91-1.28-24.73-5.71-35.9-2.02-5.1-5.14-14.64-12.01-14.64-6.36 0-10.02 11.21-11.27 15.21-3.48 11.09-4.39 24.66-3.94 36.14.46 11.91 1.28 24.73 5.71 35.9 2.02 5.11 5.15 14.64 12.01 14.64zM1491.47 1395.68l1.4.09-11.78-13.97c.7 1.8 1.48 3.57 2.34 5.31 1.18 3.49 3.15 6.49 5.92 8.99.47.34.96.66 1.44.98 3.01 2.43 5.96 2.36 8.85-.22.77-1.05 1.52-2.11 2.26-3.18 2.56-3.16 4.23-6.79 4.99-10.91.17-.62.33-1.25.52-1.87-.96 2.64-1.92 5.27-2.88 7.91l.69-1.47c.93-2.57 1.87-5.13 2.8-7.7.69-3.31 1.38-6.62 2.06-9.92l1.2-11.68c.46-6.5.38-12.98-.21-19.45-.08-4.13-.52-8.22-1.31-12.28-.35-3.65-1.07-7.22-2.16-10.71-.54-3.03-1.49-5.93-2.86-8.68-1.02-3.29-2.76-6.15-5.23-8.6-.42-.49-.83-.98-1.22-1.49 1.28 1.68 2.56 3.35 3.84 5.03-1.41-2.23-2.6-4.98-4.96-6.23-3.01-2.43-5.96-2.36-8.85.22-2.23 2.13-3.86 4.59-4.9 7.38-.27.72-.57 1.42-.93 2.1l3.74-5c-.42.33-.83.66-1.25.99-2.48 2.49-4.19 5.4-5.13 8.74a46.455 46.455 0 0 0-3.71 13.59c-.43 3.84-.87 7.68-1.3 11.53-.5 6.41-.43 12.8.19 19.18.08 4.08.54 8.12 1.37 12.11.64 5.26 1.85 10.39 3.63 15.4l3.36 7.44c1.62 3.61 4.31 5.73 8.08 6.37zM1681.05 1401.62c5.99 0 9.51-10.21 10.76-14.06 3.31-10.21 4.2-22.8 3.78-33.4-.43-11.01-1.22-22.88-5.41-33.17-1.97-4.82-4.97-13.52-11.44-13.52-5.99 0-9.51 10.21-10.76 14.06-3.31 10.21-4.2 22.8-3.78 33.4.43 11.01 1.22 22.88 5.41 33.17 1.96 4.82 4.97 13.52 11.44 13.52zM173.97 804.54c-5.03-.11-10.05-.22-15.08-.34-6-.13-9.55 10.94-10.67 14.55-3.29 10.63-4.15 23.59-3.72 34.59.44 11.4 1.21 23.66 5.41 34.36 1.86 4.75 4.89 14.15 11.37 14.01 5.02-.11 10.04-.22 15.06-.34 5.96-.13 9.22-10.67 10.36-14.45 3.2-10.58 4.02-23.42 3.6-34.35-.44-11.32-1.18-23.47-5.28-34.13-1.84-4.8-4.61-13.75-11.05-13.9zM133.53 642.21l.16.19-3.49-4.63c.04.07.08.14.12.22-1.01-2.41-2.03-4.83-3.04-7.24.03.08.05.15.08.23-1.38-6.85-2.76-13.7-4.15-20.55l.03.24-.81-12.42v.24l1.35-23.67c-.01.08-.03.16-.04.24l1.98-9.53c-.02.08-.05.15-.07.23.9-2.46 1.79-4.93 2.69-7.39-.06.15-.13.29-.23.42 1.09-1.6 2.18-3.2 3.27-4.81-.17.2-.31.32-.53.46 1.24-.59 2.49-1.18 3.73-1.77-.34.13-.59.15-.94.07 1.27.53 2.54 1.06 3.81 1.58-.25-.11-.4-.22-.59-.42l3.51 4.65c-.16-.22-.26-.42-.37-.67 1.02 2.43 2.03 4.85 3.05 7.28-.03-.08-.06-.17-.09-.25.82 3.15 1.63 6.3 2.45 9.46l-.06-.25c.57 3.73 1.13 7.46 1.7 11.19l-.03-.25c.2 8.33.41 16.67.61 25 0-.08 0-.16.01-.24-1.03 6.95-2.07 13.89-3.1 20.84.02-.07.03-.15.05-.22-.89 2.48-1.77 4.95-2.66 7.43.03-.07.06-.13.1-.2-1.07 1.61-2.15 3.22-3.22 4.83.09-.13.2-.24.33-.32 2.22-2.49 3.73-5.34 4.53-8.54 1.71-4.26 2.79-8.69 3.26-13.3.9-5.82 1.31-11.67 1.22-17.54.26-6.27.02-12.52-.71-18.77l-1.68-11.21a62.893 62.893 0 0 0-5.41-16.77c-1.15-1.55-2.29-3.11-3.44-4.66-2.52-2.18-4.99-2.12-7.4.18-3.24 2.67-5.62 9.79-6.53 13.31-.66 3.19-1.31 6.38-1.97 9.57-.51 3.82-.91 7.66-1.18 11.52-.4 8.38-.31 16.91.61 25.24.43 3.83 1.01 7.64 1.73 11.43.82 3.15 1.63 6.3 2.45 9.45 1.66 5.23 2.37 6.53 5.01 10.03.98 1.3 1.26 2 2.28 2.78 1.27.53 2.54 1.06 3.82 1.58.15.07.3.11.46.11 1.72.06 3.55-1.1 4.8-2.28 1.54-1.46 2.6-3.46 3.59-5.35 2.42-4.59 4.01-12.43 4.78-17.28 1.15-7.22 1.65-16.67 1.38-23.91-.29-7.95-.9-16.02-2.52-23.81-1.61-7.74-3.73-16.21-9.39-22.1-1.93-1.9-3.81-2.13-5.66-.7-2.6.85-4.31 2.74-5.12 5.68a44.236 44.236 0 0 0-3.67 12.14 78.48 78.48 0 0 0-2.14 15.96c-.07 4.15-.13 8.29-.2 12.44.16 7.92 1 15.77 2.51 23.54.81 3.14 1.63 6.27 2.44 9.41 1.21 4.53 3.39 8.49 6.54 11.88zM333.43 982.65c5.71 0 9-10.07 10.12-13.65 3.12-9.96 3.94-22.13 3.53-32.44-.42-10.69-1.15-22.2-5.12-32.23-1.81-4.58-4.62-13.14-10.78-13.14-5.71 0-9 10.07-10.12 13.65-3.12 9.96-3.94 22.13-3.53 32.44.42 10.69 1.15 22.2 5.12 32.23 1.82 4.58 4.62 13.14 10.78 13.14zM67.15 1159.89c-5.57 5.26-7.38 13.95-8.63 20.99-1.17 6.6-1.74 15.89-1.48 22.52.29 7.37.81 15.16 2.57 22.33 1.4 5.72 2.99 11.48 6.07 16.57 1.64 2.71 4.75 6.47 8.5 6.39.98-.02 1.4-.42 2.53-.91 1.39-.6 1.64-.57 2.47-1.24 3.31-2.69 5.44-8.57 6.61-12.23 2.05-6.37 2.8-13.33 3.36-19.98.36-4.04.43-8.09.23-12.12-.27-3.96-.55-7.92-.82-11.88-.49-3.66-1.1-7.3-1.82-10.92-.85-3-1.71-6.01-2.56-9.01-.92-2.66-1.86-5.48-3.62-7.69-1.58-3.4-4.15-5.39-7.73-5.97-3.55.76-6.02 2.87-7.43 6.34-.96 2.37-1.91 4.75-2.87 7.12a90.78 90.78 0 0 0-3.38 19.98c-.48 6-.42 12 .17 17.97.2 5.63.93 11.2 2.19 16.71 1.1 5.65 3.03 10.99 5.79 16.03 1.58 3.4 4.15 5.39 7.73 5.97.06.02.13.05.19.07-1.34-.5-2.68-1.01-4.03-1.51.11.06.2.14.28.24l-3.68-4.43c.03.05.06.1.09.16-1.06-2.31-2.13-4.61-3.19-6.92l.06.18c-1.44-6.54-2.87-13.07-4.31-19.61l.03.22c-.27-3.94-.55-7.89-.82-11.83v.25l1.47-22.5c-.01.09-.02.19-.04.28.7-3.01 1.4-6.03 2.09-9.04-.04.19-.09.38-.17.56l2.82-6.99c-.05.07-.09.15-.14.22 1.14-1.51 2.27-3.03 3.41-4.54-.19.21-.34.33-.58.46 1.29-.56 2.58-1.11 3.87-1.67-.35.1-.6.1-.94-.01 1.31.49 2.63.98 3.94 1.48a1.79 1.79 0 0 1-.53-.42c1.2 1.45 2.41 2.9 3.61 4.34-.1-.12-.17-.25-.23-.4 1.04 2.26 2.09 4.53 3.13 6.79-.02-.07-.05-.15-.07-.22.83 2.94 1.67 5.88 2.5 8.82-.01-.08-.03-.15-.04-.23.85 7.36 1.69 14.72 2.54 22.08 0-.08-.01-.16-.01-.24-.48 7.39-.97 14.78-1.45 22.16l.03-.25-2.07 8.92c.02-.08.05-.16.07-.24-.93 2.31-1.86 4.61-2.79 6.92.04-.08.08-.15.12-.23-1.13 1.5-2.25 3-3.38 4.49.05-.07.11-.14.16-.21 2.29-2.25 3.88-4.9 4.76-7.95 1.79-3.92 2.94-8.04 3.45-12.36.96-5.4 1.4-10.83 1.33-16.3.29-5.82.06-11.63-.69-17.42-.58-3.47-1.15-6.94-1.73-10.41a53.632 53.632 0 0 0-5.61-15.55c-1.2-1.44-2.39-2.88-3.59-4.32-2.62-2.01-5.21-1.95-7.74.19zM355.19 1202.39c.02-.7.04-1.41.05-2.11.5-7.91.31-15.81-.58-23.69-.58-3.54-1.15-7.07-1.73-10.61a55.148 55.148 0 0 0-5.61-15.86c-1.06-2.8-2.91-4.52-5.54-5.15-1.97-1.28-3.89-.97-5.78.94-2.3 2.31-3.88 5-4.75 8.1-1.78 4-2.93 8.2-3.44 12.59a120.61 120.61 0 0 0-1.43 22.54c.02.72.04 1.43.05 2.15.03 5.75.58 11.44 1.67 17.07.59 4.85 1.71 9.59 3.35 14.21 1.03 2.29 2.07 4.58 3.1 6.87 1.06 2.79 2.9 4.5 5.52 5.13 1.31 1.03 2.59.99 3.85-.09 2.59-.76 4.34-2.56 5.26-5.4.92-2.34 1.84-4.67 2.76-7.01 1.8-6.44 2.89-13 3.25-19.68zM585.89 1221.11c.65.43 1.32.85 1.94 1.33-2.07-3.43-4.15-6.86-6.22-10.28.17.51.33 1.02.5 1.52 1 2.17 1.99 4.35 2.99 6.52.67.88 1.37 1.75 2.1 2.58.73 1.6 1.93 2.54 3.61 2.81.67.34 1.36.59 2.08.76.32.09.65.16.98.24 2.46-.36 4.2-1.62 5.22-3.76 2.15-2.54 3.56-5.48 4.22-8.83 2.28-7.92 3.04-16.12 3.2-24.32.24-3.75.14-7.49-.28-11.22-.19-5.27-.86-10.49-2.02-15.65-.79-2.83-1.58-5.66-2.36-8.49-1.2-4.14-3.31-7.7-6.35-10.7-1.45-1.11-3.13-2.53-5.08-2.21-.69.25-1.37.54-2.03.87-1.65.36-2.8 1.34-3.45 2.96-.96 1.29-1.49 1.93-2.15 3.15l6.69-5.7c-.66-.15-1.31-.38-1.95-.59-2.37.33-4.06 1.53-5.08 3.59-2.08 2.4-3.45 5.21-4.11 8.41-2.22 7.53-2.96 15.34-3.12 23.16-.23 3.57-.14 7.13.26 10.68.18 5.02.83 9.99 1.96 14.9.76 2.69 1.53 5.39 2.29 8.08 1.17 3.96 3.22 7.35 6.16 10.19zM426.06 1426.64c6.24 0 9.96-10.4 11.3-14.47 3.47-10.48 4.42-23.46 3.99-34.36-.45-11.32-1.28-23.56-5.67-34.12-2.09-5.04-5.26-13.9-12-13.9-6.24 0-9.96 10.4-11.3 14.47-3.47 10.48-4.42 23.46-3.99 34.36.45 11.32 1.28 23.56 5.67 34.12 2.1 5.04 5.27 13.9 12 13.9zM347.16 347.88c-.82-.53-1.6-1.1-2.31-1.78 1.22 1.3 2.44 2.6 3.66 3.89-1.02-1.69-2.15-3.3-3.15-5.01 1.12 2.17 2.24 4.34 3.36 6.5-.15-.29-.27-.57-.38-.87.9 2.83 1.79 5.66 2.69 8.48-.06-.19-.11-.38-.15-.58.62 3.36 1.23 6.71 1.85 10.07-.01-.09-.03-.19-.04-.28l.84 11.24c-.01-.09-.01-.18-.01-.28-.55-10.17-1.68-20.29-5.39-29.85-1.45-4.26-3.87-7.84-7.27-10.73-2.15-1.71-4.27-1.91-6.35-.6-2.69.65-4.62 2.38-5.78 5.17a34.887 34.887 0 0 0-4.19 11.02 59.132 59.132 0 0 0-2.49 14.48c-.57 7.53-.39 15.04.55 22.53.8 6.22 2.36 13.84 4.86 19.7 1.22 2.85 4.63 9.85 7.97 11.66 1.22.66 3.29 1.33 4.67 1.65.26.06.51.11.77.14 2.09.24 4.14-1.02 5.85-2.17-1.31.5-2.62 1.01-3.93 1.51.8-.11 1.57-.21 2.36-.4 2.47-.25 4.31-1.4 5.51-3.44 2.21-2.23 3.7-4.91 4.48-8.05 2.4-7.15 3.25-14.63 3.45-22.14.26-3.41.18-6.81-.25-10.21-.18-4.81-.87-9.55-2.07-14.23l-2.46-7.71c-1.34-3.86-3.55-7.1-6.65-9.71zM390.64 570.33c-.82-.53-1.6-1.1-2.31-1.78 1.22 1.3 2.44 2.6 3.66 3.89-1.02-1.69-2.15-3.3-3.15-5.01 1.12 2.17 2.24 4.34 3.36 6.5-.15-.29-.27-.57-.38-.87.9 2.83 1.79 5.66 2.69 8.48-.06-.19-.11-.38-.15-.58.62 3.36 1.23 6.71 1.85 10.07-.01-.09-.03-.19-.04-.28l.84 11.24c-.01-.09-.01-.18-.01-.28-.55-10.17-1.68-20.29-5.39-29.85-1.45-4.26-3.87-7.84-7.27-10.73-2.15-1.71-4.27-1.91-6.35-.6-2.69.65-4.62 2.38-5.78 5.17a34.887 34.887 0 0 0-4.19 11.02 59.132 59.132 0 0 0-2.49 14.48c-.57 7.53-.39 15.04.55 22.53.8 6.22 2.36 13.84 4.86 19.7 1.22 2.85 4.63 9.85 7.97 11.66 1.22.66 3.29 1.33 4.67 1.65.26.06.51.11.77.14 2.09.24 4.14-1.02 5.85-2.17-1.31.5-2.62 1.01-3.93 1.51.8-.11 1.57-.21 2.36-.4 2.47-.25 4.31-1.4 5.51-3.44 2.21-2.23 3.7-4.91 4.48-8.05 2.4-7.15 3.25-14.63 3.45-22.14.26-3.41.18-6.81-.25-10.21-.18-4.81-.87-9.55-2.07-14.23l-2.46-7.71c-1.33-3.86-3.54-7.1-6.65-9.71zM555.18 283.87c5.81 0 9.16-10.25 10.31-13.9 3.18-10.14 4.01-22.54 3.6-33.04-.43-10.89-1.17-22.61-5.22-32.82-1.85-4.66-4.7-13.38-10.98-13.38-5.81 0-9.16 10.25-10.31 13.9-3.18 10.14-4.01 22.54-3.6 33.04.42 10.89 1.17 22.61 5.22 32.82 1.85 4.66 4.7 13.38 10.98 13.38zM875.9 342.97c5.85 0 9.33-9.75 10.6-13.56 3.25-9.82 4.14-22 3.74-32.21-.42-10.61-1.2-22.09-5.31-31.99-1.96-4.72-4.94-13.03-11.25-13.03-5.85 0-9.33 9.75-10.6 13.56-3.25 9.82-4.14 22-3.74 32.21.42 10.61 1.2 22.09 5.31 31.99 1.96 4.72 4.94 13.03 11.25 13.03zM1866.17 477.78c5.87 0 9.28-10.24 10.46-13.95 3.22-10.16 4.07-22.63 3.66-33.16-.43-10.93-1.19-22.7-5.28-32.94-1.89-4.72-4.79-13.42-11.13-13.42-5.87 0-9.28 10.24-10.46 13.95-3.22 10.16-4.07 22.63-3.66 33.16.43 10.93 1.19 22.7 5.28 32.94 1.89 4.71 4.79 13.42 11.13 13.42zM580.85 489.88c.29.09.58.18.87.26-1.13-.45-2.27-.91-3.4-1.36l.4.49c-1.97-3.46-3.94-6.93-5.91-10.39.92 2.69 1.88 5.83 3.35 8.01l3.31 4.24c1.83 1.74 3.62 1.95 5.37.63 2.43-.76 4.05-2.5 4.86-5.21.85-2.26 1.7-4.51 2.55-6.77 1.3-4.54 2.11-9.16 2.43-13.87.74-5.48.99-11 .75-16.55-.25-3.8-.51-7.59-.76-11.39a70 70 0 0 0-2.76-14.52c-.8-3.84-2.15-7.49-4.03-10.95l-3.31-4.24c-1.83-1.74-3.62-1.95-5.37-.63-2.43.76-4.05 2.5-4.86 5.21-.85 2.26-1.7 4.51-2.55 6.77-.13.45-.27.9-.4 1.35 1.8-3.56 3.6-7.11 5.39-10.67-.13.16-.25.32-.38.49l3.33-1.53c-.28.09-.57.18-.85.26-2.27.37-3.86 1.56-4.76 3.58-1.97 2.44-3.25 5.24-3.84 8.41a62.472 62.472 0 0 0-2.28 13 86.41 86.41 0 0 0-.7 15.51c.24 3.56.47 7.11.71 10.67.6 6.02 1.82 11.9 3.67 17.65.9 2.07 1.8 4.15 2.7 6.22 1.25 2.98 3.41 4.75 6.47 5.33zM1439.08 466.74c.29.09.58.18.87.26-1.13-.45-2.27-.91-3.4-1.36l.4.49c-1.97-3.46-3.94-6.93-5.91-10.39.92 2.69 1.88 5.83 3.35 8.01l3.31 4.24c1.83 1.74 3.62 1.95 5.37.63 2.43-.76 4.05-2.5 4.86-5.21.85-2.26 1.7-4.51 2.55-6.77 1.3-4.54 2.11-9.16 2.43-13.87.74-5.48.99-11 .75-16.55-.25-3.8-.51-7.59-.76-11.39a70 70 0 0 0-2.76-14.52c-.8-3.84-2.15-7.49-4.03-10.95l-3.31-4.24c-1.83-1.74-3.62-1.95-5.37-.63-2.43.76-4.05 2.5-4.86 5.21-.85 2.26-1.7 4.51-2.55 6.77-.13.45-.27.9-.4 1.35 1.8-3.56 3.6-7.11 5.39-10.67-.13.16-.25.32-.38.49l3.33-1.53c-.28.09-.57.18-.85.26-2.27.37-3.86 1.56-4.76 3.58-1.97 2.44-3.25 5.24-3.84 8.41a62.472 62.472 0 0 0-2.28 13 86.41 86.41 0 0 0-.7 15.51c.24 3.56.47 7.11.71 10.67.6 6.02 1.82 11.9 3.67 17.65.9 2.07 1.8 4.15 2.7 6.22 1.24 2.98 3.4 4.76 6.47 5.33zM1549.68 329.71c5.39 0 8.38-10.23 9.31-13.43 2.89-9.88 3.6-21.78 3.21-31.96-.4-10.54-1.07-21.81-4.77-31.76-1.6-4.29-4.14-12.96-9.96-12.96-5.39 0-8.38 10.23-9.31 13.43-2.89 9.88-3.6 21.78-3.21 31.96.4 10.54 1.07 21.81 4.77 31.76 1.6 4.29 4.14 12.96 9.96 12.96zM1203.06 201.02l1.73.15c-1.12-.49-2.25-.98-3.37-1.47l.39.51c2.31 2.04 4.56 1.99 6.76-.17 2.7-3.37 4.48-7.19 5.33-11.47.59-2.99 1.18-5.98 1.77-8.96 1.01-7.39 1.41-14.82 1.19-22.28-.04-5.7-.54-11.35-1.51-16.94-.53-4.8-1.52-9.5-2.98-14.11-1.06-4.23-3.03-7.96-5.89-11.19-2.31-2.04-4.56-1.99-6.76.17-.12.17-.25.34-.37.5 1.1-.55 2.2-1.09 3.29-1.64l-1.72.15c-2.3.46-3.86 1.74-4.68 3.85-1.97 2.68-3.22 5.7-3.76 9.07a74.036 74.036 0 0 0-2.22 14.02c-.67 5.55-.89 11.13-.66 16.74.24 3.84.48 7.68.73 11.52.6 6.47 1.82 12.83 3.65 19.06l2.67 6.72c1.15 3.15 3.28 5.07 6.41 5.77zM1067.43 381.34c5.13 0 7.97-9.74 8.86-12.78 2.75-9.4 3.42-20.72 3.05-30.41-.38-10.03-1.02-20.75-4.54-30.22-1.52-4.08-3.94-12.33-9.48-12.33-5.13 0-7.97 9.74-8.86 12.78-2.75 9.4-3.42 20.72-3.05 30.41.38 10.03 1.02 20.75 4.54 30.22 1.52 4.09 3.93 12.33 9.48 12.33zM1760.26 754.91c-.03.24-.05.48-.07.72-.88 5.67-1.27 11.36-1.19 17.08-.15 9.9.39 19.77 2.39 29.49.98 5.66 2.73 11.08 5.24 16.24.89 2.81 2.6 4.57 5.14 5.29 1.82 1.31 3.61 1 5.35-.95 2.85-3.47 4.74-7.43 5.66-11.87.73-3.18 1.38-6.37 1.95-9.58.88-5.67 1.27-11.36 1.19-17.08.1-6.44-.12-12.58-.77-19.06l-1.62-10.85c-.78-3.06-1.56-6.11-2.33-9.17-.97-2.35-1.93-4.7-2.9-7.06-.89-2.81-2.6-4.57-5.14-5.28-1.22-1.06-2.41-1.03-3.58.09-1.66.43-2.77 1.5-3.32 3.19a13.502 13.502 0 0 0-2.83 5.93 46.498 46.498 0 0 0-3.17 12.87zM1344.83 201.23c-.03.24-.05.48-.07.72-.88 5.67-1.27 11.36-1.19 17.08-.15 9.9.39 19.77 2.39 29.49.98 5.66 2.73 11.08 5.24 16.24.89 2.81 2.6 4.57 5.14 5.29 1.82 1.31 3.61 1 5.35-.95 2.85-3.47 4.74-7.43 5.66-11.87.73-3.18 1.38-6.37 1.95-9.58.88-5.67 1.27-11.36 1.19-17.08.1-6.44-.12-12.58-.77-19.06l-1.62-10.85c-.78-3.06-1.56-6.11-2.33-9.17-.97-2.35-1.93-4.7-2.9-7.06-.89-2.81-2.6-4.57-5.14-5.28-1.22-1.06-2.41-1.03-3.58.09-1.66.43-2.77 1.5-3.32 3.19a13.502 13.502 0 0 0-2.83 5.93 46.673 46.673 0 0 0-3.17 12.87zM1704.29 366.08c-.03.24-.05.48-.07.72-.88 5.67-1.27 11.36-1.19 17.08-.15 9.9.39 19.77 2.39 29.49.98 5.66 2.73 11.08 5.24 16.24.89 2.81 2.6 4.57 5.14 5.29 1.82 1.31 3.61 1 5.35-.95 2.85-3.47 4.74-7.43 5.66-11.87.73-3.18 1.38-6.37 1.95-9.58.88-5.67 1.27-11.36 1.19-17.08.1-6.44-.12-12.58-.77-19.06l-1.62-10.85c-.78-3.06-1.56-6.11-2.33-9.17-.97-2.35-1.93-4.7-2.9-7.06-.89-2.81-2.6-4.57-5.14-5.28-1.22-1.06-2.41-1.03-3.58.09-1.66.43-2.77 1.5-3.32 3.19a13.502 13.502 0 0 0-2.83 5.93 46.673 46.673 0 0 0-3.17 12.87zM1525.63 577.71c-.03.24-.05.48-.08.72-.88 5.67-1.27 11.36-1.19 17.08-.15 9.9.39 19.77 2.39 29.49.98 5.66 2.73 11.08 5.24 16.24.89 2.81 2.6 4.57 5.14 5.29 1.82 1.31 3.61 1 5.35-.95 2.85-3.47 4.74-7.43 5.66-11.87.73-3.18 1.38-6.37 1.95-9.58.88-5.67 1.27-11.36 1.19-17.08.1-6.44-.12-12.58-.77-19.06l-1.62-10.85c-.78-3.06-1.56-6.11-2.33-9.17-.97-2.35-1.93-4.7-2.9-7.06-.89-2.81-2.6-4.57-5.14-5.28-1.22-1.06-2.41-1.03-3.58.09-1.66.43-2.77 1.5-3.32 3.19a13.502 13.502 0 0 0-2.83 5.93 46.838 46.838 0 0 0-3.16 12.87zM1935 761.9c5.33 0 8.28-10.12 9.21-13.28 2.86-9.77 3.56-21.53 3.17-31.6-.4-10.42-1.06-21.56-4.72-31.41-1.58-4.24-4.09-12.82-9.85-12.82-5.33 0-8.28 10.12-9.21 13.28-2.86 9.77-3.56 21.53-3.17 31.6.4 10.42 1.06 21.56 4.72 31.41 1.58 4.25 4.09 12.82 9.85 12.82zM1764.91 1023.35c5.19 0 8.06-9.85 8.97-12.93 2.78-9.51 3.46-20.96 3.09-30.77-.39-10.14-1.03-20.99-4.6-30.58-1.54-4.13-3.98-12.48-9.59-12.48-5.19 0-8.06 9.85-8.97 12.93-2.78 9.51-3.46 20.96-3.09 30.77.39 10.14 1.03 20.99 4.6 30.58 1.54 4.13 3.98 12.48 9.59 12.48zM1786.54 1242.65c.45.14.9.28 1.34.42 11.71 3.66 12.67-42.99 12.47-48.17-.44-11.88 0-42.86-14.82-47.5-.45-.14-.9-.28-1.34-.42-11.95-3.74-12.95 43.32-12.75 48.59.19 4.99 3.17 51.71 15.12 47.91l1.32-.42c24.12-7.67 9.79-99.52-2.35-95.66l-1.32.42c-14.03 4.46-12.62 36.55-12.2 47.74.43 11.67-.06 42.53 14.53 47.09zM1958.4 1033.52c.09-.32.18-.65.26-.97.58-3 1.17-6 1.75-9 .34-3.53.67-7.06 1.01-10.59.05-3.92.11-7.84.16-11.77-.25-3.91-.49-7.83-.74-11.74l-1.53-10.53-2.19-8.9c-.91-2.28-1.82-4.57-2.72-6.85-.8-2.7-2.41-4.41-4.82-5.13-1.14-1.03-2.26-1-3.35.08-1.57.44-2.61 1.47-3.11 3.1-1.34 1.7-2.22 3.61-2.64 5.75a30.635 30.635 0 0 0-2.07 7.99c-.78 3.22-1.24 6.48-1.38 9.8-.5 3.71-.7 7.44-.59 11.18-.13 9.38.32 18.94 2.19 28.16.09.43.18.86.27 1.3.9 5.28 2.49 10.33 4.78 15.15.79 2.61 2.35 4.25 4.69 4.94 1.66 1.23 3.29.93 4.88-.88 2.61-3.28 4.32-6.97 5.15-11.09zM1173 1295.8c5.71 0 8.94-10.45 10-13.94 3.09-10.21 3.88-22.61 3.47-33.16-.42-10.93-1.14-22.65-5.09-32.94-1.75-4.57-4.5-13.44-10.67-13.44-5.71 0-8.94 10.45-10 13.94-3.09 10.21-3.88 22.61-3.47 33.15.42 10.93 1.14 22.65 5.09 32.94 1.75 4.58 4.5 13.45 10.67 13.45zM804.67 1253.23l.15-1.89c.39-7.46.21-14.91-.55-22.35a96.715 96.715 0 0 0-3.54-18.47c-.86-2.17-1.73-4.34-2.59-6.51-1.1-3.05-3.17-4.91-6.19-5.59-2.23.45-3.74 1.69-4.53 3.73-1.91 2.6-3.12 5.52-3.65 8.79-3.65 13.26-3.03 27.42-2.08 40.97.04.63.09 1.25.13 1.88.48 3.26.96 6.51 1.43 9.77.59 3.98 1.7 7.79 3.33 11.43.5 1.97 1.41 3.7 2.74 5.21.89 1.96 2.44 3.1 4.65 3.42 1.04-.51 2.08-1.03 3.11-1.54l2.73-4.2c1.51-3.42 2.54-6.96 3.06-10.65 1.08-4.6 1.67-9.27 1.8-14zM1006.14 1245.69c-.28-.17-.55-.35-.83-.52 3.06 9.69 6.11 19.37 9.17 29.06-.18-2.19-.48-4.36-.88-6.52a78.44 78.44 0 0 0-3.03-14.68c-.93-2.37-1.86-4.73-2.79-7.1-1.19-1.71-2.39-3.41-3.6-5.1-2.37-2.15-4.69-2.1-6.95.17-2.78 3.57-4.61 7.59-5.48 12.08-.6 3.15-1.21 6.29-1.81 9.44a146.06 146.06 0 0 0-1.21 23.46c.04 6 .56 11.95 1.57 17.85.55 5.05 1.57 10 3.07 14.87 1.09 4.43 3.11 8.36 6.06 11.79 2.37 2.15 4.69 2.1 6.95-.17.64-.95 1.26-1.92 1.86-2.91 2.05-2.84 3.36-6.03 3.92-9.58 1.71-6.93 2.55-14.23 2.87-21.33-2.58 9.82-5.15 19.65-7.73 29.47.27-.17.54-.35.81-.52.92-1.41 1.83-2.83 2.75-4.24 1.53-3.44 2.56-7.02 3.09-10.73 1.62-8.21 2.26-16.77 1.95-25.12-.26-6.98-.88-13.96-2.14-20.83-.59-4.01-1.71-7.86-3.36-11.53-.83-2.77-2.24-5.2-4.26-7.31zM686.4 1442.29c1.41-25.07 2.81-50.14 4.22-75.21.85 2.2 1.71 4.41 2.56 6.61-.79-2.36-1.69-4.68-2.69-6.97-.99-1.42-1.98-2.85-2.97-4.27-2.17-2-4.3-1.95-6.37.16l-2.76 4.41c-2 5-3.31 10.18-3.92 15.55l-.96 10.31c-.84 12.46.14 25.34 3.07 37.47a43.71 43.71 0 0 0 3.63 11c.74 2.62 2.26 4.28 4.58 5 1.62 1.24 3.21.95 4.76-.89 1.28-1.35 2.22-2.87 2.81-4.56 1.89-3.87 2.41-7.4 3.18-11.46 1.03-5.44 1.55-8.5 1.79-14.79.47-12.19-.11-24.37-2.96-36.26-.69-3.7-1.86-7.25-3.5-10.65-1.03-2.99-3.01-4.84-5.96-5.54-.17 0-.33.02-.49.08-2.05.45-3.42 1.64-4.1 3.55-1.74 2.49-2.83 5.28-3.29 8.36a70.834 70.834 0 0 0-1.93 12.93c-.59 5.13-.77 10.27-.56 15.44.22 3.54.43 7.09.65 10.63.53 5.96 1.61 11.83 3.23 17.59.78 2.07 1.57 4.14 2.35 6.2.96 2.85 2.83 4.62 5.63 5.31zM942.57 1530.71c4.67 0 7.07-10.29 7.69-12.7 2.41-9.49 2.92-20.57 2.57-30.28-.36-9.99-.91-20.56-4.05-30.12-1.21-3.67-3.23-12.31-8.3-12.31-4.67 0-7.07 10.29-7.69 12.7-2.41 9.49-2.92 20.57-2.57 30.28.36 9.99.91 20.56 4.05 30.12 1.2 3.66 3.23 12.31 8.3 12.31zM1166.55 1549.81l.96.12c-3.71-7.65-7.43-15.3-11.14-22.95l3.75 17.33c.69 4.31 2.18 8.27 4.47 11.89.78 2.55 2.48 4.17 5.12 4.87h1.44c2.6-.83 4.22-2.54 4.87-5.12 2.11-3.73 3.4-7.76 3.88-12.1a123.05 123.05 0 0 0 2.22-18.73c.67-7.44.86-14.9.57-22.38l-.84-15.41c-.67-8.61-1.99-17.11-3.96-25.51-.95-3-1.9-6-2.85-9.01-.9-3.93-3.14-6.51-6.74-7.76h-1.44c-3.53 1.42-5.64 4.11-6.35 8.08a96.798 96.798 0 0 0-4.14 20.92c-.25 1.81-.51 3.62-.76 5.43l6.84-21.89c-.15.12-.3.23-.44.35 1.07-.58 2.14-1.17 3.21-1.75l-.95.12c-2.33.56-3.87 1.94-4.61 4.14-1.96 2.93-3.19 6.19-3.69 9.76a85.727 85.727 0 0 0-2.16 15.1c-.65 5.99-.86 12-.61 18.03.25 4.14.49 8.28.74 12.41.6 6.96 1.82 13.81 3.65 20.55.88 2.42 1.77 4.83 2.65 7.25 1.01 3.34 3.12 5.42 6.31 6.26zM12.89 1067.39c1.95 1.79 3.66 2.92 6.02 4.13.94.48 1.88.95 2.81 1.44 1.4.74 2.16 1.63 3.2 2.83 3.86-33.37 7.71-66.73 11.57-100.1-2.41-3.99-5.36-8.96-10.79-8.89-2.36.03-4.94 1.81-7.14 2.96l4.86-2.1c-1.53.36-3.05.71-4.58 1.07-3.21.45-5.49 2.07-6.86 4.85-2.81 3.25-4.66 7.04-5.55 11.37a79.8 79.8 0 0 0-3.32 17.57c-1.01 6.94-1.36 13.93-1.05 20.96.5 12.7 1.41 26.4 6.25 38.27l3.87 8.4c1.9 4.09 5.01 6.49 9.32 7.19 1.54.36 3.09.72 4.63 1.07-1.65-.62-3.3-1.24-4.96-1.86 2.22 1.14 4.87 2.81 7.28 2.72 5.44-.18 8.07-5.26 10.34-9.34 2.33-4.49 3.91-9.22 4.76-14.18a84.243 84.243 0 0 0 2.8-18.64c.64-11.9.16-23.75-1.79-35.51-.43-4.1-1.31-8.09-2.64-11.98a48.499 48.499 0 0 0-5.45-13.93c-1.49-1.8-2.99-3.6-4.48-5.4-3.29-2.52-6.51-2.44-9.67.24l-1.71 1.26c1.54-.67 3.08-1.34 4.62-2-1.9.26-3.82.39-5.73.57-3.21.3-6.05 1.9-8.92 3.33l-3.67 4.99a43.593 43.593 0 0 0-4.14 12.62C.6 1000.89-.3 1011 .09 1020.82c.32 8.2 1.12 16.42 2.77 24.47 1.48 7.25 4.28 16.8 10.03 22.1zM209.16 1416.61c3.17 2.43 7.21 4.66 9.75 7.74-1.07-1.38-2.15-2.75-3.22-4.13 1.07 1.43 2.14 2.85 3.19 4.29 2.9-27.06 5.79-54.13 8.69-81.19-3.29-2.54-6.79-3.74-10.68-5.22 1.3.52 2.61 1.05 3.91 1.57-.5-.26-.86-.5-1.26-.89l3.54 4.53-.31-.4c-1-2.84-2.81-4.6-5.43-5.28-1.93-1.31-3.82-.99-5.66.95-1.1 1.56-2.19 3.12-3.29 4.68a42.29 42.29 0 0 0-3.71 11.83c-4.23 19.61-2.94 40.6 2.58 59.8.99 3.46 2.55 7.06 4.43 10.12 1.45 2.36 3.31 5.34 5.83 6.75 2.27 1.27 3.92 1.82 6.26 1.08 5.14-1.63 6.18-4.05 9.1-8.67.88-2.33 1.76-4.66 2.63-6.99 1.35-4.69 2.18-9.47 2.51-14.32 1.02-9.49 1.21-19.37-.01-28.85-.84-6.55-1.97-13.16-4.04-19.45-.82-3.46-2.38-6.47-4.68-9.05-1.1-2.17-2.91-3.4-5.43-3.68-1.1.19-2.36.55-3.48.53-1.29-.02-2.31-.54-3.52-1.01 1.14.46 2.28.91 3.43 1.37-2.04-.85-4.08-1.67-6.13-2.47-1.76-1.6-3.48-1.8-5.16-.58-2.3.68-3.86 2.28-4.68 4.81a35.592 35.592 0 0 0-3.37 10.27 62.508 62.508 0 0 0-1.98 13.49c-.53 10.08-.34 20.57 2.05 30.41 1.43 5.94 3 14.02 8.14 17.96zM933.94 143.41c.68-.07 1.17.05 1.81.27l-13.56-30.54c.34 2.93.78 5.85 1.33 8.75.36 3.44 1.1 6.8 2.22 10.08.92 4.13 2.44 8.04 4.58 11.72 1.26 1.51 2.51 3.02 3.77 4.54 1.37.51 2.74 1.03 4.11 1.54 2.71-.38 4.64-1.75 5.8-4.1 1.6-1.7 2.67-3.7 3.23-5.98 1.87-4.11 3.08-8.44 3.63-12.97 1.21-7.67 1.6-15.46 1.52-23.22-.03-5.95-.61-11.83-1.75-17.65-.36-3.44-1.1-6.8-2.22-10.08-.92-4.13-2.44-8.04-4.58-11.72-1.26-1.51-2.51-3.02-3.77-4.54-1.37-.51-2.74-1.03-4.11-1.54-2.29.5-4.21 1.58-5.75 3.26 1.16-.53 2.33-1.06 3.49-1.59-1.92-.07-3.7 1.2-5.34 1.95-2.13 2.16-3.6 4.69-4.4 7.58a40.563 40.563 0 0 0-3.18 11.78c-1.34 8.83-1.55 17.72-.95 26.63.07 3.54.46 7.04 1.18 10.5a62.57 62.57 0 0 0 3.12 13.35c.96 2.15 1.92 4.3 2.89 6.45 1.37 3.12 3.69 4.96 6.93 5.53zM783.45 166.85c3.08-.37 5.33-1.87 6.73-4.48 2.73-2.95 4.55-6.45 5.45-10.5a69.827 69.827 0 0 0 3.27-16.21c1-6.4 1.35-12.85 1.05-19.34l-.96-13.3a95.434 95.434 0 0 0-5.1-22c-1.26-2.58-2.52-5.16-3.78-7.75-1.95-3.83-4.99-6.04-9.12-6.62-3.08.37-5.33 1.87-6.73 4.48-2.73 2.95-4.55 6.45-5.45 10.5a69.827 69.827 0 0 0-3.27 16.21c-1 6.4-1.35 12.85-1.05 19.34l.96 13.3c.83 7.54 2.53 14.87 5.1 22 1.26 2.58 2.52 5.16 3.78 7.75 1.95 3.83 4.99 6.03 9.12 6.62zM701.52 409.03c6.23 0 10.21-9.03 11.85-13.4 3.58-9.52 4.69-21.72 4.27-31.75-.44-10.46-1.34-21.9-5.82-31.5-2.37-5.07-5.79-12.8-12.5-12.8-6.23 0-10.21 9.03-11.85 13.4-3.58 9.52-4.69 21.72-4.27 31.75.44 10.46 1.34 21.9 5.82 31.5 2.37 5.07 5.79 12.8 12.5 12.8zM350.61 235.97c6.11 0 10.02-8.86 11.63-13.15 3.51-9.34 4.6-21.31 4.19-31.15-.43-10.26-1.32-21.49-5.71-30.91-2.32-4.98-5.68-12.56-12.26-12.56-6.11 0-10.02 8.86-11.63 13.15-3.51 9.34-4.6 21.31-4.19 31.15.43 10.26 1.32 21.49 5.71 30.91 2.32 4.98 5.68 12.56 12.26 12.56zM1725.33 498.84c5.32 0 5.09-19.37-.48-19.37-5.31.01-5.08 19.37.48 19.37zM1786.86 584.9c-.28-.33-.56-.66-.85-.98-.23-.26-.89-1.28-.37-.16-.62-1.35-1.83-3.42-3.6-2.28-1.61 1.04-1.99 3.69-2.23 5.39-.38 2.71-.32 5.54.38 8.2.42 1.58 1.23 4.32 3.26 4.49.1.01.2.02.3.02-.32-.1-.63-.2-.95-.3.67.51 1.27 1.11 1.9 1.66.91.81 2.09-.21 2.53-.94.76-1.27 1.06-2.77 1.25-4.21.25-1.86.31-3.83.03-5.7-.26-1.67-.52-3.88-1.65-5.19zM1642.63 584.9c-.28-.33-.56-.66-.85-.98-.23-.26-.89-1.28-.37-.16-.62-1.35-1.83-3.42-3.6-2.28-1.61 1.04-1.99 3.69-2.23 5.39-.38 2.71-.32 5.54.38 8.2.42 1.58 1.23 4.32 3.26 4.49.1.01.2.02.3.02-.32-.1-.63-.2-.95-.3.67.51 1.27 1.11 1.9 1.66.91.81 2.09-.21 2.53-.94.76-1.27 1.06-2.77 1.25-4.21.25-1.86.31-3.83.03-5.7-.26-1.67-.52-3.88-1.65-5.19zM1882.46 894.13c4.95 0 4.74-17.75-.44-17.75-4.95 0-4.74 17.75.44 17.75zM2048.18 827.87c3.82 0 3.65-14.39-.35-14.39-3.82 0-3.66 14.39.35 14.39zM1878.15 1175.8c4.41 0 4.22-17.08-.42-17.08-4.41 0-4.22 17.08.42 17.08zM1490.66 1489.75c4.73 0 4.53-16.41-.4-16.41-4.74 0-4.53 16.41.4 16.41zM1346.42 1220.53c4.09 0 3.92-16.14-.4-16.14-4.09 0-3.91 16.14.4 16.14zM1120.41 1395.84c4.53 0 4.33-18.02-.44-18.02-4.53 0-4.33 18.02.44 18.02zM989.08 1597.59c4.42 0 4.23-16.81-.41-16.81-4.42 0-4.23 16.81.41 16.81zM902.57 1365.71c-1.44-.11-2.88-.22-4.31-.34-1.09-.08-1.82 1.91-2.04 2.55-.62 1.84-.8 4.14-.72 6.06.08 2 .23 4.16 1.02 6.02.36.84.98 2.54 2.16 2.45 1.43-.11 2.86-.22 4.3-.34 1.1-.09 1.68-1.65 1.96-2.45.6-1.77.77-3.98.69-5.82-.08-1.92-.22-4-.98-5.78-.4-.92-.9-2.26-2.08-2.35zM737.21 1556.35c3.83 0 3.66-16.14-.4-16.14-3.82 0-3.66 16.14.4 16.14zM1342.83 363.73c-.06.72-.12 1.44-.17 2.16-.27 3.27-.1 7.18 1.19 10.25.45 1.08 1.17 3.07 2.64 3.03 1.38-.03 2.18-2.22 2.49-3.16 1.1-3.29.96-6.89.68-10.3l-.18-2.15c-.15-1.85-.61-3.77-1.37-5.45-.31-.7-1.09-2.39-2.14-2.22-.82.13-1.3.84-1.7 1.48-1.06 1.68-1.29 4.5-1.44 6.36zM1516.48 441.13c4.47 0 4.27-15.87-.39-15.87-4.46-.01-4.27 15.87.39 15.87zM1636.94 319.16c2.5 0 2.39-8.74-.21-8.74-2.5 0-2.39 8.74.21 8.74zM1929.82 506.65c5.16 0 4.94-17.75-.44-17.75-5.15-.01-4.93 17.75.44 17.75zM2042.48 590.45l.12-2.16c.12-2.28.01-4.55-.5-6.78-.29-1.27-.96-3.78-2.49-4.15-1.29-.31-1.89.73-2.37 1.79-.95 2.11-1.25 4.65-1.12 6.95l.12 2.15c.11 2 .26 4.33 1.08 6.21.37.86.85 2.15 1.87 2.38 2.64.6 3.21-4.87 3.29-6.39zM225.15 663.37c5.48 0 5.24-17.62-.43-17.62-5.48 0-5.25 17.62.43 17.62zM446.62 732.23c5.48 0 5.24-17.62-.43-17.62-5.48 0-5.25 17.62.43 17.62zM516.3 581.73c5.48 0 5.24-17.62-.43-17.62-5.48 0-5.25 17.62.43 17.62zM513.35 388.18c4.47 0 4.28-17.62-.43-17.62-4.47 0-4.28 17.62.43 17.62zM651.09 221.01c3.96 0 3.79-14.8-.36-14.8-3.96.01-3.79 14.8.36 14.8zM898.64 201.3c3.94 0 3.77-14.12-.35-14.12-3.94 0-3.77 14.12.35 14.12zM985.58 364.28c3.94 0 3.77-14.12-.35-14.12-3.94 0-3.77 14.12.35 14.12zM814.38 395.85c3.94 0 3.77-14.12-.35-14.12-3.94 0-3.77 14.12.35 14.12zM1066.54 237.63c3.79 0 3.63-13.58-.33-13.58-3.79 0-3.63 13.58.33 13.58zM1128.61 22.84c-.72.04-1.43.09-2.15.13-1.05.07-1.63 1.53-1.9 2.29-.58 1.65-.75 3.72-.68 5.44.07 1.79.22 3.74.94 5.4.38.87.89 2.13 2.01 2.2.72.04 1.44.09 2.16.13 1.03.06 1.72-1.69 1.95-2.33.59-1.67.77-3.78.7-5.54-.07-1.82-.22-3.81-.97-5.5-.35-.8-.95-2.29-2.06-2.22zM1413.19 180.18c8.49 0 8.13-19.23-.47-19.23-8.49 0-8.13 19.23.47 19.23zM1275.39 344.79c4.73 0 4.53-16.95-.42-16.95-4.72.01-4.52 16.95.42 16.95zM156.01 422.89c5.07 0 4.85-18.16-.45-18.16-5.06.01-4.84 18.16.45 18.16zM271.73 536.99c5.07 0 4.85-18.16-.45-18.16-5.06 0-4.84 18.16.45 18.16zM41.09 625.6c.51.47 1.02.93 1.53 1.4.78.71 1.88-.19 2.27-.8.68-1.07.95-2.33 1.13-3.56.23-1.57.28-3.24.03-4.81-.22-1.4-.47-3.31-1.47-4.38.8.86-.31-.33-.46-.5-.36-.39-.72-.78-1.08-1.16-.66-.7-1.35-1.32-2.29-.7-1.31.86-1.61 3.02-1.81 4.41-.45 3.09-.38 7.79 2.15 10.1zM295.94 784.82c5.64 0 5.4-18.7-.46-18.7-5.64 0-5.4 18.7.46 18.7zM39.76 797.39c5.15 0 4.93-18.02-.44-18.02-5.15 0-4.93 18.02.44 18.02zM209.81 1065.88c4.61 0 4.42-16.81-.41-16.81-4.62-.01-4.42 16.81.41 16.81zM201.22 1204.52c5.39 0 5.16-18.56-.46-18.56-5.38 0-5.15 18.56.46 18.56zM145.26 1366.38c5.18 0 4.96-19.37-.48-19.37-5.17 0-4.95 19.37.48 19.37zM364.81 1490.16c5.35 0 5.12-17.22-.42-17.22-5.35 0-5.13 17.22.42 17.22zM582.2 1523.12c.72.2 1.45.4 2.17.61.99.28 1.94-1.83 2.13-2.32.64-1.64.84-3.76.77-5.49-.08-1.81-.24-3.79-1.04-5.45-.34-.71-1.18-2.51-2.24-2.21-.71.2-1.43.4-2.14.61-.97.27-1.34 1.25-1.63 2.13-.5 1.55-.64 3.45-.57 5.06.07 1.67.18 3.47.82 5.02.36.89.71 1.76 1.73 2.04zM552.1 1331.19c4.58 0 4.38-17.89-.44-17.89-4.58.01-4.38 17.89.44 17.89zM700.65 1301.39c4.88 0 4.67-18.56-.46-18.56-4.88 0-4.67 18.56.46 18.56zM442.68 1195.33v2.15c0 2.24.39 4.97 1.26 7.06.33.79 1.39 3.06 2.7 2.87 1.43-.21 2.16-1.8 2.56-3 .76-2.3.92-4.71.92-7.11v-2.15c0-2.24-.39-4.97-1.26-7.06-.33-.79-1.39-3.06-2.7-2.87-1.43.21-2.16 1.8-2.56 3-.76 2.3-.92 4.71-.92 7.11zM1355.08 1558.3c5.36 0 5.13-20.04-.49-20.04-5.36 0-5.13 20.04.49 20.04zM1690.88 724.54c5.6 0 5.36-18.7-.46-18.7-5.6 0-5.36 18.7.46 18.7zM1453.51 732.77c5.6 0 5.36-18.7-.46-18.7-5.6.01-5.36 18.7.46 18.7zM1713.52 1066.14l-.36 2.06c-.51 2.93-.61 5.93.22 8.83.43 1.5 1.14 3.62 2.82 4.11 1.61.46 2.55-1.22 3.07-2.48 1.05-2.52 1.26-5.86.75-8.53l-.39-2.09c-.23-1.26-.43-2.56-.95-3.75-.38-.87-.95-2.08-1.96-2.3-2.04-.44-2.95 2.65-3.2 4.15zM1878.15 1070.58c4.92 0 4.71-17.62-.43-17.62-4.92 0-4.7 17.62.43 17.62zM1801.66 284.73c.08 1.43.07 2.87.08 4.3.01 1.72.31 3.8 1.01 5.4.34.78 1.09 2.22 2.18 2.19 1.1-.03 1.78-1.47 2.07-2.3.61-1.76.74-3.6.75-5.44 0-.64.01-1.28.01-1.91 0-.32 0-.64.01-.96-.04 1.26-.04 1.47 0 .62.11-2.01.02-3.99-.46-5.95-.29-1.18-.94-3.31-2.34-3.64-1.17-.27-1.77.61-2.24 1.58-.89 1.84-1.18 4.09-1.07 6.11zM1628.44 164.3c4.67 0 4.47-17.62-.43-17.62-4.67 0-4.47 17.62.43 17.62zM849.18 9.65c4.47 0 4.27-18.29-.45-18.29-4.47-.01-4.28 18.29.45 18.29zM506.87 107.59c4.13 0 3.95-16.14-.4-16.14-4.12 0-3.94 16.14.4 16.14zM632.54 75.77c-.03-.72-.05-1.43-.08-2.15-.06-1.74-.27-3.89-1.04-5.49-.38-.8-.87-1.9-1.82-2.1-2.47-.52-3.19 4.12-3.25 5.67-.03.71-.05 1.41-.08 2.12-.08 2.07-.02 4.09.47 6.11.3 1.21.96 3.4 2.4 3.73 1.2.28 1.82-.62 2.3-1.62.94-1.92 1.18-4.17 1.1-6.27zM442.29 271c4.21 0 4.03-15.74-.39-15.74-4.21 0-4.03 15.74.39 15.74zM254.61 302.66c-.07-.69-.13-1.37-.19-2.06-.08-.86-.57-3.39-1.87-3.36-1.33.03-1.62 2.57-1.7 3.45-.06.69-.13 1.38-.2 2.07-.15 1.57-.02 3.38.65 4.83.27.58.73 1.44 1.49 1.42.73-.02 1.2-.95 1.42-1.49.6-1.54.55-3.26.4-4.86zM1630.49 777.95c2.29 0 2.19-9.28-.23-9.28-2.28 0-2.18 9.28.23 9.28z"/></svg>