<svg xmlns="http://www.w3.org/2000/svg" viewBox="0 0 1749 2048" style="enable-background:new 0 0 1749 2048" xml:space="preserve"><path d="M275.36 565.02c-.82 1.24-1.92 2.62-3.3 4.12-1.37 1.51-4.26 3.65-8.66 6.39 1.65 7.42 3.23 13.34 4.74 17.74 1.51 4.4 3.65 9.63 6.39 15.67h4.12c3.58 8.52 11.28 25.09 23.1 49.69 11.81 24.61 30.1 57.26 54.85 97.94h2.47c.55 1.65 1.85 3.37 3.92 5.15 2.06 1.79 5.16 4.61 9.28 8.46 1.1 0 2.06-.14 2.88-.41.55 0 1.1-.07 1.65-.21.55-.14.96-.21 1.24-.21h6.19c.55-1.1 1.24-2.27 2.06-3.51.83-1.24 1.79-2.54 2.89-3.92 1.1.55 2.06 1.17 2.89 1.86.83.69 2.33 1.86 4.53 3.5 4.39-.27 7.77-.75 10.1-1.44 2.33-.68 4.05-1.51 5.15-2.47 1.1-.96 1.72-2.06 1.86-3.3.14-1.24.21-2.68.21-4.33.55 1.65 2.33 2.47 5.36 2.47 1.92 0 4.54-.41 7.84-1.24 1.65-16.22 2.74-33.26 3.3-51.14.55-17.87.96-33.82 1.24-47.84 3.57 9.07 7.49 18.63 11.75 28.66 4.26 10.04 8.66 19.8 13.2 29.28 4.54 9.49 8.93 18.29 13.2 26.39 4.26 8.11 8.31 14.78 12.17 20 8.25 0 14.7-.68 19.38-2.06 4.67-1.37 9.76-2.06 15.26-2.06h11.55c2.47 0 4.53.28 6.18.82l-.82-.41c3.3 1.65 6.6 2.47 9.9 2.47 4.67 0 8.38-1.58 11.13-4.74 2.74-3.16 4.12-8.31 4.12-15.46s-.48-16.63-1.44-28.46c-.97-11.82-1.44-23.23-1.44-34.23 5.5 10.45 10.93 20.48 16.29 30.1 5.36 9.63 11.13 18.83 17.32 27.63 6.19 8.8 12.99 17.32 20.41 25.57s15.94 16.22 25.57 23.92l6.6 2.06c9.9-1.93 18.21-5.02 24.95-9.28 2.78-1.76 5.25-3.47 7.53-5.16 9.21 3.51 18.32 5.37 27.31 5.37 19.52 0 39.45-5.57 59.8-16.7 20.34-11.14 39.18-27.01 56.5-47.63h4.54c.55-1.65 1.79-3.92 3.71-6.8 1.92-2.89 4.05-5.98 6.39-9.28 2.34-3.3 4.75-6.45 7.22-9.49 2.47-3.02 4.54-5.5 6.19-7.42 3.02 5.23 5.15 10.17 6.39 14.85 1.24 4.68 2.27 9.42 3.09 14.23.82 4.81 1.72 9.9 2.68 15.26.96 5.36 2.68 11.34 5.15 17.94v8.66c4.95.82 8.25 1.45 9.9 1.86 1.65.41 3.09.89 4.33 1.44 1.24.55 3.02 1.24 5.36 2.06 2.33.82 6.8 2.06 13.4 3.71v-5.77h4.12v-7.42c1.09-.27 3.64-1.51 7.63-3.71 3.98-2.2 8.18-5.01 12.58-8.46 4.39-3.43 8.31-7.22 11.75-11.34 3.44-4.13 5.16-8.11 5.16-11.96 0-2.47-.55-4.67-1.65-6.6l.41.41-1.24-2.48c-4.4-9.07-8.11-19.03-11.14-29.9a419.564 419.564 0 0 1-7.84-33.41c-2.2-11.4-4.33-23.02-6.39-34.85-2.06-11.81-4.2-23.36-6.39-34.64 1.92-2.75 3.57-4.81 4.95-6.19v-2.89c0-1.09-.14-2.06-.41-2.89.83-.55 1.71-1.16 2.68-1.86.96-.68 1.99-1.44 3.09-2.26-2.2-4.4-3.29-8.8-3.29-13.2 0-1.37.06-2.54.2-3.5s.34-2.13.62-3.51l-14.02-5.78c-4.68-1.92-9.63-3.71-14.85-5.36-5.23-1.65-11.54-3.02-18.97-4.13v-1.65c-2.21 0-5.02-.13-8.45-.41-3.44-.27-6.26-.41-8.45-.41-6.33 0-10.66.76-12.99 2.27-2.34 1.52-3.78 3.51-4.33 5.98-12.92 2.2-27.08 5.57-42.48 10.1-15.4 4.54-31.07 10.17-47.01 16.91a425.582 425.582 0 0 0-46.19 22.89c-14.84 8.53-28.04 18.08-39.59 28.66-11.55 10.59-20.83 22-27.84 34.23-1.6 2.8-2.97 5.65-4.21 8.53-.58-1.48-1.2-2.92-1.77-4.4-6.05-15.53-11.76-30.17-17.11-43.92-5.36-13.74-10.11-25.98-14.23-36.7-4.12-10.72-7.7-18.97-10.72-24.74-7.98-1.65-15.12-2.47-21.45-2.47-4.68 0-9.14.28-13.4.82-4.26.55-8.46 1.65-12.58 3.3h.41c-14.84 4.94-23.65 9.9-26.39 14.84-.55 3.03-1.03 6.88-1.44 11.55-.41 4.68-.82 9.69-1.24 15.05-.41 5.36-.97 11-1.65 16.91-.69 5.91-1.45 11.48-2.27 16.7-.82-1.37-2.2-4.54-4.12-9.49a820.47 820.47 0 0 0-7.01-17.32c-2.75-6.6-5.71-13.47-8.87-20.62-3.16-7.15-6.33-13.74-9.48-19.79-3.16-6.05-6.19-11.06-9.07-15.05-2.89-3.98-5.3-5.98-7.22-5.98-7.98 0-16.09.76-24.33 2.27-8.25 1.52-15.95 3.37-23.09 5.57-4.68.82-8.73 2.06-12.17 3.71-3.44 1.65-6.26 3.23-8.45 4.74-2.2 1.52-3.99 2.82-5.36 3.92-1.38 1.1-2.34 1.65-2.89 1.65l-2.06 4.54c-1.1 1.93-2.06 3.71-2.88 5.36-.82 1.65-1.72 4.06-2.68 7.22-.97 3.16-2.2 7.36-3.71 12.58-1.51 5.23-3.5 12.37-5.98 21.44-3.85-6.87-7.22-13.74-10.1-20.62-2.89-6.87-5.77-12.92-8.66-18.15-2.89-5.22-5.98-9.48-9.28-12.78-3.3-3.3-7.15-4.95-11.55-4.95-4.68 0-9.48 1.17-14.43 3.51-4.95 2.34-10.31 5.02-16.08 8.04v3.71c-4.95 1.93-8.18 3.44-9.69 4.54-1.53 1.14-2.71 2.3-3.53 3.54zm458.57 45.16c10.44-5.78 21.58-10.31 33.4-13.61 11.82-3.3 22.68-4.95 32.58-4.95h5.57c1.79 0 2.68.69 2.68 2.06-.56 0-.9 1.24-1.03 3.71-.14 2.47-.2 5.64-.2 9.48 1.1 1.1 1.65 2.75 1.65 4.95 0 4.67-2.21 11.27-6.6 19.79-4.4 8.53-9.9 17.18-16.5 25.98-6.59 8.8-13.68 16.84-21.23 24.12-7.57 7.29-14.51 12.17-20.83 14.64-2.75 1.38-5.09 2.68-7.01 3.92-1.93 1.24-2.89 2.13-2.89 2.68h-.41c-14.02-8.79-23.92-16.84-29.69-24.12-5.7-7.19-8.56-14.31-8.63-21.38 1.12-9.56 5.3-18.39 12.55-26.46 7.28-8.09 16.15-15.04 26.59-20.81zM1274.99 524.4c-11.82 8.52-22.75 18.49-32.78 29.9-10.04 11.41-18.76 23.44-26.19 36.08-6.98 11.88-12.49 24.02-16.68 36.38-.56-1.95-1.13-3.87-1.67-5.87-3.71-13.74-7.08-27.97-10.11-42.68-3.02-14.7-5.84-29.49-8.45-44.33-2.62-14.85-5.22-28.93-7.84-42.27-2.61-13.33-5.36-25.57-8.24-36.7-2.89-11.13-6.13-20.41-9.7-27.83-1.37-.55-2.27-1.09-2.68-1.65-.41-.55-.9-1.65-1.44-3.3-.28.55-.76 1.24-1.45 2.06-.69.82-1.44 1.79-2.27 2.89 1.92-2.48 3.16-4.81 3.71-7.01v2.06c.27-.55.41-1.09.41-1.65 0-.55-.14-.96-.41-1.24-.28-4.4-5.92-6.6-16.91-6.6-1.1 1.1-2.13 2.41-3.09 3.91-.97 1.52-2.27 3.1-3.92 4.74h-8.66c-.55-.55-.82-.89-.82-1.03s-.55-.21-1.65-.21c-4.68 0-9.42 1.38-14.23 4.12-4.82 2.75-7.78 4.68-8.87 5.78v.82c-.27.28-.55.41-.82.41h-4.53c-2.47 4.68-4.2 9.22-5.16 13.61-.97 4.4-1.44 8.8-1.44 13.19 0 10.17 1.51 20.9 4.54 32.17-1.1 1.65-3.03 3.57-5.77 5.77.83 3.86 1.71 8.32 2.68 13.4.96 5.09 2.4 10.52 4.33 16.29-2.75-.55-4.82-.82-6.19-.82h-3.71c-6.6 0-13.2.28-19.79.82-6.6.55-12.52 1.52-17.74 2.89h.41c-7.98 2.48-16.7 5.92-26.19 10.31-9.48 4.4-19.73 10.31-30.72 17.73-7.15 4.68-13.4 10.87-18.76 18.56-5.36 7.7-9.9 16.23-13.61 25.57-3.71 9.35-6.53 19.32-8.45 29.9a178.781 178.781 0 0 0-2.89 31.96c0 14.02 1.59 28.19 4.74 42.48 3.16 14.3 7.9 27.22 14.23 38.76 6.32 11.55 14.43 21.1 24.33 28.66 9.9 7.56 21.58 11.48 35.05 11.75h1.24c16.76-2.2 31.2-5.15 43.3-8.87 12.1-3.71 22.82-8.59 32.17-14.64 9.34-6.04 17.59-13.61 24.75-22.68 7.14-9.07 14.16-20.21 21.03-33.4.82 2.47 1.44 4.06 1.85 4.74.41.69.68 1.38.82 2.06.14.69.34 1.72.62 3.09.27 1.38.82 3.71 1.65 7.01l.82 4.54c1.92 6.33 3.84 13.13 5.77 20.41 1.92 7.29 3.57 12.85 4.94 16.7 1.65-.27 3.37-.41 5.16-.41h5.15c2.47 0 4.74.14 6.8.41 2.06.28 4.19.41 6.4.41 5.22 0 10.16-1.37 14.84-4.13l2.06 2.48c1.37.28 3.44.41 6.19.41 8.94 0 18.03-2.41 27.3-7.19 7.37 3.67 14.2 7 20.33 9.87 6.73 3.16 13.46 5.78 20.21 7.84 6.73 2.06 13.88 3.64 21.44 4.74 7.56 1.09 16.43 1.65 26.6 1.65 18.41 0 34.64-.76 48.66-2.27 14.02-1.51 26.6-3.85 37.74-7.01 11.13-3.16 21.24-7.28 30.31-12.37 9.07-5.08 17.87-11.2 26.39-18.35 0-1.92.34-3.71 1.03-5.36.68-1.65 2.27-5.22 4.74-10.72h-9.07c.27-.82.75-1.99 1.44-3.51.68-1.51 2.13-4.19 4.33-8.04-14.3 2.75-29.28 5.98-44.95 9.69-15.67 3.71-31.75 5.57-48.25 5.57-10.45 0-21.38-.69-32.78-2.06-11.41-1.37-20.97-4.81-28.66-10.31l.41.41c-6.6-4.67-10.72-11.82-12.37-21.44 6.32 1.38 14.7 2.89 25.16 4.54 10.44 1.65 21.85 3.58 34.23 5.77h-.41c3.02.55 6.19 1.03 9.48 1.45 3.3.41 6.46.89 9.49 1.44 4.12 0 7.69-.14 10.72-.41 3.02-.27 5.36-1.1 7.01-2.48 1.37-1.37 3.85-2.4 7.42-3.09 3.57-.68 7.42-1.3 11.55-1.86 4.12-.55 8.18-1.03 12.16-1.44 3.98-.41 7.22-.89 9.69-1.44v-2.89c8.8-3.57 15.05-10.58 18.76-21.03 3.71-10.44 5.57-22.27 5.57-35.46 0-13.47-1.31-27.22-3.92-41.24-2.62-14.02-6.8-27.15-12.58-39.38-5.78-12.23-13.34-22.89-22.68-31.96-9.35-9.07-20.76-15.53-34.23-19.38v-2.47c-13.75-3.85-24.74-5.78-32.99-5.78-12.93 0-25.78 2.55-38.56 7.63-12.76 5.11-25.07 11.91-36.88 20.43zm-191.76-32.58.41-.82c.27.55.41.89.41 1.03s.13.48.41 1.03c-.82 0-1.23-.41-1.23-1.24zm4.54 155.68c-3.03 11.96-6.67 23.3-10.93 34.02-4.26 10.72-8.87 19.73-13.82 27.01-4.95 7.29-9.21 10.93-12.78 10.93-.83 0-2.62-1.78-5.36-5.36l-.41-.41c-4.12-4.95-7.91-10.72-11.34-17.32-3.44-6.6-6.53-13.54-9.28-20.82-2.75-7.28-4.89-14.78-6.4-22.48-1.51-7.69-2.27-15.26-2.27-22.68 0-9.9 2.12-18.97 6.39-27.22 4.26-8.25 11.61-14.16 22.06-17.73v-3.71c8.52-4.67 15.81-7.01 21.86-7.01 7.69 0 14.08 3.44 19.18 10.31 5.08 6.88 7.63 17.05 7.63 30.52 0 9.34-1.51 19.99-4.53 31.95zm257.32-74.44v-.41c4.67 6.88 8.59 15.95 11.75 27.22 3.16 11.28 4.75 25.57 4.75 42.89-5.5-1.37-11.07-2.82-16.7-4.33-5.64-1.51-12.03-3.09-19.18-4.74-6.6-1.65-12.79-3.16-18.56-4.54-5.77-1.37-11.41-2.74-16.91-4.13-.55-3.02-.97-6.04-1.24-9.07-.28-3.02-.41-5.63-.41-7.83 0-14.02 3.36-25.57 10.1-34.64 6.73-9.07 14.64-13.61 23.71-13.61 7.98-.01 15.54 4.4 22.69 13.19zM396.92 158.25c5.68 15.36 10.77 29.22 15.27 41.57 4.51 12.36 9.68 22.87 15.53 31.55 5.84 8.68 12.77 15.36 20.78 20.03 8.01 4.68 18.36 7.01 31.05 7.01 9.01 0 19.03-1.83 30.05-5.51 11.02-3.67 21.95-8.51 32.8-14.52 10.84-6.01 21.28-12.94 31.3-20.78 10.02-7.84 18.69-15.94 26.04-24.29 7.01 12.69 14.69 26.96 23.04 42.82a964.287 964.287 0 0 1 24.04 49.08c7.68 16.86 14.35 33.55 20.03 50.08 5.67 16.52 9.18 31.46 10.51 44.82 0 1.33-.84 2-2.5 2-1.67 0-3.68-.5-6.01-1.5a433.515 433.515 0 0 0-41.56-8.01c-14.02-2-28.22-3.75-42.57-5.26-14.36-1.5-28.72-3.09-43.07-4.76a454.48 454.48 0 0 1-42.57-7.01l1 .5c-.67-.34-1.5-.5-2.5-.5 3.67-3.68 6.34-7.01 8.01-10.01l-.5.5c1.67-2.67 3.67-5.09 6.01-7.26 2.33-2.17 5.01-3.93 8.01-5.26v-6.01c4.34-2.34 7.59-4.34 9.77-6.01 2.17-1.67 4.25-3.34 6.26-5.01 2-1.67 4.17-3.25 6.51-4.76 2.33-1.5 5.67-3.08 10.02-4.76 0-4.01-1.67-8.68-5.01-14.02s-8.18-8.01-14.52-8.01c-2 0-3.01 1.34-3.01 4.01l-13.02-9.52c-10.35 4.68-21.28 9.02-32.8 13.02-11.52 4-23.12 10.01-34.8 18.03l.5-.5c-5.01 2.67-10.52 7.26-16.53 13.77-6.01 6.51-11.69 13.68-17.03 21.53-5.35 7.84-9.77 15.85-13.27 24.04-3.51 8.18-5.26 15.28-5.26 21.28 0 9.34 2.68 16.94 8.01 22.79 5.34 5.84 14.69 9.59 28.04 11.27 10.68 1.67 24.62 4.59 41.82 8.76 17.19 4.17 35.88 8.34 56.09 12.52 20.2 4.17 40.89 7.84 62.1 11.02 21.2 3.17 40.98 4.76 59.34 4.76 6.34 0 12.35-.25 18.03-.75 5.67-.5 11.02-1.09 16.02-1.75 9.01-1.34 18.53-5.51 28.54-12.52 10.02-7.01 19.28-15.44 27.79-25.29 8.51-9.85 15.52-20.45 21.03-31.8 5.51-11.35 8.26-22.21 8.26-32.55 0-1.67-.08-3.25-.25-4.76-.17-1.5-.42-3.09-.75-4.76-3.34-14.02-8.01-28.97-14.02-44.82-1.15-3.03-2.44-6.09-3.64-9.13.05.04.09.08.14.12 12.68 10.19 26.37 18.62 41.07 25.29h-.5c25.37 11.34 49.41 17.03 72.11 17.03 20.7 0 42.57-4.18 65.6-12.52 23.04-8.34 44.32-19.7 63.85-34.05 19.53-14.35 35.63-31.13 48.33-50.33 2.25-3.41 4.23-6.88 6.08-10.37 1.77 6.21 3.98 12.11 6.69 17.64 7.84 16.03 17.86 29.29 30.05 39.81 12.18 10.51 25.79 18.28 40.81 23.29 15.02 5.01 29.87 7.51 44.57 7.51 12.68 0 26.62-1.58 41.81-4.76 15.19-3.17 29.8-7.76 43.82-13.77s26.54-13.6 37.56-22.79c11.02-9.18 18.7-19.78 23.04-31.8 3 0 5.59-2.92 7.76-8.76s4.01-12.52 5.51-20.03c1.5-7.51 2.58-14.94 3.26-22.29.66-7.34 1-12.35 1-15.02 1-.33 2.17-.58 3.51-.75 1.33-.17 3.01-.58 5.01-1.25-3.68-9.01-6.26-18.69-7.76-29.05-1.5-10.34-2.75-20.61-3.76-30.8-1-10.18-2.17-20.04-3.5-29.55-1.34-9.52-3.51-17.94-6.51-25.29-3.01-7.34-7.43-13.19-13.27-17.53-5.84-4.34-13.61-6.51-23.29-6.51-4.68 0-9.51.5-14.52 1.5v-5.01c-12.02 2.67-20.03 5.68-24.04 9.01v7.01h-5.51c-1.34 0-4.68-.33-10.02-1-1.68 3.34-3.18 5.84-4.51 7.51-1.34 1.67-2.75 3-4.26 4-1.5 1-3.18 2-5.01 3.01-1.84 1-4.09 2.34-6.76 4v27.04c8.68 8.68 14.52 19.37 17.53 32.05 3.01 12.69 4.51 24.54 4.51 35.56 0 11.69-1.25 22.62-3.76 32.8-2.5 10.19-5.85 19.11-10.02 26.79-4.18 7.68-8.77 13.94-13.77 18.78-5.01 4.84-10.02 7.76-15.02 8.76-6.01-.33-12.02-3.75-18.03-10.27-6.01-6.51-11.52-16.69-16.53-30.55-5.01-13.85-9.01-31.8-12.02-53.83-3.01-22.04-4.51-48.74-4.51-80.13 0-4.01.08-8.76.25-14.27.17-5.51.33-11.18.5-17.03.17-5.84.33-11.6.5-17.28.16-5.67.25-10.84.25-15.52-7.68 1-13.86 1.67-18.53 2-4.68.34-8.6.67-11.77 1-3.18.33-5.76 1.17-7.76 2.5-2 1.34-4.01 3.51-6.01 6.51-.67-.33-1.93-.58-3.76-.75-1.84-.16-4.59-.25-8.26-.25-2 5.68-5.18 10.52-9.51 14.52-4.34 4.01-8.51 6.35-12.52 7.01-6.67 24.38-12.18 48.25-16.53 71.62-.22 1.21-.39 2.49-.61 3.71-.64-.42-1.27-.71-1.9-.71-.67 0-1.67.34-3 1-8.69-16.69-19.28-31.72-31.8-45.07-12.52-13.35-26.46-24.62-41.81-33.8-15.36-9.18-31.8-16.28-49.33-21.29-17.53-5.01-35.81-7.51-54.84-7.51v3.51c-18.03 0-34.39 1.75-49.08 5.26-14.7 3.51-28.38 9.61-41.07 18.28h.5c-13.36 9.35-24.96 18.7-34.81 28.04-9.85 9.35-18.12 19.03-24.79 29.05-14.65 23.51-22.52 46.59-23.78 69.25-7.75-13.9-15.36-27.89-22.79-41.95-7.68-14.52-14.61-28.71-20.78-42.57-6.18-13.85-11.19-27.21-15.02-40.06-3.84-12.85-5.93-24.79-6.26-35.81-6.98-2.33-13.16-3.5-18.5-3.5-2.68 0-5.01.34-7.01 1-2 .67-4.18 1-6.51 1-1.34 0-2.75-.08-4.26-.25-1.5-.16-3.43-.42-5.76-.75l-6.51 7.01c-7.01.34-12.27 2.26-15.78 5.76s-8.1 6.93-13.77 10.27v2l-2 1c-2.68-1-4.68-1.5-6.01-1.5-2.68 0-4.51 1.68-5.51 5.01-1 3.34-1.5 10.52-1.5 21.53 0 5.68.17 12.36.5 20.03.33 7.69.5 15.86.5 24.54 0 9.02-.17 18.2-.5 27.54-.33 9.35-1.17 17.95-2.5 25.79-1.34 7.85-3.59 14.2-6.76 19.03-3.18 4.85-7.43 7.26-12.77 7.26-3.34 0-6.68-3.67-10.02-11.02h.5c-3.34-8.68-6.01-18.44-8.01-29.29-2-10.85-3.75-21.79-5.26-32.8-1.5-11.02-3.01-21.79-4.51-32.3-1.5-10.52-3.51-19.86-6.01-28.04s-5.76-14.77-9.76-19.78-9.19-7.51-15.53-7.51c-2.34 0-4.84.34-7.51 1-2.68.67-5.84 1.5-9.51 2.51l.5-.5c-2 .67-5.6 1.68-10.77 3.01-5.18 1.34-9.44 2.34-12.77 3.01v6.01l-2 .5c-1.67 2-3.01 4.18-4.01 6.51-.67.34-1.68 1-3.01 2-1.33.67-3.25 1.5-5.76 2.5s-6.09 2.18-10.77 3.51c-.66 7.01-1.16 13.52-1.5 19.53-.33 6.01-.5 11.85-.5 17.53 0 14.7 1.09 28.38 3.26 41.07 2.18 12.67 5.1 24.19 8.77 34.53zm410.65-65.1c8.68-13.68 18.86-20.53 30.55-20.53 7.01 0 11.85 2.34 14.52 7.01v-.5c.67 1 1.17 2.09 1.5 3.25.33 1.17.83 2.09 1.5 2.75 1 0 2.5-.33 4.51-1 2-.66 4.01-1.41 6.01-2.25 2-.83 3.76-1.67 5.26-2.51 1.5-.83 2.25-1.42 2.25-1.75l.5 1.5c1.67 5.68 3 10.19 4.01 13.52 1 3.34 1.67 6.01 2 8.01 2-2 3.92-3.25 5.76-3.75 1.83-.5 3.51-.91 5.01-1.25 1.5-.33 3.01-.58 4.51-.75 1.5-.17 3.08-1.08 4.76-2.76 2.67 1.68 5.34 4.68 8.01 9.02 4.34 6.01 8.93 10.35 13.77 13.02s9.26 6.18 13.27 10.52 7.34 10.52 10.02 18.53c2.67 8.01 4.01 20.37 4.01 37.06 0 6.68-.67 14.61-2 23.79-1.34 9.19-4.18 18.03-8.51 26.54-4.34 8.51-10.35 15.78-18.03 21.78-7.68 6.01-17.86 9.02-30.55 9.02-9.35 0-18.7-1-28.04-3.01-20.03-5.01-35.06-14.69-45.07-29.05h.5c-7.68-11.68-13.44-24.29-17.28-37.81-3.84-13.52-5.76-27.12-5.76-40.81-.01-24.7 4.33-43.9 13.01-57.59zM542.65 26.54c.66 0 1.08.08 1.25.25.16.17.58.25 1.25.25-1.68.67-3.09 1.43-4.26 2.25-1.17.84-2.25 1.43-3.25 1.75 0-3 1.67-4.5 5.01-4.5zM1048.46 1561.95l.58.58-1.75-3.49c-6.22-12.82-11.46-26.89-15.73-42.24-4.28-15.34-7.96-31.07-11.07-47.19-3.11-16.11-6.12-32.52-9.03-49.23-2.91-16.69-5.93-33-9.03-48.93 2.71-3.88 5.04-6.79 6.99-8.74v-4.08c0-1.55-.2-2.91-.58-4.08 1.16-.77 2.42-1.65 3.79-2.62 1.36-.97 2.81-2.04 4.37-3.21-3.11-6.21-4.66-12.42-4.66-18.64 0-1.94.09-3.59.29-4.95.19-1.36.48-3 .87-4.95l-19.81-8.16c-6.61-2.71-13.6-5.24-20.97-7.58-7.38-2.33-16.31-4.27-26.8-5.82v-2.33c-3.11 0-7.09-.19-11.94-.58-4.86-.38-8.84-.58-11.94-.58-8.94 0-15.05 1.07-18.35 3.2-3.3 2.14-5.34 4.95-6.12 8.45-18.26 3.11-38.26 7.86-60 14.27-21.76 6.41-43.89 14.38-66.41 23.89a602.339 602.339 0 0 0-65.25 32.33c-20.97 12.04-39.61 25.54-55.93 40.49-7.93 7.27-15.08 14.83-21.49 22.65-2.92-10.55-5.7-21.39-8.22-32.85a2832.34 2832.34 0 0 1-19.22-95.25c-5.83-31.65-11.65-61.17-17.48-88.55-5.83-27.38-12.44-48.84-19.81-64.37-2.72-.77-4.66-3.3-5.83-7.57-.39.78-1.07 1.75-2.04 2.91-.41.5-.85 1.1-1.3 1.74 1.64-2.73 2.76-5.25 3.34-7.56v2.91c.38-.77.58-1.75.58-2.91 0-.78-.2-1.36-.58-1.75-.78-6.21-8.94-9.32-24.47-9.32-.78 0-2.14 1.66-4.08 4.95-1.95 3.3-3.89 5.93-5.83 7.87h-12.82c-.78-.77-1.16-1.26-1.16-1.45 0-.19-.78-.29-2.33-.29-6.61 0-13.31 1.95-20.1 5.82-6.8 3.89-11.17 6.61-13.11 8.16v1.16c-.39.39-.78.58-1.17.58h-6.41c-6.61 12.82-9.9 25.83-9.9 39.03 0 6.61.67 14.08 2.04 22.43 1.36 8.35 3 16.41 4.95 24.18-.78.78-1.85 1.75-3.2 2.91-1.37 1.16-3.01 2.72-4.95 4.66.77 5.83 1.94 12.33 3.5 19.52 1.55 7.19 3.69 15.06 6.41 23.59-3.89-.77-6.8-1.16-8.74-1.16h-5.24c-9.71 0-19.33.39-28.84 1.16-9.52.79-17.97 2.14-25.34 4.08h.58c-22.14 6.61-49.52 20.01-82.14 40.19-10.1 6.99-19.03 15.93-26.8 26.8-7.77 10.88-14.37 23.01-19.81 36.41-5.44 13.4-9.52 27.77-12.23 43.11-2.71 15.35-4.08 30.97-4.08 46.9 0 21.36 2.33 42.23 6.99 62.62s11.74 38.74 21.27 55.05c9.51 16.31 21.26 29.62 35.24 39.91 13.98 10.28 30.29 16.02 48.93 17.18h2.33c24.08-3.11 44.86-7.38 62.33-12.82s32.91-12.61 46.31-21.55c13.4-8.93 25.34-19.9 35.83-32.91 10.49-13.01 20.58-28.84 30.29-47.48 1.16 3.5 1.94 5.83 2.33 6.99.38 1.16.77 2.24 1.16 3.2.38.98.67 2.43.87 4.37.19 1.95.87 5.24 2.04 9.9l1.75 6.99c2.71 8.94 5.44 18.55 8.16 28.84 2.71 10.29 5.04 18.16 6.99 23.59 2.33 0 4.75-.09 7.28-.29 2.52-.19 4.95-.29 7.28-.29 4.27 0 7.86.2 10.78.58 2.91.39 5.92.58 9.03.58 6.99 0 13.98-1.75 20.97-5.24l3.5 3.5c1.17 0 2.42.1 3.78.29 1.36.2 2.62.29 3.79.29 5.59 0 11.2-.69 16.83-1.93 8.25 6.43 16.97 11.72 26.28 15.62 14.36 6.02 28.54 9.03 42.53 9.03 27.57 0 55.73-7.87 84.47-23.59 28.74-15.73 55.34-38.16 79.81-67.28h6.41c.78-2.33 2.52-5.54 5.24-9.61 2.71-4.08 5.72-8.45 9.03-13.11 3.3-4.66 6.7-9.12 10.2-13.4 3.5-4.27 6.41-7.77 8.74-10.49 4.27 7.38 7.28 14.37 9.03 20.97 1.75 6.61 3.2 13.31 4.37 20.1 1.17 6.8 2.42 13.98 3.79 21.56 1.36 7.57 3.78 16.02 7.28 25.34v12.24c6.99 1.16 11.65 2.04 13.98 2.62 2.33.58 4.37 1.26 6.12 2.04s4.27 1.75 7.57 2.91c3.29 1.16 9.61 2.91 18.93 5.24v-8.16h5.82v-10.49c1.55-.38 5.14-2.13 10.78-5.24 5.62-3.1 11.55-7.08 17.77-11.94 6.21-4.85 11.74-10.19 16.61-16.02 4.85-5.82 7.28-11.45 7.28-16.89.03-3.49-.76-6.6-2.3-9.32zm-585.47-309.34c0-.38.09-.58.29-.58.19 0 .29-.19.29-.58l1.16 2.33c-1.16 0-1.74-.38-1.74-1.17zm6.41 222.54c-4.28 17.1-9.42 33.41-15.44 48.93-6.03 15.54-12.53 28.65-19.52 39.32-6.99 10.69-13.21 16.02-18.64 16.02-1.55 0-4.28-2.33-8.15-6.99l-.58-.58c-5.83-6.99-11.36-15.24-16.6-24.76-5.24-9.51-9.71-19.61-13.4-30.29-3.7-10.68-6.7-21.55-9.03-32.63-2.33-11.07-3.5-21.84-3.5-32.33 0-14.76 3.2-27.96 9.61-39.61 6.41-11.65 16.99-20.19 31.75-25.63v-5.24c12.03-6.6 22.52-9.9 31.46-9.9 12.03 0 21.45 5.24 28.25 15.73 6.79 10.48 10.2 24.86 10.2 43.11-.01 12.81-2.15 27.77-6.41 44.85zm389.73-18.06c-6.22 12.04-13.98 24.28-23.3 36.7-9.32 12.43-19.33 23.79-30 34.08-10.69 10.3-20.49 17.18-29.42 20.68-3.89 1.95-7.19 3.79-9.9 5.54-2.72 1.75-4.08 3.01-4.08 3.78h-.58c-19.81-12.42-33.79-23.78-41.94-34.08-8.04-10.13-12.1-20.18-12.21-30.14 1.57-13.53 7.49-26.01 17.75-37.43 10.28-11.45 22.81-21.26 37.58-29.42 14.75-8.16 30.48-14.56 47.19-19.22 16.69-4.66 32.04-6.99 46.02-6.99h7.87c2.52 0 3.79.97 3.79 2.91-.78 0-1.27 1.75-1.46 5.24-.2 3.5-.29 7.96-.29 13.4 1.55 1.55 2.33 3.89 2.33 6.99-.03 6.61-3.15 15.93-9.35 27.96z"/><path d="M1475.47 1683.12c-3.49-15.93-8.74-32.92-15.73-50.97-6.99-18.06-14.67-36.21-23.01-54.47-8.36-18.25-17.19-36.21-26.51-53.89-9.32-17.67-18.26-34.08-26.8-49.23h.58c-8.94-16.31-17.87-32.72-26.8-49.23-8.94-16.5-16.9-32.62-23.89-48.35-6.99-15.73-12.62-30.88-16.89-45.44-4.28-14.56-6.61-28.26-6.99-41.07-8.16-2.71-15.15-4.08-20.97-4.08-3.11 0-5.83.39-8.16 1.16-2.33.78-4.86 1.16-7.57 1.16-1.56 0-3.11-.09-4.66-.29-1.56-.19-3.7-.48-6.41-.87l-7.57 7.58c-4.28 0-7.96.78-11.07 2.33-3.11 1.56-5.93 3.4-8.45 5.53-2.53 2.14-4.86 4.18-6.99 6.12-2.14 1.95-4.57 3.5-7.28 4.66v2.33l-2.33 1.17c-3.11-1.17-5.44-1.75-6.99-1.75-3.11 0-5.24 1.95-6.41 5.83-1.17 3.89-1.75 12.04-1.75 24.47 0 6.61.19 14.18.58 22.72.38 8.55.58 17.87.58 27.96 0 10.48-.2 21.17-.58 32.04-.39 10.88-1.37 20.68-2.91 29.42-1.56 8.74-4.08 15.83-7.57 21.26-3.5 5.44-8.36 8.16-14.56 8.16-3.5 0-7.19-4.27-11.07-12.82h.58c-4.28-10.09-7.57-21.26-9.9-33.5a570.574 570.574 0 0 1-5.83-37.29c-1.55-12.61-3.11-24.95-4.66-36.99-1.55-12.03-3.7-22.72-6.41-32.04-2.72-9.32-6.41-16.79-11.07-22.43-4.66-5.62-10.69-8.45-18.06-8.45-3.11 0-6.12.39-9.03 1.17-2.91.78-6.32 1.75-10.2 2.92v-.58c-2.33.78-6.41 1.95-12.23 3.49-5.83 1.56-10.69 2.72-14.56 3.5v6.41l-2.33.58c-.78 1.56-1.07 2.82-.87 3.78.19.98-.2 2.04-1.16 3.21-.97 1.17-3.2 2.53-6.7 4.08-3.49 1.56-9.51 3.49-18.06 5.82-.78 8.16-1.36 15.64-1.75 22.43-.38 6.8-.58 13.5-.58 20.1 0 16.31 1.16 31.95 3.49 46.9 2.33 14.96 5.63 28.06 9.9 39.32a8293.15 8293.15 0 0 0 17.19 46.9c5.24 14.18 11.16 26.21 17.77 36.12 6.6 9.9 14.56 17.58 23.88 23.01 9.32 5.44 21.36 8.16 36.12 8.16 10.49 0 21.94-2.13 34.37-6.41 12.43-4.27 24.85-9.8 37.28-16.6 12.43-6.79 24.37-14.65 35.83-23.59 11.45-8.93 21.27-18.06 29.42-27.38 7.77 13.98 16.5 30.1 26.21 48.35 9.7 18.26 18.94 36.99 27.67 56.22 8.74 19.22 16.4 38.25 23.01 57.09 6.6 18.83 10.48 36.02 11.65 51.56 0 1.54-.78 2.33-2.33 2.33-2.33 0-4.66-.58-6.99-1.75a510.515 510.515 0 0 0-48.06-9.32 1337.1 1337.1 0 0 0-48.64-6.12c-16.31-1.75-32.62-3.59-48.93-5.53a503.304 503.304 0 0 1-48.35-8.16l.58.58c-.39-.39-1.17-.58-2.33-.58 3.88-3.11 6.99-6.8 9.32-11.07l-.58.58c3.5-5.82 8.74-10.69 15.73-14.56v-6.41c4.66-2.72 8.35-5.15 11.07-7.28 2.71-2.14 5.14-4.08 7.28-5.82 2.13-1.75 4.56-3.5 7.28-5.24 2.71-1.75 6.6-3.59 11.65-5.54 0-1.94-.49-4.37-1.46-7.28-.97-2.92-2.43-5.63-4.37-8.16-1.95-2.52-4.37-4.75-7.28-6.7-2.91-1.94-6.12-2.91-9.61-2.91-1.95 0-2.91 1.56-2.91 4.66l-15.15-10.49c-12.04 6.22-24.67 11.27-37.87 15.15-13.21 3.89-26.21 10.49-39.03 19.81l.58-.58c-7.38 4.66-14.56 10.97-21.56 18.93-6.99 7.96-13.31 16.31-18.93 25.05-5.63 8.74-10.19 17.57-13.69 26.51-3.5 8.93-5.24 16.5-5.24 22.72 0 10.48 3.2 18.93 9.61 25.34 6.41 6.41 16.79 10.58 31.17 12.53 12.03 1.94 27.86 5.24 47.48 9.9 19.61 4.66 40.97 9.41 64.08 14.27 23.1 4.85 46.79 9.12 71.07 12.82 24.27 3.69 46.9 5.53 67.87 5.53 7.37 0 14.27-.29 20.68-.87 6.41-.58 12.52-1.27 18.35-2.04 10.09-1.56 20.87-6.41 32.33-14.56 11.45-8.16 22.04-17.87 31.75-29.13 9.7-11.27 17.77-23.4 24.18-36.41 6.41-13.02 9.61-25.34 9.61-36.99 0-1.95-.1-3.7-.29-5.24-.19-1.58-.48-3.33-.86-5.27zm-263.02-363.51c-1.37.78-2.43 1.36-3.2 1.75 0-3.1 1.75-4.66 5.24-4.66.38 0 .77.1 1.16.29.38.2.97.29 1.75.29-1.95.78-3.6 1.55-4.95 2.33zM846.52 1085.79c6.19 8.8 12.99 17.32 20.41 25.57s15.94 16.22 25.57 23.92l6.6 2.06c9.9-1.93 18.21-5.02 24.95-9.28 6.73-4.27 12.03-8.32 15.88-12.17-7.7-9.62-15.19-21.24-22.47-34.85-7.29-13.61-14.3-27.97-21.03-43.09-6.74-15.12-13.13-30.45-19.18-45.98-6.05-15.53-11.75-30.17-17.11-43.92-5.36-13.74-10.11-25.98-14.23-36.7-4.12-10.72-7.7-18.97-10.72-24.74-7.98-1.65-15.12-2.47-21.44-2.47-4.68 0-9.14.28-13.4.82-4.26.55-8.45 1.65-12.58 3.3h.41c-14.85 4.94-23.65 9.9-26.39 14.85-.55 3.03-1.03 6.87-1.44 11.54-.41 4.68-.82 9.69-1.24 15.05-.41 5.36-.97 11-1.65 16.91-.69 5.91-1.44 11.48-2.27 16.7-.82-1.37-2.2-4.54-4.12-9.49-1.93-4.95-4.27-10.72-7.01-17.32-2.75-6.6-5.71-13.47-8.87-20.62-3.16-7.15-6.33-13.74-9.49-19.79-3.16-6.05-6.18-11.06-9.07-15.05-2.89-3.98-5.3-5.98-7.22-5.98-7.98 0-16.08.76-24.33 2.27-8.25 1.52-15.95 3.37-23.09 5.57-4.68.82-8.73 2.06-12.17 3.71-3.44 1.65-6.26 3.23-8.45 4.74-2.2 1.52-3.99 2.83-5.36 3.92-1.38 1.1-2.34 1.65-2.89 1.65l-2.06 4.54c-1.1 1.93-2.06 3.71-2.89 5.36-.82 1.65-1.72 4.06-2.68 7.22-.97 3.16-2.2 7.36-3.71 12.58-1.51 5.23-3.51 12.37-5.98 21.45-3.85-6.87-7.22-13.74-10.1-20.62-2.89-6.87-5.77-12.92-8.66-18.15-2.88-5.22-5.98-9.48-9.28-12.78-3.3-3.3-7.15-4.95-11.55-4.95-4.68 0-9.49 1.17-14.43 3.51-4.95 2.34-10.31 5.02-16.08 8.04v3.71c-4.95 1.93-8.18 3.44-9.69 4.54-1.51 1.1-2.68 2.27-3.51 3.5-.82 1.24-1.92 2.62-3.3 4.13-1.37 1.51-4.26 3.64-8.66 6.39 1.65 7.42 3.24 13.34 4.74 17.74 1.51 4.4 3.65 9.63 6.39 15.67h4.12c3.58 8.53 11.28 25.09 23.09 49.7 11.82 24.61 30.1 57.26 54.85 97.94h2.47c.55 1.65 1.86 3.37 3.92 5.15 2.06 1.79 5.16 4.61 9.28 8.46 1.1 0 2.06-.14 2.89-.41.55 0 1.09-.07 1.65-.21.55-.14.96-.21 1.24-.21h6.18c.55-1.1 1.24-2.27 2.06-3.51.82-1.24 1.78-2.54 2.89-3.92 1.1.55 2.06 1.17 2.89 1.86.83.69 2.33 1.86 4.54 3.5 4.39-.27 7.76-.75 10.1-1.44 2.33-.68 4.05-1.51 5.16-2.47 1.1-.96 1.71-2.06 1.86-3.3.14-1.23.21-2.68.21-4.33.55 1.65 2.33 2.47 5.36 2.47 1.92 0 4.54-.41 7.84-1.24 1.65-16.22 2.74-33.26 3.3-51.14.55-17.87.96-33.82 1.23-47.84 3.57 9.07 7.49 18.63 11.76 28.66 4.26 10.04 8.66 19.8 13.2 29.28 4.54 9.49 8.93 18.29 13.2 26.39 4.26 8.11 8.31 14.78 12.16 20 8.25 0 14.71-.68 19.38-2.06 4.67-1.37 9.76-2.06 15.26-2.06h11.55c2.48 0 4.54.28 6.19.82l-.82-.41c3.3 1.65 6.6 2.47 9.9 2.47 4.67 0 8.38-1.58 11.14-4.74 2.74-3.16 4.12-8.31 4.12-15.46s-.48-16.63-1.44-28.46c-.97-11.82-1.44-23.23-1.44-34.23 5.5 10.45 10.93 20.48 16.29 30.1 5.31 9.62 11.08 18.83 17.27 27.63z"/><path d="M934.56 1203.73c8.52 1.37 19.72 3.71 33.61 7.01 13.88 3.3 29 6.66 45.36 10.1 16.35 3.43 33.13 6.46 50.31 9.07 17.18 2.61 33.2 3.92 48.04 3.92 5.22 0 10.1-.21 14.64-.62 4.54-.41 8.87-.9 12.99-1.44 7.15-1.1 14.78-4.54 22.89-10.31 8.1-5.77 15.6-12.65 22.47-20.62 6.87-7.98 12.58-16.57 17.11-25.78 4.54-9.21 6.81-17.94 6.81-26.19 0-1.38-.07-2.62-.21-3.71-.14-1.1-.35-2.34-.62-3.71-2.47-11.28-6.19-23.3-11.13-36.08a707.255 707.255 0 0 0-16.29-38.56 774.756 774.756 0 0 0-18.76-38.15c-6.6-12.51-12.93-24.13-18.97-34.85h.41c-6.33-11.55-12.65-23.16-18.97-34.85-6.33-11.68-11.96-23.09-16.91-34.23-4.95-11.13-8.94-21.86-11.96-32.17-3.03-10.31-4.68-20-4.95-29.07-5.77-1.92-10.72-2.89-14.85-2.89-2.2 0-4.12.28-5.77.82-1.65.55-3.44.82-5.36.82-1.1 0-2.2-.06-3.3-.2-1.1-.14-2.61-.34-4.54-.62l-5.36 5.36c-3.03 0-5.64.55-7.84 1.65-2.2 1.1-4.19 2.41-5.98 3.92-1.79 1.51-3.44 2.96-4.95 4.33a18.044 18.044 0 0 1-5.16 3.3v1.65l-1.65.82c-2.2-.82-3.85-1.24-4.95-1.24-2.2 0-3.71 1.38-4.54 4.12-.83 2.75-1.24 8.53-1.24 17.32 0 4.67.14 10.04.41 16.08.27 6.05.41 12.65.41 19.79 0 7.42-.14 14.99-.41 22.68-.28 7.7-.97 14.64-2.06 20.82-1.1 6.18-2.88 11.21-5.36 15.05-2.47 3.85-5.92 5.77-10.31 5.77-2.48 0-5.09-3.02-7.83-9.07h.41c-3.03-7.15-5.36-15.05-7.01-23.71-1.65-8.66-3.03-17.46-4.12-26.39-1.1-8.93-2.2-17.66-3.3-26.19-1.1-8.52-2.62-16.08-4.54-22.68-1.93-6.59-4.54-11.89-7.83-15.87-3.3-3.98-7.57-5.98-12.79-5.98-2.2 0-4.33.27-6.39.82-2.06.55-4.47 1.23-7.22 2.06v-.41c-1.65.55-4.54 1.38-8.66 2.48s-7.57 1.93-10.31 2.47v4.54l-1.65.41c-.55 1.1-.76 2-.62 2.68.14.69-.14 1.44-.82 2.26-.69.82-2.27 1.79-4.74 2.89-2.48 1.1-6.73 2.48-12.78 4.13-.55 5.78-.96 11.07-1.24 15.88-.27 4.81-.41 9.56-.41 14.23 0 11.54.82 22.62 2.48 33.2 1.65 10.59 3.99 19.87 7.01 27.83 4.39 12.1 8.45 23.17 12.16 33.2 3.71 10.04 7.9 18.56 12.58 25.57 4.67 7.01 10.31 12.45 16.91 16.29 6.6 3.85 15.12 5.77 25.57 5.77 7.42 0 15.53-1.51 24.33-4.54 8.8-3.02 17.59-6.94 26.39-11.75 8.79-4.81 17.25-10.37 25.36-16.7 8.11-6.32 15.05-12.78 20.83-19.38 5.49 9.9 11.68 21.31 18.56 34.23 6.87 12.93 13.4 26.19 19.59 39.8 6.19 13.61 11.61 27.07 16.29 40.41 4.67 13.33 7.42 25.5 8.25 36.5 0 1.09-.55 1.65-1.65 1.65-1.65 0-3.3-.41-4.95-1.24a363.223 363.223 0 0 0-34.02-6.6 948.954 948.954 0 0 0-34.43-4.33c-11.55-1.24-23.09-2.54-34.64-3.92a355.3 355.3 0 0 1-34.23-5.78l.41.41c-.28-.28-.83-.41-1.65-.41 2.75-2.2 4.95-4.81 6.6-7.83l-.41.41c2.47-4.12 6.18-7.57 11.13-10.31v-4.54c3.3-1.92 5.91-3.64 7.83-5.15 1.92-1.52 3.64-2.89 5.16-4.13 1.51-1.24 3.23-2.47 5.16-3.71 1.92-1.24 4.67-2.54 8.25-3.92 0-1.37-.35-3.09-1.03-5.15-.69-2.06-1.72-3.98-3.09-5.78-1.38-1.79-3.09-3.36-5.15-4.74a12.044 12.044 0 0 0-6.81-2.06c-1.38 0-2.06 1.1-2.06 3.3l-10.72-7.42c-8.52 4.4-17.46 7.98-26.8 10.72-9.35 2.75-18.56 7.42-27.63 14.02l.41-.41c-5.23 3.3-10.31 7.76-15.26 13.4-4.95 5.63-9.42 11.55-13.4 17.73-3.99 6.18-7.22 12.44-9.69 18.76-2.47 6.32-3.71 11.68-3.71 16.08 0 7.42 2.27 13.4 6.8 17.94 4.53 4.59 11.88 7.54 22.06 8.92zm87.22-319.6c-.97.55-1.72.97-2.27 1.24 0-2.2 1.24-3.3 3.71-3.3.27 0 .55.07.82.21.27.14.68.21 1.24.21-1.37.54-2.54 1.09-3.5 1.64zM49.22 1894.16c224.89-33.72 451.25-57.45 678.25-70.89 63.94-3.79 127.93-6.74 191.95-8.92 9.85-.33 16.87-6.6 21.19-15.5 1.5-.35 3.01-.76 4.54-1.23 3.31-1.03 4.18-4.62 3.08-7.3 2.13-.94 4.24-1.97 6.35-3.16 4.09-2.3 2.56-6.54-.5-8.53 1.68-.11 3.33-.29 4.8-.55 4.5-.79 6.52-5.03 4.05-8.82 1.87-.33 3.71-.74 5.61-.98a6.152 6.152 0 0 0 5.23-4.79c1.57-7.31-3.87-10.36-9.99-11.72-.34-2.11-.68-4.22-1.02-6.32 1.15-2.1.57-4.16-.91-5.62l-.09-.57c1.86-.51 3.72-1.03 5.58-1.54 5.75-1.59 4.13-10.09-1.49-10.4-16.93-.94-33.27.82-49.62 4.92-226.88 7.77-453.38 25.6-678.66 53.62A7674.645 7674.645 0 0 0 47.2 1812c-2.31.35-4.44.98-6.43 1.84-9.29.94-17.94 3.31-26.38 7.57-5.49 2.77-1.46 9.18 3.35 9.64.89 2.17 3.24 3.91 5.93 3.92-.16.5-.32 1-.47 1.51-4.81 2.35-9.61 4.7-14.42 7.05-5.46 2.67-1.28 10.24 3.88 9.64 1.01-.12 2.21-.26 3.47-.42 1.81.08 3.51.29 5.1.67.01.1 0 .21.01.32.02.33.06.71.09 1.06-4.14 3.84-7.94 7.94-11.55 12.45-3.63 4.53 3.95 8.13 7.42 7.6l7.92-1.2c-.32.86-.45 1.67-.28 2.4-.04.06-.09.11-.14.17-2.77 3.82 1.75 7.33 5.74 7.62 4.41 6.83 10.54 11.55 18.78 10.32zM1744.22 179.87c-7.19-1.84-14.41-3.53-21.65-5.06.75-4.16 1.07-8.32.87-12.11-.96-17.81-8.17-37.92-27.98-40.42-46.27-5.84-92.75-8.55-139.3-9.94 3.1-2.34 6.16-4.73 9.27-7.06 5.59-4.17 9.13-10.8 10.96-18.43 6.43-2.35 12.4-5.87 17.97-10.69.49-.42-9.31-5.3-10.64-5.37-.13-.04-.26-.09-.39-.13-.77-.85-3.3-2.59-5.78-3.81-.03-.32-.08-.64-.12-.96 1.15-1.7 2.39-3.34 3.5-5.07.17-.26-.74-.93-2.02-1.71.21-2.22.1-4.52-.5-6.97-.15-.63-1.89-1.79-3.92-2.87 1.62-3.97 3.24-7.94 4.86-11.9.32-.78-2.66-2.39-5.57-3.65.26-.41.55-.78.81-1.19.65-1.06-9.38-5.42-10.64-5.37-3.25.12-5.78 1.28-7.88 3.04-5.71-1.75-12.32-.63-19.59 4.81a1781.636 1781.636 0 0 0-101.38 81.67c-19.44 16.87-17.57 76.01 15.49 76.22 82.43.51 165 1.22 246.9 11.55 2.19.28 4.42-.29 6.57-1.29.92-.06 1.81-.1 2.81-.25 2.08-.32 3.42-1.45 4.19-2.83 1.83-.11 3.65-.23 5.48-.34 4.34-.27 9.14-5.7 5.56-9.26 6.34-.08 12.69-.04 19.06.23 5.91.26 10.04-9.06 3.06-10.84zM1577.88 74.66c1-.8 2.08-1.53 3.19-2.23.08.04.16.1.24.15a63.62 63.62 0 0 1-3.45 2.54c0-.15.02-.3.02-.46zM10.96 331c1.1-.48 2.07-1.02 3.07-1.55.62.95 1.4 1.82 2.25 2.59-2.49 4.5-4.98 9-7.48 13.5-1.8 3.25 5.89 9.62 8.89 7.98 2.8-1.53 5.54-3.13 8.22-4.8 1.02.37 2 .47 2.72 0 .82-.52 1.53-1.12 2.28-1.69 4.34 2 9.3 2.26 14.78-.4 69.6-33.81 144.46-57.69 216.86-84.73 14.07-5.26 19.54-26.96 18.83-40.1-.69-12.84-5.73-35.42-20.77-39.13-53.14-13.11-102.78-36.33-146.05-69.9-6.3-4.89-12.86-5.67-18.73-3.78-1.89-1.68-3.9-3.23-6.05-4.62-.46-.69-1.21-1.18-2.04-1.5-.42-.16-.85-.32-1.27-.48-1.78-.68-5.3.35-7.55 1.93-2.56-.35-5.89.65-7.41 2.72-1.35.65-2.44 1.51-3.71 2.8-.49.5-.88 1.17-1.04 1.87-2.92-.17-6.66 1.47-7.8 3.55-1.43 1.35-1.84 3.08.13 4.71.39.32.81.6 1.2.92.07.45.28.93.67 1.43.6.78 1.25 1.45 1.92 2.11-2.42.78-4.33 2.44-3.87 4.91.06.31.16.59.22.89-.62.09-1.25.24-1.86.45-2.84-1.3-12.3.51-10.14 4.83 1.78 3.57 3.92 6.52 6.27 9.22.06.52.29 1.08.75 1.68 6.51 8.56 14.38 15.43 23.34 20.61 2.22 6.89 5.91 13.04 11.49 17.37a444.115 444.115 0 0 0 54.29 36.06c-38.69 14.29-77.07 29.4-113.95 47.31-6.71 3.26-11.47 9.12-14.55 16.05-2.1 1.83-4.2 3.66-6.3 5.5-1.49 1.3.09 4.3 2.37 6.5-.78.9-1.59 1.79-2.6 2.67-.3.26-.42.62-.5 1a46.29 46.29 0 0 0-8.26 17.96c-.42 1.93 1.21 4.58 3.31 6.39.74 3.24 4.98 8.52 8.07 7.17zM991.88 1920.81c-.33.15-.68.23-1.02.37.6-1.11 1.21-2.27 1.65-3.68 1.7-5.41-1.13-9.27-5.29-11.05-1.04-4.27-2.67-8.29-4.95-11.99-.79-5.47-1.21-11.01-1.05-16.73l-.32-.23c-4.75-1.12-9.61-.8-14.23.52-3.48-2.13-7.5-3.28-12.07-3.13-227.27 7.74-454.17 25.59-679.83 53.66a7674.645 7674.645 0 0 0-190.37 26.14c-7.56 1.13-13.35 5.3-17.54 10.96-1.78.51-3.56.99-5.34 1.59-.33.01-.4.15-.22.42.37 1.12.63 2.22.83 3.31-2.23 2.36-3.63 5.23-3.67 8.76-.01 1.51.28 3.02.78 4.49-.02.12-.04.25-.06.38-11.48-.28-7.23 17.24-3.66 26.46-4.33 1.48-8.65 2.96-12.98 4.43-.33.01-.4.15-.22.42 3.92 5.56 11.53 9.74 18.31 10.44h.03c-6.1 4.16-11.84 8.91-17.2 14.35-.19.19 8.83 6.88 10.75 5.63 3.53-2.32 7.15-4.4 10.82-6.36 2.64 1.73 7.32 4.54 8.61 4.42 1.55-.15 3.06-.42 4.51-.8 2.63 1.89 7.32 5.02 8.9 4.28 11.26-5.33 22.51-10.65 33.77-15.98 213.57-31.04 428.42-53.17 643.86-65.93 63.94-3.79 127.93-6.74 191.95-8.92 6.32-.21 11.46-2.9 15.49-7.12l14.66-1.5c1.85-.19 10.77-4.66 10.02-4.85-2.76-.7-5.52-1.27-8.27-1.72h.02c1.46-.06 10.92-2.47 10.33-4.63-1.89-6.94-.97-12.96 2.88-18.96.68-1.02-8.86 1.95-9.88 2.55zM60.2 2018.83l-.15.15c-1.95.82-4.12 1.47-6.1 1.58 2.1-.11 4.23-.99 6.25-1.73zm919.24-81.03c.12.21.24.41.38.61l-.63.03c.08-.22.17-.43.25-.64z"/></svg>