<svg xmlns="http://www.w3.org/2000/svg" viewBox="0 0 2048 1665" style="enable-background:new 0 0 2048 1665" xml:space="preserve"><path d="M1848.48 999.91c92.51-67.57 152.66-176.81 152.66-300.15 0-205.18-166.33-371.51-371.51-371.51-3.53 0-7.02.17-10.53.27-51.46-143.44-188.59-246.05-349.74-246.05-78.53 0-151.31 24.43-211.31 66.01-54.28-31.05-117.1-48.88-184.11-48.88-89.98 0-172.48 32-236.77 85.23C569.72 115.8 475.64 72.9 371.51 72.9 166.33 72.9 0 239.24 0 444.41c0 132.81 69.73 249.26 174.53 314.95-6.32 27.15-9.77 55.41-9.77 84.49 0 107.09 45.37 203.53 117.86 271.33-.8 9.93-1.32 19.94-1.32 30.07 0 205.18 166.33 371.51 371.51 371.51 109.35 0 207.65-47.26 275.64-122.45 60.3 42.25 133.67 67.13 212.89 67.13 48.05 0 93.93-9.22 136.08-25.83 55.86 134.52 188.46 229.15 343.2 229.15 205.18 0 371.51-166.33 371.51-371.51.02-119.29-56.27-225.36-143.65-293.34z"/><path d="M1879.98 942.87c92.51-67.57 152.66-176.81 152.66-300.15 0-205.18-166.33-371.51-371.51-371.51-3.53 0-7.02.17-10.53.27-51.46-143.44-188.59-246.05-349.74-246.05-78.53 0-151.31 24.43-211.31 66.01-54.28-31.05-117.1-48.88-184.11-48.88-89.98 0-172.48 32-236.77 85.23C601.22 58.75 507.14 15.86 403.01 15.86 197.83 15.86 31.5 182.19 31.5 387.37c0 132.81 69.73 249.26 174.53 314.95-6.32 27.15-9.77 55.41-9.77 84.49 0 107.09 45.37 203.53 117.86 271.33-.8 9.93-1.32 19.94-1.32 30.07 0 205.18 166.33 371.51 371.51 371.51 109.35 0 207.65-47.26 275.64-122.45 60.3 42.25 133.67 67.13 212.89 67.13 48.05 0 93.93-9.22 136.08-25.83 55.86 134.52 188.46 229.15 343.2 229.15 205.18 0 371.51-166.33 371.51-371.51.02-119.3-56.27-225.37-143.65-293.34z" style="fill:#fff"/><path d="M1652.14 1623.07c-151.96 0-288.32-87.85-351.45-225.05-41.13 14.43-84.06 21.74-127.83 21.74-75.3 0-147.84-21.55-210.63-62.43-72.69 75-173.21 117.75-277.9 117.75-213.32 0-386.87-173.55-386.87-386.87 0-7.52.27-15.41.83-23.96-74.69-72.6-117.38-173.29-117.38-277.44 0-25.82 2.64-51.79 7.85-77.36C80.45 637.38 16.14 517.79 16.14 387.37 16.14 174.05 189.69.5 403.01.5c100.3 0 194.48 37.81 266.75 106.76 67.32-51.73 150.46-80.07 235.68-80.07 63.99 0 127.16 15.96 183.33 46.24 63.12-41.49 136.23-63.36 212.09-63.36 159.13 0 302.51 98.32 360.28 245.79 213.31 0 386.86 173.55 386.86 386.87 0 116.42-53.24 227.33-143.33 300.51 85.62 73.69 134.34 179.38 134.34 292.97 0 213.31-173.56 386.86-386.87 386.86zm-334.81-264.33 5.79 13.92c55.42 133.45 184.57 219.68 329.02 219.68 196.38 0 356.15-159.77 356.15-356.15 0-110.63-50.2-213.12-137.74-281.21l-16.08-12.51 16.45-12.02c91.65-66.94 146.36-174.51 146.36-287.75 0-196.38-159.77-356.15-356.15-356.15-2.33 0-4.64.08-6.95.16l-14.28.41-3.76-10.48c-50.62-141.09-185.36-235.88-335.29-235.88-72.79 0-142.84 21.88-202.57 63.27l-7.96 5.52-8.41-4.81c-53.59-30.65-114.62-46.85-176.49-46.85-82.74 0-163.35 29.02-226.97 81.7l-10.89 9.02-9.89-10.11C590.07 69.32 499.62 31.22 403.01 31.22c-196.38 0-356.15 159.77-356.15 356.15 0 123.39 62.55 236.26 167.33 301.93l9.29 5.82-2.48 10.67c-6.22 26.7-9.37 53.96-9.37 81.01 0 99.58 40.13 191.96 112.99 260.11l5.41 5.06-.59 7.39c-.85 10.61-1.27 20.05-1.27 28.84 0 196.38 159.77 356.15 356.15 356.15 100.48 0 196.79-42.79 264.25-117.39l9.09-10.06 11.11 7.79c60.08 42.1 130.64 64.35 204.07 64.35 44.85 0 88.74-8.33 130.45-24.77l14.04-5.53z"/><path d="M801.42 481.75c1.78-4-.45-4.45-1.78-.89-4.45-1.78 4-5.78 2.67-10.23-4.45-1.78-6.23 7.56-12.01 7.12-2.67-4.01 5.34-7.56 1.78-12.46-4-2.67-4.45 6.23-8.9 6.23-3.11-2.67 2.67-10.23-1.33-7.56-2.67-1.33 2.67-2.22 1.33-5.34-.89-2.67-3.56.89-4 1.78 4.89-20.91-17.35-32.03-43.15-30.25-50.26 3.56-101.86 37.81-142.34 44.93-24.91 71.61-46.71 159.24-50.26 242.42-1.33 25.36-2.22 73.4 16.01 78.29 33.36 0 76.51-72.06 97.86-103.64-2.67 11.56-4.89 18.23-11.12 25.8 9.34-4 10.23-24.02 14.68-26.69.45 0 .45 0 .45.45.45-1.78.89-3.12 1.33-3.12 0 4.45 2.67-.44 3.56 2.22-1.34 10.67 0 22.24-5.34 28.91h.45c-23.13 33.81-62.27 93.41-97.86 93.41-48.48 0-55.6-51.6-53.38-105.42 4-80.96 22.24-164.13 42.26-221.52-43.59 7.12-81.85 11.12-129.44 6.23-51.15-4.89-110.31-21.35-151.24-45.82-38.7-22.69-83.18-58.71-89.41-108.09-3.56-30.69 17.79-54.27 47.15-57.82 24.02-3.12 52.93 8.45 56.05 32.02 2.22 19.13-12.9 24.91-28.47 29.36-4.89-.45 1.33-2.67 0-5.79-4.89.45-6.23 3.56-11.12 3.12-2.22-2.67 2.67-4.45 2.67-8.45-4.01 0-8.01 3.56-12.01.89 0-4.89 2.22-7.56 3.56-11.12-1.78-.44-4 .89-7.11 0 1.33-8.9 14.23-6.23 18.23-12.9-21.35 3.12-44.04 16.46-40.48 45.37 3.56 26.24 32.92 50.7 56.04 65.83 24.02 15.57 60.5 28.03 87.18 35.14 32.03 8.01 64.95 12.46 92.97 12.01 42.7-1.33 84.07-5.78 115.65-14.68 11.57-21.35 15.12-51.15 30.25-68.95 2.67-.45 2.22 1.78 2.67 3.56 2.22-3.11 3.12-7.56 8.45-7.56 3.56-.45 1.34 4.45 1.78 6.67 2.22-3.12 5.79-7.56 9.34-6.67 3.12.89 1.34 7.12 1.78 10.23 3.12 2.67 1.78-5.34 6.23-4.45-.45 3.56 2.22 3.56 4 4.45-8.45 14.68-15.57 30.25-20.46 48.04 36.92-6.23 84.51-41.81 138.78-31.58 28.02 5.78 62.27 26.24 64.05 57.82.45 8.47-1.77 15.14-8 18.7zm-590.71-188.6c-8.01.45-18.68 10.67-20.02 19.57 5.35-7.56 11.13-15.12 20.02-19.57zm-8.89 29.8c3.11-6.67 10.67-12.9 11.57-18.68-4.45 4.9-13.35 10.68-11.57 18.68zm8 4.45c2.67-7.11 14.68-14.23 13.79-18.23-6.67 3.11-15.12 9.78-13.79 18.23zm41.37-12.9c3.56-.89 6.67-2.22 6.67-6.67-3.11 1.34-4.45 4.45-6.67 6.67zm18.24 15.57c3.56-2.67 11.12-6.23 8.45-12.01-2.67 3.56-9.34 8.01-8.45 12.01zm245.53 368.31c7.56-77.84 22.24-148.57 44.04-212.17-.45-.89 0-1.78-.89-1.78-22.68 61.82-40.03 138.33-43.15 213.95zm8.01-44.93c4-24.46 7.56-49.37 12.9-71.61.89-2.22-.89-5.78-.89-1.78-4.45 16.46-7.12 39.14-10.23 57.83-.44 4.44-4.45 16.9-1.78 15.56zm38.7-137.89c0-.89.44-2.22.89-3.11 0 .45-.45 1.33-.89 2.22-2.22 6.23-4.45 16.01-6.23 24.02-15.56 60.94-30.69 125.44-28.47 198.38 1.78-87.62 21.36-154.79 34.7-221.51zm-19.13 65.39c-3.56 16.46-8.45 40.03-11.12 56.94-.89 5.78-2.22 18.23-.89 16.46 3.56-24.47 7.12-49.37 12.9-71.61.45-2.24-.89-5.8-.89-1.79zm41.37-103.2c-27.58 75.17-49.37 160.57-47.15 261.99 2.67-96.52 23.57-182.82 48.04-261.1.89 0 .44-.89-.89-.89zm4.45-78.73c-6.23 15.56-12.9 31.13-17.35 48.48 7.12-14.23 13.34-34.25 17.35-48.48zm17.34 14.68c-3.56 8.9-7.11 17.35-10.23 26.69 6.23-5.79 9.35-19.13 10.23-26.69zm52.94 289.57c1.34 0 1.78-2.67 2.22-5.79-.89 2.23-2.22 4.45-2.22 5.79zm2.67 16.46c.89-1.78 1.78-3.11 2.67-4-.45 1.77-1.34 3.11-2.67 4zm12.45-17.35c-2.67 3.12-5.78 7.56-9.78 13.34 2.22-5.78 2.22-15.57 7.12-18.68-.9 5.78-1.34 4.45 2.66 5.34z"/><path d="M861.48 699.26c-10.23 27.14-40.92 82.74-81.4 77.4-20.91-2.67-35.59-18.24-39.59-40.48-12.9 14.68-32.03 38.25-61.38 32.92-15.12-2.67-23.58-16.01-24.91-33.81-3.56-51.6 31.58-110.31 77.4-114.76 15.57-1.33 20.46 1.34 28.47 5.34 1.78-1.33 2.67-4 5.34-4.45 2.22 1.78 2.67 5.34 2.67 9.34 2.67-2.67 3.56-7.12 4.89-11.12.89 1.33 2.22 2.22 5.34 1.78 0 4.89 1.34 8.45.89 13.79 2.22-2.67 2.67-7.12 3.56-11.12 2.67 1.33 3.56 4.89 6.67 5.78-4.89 21.8-12.9 50.71-14.68 75.17-1.78 17.35-.45 39.59 11.12 50.26 27.14 12.9 50.26-42.26 60.49-58.27 2.22.89.45 5.79.89 8.46 3.11-3.12 4-8.9 7.56-11.12.45-.89.45-1.34.89-1.78 1.78 0 2.22.44 1.78.89.89.45.89 1.78.45 3.12-.01 2.22 2.66 0 3.55 2.66zm-197.94 3.12c-5.34 11.12-8.45 33.81-1.78 46.71-1.78-12.46-.89-30.25.89-40.48.44-2.23 2.67-8.01.89-6.23zm-.89 27.58c.45 2.22-.89 11.12.89 8.9-.45-2.23.89-11.13-.89-8.9zm7.12 0c.45 2.22-.45 10.23.89 8.01 0-2.23.88-10.24-.89-8.01zm5.78 18.23c-.45-12.01-1.78-23.13-2.67-33.8-1.78 10.68-1.78 26.24 2.67 33.8zm10.23-2.67c-3.12-12.9-.89-29.35-1.34-40.48-3.11 11.13-8 31.59 1.34 40.48zm59.6-100.08c-4.89-.45 0 3.12-2.67 4.45-3.56-1.78-2.67-7.56-7.56-8.45 0-.45-.89-.89-1.78-.89-28.91 19.13-45.37 55.6-42.26 103.2 12.45-9.78 22.24-25.35 31.14-41.37 8.9-15.57 19.57-38.7 23.13-56.94zm.89 94.3c0-4.45-.45-8.01-1.78-10.67-2.22 3.11-.44 8.89 1.78 10.67zm8.01-20.01c.45 2.22-.44 10.23.89 8.01 0-1.79.89-10.24-.89-8.01zm7.56 24.91c-2.67-12.01-2.67-25.8-4.45-37.81-1.78 12.01-1.78 30.24 4.45 37.81zm9.34-66.28c-6.23 17.79-9.79 48.48 0 64.5-4-19.57-1.33-47.6 0-64.5zm83.18 22.69c-.45.44-1.34.89-2.22 1.33-.45.89-.45 2.22-.45 3.12 1.34-.9 2.23-2.68 2.67-4.45z"/><path d="M1068.32 706.83c-18.68 43.59-85.4 92.08-129.89 85.85-26.24-3.56-36.03-22.69-44.92-45.82-8.9 15.57-6.67 42.25-20.9 52.49-1.78-1.78-2.22-4.89-1.78-8.45-4.45 1.33-2.22 9.34-8.45 8.45-1.78-4.89-2.67-6.67-1.78-12.9-2.67 3.11-1.78 9.34-6.67 10.23-4.45-.89-5.78-5.78-4.45-10.23-1.78 2.22-4.45 1.78-7.12.89 2.67-117.87 24.91-227.3 61.38-321.6 9.79-24.91 22.24-49.37 37.81-70.73 16.46-22.68 45.82-57.82 85.4-45.82 18.68 5.79 30.69 28.91 24.47 56.94-4.45 20.91-17.79 44.48-28.47 64.5-10.67 20.02-21.35 39.14-33.81 58.71-29.35 45.37-56.04 89.41-98.3 114.76-.89 4.45-1.33 9.34-1.78 13.79 12.9-12.9 35.59-38.7 64.94-27.58 21.8 8.01 20.46 37.36 11.12 57.83-8.9 20.01-30.25 33.8-44.92 44.92 5.78 12.45 10.67 25.8 16.46 37.81 14.68 23.57 104.98-47.15 113.87-76.06 3.56 14.68-12.9 31.13-18.68 44.03 9.34-11.56 18.23-25.8 23.13-41.37 2.22 4.45 2.22 0 1.78-2.67 0-.45 0-.45-.44-.89 0 0 .44 0 .44.45v-1.34c.89.45 1.34 1.34 1.34 2.22 5.34 3.56.45 11.12-1.78 16.91-2.67 6.67-4.01 16.01-7.12 20.01 7.12-4.89 11.12-20.46 15.57-31.13 3.55 2.24-1.79 7.58 3.55 5.8zM914.86 455.06c1.78-.89 0-4.89 0-.89-40.48 86.3-64.05 197.94-67.17 314.04 7.12-120.1 29.81-223.74 67.17-313.15zm-49.82 174.37c-.45 12.9-4.45 21.35-4.45 30.25-.45 8.01 1.33-2.67.89-2.22 1.34-5.79 4.9-19.58 3.56-28.03zm-3.55 28.47v-.44.44zm2.66 70.72c.45 4.89-3.11 10.23-1.78 12.9.45-3.56 4.45-8.89 1.78-12.9zm12.01-90.74c0-.89-.89-1.34-1.78-1.34-4 23.13-8.45 50.71-8.45 74.73 4.45-24.01 6.23-49.81 10.23-73.39zm-5.34-35.14c0 4.89-5.78 20.01-2.22 16.46-.44-5.34 4.45-15.12 2.22-16.46zm-2.22 61.39c0-9.34 4.45-18.68 3.12-26.24-1.34 8-4.9 18.23-3.12 26.24zm3.11 88.51c.45 4.89-4 10.23-.89 14.68 0-4.89 3.56-10.67.89-14.68zm4.45-52.49c0-3.56 4-8.45 1.78-11.12-.89 2.67-4 8.01-1.78 11.12zm1.78-96.52c.45 4-3.56 8.01-.89 11.12-.44-3.56 3.56-11.57.89-11.12zm8.45 130.33c-4 13.79-10.67 30.25-8.45 44.04 1.78-14.68 12.45-29.81 8.45-44.04zm-1.78-93.41c-5.78 8.9-6.67 27.58-6.67 39.14 4.45-10.23 6.67-27.57 6.67-39.14zm8.01-83.63c1.78-6.23 5.34-11.56 3.56-17.35-.45 2.22 0 7.56-2.67 5.34.89 8.45-3.12 9.34-2.67 17.35-.89 0-.89-.45-1.78-.89-.45 2.22 1.78 2.22.89 4.45-3.12-.44-.45 6.67-3.56 7.56 0 12.01-6.23 25.35-7.56 38.7 7.56-15.57 8.9-37.36 13.79-55.16zM881.5 725.95c4.01-13.79 9.79-29.35 12.9-40.48-5.34 11.57-12.46 26.7-12.9 40.48zm6.67-51.59c.89-2.67 5.34-6.67 3.56-9.34-.89 2.66-5.34 10.22-3.56 9.34zm44.93-211.29c-17.35 43.15-34.25 92.08-43.15 140.56 7.56-9.78 8.01-23.13 11.12-34.69 9.79-36.92 22.69-73.4 32.03-105.87zm-21.35 211.29c-7.56 12.01-17.35 27.13-19.13 42.26 8.45-11.57 14.24-30.7 19.13-42.26zm110.31-295.8c-2.22 28.47-11.56 50.26-22.68 72.5-19.13 38.25-41.37 69.83-63.61 102.31-11.12 16.46-23.58 31.58-33.81 47.59 36.03-44.48 70.73-94.3 98.3-149.9 10.68-21.79 25.36-44.48 21.8-72.5zm-83.63 93.85c-15.56 36.47-24.91 78.29-35.58 114.76 4.45.89 5.34-4.89 7.11-7.56 28.47-38.25 59.16-79.62 80.96-123.66 8.45-17.35 19.13-34.25 24.02-51.6 3.11-11.12 4.89-29.35-1.78-34.69-4.89-.45-13.34 4.89-17.79 8.9-24.91 21.79-41.37 57.82-56.94 93.85zm-2.66 183.71c-12.9 12.46-24.47 31.14-28.47 49.38 14.23-11.13 28.02-27.59 28.47-49.38zm55.16-147.24c-23.58 38.7-47.6 76.07-77.84 108.54-.45 1.78.89 2.22.89 0 28.02-25.8 50.7-63.16 74.28-100.08 10.67-17.35 22.68-35.59 32.02-55.16 12.9-26.24 30.69-53.82 24.02-86.3-4 55.61-30.25 95.2-53.37 133zM932.21 683.7c1.78 1.78 4.89-4.45 6.23-8.46 2.67-6.67 4.89-16.01 3.12-22.68-2.68 10.68-3.57 23.13-9.35 31.14zm19.13-18.69c0 12.45 2.22-12.45.89-12.45-.89 5.34-.89 9.34-.89 12.45zm1.78 4.01c.89-4.45 4.89-10.67 2.22-15.57-.89 4.45-3.12 12.01-2.22 15.57zm2.22 21.79c5.34-10.67 14.68-26.24 8.9-42.25-.89 15.57-7.57 30.69-8.9 42.25zm76.95-294.46c.44-3.56 2.67-12.45.89-19.57.45 5.34-1.78 16.46-1.78 19.57-.44 8.9 0 4.45.89 0zm2.67-16.01c.45 9.79-.89 17.35-2.67 24.91 2.23-1.78 8.01-18.24 2.67-24.91zm20.91 329.16c3.11-5.34 5.78-7.56 2.67-12.9-.45 4-3.12 8.89-2.67 12.9z"/><path d="M1218.23 693.93c1.34 0 2.22-.45 2.67-.89l.89 1.34c-21.8 22.68-56.05 69.39-96.52 73.39-39.15 4-76.95-31.14-74.28-70.73 1.78-26.69 18.23-59.16 36.47-73.39 15.57-12.01 44.04-16.01 61.38-4.45 26.24 16.9 14.23 49.38-8.9 76.06-13.34 15.57-34.25 26.24-52.49 31.14 5.34 26.69 46.71 26.69 64.94 15.57 19.13-12.45 39.59-38.7 53.82-53.82.44-.45.44-.45.89-.45.45 1.33.89 2.67 2.22 3.56-.89.45-1.33.89-1.78 1.78.89-.44 1.78-.89 2.67-.89 1.33.89 2.67 1.33 4 1.33 1.35.89 2.69 1.78 4.02.45zm-162.8 4.89c3.56-25.36 17.79-45.37 26.69-62.28-12.45 16.91-27.13 36.04-26.69 62.28zm5.34-9.79c.89-4.89 5.34-15.12 4-15.57-2.22 4.89-4 10.23-4.89 16.46 0 .89 1.33.45.89-.89zm7.56 1.78c-.45-4.45 4-8.9 1.78-12.01 0 4.01-4.45 8.46-1.78 12.01zm12.9-31.13c-6.23 10.67-12.46 26.24-12.9 39.14 5.78-10.67 8.45-29.8 12.9-39.14zm-3.11 36.47c7.12-14.24 13.79-33.36 20.46-44.93-9.34 12.02-20.46 26.69-20.46 44.93zm9.34-4.45c9.78-4.45 20.46-12.9 27.58-22.24 7.12-8.9 16.01-21.35 13.79-33.8-22.25 10.23-32.92 32.02-41.37 56.04zm46.71-51.6c-3.56 19.13-18.24 32.47-25.36 44.93 10.23-12.01 25.8-24.46 25.36-44.93zm-6.24 56.94c12.46-15.12 28.03-27.13 30.25-52.04 0-.89-.89-1.33-1.78-.89-4 22.24-20.01 37.81-28.47 52.93zm12.02-36.47h.89c0-.45-.89-1.34-.89 0zm1.33 0c4-1.33 8.01-10.67 5.79-16.46-1.34 4.45-1.78 9.78-4.45 12.45-.45-5.78 4.89-10.23 2.67-14.68-.89 5.78-4.89 11.12-2.67 16.9-3.57-2.22.44.45-1.34 1.79zm65.83 26.24c-.45.45-.89.89-.89 1.34-.89 0-1.34 0-2.22-.45-1.34-1.78 2.67-1.78 4.89-1.78-.44.89-.89 1.33-1.78 1.78v-.89zm1.78-.89c1.34-.89 1.34-1.78 1.34-.45 3.11.89 0 0 7.12 3.11 1.33 1.34 1.78 2.22 1.78 2.67 0-.45.45-.45.45-.89 0 .44 0 .89.44 1.33h-.89c-2.67-1.33-6.67-3.12-8.01-4.45.44-.43-.45-.88-2.23-1.32zm12.46 7.12h-.45s-.45 0-.45-.44c-.45 0-.89 0-1.78-.45 0 .89-.45 1.33-.45 1.78-1.33 0-2.67 0-4-.45s-2.67-1.33-4-1.33c-.45-.45-.89-.45-.89-.89 3.12-2.22 8.9.89 9.79.45v.45h.89v-.45c2.67 1.33 4.45 2.22 1.34 1.33zm-1.34-5.34c0 .89-.44 1.78-.44 2.67 0-.89 0-1.34.44-2.67zM1474.45 696.6c-15.56 36.92-60.49 90.74-92.96 89.41-28.47 1.78-46.71-13.79-46.71-44.93 0-17.35 3.56-35.58 6.67-51.6 2.67-16.01 3.12-33.36 12.46-44.04.44 4-1.78 5.78 0 8.9-11.12 27.14-15.57 71.61-14.68 102.31 5.34-40.03 4.89-88.96 24.02-114.76 4 2.22.89 12.45 1.78 18.23 2.22-6.23 3.56-12.9 6.67-18.23 6.23 0 4.45 12.45 3.56 17.35-5.79 27.58-19.57 65.39-11.12 97.41 2.22-40.03 5.78-78.29 17.35-108.53 2.22 1.33-.45 6.67 4.89 4.45-8.01 32.02-20.46 74.28-12.9 112.09 15.56 22.68 63.16-36.92 79.17-69.39 3.56 10.67 3.12 2.67 0 12.46 8.01-6.23-.89-8.9 7.12-13.34 0-.45 0-.45.89-.45 6.67 1.33 3.11 5.78.89 12.01-2.67 7.56-7.56 14.68-9.34 20.46 7.56-9.78 12.01-22.69 17.79-34.25.89 3.55 1.34 4.88 4.45 4.44zm-130.33 38.7c.45-9.78 2.67-25.8.89-14.68-.45 1.33-2.67 18.23-1.78 24.91 1.79-3.12.45-6.68.89-10.23zm13.79-174.37h5.34c5.79-8.01 24.02-6.23 27.58 3.56.89-.45.89-2.22 2.67-1.78 9.34 9.78 6.23 28.91-4.45 34.69-1.78.45-3.11 0-2.67-1.78-2.67 2.22-5.34 4.45-8.45 5.78-4.01-3.56-8.01.45-11.12 0-20.46-3.55-24.46-26.68-8.9-40.47zm-5.78 163.24c0-2.22.45-4.45.45-5.78 0 .89 0 2.22-.45 4-.89 6.23-1.78 8.9-1.78 12.01-.89 24.02 1.78-4.44 1.78-10.23zm.89-145.89c-1.33 1.33-.45 4.89-.89 7.56 3.11.89 2.22-7.12.89-7.56zm1.78 178.37c-.89-35.58 6.23-67.61 9.34-95.63-.89 4-.89 8.9-2.67 12.01 0-.44-.89-1.33-.89 0 .45 3.12.45 6.67 0 8.01 0-.45-1.33 5.78-2.67 4.89.45 20.01-9.34 50.7-3.11 70.72zm35.14-169.03c1.78-3.56 5.78-14.23 0-16.46.44 5.34-2.67 12.01 0 16.46zM1462 695.71c0 .45-.45 1.34 0 3.12 1.78-1.34.89-2.23 0-3.12z"/><path d="M1747.13 481.75c1.78-4-.45-4.45-1.78-.89-4.45-1.78 4-5.78 2.67-10.23-4.45-1.78-6.23 7.56-12.01 7.12-2.67-4.01 5.34-7.56 1.78-12.46-4-2.67-4.45 6.23-8.9 6.23-3.11-2.67 2.67-10.23-1.33-7.56-2.67-1.33 2.67-2.22 1.33-5.34-.89-2.67-3.56.89-4 1.78 4.89-20.91-17.35-32.03-43.15-30.25-50.26 3.56-101.86 37.81-142.34 44.93-24.91 71.61-46.71 159.24-50.26 242.42-1.33 25.36-2.22 73.4 16.01 78.29 33.36 0 76.51-72.06 97.86-103.64-2.67 11.56-4.89 18.23-11.12 25.8 9.34-4 10.23-24.02 14.68-26.69.45 0 .45 0 .45.45.45-1.78.89-3.12 1.33-3.12 0 4.45 2.67-.44 3.56 2.22-1.34 10.67 0 22.24-5.34 28.91h.45c-23.13 33.81-62.27 93.41-97.86 93.41-48.48 0-55.6-51.6-53.38-105.42 4-80.96 22.24-164.13 42.26-221.52-43.59 7.12-81.85 11.12-129.44 6.23-51.15-4.89-110.31-21.35-151.24-45.82-38.7-22.69-83.18-58.71-89.41-108.09-3.56-30.69 17.79-54.27 47.15-57.82 24.02-3.12 52.93 8.45 56.05 32.02 2.22 19.13-12.9 24.91-28.47 29.36-4.89-.45 1.33-2.67 0-5.79-4.89.45-6.23 3.56-11.12 3.12-2.22-2.67 2.67-4.45 2.67-8.45-4.01 0-8.01 3.56-12.01.89 0-4.89 2.22-7.56 3.56-11.12-1.78-.44-4 .89-7.11 0 1.33-8.9 14.23-6.23 18.23-12.9-21.35 3.12-44.04 16.46-40.48 45.37 3.56 26.24 32.92 50.7 56.04 65.83 24.02 15.57 60.5 28.03 87.18 35.14 32.03 8.01 64.95 12.46 92.97 12.01 42.7-1.33 84.07-5.78 115.65-14.68 11.57-21.35 15.12-51.15 30.25-68.95 2.67-.45 2.22 1.78 2.67 3.56 2.22-3.11 3.12-7.56 8.45-7.56 3.56-.45 1.34 4.45 1.78 6.67 2.22-3.12 5.79-7.56 9.34-6.67 3.12.89 1.34 7.12 1.78 10.23 3.12 2.67 1.78-5.34 6.23-4.45-.45 3.56 2.22 3.56 4 4.45-8.45 14.68-15.57 30.25-20.46 48.04 36.92-6.23 84.51-41.81 138.78-31.58 28.02 5.78 62.27 26.24 64.05 57.82.45 8.47-1.78 15.14-8 18.7zm-590.71-188.6c-8.01.45-18.68 10.67-20.02 19.57 5.34-7.56 11.12-15.12 20.02-19.57zm-8.9 29.8c3.11-6.67 10.67-12.9 11.57-18.68-4.45 4.9-13.35 10.68-11.57 18.68zm8.01 4.45c2.67-7.11 14.68-14.23 13.79-18.23-6.67 3.11-15.12 9.78-13.79 18.23zm41.36-12.9c3.56-.89 6.67-2.22 6.67-6.67-3.1 1.34-4.44 4.45-6.67 6.67zm18.24 15.57c3.56-2.67 11.12-6.23 8.45-12.01-2.67 3.56-9.34 8.01-8.45 12.01zm245.54 368.31c7.56-77.84 22.24-148.57 44.04-212.17-.45-.89 0-1.78-.89-1.78-22.69 61.82-40.04 138.33-43.15 213.95zm8-44.93c4-24.46 7.56-49.37 12.9-71.61.89-2.22-.89-5.78-.89-1.78-4.45 16.46-7.12 39.14-10.23 57.83-.44 4.44-4.44 16.9-1.78 15.56zm38.71-137.89c0-.89.44-2.22.89-3.11 0 .45-.45 1.33-.89 2.22-2.22 6.23-4.45 16.01-6.23 24.02-15.56 60.94-30.69 125.44-28.47 198.38 1.78-87.62 21.35-154.79 34.7-221.51zm-19.13 65.39c-3.56 16.46-8.45 40.03-11.12 56.94-.89 5.78-2.22 18.23-.89 16.46 3.56-24.47 7.12-49.37 12.9-71.61.44-2.24-.89-5.8-.89-1.79zm41.36-103.2c-27.58 75.17-49.37 160.57-47.15 261.99 2.67-96.52 23.57-182.82 48.04-261.1.9 0 .45-.89-.89-.89zm4.45-78.73c-6.23 15.56-12.9 31.13-17.35 48.48 7.12-14.23 13.35-34.25 17.35-48.48zm17.35 14.68c-3.56 8.9-7.11 17.35-10.23 26.69 6.23-5.79 9.34-19.13 10.23-26.69zm52.93 289.57c1.34 0 1.78-2.67 2.22-5.79-.88 2.23-2.22 4.45-2.22 5.79zm2.67 16.46c.89-1.78 1.78-3.11 2.67-4-.44 1.77-1.34 3.11-2.67 4zm12.45-17.35c-2.67 3.12-5.78 7.56-9.78 13.34 2.22-5.78 2.22-15.57 7.12-18.68-.89 5.78-1.34 4.45 2.66 5.34zM969.61 1025.74c2.07 0 3.44-.69 4.13-1.38l1.38 2.07c-33.73 35.11-86.73 107.38-149.37 113.58-60.57 6.2-119.08-48.18-114.95-109.44 2.75-41.3 28.22-91.55 56.44-113.58 24.09-18.59 68.15-24.78 94.99-6.88 40.61 26.15 22.03 76.4-13.76 117.71-20.65 24.09-53 40.61-81.23 48.18 8.26 41.3 72.28 41.3 100.5 24.09 29.6-19.27 61.26-59.88 83.29-83.29.69-.69.69-.69 1.38-.69.69 2.07 1.38 4.13 3.44 5.51-1.38.69-2.06 1.38-2.75 2.75 1.38-.69 2.75-1.38 4.13-1.38 2.07 1.38 4.13 2.07 6.19 2.07 2.05 1.36 4.12 2.74 6.19.68zm-251.94 7.57c5.51-39.23 27.53-70.21 41.3-96.37-19.27 26.16-41.98 55.76-41.3 96.37zm8.26-15.14c1.38-7.57 8.26-23.4 6.19-24.09-3.44 7.57-6.19 15.83-7.57 25.47 0 1.37 2.07.68 1.38-1.38zm11.7 2.75c-.69-6.88 6.2-13.76 2.76-18.59 0 6.2-6.88 13.08-2.76 18.59zm19.96-48.18c-9.63 16.52-19.27 40.61-19.96 60.57 8.95-16.52 13.08-46.12 19.96-60.57zm-4.81 56.44c11.01-22.03 21.34-51.63 31.66-69.52-14.45 18.58-31.66 41.3-31.66 69.52zm14.45-6.89c15.14-6.88 31.66-19.96 42.68-34.42 11.01-13.76 24.78-33.04 21.34-52.31-34.42 15.83-50.94 49.57-64.02 86.73zm72.28-79.84c-5.51 29.6-28.22 50.25-39.24 69.52 15.84-18.59 39.93-37.86 39.24-69.52zm-9.64 88.1c19.28-23.4 43.36-41.99 46.81-80.54 0-1.38-1.38-2.07-2.76-1.38-6.19 34.43-30.97 58.52-44.05 81.92zm18.59-56.44h1.38c-.01-.69-1.38-2.06-1.38 0zm2.06 0c6.19-2.07 12.39-16.52 8.95-25.47-2.07 6.88-2.76 15.14-6.88 19.27-.69-8.95 7.57-15.83 4.13-22.71-1.38 8.95-7.57 17.21-4.13 26.15-5.51-3.43.68.7-2.07 2.76zm101.88 40.61c-.69.69-1.38 1.38-1.38 2.07-1.38 0-2.07 0-3.44-.69-2.07-2.76 4.13-2.76 7.57-2.76-.69 1.38-1.38 2.07-2.76 2.76v-1.38zm2.75-1.38c2.07-1.38 2.07-2.75 2.07-.69 4.82 1.38 0 0 11.01 4.82 2.07 2.07 2.75 3.44 2.75 4.13 0-.69.69-.69.69-1.38 0 .69 0 1.38.69 2.06h-1.38c-4.13-2.06-10.32-4.82-12.39-6.88.69-.68-.69-1.37-3.44-2.06zm19.27 11.02h-.69s-.69 0-.69-.69c-.69 0-1.38 0-2.75-.69 0 1.38-.69 2.07-.69 2.76-2.07 0-4.13 0-6.2-.69s-4.13-2.07-6.19-2.07c-.69-.69-1.38-.69-1.38-1.38 4.82-3.44 13.77 1.38 15.14.69v.69h1.38v-.69c4.14 2.07 6.89 3.45 2.07 2.07zm-2.06-8.26c0 1.38-.69 2.75-.69 4.13 0-1.38 0-2.06.69-4.13z"/><path d="M1271.8 1034c-15.83 41.99-63.33 128.03-125.97 119.77-32.35-4.13-55.07-28.22-61.26-62.64-19.96 22.72-49.56 59.2-94.99 50.94-23.4-4.13-36.48-24.78-38.55-52.31-5.51-79.85 48.87-170.71 119.77-177.6 24.09-2.06 31.66 2.07 44.05 8.26 2.76-2.07 4.13-6.2 8.26-6.88 3.44 2.75 4.13 8.26 4.13 14.45 4.13-4.13 5.51-11.01 7.57-17.21 1.38 2.07 3.44 3.44 8.26 2.76 0 7.57 2.07 13.08 1.38 21.34 3.44-4.13 4.13-11.01 5.51-17.21 4.13 2.06 5.51 7.57 10.32 8.95-7.57 33.73-19.96 78.47-22.71 116.33-2.76 26.85-.69 61.26 17.21 77.78 41.99 19.96 77.78-65.4 93.61-90.17 3.45 1.38.69 8.95 1.38 13.08 4.82-4.82 6.19-13.77 11.7-17.21.69-1.38.69-2.07 1.38-2.75 2.75 0 3.44.69 2.75 1.38 1.38.69 1.38 2.76.69 4.82 0 3.43 4.13-.02 5.51 4.12zm-306.31 4.82c-8.26 17.21-13.08 52.31-2.76 72.27-2.75-19.27-1.38-46.81 1.38-62.64.69-3.44 4.13-12.39 1.38-9.63zm-1.38 42.67c.69 3.44-1.38 17.21 1.38 13.77-.69-3.44 1.37-17.21-1.38-13.77zm11.01 0c.69 3.44-.69 15.83 1.38 12.39 0-3.44 1.38-15.83-1.38-12.39zm8.95 28.22c-.69-18.59-2.75-35.8-4.13-52.32-2.75 16.53-2.75 40.62 4.13 52.32zm15.83-4.13c-4.82-19.96-1.38-45.43-2.07-62.64-4.81 17.21-12.38 48.88 2.07 62.64zm92.24-154.87c-7.57-.69 0 4.82-4.13 6.88-5.51-2.76-4.13-11.7-11.7-13.08 0-.69-1.38-1.38-2.75-1.38-44.74 29.6-70.21 86.04-65.4 159.7 19.28-15.14 34.42-39.24 48.18-64.02 13.78-24.09 30.3-59.88 35.8-88.1zm1.38 145.93c0-6.88-.69-12.39-2.76-16.52-3.44 4.81-.68 13.76 2.76 16.52zm12.39-30.98c.69 3.44-.69 15.83 1.38 12.39-.01-2.75 1.37-15.83-1.38-12.39zm11.7 38.55c-4.13-18.59-4.13-39.92-6.89-58.51-2.75 18.59-2.75 46.8 6.89 58.51zm14.46-102.56c-9.64 27.53-15.14 75.03 0 99.81-6.2-30.29-2.07-73.66 0-99.81zm128.72 35.1c-.69.69-2.07 1.38-3.44 2.07-.69 1.38-.69 3.44-.69 4.82 2.06-1.38 3.44-4.14 4.13-6.89z"/><path d="M1430.81 948.64c-5.51-12.39-.69-38.55-11.7-44.05-1.38 12.39 13.76 44.74 0 53.69-1.38-8.95-6.89-13.08-9.64-21.34-3.44 6.2 4.82 20.65-2.76 24.78-17.21-2.07-12.39-33.04-19.96-46.81-5.51 9.64 11.7 35.11-.69 43.36-4.82-14.45 0-39.92-13.77-46.81-17.9 16.52-19.96 37.17-19.27 59.2 2.75 49.56 29.59 53 40.61 83.29 9.64 27.53 17.21 66.08 4.82 88.11-11.7 19.96-36.48 28.22-61.26 28.91-42.68 1.38-94.3-26.85-104.63-67.46-9.64-35.79-1.38-73.65 19.96-83.98 18.59-10.32 27.53 0 42.68-1.38.69 4.13.69 8.95 1.38 13.08 5.51 4.13-1.38 1.38 2.07 5.51.69-1.38.69-1.38.69 0 .69 6.19 2.75 6.19-2.76 6.88-11.01 13.76-17.21 38.55-11.01 61.95 8.26 33.04 64.71 48.87 64.02.69 0-71.59-30.97-37.17-46.81-121.15-8.95-15.14-4.13-57.82 17.21-80.54 19.96-22.03 68.14-39.93 99.81-15.83 12.38 8.96 28.9 43.38 11.01 59.9zm-185.16 90.18c-6.88 5.51-13.76 29.59-8.95 45.43.69-15.84 6.88-34.42 8.95-45.43zm-2.07 19.27c-2.75 5.51-.69 9.64-1.38 12.39 0 5.5 4.14-13.77 1.38-12.39zm17.9-8.95c-4.13 12.39-7.57 25.47-4.82 42.68 4.13-10.33 5.51-30.98 4.82-42.68zm17.21.69c-8.95 7.57-12.39 26.84-5.51 42.67-.69-15.83 6.2-31.66 5.51-42.67zm49.56-17.9c-3.44-7.57-6.88-13.76-8.95-19.96 3.44 3.44 4.82 4.82-.69-14.45-1.38-4.82-1.38 3.44-2.07 8.95-6.19-15.14-8.26-26.84-9.63-50.94-4.82 35.1 3.44 53 21.34 76.4zm-13.77-23.4c.69 0 .69.69 1.38.69 0 1.37-.69 1.37-1.38-.69zm1.38.69c0-.69.69-1.38.69-2.76.69 1.38 1.38 3.44 2.76 5.51-1.39-.69-2.08-2.07-3.45-2.75zm15.83-8.26c-2.07 0-3.44 4.82-4.13 6.88 1.38 0 2.75-4.82 4.13-6.88zm1.37.69c1.38 3.44 3.45 6.88 5.51 10.32-2.06-9.64-5.51-13.76-8.26-17.9l2.07 5.51s.68.69.68 2.07zm10.33-34.42c-.69-4.13 3.44-11.7-2.07-13.76-6.88 39.24 7.57 53.69 26.84 77.78-8.94-17.22-23.39-30.29-24.77-64.02zm9.63 120.46c4.82 16.52-.69 31.66.69 41.99 6.89-8.95 4.82-35.8-.69-41.99zm6.89-40.62c-8.26-11.01-1.38.69-1.38 0 2.06 6.88 8.26 11.01 11.7 26.84 1.38 5.51 1.38 24.09 4.82 18.59 2.75 9.64-1.38 20.65 2.06 26.16 6.89-26.84-6.19-57.13-17.2-71.59zm12.39 53.7c-.69 10.32 0 14.45.69 19.96.69 4.13 2.75-11.71-.69-19.96zm.69-61.27c15.14 26.85 21.34 70.21 11.7 99.81 19.96-20.65 6.2-79.16-11.7-99.81zm35.79-109.44c-2.75-6.88-3.44-16.52-8.26-20.65 3.45 6.19 2.07 17.89 8.26 20.65zm-3.44-18.59c.69 4.82 1.38 9.64 4.13 12.39-.69-5.51 2.07-11.01-4.13-12.39zM1774.29 1030.55c-39.92 41.99-75.03 68.15-114.27 112.2 6.89 79.85 13.08 218.2-42.67 271.21-37.17 35.11-108.07 17.21-121.15-26.84-1.38-8.26-2.07-17.21-2.76-25.47-5.51-99.81 58.51-176.22 109.44-230.6.69-16.52-4.13-33.04-6.19-54.38-17.9 28.22-44.05 76.4-102.56 64.71-8.26-5.51-14.45-12.39-22.03-17.21-13.77-81.23.69-150.06 21.34-209.26 5.51 33.73-14.45 63.33-17.9 97.06-3.44 30.97-2.76 59.2-1.38 95.68.69-52.32 4.82-101.19 17.21-144.55 3.44-15.83 4.13-33.73 8.26-45.43 0-.69 2.07 2.75 2.75 2.06 2.76-2.06 0-13.76 6.2-11.01 6.88 1.38 2.75 15.14 5.51 20.65 2.75-6.88 4.82-15.14 6.88-23.4 2.07 1.38 3.44 3.44 7.57 1.38 5.51 36.48-11.01 64.71-17.21 97.06-4.82 28.91-4.13 61.26-1.38 99.12 5.51-66.77 6.88-136.29 29.6-189.29-1.38 6.2 4.82 4.82 6.2 6.89-13.08 52.31-25.47 105.31-25.47 167.95 39.24-37.86 57.13-91.55 70.9-148.68 5.51-2.07 2.75 4.82 3.44 8.26 6.2-4.82 4.82-14.46 11.01-17.21 5.51 0 8.95 11.7 7.57 15.14 4.13.69 2.75-13.77 4.82-17.9 15.83.69 9.64 26.84 11.01 39.92 5.51-8.95 2.07-23.41 5.51-33.73 4.13 2.07 6.2 6.88 10.33 8.95-4.13 39.93 2.75 99.81 8.26 148 27.53-19.96 67.46-50.94 94.3-75.03h1.38v4.82c8.95-2.76 6.2-11.7 10.32-9.64 1.38 8.26-.69 13.77 0 20.65 4.82-1.38 5.51-13.77 9.64-11.7-1.36 7.56 5.52 4.12 5.52 9.62zm-292.54-12.38c1.38 6.88-2.06 15.83-2.06 25.47-.69 8.26 0 27.53.69 23.4-.01-15.83 4.12-40.62 1.37-48.87zm10.32 4.13c.69 18.58-4.82 39.92 0 57.82-2.06-19.97 4.13-40.62 0-57.82zm8.95-35.11c-4.82 35.79-11.01 83.29-4.13 120.46-.69-39.24 4.82-89.48 4.13-120.46zm52.31 216.83c-24.09 35.79-48.18 74.34-52.31 125.28-2.07 22.03 3.44-2.75 4.82-8.95 8.95-40.62 24.09-76.41 47.49-116.33zm-37.85 89.48c-1.38 5.51-6.88 13.76-3.44 18.59-.7-5.51 6.19-19.28 3.44-18.59zm5.5 23.4c.69 1.38 2.07.69 1.38-1.38 1.38-4.13 2.07-8.26 2.76-12.39 5.5-19.96-2.07.7-4.14 13.77zm1.38 41.31c1.38-35.8 14.45-70.21 19.96-98.44-8.95 29.6-26.15 60.58-19.96 98.44zm13.77 1.37c4.82-53.69 27.53-99.81 44.74-138.36-23.41 37.87-48.87 81.92-44.74 138.36zm39.92 20.65c32.35-41.3 33.73-110.13 33.04-177.6.69 0 1.38-1.38 0-1.38-33.73 53-74.34 113.58-57.82 196.87 10.32-2.75 19.27-10.32 24.78-17.89zm6.2 4.82c33.73-46.12 40.61-120.46 33.73-194.11 2.06 74.34-6.2 147.3-33.73 194.11zm28.22-262.95c0-16.52-2.07-47.5-8.26-57.13-.69 17.9 4.12 44.74 8.26 57.13zm-3.45-63.32c3.44 17.21 4.13 46.12 8.26 55.75-2.75-16.52-3.44-46.12-8.26-55.75zm7.58 264.32c.69-13.08 5.51-22.03 4.82-35.8 3.45-6.88 1.38-18.59 4.13-26.16 0-2.75-2.75-10.32-2.07-3.44-1.38 19.28-4.82 37.17-6.19 55.76-2.07 2.75-4.13 16.52-.69 9.64zm35.79-170.71c2.75 94.3 0 184.47-37.17 247.8 44.74-56.44 48.87-150.74 37.17-247.8zm-35.1-110.13c3.44 20.65 6.88 41.99 8.95 64.7 0-20.65-3.44-49.56-8.26-69.52-.69 1.38.68 4.13-.69 4.82zm1.37 315.95c23.4-32.35 30.28-130.79 19.27-191.36 2.76 69.52.69 148.68-19.27 191.36zm13.08-253.31c-.69-22.72-4.82-55.76-9.64-77.78-2.06 19.95 2.75 58.5 9.64 77.78zm-8.26 228.53c8.95-22.03 15.14-70.21 11.01-97.06 1.38 35.11-4.13 66.08-11.01 97.06zm18.58-240.24c7.57-13.08 0-30.97-2.07-52.32-2.07-14.45-.69-35.79-5.51-46.81-6.18 28.23 4.83 64.03 7.58 99.13zm-5.5 95.68c-1.38-3.44-.69-16.52-2.75-13.08 0 3.45.68 16.53 2.75 13.08zm112.89-175.53c-1.38-.69-2.07-.69-1.38-.69.69.01.69.69 1.38.69zm1.37 3.45c-.69-1.38-.69-2.76-1.38-3.45 2.75 2.07 8.95 6.89 2.07 7.57-.69-2.74 2.76-4.81-.69-4.12z"/></svg>