<svg version="1.1" id="Ebene_1" xmlns="http://www.w3.org/2000/svg" x="0" y="0" viewBox="0 0 1075 2048" style="enable-background:new 0 0 1075 2048" xml:space="preserve"><style>.st0{fill:#ff0091}.st1{fill:#181716}</style><path class="st0" d="M579.01 1003.85c77.06-134.72 184.9-224.52 235.02-371.41a3056.923 3056.923 0 0 1 170.12-402.02c27.04-52.99-48.3-75.45-125.76-78.03C359.5 135.75 451.01 56.36 165.42 35.41c-49.84-3.66-105.68-6-143.24 26.97-50.52 44.35 6.37 96.47 14.69 163.18 18.48 148.03 28.11 584.96 46.1 641.25 50.74 158.73 139.98 610.96 165.89 614.73 28.53 4.15 246.17-330.86 330.15-477.69z"/><path class="st1" d="M297.96 1112.37c-5.1-10.37-16.12-17.02-27.54-18.82-11.42-1.8-23.15.73-33.88 5.03-6.48 2.59-13.24 6.42-15.55 13.01-2.99 8.55 2.73 17.43 7.86 24.9 24.05 35.01 41.35 76.77 37.62 119.09 3.09-4.93 6.59-9.6 10.44-13.96 7.61-8.6 16.54-15.9 25.43-23.17 15.07-12.31 30.13-24.62 45.2-36.93 9.85-8.05 19.85-16.26 26.85-26.88 7-10.62 10.66-24.2 6.59-36.24-3.69-10.93-13.48-19.24-24.55-22.47s-23.19-1.72-33.81 2.79c-4.77 2.03-9.37 4.72-12.8 8.61-11 12.49-7.68 34.2-20.66 44.61M157.59 490.13c.42-6.38 1.7-14.45 7.23-24.23 5.52-9.78 12.33-17.85 19.55-26.35 12.75-14.45 24.23-25.08 39.1-36.98 2.98-2.55 6.38-5.52 7.65-7.22 1.7-2.55 1.27-4.68 2.13-6.8.42-2.12 2.12-4.25 2.55-6.38l4.68-16.15c.43-1.7 2.12-3.82 2.55-5.52 7.23-21.25 12.75-42.08 21.25-64.18-3.4 1.7-5.95 5.1-8.5 8.08-14.88 13.6-28.48 30.18-44.63 42.5-8.5 5.52-16.58 12.33-26.35 15.3-2.55.85-5.1 1.7-6.8 1.7-3.4 0-6.38-1.7-7.65-2.98-6.37-5.52-6.37-17-2.55-29.33 4.68-13.6 14.03-29.33 21.68-42.5 2.12-2.98 3.82-6.38 5.95-10.2 2.12-2.98 4.68-5.95 7.23-9.35 4.68-6.38 8.93-12.75 14.45-16.15 3.83-2.13 17.43-5.95 16.15.42-.43 2.13-5.1 7.65-6.8 10.63-7.65 10.2-14.45 21.25-20.83 32.73-4.68 7.23-8.93 15.3-12.75 23.8-4.25 8.5-9.35 17-11.9 24.23-1.7 5.1-4.25 14.45 0 15.3 4.25.85 13.18-4.67 17.85-7.22 5.95-3.83 10.2-8.08 16.15-11.9 4.25-4.67 8.93-8.07 13.18-11.9l38.68-38.25c4.68-9.78 8.5-19.55 14.45-27.63 3.82-5.1 12.75-13.6 18.28-11.9 7.65 2.12-1.7 17.43-7.23 28.05-8.93 17.43-13.18 33.15-18.28 48.45-1.27 3.83-2.13 7.22-3.4 10.62-3.4 11.48-7.65 22.53-10.2 33.15 17.43-12.33 31.88-27.63 47.6-43.78 13.6-13.18 26.35-26.78 40.38-40.81.85-1.27 4.25-5.95 5.53-5.52 2.12 0-2.55 5.1-3.83 5.95-5.95 6.8-12.33 12.75-17.85 18.7-8.5 8.93-16.58 16.57-24.23 24.65-11.48 11.9-23.8 23.8-36.98 34.85-2.13 1.28-4.25 3.83-6.38 5.1-1.7 1.27-5.53 3.4-6.8 5.1-.85 1.7-.85 4.67-2.12 7.23-.85 2.55-2.13 5.52-3.4 8.07-1.27 3.83-2.13 7.65-3.82 11.9-2.13 3.83-4.25 8.5-6.38 13.18-7.65 16.15-14.88 31.03-23.8 43.78-11.9 16.58-27.63 33.58-42.93 39.53-4.68 2.12-11.05 2.98-15.3 1.28-2.56-2.55-2.98-6.37-2.56-11.05zm17 5.11c11.9-7.23 22.53-22.1 30.6-36.55 8.08-14.45 16.15-34 19.98-46.76 1.27-3.83 4.25-7.65 3.82-10.62-.42 0-.42-.43-.42-.43s0-.43-.43 0c0 0-.43 0-.43.43-10.63 8.07-23.38 20.4-35.28 33.15-13.6 14.88-29.33 35.28-31.03 51.85-.43 3.4-.85 11.05 3.4 12.33 2.99.42 6.82-1.28 9.79-3.4z"/><path class="st1" d="M165.5 503.77c-2.11 0-4.16-.31-5.97-1.03l-.56-.37c-3.37-3.37-3.39-8.37-3.03-12.36.42-6.22 1.64-14.66 7.44-24.92 5.73-10.13 12.85-18.51 19.73-26.61 12.24-13.86 23.63-24.63 39.33-37.2 1.94-1.66 6.06-5.19 7.36-6.92.8-1.2.99-2.32 1.21-3.62.16-.9.31-1.83.7-2.8.17-.99.76-2.17 1.33-3.32.49-.99.96-1.93 1.13-2.77l4.71-16.29c.25-1 .84-2.07 1.42-3.1.47-.85.96-1.72 1.12-2.36 2.76-8.14 5.29-16.25 7.74-24.09 3.51-11.25 7.12-22.83 11.46-34.67-.87.93-1.71 1.93-2.54 2.92l-1.03 1.22c-5.83 5.34-11.45 11.11-16.89 16.68-8.83 9.05-17.96 18.4-28 26.06-2.12 1.38-4.11 2.77-6.12 4.15-6.42 4.46-13.07 9.08-20.76 11.42-2.71.9-5.32 1.77-7.28 1.77-3.71 0-7.11-1.74-8.83-3.46-6.27-5.43-7.38-16.75-2.96-31 4.48-13.02 12.99-27.64 20.5-40.55l1.34-2.3c1.66-2.34 2.98-4.77 4.51-7.58l1.42-2.59c1.3-1.84 2.63-3.52 4.02-5.27 1.09-1.37 2.2-2.78 3.32-4.28l1.5-2.05c4.22-5.82 8.21-11.31 13.41-14.51 2.82-1.57 13.18-5.12 17.16-2.22.78.56 2 1.89 1.5 4.38-.31 1.55-1.79 3.68-4.19 7.01-1.09 1.52-2.17 3-2.8 4.11-6.92 9.25-13.69 19.89-20.82 32.71-4.46 6.89-8.71 14.83-12.69 23.67-1.36 2.73-2.77 5.39-4.17 8.02-3.06 5.78-5.96 11.23-7.68 16.09-3.11 9.31-2.17 12.07-1.81 12.69.17.29.35.38.57.43 3.06.64 10.29-3.44 14.6-5.86l2.13-1.18c2.8-1.81 5.36-3.84 7.84-5.8 2.49-1.97 5.06-4.01 8.02-5.93 2.9-3.17 5.98-5.75 8.95-8.25 1.42-1.2 2.83-2.38 4.2-3.61l38.41-37.99c1.01-2.13 1.99-4.25 2.95-6.35 3.52-7.67 6.84-14.91 11.54-21.29 2.96-3.95 13.02-14.7 20.11-12.51 1.66.46 2.9 1.5 3.54 3 2.16 5.04-2.86 14.42-7.71 23.5-.72 1.35-1.42 2.66-2.07 3.9-7.14 13.94-11.28 26.82-15.27 39.29-.96 3-1.92 5.97-2.9 8.92-.51 1.54-.95 3.01-1.38 4.44-.64 2.14-1.26 4.19-2.03 6.24-1.29 4.36-2.74 8.78-4.18 13.13-1.75 5.3-3.42 10.38-4.8 15.36 14.46-10.84 27.04-23.78 40.3-37.42l3.34-3.43c8.13-7.88 15.79-15.73 23.89-24.04 5.39-5.52 10.84-11.12 16.5-16.78 4.09-6.16 6.13-6.2 6.99-6 1.05.11 1.63.8 1.82 1.45.72 2.37-3.56 6.29-4.73 7.29-3.58 4.08-7.29 7.85-10.88 11.49-2.4 2.44-4.75 4.82-6.96 7.2-4.27 4.48-8.41 8.62-12.44 12.66-4.04 4.04-7.97 7.97-11.8 12.01-13.1 13.58-25.24 25.02-37.12 34.98-1.14.71-2.17 1.63-3.16 2.52-1.1.99-2.24 2.01-3.43 2.73-.4.31-1.13.79-1.94 1.32-1.55 1.01-3.68 2.4-4.39 3.36-.13.32-.33 1.26-.53 2.25-.3 1.46-.64 3.12-1.44 4.72-.74 2.28-2.02 5.3-3.4 8.08-.37 1.17-.78 2.56-1.19 3.96-.72 2.48-1.48 5.05-2.58 7.81-2.16 3.92-4.28 8.58-6.34 13.09-7.94 16.78-15.17 31.55-24.02 44.2-8.62 12-25.73 33.14-43.69 40.12-2.92 1.35-6.81 2.33-10.55 2.33zm-4.42-4c3.55 1.25 9.1.71 13.67-1.37 17.25-6.71 33.88-27.3 42.27-38.98 8.69-12.42 15.85-27.06 23.65-43.52 2.14-4.7 4.29-9.43 6.42-13.27.95-2.43 1.68-4.91 2.39-7.32.42-1.45.84-2.87 1.31-4.3 1.42-2.86 2.62-5.73 3.41-8.08.69-1.42.97-2.8 1.25-4.12.25-1.22.49-2.37.96-3.32.51-.7 1.2-1.36 1.97-1.99l.46-1.9c1.58-6.56 3.75-13.14 6.04-20.1 1.42-4.32 2.87-8.7 4.19-13.14.78-2.09 1.38-4.08 2-6.14.44-1.46.89-2.96 1.42-4.54.99-2.94 1.93-5.9 2.89-8.89 4.04-12.59 8.22-25.61 15.49-39.8.66-1.26 1.36-2.59 2.09-3.94 3.85-7.2 9.12-17.06 7.59-20.63-.16-.38-.47-.86-1.42-1.12-4.22-1.3-12.43 5.86-16.5 11.3-4.49 6.09-7.74 13.18-11.19 20.69-1.02 2.2-2.04 4.43-3.1 6.66l-.33.46-.69.69-1.47 3.82c-5.27 13.71-9.46 27.12-13.5 40.09-2.46 7.86-4.99 15.99-7.73 24.03-.23.93-.82 2.01-1.4 3.04-.47.84-.95 1.72-1.11 2.35l-4.69 16.21c-.22 1.14-.81 2.32-1.38 3.47-.49.99-.96 1.92-1.13 2.77-.35.94-.46 1.63-.6 2.42-.25 1.45-.53 3.11-1.78 4.98-.65.86-1.69 1.94-2.96 3.13.08.07.16.15.23.23h.65l.2 1.43c.34 2.4-.87 4.87-2.16 7.47-.64 1.29-1.3 2.63-1.73 3.92-3.55 11.84-11.6 31.82-20.1 47.04-7.02 12.57-18.13 29.2-31.14 37.13-3.82 2.73-7.9 4.08-10.93 3.65-5.56-1.64-5.39-9.58-4.81-14.18.78-7.66 4.49-16.11 9.55-24.42-1.05 1.64-2.08 3.32-3.06 5.05-5.47 9.68-6.63 17.65-7.02 23.52v.04c-.43 4.64.14 7.59 1.83 9.48zm65.79-95.71c-11.72 9.22-24.43 22.11-33.21 31.53-13.03 14.25-28.93 34.67-30.59 50.89-.55 4.42-.3 9.81 2.22 10.56 1.92.24 5.22-.93 8.33-3.16l.1-.07c12.42-7.54 23.18-23.71 30.02-35.94 8.38-15.01 16.32-34.71 19.83-46.42.52-1.55 1.23-2.99 1.92-4.39.51-1.01 1.02-2.05 1.38-3zm3.37-3.19zm-1.18-148.93c-3.27 0-8.56 1.46-11.16 2.9-4.57 2.82-8.38 8.05-12.4 13.59l-1.51 2.08c-1.15 1.53-2.29 2.97-3.39 4.36-1.35 1.71-2.65 3.34-3.82 4.97l-1.31 2.41c-1.52 2.79-2.95 5.43-4.64 7.8l-1.25 2.17c-7.43 12.77-15.85 27.25-20.21 39.91-3.99 12.87-3.24 22.92 2.07 27.52 1.09 1.09 3.64 2.57 6.56 2.57.53 0 1.21-.12 1.97-.3-.89-.33-1.62-.96-2.13-1.83-.56-.97-2.29-3.94 1.55-15.43 1.81-5.11 4.76-10.68 7.89-16.56 1.38-2.6 2.78-5.24 4.1-7.88 4.02-8.94 8.35-17.02 12.84-23.96 7.14-12.86 13.99-23.63 20.9-32.82.59-1.05 1.7-2.6 2.87-4.23 1.37-1.9 3.44-4.77 3.62-5.73.16-.79-.07-.95-.2-1.05-.47-.34-1.31-.49-2.35-.49z"/><path class="st1" d="M296.16 356.25c2.13-5.95 5.1-12.33 8.08-18.28 2.98-5.95 6.38-11.05 9.78-16.58 16.58-27.2 36.98-51 56.53-66.31 5.95-3.4 11.9-6.8 19.13-5.95 5.53-6.8 10.2-15.3 16.58-20.83 8.08-11.05 18.7-18.7 31.03-22.53 7.23 0 14.45 0 19.13 2.55 17 9.78 9.35 39.53-5.95 70.56-2.98 5.52-5.1 10.2-8.5 15.3-8.5 12.75-19.13 27.63-28.48 38.25 28.9-5.1 68.86-24.23 89.68-43.78 2.55-2.55 5.53-7.23 9.35-6.8.43 2.98-3.82 5.95-6.38 8.5-21.68 21.68-65.46 42.08-96.48 46.76-11.9 13.6-26.35 26.35-40.38 38.25-8.93 7.65-16.15 13.6-26.78 18.7-8.93 4.25-18.7 8.5-29.33 5.95-17.44-4.23-25.09-22.51-17.01-43.76zm109.66-19.13c-14.45-.43-22.53-4.68-32.3-17-8.08-11.48-8.08-26.35 4.25-51 .43-.43 0-.85 0-.85-.42.42-.85.42-.85.85-14.45 17-30.6 38.68-44.2 61.63-1.27 2.55-3.4 5.1-4.68 7.23-13.6 25.08-23.8 48.45-11.05 56.53 2.98 1.7 8.07 2.98 13.6.85 9.77-2.98 44.62-26.79 75.23-58.24zm51.43-122.41c-2.98-3.4-9.78-6.8-17.85-5.52-11.05 2.12-18.7 11.05-25.93 19.55-13.18 15.73-28.48 44.63-33.15 63.76-4.25 17 .42 28.48 10.63 36.13 4.67 3.4 8.5 5.52 17.85 4.67 28.47-28.48 66.3-98.61 48.45-118.59z"/><path class="st1" d="M319.77 402.47c-2.29 0-4.61-.26-6.99-.82-8.05-1.96-14.25-6.72-17.95-13.75-4.67-8.88-4.74-20.32-.23-32.22 1.84-5.15 4.43-11.01 8.15-18.44 2.37-4.73 4.93-8.83 7.65-13.17l2.2-3.54c16.43-26.96 37.18-51.29 56.92-66.74 6.04-3.47 12.06-6.94 19.42-6.38 1.71-2.16 3.37-4.51 4.98-6.79 3.42-4.84 6.95-9.83 11.24-13.56 7.94-10.93 18.96-18.93 31.62-22.86l.49-.07c7.31 0 14.88 0 19.92 2.75 15.62 8.98 13.79 34.13-5.25 72.75-.85 1.58-1.61 3.05-2.35 4.48-1.93 3.73-3.76 7.25-6.26 11.01-5.49 8.23-15.65 23-25.48 34.77 28.44-6.23 65.19-24.62 84.16-42.42.49-.49 1.02-1.1 1.59-1.74 2.32-2.64 5.2-5.94 9.08-5.5l1.28.14.18 1.28c.46 3.23-2.51 5.93-5.14 8.32-.6.55-1.18 1.08-1.7 1.59-21 21-64.29 42.05-96.81 47.13-11.91 13.53-26.33 26.24-40.15 37.96-9.18 7.87-16.5 13.83-27.13 18.93-7.68 3.66-15.3 6.89-23.44 6.89zm67.64-151.8c-5.78 0-10.78 2.85-16.03 5.86-19.26 15.09-39.72 39.1-55.95 65.73l-2.22 3.57c-2.67 4.27-5.19 8.3-7.49 12.89-3.66 7.32-6.2 13.07-8 18.09l-.01.03c-4.18 11.01-4.17 21.49.05 29.51 3.24 6.16 8.7 10.33 15.79 12.06 9.81 2.37 18.95-1.42 28.22-5.84 10.29-4.94 17.14-10.52 26.41-18.46 9.21-7.81 18.67-16.05 27.46-24.67-26.76 25.16-55.25 44.66-64.58 47.5-7.27 2.8-13.25-.06-14.91-1-14.75-9.34-2.36-35.23 10.41-58.77.56-.93 1.22-1.88 1.91-2.86 1-1.42 2.03-2.89 2.74-4.32 12.18-20.57 27.84-42.42 44.17-61.67.26-.66.82-1 1.04-1.14l1.17-1.16 1.33 1.05c.16.16.68.74.68 1.61 0 .48-.16.94-.45 1.33-11.15 22.36-12.47 37.52-4.29 49.13 9.45 11.91 16.99 15.89 30.99 16.3l3.05.09.48-.07c31.27-4.71 72.93-24.66 94.12-44.89-21.01 19.27-60.15 38.26-89.76 43.49l-4.81.87c-10 .89-14.18-1.49-18.98-4.99-11.59-8.7-15.38-21.43-11.26-37.88 4.65-19.03 19.68-47.94 33.49-64.42 7.12-8.38 15.19-17.87 26.89-20.12.23-.04.46-.07.69-.1h-2.24c-11.88 3.74-22.22 11.29-29.94 21.85-4.24 3.73-7.66 8.56-10.96 13.23-1.82 2.57-3.7 5.23-5.67 7.66l-.57.71-.91-.1c-.7-.06-1.38-.1-2.06-.1zm-15.35 26.88c-14.07 17.3-27.35 36.21-37.92 54.05-.77 1.55-1.88 3.12-2.94 4.64-.64.91-1.25 1.78-1.74 2.6-12.9 23.79-23.27 46.87-11.59 54.27 1.27.73 6.09 3.03 12.11.7 8.69-2.64 41.37-24.32 72.07-55.22-12.74-1.06-20.6-5.78-29.84-17.43-7.82-11.13-7.93-24.79-.15-43.61zm70.8-66.97c-1.04 0-2.11.08-3.2.25-10.5 2.02-17.83 10.65-24.92 18.99-13.3 15.88-28.33 44.76-32.81 63.08-3.81 15.24-.54 26.49 10.01 34.4 4.35 3.16 7.67 5.07 16.1 4.4 29.45-29.77 64.1-97.82 47.96-115.87v-.03c-2.38-2.71-7.28-5.22-13.14-5.22zm15.63 3.02c12.58 14.1-.03 49.27-17.98 79.74.02-.03.03-.05.05-.07 2.4-3.6 4.18-7.04 6.07-10.7.75-1.44 1.51-2.92 2.35-4.47 10.33-20.95 24.96-57.76 6.58-68.33-2.01-1.1-4.67-1.68-7.64-1.98 4.63 1.01 8.37 3.3 10.57 5.81zm51.57 70.53c-1.38.84-2.73 2.37-3.97 3.78-.4.46-.79.9-1.17 1.31l.03-.03c.55-.55 1.18-1.12 1.82-1.7 1.15-1.05 2.47-2.24 3.29-3.36z"/><path class="st1" d="M542.26 386.43c-3.4-8.93-4.25-18.7-1.7-32.73.43-2.12.43-4.25.85-6.38 1.7-8.5 6.8-16.15 6.8-22.95-4.25 3.4-6.8 8.93-10.63 12.75-10.2 14.03-21.68 26.35-34.85 36.13-4.68 1.7-8.07 4.25-14.45 3.83-4.68-.43-11.48-4.68-13.18-7.65-2.98-5.52-2.98-14.45-1.28-23.38 1.28-5.95 4.25-14.03 7.23-20.83 4.67-8.93 10.63-20.83 16.58-31.45.85-2.12.85-4.25 2.55-6.38.43-1.27 2.13-2.98 2.55-4.25 1.27-1.7 1.7-3.4 2.55-5.1.42-1.27 1.7-2.12 2.98-3.82.85-1.28.85-2.55 1.7-4.25 3.4-5.95 9.78-14.03 14.03-19.55 2.55-3.4 5.53-6.38 9.35-8.5 7.65-1.7 13.18-2.12 11.9 4.25-.43 2.55-3.4 7.65-5.95 12.75-2.55 6.8-5.52 12.75-8.93 18.7-.85 2.55-2.55 4.67-3.83 7.65l-24.65 48.88c-4.68 10.62-13.18 25.5-12.33 34 .43 3.4 2.55 6.37 8.93 4.25 3.4-1.27 8.93-5.52 11.9-8.5 16.15-14.45 28.05-32.73 41.65-48.88 9.35-17.85 17.43-36.98 31.03-48.88 4.25-2.12 9.35-2.55 11.9-.85 2.55 5.95-5.1 21.25-10.63 32.73-3.4 7.22-5.52 15.3-8.93 23.38-8.93 21.25-17 44.63-19.98 62.91-1.27 6.8-.42 14.03 7.65 13.6 3.83-.43 10.2-3.83 13.18-5.95 11.9-7.23 23.8-22.1 34-33.15 3.83-3.83 7.23-8.08 9.78-11.9.85-1.28 1.7-.43 2.12-1.28.85-.43.43-2.12 1.7-2.55 2.98-1.7 4.25-5.52 8.08-8.07.42-.43-.43-1.7.85-2.55 2.13-.85 2.13-4.25 4.68-4.25 1.7-3.4 3.4-5.52 6.38-7.23.85-3.4 3.82-4.25 4.68-6.8 2.12-2.12 4.25-3.82 5.52-6.37-.43-1.28 8.5-11.9 18.28-22.53 1.27-1.28 2.98-2.55 4.68-3.4-.85 5.1-6.8 10.63-11.05 15.3-26.78 29.75-41.65 53.55-70.13 81.61-8.08 8.07-14.88 13.6-23.8 18.7-2.55 0-4.25 1.27-6.8 2.55-15.73 3.81-19.98-4.69-22.96-13.61z"/><path class="st1" d="M558.13 402.57c-11.16 0-14.87-7.88-17.44-15.58-3.69-9.7-4.23-20.06-1.77-33.59.21-1.04.31-2.04.41-3.06.11-1.12.23-2.23.45-3.35.78-3.88 2.2-7.5 3.57-10.99.9-2.3 1.78-4.53 2.38-6.65-.77.98-1.51 2.02-2.27 3.08-1.45 2.02-2.94 4.11-4.71 5.87-10.85 14.95-22.37 26.89-35.04 36.29l-.42.23c-1.13.41-2.17.87-3.21 1.32-3.3 1.45-6.75 2.95-11.91 2.6-4.98-.45-12.41-4.81-14.51-8.49-3.95-7.32-2.61-18.5-1.47-24.51 1.17-5.43 3.91-13.34 7.34-21.18 1.36-2.6 2.76-5.33 4.25-8.2 3.8-7.37 8.11-15.73 12.41-23.4.16-.45.33-1.1.5-1.74.38-1.42.81-3.03 2.03-4.64.32-.77.86-1.52 1.38-2.26.43-.6.92-1.29 1.05-1.69l.25-.48c.73-.97 1.15-1.97 1.59-3.04.25-.6.5-1.2.8-1.8.29-.91 1.03-1.71 1.82-2.56.41-.44.86-.92 1.32-1.53.26-.4.43-.94.63-1.62.22-.72.46-1.5.9-2.37 3.16-5.53 8.75-12.77 12.84-18.07l1.35-1.76c2.99-3.98 6.22-6.91 9.86-8.94l.45-.17c6.15-1.36 10.42-1.78 12.7.46 1.3 1.27 1.7 3.2 1.2 5.74-.35 2.09-2.07 5.4-4.08 9.24-.67 1.28-1.36 2.6-2.02 3.93-2.27 6.06-5.14 12.08-8.97 18.78-.38 1.25-1.14 2.59-1.94 4.01-.61 1.07-1.25 2.19-1.8 3.48l-24.69 48.97c-1 2.28-2.23 4.86-3.51 7.52-4.34 9.1-9.27 19.41-8.65 25.57.18 1.45.69 2.47 1.52 2.99 1.08.69 2.89.63 5.22-.16 2.99-1.12 8.25-5.1 11.25-8.1 10.99-9.84 20.1-21.57 28.91-32.92 4.09-5.27 8.32-10.71 12.65-15.86 1.41-2.78 2.99-5.91 4.57-9.02 7.44-14.74 15.14-29.98 26.64-40.03l.35-.24c4.94-2.47 10.51-2.78 13.57-.74l.41.27.2.46c2.73 6.37-3.97 20.24-9.87 32.48l-.78 1.62c-1.84 3.9-3.29 8.04-4.82 12.43-1.24 3.55-2.53 7.21-4.07 10.87-10.2 24.3-17.26 46.5-19.87 62.53-.88 4.71-.49 8.28 1.11 10.1 1.03 1.18 2.61 1.7 4.81 1.57 3.32-.37 9.4-3.57 12.3-5.64 9.4-5.71 18.96-16.42 27.38-25.87 2.18-2.44 4.31-4.83 6.37-7.05 3.53-3.54 6.93-7.67 9.61-11.69.75-1.13 1.65-1.4 2.23-1.5l.26-.2c.32-1.06.74-2.3 2.21-2.78.86-.53 1.78-1.7 2.84-3.05 1.12-1.42 2.37-3.02 4.21-4.39-.01-.88.14-2.11 1.48-2.99.73-.33 1.09-.94 1.48-1.58.58-.98 1.41-2.37 3.03-2.8 1.45-2.74 3.13-4.98 6.06-6.8.66-1.91 1.87-3.11 2.86-4.09.77-.76 1.38-1.37 1.65-2.14l.4-.65 1.3-1.26c1.56-1.5 2.92-2.8 3.82-4.49.52-1.87 3.69-6.86 18.64-23.1 1.52-1.52 3.39-2.88 5.16-3.76l2.92-1.46-.54 3.22c-.8 4.78-5.33 9.6-9.33 13.86-.73.78-1.45 1.55-2.13 2.29-10.99 12.21-20.01 23.46-28.73 34.35-12.67 15.81-24.64 30.75-41.46 47.32-8.57 8.56-15.57 14.06-24.15 18.96l-.38.22h-.44c-1.6 0-2.83.66-4.52 1.57-.49.26-.99.53-1.54.81-2.99.69-5.58 1.02-7.86 1.02zm-8.26-81.66v3.46c0 4.13-1.66 8.36-3.42 12.84-1.32 3.36-2.69 6.84-3.4 10.43-.2 1.01-.3 2.02-.4 3.03-.11 1.12-.23 2.23-.45 3.35-2.34 12.89-1.85 22.71 1.62 31.82l.02.07c2.58 7.74 5.68 14.08 15.86 13.36-1.63-.41-2.96-1.21-4.01-2.4-2.93-3.34-2.64-8.84-1.88-12.87 2.64-16.23 9.77-38.7 20.08-63.24 1.51-3.57 2.77-7.19 3.99-10.68 1.57-4.47 3.05-8.69 4.96-12.76l.79-1.64c4.61-9.55 11.51-23.83 9.98-29.24-1.93-.9-5.81-.74-9.61 1.1-10.91 9.63-18.1 23.84-25.7 38.89a749.2 749.2 0 0 1-4.79 9.37c-1.75 2.11-3.47 4.22-5.15 6.33l1.51-1.22zm-45.66-36.97c-.32.78-.87 1.55-1.4 2.3-.43.6-.91 1.28-1.05 1.68l-.28.51c-.92 1.15-1.22 2.3-1.58 3.64-.21.77-.42 1.55-.72 2.32-4.36 7.82-8.66 16.15-12.44 23.5-1.48 2.87-2.9 5.61-4.21 8.11-3.29 7.54-5.96 15.21-7.07 20.4-1.8 9.46-1.39 17.57 1.12 22.23 1.41 2.47 7.79 6.42 11.86 6.78 2.37.16 4.26-.13 6.02-.65-1.34-.03-2.51-.36-3.49-.98-1.68-1.06-2.74-2.94-3.05-5.43-.72-7.13 4.42-17.88 8.95-27.37 1.26-2.63 2.47-5.17 3.5-7.51l24.69-48.96c.56-1.32 1.25-2.54 1.91-3.71.72-1.27 1.41-2.47 1.81-3.72 3.88-6.85 6.68-12.71 8.95-18.76.74-1.5 1.44-2.84 2.11-4.14 1.71-3.29 3.49-6.68 3.75-8.3.2-.99.3-2.22-.25-2.77-1.4-1.35-7.01-.17-9.41.36-3.14 1.79-5.96 4.38-8.62 7.93l-1.38 1.78c-4.03 5.21-9.54 12.35-12.54 17.6-.3.61-.48 1.22-.66 1.78-.25.82-.51 1.68-1.1 2.57-.59.79-1.12 1.36-1.6 1.87-.58.63-1.04 1.12-1.19 1.56-.36.75-.57 1.28-.79 1.81-.47 1.16-.96 2.34-1.84 3.57zm117.76 63.73c-.15.03-.29.05-.38.07-.63.91-1.29 1.83-1.97 2.73.79-.93 1.57-1.87 2.35-2.8zm49.01-58.47c-1.09 1.19-2.12 2.35-3.11 3.46 1.07-1.13 2.13-2.29 3.11-3.46zM236.22 646.53c4.25-16.15 16.15-35.7 24.23-49.31-5.1.85-11.05 4.68-15.73 8.08-8.93 6.38-18.7 14.45-27.2 22.1-9.35 8.08-19.13 16.58-28.05 21.68-8.08 4.68-20.83 6.8-27.63 3.4-5.52-2.12-8.5-8.07-6.8-15.3.43-1.27 1.28-2.98 2.13-4.25.43-2.13 0-3.83.85-5.95 3.4-11.05 12.33-25.08 19.13-34.43 17-24.23 38.68-46.33 62.91-59.08 5.95-3.4 15.3-6.37 23.38-5.52 3.82.43 6.8 2.98 10.2 4.68 8.08 5.52 12.33 14.45 14.45 23.38 6.8-6.38 19.13-22.1 29.33-17 .85.43.85 1.27 1.7 2.12-3.83 11.48-13.6 22.95-20.83 34.85-7.65 12.33-16.58 27.2-24.65 40.81-5.1 9.35-11.48 18.28-16.58 27.63-4.68 8.5-15.73 24.23-6.8 25.08 3.83.43 8.93-2.98 13.18-5.52 11.9-6.38 23.8-15.72 33.58-23.8 15.3-11.9 28.48-24.65 42.08-38.25 5.95-6.8 13.18-13.6 19.13-21.68 2.13-2.12 3.82-5.1 6.38-6.38 1.27 1.28-2.13 5.1-4.25 7.23-5.53 6.38-11.9 14.03-18.28 20.4-17.43 17-34.85 32.73-52.7 48.45-8.93 7.65-18.28 14.88-28.9 19.13-5.95 1.7-14.45 3.4-19.13 2.12-7.68-2.57-8.1-14.47-5.13-24.67zm-37.82-8.08c9.78-6.8 20.4-17 31.45-25.08 7.23-5.1 16.58-13.18 24.65-17.43 2.98-1.7 7.23-2.98 8.93-4.68 3.82-3.4 6.37-8.93 9.78-14.03 2.98-4.67 7.23-9.35 8.93-14.03 2.98-7.23-.85-11.9-3.82-16.58-2.13-2.98-3.4-7.65-6.38-9.78-2.98-2.55-9.78-6.38-14.88-5.95-6.8.85-13.18 8.5-18.28 14.88-2.98 3.83-6.8 7.65-9.78 11.9-6.8 8.93-15.73 19.13-21.68 28.05-.85 1.28-2.98 3.4-3.83 4.68-1.7 2.55-2.12 5.1-3.82 7.22-7.65 12.33-15.73 23.8-22.1 36.98-2.98 4.67 0 9.35.85 13.18 6.37.03 14.03-5.08 19.98-9.33z"/><path class="st1" d="M245.35 673.29c-1.63 0-3.15-.14-4.46-.5-8.87-2.96-9.51-15.53-6.26-26.7 3.95-14.98 14.28-32.68 22.24-46.07-3.11 1.26-6.8 3.46-11.16 6.63-8.21 5.86-17.82 13.66-27.07 21.99l-.62.53c-9.27 8-18.85 16.28-27.72 21.35-8.03 4.65-21.49 7.29-29.19 3.45-6.37-2.44-9.51-9.37-7.68-17.18.48-1.45 1.3-3.13 2.17-4.49.1-.64.13-1.25.15-1.84.05-1.2.11-2.57.73-4.11 3.95-12.83 14.83-28.61 19.33-34.79 13.27-18.92 35.08-44.63 63.48-59.58 5.6-3.2 15.36-6.65 24.32-5.71 3.07.34 5.56 1.82 7.96 3.26.92.55 1.85 1.1 2.81 1.59 6.93 4.72 11.78 11.97 14.58 21.66.55-.55 1.12-1.14 1.71-1.74 7.12-7.31 17.88-18.33 27.48-13.55.93.47 1.34 1.19 1.63 1.71.16.28.29.51.5.72l.72.72-.33.98c-2.66 7.99-7.93 15.69-13.51 23.85-2.53 3.7-5.16 7.54-7.47 11.34-6.56 10.57-14.62 23.91-24.65 40.79-2.55 4.68-5.49 9.36-8.33 13.88-2.8 4.46-5.7 9.07-8.22 13.69-.75 1.37-1.67 2.92-2.63 4.56-3.19 5.43-8.55 14.5-7.14 17.27.09.16.34.67 1.67.79 3.04.34 7.34-2.36 10.88-4.51l1.29-.78c11.97-6.42 24.12-16.01 33.37-23.66 15.83-12.32 29.41-25.6 41.96-38.15 1.96-2.25 4.15-4.57 6.38-6.96 4.28-4.56 8.72-9.28 12.58-14.53.83-.86 1.46-1.63 2.08-2.39 1.41-1.71 2.87-3.48 4.89-4.49l1.07-.53.85.85c1.84 1.84.53 4.79-4.25 9.58l-3 3.49c-4.69 5.46-10.01 11.65-15.27 16.91-18.86 18.4-37.26 34.85-52.78 48.52-8.72 7.48-18.31 15-29.39 19.43-3.27.98-10.09 2.72-15.7 2.72zm18.36-78.3-3.01 5.06c-7.97 13.39-18.89 31.74-22.87 46.9l-.01.04c-2.81 9.63-2.33 20.49 4.03 22.61 1.32.36 3.07.45 5.03.32-.53-.44-.87-.93-1.1-1.38-2.08-4.08 1.68-11.06 7.23-20.47.95-1.61 1.85-3.13 2.58-4.48 2.57-4.7 5.49-9.36 8.32-13.86 2.81-4.48 5.72-9.12 8.26-13.76 10.06-16.95 18.13-30.31 24.7-40.89 2.35-3.87 5-7.74 7.56-11.48 5.24-7.66 10.2-14.91 12.81-22.17a8.92 8.92 0 0 1-.35-.59 5.17 5.17 0 0 0-.23-.38c-7.42-3.72-16.77 5.89-23.6 12.9-1.41 1.44-2.7 2.76-3.83 3.83l-2.09 1.96-.66-2.79c-2.45-10.28-7.08-17.81-13.77-22.39-.84-.4-1.84-1-2.83-1.59-2.2-1.31-4.27-2.55-6.61-2.81-.94-.1-1.79-.1-2.87-.13 4.95.87 10.09 3.96 12.64 6.14 2.11 1.51 3.41 4.08 4.67 6.57.66 1.3 1.28 2.52 1.98 3.5l.87 1.34c2.9 4.44 6.17 9.46 3.14 16.84-1.19 3.28-3.57 6.55-5.87 9.71-1.11 1.52-2.22 3.05-3.19 4.57-1.03 1.55-1.97 3.1-2.88 4.63-2.23 3.7-4.33 7.2-7.19 9.74-1.18 1.19-3.29 2.12-5.53 3.11-.37.16-.74.33-1.11.49.79-.23 1.55-.41 2.28-.53l3.5-.56zm16.06 60.64c-5.05 3.59-10.32 6.99-15.56 9.8l-1.2.72c5.94-2.77 11.51-6.48 16.76-10.52zm-26.7-125.3c-4.58 1-8.96 2.74-12.2 4.59-27.86 14.67-49.29 39.95-62.36 58.59-4.41 6.07-15.06 21.48-18.9 33.96-.45 1.14-.49 2.07-.54 3.14-.04.85-.08 1.71-.27 2.64l-.25.59c-.76 1.14-1.55 2.73-1.93 3.85-1.42 6.06.85 11.31 5.82 13.22 6.04 3.01 17.97 1.48 26.2-3.29 7.81-4.46 16.32-11.6 24.66-18.78-4.83 4.04-9.43 7.82-13.94 10.96-7.03 5.01-14.43 9.65-20.93 9.65h-1.33l-.29-1.3c-.19-.85-.49-1.74-.81-2.67-1.12-3.35-2.52-7.52.18-11.76 4.68-9.71 10.51-18.8 16.15-27.6 1.98-3.09 3.98-6.2 5.94-9.36.88-1.12 1.35-2.22 1.91-3.49.5-1.16 1.07-2.47 1.94-3.79.46-.68 1.25-1.6 2.04-2.51.69-.79 1.38-1.57 1.78-2.17 3.84-5.76 8.9-12.03 13.79-18.1 2.77-3.43 5.5-6.81 7.95-10.04 1.77-2.53 3.85-4.93 5.87-7.25 1.37-1.58 2.71-3.12 3.92-4.67 4.83-6.01 9.96-11.98 15.6-14.41zm4.8 2.21c-.23 0-.46.01-.68.03-6.34.8-12.82 8.9-17.11 14.26-1.22 1.58-2.61 3.17-4.01 4.79-1.96 2.26-3.99 4.6-5.7 7.03-2.51 3.29-5.26 6.71-8.04 10.16-4.85 6.01-9.86 12.22-13.61 17.86-.46.69-1.25 1.6-2.04 2.51-.69.79-1.38 1.57-1.78 2.17-.71 1.06-1.17 2.13-1.66 3.26-.59 1.36-1.2 2.77-2.25 4.08-1.86 3.02-3.86 6.13-5.85 9.24-5.84 9.12-11.36 17.72-16.05 27.42-1.94 3.07-.96 5.99.08 9.08.19.56.37 1.11.53 1.64 5.33-.58 11.66-4.62 17.76-8.97l.01-.01c5.02-3.49 10.23-7.86 15.74-12.49 5.07-4.26 10.32-8.66 15.68-12.57 2.33-1.65 4.85-3.58 7.48-5.59 5.52-4.22 11.77-9.02 17.38-11.96 1.15-.66 2.56-1.28 3.93-1.89 1.85-.82 3.77-1.67 4.59-2.49 2.55-2.27 4.53-5.56 6.62-9.04.94-1.57 1.91-3.17 2.95-4.73.99-1.55 2.14-3.13 3.29-4.71 2.17-2.98 4.41-6.05 5.46-8.96 2.39-5.82-.14-9.71-2.83-13.82l-.84-1.3c-.8-1.12-1.51-2.51-2.19-3.86-1.08-2.14-2.2-4.34-3.75-5.46-2.86-2.42-8.71-5.68-13.11-5.68z"/><path class="st1" d="M401.57 666.93c2.98-13.17 11.05-26.78 17.85-39.53 5.1-8.5 11.9-17.85 17.85-27.2 7.23-11.05 14.03-21.25 21.25-32.73l7.23-11.48c5.95-8.5 11.05-16.57 16.58-28.05 2.13-4.25 4.68-9.35 5.52-12.75.85-3.83-.42-9.35-3.82-9.78-4.25-.43-11.48 3.82-15.3 6.38-10.63 5.95-21.25 15.3-30.18 24.23-18.7 19.12-38.25 36.55-55.68 57.38-5.52 6.38-11.05 12.75-16.58 19.98-1.27 1.28-2.55 2.55-3.4 3.83-1.27 1.27-1.7 2.98-2.98 4.25-.85 1.7-2.55 2.55-2.98 3.83-4.68 7.23-7.65 16.15-12.75 22.95-4.68 5.95-14.88 15.3-20.83 9.77-2.55-2.12-.42-9.35 1.27-15.3.43-1.7.43-2.98.85-4.25 2.13-7.23 7.65-17.43 11.9-26.78 9.35-19.55 15.73-32.73 24.65-53.13 2.98-7.22 6.37-20.4 11.9-24.23 5.95-4.67 18.28-3.4 19.98 1.28 1.27 3.83-2.98 12.75-6.38 20.4-6.8 16.15-16.15 33.58-22.1 49.31 2.55-1.28 4.25-3.83 5.95-5.52 13.6-14.88 27.63-29.33 42.5-43.78 17-16.15 31.88-33.58 50.58-45.48 8.93-6.38 22.1-13.6 31.45-8.5 22.1 12.75-11.9 65.46-33.15 96.48-5.1 7.65-10.2 15.3-14.45 21.25l-6.38 11.05c-3.83 5.52-7.23 11.48-11.05 17.85-5.52 8.5-14.88 22.53-15.3 30.6 0 2.13 1.7 5.1 5.1 5.1 5.95 0 15.3-7.65 20.4-11.48 19.13-14.03 38.25-30.6 54.41-46.75 19.98-19.55 25.5-22.95 44.2-45.05 2.13-2.55 5.1-7.23 9.35-7.23-1.27 3.4-4.68 6.8-7.23 9.78-7.65 9.78-16.15 18.7-24.65 28.05-11.05 11.9-6.38 5.52-17.85 16.57-11.48 11.05-23.38 22.1-34.85 32.3-11.9 10.2-24.65 19.98-37.83 26.78-18.67 5.53-28.02-8.07-25.05-20.4z"/><path class="st1" d="M418.41 690.23c-5.33 0-9.9-1.7-13.36-4.99-4.82-4.58-6.77-11.74-5.1-18.69 2.6-11.52 8.92-23.17 15.04-34.43 1-1.85 2-3.68 2.97-5.5 2.97-4.96 6.38-10.01 10-15.36 2.66-3.94 5.37-7.95 7.92-11.96l5.36-8.19c5.39-8.2 10.47-15.94 15.88-24.53l7.22-11.48c5.91-8.45 10.95-16.39 16.49-27.89 2.06-4.11 4.61-9.21 5.41-12.43.51-2.28.08-5.2-1.01-6.74-.42-.6-.88-.92-1.41-.99-3.19-.29-9.43 2.94-14.17 6.11-8.94 5.01-18.97 13.07-29.93 24.02-5.9 6.04-11.91 11.92-17.9 17.79-12.69 12.44-25.81 25.3-37.68 39.48l-.29.33c-5.33 6.15-10.84 12.51-16.24 19.58-1.38 1.41-2.59 2.62-3.33 3.74-.69.73-1.05 1.36-1.43 2.02-.42.73-.88 1.54-1.57 2.29-.54.97-1.25 1.68-1.83 2.27-.41.41-.84.84-.93 1.1l-.18.38c-2.03 3.13-3.78 6.7-5.47 10.14-2.17 4.42-4.42 9-7.34 12.9-4.17 5.3-11.14 11.62-17.13 12.09-2.39.21-4.47-.52-6.17-2.1-3.27-2.73-1.24-9.82.72-16.68.26-.97.35-1.61.44-2.21.13-.86.26-1.63.52-2.41 1.5-5.1 4.59-11.51 7.87-18.3 1.39-2.89 2.8-5.8 4.09-8.65l2.13-4.44c8.29-17.34 14.29-29.86 22.51-48.66.68-1.66 1.4-3.69 2.17-5.84 2.65-7.44 5.66-15.87 10.31-19.09 4.38-3.45 11.62-3.88 16.48-2.49 3.13.89 5.26 2.52 6.01 4.57 1.39 4.18-2.01 11.77-5.6 19.8l-.82 1.84c-2.92 6.93-6.37 14.23-9.71 21.29-3.32 7.03-6.73 14.24-9.65 21.17.17-.19.34-.36.51-.53 13.69-14.98 27.61-29.32 42.52-43.8 4.54-4.31 8.92-8.7 13.25-13.06 12.2-12.24 23.73-23.81 37.59-32.63 13.8-9.87 25.29-12.85 33.14-8.56 3.93 2.27 6.44 5.74 7.49 10.35 4.54 19.99-19.02 57.81-40.06 88.53-5.11 7.67-10.25 15.37-14.47 21.28l-6.29 10.91c-3.1 4.48-5.87 9.14-8.8 14.07l-3.05 5c-5.2 7.99-13.91 21.36-14.29 28.64 0 .99.87 3.35 3.44 3.35 4.77 0 12.84-6.15 17.66-9.83l1.74-1.32c18.43-13.51 37.68-30.05 54.23-46.6 5.77-5.65 10.33-9.94 14.35-13.73 9.94-9.37 16.51-15.56 29.77-31.22l.92-1.16c2.21-2.81 5.24-6.66 9.69-6.66h2.4l-.84 2.24c-1.15 3.07-3.77 6.02-6.08 8.63l-1.44 1.65c-6.18 7.9-12.8 15.12-19.82 22.77l-4.87 5.33c-6.21 6.68-7.59 7.74-9.51 9.21-1.49 1.14-3.35 2.56-8.42 7.45-11.85 11.41-23.59 22.29-34.9 32.35-14.63 12.54-26.75 21.12-38.17 27.02-3.16.99-6.17 1.46-8.98 1.46zm65.02-186.51c.26 0 .52.01.76.04 1.51.19 2.8 1.01 3.76 2.38 1.62 2.3 2.24 6.17 1.52 9.41-.9 3.62-3.43 8.67-5.66 13.13-5.62 11.68-10.74 19.75-16.7 28.27l-7.18 11.41c-5.43 8.62-10.52 16.38-15.91 24.59l-5.35 8.16c-2.56 4.02-5.28 8.05-7.96 12.01-3.59 5.31-6.98 10.33-9.86 15.13-.93 1.75-1.93 3.59-2.94 5.45-6.01 11.07-12.22 22.52-14.72 33.59l-.01.03c-1.4 5.8.2 11.75 4.16 15.51 4.38 4.17 11.07 5.2 18.83 2.91 10.9-5.66 22.82-14.1 37.22-26.45 11.26-10.01 22.97-20.86 34.78-32.24 5.21-5.02 7.15-6.5 8.71-7.69 1.78-1.37 3.07-2.35 9.08-8.82l4.87-5.32c6.62-7.21 12.89-14.05 18.77-21.45-12.47 14.63-18.97 20.76-28.64 29.87-4.01 3.78-8.55 8.06-14.29 13.68-16.65 16.65-36.04 33.31-54.58 46.9l-1.71 1.29c-5.49 4.18-13.79 10.5-19.68 10.5-4.18 0-6.77-3.51-6.77-6.76.43-8.25 9.09-21.56 14.83-30.37l2.97-4.89c2.96-4.98 5.76-9.69 8.85-14.15l6.3-10.93c4.28-6.01 9.4-13.69 14.35-21.11 12.3-17.97 44.53-65.03 39.73-86.16-.85-3.72-2.77-6.4-5.87-8.19-8.13-4.44-20.03 1.67-28.86 7.85.56-.33 1.12-.66 1.68-.96 3.73-2.49 10.66-6.62 15.52-6.62zm-99.58 29.33c-3.18 0-6.57.76-8.88 2.58-3.85 2.67-6.79 10.91-9.15 17.54-.79 2.21-1.53 4.28-2.24 6.02-8.26 18.89-14.26 31.43-22.57 48.8l-2.11 4.41c-1.29 2.83-2.71 5.78-4.11 8.69-3.22 6.66-6.25 12.96-7.69 17.85-.22.66-.3 1.26-.4 1.92-.11.69-.22 1.43-.43 2.26-1.29 4.51-3.5 12.23-1.82 13.62 1.07.99 2.26 1.38 3.71 1.28 4.58-.36 10.86-5.85 14.75-10.8 2.71-3.62 4.89-8.06 7-12.34 1.71-3.48 3.47-7.08 5.56-10.33.36-.89 1.01-1.55 1.65-2.18.53-.53 1.03-1.03 1.33-1.64l.32-.43c.48-.48.82-1.08 1.22-1.78.45-.79.96-1.68 1.75-2.47.72-1.13 2.04-2.46 3.32-3.75 5.4-7.06 10.94-13.46 16.3-19.65 5.44-6.51 11.08-12.67 16.78-18.62a996.828 996.828 0 0 0-25.5 26.89c-.5.5-.94 1.01-1.41 1.53-1.36 1.54-2.9 3.29-5.03 4.36l-3.81 1.91 1.51-3.99c3.42-9.04 8.02-18.77 12.47-28.17 3.32-7.03 6.76-14.3 9.66-21.19l.84-1.88c2.73-6.1 6.46-14.45 5.49-17.35-.34-.95-1.76-1.88-3.78-2.46-1.39-.41-3.02-.63-4.73-.63zm160.94 44.6c-1.03.99-1.97 2.17-2.81 3.25-.1.12-.19.24-.29.36l.36-.41c.91-1.02 1.87-2.1 2.74-3.2z"/><path class="st1" d="M568.2 666.5c.43-13.17 5.1-29.33 12.75-47.6-3.83 2.13-7.65 5.95-11.48 8.93-6.8 5.1-16.58 10.2-25.08 14.88-5.52 2.55-11.05 5.1-17.85 3.4-8.08-2.12-11.05-11.48-10.63-20.4.85-7.23 2.98-16.15 8.93-27.2 1.27-1.7 2.55-3.4 3.82-5.52 1.7-2.12 2.13-4.68 3.83-6.8 1.27-2.12 4.68-6.38 6.8-9.35 11.9-15.3 24.23-30.6 38.68-40.8 8.07-5.53 17-11.05 27.2-9.78 11.48 1.7 11.05 13.18 14.03 20.83 2.98-4.25 6.38-11.05 10.2-17 1.7-2.13 3.4-3.83 4.25-5.53 1.27-1.7 2.12-4.25 3.4-5.95 3.4-5.1 6.8-9.77 9.78-14.88 1.27-1.7 1.7-3.82 3.4-5.95 2.98-4.67 6.38-9.35 9.78-14.03 1.7-2.12 2.13-4.25 3.4-5.95.85-1.7 2.55-2.98 2.98-4.25 1.27-1.7 1.7-3.4 2.98-5.1 13.6-20.83 29.75-44.63 45.9-66.31 8.07-11.05 16.15-21.25 23.8-30.6 10.2-12.33 21.25-24.65 34-32.3 5.1-2.98 13.6-6.38 17.85-7.65 4.68-.85 9.35 0 14.03 0 .85 1.28 1.7 1.7 3.4 2.13 1.7 2.98 2.98 6.37 1.7 11.48-1.7 13.17-13.18 32.3-19.55 45.9-5.52 7.65-9.35 14.88-14.45 21.67-19.13 28.05-40.38 53.13-62.91 75.24-14.03 13.6-28.48 26.78-43.35 39.95-5.1 4.68-9.35 8.08-15.3 9.78 2.13-2.55 5.1-4.67 7.65-6.8 7.65-5.95 15.3-12.33 22.95-19.12 9.78-8.93 19.13-19.13 29.75-28.48 12.75-11.9 23.38-25.5 34.85-39.53 4.25-5.1 8.5-10.2 13.18-16.57 2.13-2.98 4.25-5.95 5.95-8.93.85-1.28 2.98-2.55 3.4-3.83 1.27-1.7 1.7-3.4 2.98-5.1 13.6-20.4 34.43-56.96 25.93-70.13-19.98 12.33-36.55 31.45-51.86 51-8.07 9.78-15.73 19.98-23.8 30.6-9.78 13.6-18.7 27.63-28.48 41.65l-2.98 3.83c-8.08 12.33-15.3 24.23-22.53 35.7-1.27 1.7-2.98 3.4-4.25 5.52-3.4 5.1-6.8 11.48-10.2 17-1.7 2.98-3.82 5.53-5.1 8.08-13.18 22.1-27.63 46.75-39.95 73.11-12.33 25.93-27.2 53.55-32.3 74.81-2.12 8.5-1.27 19.13 11.05 17.85 15.3-.85 89.26-95.21 119.44-117.31 1.7-1.7 7.23-7.65 8.93-5.95.85.85 1.27.43-2.12 3.4-11.05 9.35-18.7 17.85-29.75 28.05-15.3 14.03-80.33 105.41-104.56 96.48-13.62-5.11-15.75-20.41-14.47-36.57zm-16.15-30.6c9.35-5.1 16.15-9.35 23.8-16.15 2.13-1.7 6.38-4.68 7.23-5.95 2.55-3.4 5.1-10.63 7.65-16.15 5.53-11.48 10.63-20.4 16.15-30.18 2.98-5.1 7.23-10.62 8.93-14.88.42-3.4-.85-7.22-2.13-10.62-.85-2.98-1.7-6.8-3.4-8.5-4.25-3.82-11.05-2.55-16.58 1.7-5.95 4.67-13.18 13.18-19.98 22.1-6.37 8.07-12.75 17.85-17.85 26.35-1.7 2.12-2.12 4.25-3.4 6.38-1.27 1.7-3.4 3.83-4.25 5.52-7.23 11.05-13.6 24.65-16.15 34.43-1.7 5.1-2.13 10.62 1.7 12.75 5.95.43 12.75-3.4 18.28-6.8z"/><path class="st1" d="M586.14 705.3c-1.44 0-2.8-.22-4.06-.69-12.12-4.54-17.2-17.04-15.54-38.2.38-11.56 3.9-25.64 10.74-42.91-.97.78-1.94 1.61-2.9 2.43-1.29 1.1-2.59 2.2-3.88 3.21-5.96 4.48-13.94 8.82-21.65 13.03l-3.64 1.99c-5.79 2.68-11.66 5.4-19.06 3.56-9.42-2.48-12.31-13.04-11.88-22.09 1.12-9.6 4.02-18.43 9.12-27.91 1.35-1.83 2.61-3.51 3.86-5.59.85-1.09 1.32-2.13 1.82-3.23.56-1.24 1.15-2.53 2.13-3.75.71-1.21 2.31-3.33 4-5.58.97-1.29 1.94-2.58 2.74-3.69 12.39-15.93 24.67-31.03 39.08-41.2 8.51-5.83 17.69-11.39 28.37-10.07 9.92 1.47 12.02 9.67 13.7 16.26.21.81.41 1.6.62 2.37 1-1.65 2.06-3.49 3.15-5.39 1.62-2.84 3.34-5.84 5.15-8.66.62-.79 1.13-1.4 1.63-1.98 1.09-1.28 2.03-2.38 2.53-3.39.71-.99 1.19-1.95 1.7-2.98.56-1.11 1.13-2.26 1.86-3.23.94-1.41 1.93-2.85 2.9-4.28 2.41-3.53 4.68-6.86 6.77-10.43.58-.79.93-1.54 1.34-2.4.54-1.14 1.15-2.43 2.19-3.75 2.96-4.65 6.56-9.6 9.74-13.96.86-1.07 1.33-2.08 1.84-3.16.44-.94.9-1.91 1.58-2.82.35-.75 1.05-1.58 1.66-2.3.45-.53.95-1.12 1.07-1.47l.24-.47c.57-.76.95-1.53 1.33-2.3.45-.9.92-1.84 1.65-2.8 16.44-25.18 31.9-47.52 45.9-66.3 7.02-9.61 14.6-19.35 23.84-30.67 10.26-12.4 21.53-24.93 34.44-32.68 5.42-3.16 14.06-6.57 18.23-7.82 3.5-.65 6.76-.45 9.93-.26 1.52.09 3.05.19 4.57.19h.89l.49.74c.52.78.9 1.06 2.42 1.44l.69.17.36.62c1.73 3.03 3.31 6.91 1.87 12.7-1.27 9.94-8.1 23.29-14.12 35.07-2.01 3.94-3.95 7.71-5.55 11.14-2.79 3.91-5.05 7.48-7.23 10.94-2.42 3.83-4.71 7.45-7.39 11.03-18.49 27.12-39.73 52.52-63.08 75.42-12.7 12.31-26.49 25.02-43.41 40.01-4.82 4.42-9.36 8.25-15.95 10.13l-5.18 1.48 3.45-4.14c1.71-2.06 3.88-3.8 5.98-5.49.64-.51 1.27-1.02 1.88-1.53 7.64-5.93 15.33-12.34 22.91-19.09 4.32-3.94 8.49-8.07 12.9-12.44 5.37-5.32 10.93-10.83 16.86-16.04 11.04-10.3 20.44-21.86 30.39-34.09l4.27-5.24c4.22-5.07 8.5-10.2 13.12-16.5 2.05-2.87 4.18-5.86 5.85-8.77.54-.81 1.22-1.44 1.89-2.04.47-.44 1.27-1.16 1.38-1.48l.24-.47c.57-.76.95-1.53 1.33-2.3.45-.9.92-1.84 1.65-2.8 16.43-24.66 31.66-54.63 26.62-66.77-19.39 12.41-35.44 31.18-49.91 49.67-7.12 8.62-13.82 17.45-20.91 26.8l-2.87 3.78c-5.56 7.73-10.98 15.81-16.22 23.62-4.01 5.97-8.03 11.98-12.22 17.98l-3.02 3.9c-5.51 8.42-10.72 16.79-15.76 24.88-2.24 3.6-4.46 7.17-6.68 10.69-.54.73-1.05 1.35-1.59 1.98-.92 1.1-1.88 2.24-2.64 3.52-2.05 3.08-4.11 6.63-6.1 10.07-1.37 2.37-2.74 4.73-4.11 6.95-.77 1.35-1.65 2.65-2.51 3.9-.96 1.42-1.88 2.76-2.52 4.05-13.55 22.74-27.74 47-39.94 73.07-2.53 5.33-5.17 10.72-7.8 16.11-10.02 20.48-20.37 41.66-24.39 58.38-1.48 5.9-1.02 10.96 1.22 13.54 1.64 1.89 4.34 2.66 8.04 2.27 7.75-.43 35.41-30.77 59.8-57.53 22.12-24.26 44.99-49.35 58.82-59.47l.3-.34c3.77-3.84 6.56-6.22 8.8-6.24h.02c.77 0 1.45.27 1.96.79.48.43 1.09.95 1.09 1.86 0 1.09-.51 1.54-2.99 3.71l-.32.28c-6.62 5.6-11.99 10.88-17.69 16.47-3.75 3.68-7.61 7.47-12.01 11.54-3.81 3.49-10.8 11.92-19.65 22.59-25.08 30.18-62.14 74.85-82.54 74.85zm-1.8-90.19-1.86 4.43c-8.1 19.34-12.23 34.72-12.62 47.01v.08c-1.56 19.78 2.69 30.86 13.38 34.86 16.96 6.27 58.23-43.5 82.89-73.23 4.41-5.32 8.37-10.09 11.73-13.99-8.09 8.59-16.62 17.94-25.03 27.18-32.96 36.15-53.58 58.13-62 58.6-4.74.49-8.42-.65-10.81-3.41-4.25-4.9-2.77-13.17-1.94-16.51 4.09-17.06 14.53-38.41 24.63-59.05 2.63-5.38 5.27-10.76 7.79-16.07 12.25-26.19 26.49-50.55 40.03-73.24.69-1.38 1.66-2.81 2.69-4.32.81-1.18 1.65-2.41 2.4-3.73 1.38-2.25 2.74-4.59 4.1-6.92 2.01-3.48 4.1-7.08 6.17-10.18.86-1.43 1.94-2.73 2.9-3.87.49-.59.97-1.16 1.4-1.73 2.14-3.4 4.35-6.96 6.59-10.56 5.04-8.11 10.27-16.49 15.88-25.05l3.05-3.94c4.12-5.92 8.14-11.91 12.14-17.86 5.26-7.83 10.69-15.93 16.31-23.74l2.9-3.82c7.12-9.38 13.84-18.23 20.97-26.88 15.01-19.18 31.75-38.7 52.26-51.36l1.38-.86.89 1.37c4.8 7.44 1.29 20.93-4.83 34.7 4.94-9.86 9.69-20.16 10.71-28.06 1.05-4.26.33-7.06-1.17-9.84-1.28-.38-2.25-.89-3.12-1.9-1.31-.03-2.63-.1-3.94-.18-3.11-.19-6.03-.36-8.96.16-3.72 1.13-12.2 4.48-17.31 7.45-12.46 7.48-23.5 19.77-33.56 31.92-9.2 11.26-16.75 20.96-23.74 30.53-13.96 18.74-29.39 41.02-45.85 66.23-.64.86-1.02 1.62-1.4 2.39-.42.84-.86 1.71-1.5 2.61-.35.84-.98 1.58-1.58 2.29-.52.61-1.05 1.25-1.38 1.9-.63.89-.99 1.63-1.39 2.5-.54 1.14-1.15 2.44-2.2 3.75-3.26 4.48-6.67 9.17-9.68 13.88-.91 1.15-1.41 2.21-1.89 3.23-.44.94-.9 1.92-1.58 2.82-2.03 3.52-4.34 6.9-6.78 10.47-.97 1.42-1.95 2.86-2.93 4.33-.6.81-1.09 1.78-1.6 2.8-.56 1.11-1.13 2.26-1.86 3.23-.53 1.12-1.64 2.43-2.82 3.81-.47.56-.97 1.14-1.47 1.76-1.68 2.63-3.36 5.58-4.96 8.37-1.83 3.2-3.55 6.22-5.18 8.54l-1.78 2.55-1.13-2.9c-.73-1.88-1.27-3.97-1.78-6-1.66-6.5-3.23-12.65-10.93-13.79-9.5-1.18-18.05 4.05-26.02 9.5-14.02 9.89-26.12 24.78-38.31 40.45-.76 1.08-1.76 2.4-2.75 3.71-1.57 2.08-3.19 4.23-3.93 5.48-.85 1.09-1.33 2.13-1.83 3.23-.57 1.24-1.15 2.53-2.13 3.75-1.21 2.04-2.52 3.79-3.79 5.49-4.77 8.89-7.54 17.34-8.6 26.4-.36 7.64 1.91 16.62 9.4 18.59 3.11.78 5.94.58 8.66-.13-.66.05-1.32.04-1.97-.01l-.69-.2c-4.02-2.23-4.89-7.46-2.47-14.73 2.57-9.88 8.99-23.59 16.33-34.82.55-1.12 1.71-2.48 2.82-3.79.54-.63 1.06-1.25 1.49-1.82.38-.65.72-1.44 1.07-2.23.59-1.35 1.21-2.74 2.36-4.19 4.18-6.98 10.79-17.41 17.84-26.34 8.14-10.69 14.97-18.22 20.26-22.38 6.62-5.1 14.14-5.76 18.72-1.63 1.83 1.84 2.73 5.11 3.53 8l.36 1.28c1.28 3.39 2.65 7.47 2.18 11.29l-.1.41c-1.14 2.85-3.25 6.06-5.48 9.47-1.23 1.88-2.48 3.78-3.56 5.63l-.81 1.44c-5.17 9.14-10.05 17.77-15.28 28.63-.76 1.66-1.54 3.49-2.31 5.33-1.86 4.41-3.62 8.57-5.5 11.09-.1.15-.23.32-.4.5l.28-.16zm-50.06 25.96c5.09.13 11.15-3.04 16.89-6.58l.08-.04c9.12-4.97 15.89-9.18 23.49-15.93.66-.53 1.42-1.11 2.23-1.72 1.59-1.21 4.26-3.23 4.72-3.91 1.7-2.27 3.46-6.44 5.16-10.47.79-1.88 1.58-3.75 2.37-5.46 5.29-10.98 10.2-19.65 15.39-28.84l.82-1.46c1.12-1.91 2.4-3.87 3.66-5.79 2.08-3.18 4.05-6.18 5.09-8.68.3-3.02-.9-6.55-2.06-9.62l-.41-1.45c-.65-2.37-1.46-5.32-2.61-6.47-3.81-3.42-9.98-1.55-14.38 1.84-5.06 3.97-11.68 11.31-19.67 21.79-6.97 8.82-13.49 19.12-17.75 26.2-1.01 1.29-1.51 2.43-2.04 3.64-.4.91-.81 1.82-1.35 2.74-.56.76-1.13 1.43-1.71 2.12-.99 1.17-2.01 2.37-2.47 3.3-7.26 11.11-13.51 24.43-16.03 34.1-.89 2.62-2.47 8.58.58 10.69zm166.86-50.24c-3.64 3.35-7.59 7.21-11.75 11.42 3.05-2.89 5.87-5.66 8.62-8.36 1.06-1.03 2.09-2.05 3.13-3.06zm88.73-202.28c-.47.84-.94 1.68-1.41 2.5.22-.32.45-.63.68-.95.24-.5.48-1.01.73-1.55zM319.96 935.85c-3.4-4.25-6.38-8.93-5.52-16.58 0-2.12.43-4.25 1.27-6.8.43-2.55.43-4.68 1.27-6.8 2.13-8.93 9.78-20.83 14.88-28.48 8.08-11.9 17.85-24.65 27.2-36.98 7.23-9.35 13.6-19.13 20.4-28.05l6.8-8.93c1.28-1.7 1.7-3.83 2.98-6.38 4.25-6.38 12.75-18.7 10.63-24.23-8.93.85-17 6.38-24.23 11.48-14.03 9.35-28.48 22.53-41.65 34.86-6.38 6.38-14.45 14.03-19.13 20.4-6.8 8.5-13.6 27.63-22.95 31.88-5.1 2.55-11.9.85-14.03-1.27-2.12-4.25 4.25-14.45 8.5-24.23 3.4-7.23 8.08-15.3 10.2-22.1.85-2.12.85-4.25 1.27-5.95 2.55-6.8 5.1-12.33 2.98-16.57-23.38 6.8-41.23 22.53-60.36 39.95-13.6 12.33-25.93 27.2-38.68 42.5-4.25 4.68-9.35 10.2-12.32 14.45-4.68 7.23-6.38 16.15-11.48 23.81-2.98 5.1-10.63 14.03-16.15 14.03-5.52.43-5.95-6.8-5.1-13.18 1.27-7.22 5.1-14.45 7.23-21.68 3.4-10.62 7.23-21.67 12.32-34 1.7-3.83 2.55-7.23 3.4-10.63 1.7-4.25 4.25-8.93 5.95-13.17 1.7-4.25 2.98-8.93 4.68-13.18 3.83-9.35 6.38-17 10.2-25.93 6.8-5.95 20.4-3.83 22.1 1.27.42 1.7-.85 3.4.42 4.25-4.25 13.17-9.78 27.63-16.15 42.5l-4.68 13.6c-2.55 7.23-6.8 14.03-7.23 20.4 20.83-26.35 46.75-53.55 73.96-72.68 4.25-2.98 9.35-5.95 14.45-8.5 9.35-4.67 20.83-11.9 29.33-6.8 4.68 2.55 8.5 14.45 7.23 21.67-.85 3.4-2.98 7.23-2.55 10.2 6.38-5.52 11.9-11.9 18.28-17.43 12.33-11.48 24.65-22.95 38.25-31.88 8.07-5.1 17.43-10.62 26.35-13.6 9.35-2.98 14.45 6.38 14.45 11.05.42 3.4.42 8.93-.85 12.33-2.12 8.93-10.63 21.25-16.15 29.75-11.05 17.43-25.08 35.28-37.4 51.43l-9.78 12.75c-5.1 6.8-10.2 13.18-15.3 20.4-2.12 2.98-4.25 6.38-5.52 8.93-2.98 5.53-7.65 17-4.68 18.7 5.1 2.55 15.3-4.25 19.98-7.23 18.7-11.05 33.58-27.2 50.15-42.08 18.28-17.43 32.73-28.05 51.86-45.05 2.55-2.12 5.53-6.8 8.93-5.95.43 2.98-3.82 5.52-5.95 7.65-18.28 17.43-31.88 26.78-50.58 44.2-10.2 9.35-20.4 19.55-31.45 29.33-10.62 8.93-22.53 18.7-34 23.81-6.81 3-11.06 2.15-14.03-1.26z"/><path class="st1" d="M326.68 940.61c-3.21 0-5.85-1.22-7.98-3.66l-.04-.06c-3.34-4.17-6.82-9.33-5.88-17.8-.01-2.06.41-4.32 1.35-7.14.06-.5.15-1.22.23-1.91.21-1.7.41-3.31 1.08-4.99 2.01-8.51 9.09-19.86 15.04-28.78 7.35-10.83 16.13-22.4 24.62-33.58l2.64-3.48c3.81-4.92 7.41-10.02 10.89-14.94 3.09-4.36 6.28-8.88 9.51-13.11l6.8-8.93c.63-.83 1.04-1.89 1.52-3.12.36-.93.76-1.92 1.29-2.99l.65-.99c3.47-5.19 10.38-15.51 10.15-20.65-8.2 1.29-15.79 6.65-21.95 10.99-14.06 9.38-28.78 22.83-41.47 34.71l-3.23 3.2c-5.56 5.51-11.87 11.75-15.7 16.97-2.36 2.95-4.71 7.19-7.21 11.68-4.84 8.72-9.85 17.75-16.4 20.73-5.8 2.9-13.3.98-15.89-1.61l-.31-.43c-1.95-3.9 1.27-10.55 5-18.24 1.17-2.42 2.38-4.92 3.46-7.39 1.07-2.28 2.25-4.61 3.43-6.94 2.6-5.12 5.27-10.42 6.7-14.99.51-1.29.69-2.51.86-3.69.11-.77.22-1.5.39-2.17l.85-2.27c1.86-4.86 3.38-8.83 2.71-11.86-21.41 6.63-37.7 20.45-58.21 39.13-13.25 12.01-25.16 26.31-37.78 41.45l-1.74 1.99c-4.01 4.4-8.55 9.39-11.24 13.24-2.14 3.31-3.64 7.04-5.23 10.99-1.71 4.27-3.49 8.68-6.22 12.77-2.67 4.57-10.86 14.77-17.54 14.77-1.82.14-3.49-.46-4.71-1.75-2.22-2.34-2.9-6.82-2.04-13.3.8-4.57 2.54-9.05 4.23-13.38 1.09-2.81 2.22-5.73 3.05-8.55 4.13-12.92 7.95-23.44 12.39-34.16 1.67-3.76 2.51-7.14 3.32-10.4.93-2.37 2.01-4.63 3.08-6.89 1.05-2.2 2.1-4.41 2.94-6.5.85-2.11 1.58-4.32 2.32-6.53.75-2.25 1.5-4.5 2.36-6.65 1.71-4.17 3.15-7.98 4.57-11.72 1.81-4.76 3.51-9.26 5.65-14.25l.43-.59c4.87-4.26 12.42-4.71 17.73-3.28 3.75 1.02 6.25 2.9 7.05 5.28.3 1.16.14 2.09.02 2.84-.04.26-.11.67-.09.8l1.04.7-.54.94c-4.19 12.97-9.64 27.32-16.21 42.65l-4.63 13.49c-.89 2.54-1.99 5.01-3.04 7.4-.84 1.9-1.66 3.75-2.34 5.56 16.89-20.7 41.45-47.35 69.59-67.14 4.18-2.93 9.38-5.99 14.66-8.63 1.1-.55 2.24-1.14 3.39-1.74 9.02-4.67 19.26-9.98 27.54-5 5.57 3.03 9.32 15.96 8.01 23.39-.32 1.29-.76 2.53-1.2 3.76-.21.59-.42 1.17-.61 1.75 1.91-1.81 3.77-3.67 5.59-5.49 2.94-2.94 5.99-5.99 9.22-8.79 12.16-11.32 24.73-23.02 38.44-32.01 8.1-5.11 17.58-10.74 26.74-13.79 3.92-1.25 7.62-.71 10.71 1.55 3.85 2.81 5.92 7.81 5.92 11.08.36 2.75.57 8.83-.95 12.91-1.91 8.1-8.92 18.79-14.56 27.38l-1.76 2.69c-9.62 15.18-21.27 30.38-32.53 45.07l-14.72 19.22c-1.68 2.24-3.38 4.46-5.07 6.67-3.34 4.36-6.8 8.88-10.19 13.68-2.14 3-4.21 6.33-5.4 8.71-3.93 7.3-6.22 15.33-5.28 16.56 3.88 1.91 13.43-4.18 17.5-6.78l.71-.45c13.94-8.24 25.51-19.13 37.77-30.66 4.01-3.76 8.03-7.55 12.16-11.26 10.85-10.34 20.31-18.25 30.31-26.63 6.78-5.67 13.79-11.53 21.55-18.43.66-.56 1.31-1.24 1.98-1.94 2.23-2.34 5.01-5.24 8.45-4.38l1.09.27.16 1.11c.46 3.17-2.42 5.6-4.72 7.56-.62.53-1.22 1.02-1.7 1.51-9.61 9.16-18.1 16.24-26.3 23.08-7.58 6.32-15.42 12.86-24.32 21.16-4.18 3.83-8.35 7.79-12.57 11.81-6.08 5.78-12.37 11.75-18.92 17.54-11.7 9.83-23.11 19.05-34.42 24.08-3 1.31-5.65 1.97-8 1.97zm-5.45-5.83c1.81 2.06 4.82 4 12.08.82 10.91-4.85 22.12-13.91 33.6-23.55 6.47-5.73 12.74-11.68 18.79-17.44 4.24-4.03 8.42-8 12.6-11.84 8.96-8.36 16.84-14.92 24.45-21.27 8.03-6.7 15.65-13.06 24.44-21.33-7.4 6.55-14.15 12.2-20.68 17.66-9.97 8.34-19.38 16.22-30.19 26.52-4.15 3.72-8.15 7.49-12.14 11.24-11.85 11.15-24.1 22.67-38.31 31.07l-.65.42c-7.37 4.7-15.67 9.49-20.92 6.87-5.55-3.16 3.56-20.25 3.95-20.98 1.25-2.51 3.37-5.93 5.63-9.1 3.42-4.84 6.9-9.38 10.27-13.77 1.69-2.21 3.37-4.41 5.07-6.66l14.73-19.23c11.22-14.64 22.82-29.78 32.37-44.85l1.78-2.71c5.2-7.93 12.32-18.79 14.16-26.53 1.15-3.09 1.26-8.19.82-11.73-.01-2.31-1.43-6.3-4.57-8.6-2.23-1.63-4.82-2-7.72-1.08-8.8 2.93-18.07 8.43-25.97 13.42-13.45 8.82-25.91 20.43-37.97 31.65-3.23 2.8-6.23 5.81-9.14 8.71-2.95 2.95-5.99 5.99-9.22 8.79l-2.3 1.99-.43-3.02c-.34-2.39.59-4.99 1.5-7.51.4-1.12.81-2.25 1.08-3.33 1.14-6.48-2.44-17.65-6.41-19.81-5.48-3.28-12.68-.71-19.6 2.66 2.6-1.02 5.27-1.94 8.03-2.74l1.33-.39.62 1.24c2.23 4.46.21 9.74-2.12 15.84l-.79 2.07c-.09.39-.17 1.01-.27 1.66-.19 1.31-.41 2.79-1.02 4.32-1.47 4.71-4.21 10.14-6.87 15.38-1.17 2.31-2.34 4.6-3.37 6.81-1.07 2.47-2.3 5-3.49 7.47-2.83 5.85-6.03 12.44-5.13 15.07 1.9 1.56 7.7 2.87 11.9.77 5.6-2.55 10.56-11.47 14.92-19.34 2.57-4.62 4.98-8.98 7.47-12.09 3.94-5.38 10.35-11.72 16-17.31l3.25-3.23c12.83-12.01 27.67-25.57 41.9-35.06 6.82-4.81 15.34-10.83 25-11.75l1.25-.12.46 1.18c2.16 5.63-3.88 15.4-10.26 24.93l-.54.81c-.38.79-.73 1.7-1.06 2.54-.55 1.39-1.06 2.71-1.96 3.91l-6.81 8.94c-3.19 4.19-6.22 8.48-9.44 13.02-3.51 4.95-7.13 10.08-10.97 15.04l-2.63 3.47c-8.46 11.15-17.22 22.68-24.51 33.43-5.78 8.68-12.68 19.7-14.63 27.93-.59 1.51-.75 2.84-.94 4.39-.09.73-.18 1.5-.32 2.3-.89 2.72-1.25 4.65-1.25 6.52-.79 7.37 2.11 11.7 5.15 15.51zM201.89 805.11c-2.04 4.77-3.69 9.14-5.44 13.75-1.43 3.77-2.89 7.61-4.6 11.79-.83 2.07-1.56 4.26-2.29 6.45-.76 2.27-1.52 4.55-2.38 6.71-.86 2.16-1.94 4.43-3.03 6.7-1.05 2.2-2.09 4.39-2.93 6.48-.78 3.18-1.65 6.7-3.42 10.69-4.38 10.6-8.17 21.04-12.26 33.83-.86 2.93-2.01 5.9-3.13 8.78-1.62 4.18-3.3 8.51-4.04 12.68-.68 5.14-.26 9 1.18 10.51.33.35.84.8 2.17.71 4.47 0 11.62-7.69 14.84-13.2 2.6-3.9 4.31-8.15 5.96-12.26 1.58-3.92 3.21-7.99 5.56-11.61 1.34-1.91 3.06-4.04 4.94-6.23l.33-4.88c.3-4.48 2.27-8.95 4.37-13.69 1.03-2.33 2.09-4.74 2.94-7.14l4.67-13.59c6.42-14.99 11.74-28.94 15.85-41.58-.55-.98-.36-2.1-.24-2.85.09-.52.16-1.01.07-1.38-.38-1.12-2.21-2.31-4.73-2.99-4.21-1.16-10.44-.89-14.39 2.32zm23.28 48.82c-11.33 11.8-21.13 23.43-28.87 33.22l-.02.02c1.12-1.25 2.25-2.49 3.33-3.68l1.65-1.88c8.07-9.68 15.86-19.03 23.91-27.68zm228.35-19.64c-1.06.68-2.17 1.84-3.19 2.91-.14.14-.27.29-.41.43.26-.23.54-.46.82-.7.96-.81 2.05-1.74 2.78-2.64z"/><path class="st1" d="M403.7 895.47c2.12-8.93 10.63-22.95 16.15-29.75 15.73-22.53 36.98-45.05 60.36-59.5 12.33-8.07 23.8-14.45 38.68-15.3 12.33-.85 14.45 6.38 6.38 18.7-8.93 12.75-22.95 25.93-35.28 35.7-8.08 6.8-16.58 12.33-25.08 17.43-2.98 1.7-6.38 4.25-8.5 3.83-.43-2.12 4.68-4.68 6.8-5.95 15.3-8.93 28.9-19.55 42.08-32.73 5.53-5.53 11.48-11.05 14.88-16.58 5.1-7.22 7.65-15.3 0-14.88-2.98.43-5.53 1.28-8.93 2.98-19.98 10.2-40.38 33.58-56.95 53.55-2.98 3.4-5.52 7.23-8.5 10.63-5.1 6.38-10.2 12.75-14.88 19.55-8.5 13.6-22.1 36.98-7.65 39.1 2.98.43 7.23-.85 10.63-1.7 11.48-2.98 25.08-11.05 35.28-17.85 11.9-7.65 22.1-15.3 32.73-23.38 10.2-8.08 21.25-16.15 31.88-24.23 8.07-5.95 15.3-11.9 23.8-18.28 2.12-1.7 5.1-5.1 8.07-4.68-1.27 3.83-5.95 5.52-8.07 7.23-18.28 15.3-37.4 30.18-56.53 44.2-10.2 7.65-21.25 16.15-33.58 23.8-10.63 6.38-25.5 15.3-36.55 17-5.95 1.27-12.75.85-16.58 0-11.06-3.38-13.61-16.13-10.64-28.89z"/><path class="st1" d="M422.68 926.85c-3.32 0-6.42-.34-8.72-.85-10.88-3.34-15.49-15.46-11.88-30.91v-.01c2.22-9.35 11-23.66 16.48-30.41 17.63-25.26 39.24-46.56 60.77-59.87 11.23-7.36 23.56-14.64 39.46-15.55 6.02-.41 10.02.98 11.88 4.15 2.25 3.85.9 9.61-4.02 17.13-7.85 11.21-20.83 24.35-35.64 36.1-8.77 7.39-18.11 13.26-25.26 17.55-.64.36-1.26.75-1.89 1.14-2.82 1.72-5.46 3.33-7.79 2.9l-1.09-.22-.22-1.09c-.6-3.02 3.41-5.31 6.63-7.15l.95-.55c14.99-8.74 28.64-19.36 41.76-32.48l2.44-2.42c4.62-4.57 9.4-9.3 12.21-13.85 4.13-5.86 5.13-10.04 4.32-11.49-.36-.66-1.28-.97-2.82-.86-2.67.39-5.03 1.18-8.27 2.8-18.81 9.6-38.24 31.21-56.42 53.13-1.49 1.7-2.84 3.47-4.19 5.24-1.41 1.84-2.82 3.68-4.34 5.41-4.95 6.19-10.11 12.65-14.75 19.4-4.06 6.49-16.53 26.43-13.13 33.77.7 1.51 2.12 2.41 4.35 2.74 2.26.32 5.63-.55 8.6-1.32l1.38-.35c9.04-2.34 20.74-8.27 34.76-17.62 11.81-7.6 21.77-15.05 32.65-23.31 6.82-5.4 14.16-10.91 21.26-16.23 3.55-2.67 7.11-5.33 10.61-8 4.35-3.2 8.43-6.39 12.6-9.65 3.61-2.81 7.27-5.68 11.22-8.64.36-.29.79-.67 1.24-1.07 2.19-1.94 4.87-4.38 8.06-3.92l1.97.28-.62 1.89c-1.12 3.37-4.31 5.3-6.63 6.71-.76.46-1.46.87-1.98 1.29-17.57 14.7-36.61 29.6-56.59 44.25l-3.14 2.36c-9.54 7.18-19.42 14.61-30.54 21.51-10.91 6.55-25.81 15.48-37.18 17.24-2.75.59-5.69.83-8.49.83zm-17.36-30.99c-2.41 10.33-1.37 23.59 9.5 26.93 1.65.36 3.9.63 6.39.71-2.41-.73-4.12-2.15-5.09-4.24-3.68-7.95 5.22-23.95 13.37-36.99 4.75-6.91 9.95-13.42 14.99-19.71 1.51-1.74 2.88-3.52 4.24-5.3 1.4-1.83 2.8-3.66 4.31-5.38 18.39-22.16 38.1-44.06 57.45-53.94 3.56-1.78 6.29-2.7 9.45-3.14 3.75-.26 5.34 1.27 6.06 2.55 1.82 3.28-.42 8.37-2.55 11.98.16-.22.32-.44.47-.66 4.03-6.15 5.43-10.99 3.91-13.58-1.45-2.47-5.62-2.72-8.8-2.5-15.11.86-26.54 7.6-37.88 15.04-21.19 13.1-42.45 34.06-59.9 59.06-5.24 6.42-13.84 20.42-15.92 29.17z"/><path class="st0" d="M293.66 1465.39c24.63-6.45 49.47-9.6 74.93-9.51 1.33 0 9.03-2.15 6.36-4.59l-7.66-6.97c-2.48-2.26-11.52 1.42-8.95 3.76l7.66 6.97 6.36-4.59c-27.12-.09-53.73 3.3-79.97 10.17-5.78 1.51-4.54 6.29 1.27 4.76z"/><path class="st0" d="M367.43 1442.26c26.75-77.83 78.64-142 128.99-205.77 52.34-66.3 101.42-135.01 149.65-204.33 50.86-73.1 101.45-146.39 152.17-219.59 23.79-34.34 48.65-68.24 69.41-104.54 19.59-34.24 33.38-70.9 45.13-108.46 12.7-40.63 23.32-82.01 39.18-121.59 13.49-33.66 30.91-65.5 48.35-97.22 33.24-60.45 69.29-123.95 72.71-194.54 1.63-33.74-12.65-44.18-44.07-50.79-42.93-9.03-85.91-17.86-128.86-26.79-39.04-8.12-78.03-16.77-117.42-23.08-44.31-7.1-88.85-8.59-133.56-11.47C468.86 62.5 287.78-36.36 106.79 22.67c-5.72 1.86-4.29 7.73 1.56 5.83 161.27-52.6 322.48 24.52 481.7 46.49 41.76 5.76 83.87 6.38 125.85 9.48 43.1 3.18 85.48 10.89 127.77 19.58 42.69 8.77 85.35 17.73 128.02 26.6 18.61 3.87 37.25 7.64 55.84 11.61 13.06 2.79 27.24 5.76 33.37 19.4 3.89 8.67 2.78 19.87 2.23 29.03-4.36 72.31-43.2 136.9-77.15 198.85-35.23 64.31-58.1 129.48-79.37 199.43-12.04 39.6-25.71 78.59-46.04 114.79-19.72 35.11-43.54 67.8-66.44 100.86-48.28 69.69-96.51 139.41-144.84 209.07-54.06 77.92-109.05 155.03-167.87 229.45-48.9 61.87-97.77 124.61-123.7 200.06-1.34 3.9 8.43 2.77 9.71-.94z"/><path class="st0" d="m285.83 1442.27 99.96-7.56c5.4-.41 7.45-7.49.87-7l-99.96 7.56c-5.4.41-7.45 7.49-.87 7zM303.48 1405.82c22.98 4.46 45.86 5.21 69.06 1.99 5.08-.71 7.61-7.38 1.01-6.47-21.57 3-43 2.57-64.39-1.59-3.77-.72-11.4 4.96-5.68 6.07zM343.09 1371.42c15.5 1.36 31 2.71 46.5 4.07 2.09.18 10.99-3.51 6.25-3.93-15.5-1.36-31-2.71-46.5-4.07-2.09-.18-10.99 3.51-6.25 3.93zM347.76 1339.6h66.52c4.17 0 10.02-6.31 3.52-6.31h-66.52c-4.17 0-10.02 6.31-3.52 6.31zM394.19 1305.84h46.56c3.52 0 10.27-5.3 3.79-5.3h-46.56c-3.52 0-10.27 5.3-3.79 5.3zM400.06 1265.31c27.09 5.92 54.23 8.47 81.95 7.81 5.12-.12 7.72-6.26 1.11-6.11-26.12.62-51.79-1.92-77.31-7.51-3.55-.77-11.39 4.58-5.75 5.81zM444.18 1226.4h59.87c4.02 0 10.08-6.07 3.59-6.07h-59.87c-4.02 0-10.09 6.07-3.59 6.07zM477.35 1182.51c32.31 2.85 63.46-1.5 93.84-12.79 6.18-2.29.73-7.63-4.29-5.77-27.89 10.36-56.63 14.08-86.24 11.47-4.77-.41-9.82 6.52-3.31 7.09zM521.11 1131.08c-9.73-.29-18.35.93-27.65 3.84-2.65.83-6.84 4.48-1.41 4.48 28.33-.03 56.67-.06 85-.08 3.23 0 10.36-4.85 3.91-4.85-28.33.03-56.67.06-85 .08-.47 1.49-.94 2.98-1.41 4.48 7.34-2.3 14.94-3.32 22.63-3.09 3.27.08 10.38-4.67 3.93-4.86zM511.78 1102.87c34.33-3.7 68.66-7.39 102.99-11.09 4.44-.48 8.21-5.46 1.48-4.73-34.33 3.7-68.66 7.39-102.99 11.09-4.45.48-8.22 5.46-1.48 4.73zM554.08 1053.58c29.34 1.56 58.56 1.03 87.83-1.67 5.38-.5 7.44-7.64.86-7.03-28.44 2.63-56.82 3.23-85.35 1.72-4.67-.25-9.85 6.64-3.34 6.98zM560.64 1014.37c26.99 3.26 53.96 4.14 81.11 2.69 5.39-.29 7.48-7.25.9-6.9-26.33 1.41-52.46.5-78.63-2.66-4.65-.55-9.87 6.09-3.38 6.87zM593.32 971.61c3.32 10.72 18.99 7.78 27.56 7.75 20.48-.07 40.96-.15 61.43-.22 2.09-.01 10.91-4.01 6.23-4l-40.96.15c-8.09.03-41.32 4.42-44.63-6.27-.69-2.24-10.28.47-9.63 2.59zM621.85 947.82c24.11-1.57 48.06-.95 72.05 1.83 4.73.55 9.83-6.25 3.34-7a412.42 412.42 0 0 0-74.53-1.88c-5.44.35-7.44 7.47-.86 7.05zM645.72 905.99h73.17c2 0 10.88-3.84 6.28-3.84H652c-2 0-10.88 3.84-6.28 3.84zM682.39 856.32c31.92 1.13 63.62.01 95.38-3.34 4.23-.45 8.38-4.96 1.61-4.24a645.833 645.833 0 0 1-90.87 3.15c-2.4-.09-11.07 4.25-6.12 4.43zM724.83 819.92c25.08.37 50.16.75 75.23 1.12 4.14.06 10.05-6.14 3.54-6.24-25.08-.37-50.16-.75-75.23-1.12-4.15-.06-10.05 6.14-3.54 6.24zM738.99 773.09c26.33 4.72 52.42 4.94 78.84.87 4.23-.65 8.3-5.45 1.56-4.42-24.93 3.84-49.53 3.43-74.32-1.02-2.55-.44-11.2 3.66-6.08 4.57zM756.72 740.41h83.15c3.51 0 10.27-5.29 3.8-5.29h-83.15c-3.51 0-10.27 5.29-3.8 5.29zM783.28 703.66h76.5c3.3 0 10.34-4.96 3.88-4.96h-76.5c-3.29 0-10.33 4.96-3.88 4.96zM796.53 659.99c20.65.38 40.94 2.91 61.06 7.57 2.49.58 11.01-3.37 7.82-4.11-21.41-4.95-42.91-7.58-64.88-7.98-3.03-.05-10.42 4.41-4 4.52zM841.07 612.79c-4.34-1.23-8.68-2.47-13.01-3.7-1.56 1.96-3.12 3.91-4.69 5.87l96.29 13.68c4.11.58 10.05-5.12 3.6-6.04l-96.29-13.68c-2.98-.42-10.11 4.33-4.69 5.87 4.34 1.23 8.68 2.47 13.01 3.7 3.47.98 11.36-4.12 5.78-5.7zM827.64 574.55c32.26 9.59 65.03 13.81 98.66 12.6 3.26-.12 10.32-5.19 3.89-4.96-32.33 1.16-63.78-2.79-94.8-12-2.68-.8-11.34 3.29-7.75 4.36zM848.57 538.37c22 4.61 43.8 2.68 64.84-5.14 6.31-2.34.56-5.45-3.78-3.84-17.97 6.67-36.43 7.75-55.14 3.83-3-.63-11.32 4.02-5.92 5.15zM865.65 494.21c24.05 4.95 47.98 5.49 72.18 1.25 5.03-.88 7.55-7.69.99-6.54-22.58 3.96-45.03 3.81-67.51-.82-3.81-.79-11.39 4.93-5.66 6.11zM888.71 434.4c22.46 3.13 44.93 4.32 67.6 3.44 3.59-.14 10.2-5.74 3.74-5.49-21.94.85-43.69-.17-65.44-3.21-3.07-.42-11.32 4.5-5.9 5.26zM916.67 385.44c24.74 3.04 49.49 4.21 74.4 3.55 5.63-.15 7.29-7.64.74-7.47-24.08.64-48-.52-71.91-3.46-4.97-.61-9.71 6.58-3.23 7.38zM939.55 344.44c25.28-1.61 50.4-.91 75.55 2.06 2.36.28 11.12-3.73 6.15-4.31-25.86-3.06-51.66-3.74-77.65-2.09-2.85.18-10.41 4.74-4.05 4.34zM954.9 306c19.25 2.32 38.45 2.76 57.79 1.32 2.91-.22 10.38-4.95 4.01-4.48-18.63 1.38-37.14.96-55.69-1.27-2.43-.29-11.14 3.82-6.11 4.43zM984.24 261.89l69.85-3.33c5.11-.24 7.73-6.46 1.1-6.14l-69.85 3.33c-5.11.24-7.73 6.45-1.1 6.14zM982.99 225.34c30.2.85 59.81-2.59 89-10.38 5.84-1.56 4.4-7.06-1.47-5.5-27.59 7.35-55.4 10.62-83.94 9.82-4.04-.1-10.1 5.88-3.59 6.06zM990.1 204.27c-.35.23-.7.47-1.05.7l7.68-1.62c-.25-.12 11.58-6.19 13.53-6.97 5.42-2.14 10.84-4.29 16.25-6.43 10.06-3.98 20.12-7.96 30.19-11.94 6.3-2.49.48-4.81-3.6-3.2-12.38 4.9-24.77 9.8-37.15 14.7-6.19 2.45-12.4 4.85-18.58 7.35-1.45.58-7.52 2.38-8.89 4.09-6.15 7.71 4.3 7.62 9.19 4.34 4.25-2.84-5.4-2.48-7.57-1.02zM975.2 182.5c12.36-8.63 24.72-17.27 37.08-25.9 3.92-2.74-5.63-1.55-7.39-.32-12.36 8.63-24.72 17.27-37.08 25.9-3.92 2.75 5.63 1.55 7.39.32zM131.74 51.28c-3.68-22.85 76.78-42.06 94.92-47.66 5.49-1.7 4.82-4.86-.83-3.12-26.03 8.04-51.78 16.89-77.09 26.96-11.73 4.67-29.12 10.94-26.63 26.39.32 2.05 10.04-.04 9.63-2.57zM178.18 45.67c23.04-5.77 44.57-15.05 64.68-27.67 5.51-3.46-2.5-6.56-6.33-4.15-18.68 11.73-38.65 20.15-60.04 25.51-5.96 1.49-4.26 7.8 1.69 6.31zM229.63 50.9c25.46-13.38 50.92-26.77 76.37-40.15 5.69-2.99-3.01-3.64-5.8-2.18-25.46 13.38-50.92 26.77-76.37 40.15-5.69 3 3.02 3.64 5.8 2.18zM271.9 58.73c23.32-13.24 46.64-26.47 69.96-39.71 5.71-3.24.49-7.67-4.1-5.06-23.32 13.24-46.64 26.47-69.96 39.71-5.71 3.24-.5 7.66 4.1 5.06zM323.47 67.04c19.94-19.44 43.31-33.65 69.83-42.21 5.75-1.86 4.25-7.96-1.62-6.06-28.88 9.33-54.43 24.62-76.17 45.82-4.23 4.11 5.13 5.22 7.96 2.45zM359.99 73.37c14.92-14.88 31.29-27.91 49.16-39.07 5.52-3.45-2.8-5.09-6.04-3.07-18.48 11.54-35.47 25-50.9 40.39-4.01 4 5.4 4.12 7.78 1.75zM394.61 88.43c16.58-17.41 35.64-31.67 57.08-42.57 5.88-2.99.58-7.54-4.13-5.15-22.84 11.61-43.24 26.71-60.91 45.26-4.09 4.3 5.21 5.35 7.96 2.46zM427.19 97.42c17.24-13.92 34.48-27.85 51.72-41.77 4.26-3.44-5.3-3.54-7.73-1.58C453.94 68 436.7 81.92 419.47 95.84c-4.27 3.45 5.29 3.54 7.72 1.58zM447.24 115.77c22.96-19.23 45.93-38.45 68.89-57.68 2.17-1.82-6.88-1.02-8.77.56-22.96 19.23-45.93 38.45-68.89 57.68-2.17 1.82 6.89 1.02 8.77-.56zM492.47 122.45c19.94-18.86 39.89-37.72 59.83-56.58 3.9-3.69-5.56-3.09-7.61-1.15-19.94 18.86-39.89 37.72-59.83 56.58-3.91 3.69 5.55 3.09 7.61 1.15zM523.51 143.88c18.73-22.27 37.46-44.54 56.19-66.82 3.81-4.53-5.43-5.21-7.91-2.26-18.73 22.27-37.46 44.54-56.19 66.82-3.81 4.53 5.43 5.21 7.91 2.26zM562.99 143.22c24.96-19.69 48.31-41.1 70.17-64.18 2.67-2.82-6.89-2.21-8.93-.06-21.44 22.62-44.44 43.55-68.91 62.86-4.23 3.33 5.35 3.2 7.67 1.38zM611.59 150.41c19.11-29.89 46.23-52.32 79.05-65.74 6.12-2.5.69-7.49-4.22-5.48-34.98 14.3-63.68 38.41-84.02 70.23-2.81 4.38 6.99 4.43 9.19.99zM650.36 152.52c30.34-26.22 63.87-47.32 100.69-63.25 6.08-2.63.66-7.33-4.15-5.25-37.56 16.25-71.85 37.72-102.82 64.49-4.94 4.26 2.81 7.01 6.28 4.01zM707.11 162.67c34.21-26.6 70.74-49.36 109.7-68.33 5.91-2.88.64-8.08-4.27-5.69-39.7 19.33-76.96 42.51-111.82 69.61-5.16 4.02 2.6 7.36 6.39 4.41zM755.48 158.35a908.427 908.427 0 0 1 94.53-57.39c5.81-3.06.59-8.21-4.26-5.65a930.174 930.174 0 0 0-96.66 58.67c-5.36 3.71 2.5 7.06 6.39 4.37zM808.95 154.65c25.73-22.71 54.03-41.16 85.23-55.45 5.75-2.63-3.28-2.15-5.52-1.13-32.28 14.78-61.8 33.89-88.42 57.39-1.91 1.69 6.97.73 8.71-.81zM863.23 160.83c-8.78-8.83 20.58-22.42 25.82-25.62 10.81-6.6 21.62-13.19 32.43-19.79 4.06-2.48-5.56-1.55-7.41-.41-15.89 9.7-31.79 19.4-47.68 29.11-5.75 3.51-20.2 12.03-12.21 20.05 1.79 1.8 10.66-1.73 9.05-3.34zM893.29 174.54a574.815 574.815 0 0 0 64.64-52.34c3.87-3.63-5.59-2.88-7.58-1.02a575.715 575.715 0 0 1-64.64 52.34c-4.22 2.93 5.42 2.52 7.58 1.02zM946.38 182.53c16.98-15.13 33.96-30.26 50.93-45.39 2.17-1.94-6.92-1.09-8.77.56-16.98 15.13-33.96 30.26-50.93 45.39-2.18 1.94 6.92 1.09 8.77-.56zM221.94 1599.61c-6.75 34.58-30.93 62.67-53.04 90.1-23.72 29.42-46 60-66.75 91.59-20.05 30.54-39.01 62.89-45.67 98.82-6.67 35.92 1.01 76.4 27.74 101.3 14.82 13.8 34.15 21.78 53.7 27.03 28.27 7.59 58.67 9.94 86.64 1.31 47.67-14.69 81.55-60.11 92.71-108.72 11.16-48.62 2.56-99.82-13.06-147.19-18.75-56.86-47.6-110.38-84.79-157.31"/><path class="st0" d="M120.25 2017.76c91.21 65.62 219.71 14.21 242.22-95.38 13.06-63.58 1.89-137.62-16.64-199.11-17.81-59.07-53.94-114.32-115.1-134.13-2.66-.86-9.55 3.04-9.11 3.18 105.48 34.16 130.41 163.6 135.37 260.28 2.8 54.51-5.33 111.82-46.03 151.66-50.3 49.25-125.89 50.4-181.61 10.32-2.06-1.49-10.17 2.41-9.1 3.18z"/><path class="st0" d="M155.62 2021.93c17.99 12.75 37.77 21.3 59.32 25.96 4.81 1.04 9.68-5.74 3.31-7.12-20.07-4.34-38.46-12.61-55.21-24.47-3.56-2.51-11.95 2.42-7.42 5.63zM207.47 2003.31c19.86 16.34 42.1 28.59 66.46 36.79 3.88 1.31 11.33-4.29 5.64-6.21-23.77-8.01-45.26-20.02-64.62-35.94-3.09-2.54-11.64 1.94-7.48 5.36zM246.74 1982.27c17.14 16.5 37.33 28.35 60.09 35.29 3.58 1.09 11.35-4.14 5.74-5.85-21.59-6.58-40.68-17.79-56.94-33.45-2.76-2.65-11.89 1.12-8.89 4.01zM271.71 1960.19c17.62 15.6 40.63 20.92 63.51 16.24 3.88-.79 8.47-5.17 1.73-3.79-20.57 4.21-40.62-2.01-56.18-15.8-1.98-1.75-10.68 1.91-9.06 3.35zM305.97 1919.96c-6.11.57-12.61 6.15-4.4 10.3 6.4 3.24 17.82 2.9 24.96 3.81 10.01 1.27 20.04 2.37 30.08 3.36 2.67.26 11.21-4.26 6.03-4.77-9.33-.92-18.64-1.93-27.94-3.09-2.17-.27-29.36-3.12-26.76-7.16-1.73.8-3.46 1.61-5.19 2.41.58-.05 1.15-.11 1.73-.16 4.45-.42 8.22-5.33 1.49-4.7zM319.18 1885.54h38.08c5.57 0 7.34-7.25.8-7.25h-14.8c-5.57 0-7.34 7.25-.8 7.25h14.8c5.57 0 7.34-7.25.8-7.25h-38.08c-5.57 0-7.33 7.25-.8 7.25zM306.48 1835.08c16.68 4.74 33.76 4.35 50.3-.76 5.64-1.74 4.53-6.42-1.24-4.64-14.41 4.45-28.66 4.4-43.12.3-2.96-.85-11.28 3.58-5.94 5.1zM301.08 1788.31c18.89-.01 37.41-2.47 55.65-7.41 5.76-1.56 4.52-6.39-1.29-4.82-16.62 4.5-33.39 6.75-50.61 6.76-3.63.01-10.23 5.47-3.75 5.47zM295.02 1757.85c13.85-7.17 28.35-11.61 43.86-13.27 4.83-.52 7.89-6.39 1.22-5.68-17.2 1.84-33.62 6.69-48.99 14.65-5.89 3.05-.49 6.58 3.91 4.3zM281.16 1721c.16-4.13.32-8.26.47-12.39-1.86 1.21-3.71 2.42-5.57 3.62 14.25-1.44 28.51-2.89 42.76-4.33 4.42-.45 8.23-5.35 1.5-4.66-14.25 1.44-28.51 2.89-42.76 4.33-1.84.19-5.48 1.31-5.57 3.62-.16 4.13-.32 8.26-.47 12.39-.08 2.35 9.51.84 9.64-2.58zM256.45 1666.08c14.57 4.48 29.42 6.37 44.65 5.73 3.63-.15 10.17-5.84 3.72-5.57-14.53.61-28.59-1.21-42.49-5.48-3.13-.96-11.3 3.66-5.88 5.32zM240.54 1648.65c18.37-4.85 36.96-7.92 55.9-9.27-.52-1.95-1.05-3.91-1.57-5.86-6.93 3.16-13.76 4.91-21.35 5.52-5.22.42-7.6 7.08-.99 6.55 9.39-.75 17.91-2.99 26.48-6.89 4.24-1.93 2.95-6.18-1.57-5.86-19.83 1.41-39.3 4.66-58.52 9.74-5.91 1.55-4.31 7.64 1.62 6.07z"/></svg>