<svg version="1.1" id="Ebene_1" xmlns="http://www.w3.org/2000/svg" x="0" y="0" viewBox="0 0 2048 1849" style="enable-background:new 0 0 2048 1849" xml:space="preserve"><style>.st1{fill:#181716}</style><path d="M9.74 921.17c-14.33 237.93 87.68 480.17 267.92 636.16 159.28 137.85 367.73 205.54 574.91 243.55 199.95 36.68 416.28 46.51 596.68-47.2 70.18-36.46 131.85-87.11 192.15-138.29 89.24-75.74 179.43-157.02 226.53-264.17 36.03-81.96 44.14-173.52 42.64-263.03-5.87-350.93-177.47-716.44-492.66-870.86-124.79-61.14-263.78-86.51-401.48-105.16-131.32-17.78-266.23-29.9-395.29.18s-229.62 79.15-371.65 192.4S24.07 683.23 9.74 921.17z" style="fill:#fff"/><path class="st1" d="M1.12 923.48c-10.05 186.39 48.06 373.28 160.92 521.94 120.74 159.04 299 255.93 487.42 312.54 186.53 56.04 393.5 91.78 587.95 64.4 92.32-13 181.25-42.86 260.58-92.19 86.19-53.6 166.18-123.29 239.21-193.56 70.82-68.13 131.61-146.48 159.17-242.17 27.32-94.86 27.19-197.44 18.06-295.03-16.39-175.35-72.63-348.95-169.51-496.56-96.44-146.94-232.83-261.63-398.43-322.43-99.35-36.48-204.15-55.3-308.65-69.88-110.72-15.45-223.32-27.62-334.99-15.3-176.1 19.43-339.69 103.67-472.31 219.21C98.93 429.1 43.17 623.6 16.09 789.43c-7.25 44.41-12.1 89.14-14.97 134.05-.2 3.09 16.89.91 17.24-4.62 11.15-174.25 51.36-359.5 146.52-508.36C213.4 334.6 281.78 281.29 356 231.7c73.14-48.87 151.86-86.45 236.98-109.06 111.13-29.53 225.21-28.4 338.79-16.37 103.7 10.99 208.2 25.9 309.12 52.63 171.14 45.33 319.77 135.79 431.87 273.47 104.57 128.44 172.52 285.11 205.78 446.76 36.23 176.09 46.8 385.47-56.43 541.31-52.24 78.87-125.07 141.82-196.79 202.35-84.44 71.27-172.35 136.69-279.4 169.36-193.05 58.92-407.3 27.99-599.59-18.88-182.31-44.44-363.02-119.6-497.97-253.73-125.99-125.22-206.59-294.68-226.5-471.03-4.87-43.09-5.82-86.38-3.49-129.66.16-3.14-16.96-.89-17.25 4.63z"/><path class="st1" d="M75.69 940.62c-10.05 186.39 48.06 373.28 160.92 521.94 120.74 159.04 299 255.93 487.42 312.54 186.53 56.04 393.5 91.78 587.95 64.4 92.32-13 181.25-42.86 260.58-92.19 86.19-53.6 166.18-123.29 239.21-193.56 70.82-68.13 131.61-146.48 159.17-242.17 27.32-94.86 27.19-197.44 18.06-295.03-16.39-175.35-72.63-348.95-169.51-496.56-96.44-146.94-232.83-261.63-398.43-322.43-99.35-36.48-204.15-55.3-308.65-69.88-110.72-15.45-223.32-27.62-334.99-15.3-176.1 19.43-339.69 103.67-472.31 219.21C173.5 446.25 117.74 640.74 90.66 806.57c-7.25 44.42-12.1 89.15-14.97 134.05-.2 3.09 16.89.91 17.24-4.62 11.15-174.25 51.36-359.5 146.52-508.36 48.52-75.9 116.9-129.2 191.12-178.79 73.14-48.87 151.86-86.45 236.98-109.06 111.13-29.53 225.21-28.4 338.79-16.37 103.7 10.99 208.2 25.9 309.11 52.63 171.14 45.33 319.77 135.79 431.87 273.47 104.57 128.44 172.52 285.11 205.78 446.76 36.23 176.09 46.8 385.47-56.43 541.31-52.24 78.87-125.07 141.82-196.79 202.35-84.44 71.27-172.35 136.69-279.4 169.36-193.05 58.92-407.3 27.99-599.59-18.88-182.31-44.44-363.02-119.6-497.97-253.73-125.99-125.22-206.59-294.68-226.5-471.03-4.87-43.09-5.82-86.38-3.49-129.66.17-3.14-16.95-.89-17.24 4.62z"/><path class="st1" d="M129.19 833.8c-10.05 186.39 48.06 373.28 160.92 521.94 120.74 159.04 299 255.93 487.42 312.54 186.53 56.04 393.5 91.78 587.95 64.4 92.32-13 181.25-42.86 260.58-92.19 86.19-53.6 166.18-123.29 239.21-193.56 70.82-68.13 131.61-146.48 159.17-242.17 27.32-94.86 27.19-197.44 18.06-295.03-16.39-175.35-72.63-348.95-169.51-496.56-96.44-146.94-232.83-261.63-398.43-322.43-99.35-36.48-204.15-55.3-308.65-69.88C1055.19 5.41 942.6-6.76 830.92 5.56c-176.1 19.43-339.69 103.67-472.31 219.21C227 339.42 171.24 533.92 144.16 699.75c-7.25 44.41-12.1 89.14-14.97 134.05-.2 3.09 16.89.91 17.24-4.62 11.15-174.25 51.36-359.5 146.52-508.36 48.52-75.9 116.9-129.2 191.12-178.79 73.14-48.87 151.86-86.45 236.98-109.06C832.18 3.44 946.26 4.57 1059.84 16.6c103.7 10.99 208.2 25.9 309.11 52.63 171.14 45.33 319.77 135.79 431.87 273.47 104.57 128.44 172.52 285.11 205.78 446.76 36.23 176.09 46.8 385.47-56.43 541.31-52.24 78.87-125.07 141.82-196.79 202.35-84.44 71.27-172.35 136.69-279.4 169.36-193.05 58.92-407.3 27.99-599.59-18.88-182.31-44.44-363.02-119.6-497.97-253.73-125.99-125.22-206.59-294.68-226.5-471.03-4.87-43.09-5.82-86.38-3.49-129.66.17-3.15-16.94-.9-17.24 4.62z"/><path class="st1" d="M60.97 837.87c-10.05 186.39 48.06 373.28 160.92 521.94 120.74 159.04 299 255.93 487.42 312.54 186.53 56.04 393.5 91.78 587.95 64.4 92.32-13 181.25-42.86 260.58-92.19 86.19-53.6 166.18-123.29 239.21-193.56 70.82-68.13 131.61-146.48 159.17-242.17 27.32-94.86 27.19-197.44 18.06-295.03-16.39-175.35-72.63-348.95-169.51-496.56-96.44-146.94-232.83-261.63-398.43-322.43-99.34-36.48-204.14-55.3-308.64-69.88C986.98 9.48 874.38-2.69 762.71 9.63 586.6 29.06 423.01 113.3 290.39 228.84 158.79 343.49 103.02 537.99 75.95 703.82c-7.25 44.41-12.1 89.15-14.98 134.05-.2 3.09 16.89.91 17.24-4.62C89.36 659 129.57 473.75 224.73 324.89c48.52-75.9 116.9-129.2 191.12-178.79C489 97.22 567.72 59.65 652.84 37.03 763.97 7.51 878.06 8.63 991.63 20.67c103.7 10.99 208.2 25.9 309.12 52.63 171.14 45.33 319.77 135.79 431.87 273.47 104.57 128.44 172.52 285.11 205.78 446.76 36.23 176.09 46.8 385.47-56.43 541.31-52.24 78.87-125.07 141.82-196.79 202.35-84.44 71.27-172.35 136.69-279.4 169.36-193.05 58.92-407.3 27.99-599.59-18.88-182.31-44.44-363.02-119.6-497.97-253.73-125.99-125.22-206.59-294.68-226.5-471.03-4.87-43.09-5.82-86.38-3.49-129.66.16-3.15-16.96-.9-17.26 4.62z"/><path d="M394.24 1187.82v-2.66c.66 0 .66-.65 1.32-1.32 1.33-1.99 2.65-4.64 3.98-7.29 1.99-3.98 4.64-7.29 7.29-11.26 1.99-3.98 4.64-7.29 7.29-11.26.66-.66.66-1.33 0-2.65.66 0 .66 0 .66-.67 3.31-4.64 6.62-9.28 9.93-14.57 1.99-2.66 4.64-5.97 6.63-8.62 1.99-2.65 3.98-5.96 5.3-9.27.66 0 .66 0 .66-.66.66-.67 1.32-1.99 1.99-2.66 1.32-1.32 1.98-2.65 2.65-3.96 1.32-1.99 3.31-3.32 3.98-5.97l.66-.66s.66-.65 1.32-1.32c1.99-3.98 4.63-8.62 7.29-12.59 3.98-6.62 8.61-13.24 12.58-20.53 4.64-6.62 9.27-13.92 13.91-20.54 0-.66.66-.66.66-1.32 1.32-1.99 2.65-3.98 3.98-6.64 1.99-1.98 2.65-4.63 3.98-6.62 1.32-1.98 3.31-3.98 3.98-6.62v-.66c1.32-1.98 2.65-3.98 3.98-5.96 1.98-3.31 3.31-5.97 5.3-9.28 1.32-1.32 1.99-3.31 3.31-4.63.66-1.33 1.32-2.66 2.65-3.32V1003c0-.66.66-.66.66-1.33.66-.66 1.32-1.98 1.99-3.31.66-1.33 1.32-2.65 2.65-3.98v-.66c.66-.65.66-1.98 1.32-2.65.66-1.33 1.32-2.65 1.99-3.31.66-.66 1.32-1.33 1.32-1.98 0-.66.66-1.33.66-1.99.66 0 .66-.66 1.32-1.33 0-.65.66-1.32.66-2.65 1.99-2.65 3.97-5.96 5.3-9.27 1.99-2.66 3.31-5.31 4.63-7.95 1.99-1.99 2.65-4.64 3.98-7.29v-.66c3.98-7.29 7.29-14.57 11.26-21.86 0 0 0-.66.66-1.33h-.66c-1.99 1.33-3.98 3.31-5.3 4.64-3.31 3.31-6.63 5.96-9.27 9.27-1.99 1.33-3.98 3.32-5.96 4.64-.66.66-1.32 1.33-1.99 1.99-2.65 1.98-5.3 4.63-8.61 7.29-1.32 1.32-3.31 2.65-4.64 3.98-3.97 2.65-7.94 4.63-11.92 5.29-1.32.66-1.99.66-2.65.66-6.62 2.65-12.58 1.98-18.55.66-.66-.66-1.99-.66-2.65-.66-3.98-.66-7.29-1.33-9.94-2.65-5.96-2.66-11.92-5.97-16.56-10.6-.66-.66-.66-.66-1.32-1.33-.66-.66-1.99-1.33-2.65-2.65-3.98-3.98-7.29-8.62-9.27-13.92-.66-3.31-1.99-5.96-3.31-8.6-1.99-2.65-3.31-5.97-3.98-9.28-.66-3.31-.66-5.96-1.32-8.6-.66-2.66-.66-5.31-.66-8.62.66-1.98.66-3.98.66-5.96.66-4.64 1.32-9.95 2.65-15.24 1.99-7.29 4.63-13.91 7.94-21.21 1.33-2.65 1.99-5.96 3.31-9.27 0-1.33.66-1.98.66-3.31.66-.66.66-1.33 1.32-1.99.66-1.98 1.33-3.31 1.99-5.29.66-1.99 1.99-4.64 2.65-7.29l.66-.66c.66-1.98 1.98-3.98 2.65-5.96.66 0 .66-.66.66-.66 1.32-.66 1.32-1.33 1.32-1.99.66-1.32 1.32-1.98 1.32-2.65.66-1.33 1.33-2.65 1.99-3.31.66-.66.66-1.33 1.32-1.98 2.65-4.64 5.96-9.28 8.62-13.92 0-.66 0-1.32.66-1.98 1.99-2.65 3.32-5.31 5.31-7.95 7.94-15.24 15.89-30.47 23.85-46.36 3.97-8.62 7.94-17.9 11.26-27.16 1.32-3.98 2.65-7.95 3.31-12.59.66-3.98 0-7.29-3.31-9.27-1.33-1.33-2.65-1.99-3.98-3.31h-.66c-.66 0-1.32-.66-1.32-1.33 0 0-.66-.66-.66-1.33.66-1.32 1.99-2.65 3.98-3.96 1.99-.66 3.98-1.33 5.96-1.33 3.31-.66 5.96-.66 9.27-.66 4.63 0 9.27.66 13.91 1.33 7.29 1.98 13.91 4.63 21.2 8.6 1.99 1.33 3.98 2.66 5.96 3.98 7.95 3.31 13.91 8.62 19.21 15.24 3.98 4.64 7.29 10.6 8.61 16.57.66 3.98 1.33 7.95 1.33 11.26 0 9.27-1.99 17.88-6.63 25.83 0 0 0 .65-.66 1.32-1.99 5.31-4.64 10.6-7.95 15.24-4.64 7.95-9.94 15.9-14.57 23.19-9.27 14.57-18.55 28.48-27.82 43.05-10.6 15.9-20.54 33.12-29.14 50.35 0 .65-.66 1.32-.66 1.98.66 0 .66 0 .66-.66 2.65-.66 5.3-1.98 7.94-3.98.66-.66 1.99-1.98 3.32-2.65 9.93-8.62 19.87-17.22 29.14-25.17 1.32-1.33 1.99-2.65 3.98-2.65 1.32-1.33 1.99-1.99 3.31-3.32.66 0 .66-.65 1.32-1.32 5.3-3.98 10.6-8.62 15.89-13.91.66-.66 1.99-1.33 2.65-2.66 2.65-1.98 5.3-4.63 7.29-6.62 11.93-12.59 23.85-25.83 35.77-38.42 5.3-5.96 10.6-11.91 14.57-18.53 2.65-3.98 5.3-7.3 7.94-11.26 2.65-3.98 5.31-8.62 7.29-13.26 0-.66.66-1.32 1.32-1.98 3.31-5.31 5.96-9.95 8.61-15.24 1.99-3.98 3.98-7.95 5.96-11.26 6.62-11.26 11.92-23.19 15.89-35.77 0-.66.66-1.99 1.33-2.66 1.32-3.31 3.31-5.96 4.63-8.6h1.99c.66 0 .66.65 1.32.65 5.3 0 10.6 1.33 15.24 2.66 12.58 3.31 20.54 11.26 23.18 23.84 0 1.99 0 3.31.66 4.64v9.93c-.66.66-.66 1.33-.66 1.99-1.32 6.62-3.31 13.24-5.96 19.21-.66 1.98-1.33 4.63-1.99 6.62-1.99 9.27-4.64 18.55-7.95 27.81-4.63 11.93-9.94 23.19-15.89 34.45-1.33 1.98-2.65 4.64-3.32 6.62-.66 4.64-2.65 9.28-5.3 13.24-4.63 7.95-9.27 16.57-13.91 24.52-5.96 10.6-11.93 21.19-17.22 32.45-9.93 18.55-19.21 37.76-28.48 56.31-.66 1.32-.66 3.31-1.33 4.64 0 .65-.66 1.32-.66 1.98-3.98 7.29-7.95 14.57-12.58 21.86-3.32 5.31-5.96 10.6-9.27 15.9-.66 1.32-1.33 3.31-2.65 4.63-8.61 16.57-17.22 32.47-25.83 48.36 0 .66 0 1.33-.66 1.33-1.99 1.98-2.65 4.64-3.97 7.29-1.33 2.65-3.32 5.31-5.31 7.95-8.61 11.93-17.22 23.84-26.49 35.77-6.63 9.93-13.91 19.88-20.54 29.81-4.64 5.96-9.94 11.93-15.24 17.88-3.31 3.98-7.94 7.29-11.92 11.26-1.99 1.99-3.98 3.98-5.3 5.97-1.33 1.32-1.99 2.65-3.32 3.31-2.65 2.65-5.96 5.29-8.61 7.94-5.3 3.98-10.6 7.3-17.22 9.95-3.31 1.32-6.62 2.65-9.93 3.98-5.3 1.32-10.6 2.65-15.9 3.31-.66 0-1.32.67-2.65.67h-8.62s0-.67-.66-.67h-13.92c-1.99 0-3.97-.66-5.3-2.65-.62.02-1.29-.65-1.29-.65zM709.52 871.85v-1.98s.66-.66.66-1.33c-.66-.65-.66-1.32 0-1.32-.66-1.33-.66-1.99 0-2.66 0-2.65 0-4.63.66-6.62 0-1.98.66-3.31.66-4.64 0-1.98.66-3.31.66-4.63 0-1.99 0-3.31.66-4.64 0 0-.66-.66-.66-1.33-.66-.65-1.32-1.98-.66-3.31.66-.66 1.32-1.98 1.32-2.65 1.99-6.62 4.63-13.24 7.29-19.21 3.31-8.6 7.29-17.22 11.26-25.83 4.63-8.6 9.94-16.55 15.24-24.5 6.62-9.93 14.57-19.88 22.52-27.83 3.98-3.98 7.29-7.94 11.26-11.91 2.65-2.66 5.3-5.31 8.62-7.29.66-.66 1.32-1.33 1.99-1.33 3.97-3.31 8.61-6.62 13.24-9.93 3.32-2.66 6.63-4.64 10.6-6.64.66-.65.66-1.32 1.32-1.98 0-.66.66-1.33 1.99-1.33 3.98-1.98 7.95-3.31 11.92-5.29 6.63-2.66 13.25-5.31 20.54-7.95 3.31-1.33 7.29-1.33 11.26-2.65 2.65-1.33 5.3-1.33 7.95-1.99 1.99-.66 3.98-.66 5.96-.66 7.94-1.32 15.23-2.65 22.52-3.31 1.99-.66 3.98-.66 5.96-1.32h11.93c1.32.65 1.99.65 3.31.65 11.92 2.66 22.52 7.95 31.13 16.57 3.98 3.98 7.29 8.62 9.27 13.91.66 3.98 1.99 7.95 3.31 11.26.66 3.98 1.32 7.95 1.32 11.93.66 4.64 0 9.27-.66 13.91-.66 4.64-1.99 9.93-2.65 15.24V768.52c-.66 0-.66 0-.66-.65v3.31c-.66 1.98-.66 3.98-1.33 5.96 0 1.33 0 2.65-.66 3.31v.66c0 .66-.66 1.33-.66 2.65v.66c-.66 1.33 0 1.99-.66 2.65v1.32c-.66 1.33-.66 2.65-1.32 3.98 0 1.33-.66 2.65-1.32 3.98v.66c0 1.32-.66 2.65-1.32 3.31 0 1.32 0 1.98-.66 2.65v.66c-.66 1.98-1.32 3.31-1.32 4.64-.66 1.98-1.33 3.31-1.99 4.63v.66c-.66 1.33-1.33 3.31-1.99 4.64-1.33 2.65-2.65 5.96-3.31 8.62-.66 1.32-1.33 2.65-1.99 3.98-.66 1.32-1.33 1.98-1.33 3.31-.66 1.32-1.32 3.31-2.65 4.63-.66 1.99-.66 3.32-1.99 4.64v.66c-.66 1.33-1.32 2.65-1.99 3.98-1.32 2.65-2.65 5.96-3.98 9.27-.66.66-.66 1.33-1.32 1.99-.66 1.98-1.32 3.98-2.65 5.96-1.32 3.31-2.65 5.97-3.98 9.28 0 .66-.66.66-.66 1.98v.66c-.66 1.33-1.33 2.65-1.99 3.31 0 .66-.66.66-.66 1.33-.66.66-.66 1.32-1.32 1.98-.66.66-.66 1.99-1.32 2.65 0 0-.66 0-.66.66 0 1.33-.66 1.99-1.32 3.31-1.33 1.99-1.99 4.64-3.31 6.64-1.99 1.98-3.32 4.63-4.64 6.62-.66.66-.66 1.32-1.32 1.98 0 .66-.66 1.33-1.33 1.99 0 1.32-1.32 2.65-1.98 3.98-.66 0-.66.65-1.33.65 0 1.33-.66 1.99-1.32 2.66-.66.66-1.32 1.32-1.99 2.65-.66 1.33-1.32 2.65-2.65 3.98-.66.66-1.33 1.33-1.99 1.98 0 .66-.66 1.33-1.33 1.99l-.66.66c-.66.66-.66 1.32-1.33 1.32-.66 1.33-1.99 2.66-3.31 3.98-.66.66-1.32 1.33-1.99 2.66-.66.65-1.99 1.32-2.65 2.65 0 .66-.66.66-1.33 1.32-.66 1.33-1.32 1.99-1.99 2.66-.66.66-1.32 1.32-1.32 2.65-.66.66-1.32.66-1.99.66 0-.66 0-.66-.66-.66l-.66.66h-.66v.66c-.66.65-1.32 1.32-1.99 1.98-1.98 1.33-3.31 2.65-5.3 3.98h-.66c0 .66-.66 1.33-1.33 1.33l-1.32 1.32c-.66.66-1.32.66-1.99 1.33-1.32.66-3.31 1.33-4.63 2.65-.66 0-1.33.66-1.99 1.33-.66.66-1.32.66-1.99 1.33-.66 0-1.32 0-1.99.65-.66.66-1.99 1.33-2.65 1.33-3.31 1.98-6.62 3.31-9.27 4.64-3.31.66-6.62 1.98-9.27 2.65-3.31.66-5.96 1.33-8.61 1.98-1.32.66-2.65.66-4.63 1.33h-1.33c-1.32 0-2.65.66-3.31.66-1.32 0-1.99 0-2.65.66-1.33.66-3.32.66-4.64.66-1.32 0-1.99 0-2.65-.66h-7.29c-1.32-.66-2.65-.66-3.97-.66-1.99-.66-3.98-.66-5.96-1.33-2.65-.66-5.3-1.32-8.61-1.32-1.33 0-2.65-.66-3.98-.66-1.33-.66-1.99-1.33-1.99-1.99l-.66-.65c-3.31 0-5.96-1.33-8.61-1.99-3.98-1.33-7.29-3.31-11.26-5.29-4.64-1.99-9.27-5.31-13.25-9.28.66 0 .66-.66.66-.66-1.33 0-1.33 0-1.99-1.32l-.66-.66c-.66-.66-.66-1.33-1.99-1.33v-.66c0-.66.66-.66.66-.66-1.99 0-1.99-1.32-3.31-2.65 0 0 .66 0 .66-.66-1.32 0-1.99-1.32-1.99-2.65 0 0 0 .66-.66.66 0-.66 0-.66.66-.66-1.32-.66-1.98-1.98-2.65-2.65 0-.66-.66-1.33-.66-1.99-.66-1.32-1.32-1.98-1.99-2.65-.66-1.98-1.32-3.31-1.99-5.29l-.66-.66c-1.33-3.31-1.99-5.97-3.31-8.62-.66-1.33-.66-3.31-.66-4.64 0 0 0-.66-.66-.66 0-.65-.66-1.32-.66-2.65v-1.32c0-.66-.66-.66-.66-1.33 0-.66 0-1.33-.66-1.99v-5.29c-1.32 0-.66-1.33-1.32-1.99V894.44c-.66-.65-.66-1.32-.66-2.65v-.66c0-1.32 0-2.65-.66-3.98v-5.29s1.32 0 .66-.66h-.66c0-.66 0-.66.66-1.33l-.66-.66c0-.65.66-.65.66-.65 0-.66-.66-.66-.66-.66v-2.65l.66-.66h-.66v-.66l.66-.66c-.67-.09-.67-.75-.67-1.42zm124.53 8.62c-.66 0-.66 0 0 0v-.66c0-.66.66-.66 1.32-.66v-1.32c.66 0 .66 0 .66-.66.66-.66.66-.66 1.32-1.33 0-.65 0-1.32.66-1.32v.66h1.32l-.66-.66v-1.32c1.32-.66 1.99-.66 1.99-1.98h.66c-.66 0-.66-.66-.66-.66h1.32s-.66-.66 0-.66c0-1.33.66 0 1.32 0 0-.66.66-.66.66-.66-.66 0-.66-.66-.66-1.32h.66c-.66-.66.66-1.99.66-2.66l.66.66h1.32c-.66 0-1.32 0-.66-.66 0-.66 0-1.32.66-1.32 0 0-.66 0-.66-.66h.66c.66 0 .66-.66 1.33-.66-.66-1.33 0-1.99.66-2.65 0-.66.66-1.33 1.33-1.33h.66s-.66 0-.66-.66c.66 0 0-1.32.66-1.32l.66.65c-.66-1.32-.66-1.98 0-1.98.66-1.33 1.32-1.99 1.99-3.31.66 0 .66-.66.66-.66 0-.66.66-.66.66-1.33.66-1.98 1.32-3.31 2.65-4.63.66-.66.66-1.33.66-1.33.66-1.33.66-1.98 1.33-2.65 0-.66.66-.66 1.32-1.33v-.66c0-.66.66-1.32.66-1.98.66-.66 1.33-1.99 1.99-2.66v-1.31c.66-.66 1.33-.66 1.33-1.33v-.66l.66-.65c0-.66 0-.66.66-1.33l.66-.66v-.66l.66-.66c0-.65 0-1.98.66-1.98.66-.66.66-1.33 1.32-2.65-.66-.66 0-.66.66-.66 0-.66.66-1.33 0-1.33.66-.66.66-.66.66-1.32 1.33-.66.66-1.33 1.33-2.66v.66-1.32s0-.66.66-.66h.66-.66c.66-.66.66-1.33.66-1.99.66 0 .66-.66.66-1.32.66 0 .66-.66.66-.66-.66-1.33.66-1.33 1.33-1.99 0-.65-.66-.65-.66-.65.66 0 .66-.66.66-.66 0-.66.66-.66.66-1.33 0-.66 0-.66.66-.66v-.66h-.66c.66 0 .66-.65.66-.65 0-.66.66-.66.66-.66v-.66l.66-.66-.66-.66c.66-.66 1.33-.66 1.99 0l-1.32-1.32h1.32c0-.66 0-1.33-.66-1.33 1.32-.66 1.32-.66 2.65-1.33h-1.32v.66c0-.66-.66-.66-.66-.66v-.65h1.33c0-.66 0-1.33-.66-1.99h.66c.66 0 .66.66.66.66v-1.99h-.66c.66-.65 1.32-1.98 1.32-2.65.66 0 .66-.66 1.32 0 0 .66 0 0 .66 0-.66-.66-1.32-.66-1.32-1.32h1.32v-.66c-.66 0-.66-.66-.66-.66 0-1.33 0-1.99.66-2.65v-.66c.66.66.66 0 1.32 0v-.66H885c.66 0 .66-.66.66-.66s-.66 0-.66-.66c.66 0 .66-.65 1.98-1.32-.66 0-1.32 0-1.32-.66h.66v-1.99c.66-.65.66-.65.66-1.32h.66-.66c.66-.66.66-1.33.66-1.99l.66.66v-.66h-.66c0-.66 0-.66.66-.66 0-1.32 0-1.98.66-2.65v-.66c.66-1.32.66-1.98.66-2.65h1.32c-.66-.66-.66-.66-.66-1.33 0-.65.66-.65.66-1.32-.66-1.33 0-1.99.66-3.31v-.66c0-1.33 0-2.65 1.32-3.98v-.66c0-1.32 0-3.31.66-4.64v-2.65c.66-4.64 1.32-9.27.66-14.57v-5.96h-.66c0 .66-.66.66-.66.66-6.62 2.65-13.25 5.96-19.21 9.93-11.26 7.29-21.86 16.55-31.13 26.5-16.56 18.55-30.47 39.08-41.74 61.6-5.96 12.59-11.26 26.5-13.91 40.41-1.33 4.64-1.99 9.93-2.65 15.24v7.95c.66 7.29 1.99 14.57 3.98 21.86.66 1.98 1.32 3.98 1.99 5.96h.66c3.31-1.98 6.62-3.98 9.93-5.29 3.31-1.99 5.96-3.98 9.27-5.97l.66-.66c-.66-.65 0-1.32 0-1.32 2.65-1.99 4.63-4.64 6.62-7.29 1.32-.66 1.99-1.99 2.65-3.31.66 0 .66-.66 1.32-.66 0-.66 0-1.33 1.32-1.33-.66-.66 0-.66.66-1.32 0-1.33.66-1.33 1.32-1.99 0-.66 1.33-1.98 1.99-1.98.66-1.33.66-1.33 1.32-1.99v.66c.66 0 .66-.66 1.33-1.33-.66 0-.66 0-.66-.66l.66.66v-1.32l.66.65c0-.65 0-1.32.66-1.98 0 .66.66.66 1.32.66l-.66-.66s0-.66.66-.66h-1.32c.66-.66 1.32-1.32 1.99-1.98h-.66 1.33c.77-.8.77-.8.77-1.46zm-48.36 90.74h1.33c0-.65-.66 0-1.33 0zm43.06-83.46h-.66c0-.66.66-.66.66-.66v.66zm0 1.33h.66v-.66c-.66 0-.66.66-.66.66zm2.65 72.86h-.66.66zm1.99-78.83h-.66.66zm-.66 2.66h.66-.66zm3.97-7.28h.66-.66zm.66-.67v-.66.66h.66-.66zm.67-1.33v-.66.66zm.66-1.98v.66-.66zm.66-.66v-.66.66zm3.97-6.63v.66-.66zm1.33 94.72v-.66.66zm.66-93.4v-.65.65zm1.32 92.07h-.66.66zm-.65 0v.66-.66zm1.98-98.03c-.66 0-.66-.66-.66-1.33 0 .67 0 .67.66 1.33zm1.99-4.64v.66l-.66-.66h.66zm13.91 91.41v.66c-.66 0-.66 0-.66.66-1.32.66-2.65 1.33-3.97 1.99-1.33.65-1.99 1.98-3.98 2.65v.66c1.32-.66 1.99-1.33 3.31-1.99 1.99-1.32 3.98-3.31 6.62-4.64h-.66c-.66 0-.66.66-.66.66v-.65zm-4.63-106.64s-.66 0-.66.66c.66 0 .66 0 .66-.66zm5.95 106.64.66-.65c.66 0 .66-.66.66-.66s-.66 0-.66.66v-.66c.01.66-.66.66-.66 1.31zm.67-.65v-.66.66zm1.32-1.33h-.66v.66c0-.66 0-.66.66-.66v.66-.66zm.66-.66h-.66.66zm4.64-3.31h-.66.66zm6.63-142.41v-.66.66zm1.98-5.97h.66-.66zm2.65-5.96-.66.66v-.66h.66zm1.99 129.17-.66.66h.66v-.66zm8.61-17.89h1.32l-.66-.66v.66h-.66zm21.2-15.23v.66c-.66 0-1.32.65-.66.65-.01 0 .66-.65.66-1.31zm3.97-15.9v-.66.66zm.66 0h-.66v.66l.66-.66zm.66-1.99h.66v-.66c-.66 0-.66 0-.66.66zm.67 5.96v-.66.66c-.66.66-.66.66-.66 1.33-.01-.66.66-.66.66-1.33zm32.45-74.85v.66-.66zm5.97-34.44c-.66 1.98-.66 3.98-.66 5.29.66-1.31.66-3.31.66-5.29zM1296.39 834.76v3.98c0 .66-.66 1.33-.66 1.99-.67 2.65-1.99 4.64-3.31 7.29-9.94 17.22-19.88 35.1-29.81 53-3.31 5.29-7.29 11.25-11.26 16.55-4.64 5.96-9.27 12.59-13.25 19.21-3.98 6.62-9.27 12.58-15.24 16.55-5.3 3.98-11.26 7.29-16.56 9.95-1.99.65-3.98 1.32-5.3 2.65-7.94 3.31-15.89 5.96-25.17 6.62-5.96 0-12.58-.66-18.55-3.31-7.29-2.65-13.25-6.62-18.55-11.93-8.61-8.6-14.57-19.21-18.55-31.12-2.65-11.26-3.31-22.52-1.99-33.78.66-7.95 1.99-15.24 3.98-22.52 3.31-11.26 6.62-22.52 9.27-33.78.66 0 .66-.66.66-1.33-.66 0-.66 0-.66.66-1.99 1.99-3.31 3.98-5.3 6.64-.66.65-1.99 1.98-3.31 3.31-1.99 3.31-3.98 5.96-5.96 8.6-3.98 4.64-7.95 9.95-11.26 14.57-3.31 3.98-5.96 7.29-8.61 11.26-2.65 3.31-5.31 7.29-8.62 10.6-8.61 10.61-17.22 20.54-26.49 30.47-4.64 5.31-9.94 10.6-14.57 15.24-1.33 1.98-2.65 3.31-4.64 4.64-1.99 1.98-4.63 3.31-6.62 5.29-3.32 1.99-6.63 3.98-9.94 5.31-3.31 1.33-7.29 3.31-10.6 3.98-2.65.66-4.64.66-6.63 1.32-1.32 0-2.65.66-4.63.66H993c-2.65-.66-5.96-.66-8.61-.66-4.64-.65-9.27-1.98-13.91-3.96-.66 0-1.32-.66-1.99-1.33-2.65-1.33-5.3-2.65-7.94-4.64-7.29-4.64-12.59-10.6-16.56-17.88-3.32-5.31-5.3-11.93-6.63-18.55 0-.66 0-1.33-.66-1.98v-13.26c.66-1.32.66-1.98.66-3.31.66-1.33.66-2.65.66-3.98 1.32-7.95 2.65-15.9 5.3-23.84 2.65-8.62 5.96-16.57 8.61-25.18 9.94-26.48 22.52-52.32 36.44-76.84 7.94-14.57 16.56-29.14 26.49-42.39 4.64-6.62 9.27-12.59 13.91-19.21 3.31-5.31 6.62-10.6 10.6-15.9v-.66c3.31-5.29 7.29-9.93 11.26-14.57 1.99-3.31 1.99-2.65 5.3-3.98h3.31c3.98.66 7.29 2.66 10.6 3.98 6.63 3.32 11.93 7.29 17.22 11.93 9.94 8.62 19.87 17.23 29.81 25.83 1.99 1.99 3.98 3.98 5.3 5.97 1.32 1.32 1.99 3.31 1.32 5.29-.66 1.33-1.32 3.31-.66 4.64 0 1.98-.66 3.98-1.99 5.96-2.65 3.31-5.96 7.29-8.62 11.26-4.63 5.97-9.93 11.93-15.23 18.55-7.29 8.62-13.25 18.55-19.88 27.83-14.57 19.86-28.48 39.74-41.06 60.93-9.94 15.24-19.88 31.79-27.82 48.36-1.33 1.98-1.99 3.98-2.65 5.96h-.66.66c.66 0 1.32 0 1.32-.65 1.99-1.33 4.64-2.66 6.63-4.64 2.65-1.99 5.96-4.64 8.61-7.29 12.58-9.95 23.85-19.88 35.11-30.47 4.64-3.98 9.27-7.95 13.25-11.93 5.3-5.29 9.94-9.93 14.57-15.24 3.98-3.98 7.29-7.94 11.26-11.91 1.32-1.99 3.31-3.98 5.3-5.97 12.58-11.26 24.51-23.84 36.43-35.77 7.95-7.95 15.9-16.57 24.51-24.5 9.27-9.95 19.21-18.55 29.81-26.5 3.98-2.65 7.95-5.97 11.26-8.62.66-.66 1.32-1.33 1.99-1.98 1.32-.66 2.65-1.99 3.98-1.99 1.32-.66 1.98-.66 2.65-1.32 6.62-1.99 13.91-3.32 20.54-3.32 6.62.66 13.91 1.33 19.87 2.66 9.94 1.98 19.21 5.96 27.82 10.6 3.31 1.98 5.3 3.98 7.29 6.62 1.32 1.33 1.99 3.31 1.99 4.64v1.98c.66 3.31 0 6.62-1.99 9.95-1.32 1.98-2.65 3.96-3.98 5.29-3.98 3.98-6.62 8.62-9.93 13.26-4.64 7.94-9.27 15.89-14.57 23.17-7.95 11.93-15.24 23.85-23.19 35.11s-14.57 23.17-21.19 35.77c-6.63 13.91-11.93 27.81-14.57 43.05-.66 1.99-.66 3.31-1.33 5.31 1.33 0 1.99-.66 2.65-.66 7.95-4.64 15.24-10.6 22.52-15.9 17.88-13.24 33.78-28.48 47.03-46.36 1.32-1.98 2.65-3.98 4.64-5.96 1.99-2.66 3.97-5.31 6.62-7.29 3.31-1.99 6.62-3.32 10.6-2.66 1.33.66 1.99.66 1.99 1.99.67.66.67 1.32.67 1.98-.01.63.65 1.29.65 2.61zM1371.49 879.42v-2.08c1.03-5.17 1.03-10.35 3.1-15.52 2.08-3.12 4.15-7.25 7.25-10.37 1.04 0 1.04-1.02 1.04-1.02 1.03-1.04 1.03-2.08 3.11-2.08 1.03-1.04 2.07-1.04 4.13-1.04 2.07-1.04 5.17-2.06 8.28-3.1h4.15c2.07 0 5.17-1.04 8.28-1.04 3.11-1.04 7.24-1.04 11.39-1.04 8.28-1.04 16.56-2.08 24.84-3.1 2.08 0 3.11 0 4.15-1.04 2.07 0 3.11-1.04 4.13-1.04 4.15 0 8.29-1.04 12.42-1.04 1.04-1.04 1.04-1.04 2.07-1.04h5.18c5.17 0 11.39-1.02 16.56-1.02 2.07 0 4.13-1.04 6.21-1.04 4.13-1.04 8.28-1.04 12.41-1.04 0-1.04 1.04-1.04 2.08-1.04 2.07 0 3.11 0 4.13-1.04h1.04-1.04v-1.04c1.04-1.02 1.04-2.06 2.08-3.1v-2.08c1.03 1.04 1.03 1.04 2.07 1.04-1.04-1.04-1.04-1.04-2.07-2.06 1.03 0 2.07-1.04 2.07-2.08h1.03l-1.03-1.04h2.07c-1.04-1.04-1.04-1.04-1.04-2.08l1.04 1.04v-3.1l1.04 1.04v-2.08h-1.04v-1.04c1.04 0 1.04 1.04 1.04 1.04 1.03-1.04 1.03-1.04 1.03-2.08-1.03 0 0-1.04 0-2.06h1.04c0-1.04-1.04 0 0-1.04v-1.04h1.04-1.04c0-1.04 1.04-2.08 2.07-4.13 0-1.04 0-1.04 1.04-1.04v-3.12l1.04-1.02c0-1.04 1.03-2.08 1.03-3.12s0-1.04 1.04-2.06c-1.04-1.04 1.03-5.2 3.11-5.2 0-1.02 0-1.02-1.04-1.02 1.04 0 1.04 0 1.04-1.04s1.03-1.04 2.07 0h-1.04c0-1.04 0-1.04-1.03-2.08h2.07-1.04v-1.04h1.04v-1.02c0-1.04 1.04-2.08 2.07-3.12-1.03 0-1.03-1.04 0-1.04h1.04c0-1.04 0-1.04-1.04-1.04l1.04-1.02v-1.04h1.04v-2.08h1.03-1.03v-1.04h1.03-1.03c0-1.02 1.03-1.02 2.07-1.02 0-1.04-1.04-2.08 0-2.08 1.04-1.04 1.04-2.08 2.07-3.12h1.04l-1.04-1.02h2.07-2.07v-1.04h2.07-1.03v-1.04h2.07v-1.04h-1.04c0-1.04 1.04 0 1.04 0v-2.08c0 1.04 1.04 1.04 1.04 1.04v-1.04c0-1.02-1.04-1.02-1.04-1.02 0-1.04 1.04-1.04 2.07-2.08h-1.03c0-1.04 1.03-1.04 1.03-1.04v1.04h1.04l-1.04 1.04h1.04c0-1.04 0-1.04-1.04-1.04v-1.04c0-1.04 1.04-2.06 1.04-2.06h1.04v-2.08l1.03-1.04s0 1.04 1.04 1.04c-1.04 0-1.04-1.04-1.04-1.04l-1.03-1.04h1.03s0-1.04 1.04-1.04v-1.02c0-1.04 0-2.08 1.04-2.08 0-1.04 2.07-4.13 3.11-4.13v-2.08c1.03-2.08 1.03-3.1 2.07-4.13 1.03-2.08 1.03-3.12 2.07-5.17 1.04-3.12 3.11-6.21 4.15-9.33 1.03-3.1 2.07-5.17 3.11-8.27 1.03-1.04 2.07-2.08 3.1-3.12 2.08-2.06 5.18-5.17 8.29-5.17 13.45-6.21 27.94-9.31 43.48-10.35 2.07 0 3.1-1.04 5.17-1.04h14.49c3.11 1.04 6.21 1.04 9.31 1.04 6.21 1.04 13.46 3.1 19.68 5.17 6.2 3.12 10.35 6.21 14.49 10.35 5.17 7.25 6.2 15.54 4.13 23.81-1.03 9.33-5.17 17.6-10.35 25.89-2.08 2.06-4.15 5.17-6.21 8.27-14.49 17.6-26.92 37.27-38.3 56.93 0 1.04 0 1.04-1.03 1.04h2.07c6.21-1.04 12.42-2.06 19.67-3.1 3.11 0 7.24-1.04 11.39-1.04 1.04 0 2.07-1.04 3.11-1.04 2.07-1.04 4.15-1.04 7.24-2.08h8.3c3.11 0 5.17 0 7.24-1.02h20.71c1.04 1.02 2.07 1.02 3.11 1.02h5.17c3.11 1.04 6.21 2.08 8.28 3.12 5.17 2.08 9.32 5.17 11.39 9.31 3.11 3.12 4.15 7.25 5.17 11.39 0 0 1.04 1.04 1.04 2.08 1.04 1.04 1.04 3.1 2.07 5.17 0 2.08 1.04 4.13 0 7.25 0 4.13 0 8.27-1.03 12.42-1.04 3.1-1.04 5.17-2.08 8.27-1.03 1.04-1.03 3.12-2.07 4.13 0 1.04 0 3.12-1.04 4.16v1.04c-1.03 0-1.03 1.02-1.03 2.06-2.07 6.21-5.17 11.39-11.39 13.46-3.11 2.08-6.21 2.08-8.28 3.1-3.11 1.04-5.18 1.04-8.28 2.08-4.15 2.08-8.29 3.1-12.42 4.13-1.04 0-2.07 0-3.11 1.04-2.07 1.04-4.15 2.08-6.21 1.04h-1.04v2.08h-2.07c-1.03 0-2.07 1.02-2.07 0-2.07 0-4.15 0-5.17 1.02H1682.11l-1.04 1.04v-1.04c-1.04 1.04-2.07 1.04-2.07 1.04h-2.07l-1.04 1.04c-1.04 0-3.11 0-3.11 1.04-1.04 0-1.04-1.04-1.04-1.04-1.03 1.04-1.03 1.04-2.07 1.04-1.04 1.04-3.11 1.04-5.17 1.04 0 0-1.04 1.02-1.04 0-1.03 1.02-1.03 1.02-2.07 1.02h-1.04c-1.03 0-3.11 1.04-3.11 0h-1.03c0 1.04-1.04 1.04-1.04 1.04l-1.04-1.04v1.04h-1.03v-1.04 1.04H1651.03v-1.04c0 2.08-1.04 2.08-2.08 2.08H1646.88c-1.04-1.04-1.04-1.04-1.04-2.08v2.08h-1.03s-1.04 0-1.04 1.04v-2.08c-1.04 1.04-1.04 1.04-1.04 2.08h-1.03v-1.04 1.04c-1.04 1.04-2.08 0-3.11-1.04v1.04c-1.04 0-3.11 0-4.15 1.04 0-1.04-1.03-1.04-1.03-1.04v1.04s-1.04 0-1.04-1.04c0 1.04 1.04 1.04 1.04 1.04h-1.04v-1.04h-1.04l1.04 1.04h-1.04v-1.04c-1.03 0-1.03-1.04-2.07-1.04v1.04c1.04 0 1.04 0 1.04 1.04h-1.04v-1.04 1.04h-1.04v-1.04 1.04c-1.03-1.04-1.03 0-1.03 1.04-2.07 0-2.07-1.04-2.07-2.08h-1.04c-1.04 1.04-1.04 1.04-1.04 2.08h-2.07s0-1.04-1.04-1.04c0 1.04 0 1.04-1.03 2.06v-1.02l-1.04-1.04v2.06-1.02c-1.04 1.02-1.04 1.02-2.07 1.02V926v1.02c-1.04-1.02-2.08 1.04-3.11 0h-4.15c-1.03 1.04-3.11 1.04-4.13 1.04v-1.04 1.04l-1.04 1.04h-3.11c-2.07 1.04-5.17 1.04-7.24 2.08-1.04 0-1.04 0-2.08 1.02 0 1.04 0 1.04-1.03 1.04 1.03 1.04 0 2.08 0 2.08v1.04c-1.04 0-1.04 1.04-1.04 1.04-1.04 2.06-1.04 3.1-2.07 4.13 0 1.04-1.04 1.04-1.04 1.04 0 1.02 0 1.02-1.03 2.06v-1.04c0 1.04-1.04 1.04-1.04 2.08v1.04h-1.04v2.08h-2.07 1.04c0 1.02 0 1.02-1.04 1.02h2.07c-1.03 0-1.03 1.04-1.03 1.04l-1.04 1.04v1.04c-1.04 0-1.04 1.04-1.04 1.04v1.04h-1.03 1.03c0 1.02-1.03 1.02-1.03 1.02v1.04h-1.04c0 1.04-1.04 1.04 0 2.08-1.04 0-1.04 0-1.04 1.04l-1.03-1.04v1.04l1.03-1.04c0 1.04 0 2.06-1.03 3.1v-2.06c0 1.02-1.04 1.02-1.04 1.02 0-1.02 0-1.02-1.04 0v-1.02l1.04 1.02c1.04 2.08 1.04 2.08 0 3.12-1.04 0-1.04 2.08-1.04 2.08h-2.07c0 1.02 1.04 1.02 1.04 1.02-1.04 2.08-1.04 0-2.07 1.04 0 0 0 1.04 1.03 1.04l-1.03 1.04s0-1.04-1.04-1.04V973.65c0-1.04-1.04-1.04-1.04-1.04v-1.02 1.02h-1.03 1.03c0 1.04-1.03 2.08-1.03 2.08l1.03 1.04c-1.03 0-2.07 0-3.11 1.04 1.04 1.04 1.04 2.06 0 3.1 0 1.04 0 2.08-2.07 1.04 0 0 0 1.04 1.04 1.04h-1.04v2.06-1.02 2.06c-1.04 1.04-2.07 2.08-2.07 3.12l-1.04 1.04c0 1.02 0 1.02-1.03 1.02v1.04c-1.04 2.08-2.08 4.16-3.11 6.21 0 1.04-2.08 5.17-4.15 6.21 1.04 1.04-1.04 2.08-1.04 3.12 0 1.02-1.03 2.06-2.07 3.1 0 1.04-1.04 1.04-2.07 2.08l1.03 1.02h-1.03c0 2.08-1.04 2.08-2.07 2.08v1.04s-1.04 1.04-2.08 1.04h2.08c-1.04 1.04-1.04 2.06-2.08 2.06v1.04h-1.03v2.08-1.04h-1.04 1.04v1.04c0 1.04-2.08 1.04-2.08 3.1h-1.03s-1.04 1.04-2.08 1.04c1.04 0 1.04 0 2.08 1.04 0 0-1.04 0-1.04 1.04v-1.04H1536c1.04 2.08 1.04 2.08-1.03 3.1 1.03 0 1.03 0 1.03-1.02h-1.03v3.1h-1.04v1.04s-1.04 0-1.04 1.04l1.04-1.04c0 2.08-2.07 2.08-3.11 3.1h1.04c0 1.04 0 1.04-1.04 1.04l-1.03-1.04 1.03 1.04c0 1.04-1.03 1.04-1.03 2.08h-1.04c0 1.04 1.04 1.04 1.04 1.04h-2.08c1.04 0 1.04 1.02 1.04 1.02l-1.04 1.04h-1.03c0 1.04 0 1.04 1.03 1.04-1.03 1.04-2.07 0-2.07 0 0 1.04 1.04 1.04 1.04 1.04-1.04 0-1.04 1.04-2.08 1.04 1.04 0 1.04 0 1.04 1.04-1.04 1.02-1.04 0-2.07-1.04 0 1.04 0 1.04-1.04 2.06v-1.02h-1.04 1.04c0 1.02 1.04 1.02 2.07 1.02v1.04h-2.07v2.08c0-1.04-1.04-1.04-2.07-1.04h1.03-1.03c1.03 1.04 1.03 1.04 0 2.08h1.03v1.02s-1.03 1.04-2.07 2.08h-1.03c0-1.04-1.04 0-1.04-1.04v2.08c0 1.04 1.04 1.04 0 2.08 0 1.02 0 2.06-1.04 3.1v-1.04h-2.07v2.08-1.04 2.08H1512.17s1.03 1.02 1.03 2.06h-1.03c0 1.04-1.04 2.08-1.04 2.08v-1.04 2.08c1.04 0 1.04 1.04 1.04 1.04-2.08 2.06-3.11 4.13-4.15 6.19 0 0-1.04 0-1.04 1.04-1.03 2.08-2.07 4.16-3.1 5.17-1.04 1.04-2.08 2.08-3.11 3.12-2.08 2.08-3.11 4.13-6.21 6.21 0 0-1.04 1.04-2.07 2.06-1.04 1.04-2.08 2.08-3.11 3.12-2.08 3.1-4.15 5.17-7.25 7.25h-2.07v1.02c-2.07 1.04-3.11 1.04-5.17 2.08-2.08 0-3.11 2.08-5.18 0h-1.03c-1.04 0-2.08 1.04-3.11 1.04h-2.07c-2.08-1.04-4.15-2.08-6.21-2.08-3.11-1.04-6.21-1.04-8.28-2.06-3.11-1.04-6.21-2.08-9.32-3.12-1.04 0-2.07-1.04-3.11-1.04-2.07-1.02-3.11-1.02-5.17-2.06-1.04-1.04-2.08-1.04-3.11-2.08-2.07-1.04-3.11-2.08-4.15-2.08-1.03-1.02-1.03-1.02-2.07-2.06-1.04-1.04-2.07-1.04-3.11-2.08s-2.07-2.06-3.11-4.13v1.04c0-1.04 0-1.04-1.04-1.04v-1.04 1.04c0-1.04 0-1.04-1.03-1.04 1.03 0 0-1.04 1.03-1.04h-1.03v1.04c0-1.04 0-2.08-1.04-2.08-1.03-2.06-2.07-3.1-2.07-4.13s-1.04-2.08-1.04-3.1c-1.03-2.08-1.03-4.16-2.07-6.21V1062.76c0-1.04 1.04-1.04 1.04-2.08v-5.18c1.03-3.1 1.03-7.25 2.07-10.35 1.04-2.08 2.07-3.12 2.07-4.13 0-2.08 1.04-3.12 1.04-4.16 1.03-2.06 1.03-4.13 2.07-5.17 2.07-8.27 5.17-15.52 8.28-22.77 3.11-6.21 7.25-12.42 10.36-19.65 2.07-4.16 4.13-8.29 6.2-12.42 2.08-5.17 4.15-9.33 7.25-14.5 4.15-8.27 9.32-17.6 14.49-25.87 1.04-2.08 2.07-3.12 2.07-4.16-1.03-2.06-3.11-3.1-5.17-4.13h-8.28c-3.11 0-7.25-1.04-11.39-1.04-2.07 0-4.15-1.02-7.25-1.02H1430.35c-2.07-1.04-3.11-1.04-5.17-1.04h-1.04s-1.03-1.04-2.07-1.04c-1.04 1.04-2.07 0-2.07 0h-4.15v-1.04H1412.74s-2.07 0-3.11-1.04h-4.13v-1.04h-4.15c-1.04 0-2.07-1.02-4.13-1.02-2.08 0-3.11-1.04-5.18-2.08h-3.11c-2.07-1.04-4.13-3.1-6.2-4.13-1.04-1.04-2.08-2.08-2.08-4.16 0-1.02 0-2.06-1.03-3.1-4.15-6.21-6.21-13.46-7.25-20.69-1.03-1.04-1.03-2.08-1.03-2.08v-4.25zm40.37 190.46c0 1.02-1.04 1.02-1.04 1.02h1.04v-1.02zm-1.04 3.1v-1.04 1.04zm0 1.04h1.04-1.04 1.04-1.04zm4.14-33.12c0 1.02-1.03 1.02-1.03 1.02h1.03v-1.02zm-1.03 39.33h1.03-1.03zm1.03 3.1v-1.04 1.04h1.04-1.04zm2.08 2.07v-1.04h1.03c-1.03 0-1.03 0-1.03 1.04zm2.06 1.04h-1.04 1.04zm18.64 11.39c-1.04 0-2.08-1.04-3.11-1.04v-1.04h-1.04c-1.04 0-2.07-1.04-4.15-2.08h-1.03c0-1.02-1.04-1.02-2.07-1.02 0 0 0-1.04-1.04-1.04h-1.04v-1.04 1.04h1.04l1.04 1.04c1.03 0 1.03 1.02 2.07 1.02 2.07 1.04 4.13 2.08 6.21 3.12 1.04 0 2.08 1.04 3.12 1.04zm8.28 3.09c-1.04-1.04-2.08-1.04-3.11-1.04 1.03 0 2.07 1.04 3.11 1.04zm4.14-138.7v-1.04h1.04c0-1.02 1.04-2.06 2.07-3.1V956h1.04v-1.02l1.03-1.04v-1.04 1.04l-1.03 1.04V956h-1.04v2.08c-1.03 1.04-2.07 2.08-2.07 3.1h-1.04v1.04zm6.21-11.39v1.04-1.04zm35.19 143.88h-1.04 1.04zm15.52-19.65h-1.03 1.03zm7.26-11.39-1.04 1.02v-1.02h1.04zm1.03-4.15v-1.02 1.02zm2.07-3.1c1.04-1.04 1.04-1.04 2.07 0h-2.07zm2.07-5.17h-1.03s1.03 0 1.03 1.04v-1.04zm1.04-228.76h-1.04 1.04zm-1.04 3.1v-1.04 1.04zm3.1 226.7h-1.04 1.04zm1.04-240.17 1.03 1.04h-1.03v-1.04zm0 237.05v1.04-1.04zm4.14-239.1c0-1.04 0-1.04 0 0 0-1.04 0-1.04 0 0zm1.04-8.29h1.04-1.04v-1.04 1.04zm0 1.04h1.04-1.04zm0 232.91v1.02-1.02zm2.06-1.04h-1.03 1.03zm0-236.01h1.04-1.04zm1.04 236.01h1.03-1.03zm2.07-2.08h1.04s0 1.04-1.04 0zm3.11-250.49v1.02-1.02zm1.04 2.06h1.03-1.03zm1.02 239.12v-1.04 1.04zm2.08-249.47-1.04 1.04 1.04-1.04zm0 243.26v-1.04h-1.04v1.04h1.04zm1.03 0h-1.03v1.04h1.03v-1.04zm2.08-250.51h1.03-1.03zm1.03 0v1.04-1.04zm2.06-5.17h-1.03 1.03zm1.04 4.13h-1.04 1.04zm4.15 233.95v-1.04 1.04zm1.03-3.12v1.04-1.04zm4.14-5.17v-1.04s0 1.04-1.04 1.04h1.04zm-1.04 1.04v1.04-1.04zm4.15-11.39v1.04h1.03c-1.03 0-1.03-1.04-1.03-1.04zm0 4.14v1.04-1.04zm5.17-8.27h1.04v1.04c-1.04 0-1.04-1.04-1.04-1.04zm1.04-3.12v1.04-1.04zm1.03-7.23v1.02-1.02zm1.04 5.18h-1.04 1.04zm0-5.18v1.02-1.02zm2.06 1.02h1.04-1.04zm3.11-8.27v-1.04 1.04zm0 4.14v-1.04 1.04zm2.07-6.22h-1.03 1.03zm0 1.04h-1.03 1.03zm1.04-8.29h-1.04 1.04zm-1.04 5.2h1.04-1.04zm2.08-7.25h2.07-2.07zm1.02 3.09h1.04-1.04zm3.11-6.21c1.04-1.04 1.04-1.04 2.08-1.04-1.04 0-1.04-1.02-2.08-1.02v2.06zm0 4.16v-1.04 1.04zm2.08-4.16v1.04-1.04zm12.41-15.52v1.04-1.04zm16.56-2.08V926v1.02zm5.19-2.06h-1.04 1.04-1.04 1.04zm3.1-1.03v1.04-1.04zm2.07 2.07v-2.08c0 1.04 0 1.04 1.04 2.08h-1.04zm4.13-1.04h-1.03 1.03zm12.43-1.03v-1.04 1.04zm6.21-84.88v1.02-1.02zm0 82.8v-1.04 1.04zm1.04 0h1.03-1.03zm4.13-3.1v1.04-1.04zm13.46 0v1.04-1.04zm10.35-79.7h1.04l1.03 1.02v-1.02H1675.81zm3.11-1.04v1.04-1.04zm3.11 0v1.04h1.03c-.01-1.04-.01-1.04-1.03-1.04zm5.17-9.33v-1.02s0 1.02-1.04 1.02h1.04zm7.24 83.86h1.04-1.04zm8.29-73.49h1.03-1.03zm9.31 67.28h-1.03H1713.08h-1.04zm26.91-79.7c1.04 1.04 2.07 2.06 3.11 2.06-1.04-1.02-2.07-1.02-3.11-2.06zm4.15 4.13h1.03-1.03zm2.07 2.08h-1.04 1.04zM655.46 1358.82h-1.41v-.71c-2.82 0-4.94-.69-7.76-.69h-2.12c-2.12-1.42-4.23-.71-6.35-2.83h-.71c-1.41 0-2.82-.69-3.52-1.4-.71 0-1.41 0-2.12-.71h-.71v-.71.71c-.7 0-.7 0-1.41-.71 0 0 0-.71-.7-.71-.71-.71-2.12-.71-2.82-1.4-.71 0-1.41-.71-1.41-.71v-.71h-.71c-1.41 0-2.12-1.42-2.82-2.82l-.7.71c-1.41-1.42-2.82-2.12-3.52-3.54-.71 0-1.42-.69-1.42-1.4-.7 0-.7-.71-.7-.71-1.42-.71-2.82-1.42-2.82-2.82 0-.71 0-1.42-.71-1.42l-.7-.71c-.71-1.4-1.41-2.82-2.12-4.23-1.41-2.82-2.12-5.63-2.82-7.76-.7-2.11-.7-3.52-.7-4.92v-1.42c-.71-.71-.71-2.12-.71-2.82 0-.71.71-1.42.71-1.42l-.71-.71c0-.71.71-.71.71-1.4-.71 0-.71-.71-.71-.71 0-.71 0-1.42-.71-2.12v-1.4c1.42-1.42 1.42-2.12 0-2.83v-1.4h.71s0-.71.71-.71c-.71-.71-.71-.71-1.42-.71v-.71c.71 0 .71 0 .71-.71v-.69c0-2.12 0-3.54.71-5.65 0-.71-.71-2.11 0-2.82 0-2.12 0-4.23.7-5.65.71 0 0-.71.71-.71v-3.52c0-.71 0-2.11.71-2.82v-1.42c.7-2.11 1.41-4.92 2.12-7.05.7-2.82 1.41-5.63 2.11-9.17-.7-1.4-.7-1.4.71-2.82 0-.71 0-1.4.71-1.4.7-2.12 1.41-4.23 2.12-5.65 1.41-4.94 3.52-8.46 4.93-13.4 4.23-9.16 7.75-18.33 11.99-27.5 2.82-6.34 5.64-11.99 8.46-17.62.7-1.42 2.12-2.82 2.12-4.94-.71 0 0 0 0-.71 1.41-2.82 3.52-5.63 4.93-7.76 2.12-4.23 4.23-8.46 6.35-12.68 2.82-5.65 5.64-10.59 9.16-16.22 4.94-9.17 10.58-19.03 16.22-28.91 4.23-6.34 7.76-12.69 11.99-19.03 2.82-4.23 5.64-9.17 8.46-14.11 4.22-6.34 8.46-12.68 12.69-19.03 1.41-2.11 2.82-3.52 4.23-5.63.71-.71 1.41-1.42 1.41-2.83 0 0 0-.69.71-.69 3.52-3.52 7.05-5.65 11.99-7.06h16.21c1.42 0 3.53 0 4.94.71 8.46.71 16.22 2.83 23.26 5.65 4.23 1.4 7.76 2.82 11.99 4.94 7.05 2.82 13.39 6.34 19.03 10.57 3.53 2.82 7.05 5.63 10.58 8.46 2.82 2.11 4.23 5.63 4.23 9.86 0 4.94-2.12 9.88-4.23 14.11-1.41 2.11-2.82 3.52-3.52 6.34-1.42-.71-2.12 0-2.82 1.42-.7.69-1.41 1.4-2.82 2.82-4.23 4.23-9.17 8.46-14.1 11.99-.71.71-1.42 1.42-2.12 2.11-5.64 7.76-11.28 15.51-16.93 23.26-9.16 13.4-17.63 27.5-26.79 41.61-9.87 16.22-20.44 31.73-30.31 47.95l-.71.69c1.41-.69 2.82-2.11 4.23-2.82 1.41-1.42 2.82-3.52 4.93-4.94 7.76-9.16 16.22-17.62 23.97-26.08 2.12-2.11 4.23-4.94 7.05-7.05 5.65-6.35 11.29-11.99 17.63-18.33 3.53-4.23 7.76-7.77 11.99-11.99 5.64-5.65 11.29-11.29 16.93-17.63 2.82-2.82 5.64-5.65 8.46-8.46 5.65-5.63 11.29-11.28 16.93-16.91 4.23-4.23 7.76-7.77 11.99-11.29 2.82-2.82 6.34-6.34 9.87-9.16 1.41-2.12 3.52-4.23 4.93-6.35 1.41-1.4 2.82-2.82 4.23-4.23.71-.69 2.12-1.4 2.12-2.11s.71-.71.71-.71c.7-.71.7-1.4 1.41-2.11.7 0 .7-.71 1.41-.71v-.71c1.41-1.42 2.82-2.11 3.52-3.52 2.12-2.12 4.23-4.23 5.64-6.34.71-.71 2.12-2.12 2.82-2.83 1.41-2.82 3.52-4.92 5.64-7.76.71-.71 1.41-.71 1.41-1.4 1.42-1.42 2.12-2.12 4.23-1.42 0-.71.71-.71.71-1.42.71 0 1.41 0 1.41-.69 3.52-2.83 7.76-4.23 11.99-6.35 1.41 0 2.12-.71 3.52-.71 6.35-1.4 12.69-2.11 19.74-1.4 4.94 0 9.87.69 14.1 1.4 6.35 1.42 12.69 2.12 19.03 3.52 2.82.71 6.35 2.12 9.17 4.23 3.52 2.12 5.64 4.94 7.75 8.46 1.41 4.23 1.41 8.46-.71 12.69-1.41 2.11-2.82 4.23-4.23 6.34-.7 1.42-1.41 2.83-2.12 4.23-5.64 8.46-11.28 17.63-16.92 26.1-9.87 15.51-19.74 31.02-29.61 45.82-6.35 9.86-12.69 19.74-17.63 29.6-.71.71-.71 1.42-.71 2.12 3.53-2.82 6.35-4.94 9.87-7.76 10.58-9.17 20.45-18.34 29.61-28.2 2.12-2.11 4.94-4.23 7.05-6.34 5.64-5.65 11.28-11.99 16.92-17.63 5.64-6.34 11.99-11.99 17.63-18.33 4.23-3.52 7.76-7.05 11.99-10.59 8.46-8.45 17.63-15.51 27.5-22.56 0 0 .71-.71 1.41-.71 1.41-1.4 2.82-3.52 4.23-4.92.71 0 1.41-.71 2.12-1.42 2.12-2.11 4.23-3.52 7.05-4.23 2.12 0 4.94-1.42 7.05-2.11 5.64-1.42 10.57-2.12 16.21-2.12 7.05 0 14.1 1.42 21.16 2.82 5.64 1.42 11.28 2.83 16.92 4.94 4.94 2.12 9.16 4.23 13.39 6.35 3.52 2.11 7.05 4.92 9.17 9.16v4.23c.7.71.7 2.12.7 2.82 0 3.54-1.41 6.35-2.82 8.46-1.42 2.12-3.53 4.94-4.94 6.35-2.82 2.11-4.23 4.92-6.35 7.75-.7 1.4-1.41 2.82-2.82 4.23-5.64 9.16-10.58 18.33-16.93 26.79-7.05 11.99-14.8 23.26-22.56 35.25-9.16 12.69-16.92 26.08-23.97 39.48-7.05 15.51-12.69 31.73-16.22 47.95v4.22c.71-.69.71-.69 1.42-.69 4.23-3.52 9.16-5.65 13.39-9.17 2.12-1.42 3.52-2.82 5.64-4.23 5.64-3.52 11.28-7.76 16.22-11.99 6.35-5.63 12.69-11.28 18.33-16.93 4.23-4.23 8.46-8.45 11.99-13.39 4.94-4.94 9.17-10.57 13.39-16.93 2.12-2.82 4.23-5.63 7.05-7.76 2.12-1.42 3.52-2.11 5.64-2.82 2.82-.71 4.94-.71 7.75-.71.71 1.42 1.41 2.82 2.12 4.23V1215.59c-.71 2.82-2.12 5.63-3.52 7.76-2.12 3.52-3.52 6.34-5.64 9.86-2.82 4.23-5.64 9.17-7.76 13.4-4.23 7.76-8.46 14.8-12.69 21.85l-8.46 14.82c-2.82 4.22-4.93 8.45-7.76 11.97-2.82 4.23-5.64 7.76-8.46 11.29-2.12 3.52-4.23 7.05-7.05 10.57-.7 1.42-1.41 2.82-2.82 4.23-.71 1.4-2.12 2.82-2.82 4.23-.71 1.4-1.41 2.11-2.82 2.82-.71 1.42-2.12 2.11-3.53 3.52-2.12 2.82-5.64 4.23-8.46 6.35-.71.69-1.42 1.4-1.42 1.4-2.12 1.42-4.22 2.82-6.34 3.52-4.94 2.83-9.87 4.94-14.81 7.05-4.23 2.12-9.16 2.83-14.1 4.23-3.52.71-7.05 1.42-10.57 1.42-2.82 0-6.35 0-9.17-.71-5.64-.71-10.57-2.82-15.51-4.94-4.93-2.82-8.46-5.63-12.69-9.16-.71-.71-1.41-2.12-2.12-2.82-.71-.71-1.41-1.42-1.41-1.42-7.05-7.75-11.99-16.22-15.51-25.39-2.12-7.05-3.53-14.8-4.23-22.56-.71-7.05 0-14.8.7-21.85 1.42-9.88 3.53-19.03 6.35-28.2 2.82-9.17 5.64-19.03 8.46-28.2v-2.11l-.71.69c-10.57 11.29-19.74 23.26-28.9 35.25-16.22 21.86-31.73 44.42-46.53 66.98-2.82 3.52-4.94 7.76-7.76 11.28-3.53 4.23-7.05 9.17-11.29 13.4-2.12 2.12-4.23 4.94-6.34 7.05-2.82 2.12-5.65 4.94-8.46 7.05-2.12 1.42-4.23 3.54-7.05 4.94-.7 0-2.12.71-2.82 1.42-5.64 2.11-11.99 2.11-17.63.71-8.46-1.42-15.51-4.94-21.86-9.17-4.94-3.52-9.16-7.76-12.69-12.69-2.11-2.82-3.52-5.63-3.52-9.16-.7-3.54 0-6.35.71-9.88 2.12-4.94 3.52-10.57 5.64-16.22 4.93-12.69 9.87-25.37 14.8-38.07 8.46-20.45 17.63-41.59 27.5-62.04 0 0 .71-.71.71-1.42-4.23 4.23-7.75 8.46-11.28 11.99-7.75 8.46-16.22 16.93-23.26 25.39-3.53 4.22-7.05 8.45-10.58 12.68-4.93 5.65-10.58 11.28-15.51 16.93-5.64 6.34-11.99 12.69-17.63 19.74-7.05 9.17-14.1 17.62-21.86 26.08-5.64 7.06-11.28 13.4-17.63 19.74-2.12 2.83-4.23 4.94-6.35 7.06-.7 1.4-2.12 2.11-2.82 2.82-1.42.71-2.82 2.11-4.23 2.82-.71 0-.71.71-.71.71 0 .71-.7.71-.7.71h-.71.71c-1.42.71-2.12 1.4-2.82 2.11-.71 0-1.41.71-2.12.71v.71h-2.12c0 1.4-.7.71-1.41 1.4-.71.71-2.12 1.42-2.82 1.42v-.71h-.7l-2.12 2.12c-.71 0-1.41 0-2.12.71v-.71c0 .71 0 .71-.71.71-1.41.69-2.82 1.4-4.93 1.4-.71.71-1.41.71-2.12.71-.71 0-1.41.71-2.12.71-2.12.71-4.23.71-6.35.71-1.41.69-2.82.69-4.23 1.4H656.81c.06-.6-.65-.6-1.35.11zm-51.47-56.4h-.71v-.71c.01.71.01.71.71.71zm6.35-21.86h-.71.71zm14.1 67.68v.71c0-.71-.71-.71-.71-.71h.71zm20.44-158.63v-.69.69zm2.83 157.93h.7-.7zm7.05-176.97v.71c-.7.71-.7 1.42-.7 2.12h-.71c-.71.69-.71 1.4-.71 1.4v.71c0 .71-.7.71-.7.71.7.71.7.71 0 .71v-.71s.7 0 .7-.71v-.71s.71-.71.71-1.4h.71c0-.71.7-1.42.7-2.12v-.71zm3.52-6.34v.71-.71.71-.71zm19.04-35.95h.7-.7zm2.12 222.07h1.41c.71 0 2.12-.69 2.82-1.4h.71-.71c-.7 0-1.41.71-2.11.71-.71 0-.71.69-.71.69-.71 0-.71 0-1.41.71v-.71zm5.63-235.48h-.71.71zm76.15 87.43v-.71.71zm4.93-4.94v.71-.71zm11.98-11.28.71-.69-.71.69c-.7.71-1.41.71-.7 1.42h-1.42c0 .71 0 .71.71.71-.71 0-.71.71-.71.71-.7-.71-.7 0-1.41.69 0 0-.71 0-.71.71s-.7.71-1.41.71v.71c-.7 0-.7.71-1.41.71v1.4h-.71c-1.41 0-1.41 0-1.41.71h-1.41c.7.71.7.71 1.41 0 .71.71 1.41 0 1.41-.71h.71c1.41-1.4 2.12-2.11 3.52-3.52v-.71c.71 0 .71-.69 1.41-.69v-.71c.71 0 .71 0 1.42-.71.01-.01.01-.72.71-1.43zm-9.87 9.88c-.7 0-.7 0-.7.71 0-.71.7-.71.7-.71zm11.99-11.98h-.7v.71c0-.71.7-.71.7-.71zm.71-.71v-.71s0 .71-.71.71h.71zm16.92-19.74h.71-.71zm185.42-31.73h-.71.71zm7.76-9.17h-.71.71zm47.23 162.87.7-.71h.71v-.71.71h-.71l-.7.71zm6.34 53.57h.71-.71zm3.54-2.1c0 .71-.71.71-.71.71-.71 0-.71 0-1.41.71.7-.71 1.41 0 1.41-.71 0-.01.71-.01.71-.71zm8.45-6.36h-.7v.71h-.71c-.71 0-.71.71-1.41 1.42-.71 0-.71.71-.71.71h-.7c0 .71-.71.71-.71.71 0 .69-.71.69-1.41.69v.71c-.71 0-.71 0-1.42.71.71 0 1.42-.71 1.42-.71.7 0 1.41-.71 1.41-1.4.71 0 .71 0 1.41-.71l.71-.71c.7 0 1.41-.71 1.41-1.42h.71v-.71h.7v-.69c.71 0 1.42-.71 1.42-1.42.7 0 .7 0 1.41-1.42-.71.71-1.41 1.42-1.41 2.12-.71 0-.71 0-.71.71h-.71.71-.71v.7zm4.23-4.21h-.7.7zm.71-.71c0-.71-.71-.71-.71-.71h.71v.71zm6.35-64.17h.7-.7l-.71.71h.71l-.71-.71h.71zm3.52-2.1h.7v-.71h-.7v.71zm.7-1.42c.71 0 .71.71.71.71v-.71h-.71zm2.12-1.41c-.7 0-.7 0-1.41.71.71-.01 1.41-.01 1.41-.71zm2.11-1.4h-.7.7zm11.29-11.28v-.71.71z"/><path d="M1110.17 1262.23v-14.8c.71-2.83.71-5.65.71-8.46 1.41-9.17 3.52-19.03 7.05-28.2 3.53-9.17 7.05-17.62 10.58-25.37.71-1.42 1.41-2.83 1.41-4.23 0 0 0-.71.71-.71.7-.71 0-2.12 1.41-2.83v-.69c0-.71.71-.71 1.41-1.42-.7 0-.7 0-.7-.71h.7v-.71c.71-.69.71-1.4 1.42-2.11 0-.71.7-2.12 1.41-2.12 0 0 0-.69-.71-.69.71-.71 1.42-1.42 1.42-2.12.7-.71.7-2.11 1.41-2.11.71-2.83 2.12-4.23 3.52-5.65h.71v-.71h-.71c.71 0 .71-.69.71-1.4.7 0 .7-.71.7-.71 0-.71 1.42-1.42 1.42-2.12.7 0 .7-.69.7-.69v-1.42h1.42c0-.71.7-1.42.7-2.12.71-1.4 1.42-3.52 2.82-4.22.7-1.42 1.41-2.12 2.12-3.54.7-.69 1.41-1.4 1.41-2.11 2.12-2.82 4.23-5.65 6.35-9.17 2.12-2.82 4.93-4.92 6.35-7.75 0-.71.7-.71.7-.71 5.64-7.76 11.28-14.8 18.33-21.14 4.23-4.94 9.16-9.17 14.1-14.11 4.93-4.22 10.57-8.45 16.21-11.97 2.82-2.12 6.35-3.54 8.46-5.65h.71c4.23-2.11 8.46-4.23 13.39-5.65 6.35-2.82 12.69-4.23 19.74-4.92h12.69c2.12.69 4.23.69 6.35.69 3.52.71 7.05 1.42 10.58 2.12 2.12.71 4.23.71 7.05 1.42 1.41 0 3.52.69 5.64 1.4 4.94 2.12 10.58 4.23 14.81 7.75h1.41c1.41 0 2.12.71 2.82 1.42h.7c2.82 2.82 6.35 4.94 9.17 7.05 2.82 2.82 4.93 6.34 7.75 9.17 4.22 6.34 7.76 12.69 10.57 19.74 1.41 3.52 2.12 6.34 3.52 9.16.71 1.42 1.42 3.52 2.12 4.94v2.82c.71 0 0 .71.71 1.42 0 0 0 .71-.71.71 1.42.71 1.42 1.42.71 2.82 0 0 .71 0 .71.71v10.57h-.71v3.53h-.71v1.42c0 .71-.7.71-.7 1.42h.7-.7v2.11c0 .71-.71 1.42-.71 2.12 0 .69-.71.69-.71 1.4 0 0 0 .71-.7 1.42-.71 1.42-.71 3.52-1.42 4.94-.7 2.82-2.11 5.63-2.82 7.75 0 1.4-.71 2.11-1.41 2.82 0 1.42-.71 2.11-.71 2.82 0 0 0 .71-.71.71 0 .71-.7 2.11-1.41 2.82-.71 1.42-1.41 2.83-2.12 3.52v1.42c-.71 0-.71 0-.71-.71v.71h.71c-.71.71-.71 1.42-1.41 2.12 0 0-.71 0-.71.69 0-.69 0-.69 0 0 0-.69 0-.69 0 0-.7.71-1.41 2.12-2.12 3.52l-.7.71c0 .71-.71 1.42-1.42 2.12-1.41 2.11-2.12 4.23-3.52 6.34-.7 1.42-2.12 2.82-2.82 4.23 0 0-.71.71-.71 1.42-.71 0-1.41.69-1.41 1.4s-.71.71-.71.71l-.71.71c0 .71-.7 1.42-.7 1.42h-.71v1.4c-.71.71-.71.71-1.41.71 0 .71 0 1.42-.71 2.11-.7.71-.7.71-1.41 1.42 0 0-.71.71-.71 1.42-.7.71-1.41 1.4-2.12 2.11-1.41 1.42-2.12 2.83-2.82 3.52-.71.71-2.12 1.42-2.12 2.12-1.41 1.4-2.82 2.82-4.94 4.23l-.7.71c0 .69-.71.69-1.42.69v.71c-.7 0-1.41.71-2.11 1.42-.71.71-1.42 1.4-2.82 1.4v.71s-.71.71-1.41.71c0 .71-.71.71-1.42.71 0 .71-.7.71-.7.71v.71c-.71 0-1.42 0-2.12.69-1.41.71-2.12.71-2.82 1.42-1.41.71-2.82 1.42-4.23 2.11-2.82 1.42-6.34 2.83-9.16 3.54-2.82 0-4.93.69-7.05.69-.71.71-1.42 0-2.12 0v.71h-2.12c-2.12 0-3.52.71-4.94.71-2.12 0-3.52.71-4.93.71-1.41 0-2.82 0-4.23-.71v.71-.71h-4.23c-1.41 0-2.12 0-3.52-.71-2.12-.71-4.23-.71-6.35-1.4-1.41-.71-2.82-1.42-4.23-2.12-3.52-1.42-7.05-3.52-9.87-5.63-2.82-2.12-5.64-4.23-7.75-6.35-1.41 0-2.12-.71-2.82-1.4a843.48 843.48 0 0 0-4.23-4.23c-1.41 2.82-2.82 5.63-4.23 8.45-4.23 8.46-7.75 18.34-10.57 27.5-.71.71-.71.71-.71 1.42s.71 1.42.71 2.12c-.71 2.11-1.42 3.52-1.42 5.63 0 3.52-.7 7.05-.7 11.28 0 4.94.7 9.88 1.41 14.8.71 1.42 1.41 3.54 2.12 4.94.7 1.42 1.41 2.12 2.12 2.82 0 0 .7 0 .7.71 2.12 0 4.94.71 7.05.71 3.52 0 6.35-.71 9.16-.71 9.16-2.11 18.33-4.23 27.5-7.75 2.82-.71 6.35-1.4 9.16-2.82 5.65-2.82 11.99-6.34 17.63-9.17 3.53-2.11 7.76-4.23 10.58-6.34 5.64-4.23 10.58-8.46 16.22-12.69 13.39-9.86 26.79-20.45 39.48-31.73 2.12-2.11 4.22-4.23 7.05-5.63 2.12-2.12 4.94-2.83 8.46-2.83 2.12.71 3.52 1.42 4.23 3.54.7 1.4 1.41 2.82 1.41 4.92.7 0 .7.71.7.71-.7 2.82-1.41 4.94-2.82 7.05-1.41 1.42-2.12 2.12-2.82 3.52l-8.46 12.69c-12.69 18.34-26.09 35.25-42.31 50.76-8.46 7.75-17.63 15.51-27.5 22.56-10.57 7.06-21.86 12.69-33.84 16.93-10.58 3.52-21.16 5.65-32.44 5.65H1203.17c-3.52 0-7.76 0-11.99-.71-3.52-.71-6.35-1.42-9.87-1.42-1.41-.71-2.82-1.4-4.23-2.11-2.82-.71-5.64-1.42-8.46-2.82-7.05-4.23-14.09-8.46-20.44-13.4-11.99-9.88-21.15-21.16-28.2-35.25-5.64-9.88-8.46-20.45-9.16-31.02.06-1.52-.65-2.92-.65-4.34zm184.02-121.97c-1.41 0-3.52.71-5.64 1.42-3.52 1.4-7.76 2.82-11.99 4.23 0 0-.7.69-1.41.69-1.41 1.42-3.52 2.83-4.93 4.23-4.94 3.52-9.17 7.06-12.69 11.28-3.52 3.54-7.05 7.76-10.57 11.29-6.35 6.34-12.69 13.39-16.93 21.14-1.41 2.12-2.82 4.23-4.23 6.35-.7 1.4-.7 2.11.71 3.52 2.12 2.82 5.64 4.23 9.16 4.23 2.12.69 4.23 0 7.05 0 4.93-1.42 9.87-2.83 14.1-4.23 4.22-2.12 7.76-4.23 11.28-6.35 2.12-1.4 4.23-2.11 5.64-4.23v-.69c.71 0 1.41-.71 1.41-1.42 1.41-2.12 2.82-4.23 4.23-6.34l8.46-14.82c4.23-7.05 6.34-15.51 6.34-23.97.71-2.1.01-4.22.01-6.33zm-51.47 103.65h1.41-1.41zm71.91-28.21v.71h-.71c.71 0 .71 0 .71-.71zm3.53-2.12s.71 0 0 0c.71 0 0 0 0 0v-.71.71zm2.82-2.82h.7-.7zm19.04 22.56h-.71.71z"/></svg>